<?xml version="1.0" encoding="utf-8"?>
<!-- Generator: Adobe Illustrator 26.1.0, SVG Export Plug-In . SVG Version: 6.00 Build 0)  -->
<svg version="1.1" id="Layer_1" xmlns="http://www.w3.org/2000/svg" xmlns:xlink="http://www.w3.org/1999/xlink" x="0px" y="0px"
	 viewBox="0 0 244 406" style="enable-background:new 0 0 244 406;" xml:space="preserve">
<style type="text/css">
	.st0{fill:#DEB0A5;}
	.st1{fill:#D8ADAC;}
	.st2{fill:#D7B8B8;}
	.st3{fill:#DFB7B4;}
	.st4{fill:#E0B6AE;}
	.st5{fill:#D8B5B2;}
	.st6{fill:#D5B1AA;}
	.st7{fill:#DDBAAF;}
	.st8{fill:#D4B2A6;}
	.st9{fill:#E1C1BA;}
	.st10{fill:#DEC2B7;}
	.st11{fill:#D6B1A4;}
	.st12{fill:#DAB3A3;}
	.st13{fill:#D8B9AD;}
	.st14{fill:#E2C5BE;}
	.st15{fill:#D2A9A7;}
	.st16{fill:#C29998;}
	.st17{fill:#C99F9A;}
	.st18{fill:#C49D98;}
	.st19{fill:#D0A89C;}
	.st20{fill:#D0A596;}
	.st21{fill:#D1AA9F;}
	.st22{fill:#D0AAA0;}
	.st23{fill:#C5A195;}
	.st24{fill:#D1AD9C;}
	.st25{fill:#B88382;}
	.st26{fill:#C18E82;}
	.st27{fill:#C19292;}
	.st28{fill:#AA827E;}
	.st29{fill:#B2827C;}
	.st30{fill:#B58E87;}
	.st31{fill:#C59D8B;}
	.st32{fill:#BA8D7C;}
	.st33{fill:#B99086;}
	.st34{fill:#B78A7C;}
	.st35{fill:#B58E8D;}
</style>
<path class="st0" d="M160,101c2.34-0.37,4.69-0.74,7.03-1.11c1.8-0.32,2.61,0.7,3.02,2.24c2.02,2.64,2.64,5.91,3.99,8.86
	c0.03,2.25-1.42,2.39-3.11,2.2c-0.36-0.35-0.63-0.76-0.82-1.22c-0.57-1.81-0.12-3.79-0.97-5.56c-1.72-3.72-4.26-3.34-7.11-1.43
	c-1.2,0.81-1.98,2.15-3.38,2.72c-1.83,0.54-3.47,0.29-4.81-1.17c-0.42-0.61-0.55-1.29-0.4-2.01c0.75-1.66,2.58-1.1,3.78-1.83
	c0.66-0.31,1.29-0.7,1.91-1.09C159.45,101.44,159.74,101.24,160,101z"/>
<path class="st1" d="M194.05,115.97c4.51,0.54,1.99,5.06,3.98,7.03c-0.01,2.38-0.37,4.81,0.97,7.01c-1.67,0.83-1.91,2.73-2.99,3.99
	v0.01c-1.64,0.43-2.76,3.43-4.99,1.03l-0.13-0.14C194.79,129.06,194.48,122.52,194.05,115.97z"/>
<path class="st2" d="M196,134c0.35-1.82,0.63-3.69,2.99-3.99C198.18,131.47,197.81,133.27,196,134z"/>
<path class="st3" d="M166.99,114.05c1.03-0.33,2.06-0.66,3.08-1c2.34,2.35,4.75-0.15,7.12,0.11c0.23,1.61-0.91,2.49-1.86,3.47
	c-0.71,0.61-1.52,1.04-2.41,1.33c-0.47,0.17-1.07,0.17-1.41,0.47c-4.32,3.95-9.1,6.84-15.19,6.88c-4.01,3.54-4.77,3.55-7.71,0.09
	c0.57-2.93,2.31-4.46,5.34-4.42c0.81-0.71,1.63-1.42,2.43-2.12c-1.12-1.54-3.21,0-3.96-1.97c1.39-2.08,4.18,0.12,5.65-1.67
	c0.35-0.72,0.99-1.02,1.71-1.21c1.15-0.24,2.31-0.19,3.47-0.07C164.5,113.96,165.72,114.76,166.99,114.05z"/>
<path class="st4" d="M166.99,114.05c-0.58,1.53-1.58,1.76-2.93,0.96c-1.17-1.41-2.85-1.73-4.52-2.07c-0.86-0.33-1.75-0.65-1.61-1.84
	c0.04-1.64,1.13-2.58,2.31-3.46c1.76-1.03,2.96-4.31,5.68-1.38C166.45,108.84,165.04,111.68,166.99,114.05z"/>
<path class="st5" d="M172.96,156.96c-0.29,0.36-0.59,0.73-0.88,1.09c-0.78,2.38-2.77,3.93-4.08,5.94V164
	c-2.21,1.59-3.45,0.17-4.62-1.48c-0.79-3.13-3.24-6.16-0.67-9.53c1.39-1.07,3.11-0.68,4.67-1.01
	C171.39,151.17,173.16,152.99,172.96,156.96z"/>
<path class="st6" d="M127,73.01c0.39,1.03,1.48,2.33,0.12,3.08c-2.6,1.45-4.52-0.78-6.82-1.38c0.47-3.07,2.27-3.77,4.65-3.69
	C125.63,71.69,126.32,72.35,127,73.01z"/>
<path class="st7" d="M90.99,84c0.66-0.34,1.33-0.67,1.99-1.01c0.15,0.2,0.31,0.41,0.46,0.61c-0.14,2.94,0.5,6.23-3.44,7.4
	c-0.01-1.02-0.03-2.03-0.04-3.05C90.31,86.63,90.65,85.32,90.99,84z"/>
<path class="st7" d="M92.99,82.99c-0.21-3.58-0.24-7.08,4.69-8.22c-0.77,5.96,6.34,7.16,7.31,12.25c2.29,1.1,4.08,2.72,5.55,4.83
	c2.19,3.12,4.54,3.52,6.61,0.35c2.95-4.51,7.21-5.44,11.84-6.16c1.33,0.32,2.66,0.64,3.99,0.97c2.8-1.03,3.43,0.7,3.76,2.91
	c0.94,6.42,0.73,12.53-3.99,17.7c-1.1,1.2-1.87,2.72-2.89,4.03c-1.86,1.9-3,4.37-4.82,6.28c-3.34,3.51-7.02,2.78-8.81-1.69
	c-0.67-1.68-1.31-3.41-1.21-5.27c0.19-3.67-1.6-5.89-5.01-6.95c-0.59-1.25-1.53-2.11-2.68-2.69c-2.32,0.73-0.53,3.2-2.32,4.37
	c-3.21-1.5-6.61-3.08-10-4.66c-2.19-2.68-1.04-5.4,0.11-7.97c1.79-3.98,2.01-7.96,0.89-12.14c-1.51,0.2-1.17,2.65-3,2.1L92.99,82.99
	z"/>
<path class="st8" d="M110.01,103.99c3.83-0.17,5.06,2.51,5.9,5.5c0.58,2.05,0.84,4.19,1.52,6.2c0.43,1.27,0.39,3.07,2.46,3.28
	c2.04,0.21,3.49-0.58,4.65-2.18c1.44-1.97,2.21-4.44,4.46-5.78c3.37,1.06,1.26,3.21,1,4.99c-1.02,2.91-0.4,6.96-3.44,8.46
	c-4.1,2.03-8.67,3.23-13.16,4.28c-1.63,0.38-3.48-0.92-4.4-2.73c5.42-2.18,5.45-2.73,2.47-7.77c-1.74-2.94-5.36-4.02-6.58-7.31
	c0.35-0.63,0.71-1.27,1.06-1.9c3.29-1.69,4.28,3.47,7.49,2.39C115.49,107.56,112.18,106.02,110.01,103.99z"/>
<path class="st9" d="M93.01,83c2.08-1.25-0.3-4.9,3.34-5.64c1.98,5.54,2.9,10.99-0.27,16.41c-1.34,2.3-1.04,4.77-1.07,7.23
	c-3.22,0.44-6.28-2.52-5.87-5.79c0.18-1.42,0.58-2.81,0.87-4.22C92.45,88.88,91.95,85.65,93.01,83z"/>
<path class="st10" d="M104.88,110.93c5.41,2.71,8.61,7.21,10.54,12.91c-1.85,1.65-3.67,3.22-6.43,2.17
	c-0.99-0.37-1.97-0.74-2.96-1.11c-1.37-0.55-3.1-0.33-3.97-1.92c-1.05-0.61-2.1-1.22-3.14-1.83c-1.27-1.24-4.29-0.18-4.26-3.02
	c0.02-2.77,0.22-5.6,3.38-6.9C100.33,111.14,102.68,112.71,104.88,110.93z"/>
<path class="st11" d="M129,86.02c-0.63,1.32-1.67,1.96-3.14,1.98c-3.19,0.04-5.16,1.46-6.95,4.33c-2.94,4.7-6.48,4.35-9.44-0.09
	c-1.26-1.89-2.97-3.49-4.48-5.22c2.02-0.87,4.05,0.09,6.07-0.04c3.31,0,6.61,0,9.92,0.01c1.98-1.53,4.46-1.75,6.72-2.55
	c0.51,0.04,0.94,0.23,1.29,0.6C128.99,85.36,128.99,85.69,129,86.02z"/>
<path class="st12" d="M130,115.99c-0.24-1.68,0.67-3.59-1-4.99c6.47-5.96,7.65-13.52,6.69-21.77c-0.2-1.71-1.32-2.08-2.7-2.24
	c4.26-2.64,5.68-1.93,6.05,2.62c0.55,6.7-0.44,12.91-5.17,18C131.63,110.02,132.71,113.86,130,115.99z"/>
<path class="st8" d="M104.95,125.02c-0.96-0.36-1.92-0.72-2.88-1.08c0-0.32,0-0.65,0.01-0.97c1.55,0.17,2.89,0.78,3.97,1.92
	C105.67,124.94,105.31,124.98,104.95,125.02z"/>
<path class="st13" d="M104.99,151.02c-0.33,0-0.66-0.01-0.99-0.02c-1.75-0.93-3.01-2.35-4.15-3.95c-1.78-2.48-1.49-4.46,1.15-6.05
	c1.66-1.01,3.1-1.1,4,0.99c2.4,1.34,4.22,3.12,3.67,6.12C108.33,149.98,107.23,151.34,104.99,151.02z"/>
<path class="st14" d="M118.47,113.4c-0.47-2.39-1.06-4.77-1.4-7.19c-0.73-5.08,5.28-13.45,10.3-14.05c3.1-0.37,5.2,1.71,5.4,4.57
	C133.23,103.45,125.39,112.37,118.47,113.4z"/>
<path class="st15" d="M180,110.92c-0.06-0.34-0.11-0.69-0.17-1.03c0.47-0.84,1.27-0.93,2.1-0.94c1.12,2,3.88,0.1,5,2.1
	c-0.43,0.85-1.18,1.4-1.88,2.01c-1.86,1.46-3.72,2.52-5.51-0.09C179.37,112.22,179.46,111.52,180,110.92z"/>
<path class="st16" d="M182.01,147.01c2.17-4.04,4.7-7.82,7.94-11.1c0.12,4.93-3.72,8.42-4.75,13.16c-0.77,3.52-1.75,7.13-2.27,10.79
	c-4.23,2.85-2.51,7.36-3.16,11.22c-0.22-0.05-0.45-0.11-0.67-0.17c-0.9-0.77-0.45-1.85-0.64-2.79c-0.27-0.69-0.59-1.36-0.74-2.09
	c-3.42-5.69,1.67-10.06,2.33-15.12C181.03,149.77,181.36,148.31,182.01,147.01z"/>
<path class="st15" d="M192.96,113.04c-1.94-0.84-4.26-0.51-5.99-1.99C189.17,111.11,191.71,110.15,192.96,113.04z"/>
<path class="st17" d="M172.96,156.96c-1.28-3.02-2.59-5.73-6.71-3.32c-0.71,0.42-2.14-0.38-3.23-0.62c-0.16-0.15-0.32-0.3-0.48-0.45
	c-0.48-0.84-0.38-1.69-0.08-2.55c0.02-0.45,0.14-0.86,0.39-1.24c0.39-0.24,0.8-0.29,1.23-0.12l-0.05,0.47
	c1.86,0.68,3.87,0.04,5.77,0.73c2.52,0.91,4.41,2.17,4.3,5.18c-0.07,0.63-0.13,1.25-0.2,1.87
	C173.59,156.94,173.27,156.96,172.96,156.96z"/>
<path class="st18" d="M162.01,162.99c0.24-2.74-4.82-4.81-1.02-8c1.34,2.19,1.78,4.77,3,7.01c0.77,1.8,2.3,2.08,4.01,2.01
	c-0.63,2.95-1.74,4.02-3.98,1.07C163.44,164.31,162.69,163.68,162.01,162.99z"/>
<path class="st17" d="M168,163.99c0.38-2.65,2.56-4.07,4.08-5.94C172.14,161.01,170.21,162.6,168,163.99z"/>
<path class="st19" d="M88.15,88.08c0.6-0.04,1.21-0.09,1.81-0.13c0.87,0.65,1.06,1.59,1.17,2.58c-0.75,7.82-0.69,7.97,4.15,9.72
	c1.95,0.36,3.63,1.4,5.42,2.15c1.84,0.77,3.18,1.37,4.96-0.83c2.24-2.77,3.8,0.31,5.43,1.61c1.1,1.21,2.56,2.11,3.31,3.62
	c0.84,1.73,1.12,3.59-0.28,5.07c-1.25,1.31-2.77,0.5-4.09-0.19c-1.31-0.69-2.58-1.45-4.03-1.82c-3.21-1.07-5.46-5.31-9.72-2.91
	c-0.69,0.32-1.4,0.54-2.17,0.49c-8.19-3.47-10.31-9.52-6.15-17.47C88.03,89.34,88.09,88.71,88.15,88.08z"/>
<path class="st20" d="M122.06,69.08c1.07,0,2.19-0.15,2.98,0.84c-0.03,0.37-0.06,0.73-0.09,1.1c-0.67,0.92-1.9,1.32-2.48,2.65
	c1.9,2.05,3.3,1.47,4.53-0.66c5.27,0.74,10.66,0.84,16.03,2.98c-0.54,8.3,0.78,16.69-1.04,25c-2.26,5.19-2.84,10.83-3.5,16.3
	c-0.67,5.49-2.79,9.76-6.8,13.31c-0.25,0.22-0.46,0.55-0.75,0.64c-6.75,1.91-13.44,3.94-20,6.46c-1.98,0.76-3.57-1.29-4.82-2.89
	c-1.15-1.89,0.51-2.84,1.35-4.07c0.35-1.83-1.75-2.03-2.23-3.3c-0.45-0.85-0.81-1.71-0.31-2.66c0.4-0.29,0.84-0.48,1.33-0.57
	c1.29-0.09,2.35,0.48,3.36,1.19c5.84,3.54,16.32-0.11,18.37-6.42c0.36-1.1,0.71-2.21,1.21-3.26c1.75-4.84,3.9-9.45,6.81-13.75
	c2.7-3.99,1.93-8.66,1.48-13.08c-0.29-2.88-2.58-1.71-4.29-1.34c-1.49,0.35-2.82-0.04-4.02-0.94c-0.35-0.32-0.61-0.71-0.8-1.14
	c-1.23-2.98-3.69-4.47-6.58-5.44c-1.51-0.51-3.31-0.44-4.26-2.09c-0.27-1.56-1.46-2.42-2.65-3.02
	C115.42,70.29,119.33,70.45,122.06,69.08z"/>
<path class="st18" d="M174.1,155.05c-1.73-4.75-6.91-3.61-10.07-5.91c1.29-0.39,2.58-0.79,3.87-1.18
	C173.98,148.73,175.75,150.75,174.1,155.05z"/>
<path class="st21" d="M118.1,54.14c0.2-2.82,0.52-5.6,1.89-8.15C119.77,48.81,121.12,51.98,118.1,54.14z"/>
<path class="st17" d="M164,162c-1.83-1.98-2.99-4.25-3-7.01c0-0.33,0-0.66,0.01-0.98c0.38-0.9,0.9-1.53,2-1l0.02,0.02
	C161.65,156.2,164.16,158.95,164,162z"/>
<path class="st18" d="M163,153c-0.67,0.33-1.33,0.67-2,1c-1.6-1-0.24-2.03-0.03-3.04c0.36-0.34,0.71-0.68,1.07-1.02
	c0.31,0.04,0.63,0.04,0.94-0.01C162.98,150.95,162.99,151.97,163,153z"/>
<path class="st22" d="M106.86,84.11c1.4,0.96,2.8,1.91,4.2,2.87c-1.89,1.5-4.05,0.73-6.12,0.72c-3.01-3.4-6.37-6.53-8.52-10.66
	c-3.09,1.08-1.64,4.18-2.96,5.94c-0.63,0.8-1.31,1.5-2.47,1.03c0.23-3.91,1.51-7.71,0.93-11.73c2.23-1.6,4.82-0.47,7.05-1.25
	C101.93,75.19,104.34,79.68,106.86,84.11z"/>
<path class="st23" d="M88.98,113.97c0.35-0.28,0.71-0.56,1.06-0.85c0.91-0.61,1.6-1.87,3.01-1.05c1.69-0.12,3.17-1.5,5-0.85
	c-1.88,3.5-4.68,7.08,0.88,9.92c-2.95-0.08-5.9-0.16-8.85-0.24c-0.86-1.32-2.97-0.25-3.7-1.93C86.6,116.97,89.22,116.2,88.98,113.97
	z"/>
<path class="st24" d="M104.99,151.02c5.44-3,1.79-6.01,0.02-9.02c3.01,0.38,6.68-0.28,7.86,3.59c1.14,3.74-1.75,6.29-6.88,6.44
	c-0.33-0.02-0.65-0.02-0.98-0.03C105,151.67,105,151.34,104.99,151.02z"/>
<path class="st24" d="M101,141.01c-3.46,4.67,1.8,6.72,3,9.99c-5.54-1.17-8.3-5.77-5.93-9.89C99.05,141.07,100.03,141.04,101,141.01
	z"/>
<path class="st25" d="M194.05,115.97c2.93,4.58,1.04,9.58,0.86,14.35c-0.01,0.33-1.68,3.9-4.03,4.57c-0.7-2.97,3.05-5.87,0.15-8.88
	c1.94-3.2-0.53-6.35,0.21-9.55c-2.54-0.51-4.81-0.88-6.56-2.54c-0.3-0.71-0.2-1.37,0.25-1.98c0.46-0.79,1.21-0.9,2.02-0.9h0.03
	c1.92,0.88,4.41,0.07,5.99,1.99C193.33,114.02,193.69,114.99,194.05,115.97z"/>
<path class="st26" d="M154.07,105.97c-0.36,0.01-0.72,0.02-1.08,0.02c-0.67-6.09,4.05-3.69,6.83-4.34c-0.1,1.02-0.82,1.3-1.69,1.42
	c-1.11,1.21-3.02-0.38-4.05,1.14C154.09,104.8,154.08,105.39,154.07,105.97z"/>
<path class="st27" d="M175.03,117.02c2.92,0.23,2.81-3.2,4.87-4.03c2.07,1.55,3.51,0.08,5.03-1.05c0.04,0.71,0.08,1.42,0.11,2.13
	c0.29,0.49,0.29,0.98,0.02,1.48c-1.46,1.75-3.11,3.38-4.97,4.61c-2.13,1.4-4.55,1.76-6.48-0.67
	C173.33,118.23,173.98,117.51,175.03,117.02z"/>
<path class="st28" d="M180.95,150.96c-0.89,3.21-0.81,6.65-3.38,9.42c-1.83,1.98,2.45,3.33,1.39,5.64c-0.9,0.82-1.9,0.59-2.71,0
	c-3.31-2.46-5.43-0.9-7.23,1.99c-0.34,1.66-0.68,3.33-1.01,4.99c-1-0.33-2-0.67-3-1c0.06-1.7-0.19-3.24-2-4
	c-1.27-0.35-1.71-1.39-2.09-2.5c-0.24-0.89-0.5-1.77-0.01-2.66c0.39-0.26,0.82-0.38,1.28-0.4c1.98-0.49,2.34,3.7,4.85,1.67
	c0.27-0.35,0.56-0.67,0.85-1c1.5-1.45,2.74-3.07,3.49-5.03c0.35-0.6,0.83-1.08,1.44-1.42c0.42-0.17,0.85-0.28,1.3-0.35
	c1.86-0.19,2.76-1.55,3.66-2.96C178.51,152.17,178.94,150.48,180.95,150.96z"/>
<path class="st29" d="M159.79,120.73c-0.1-1.45,0.61-2.02,1.99-2.15C162.09,120.25,161.58,121,159.79,120.73z"/>
<path class="st30" d="M161,163c-4.75-4.74-4.76-9.35-0.04-12.04c0.7,0.97,0.49,2.11,0.62,3.19c-0.04,0.45-0.15,0.87-0.32,1.29
	c-1.33,2.67,2.35,4.85,0.74,7.55C161.68,162.99,161.34,162.99,161,163z"/>
<path class="st31" d="M106,134c3.73,3.7,6.93,2.68,11.07-0.02c2.46-1.61,5.77-3.34,9.67-2.35c3.71,0.95,10.4-7.4,10.16-12.86
	c-0.22-5.08,2.95-9.44,2.31-14.55c-0.18-1.44,1.42-2.51,2.79-3.22c0.58,8.02-1.95,15.64-3.46,23.32
	c-1.25,6.31-4.44,12.03-10.98,15.05c-1.67,0.77-3.66,1.65-4.54,3.64c-0.28,3.96-3.95,5.37-6.02,7.98c-1.99,0.68-3.99,1.36-5.98,2.03
	c-1.74,0.66-3.46,0.9-5.12-0.2c-0.16-1.67,1.28-1.67,2.25-2.01c2.07-0.72,3.47-1.95,3.25-4.27c-0.22-2.25-2.18-2.6-3.89-3.13
	c-0.62-0.19-1.27-0.31-1.88-0.52c-1.35-0.57-2.66-1.32-4.22-1.03c-0.87,0.09-1.73,0.11-2.57-0.15c-0.41-0.17-0.72-0.47-0.94-0.86
	c1.03-0.64,2.07-1.28,3.1-1.92c0.54-0.39,1.18-0.58,1.77-0.86c2.42-0.47,1.52-2.63,2.07-4.06C105.21,133.69,105.6,133.71,106,134z"
	/>
<path class="st32" d="M116.99,150.98c1.06-3.37,4.29-5.11,6.02-7.98c6.3-0.22,9.94-5.43,14.98-8.01c-0.48,3.34-3.15,5.51-5.51,6.71
	C127.07,144.45,121.96,147.57,116.99,150.98z"/>
<path class="st32" d="M143.96,122.98c0.11,5.05-3.31,8.34-5.97,12.01C139.16,130.58,139.08,125.54,143.96,122.98z"/>
<path class="st31" d="M92.04,141.04c1.95-0.06,3.89-0.12,5.84-0.18l0.2,0.26c0.22,4.12,1.28,7.69,5.88,8.92
	c0.44,0.17,0.83,0.41,1.19,0.72c0.26,0.41,0.29,0.85,0.14,1.31c-1,0.78-1.53,2.38-3.27,1.91l0,0c-2.81-2.19-6.13,0.52-9.02-0.95
	c-0.35-0.33-0.69-0.66-1.04-1c-5.17-3.31-5.6-4.34-3.93-9.33C88.94,141.11,90.84,141.93,92.04,141.04z"/>
<path class="st32" d="M89.97,152.03c-1.86-1.34-3.49-2.67-4.07-5.22c-0.68-2.97,0.29-3.97,3.08-3.85c-2.89,4.3,1.44,6.23,2.98,9.07
	C91.29,152.03,90.63,152.03,89.97,152.03z"/>
<path class="st32" d="M92.99,153.03c3,0.39,6.49-3.87,9.02,0.95C98.85,155.12,95.78,155.36,92.99,153.03z"/>
<path class="st32" d="M102.01,153.98c1.03-0.61,1.46-2.13,2.99-1.98c0.34-0.34,0.66-0.35,0.98,0.03c1.41,1.65,3.34,0.73,5.02,0.99
	C108.12,154.41,105.11,154.55,102.01,153.98z"/>
<path class="st33" d="M106.86,84.11c-4.1-3.47-6.69-7.86-7.88-13.08c0.34,0,0.67,0,1.01,0.01
	C104.41,75.24,105.51,77.33,106.86,84.11z"/>
<path class="st34" d="M102,134.01c0.99,0,1.99,0.01,2.98,0.01c0.98,2.31,2.53,4.85-1.97,4.99
	C104.68,136.94,102.93,135.56,102,134.01z"/>
<path class="st35" d="M119.94,84.94c2.71-3.2,5.49-1.13,8.26-0.11c-2.07,1.85-4.47,2.59-7.22,2.15
	C120.63,86.3,120.29,85.62,119.94,84.94z"/>
</svg>
