<?xml version="1.0" encoding="utf-8"?>
<!-- Generator: Adobe Illustrator 26.1.0, SVG Export Plug-In . SVG Version: 6.00 Build 0)  -->
<svg version="1.1" id="Layer_1" xmlns="http://www.w3.org/2000/svg" xmlns:xlink="http://www.w3.org/1999/xlink" x="0px" y="0px"
	 viewBox="0 0 244 406" style="enable-background:new 0 0 244 406;" xml:space="preserve">
<style type="text/css">
	.st0{fill:#281C19;}
	.st1{fill:#0D0B0C;}
	.st2{fill:#191211;}
	.st3{fill:#2B1F1C;}
	.st4{fill:#170F0E;}
	.st5{fill:#3A2B28;}
	.st6{fill:#191210;}
	.st7{fill:#1C1311;}
	.st8{fill:#33231E;}
	.st9{fill:#291D1A;}
	.st10{fill:#362827;}
	.st11{fill:#1E1917;}
	.st12{fill:#372523;}
	.st13{fill:#1B1413;}
	.st14{fill:#2A1B17;}
	.st15{fill:#3C2825;}
	.st16{fill:#1D1716;}
	.st17{fill:#2B1C19;}
	.st18{fill:#302322;}
	.st19{fill:#2B1D1A;}
	.st20{fill:#181210;}
	.st21{fill:#763933;}
	.st22{fill:#432620;}
	.st23{fill:#5B6474;}
	.st24{fill:#4A525E;}
	.st25{fill:#676874;}
	.st26{fill:#ABB2C1;}
	.st27{fill:#828B9C;}
	.st28{fill:#693E3F;}
	.st29{fill:#C6CFE3;}
	.st30{fill:#848B9D;}
	.st31{fill:#8F94A4;}
	.st32{fill:#5E4442;}
</style>
<path class="st0" d="M49.89,39.96c1.82-7.27,7.83-11.66,12.08-17.24c1.52-2,2.45-4.66,5-5.83c2.47-0.52,4.54-1.69,6.05-3.75
	c2.25-0.87,4.52-1.58,6.97-0.97c0.81,0.82,0.92,1.79,0.19,2.63c-3.24,3.75-3.26,3.73-4.46,7.9c0.44-0.47,2.51-0.72,2.95-0.41
	c1.34-2.87,1.44-6.51,5.06-7.98c1.1-0.49,2.21-0.94,3.45-0.55c4.32,4.8,4.43,8.13,0.44,12.94c-1.87,2.25-2.12,2.77-3.26,6.97
	c1.3,1.22,4.56,0.13,4.63,3.17c0.05,0.5,0.22,1.23-0.07,1.45c-3.95,3.1-3.58,7.21-2.16,11.44c-2.37,0.61-4.16,0.42-5.94,0.35
	c-0.94-0.74-0.25-3.12-2.95-2.3c-1.26,0.38-1.71-2.02-2.09-3.45c-0.61-2.28-1.47-4.38-4.15-4.94c-1.48-0.9-3.09-1.76-1.12-3.7
	c3.12-1.33,4.53-6.53,2.37-8.77c-1.19-1.23-2.8-0.88-3.57,0.02c-2.15,2.5-5.22,3.36-7.81,5.06c-1.29,0.85-2.49,1.89-0.96,3.57
	c0.98,1.05,0.77,2.34,0.68,3.59c0.73-0.01,1.22-0.47,1.81-0.67c1.21-0.41,2.43-1.25,3.61-0.01c1.06,1.12-0.03,2.12-0.28,3.16
	c-0.26,1.06,0.18,2.35-1.04,3.1c-5.02,1.19-8.16,5.8-13.1,7.74c-1.33-2.99,0.7-4.42,1.79-6.07c2.92-4.41,2.72-4.96-2.37-5.59
	C50.94,40.72,50.34,40.51,49.89,39.96z"/>
<path class="st1" d="M59.18,125.98c-0.05-0.33-0.05-0.68-0.16-0.98c-2.23-5.82-3.04-11.82-3.04-18.08c0-8.04-7.44-13.65-7.94-21.46
	c-0.52-8.12-5.03-15.24-5.09-23.37c-0.53-4.49,2.67-10.24,7.27-12.35c1.28,4.43,2.79,8.73,4.31,13.02c0.53,1.49-0.16,2.92-1.12,4.15
	c-0.76,1.43-2.02,2.49-3.25,4.42c1.57-1.56,2.25-3.02,3.47-4.01c2.47-1.68,3.93-0.74,4.67,2.03c1.25-2.64,3.19-4.68,4.07-7.33
	c0.89-1.21,1.75-2.49,3.55-1.96c0.37,0.43,0.77,0.96,0.6,1.36c-2.42,5.59-0.31,11.67-2.04,17.41c-1.06,3.54-2.14,6.69-4.54,9.71
	c-3.23,4.08-1.57,9.15-0.93,13.85c0.2,7.63,1.68,15.09,2.99,22.57c-0.11,0.83-0.41,1.57-1.09,2.11
	C59.87,127.44,59.48,126.79,59.18,125.98z"/>
<path class="st2" d="M63,62.99c-0.1,3.58-4.55,5.47-3.23,9.41c-3.54,0.17-0.76-6.82-5.76-4.4c-0.85,0.03-1.5-0.33-2-1
	c2.09-2.09,1.95-4.49,0.49-6.71c-1.89-2.87-2.67-5.98-3.07-9.6c-1.67,4.18-6.48,6.33-6.47,11.41c-2.13-5.72,1.06-10.48,3.29-15.14
	c1.11-2.31,2.54-4.6,3.64-7c1.46-0.13,2.92-0.4,4.37-0.38c2.85,0.04,4.23,2.61,2.63,4.95c-1.46,2.15-3.14,4.15-4.48,6.57
	c4.37-2.12,7.2-7,12.6-7.12c0.57,0.85,0.09,1.66-0.09,2.49c-0.38,1.97,0.45,3.92,0.13,5.9c-0.44,2.63-1.32,5.06-3.22,7.01
	c-1.24,1.48-2.9,2.59-3.86,4.27C59.44,61.99,61.05,61.39,63,62.99z"/>
<path class="st3" d="M140.04,15.89c-0.02,0.37-0.03,0.75-0.05,1.12c-1.47,0.27-3.11-0.86-4.44,0.57c-1.26,0.23-2.23-0.37-2.67-0.73
	c3.42,0.27,4.14,5.14,7.92,5.95c2.2,4.49,1.22,9.06,0.1,13.53c-0.62,2.49-1.55,2.49-3.4,0.42c-0.66,1.02-0.14,2.27-0.67,3.31
	c-0.85,2.25-1.52,4.67-4.37,5.15c-1.73-1.63-0.78-3.2-0.47-4.72c3.52-9.67,0.81-16.71-8.02-20.78c-2.52-0.79-4.7,1.15-7.15,0.89
	c-2.8-1.2-2.5-2.89-0.19-4c2.18-1.04,2.72-2.85,3.42-4.74c3.92,0.05,7.85,0.24,11.77,0.11C135.33,11.85,138.13,12.83,140.04,15.89z"
	/>
<path class="st4" d="M108.03,11.02c2.72-2.06,6.32-0.27,9.09-2.1c0.98,0.98,1.96,1.95,2.93,2.93c0.48,1.15,0.96,2.31,1.45,3.5
	c-1.66,0.8-3.29,1.54-4.88,2.37c-2.05,1.08-0.58,1.66,0.37,2.29c-2.04,3.87-4.7,4.69-7.92,2.06c-2.05-1.67-3.85-2.72-6.63-1.74
	c-2.61,0.92-4.69-0.73-6.64-2.29c-0.13-0.82,0.3-1.34,0.94-1.73c3.72-0.96,6.62-5.23,11.2-2.72
	C108.45,12.72,107.27,11.84,108.03,11.02z"/>
<path class="st5" d="M80.96,11.92c0.04,1.99,1.72,2.36,3.04,3.09c-3.5,2.04-2.78,6.63-5.64,9.03c-0.21-0.62-0.46-1.36-0.87-2.57
	c-0.74,1.35-1.31,2.41-1.89,3.45c-2.62-3.51,2.09-6.94,0.08-10.5c1.23-1.13,4.84,2.12,4.31-2.25C80.31,12.09,80.64,12,80.96,11.92z"
	/>
<path class="st6" d="M72.02,39.01c3.98-1.2,3.95,2.31,4.9,4.39c0.5,1.1-0.18,2.65,1,3.75c1.85,0.13,0.49-2.09,1.85-2.41
	c2.09,1.31,0.86,3.54,1.29,5.32c2.02,2.32,0.67,5.75,2.67,8.08c1.06,1.63,2.39,3.09,2.95,5.01c0.25,2.82-0.78,3.82-3.32,2.12
	c-1.94-1.29-3.21-3.2-4.08-5.32c-0.88-0.95-1.52,0.78-2.36,0.25c-0.66-0.43-1.32-0.68-2.02-0.06c-1.06,0.93-1.68,2.61-3.77,2.07
	c-1.58-2.63,1.13-5.36-0.28-7.68c-0.62,1.05,0.12,3.59-3.29,3.46c-0.19-5.09-1.47-10.23,1.62-15.09
	C70.19,41.64,70.67,40.01,72.02,39.01z"/>
<path class="st7" d="M97.01,16.99C96.67,17.33,96.33,17.66,96,18c-2.23,4.24-5.91,7.88-4.95,13.65c1.38,1.05,3.9,0.77,5.83,2.03
	c0.22,0.26,0.32,0.55,0.31,0.85c-0.01,0.31-0.04,0.47-0.1,0.47c-2.55,2.82-5.6,3.42-9.09,2.04c-0.8-3.9-2.93-0.81-4.72-0.82
	c-1.33-6.55,3.26-10.15,6.99-14.02c-0.2-1.91-2.1-0.69-2.86-2.12c1.32-1.86,1.21-4.01-0.39-6.02c0.99-0.02,1.98-0.05,2.98-0.07
	c0.4-0.31,0.86-0.46,1.36-0.46C93.53,14.2,96.53,13.56,97.01,16.99z"/>
<path class="st6" d="M60.01,36.01c-0.84-0.49-1.69-0.97-3.03-1.74c5.22-4.23,10.02-8.14,16.09-10.1c2.35,3.23,2.1,6.6,1.83,9.87
	c-0.19,2.31-1.27,3.94-3.9,1.98c-1.79-2.35-3.83-2.8-6.4-1.12C63.27,35.76,61.8,36.72,60.01,36.01z"/>
<path class="st8" d="M60.01,36.01c1.75-0.93,3.57-1.75,5.23-2.83c3.59-2.33,5.17-0.82,5.77,2.82c-2.04,1.8,0.91,1.93,1.01,3.01
	c0.07,1.7-0.21,3.23-2.01,3.99c-1.67,1.82-2.82,4.47-6.04,3.83c-0.06-0.01-0.12-0.25-0.11-0.38c0.01-0.16,0.08-0.31,0.13-0.47
	c0.34-0.66,0.69-1.33,1.03-1.99c-1.34-2.08-0.04-3.55,2.44-5.46c-3.55,0.19-5.22,2.3-7.6,2.03C59.41,39.05,61.29,37.55,60.01,36.01z
	"/>
<path class="st9" d="M63.98,45.99c2.74,0.48,3.94-2.15,6.02-2.99c-2.24,4.49-0.84,9.41-2.12,14.9c3.25-2,1.02-5.75,4.12-7.15
	c-0.72,3.64,2.32,7.09-1.29,10.71c2.72,0.26,2.25-3.07,4.28-2.47c0.9,0.66,0.98,1.62,0.96,2.83c0.32-0.78,0.46-1.46,1.07-1.83
	c1.36-0.7,0.61-2.31,1.4-3.26c1.01-0.02,1.27,0.71,1.49,1.47c-0.55,3.15,0.53,5.7,2.85,7.81c1.73,1.57,3.25,3.26,2.95,5.87
	c-3.44,4.15-8.36,2.5-12.66,3.26c-1.12-0.26-2.16-0.63-2.42-2.2c-0.8,3.67-8.38,5.73-2.15,10.79c0.14,1.89-0.94,3.57-2.42,3.87
	c-2.45,0.49-0.3,1.95-0.94,2.69c-3.26,3.39-4.6,7.94-7.16,11.75c-2.05-4.29-0.59-8.81-0.87-13.22c-0.15-2.32,2.84-0.87,3.53-2.75
	c1.77-4.86,4.6-9.31,2.76-15c-1.14-3.52,1.97-6.73,2.34-10.4c-1.64,0.27-2.17,1.32-2.73,2.34c-2.92-0.71-4.77,1.46-7.15,2.6
	c1.69-2.28,2.36-5.24,5.14-6.6c2-1.88,6.15-2.79,3.08-6.92C64.72,50.03,62.41,48.04,63.98,45.99z"/>
<path class="st10" d="M57.97,102.03c0.9-4.86,2.23-9.47,7.04-12.04c1.52-0.46,2.66-0.11,3.23,1.49c-0.31,1.22-1.28,1.87-2.23,2.54
	c-4.15,2.94-5.42,6.98-4.13,11.75c1.22,4.5,1.55,9.11,2.19,13.69c0.33,2.38,0.81,5.05-2.06,6.54c-0.32,0-0.64,0-0.96-0.01
	C59.35,118.09,57.41,110.22,57.97,102.03z"/>
<path class="st11" d="M52,67c0.82,0.02,1.57,0.19,2,1c-1.84,1.77-1.61,5.47-5.45,5.69C47.28,70.16,51.32,69.39,52,67z"/>
<path class="st12" d="M131.98,69.04c-1.16-7.94,1.51-11.27,8.04-9.99c-1.67,1.82-3.34,3.63-5.29,5.75c1.57,2.84,3.48,5.72,7.05,7.08
	c0,0,0.33,0.22,0.33,0.22c-3.03,2.75-7.78,2.39-10.76-0.79C131.21,70.45,131.43,69.7,131.98,69.04z"/>
<path class="st1" d="M97.1,34.06c-3,0.55-5.53-1.25-8.42-1.68C90.77,27.39,89.72,20.85,96,18c3.01,0.18,5.86,2.73,9.12,0.26
	c1.11-0.84,2.47,0.62,3.23,1.64c2.89,3.89,5.74,2.86,8.66,0.12c2.3-0.51,4.3-3.05,6.98-1.03c0.37,0.79-0.06,1.34-0.56,1.86
	c-1.5,1.24-3.25,2.07-5.11,3.08c3.33,0.61,5.78,2.56,8.29,4.39c2.73,4.03,2.48,7.96-0.38,11.8c-0.43,0.28-0.9,0.42-1.41,0.42
	c-2.98-1.31-4.21-5.61-8.38-4.92c-0.43-0.2-0.78-0.49-1.08-0.86c-3.49-5.51-10.98-5.78-16.93-0.6
	C97.97,34.36,97.53,34.32,97.1,34.06z"/>
<path class="st13" d="M135.98,17.01c1.34,2,2.67,4,4.01,6c-0.25,0.9-1.11,2.48-1.6,1.08c-1.56-4.4-5.78-5.76-9.13-8.34
	C132.37,13.8,133.74,17.17,135.98,17.01z"/>
<path class="st14" d="M97.01,16.99c-1.36-2.29-4.36-1.28-6.02-2.97c1.53-1.75,3.36-0.2,4.97-0.47c-1.46-0.53-3.8,0.22-3.88-2.52
	c5.32,0,10.63,0,15.95,0c0.78,1.72,2.67,2.91,2.54,5.46c-3.53-2.67-6.89-4.16-10.27-0.04C99.77,17.09,98.13,16.83,97.01,16.99z"/>
<path class="st5" d="M92.08,11.03c1.1,1.82,3.3,1.56,5.93,2.99c-3.06,0-5.04,0-7.02,0C90.66,14,90.33,13.99,90,13.97
	C90.03,12.52,90.68,11.51,92.08,11.03z"/>
<path class="st15" d="M73.02,82.04c-1.67,0.65-3.35,1.29-5.02,1.94c-5.03-2.85-5.22-4.6-0.7-8.48c1.24-1.07,2.9-1.66,2.72-4.09
	c0.88,1.17,1.43,1.9,1.99,2.63c-0.77,1.8-3.72,2.29-2.98,4.99C70.97,79.23,70.92,82.06,73.02,82.04z"/>
<path class="st16" d="M115.98,35.04c-0.65-0.02-1.3-0.04-1.95-0.06c-5.25-1.74-10.62-1.64-16.02-1.03c0.99-1.29,2.02-3.7,2.96-3.66
	c3.69,0.14,7.22-1.65,10.76-1.03C114.42,29.73,116.18,31.91,115.98,35.04z"/>
<path class="st17" d="M124,23c-1.96,2.38,2.14,3.74,1.02,5.98c-2.65-3.34-6.56-3.95-10.56-4.83c3.13-1.05,5.79-2.73,8.59-4.11
	C123.37,21.03,123.69,22.01,124,23L124,23z"/>
<path class="st17" d="M124,23c7.95,1.59,11.42,7.98,6.69,14.89C130.38,31.41,127.48,27.05,124,23C124,23,124,23,124,23z"/>
<path class="st18" d="M60.02,126.96c0.34-0.32,0.69-0.65,1.03-0.97c0.45-0.28,0.88-0.26,1.3,0.06c1.5,2.04,2.2,4.45,3.08,6.77
	c3.52,9.27,9.5,16.57,17.57,22.24c1.98,1.39,2.67,2.43,0.89,5.15c-2.21,3.38,0,7.3,1.38,10.81c0.28,0.72,1.08,1.24,1.53,1.95
	c0.94,2.07,2.17,4.15-0.06,6.19c-2.53-0.35-2.88-2.88-4.33-4.32c-0.82-1.08-2.01-1.78-2.93-2.76c-2.13-2.79-1.53-6.93-4.59-9.25
	c-0.75-0.35-1.49-0.7-2.2-1.12c-0.56-0.28-1.14-0.52-1.73-0.74c-0.64-0.22-1.23-0.51-1.75-0.97c-1.18-1.52-2.1-3.1-1.29-5.12
	c2.86-1.27,3.77-2.34,1.92-5.93c-2.12-4.11-4.26-7.1-8.91-7.83c1.53-3.22,1.34-6.3-0.36-9.46C59.83,130.27,59.64,128.6,60.02,126.96
	z"/>
<path class="st19" d="M139.01,181.01c-0.39,0.31-0.77,0.61-1.16,0.92c-1.2,1.11-2.41,2.21-3.61,3.32
	c-1.05-5.66,0.53-11.01,1.92-16.38c1.78-6.86,3.66-13.77-4.79-19.19c6.62-2.8,7.6-9.39,11.62-13.69c0.53-0.32,0.98-0.23,1.35,0.27
	c0.4,5.85-2.37,11.18-2.65,16.99c-0.23,4.82-0.9,9.54,1.02,14.15c0.33,1.15,0.42,2.35,0.64,3.53c2.03,3.13-0.13,5.51-1.43,8.05
	C140.96,179.65,139.99,180.33,139.01,181.01z"/>
<path class="st20" d="M142.91,164.94c-0.98,0.77-0.8,1.96-1.08,2.98c-4.06-8.12-0.9-16.27,0.01-24.38c0.29-2.57,1.4-5.04,2.14-7.56
	c-0.87-2.24-0.39-4.39,0.4-6.52c0.17-0.18,0.35-0.36,0.53-0.54c1.91-1.51,0.86-3.63,1.04-5.47c0.15-1.5,0.5-2.18,2.04-1.42
	c0.57,0.44,0.8,1.05,0.84,1.75c-0.73,2.23,0.4,4.15,1.04,6.15c0.08,1.83,1.38,2.97,2.43,4.26c0.15,0.98-0.19,1.87-0.52,2.76
	c-1.04,5.62,0.64,11.83-3.6,16.76c-0.72,0.89-1.64,1.64-1.93,2.83c-0.18,0.67-0.36,1.34-0.54,2.01
	C144.93,160.74,145.4,163.49,142.91,164.94z"/>
<path class="st21" d="M148.16,124.04c-0.06-0.68-0.11-1.35-0.17-2.03c-0.24-3.2-0.11-6.32,2.1-8.94c-0.94,3.72,0.2,6.43,3.86,7.9
	c-1.66,1.31-3.32,2.63-4.98,3.94C148.58,124.74,148.31,124.45,148.16,124.04z"/>
<path class="st22" d="M152.09,130.99c0.5,1.05,0.54,2.07-0.15,3.06c-3.18,0.22-3.03-1.94-2.92-4.07
	C150.05,130.31,151.07,130.65,152.09,130.99z"/>
<path class="st23" d="M154.9,182.79c-1.83-0.31-1.74-2.96-4.44-2.89c-1.06,1.47-3.04,2.7-5.46,3.09c-2.01-0.81-4.41-0.37-6.18-1.95
	c-0.17-1.78,1.36-2.2,2.41-3c2.64-1.94,5.83-3.36,6.54-7.07c0.34-0.29,0.74-0.47,1.18-0.53c1.48-0.03,2.52,1.6,4.13,1.1
	c0.44-0.05,0.88-0.02,1.31,0.08c2.16,0.81,4.17,1.86,5.78,3.56c0.6,0.74,1.12,1.5,0.83,2.53c-0.87,1.72-2.54,1.07-3.9,1.31
	C154.88,179.4,154.16,180.67,154.9,182.79z"/>
<path class="st24" d="M141.93,178.98c-0.87-1.37-0.19-2.42,0.71-3.41c1.33-1.46,0.42-2.54-0.59-3.61c1.63-2.45,3.62-2.66,5.91-0.93
	c1.46,2,0.49,3.35-1.2,4.53C145.14,176.68,143.54,177.83,141.93,178.98z"/>
<path class="st25" d="M147.96,171.03c-2.04-0.1-4.08-0.26-5.91,0.93c-0.07-1.35-0.15-2.69-0.22-4.04c-0.36-1.13-0.73-2.27,0.54-3.11
	c1.14,1.1,2.8,0.91,4.1,1.63c0.74,1.3,1.8,2.35,2.78,3.47c0.16,0.45,0.05,0.82-0.32,1.11C148.61,171,148.29,171.01,147.96,171.03z"
	/>
<path class="st24" d="M148.93,171c0.01-0.35,0.01-0.71,0.02-1.06c0.57-2.52,1.94-1.76,3.36-0.83c0.66,0.85,0.84,1.82,0.71,2.86
	C150.67,175.78,150.58,170.09,148.93,171z"/>
<path class="st26" d="M160.05,174.73c-0.02,0.43-0.04,0.85-0.06,1.28c-2.02-1.33-4.05-2.67-6.07-4c0.3-0.35,0.67-0.59,1.12-0.72
	c1.44-0.22,2.67,0.31,3.84,1.08c0.51,0.46,0.9,1,1.08,1.67C160.01,174.27,160.04,174.5,160.05,174.73z"/>
<path class="st27" d="M155.15,171.85c-0.41,0.05-0.82,0.1-1.23,0.15c-0.3-0.02-0.6-0.03-0.91-0.04c-0.8-0.44-0.96-1.18-0.92-2.01
	c0.38-0.5,0.22-1.14,0.43-1.69c0.24-0.35,0.56-0.53,0.99-0.55c0.62,0.19,1,0.65,1.27,1.21
	C155.12,169.88,155.55,170.81,155.15,171.85z"/>
<path class="st28" d="M178.01,168.01c0.3-0.03,0.6,0,0.89,0.08c0.07,0.94,0.13,1.87,0.2,2.81c-0.1,0.31-0.11,0.71-0.32,0.91
	c-0.48,0.46-0.79,0.18-0.8-0.38C177.96,170.29,177.99,169.15,178.01,168.01z"/>
<path class="st29" d="M142.91,164.94c0.65-2.35,1.3-4.7,1.95-7.05c1.94-0.16,3.12-2.28,5.24-2.03c2.97,3.56,3.36,7.76,3.03,12.14
	l-0.25-0.17c-2.32,0.11-4.75,1.04-6.77-0.97C145.02,166.25,142.47,168.08,142.91,164.94z"/>
<path class="st30" d="M146.11,166.86c2.3,0.01,4.63-0.14,6.77,0.97c0.11,0.85,0.02,1.62-0.78,2.14c-1.04-1.56-2.09-1.18-3.15-0.03
	C146.83,169.99,146.04,168.82,146.11,166.86z"/>
<path class="st31" d="M145.14,156.13c1.26-0.45,2.4-2.13,3.86-0.35c-0.18,3.04-1.95,2.99-4.13,2.11
	C144.96,157.3,145.05,156.72,145.14,156.13z"/>
<path class="st32" d="M107.02,166.03c-1.85,1.68-3.81,3.25-6.27,3.88c-2.4,0.62-3.92,2.31-4.26,4.42c-0.57,3.47-2.56,4.76-5.7,4.88
	c-1.1,1.48,1.8,3.56-0.82,4.62c-0.62,1.27-1.64,1.62-2.96,1.29c0,0-0.03-0.36-0.03-0.36C89.17,176.15,99.46,166.54,107.02,166.03z"
	/>
</svg>
