<?xml version="1.0" encoding="utf-8"?>
<!-- Generator: Adobe Illustrator 26.1.0, SVG Export Plug-In . SVG Version: 6.00 Build 0)  -->
<svg version="1.1" id="Layer_1" xmlns="http://www.w3.org/2000/svg" xmlns:xlink="http://www.w3.org/1999/xlink" x="0px" y="0px"
	 viewBox="0 0 244 406" style="enable-background:new 0 0 244 406;" xml:space="preserve">
<style type="text/css">
	.st0{fill:#404B61;}
	.st1{fill:#12161B;}
	.st2{fill:#4F5165;}
	.st3{fill:#5B6985;}
	.st4{fill:#4B556B;}
	.st5{fill:#333A43;}
	.st6{fill:#3D485F;}
	.st7{fill:#5B6C89;}
	.st8{fill:#686D74;}
	.st9{fill:#1E1414;}
	.st10{fill:#191F29;}
	.st11{fill:#53565E;}
	.st12{fill:#060709;}
	.st13{fill:#0A0C10;}
	.st14{fill:#0F1218;}
	.st15{fill:#090B0D;}
	.st16{fill:#8F99B7;}
	.st17{fill:#7C859F;}
	.st18{fill:#72778A;}
	.st19{fill:#9EA4BB;}
	.st20{fill:#B3BBD4;}
	.st21{fill:#323C4E;}
	.st22{fill:#13171E;}
	.st23{fill:#1B1F2A;}
	.st24{fill:#2B2F3B;}
	.st25{fill:#1C2126;}
	.st26{fill:#62646C;}
	.st27{fill:#4F5157;}
	.st28{fill:#434B63;}
	.st29{fill:#585C72;}
	.st30{fill:#191D27;}
	.st31{fill:#717C9B;}
	.st32{fill:#9399B1;}
	.st33{fill:#10141C;}
	.st34{fill:#0F131B;}
	.st35{fill:#1B2330;}
	.st36{fill:#272E3D;}
	.st37{fill:#262D3D;}
	.st38{fill:#1D232F;}
	.st39{fill:#1C2330;}
	.st40{fill:#1E2634;}
	.st41{fill:#171C25;}
	.st42{fill:#919CB8;}
</style>
<path class="st0" d="M67.94,154.88c0.68,1.75,1.37,3.5,2.05,5.24c-0.31,4.57-3.39,3.53-6.19,3.06c-1.7-1.91-0.3-3.06,1.04-4.22
	c1.51,1.26,1.83-0.05,2.14-1.07C67.29,156.88,66.43,155.52,67.94,154.88z"/>
<path class="st1" d="M27,208.01c0.5,0.38,1,0.76,1.5,1.14c-2.03-4.41-2.96-8.62,1.54-12.16c1.64,0.35-0.57,3.23,1.96,3
	c0.95,1.76-1.11,3.12-0.63,4.8c1.12,1,1.71-0.42,2.57-0.56c1.71-0.84,3.72-1.33,4.08-3.67c2.49-1.36,5.12-2.5,6.6-5.21
	c2.03,0.93,1.94,3.85,4.4,3.64c3.33,2.99,2.93,4.22-1.98,6.02c-0.28-0.44-0.27-0.9-0.04-1.36c0.18-0.35,0.32-0.56,0.37-0.65
	c-0.66,0.2-0.86,0.91-1.38,1.22c-0.28,0.08-0.71,0.18-0.55,0.56c0.25,0.61-0.32-0.03,0.36-0.09c0.55,0.3,0.85,0.8,1.18,1.28
	c1.64,1.49,3.26,0.03,4.71-0.24c1.44,1.72,1.43,3.5,1.29,5.32c-2.36,2.82,0.51,5.46,0.3,8.2c0.16-0.02,0.33-0.03,0.48-0.08
	c0.15-0.05,0.28-0.16,0.42-0.24c1.67,2.18,0.54,4.7,0.87,7.05c0.81,1.32,0.48,2.09-1.07,2.38c-0.47,0.09-0.89-0.82-1.16-0.25
	c-2.32,5.06-2.36,5.09-8.08,3.07c-1.89-2.29-1.41-5.21-2.05-7.83c-0.6-2.73-1.42-5.42-1.93-8.18c-0.07-0.38-0.26,0.93-0.92,0.84
	c-1.73,0.3-0.88,2.19-1.84,2.96c-1.82,0.56-1.62-1.87-2.97-2c-1.87-1.78-1.42-3.93-0.96-6.07c0.76-2.17,3.08-1.67,4.44-2.81
	c-1.42,1.05-4,0.13-4.43,2.84C28.27,213.83,28.04,213.74,27,208.01z"/>
<path class="st2" d="M73.9,220.12c4.93,4.02,5.2,9.89,5.98,15.49c0.45,3.21,0.08,6.57,2.14,9.41c0.81,5.32-0.52,8-4.42,8.87
	c0.24-2.39,0.93-4.81-0.5-7.08c-0.35-3.57-0.44-7.18-1.91-10.54C76.18,230.77,74.07,225.53,73.9,220.12z"/>
<path class="st3" d="M73.01,160.81c0.62,0.46,1.23,0.91,1.85,1.37c1.83,1.22,2.23,3.14,2.29,5.12c0.06,1.88,0.35,3.56,2.11,4.63
	c0.21,0.44,0.34,0.89,0.39,1.37c-0.21,1.96-1.05,3.74-1.83,5.5c-0.67,1.53-1.7,1.95-2.75,0.2c-1.32-4.52-4.9-3.16-7.99-3.08
	c-0.56-1.2,0.84-1.61,1.01-2.52c-0.57-0.76-2.67,0.75-2.24-1.51c1.07-3.82,4.13-1.16,6.15-1.89
	C72.63,166.97,68.98,163.46,73.01,160.81z"/>
<path class="st4" d="M80.89,184.87c-1.32,0.69-2.82-1.1-4.09,0.28c-1.63-1.76-2.06-3.85-1.73-6.16c1,0.41,1.68,0.6,2.02-0.94
	c0.37-1.72,1.26-3.33,1.92-4.98c2.95,0.35,2.05,2.66,2.01,4.31c-0.06,2.05-0.87,4.09,0.24,6.09C81.37,184,81.25,184.47,80.89,184.87
	z"/>
<path class="st5" d="M54.13,218.95c-0.12,0.75-0.24,1.5-0.59,3.77c-1.86-4.56-2.76-7.8-2.47-11.27c0.11-1.33,1.18-0.53,1.87-0.38
	C53.34,213.7,53.74,216.33,54.13,218.95z"/>
<path class="st0" d="M73.01,160.81c-2.07,2.87,0.01,6.2-1.02,9.19c-0.49-1.55-0.98-3.11-1.45-4.6c-1.81-1.17-4.1,0.34-5.75-1.23
	c1.56-1.17,3.42-0.63,5.16-1.01c-0.11,0.81,0.56,0.23,0.53,0.2c-1.65-1.98,0.51-2.35,1.43-3.27
	C72.28,160.33,72.64,160.57,73.01,160.81z"/>
<path class="st6" d="M65.85,171.89c1.43,1.47,3.58-2.43,4.84,0.84c-0.16,2.07-2.95,1.51-3.62,3.19
	C65.26,175,64.35,173.81,65.85,171.89z"/>
<path class="st7" d="M71.91,160.08c-1.05,3.66-3.8,4.36-7.11,4.09c-0.34-0.33-0.67-0.66-1.01-0.99c2.3-0.54,5.13-0.02,6.19-3.06
	C70.63,160.11,71.27,160.1,71.91,160.08z"/>
<path class="st8" d="M71.95,198c-0.64,0.85-1.49,1.14-2.43,0.69c-0.23-0.11-0.41-0.98-0.23-1.18c0.72-0.84,1.7-0.44,2.6-0.3
	C71.83,197.48,71.85,197.75,71.95,198z"/>
<path class="st9" d="M79.98,171.9c-0.31,0.11-0.63,0.2-0.95,0.28c-1.84,0.76-3.06,0.73-2.9-1.84c0.17-2.79-0.24-5.54-1.27-8.17
	c2.45-1.47,2.26,1.16,2.62,2.01C78.54,166.66,79.18,169.32,79.98,171.9z"/>
<path class="st10" d="M81.95,196.07c-0.99,1.64-1.98,3.29-2.97,4.93c-4.66-3.3-0.26-5.44,1.01-7.99
	C81.53,193.46,80.74,195.41,81.95,196.07z"/>
<path class="st11" d="M69.2,208.48c-0.06-1.17,0.67-1.42,1.57-1.32c0.52,0.06,0.95,0.49,0.5,0.96
	C70.73,208.68,70.04,209.31,69.2,208.48z"/>
<path class="st12" d="M69.99,248.96c0-0.66,0.01-1.31,0.01-1.97c-2.48-4.72-7.74-6.6-10.18-11.17c-3.02,1.85-2.86,4.43-3.79,6.45
	c-0.14,0.44-0.32,0.86-0.51,1.27c-1.18,2.22-1.83,4.63-2.59,7.01c-1.03,3.42-2.65,6.58-4.17,9.78c-1.82,2.05-0.93,6.05-4.75,6.66
	c-0.62-1.12-1.23-0.16-1.84,0.01c-2.43-0.95-0.83-2.49-0.57-3.84c0.49-1.69-0.49-3.49,0.38-5.14l0.04-0.06
	c1.09-2.55,4.7-3.31,4.7-6.63c0.07-1.12,0.03-2.24,0.04-3.36c1.23-4.25,1.97-8.59,2.22-13c1.45,0.14,1.97-0.92,2.5-1.97
	c1.65-2.3,4.13-4.3,2.59-7.67c-0.48-2.11-0.19-4.34-0.97-6.4c-0.4-2.42-1.3-4.74-1.34-7.22c-0.08-1.28,0.1-2.59-0.43-3.98
	c-1.31-0.89-3.59,0.6-4.56-1.52c-0.15-0.44-0.13-0.89,0.01-1.33c2.22-1.72,3.94-3.57,1.43-6.37c-0.39-0.95-0.62-1.94-0.71-2.96
	c-1.37-6.07-1.26-12.16-0.25-18.26c0.64-3.35,1.6-6.58,3.64-9.38c0.58-1.12,1.81-1.94,1.63-3.82c-2.54,0.31-4.44,2.03-6.68,2.77
	c-1.65,0.55-3.59,2.25-4.8-0.68c5.73-3.67,12.14-5.8,18.53-7.89c1.6-0.52,3.75-1.23,5.29,0.67c-0.35,1.16-0.56,2.33,0.08,3.46
	c0.41,0.47,0.91,0.79,1.47,1.06c3.71,0.21,6.28,1.62,6.25,5.82c-0.06,1.39-0.78,2.06-2.18,1.9c-1.36-0.16-2.58-0.02-3.41,1.22
	c-0.64,1.26-0.16,1.93,1.15,2.16c3.72-0.72,6.51,0.27,7.69,4.19c0.41,2.14,0.98,4.22,1.83,6.23c0.19,0.73,0.22,1.47,0.08,2.21
	c-2.66,3.19-3.12,7.4-5.03,10.94c-0.48,0.1-0.93,0.04-1.35-0.2c-1.45-0.87-2.48-0.55-3.11,1.18c1.38,1.16,3.25,0.14,4.87,1.14
	c1.12,3.43-0.59,5.83-3.66,7.74c1.58,2.62,2.48,5.29,3.93,7.71c0.24,0.42,0.41,0.87,0.56,1.33c0.31,1.19,0.64,2.37,0.96,3.56
	c1.1,4.99,2.26,9.96,1.26,15.12c-0.13,1.57-0.71,3.02-1.11,4.52C73.38,243.14,74.1,247.48,69.99,248.96z"/>
<path class="st13" d="M41.02,166.18c2.14,1.84,3.64-0.31,5.37-0.9c2.69-0.92,4.91-3.24,8.18-3.01c0.7,2.87-1.44,4.07-2.55,5.74
	c-2.32,2.76-4.58,3.93-8.77,3.04c-6.47-1.37-10.01,4.21-7.71,10.51c2.46,6.72,3.04,13.29-3.1,18.67c-3.23,1.01-2.78-1.37-2.95-3.19
	c0.07-0.7,0.33-1.32,0.66-1.93c0.54-1.17,0.91-2.34,0.06-3.59c-1.43,0.36-1.01,1.81-1.59,2.64c-0.42,0.89-0.91,1.72-1.9,2.1
	c-5.2-3.56-6.83-8.9-7.39-14.78c-0.09-0.48-0.1-0.96-0.05-1.44c0.89-1.77,1.94-3.91,4.2-3.36c3.08,0.75,3.61,3.8,4.06,5.4
	c-1.27-2.52,0.81-6.35-0.52-9.91C31.39,169.47,36.12,167.61,41.02,166.18z"/>
<path class="st14" d="M71.95,198c1.22-3.99,1.56-8.4,5.21-11.27c3.07,0.88,2.77,3.65,3.35,5.93c-0.4,2.89-3.24,5.45-1.15,8.68
	c-0.85,2.9-3.22,5.22-3.25,8.44c-1.04,2.08,0.38,5.41-3.16,6.2c-2.87-1.84-2.77-5.51-4.8-7.9c-0.42-0.49,0.15-1.77,1.11-1.85
	c3.39-0.27,2.52-3.27,3.52-5.1c-2.17-0.7-4.92,1.32-6.4-0.9c-1.18-1.77,1.23-2.78,2.26-3.84c1.14-1.18,2.68-1.51,3.24,0.81
	c-0.21,0.19-0.27,0.38-0.18,0.55C71.79,197.92,71.87,198,71.95,198z"/>
<path class="st15" d="M45.09,231.03c2.1,0,4.19,0,6.51,0c1.21-1.08-0.4-2.58,0.09-3.92c0.76-1.4,3.27,2.36,3.31-1.11
	c2.9,4.11-1.82,5.4-2.96,8.01c-1.32-0.98-1.34,0.75-2.07,1c-2.34,2.72,0,4.29,2.05,6.09c-2.76,1.78-4.59,3.76-4.03,6.93
	c-2.69-2.68-1.54-6.52-2.87-9.63c-0.43-0.99-0.09-2.28-0.45-3.39C44.6,233.66,43.82,232.23,45.09,231.03z"/>
<path class="st16" d="M142.94,190.84c-1.83,0.3-1.45,2.53-2.82,3.24c-2.17-2.64-1.65-4.58,1.88-7.09c0.36,1,0.72,2,1.08,3.01
	C142.98,190.27,142.93,190.55,142.94,190.84z"/>
<path class="st17" d="M142,187c-1.17,2.22-2.73,4.33-1.88,7.09c-0.94,1.6-2.95,0.85-4.15,1.87c-1.89-0.68-2.59-2.39-3.45-3.96
	c-0.45-2.23,2.02-3.74,1.47-6c0.09-0.25,0.18-0.5,0.26-0.75c0.41-2.06,1.48-3.48,3.68-3.79c2.05,0.89,1.99,3.68,4.08,4.54
	C142.06,186.33,142.06,186.66,142,187z"/>
<path class="st18" d="M142,186c-3.52,0.82-3.94-1.53-4.15-4.07c0.01-0.79,0.29-1.23,1.16-0.92c2.14,0.23,4.62-0.59,5.98,1.98
	C144.45,184.44,143.16,185.15,142,186z"/>
<path class="st19" d="M133.99,186c4.88,2.8-1.73,3.8-0.93,5.96c-3.27,0.55-2.98-2.17-3.67-3.99c-0.24,0.05-0.49,0.07-0.73,0.06
	C130.43,187.35,132.21,186.67,133.99,186z"/>
<path class="st20" d="M129.39,187.97c1.55,1.03,1.48,3.55,3.67,3.99c1.66,0.83,2.14,2.52,2.92,3.99c-1.87,1.8-3.51,3.89-6.03,4.88
	c-4.62-1.61-5.12-7.69-0.99-12.22C128.97,188.31,129.12,188.1,129.39,187.97z"/>
<path class="st21" d="M71.97,337.02c3.35,6,6.71,11.99,10.06,17.99c0.41,2.49-1.56,3.72-2.81,5.33c-3.2,1.05-6.55,1.75-9.26,3.96
	c-0.41,0.22-0.84,0.39-1.28,0.53c-1.89,0.27-3.51,1.23-5.2,2.02c-0.49,0.16-0.99,0.24-1.51,0.27c-3.63-0.06-4.39-2.29-3.96-5.32
	c0.35-2.44,0.81-4.86,1.53-7.21c0.09-0.72,0.28-1.43,0.5-2.11c1.63-2.49-1.14-4.49-0.78-6.85c0.1-0.45,0.27-0.86,0.5-1.25
	c3.55-3.1,6.42-6.91,10.16-9.81C71.59,334.56,71.26,336.22,71.97,337.02z"/>
<path class="st22" d="M47.24,332.28c2.33-2.54,4.01-5.71,7.11-7.53c2.39,0.29,3.24-1.9,4.81-2.94c1.76-1.16,3.25-3.58,5.9-1.65
	c1.89,1.17,2.26,2.92,1.91,4.95c-0.34,2.61-2.88,2.85-4.47,4.05c-2.8,2.13-4.74,4.43-3.91,8.29c0.77,3.55-0.88,6.34-3.32,8.76
	c-0.48,0.16-0.95,0.12-1.41-0.08c-0.75-2.31-2.07-3.67-4.61-4.54"/>
<path class="st23" d="M54.99,345.99c1.43-3.38,3.24-6.46,2.16-10.61c-1-3.83,2.48-5.72,5.22-7.56c1.48-0.99,3.06-1.82,4.6-2.72
	c1.2,1.04,2.46,2.02,3.58,3.14c2.56,2.56,3.85,5.38,1.42,8.78c-0.66-0.68-1.31-1.35-1.96-2.03c-1.08-0.3-1.34-1.38-2.2-2.36
	c-1.24,5.11-6.89,7.17-7.81,12.36l0,0C58.55,346.44,57.05,347.61,54.99,345.99z"/>
<path class="st24" d="M65.06,320.16c-3.59-0.02-5.3,2.89-7.63,4.85c-0.68,0.57-1.7,2.92-2.47-0.02c-1.29-1.94,0.36-3.11,1.17-4.5
	c3.57-2.52,0.49-5.69,0.83-8.52c0.07-1.09-0.08-2.26,0.97-3.04c1.92-0.9,2.05-3.15,3.39-4.5c1.07-1.08,1.52-3.08,3.72-2.43
	c4.05-2.9,8.98-3.39,13.52-4.95c2.08-0.71,4-0.92,4.45,2.02c-5.16,0.43-10.04,2.17-14.76,4.01c-5.72,2.23-6.18,4.08-4.31,10.16
	c0.07,1.05,0.24,2.06,1.08,2.81C64.19,317.42,65.07,318.78,65.06,320.16z"/>
<path class="st25" d="M90.93,328.95c0.35,0.34,0.7,0.69,1.05,1.03c0,2.07,0,4.14,0,7.37C89.38,333.92,89.45,331.49,90.93,328.95z"/>
<path class="st26" d="M88,298.99c-0.73-0.17-1.78,0.16-1.88-1.07c-0.1-1.28,0.61-1.78,1.81-1.72
	C88.13,297.12,89.45,298.02,88,298.99z"/>
<path class="st27" d="M65.02,316.03c-0.88-0.24-1.77-0.48-2.61-0.71c-0.36-1.4,1.23-1.26,1.53-2.1
	C65.37,313.75,64.82,315.04,65.02,316.03z"/>
<path class="st28" d="M76.97,284.35c-3.63,6.13-7.36,12.16-11.93,17.64c-2.78,1.69-3.57,4.93-5.56,7.25
	c-1.03,1.21-1.3,1.16-1.55-0.31c0.3-2.11,0.6-4.21,2.1-5.9c2.11-0.91,2.03-3.22,3.07-4.82c3.02-6.45,8.25-11.27,12.42-16.86"/>
<path class="st29" d="M73.63,273.22c-0.77,5.69-4.09,10.44-5.83,15.78c-1.46,3.09-2.96,6.16-4.4,9.26c-1.06,0.7-0.09,3.47-2.67,2.6
	c0.44-3.02,0.54-6.11,2.09-8.87c1.55-1.76,0.83-4.69,3.11-6.08"/>
<path class="st30" d="M57.05,321.02c-1.14-1.24-3.16,1.04-4.09-1.02c1.33-2.67,2.66-5.35,3.99-8.02
	C60.07,314.95,60.94,317.96,57.05,321.02z"/>
<path class="st31" d="M60.73,300.87c1.62-0.3,1.01-2.29,2.21-2.91c0.66-0.01,0.69,0.63,0.99,0.98c-0.82,1.62-1.46,3.38-2.52,4.83
	c-0.97,1.32-1.13-0.07-1.39-0.74C60.09,302.26,59.92,301.4,60.73,300.87z"/>
<path class="st32" d="M65.94,285.92c-0.92,2.09-0.86,4.67-3.11,6.08c0.32-2.82,0.94-5.55,2.06-8.17"/>
<path class="st33" d="M67,398c-7.4-0.03-7.56-0.23-9.16-7.8c-0.4-1.9-1.14-3.72-2.3-5.42c-1.92-2.81-2.37-5.78-1.37-9.33
	c1.32-4.66-0.42-9.67,0.82-14.45c0.22-0.06,0.44-0.13,0.66-0.19c3.8,1.44,2.72,4.82,3.11,7.66c1.26-1.04,2.89-1.51,4.25-2.45
	c0.32-0.03,0.64-0.04,0.96-0.05c1.48-1.15,3.48-0.98,5.03-1.96l0,0c1.23-0.72,2.68-0.86,3.91-1.67c2-1.3,3.25-0.25,4.07,1.64
	c-1.11,3.7-5.41,5.61-5.51,9.92c-0.02,0.83-0.26,1.54,0.51,2.1c0.55,1.66-0.05,2.73-1.69,3.27c-2.19-1.68-3.6,0.42-5.3,1.12
	c-1.47,0.37-3.31-1.3-4.45,0.63c-1.18,2.01,1.16,2.7,1.77,4.05C61.93,390.08,63.34,394.45,67,398z"/>
<path class="st34" d="M48.98,349.98c1.94,1.71,4.09,1.32,6.32,0.74c1.69-0.44,3.32-1.28,5.16-1.07c1.05,0.56,1.24,1.35,0.62,2.36
	c-0.04,0.66-0.07,1.32-0.11,1.98c-2.12,2.22-4.96,3.83-5.95,7.01l-0.03,0.01c-1.66-1.69-2.97-3.41-5.6-4.32"/>
<path class="st35" d="M55.01,360.99c-1.14-4.99,2.35-6.05,5.95-7.01c-0.57,2.56-1.09,5.14-1.73,7.69c-0.83,3.3,0.42,4.71,3.77,4.34
	c-1.21,2.3-3.32,3.34-6.26,4.54C58.32,366.59,58.65,363.29,55.01,360.99z"/>
<path class="st36" d="M59.99,344.99c-0.51-1.96-0.87-4.13,1.02-5.35c3.41-2.21,5.19-5.49,6.44-9.05c3,0.61,1.07,3.35,2.55,4.39
	C67.42,339.08,64.01,342.34,59.99,344.99z"/>
<path class="st37" d="M61.08,352.01c-0.09-0.82-0.23-1.61-1.08-2.02c-2.08,0.43-4.02,1.57-6.18,1.47c-2.37-0.11-4.36-0.69-1.83-3.49
	c0.68-0.65,1.36-1.3,2.04-1.95c0.33-0.01,0.65-0.02,0.98-0.03c1.67-0.33,3.33-0.67,5-1C59.08,347.53,64.01,349.16,61.08,352.01z"/>
<path class="st38" d="M76.99,363.98C74.32,361.01,71.67,365,69,364c2.76-2.72,5.9-4.51,9.95-4.06
	C78.3,361.29,77.64,362.63,76.99,363.98z"/>
<path class="st38" d="M69,364c-1.31,1.59-3.05,2.09-5.03,1.96C65.03,363.74,67.06,363.97,69,364z"/>
<path class="st39" d="M70,379c0.66-1,1.33-2,1.99-3c1.65-3.19,5.14-3.91,7.83-5.67c1.28-0.84,2.95-0.48,3.18,1.67
	c-1.93,1.62-1.17,4.09-1.45,6.02c-0.86,5.91-6.86,5.09-9.7,8.25c-1.49-0.24-0.27-1.83-1.3-2.3c-0.46,0.63-0.99,1.35-1.53,2.07
	C67.18,383.38,67.09,380.98,70,379z"/>
<path class="st40" d="M70,379c-1.39,2.2-0.94,4.65-0.98,7.03c-0.01,3.65-0.03,7.29-0.04,10.94c-2.26,0.25-2.84-1.43-3.13-3.03
	c-0.66-3.57-2.24-6.89-2.72-10.5c0.11-1.41,0.62-2.6,1.83-3.42c0.91-1.58,2.13-2.83,3.71-3.69C70.4,376.61,69.84,377.98,70,379z"/>
<path class="st41" d="M64,383c2.52,4.35,1.56,9.93,4.97,13.96c0.01,0.34,0.01,0.68,0.02,1.03c-0.67,0.09-1.32,1.13-2,0.01
	c-5.34-2.95-6.8-6.76-5.01-13.02C61.72,383.37,62.39,382.71,64,383z"/>
<path class="st23" d="M48.98,349.98c0.59-1.28,1.59-1.96,3-2.01c-1.15,2.89,0.74,3.22,2.71,2.87c1.76-0.32,3.45-1.04,5.3-0.85
	c-2.05,1.96-4.89,1.74-7.33,2.61C50.35,353.44,49.26,352.19,48.98,349.98"/>
<path class="st42" d="M76.07,282.11c-3.48,6.02-9.34,10.32-12.13,16.83c-0.33-0.33-0.66-0.66-0.99-0.99c0.9-3.2,1.85-6.39,3.87-9.12
	c3.71-2.66,4.25-7.34,6.84-10.71"/>
</svg>
