<?xml version="1.0" encoding="utf-8"?>
<!-- Generator: Adobe Illustrator 26.1.0, SVG Export Plug-In . SVG Version: 6.00 Build 0)  -->
<svg version="1.1" id="Layer_1" xmlns="http://www.w3.org/2000/svg" xmlns:xlink="http://www.w3.org/1999/xlink" x="0px" y="0px"
	 viewBox="0 0 244 406" style="enable-background:new 0 0 244 406;" xml:space="preserve">
<style type="text/css">
	.st0{fill:#11151B;}
	.st1{fill:#182432;}
	.st2{fill:#1D232B;}
	.st3{fill:#272F3A;}
	.st4{fill:#171C23;}
	.st5{fill:#2B333F;}
	.st6{fill:#191E23;}
	.st7{fill:#2C333E;}
	.st8{fill:#15181B;}
	.st9{fill:#303742;}
	.st10{fill:#1F2227;}
	.st11{fill:#3A3E45;}
	.st12{fill:#181D23;}
	.st13{fill:#21252A;}
	.st14{fill:#1A2129;}
	.st15{fill:#15191E;}
	.st16{fill:#282A2D;}
	.st17{fill:#C7CFDC;}
	.st18{fill:#2A2F38;}
	.st19{fill:#232A35;}
	.st20{fill:#151A20;}
	.st21{fill:#3D444D;}
	.st22{fill:#5F656E;}
	.st23{fill:#222831;}
	.st24{fill:#10141C;}
	.st25{fill:#040506;}
	.st26{fill:#343A44;}
	.st27{fill:#494E5B;}
	.st28{fill:#393B3F;}
	.st29{fill:#D6D8EA;}
	.st30{fill:#6E717F;}
	.st31{fill:#4D525B;}
	.st32{fill:#545760;}
	.st33{fill:#3E424B;}
	.st34{fill:#272C34;}
	.st35{fill:#7D8698;}
	.st36{fill:#20252C;}
	.st37{fill:#393E48;}
	.st38{fill:#1A1E24;}
	.st39{fill:#282E34;}
	.st40{fill:#5E5F64;}
	.st41{fill:#27292C;}
	.st42{fill:#4E4F54;}
	.st43{fill:#494B4F;}
</style>
<path class="st0" d="M244,271c-7.67,2.21-6.31,9.33-7.38,14.68c-0.76,3.82-1.95,6.57-6.4,9.62c4.33-8.36,1.61-15.42,0.51-22.45
	c-0.89-5.66-0.71-6.09,4.85-4.42c2.25-4.92-5.59-10.17,0.66-15.03c3.72,4.22,3.94,10.41,7.76,14.6C244,269,244,270,244,271z"/>
<path class="st1" d="M244,364c-4.43-2.13-8.85-4.26-13.83-6.66c6.09-1.96,10.3-5.72,13.83-10.34C244,352.67,244,358.33,244,364z"/>
<path class="st2" d="M241.97,324.98c0.01,0.33,0.01,0.66,0.01,0.99c-2.3,1.56-4.71,3.8-5.98-0.97c3.11-4.76,4.39-10.5,8-15
	c0,2.67,0,5.33,0,8C243.88,320.49,241.73,322.39,241.97,324.98z"/>
<path class="st3" d="M244,304c-0.65,0.69-1.3,1.38-1.94,2.07c-1.08,0.69-2.31,0.39-2.13-0.77c0.32-2.13-1.02-4.23,0.08-6.29l0,0
	c1.87-2.03,0.23-6.06,4-7C244,296,244,300,244,304z"/>
<path class="st4" d="M244,292c-3.13,1.3-0.43,5.94-4,7c0.12-4.4,1.77-8.3,4-12C244,288.67,244,290.33,244,292z"/>
<path class="st5" d="M241.97,324.98c-1.43-0.18-2.22-0.69-1.18-2.21c1.08-1.58,2.14-3.18,3.21-4.77c0,1.67,0,3.33,0,5
	C243.32,323.66,242.65,324.32,241.97,324.98z"/>
<path class="st6" d="M189,239c-0.76-5.07-2.41-9.77-4.73-14.41c-1.68-3.34-0.6-8.2-5.64-9.53c-2.58-0.68-3.77-3.1-5.86-4.4
	c-1.13-0.7-0.02-1.76,0.22-2.64c0.67-0.01,1.33-0.02,2-0.02c4.74,0.52,8.12-2.9,12.21-4.28c2.05-0.69,0.04-1.72-0.35-2.58
	c1.38-3.95,5.25-7.13,3.6-13.14c-4.26,5.58-5.94,12.25-11.73,15.52c-4.85-0.27-5-0.5-2.86-4.54c0.48-0.54,1.03-1.01,1.62-1.42
	c1.22-0.79,2.79-1.29,2.73-3.19c0.19-2.1,1.22-3.87,2.17-5.67c2.48-3.56,4.49-7.56,8.79-9.41c-1.22,0.33-2.35,0.68-2.18-1.28
	c1.95-0.81,3.89-1.63,6.02-2.52c3.06,3.13,1.83,7.67,4.03,10.89c-1.25,1.88-3.05-0.31-4.48,1.64c0.25,1.49-0.86,3.5-0.08,5.91
	c2.32,7.22,2.89,14.3-3.45,20.1c-1.94-1.67,0.31-3.8-0.7-5.82c-3.58-1.24-5.16,1.4-5.98,3.95c-0.98,3.07,1.92,3.21,3.93,3.76
	c0.64,0.17,1.26,0.38,1.79,0.79c0.78,0.97-0.06,2.38,0.91,3.29c0,0,0,0,0,0c1.33,5.71-1.92,11.38-0.13,17.12
	C191.29,238.47,191.24,239.97,189,239z"/>
<path class="st7" d="M221.04,221.98c0.31,0.01,0.63,0.03,0.94,0.05c0.01,1.32,0.03,2.65,0.05,3.97c-2.14,2.14,1.17,4.92-0.84,7.08
	c-2.21,1.06-3.98-1.75-6.29-0.69c-1.27,1.6-0.42,3.41-0.38,5.17c0.06,2.67-0.98,4.96-3.38,6.25c-2.5,1.35-3.98-0.61-5.51-2.15
	c-1.25-1.45-1-2.99-0.29-4.57c-0.12-1.03,2.43-0.81,1.1-2.4c-0.25-0.64-0.29-1.29-0.18-1.96c1.73-2.65,0.93-4.85-1.23-6.8
	c-0.97-3.43,0.57-6.09,2.62-8.6C212.57,217.54,217.11,218.88,221.04,221.98z"/>
<path class="st8" d="M180.98,273c-8.94-21.64-18.71-53.27-17.12-55.81c5.17,10.3,6.8,21.68,10.55,32.36
	c2.03,5.78,5.38,10.9,7.3,16.7c0.63,1.9,1.49,3.67,1.31,5.73C182.63,272.89,182.11,273.55,180.98,273z"/>
<path class="st9" d="M220.99,233.01c0.12-2.88-0.99-5.52-2.13-7.95c2.1-1.36,2.16,0.79,3.17,0.94c2.95,5.4,1.87,11.26,1.98,16.99
	c1.16,4.96-0.01,9.75-1.1,14.54c-1.71,2.38-3.69,2.14-4.2-0.49c-0.66-3.42-2.37-6.92-0.32-10.6c1.48-2.67,0.45-5.89,1.2-8.79
	C220,236.08,219.62,234.29,220.99,233.01z"/>
<path class="st10" d="M150,328c3.28-8.52,6.57-17.05,9.85-25.57c0.4,0.17,0.8,0.33,1.2,0.5C159.55,312.2,155.81,320.53,150,328
	L150,328z"/>
<path class="st11" d="M158,203.18c0.94-1.6,1.15-2.95,0.09-4.85c-1.06-1.9,1.02-1.03,1.83-1.2c0,8.44,0,16.88,0,26.05
	c-2.62-1.91-1.5-3.73-1.93-5.18c-0.87-1.59-2.26-2.75-0.29-4.98c1.07-1.22,0.26-4.1,0.29-6.23
	C156.95,205.58,156.89,204.38,158,203.18z"/>
<path class="st4" d="M240,299c2.53,1.82-0.44,5.24,2.06,7.07c-0.21,1.78-1.16,2.98-3.2,3.75C237.34,305.94,234.21,302.14,240,299z"
	/>
<path class="st12" d="M221.98,257.99c1.12-4.94,2.2-9.88,2.03-14.99c2.3,7.13,0.42,14.05-1.02,21c-0.33,0.01-0.66,0.01-0.98,0.02
	c-0.19-0.13-0.37-0.26-0.56-0.39C219.86,261.57,220.89,259.78,221.98,257.99z"/>
<path class="st13" d="M180.98,273c0.68-0.34,1.35-0.68,2.03-1.02c1.98,2.74,1.42,6.45,3.68,9.14
	C184.32,278.67,180.66,277.19,180.98,273z"/>
<path class="st14" d="M228.99,217.99c0.68-0.1,1.37-1.12,2.04,0.02c-1.69,2.14-2.69,4.85-5.64,6.61
	C225.76,221.64,228.03,220.14,228.99,217.99z"/>
<path class="st15" d="M167.02,282.49c-0.37,1.9,0.64,4.1-1.44,6.17C164.56,285.93,165.14,284.07,167.02,282.49z"/>
<path class="st10" d="M150,328c0.17,2.13-0.81,3.8-2.68,6.52C147.55,331.13,148.65,329.51,150,328C150,328,150,328,150,328z"/>
<path class="st16" d="M154.03,192.01c-2.64-1.18-3.92-2.65-1.06-5C152.95,188.75,153.08,190.47,154.03,192.01z"/>
<path class="st17" d="M160.05,174.73c1.06,0.88,2.84,1.34,1.91,3.35c-0.32-0.12-0.64-0.25-0.96-0.37c-0.34-0.57-0.67-1.14-1.01-1.71
	C159.55,175.56,159.57,175.14,160.05,174.73z"/>
<path class="st4" d="M207.99,217.99c-1.09,2.56-3.68,4.76-1.97,8.01c1.18,2.27,1.47,4.57,0.27,6.92c-0.42,0.31-0.85,0.33-1.3,0.07
	c-3-4.48-1.74-8.96-0.01-13.45c0.71-1.84,1.36-3.7,2.03-5.54c3.32-2.41,6.65-4.83,10.29-7.47c2.22,2.45,4.46,4.73,2.69,8.47
	C215.38,213.54,211.55,215.21,207.99,217.99z"/>
<path class="st18" d="M189.99,216.99c-0.33,0-0.66,0-0.99,0.01c-2.78,0.1-5.66-0.14-6.47-3.29c-0.75-2.92,1.95-4.87,3.63-6.46
	c1.66-1.57,4.54-1.8,6.55,0.6c-0.28,2.18-2.14,3.87-1.67,6.18c-0.02,0.33-0.03,0.66-0.03,0.98
	C190.31,215.49,190.7,216.52,189.99,216.99z"/>
<path class="st19" d="M207.99,217.99c5.15-6.09,5.88-6.27,12-2.99c1.4,2.17,0.94,4.62,1.05,6.98
	C216.69,220.65,212.34,219.32,207.99,217.99z"/>
<path class="st20" d="M152,208c-2.52-4.1-3.78,2.25-6.61-0.41c-0.15-0.39-0.78-1.99-1.4-3.59c2.09-6.26,3.41,1.55,5.46-0.65
	c-2.37-3.26-2.68-8.03-4.45-12.34C149.86,193.48,153.44,202.17,152,208z"/>
<path class="st12" d="M204.99,233c0.34,0,0.67,0,1.01,0.01c0.34-0.47,0.66-0.49,0.98,0.02c0.01,0.66,0.02,1.32,0.03,1.98
	c-0.4,0.63-0.98,1.17-0.99,2c-0.03,1.33-1,2.66-0.01,4c2.21,7.48-0.21,15.11,0.72,22.65c0.31,2.53,0.04,5.03,3.49,5.41
	c0.02-6.41,3.12-12.5,1.35-18.98c-0.33-1.19,0.05-2.43,1.61-2.52c1.65-0.1,2.9,0.76,3.58,2.22c1.59,3.43,1.51,7.38,3.35,10.79
	c0.61,1.14,0.9,2.46,1.89,3.41c0,0,0.02,0.02,0.02,0.02c-0.43,4.48-1.57,8.73-3.83,12.66c-2.99-1.54,3.27-5.94-2.55-6.28
	c-1.1,2.18-2.34,4.29-3.61,6.37c-1.82,2.97-3.7-0.09-5.57,0.71c-1.75,0.75-1.65-1.7-1.98-2.73c-2.24-7.08-1.44-14.44-1.14-21.63
	c0.12-2.83-3.16-3.5-2.23-6.54C202.49,242.09,203.33,237.42,204.99,233z"/>
<path class="st21" d="M186.96,200.97c-2.63,0.65-5.25,1.31-7.87,1.96c4.73-4.89,6.7-11.87,11.98-17.02
	C193.27,193.81,191.91,198.26,186.96,200.97z"/>
<path class="st22" d="M158,203.18c0,1.2,0,2.41,0,3.61c-2.58-2.1-2.94-3.15-3.15-9.34C157.57,198.5,156.11,201.77,158,203.18z"/>
<path class="st23" d="M221.99,263.99c-4.03-2.14-3.63-6.52-4.97-9.99c-0.9-2.34-0.68-5.36-5.01-5.7c3.92,8.13-1.32,15.48-0.44,23.52
	c-2.47-0.5-3.07-3.83-6.08-2.1c0-8.92,0.07-17.18-0.08-25.44c-0.02-1.22,0.07-2.25,0.59-3.29c1.77,0.36,2.65,3.88,4.93,1.81
	c1.68-1.53,3.54-3.33,2.16-6.38c-0.7-1.54-0.66-3.65,1.03-5.13c3.16-2.78,4.46,1.62,6.87,1.71c-0.23,5.34,0.26,10.74-2.28,15.8
	c-1.11,2.21,1.48,8.69,3.28,9.18C222.1,259.99,221.16,261.99,221.99,263.99z"/>
<path class="st23" d="M206.97,233.02c-0.33-0.01-0.65-0.01-0.98-0.02c0.01-2.33,0.02-4.67,0.03-7
	C209.74,227.88,209.35,230.31,206.97,233.02z"/>
<path class="st23" d="M206.01,237c-1.53-1.59-0.29-1.8,0.99-2C208.23,236.44,206.63,236.48,206.01,237z"/>
<path class="st24" d="M78.99,400c-1,0-2,0-2.99,0c-2.91,1.03-5.18-0.48-7.49-1.87c-0.3-0.47-0.5-0.98-0.64-1.52
	c-0.31-3.22-0.43-6.44,0.06-9.65c0.69-2.32,1.17-3.52,4.66-3.39c3.46,0.13,7.15-2.64,7.94-7.29c0.27-1.59-0.32-4.24,2.7-4.3
	c0.28,0.72,0.32,1.4-0.22,2.03c-0.35,4.15,0.31,8.22,0.97,12.29c0.16,0.98,0.25,1.78,1.14,2.55c4.79,4.1,4.27,6.7-1.69,9.18
	C81.94,398.65,80.17,398.66,78.99,400z"/>
<path class="st25" d="M78.99,400c7.24,1.01,14.9-0.67,21.64,0.54c10.22,1.84,18.09,0.9,26.09-5.92c3.15-2.69,8.76-2.55,13.28-3.55
	c1.83-0.41,3.73-0.04,5.25,1.1c3.48,2.62,7.15,2.45,10.8,0.75c2.26-1.05,4.72-1.45,6.8-0.77c3.2,1.05,6.14,2.05,8.73-0.25
	c2.63,1.9-0.47,3.8,1.07,5.53c3.63-2.37,4.06-7.27,7.4-9.71c3.17-2.32,7.54-0.54,9.42,3.52c1.18,0.03,1.99-0.85,2.34-1.63
	c2.94-6.61,8.27-4.33,13.01-3.39c2.14,0.43,4.12,1.93,1.87,4.68c-2.17,2.65-0.67,4.11,1.79,5.32c5.06,2.49,10.43,4.56,13.53,9.77
	c-74,0-148,0-222,0c0-1.33,0-2.67,0-4c5.2-5.36,5.66-8.53,2.08-15.03C1.36,385.65,0.95,384.18,0,383c0-6,0-12,0-18
	c1.89-1.33,1.37-2.67,0-4c0-2.67,0-5.33,0-8c1.54-0.89,2.69,0.5,4.83,0.82C1.78,351.6,4.41,346.95,0,346c0-10.67,0-21.33,0-32
	c1.95-2.23,5.76,0.52,7.38-2.87C5.05,313.2,2.65,313.79,0,312c0-3,0-6,0-9c0.42-0.49,1.07,0.12,1.53-0.31
	C0.86,302.24,0.47,301.58,0,301c0-18.33,0-36.67,0-55c2.51,0,2.2,2.26,2.96,3.67c0.78,11.65,8.92,20.07,13.35,31.04
	c5.14-10.46,11.28-19.33,20.22-25.93c0.85-0.36,1.68-0.46,2.44,0.21c-0.17,1.81,1.4,0.95,2.14,1.37c0.64,0.28,1.06,0.74,1.13,1.46
	c-0.18,0.42-0.46,0.76-0.82,1.05c-3.92,2.19-1.61,5.93-2.22,8.93c0.01,0.5-0.03,0.99-0.04,1.91c1.27-1.03,1.65-2.48,2.71-3.27
	c1.31-0.87,2.33-0.74,2.92,0.85c0.04,6.02-1.25,11.89-1.95,17.83c-0.27,2.3-0.61,4.6,1.37,6.76c2.83-2.08,3.79-5.2,5.45-7.77
	c3.16-4.88,5.89-10.08,11.82-12.39c2.27-0.89,2.68-3.31,2.93-5.47c0.44-3.8,1.09-7.57,1.41-11.4c0.25-3.06,0.38-6.43,3.87-8.05
	c0.78,0.37,1.08,1.06,1.25,1.85c0.11,0.77,0.05,1.54-0.11,2.3c-0.55,1.67-0.59,3.4-0.6,5.14c-0.02,1.01-0.16,2-0.39,2.98
	c-0.69,1.94-0.51,3.98-0.63,5.98c-0.05,0.78-0.18,1.55-0.37,2.31c-0.68,5.49-1.38,10.98-2.84,16.33c-0.85,2.68-1.47,5.41-2.08,8.15
	c-0.89,2.82-1.5,5.71-2.02,8.62c-0.26,0.92-0.66,1.79-1.05,2.66c-0.86,1.88-1.4,3.88-2.07,5.83c-0.39,1.09-0.73,2.21-1.08,3.31
	c-0.98,2.99-2.29,5.82-3.96,8.48c-4.43,11.4-12.76,19.95-21.89,28.73c4.31,0.05,7.52-2.96,11.35-0.32
	c-1.73,4.42-5.82,5.15-9.53,5.79c-4.27,0.74-7.85,2.51-11.2,5.09c-2.89,2.22-3.75,4.47-0.78,7.37c3.74,3.66,5.64,8.21,5.55,13.45
	c-0.06,3.47,1.62,5.01,4.86,5.79c5.91,1.41,11.76,1.44,17.26-0.21c1.81,1.79,0.7,3.2,0.53,4.61c-0.39,3.19,0.63,6.2,3.99,6.35
	c7.45,0.33,14.77,2.16,22.26,1.75C77.22,399.04,78.2,399.19,78.99,400z"/>
<path class="st26" d="M133.04,282.8c-0.39-1.27-0.78-2.54-1.18-3.81c1.02-3.69,3.82-4.17,7.03-3.89c0,0,0.02-0.04,0.02-0.04
	c0.37,0.31,0.56,0.71,0.55,1.19c-0.4,1.94-2.69,1.53-3.63,2.86c1.63,0.49,3.13-3.18,4.76-0.06
	C138.92,284.12,137.77,284.69,133.04,282.8z"/>
<path class="st27" d="M127.01,281.15c-0.7,0.25-1.4,0.5-2.1,0.76c-0.41-0.28-0.98-0.39-1.01-1.03c1.09-1.85-0.36-1.63-1.45-1.94
	c-1.42-0.4-3.18-0.86-1.34-2.88c1.95,0.01,3.72,0.87,5.6,1.18C128.82,278.38,128.13,279.75,127.01,281.15z"/>
<path class="st28" d="M110.6,299.87c-0.12-1.32-0.2-2.26-0.28-3.24c2.57-1.35,3.81,0.02,4.85,1.98
	C113.74,300.12,112.07,299.3,110.6,299.87z"/>
<path class="st29" d="M126.72,277.23c-2.08,0.64-3.98,0.36-5.6-1.18c0.17-0.26,0.26-0.56,0.26-0.87
	C123.03,276.19,125.34,275.48,126.72,277.23z"/>
<path class="st30" d="M127.07,295.12c1.17-0.3,2.34-0.6,3.51-0.9c0.09,0.57,0.18,1.14,0.26,1.72c-0.25,1.02-2.67,0.01-1.89,2
	c-0.63-0.02-1.27-0.04-1.9-0.05C126.24,296.96,126.3,296.04,127.07,295.12z"/>
<path class="st31" d="M127.07,295.12c-0.01,0.92-0.01,1.84-0.02,2.76c-1.39,0.9-2.79,1.84-3.17-0.88
	C124.94,296.38,126,295.75,127.07,295.12z"/>
<path class="st32" d="M118.05,298.78c-1.47-0.65-0.99-1.48-0.56-2.32C119.44,296.83,117.52,298.12,118.05,298.78z"/>
<path class="st31" d="M128.95,297.93c-1.1-2.3,0.76-1.81,1.89-2C131.04,297.38,130.41,298.05,128.95,297.93z"/>
<path class="st33" d="M128.01,258.9c3.71,2.06,2.74,4.12,0,6.18c-1.94,0.83-3.85,1.57-5.05-1.08c0.8-0.97,2.19-1.05,3.49-2.02
	c-2.02-0.09-2.52,1.31-3.45,2.06c-3.02-2.05-1.05-3.59,0.75-4.6C124.91,258.79,126.57,259.05,128.01,258.9z"/>
<path class="st34" d="M126.17,253.23c-0.7,0.24-1.4,0.49-2.1,0.73c-3.47-1.82-2.94-4.25-1.06-6.89c1.69,0,3.31-2.11,5.05-0.14
	c-0.04,0.66,0.01,1.33-0.17,1.98c-0.1,1.5-1.79,1.74-2.29,2.9C125.95,252.23,126.19,252.68,126.17,253.23z"/>
<path class="st35" d="M123.9,280.87c0.34,0.34,0.67,0.69,1.01,1.03c-0.83,0.79-1.97,1.84-2.73,0.44
	C121.5,281.08,123,281.03,123.9,280.87z"/>
<path class="st36" d="M139.06,275.97c0.8,0.5,0.93,1.27,0.85,2.12c-1.41,1.13-2.81,2.26-4.2,3.37c-1.62-0.43-1.85-1.75-2.21-3.16
	C134.98,276.67,137.75,277.94,139.06,275.97z"/>
<path class="st37" d="M126.17,253.23c-0.38-0.38-0.76-0.77-1.13-1.15c0.95-1.21,3.43-1.69,1.96-4.07c0.36-0.36,0.71-0.72,1.07-1.07
	C131.93,250.38,128.44,251.62,126.17,253.23z"/>
<path class="st38" d="M123,264.04c0.09-0.8-0.02-1.7,0.3-2.39c0.73-1.57,2.16-1.9,3.72-1.46c0.97,0.27,1.92,0.88,1.56,2.06
	c-0.45,1.5-1.82,1.67-3.18,1.68c-0.81,0.01-1.63,0.05-2.44,0.07C122.96,264,123,264.04,123,264.04z"/>
<path class="st39" d="M90.93,328.95c0.53-5.06,4.35-9.01,5.15-13.73c0.72-4.21,2.74-7.35,4.91-10.59c1.8-2.68,4.23-3.77,7.06-1.41
	c-5.37,8.94-12.76,16.61-16.08,26.76C91.06,330.22,90.59,330,90.93,328.95z"/>
<path class="st40" d="M101.79,298.7c-1.22-0.4-3.1,1.51-3.7-0.9c-0.31-1.25,0.65-1.71,1.83-1.63
	C99.74,297.62,101,297.99,101.79,298.7z"/>
<path class="st41" d="M107.03,299.04c-0.77,1.2-1.9,0.95-3.51,0.69c0.72-1.41-0.24-3.55,2.53-3.62
	C106.29,297.11,105.94,298.32,107.03,299.04z"/>
<path class="st42" d="M92.81,297c0.54-0.76,1.25-1.13,2.19-1.02c-0.18,0.97,0.61,2.42-0.99,2.69
	C92.98,298.86,93.09,297.67,92.81,297z"/>
<path class="st43" d="M107.03,299.04c-2.63-0.21-1.71-1.6-0.97-2.93C107.35,296.76,107,297.96,107.03,299.04z"/>
</svg>
