<?xml version="1.0" encoding="utf-8"?>
<!-- Generator: Adobe Illustrator 26.1.0, SVG Export Plug-In . SVG Version: 6.00 Build 0)  -->
<svg version="1.1" id="Layer_1" xmlns="http://www.w3.org/2000/svg" xmlns:xlink="http://www.w3.org/1999/xlink" x="0px" y="0px"
	 viewBox="0 0 244 406" style="enable-background:new 0 0 244 406;" xml:space="preserve">
<style type="text/css">
	.st0{fill:#B1B8D0;}
	.st1{fill:#656C85;}
	.st2{fill:#687695;}
	.st3{fill:#8E93AB;}
	.st4{fill:#D0D7ED;}
	.st5{fill:#5A6376;}
	.st6{fill:#96A0BD;}
	.st7{fill:#7E88A5;}
	.st8{fill:#262B38;}
	.st9{fill:#677190;}
	.st10{fill:#3B4356;}
	.st11{fill:#7883A2;}
	.st12{fill:#68738F;}
	.st13{fill:#687490;}
	.st14{fill:#414255;}
	.st15{fill:#ACB7D0;}
	.st16{fill:#60667E;}
	.st17{fill:#333848;}
	.st18{fill:#52596F;}
	.st19{fill:#4A5064;}
	.st20{fill:#7584A4;}
	.st21{fill:#ECF2F9;}
	.st22{fill:#737C99;}
	.st23{fill:#A3A7BF;}
	.st24{fill:#B1B7CF;}
	.st25{fill:#EDF3F8;}
	.st26{fill:#687591;}
	.st27{fill:#A3AEC9;}
	.st28{fill:#E1EBF8;}
	.st29{fill:#8C98B5;}
	.st30{fill:#A0ACC7;}
	.st31{fill:#BEC6DF;}
	.st32{fill:#7F8CAB;}
	.st33{fill:#CDD5EC;}
	.st34{fill:#70778B;}
	.st35{fill:#C1C5D9;}
	.st36{fill:#8E9CB9;}
	.st37{fill:#E2EAFA;}
	.st38{fill:#D2DBF0;}
	.st39{fill:#5B616A;}
</style>
<path class="st0" d="M73.9,220.12c-1.24-0.77-0.83-1.94-0.74-3.03c2.2-1.41,4.89-1.73,6.99-3.45c2.64-2.15,4.87-1.18,6.61,1.42
	c2.21,3.3,3.04,6.88,2.14,10.8c-0.5,1.73-0.63,3.53-1.08,5.28c-1.31,3.04-1.35,6.45-2.7,9.46c-0.78,1.74-1.08,3.89-3.28,4.66
	c-3.26-1.68-2.91-4.94-3.08-7.75C78.38,231.33,76.66,225.6,73.9,220.12z"/>
<path class="st1" d="M72.95,215.99c1.73-2,0.8-4.8,2.11-6.93c0.28-0.34,0.59-0.65,0.92-0.95c2.43-0.58,4.9-1.05,7.1-2.37
	c2.25,1.24,2.75,3.7,3.97,5.67c0.47,0.86,1.01,1.68,1.54,2.5c3.33,4.25,3.04,9.28-0.69,12.08c0.47-4.93-0.27-9.44-4.56-12.87
	c-3.46,1.18-5.56,5.98-10.18,3.97C73.09,216.73,73.02,216.36,72.95,215.99z"/>
<path class="st2" d="M79.99,193.01c-1.24-1.96-0.89-4.64-2.84-6.28c-0.12-0.53-0.23-1.05-0.35-1.58c0.82-2.87,2.6-1.05,4.05-0.84
	c2.89,3.42,4.52,8.28,10.04,8.67c0.45,0.16,0.86,0.4,1.24,0.69c0.29,0.38,0.49,0.8,0.58,1.27c-0.03,3.87-3.27,1.26-4.7,2.29
	c-1.26,1.78,0.25,3.89-0.73,5.67c-0.36,0.32-0.79,0.45-1.27,0.41c-2.73-1.34-2.63-4.75-4.77-6.53
	C80,195.81,80.57,194.22,79.99,193.01z"/>
<path class="st2" d="M80.9,184.14c-1.98-1.29-2.09-3.03-1.44-5.13c0.61-1.98,1.29-4.08-0.45-5.93c0-0.3,0.01-0.59,0.02-0.89
	c0.22-0.43,0.53-0.54,0.95-0.28c1.38,0.09,2.49,0.59,3.06,1.95c0.53,2.81,1.34,5.63-0.44,8.32c-0.2,0.39-0.43,0.77-0.68,1.14
	C81.65,183.67,81.3,183.94,80.9,184.14z"/>
<path class="st3" d="M81.19,182.16c2.43-2.37,0.34-5.74,1.84-8.31c1.53,1.4,2.35,3.22,3,5.14c-0.28,1.06,0.31,2.36-0.86,3.17
	C83.85,183.18,82.52,183.73,81.19,182.16z"/>
<path class="st4" d="M127.54,203.87c-0.59,0.94-1.18,1.88-1.77,2.82c-1.51,2.01-3.17,1.11-4.82,0.25c-1.57-1.29-3.07-2.65-3.71-4.69
	c-0.15-0.72-0.12-1.45,0.07-2.16c1.06-3.04,1.04-6.68,4.51-8.44c0.24-0.4,0.51-0.77,0.79-1.14c0.46-0.55,1-1.01,1.61-1.38
	c1.55-0.94,3.16-0.89,4.81-0.35c-1.57,4.19-2.58,8.33,1.22,11.99C129.51,201.95,128.82,203.17,127.54,203.87z"/>
<path class="st5" d="M113.21,231.11c-0.72,0.99-1.43,1.98-2.15,2.97c-4.25,0.94-4.34,5.69-7.21,7.89c-1.49,3.57-4.85,2.74-7.64,3.25
	c-1.64,0.52-3.14,2.02-5.88,0.34c3.36-3.99,7.2-7.63,8.78-12.64c0.77-1.6,2.06-2.6,3.68-3.21c1.64-0.79,1.33,3.14,3.38,1.39
	c2.19-0.93,4.37-1.9,6.84-1.3c0.25,0.26,0.36,0.54,0.34,0.84C113.32,230.95,113.28,231.11,113.21,231.11z"/>
<path class="st6" d="M90.09,262.12c-1.04,1.62-2.09,3.24-3.13,4.86c-3.52-2-1.1-4.88-1.04-7.13c-0.99,1.79-0.51,4.97-4.15,4.9
	c-1.51-5.15,1.64-9.32,2.89-13.9c0.5-1.78,1.15-3.46,2.76-4.56c5.47-1.08,2.81,2.3,2.59,4.49c1.91,0.23,2.31,1.9,2.79,3.5
	C93.29,257.37,90.48,259.33,90.09,262.12z"/>
<path class="st7" d="M81.98,264.97c2.35-2.18,2.87-5.28,3.72-8.91c3.11,3.96-1.62,7.8,1.27,10.91c-0.32,0.67-0.65,1.34-0.97,2.01
	c-1.41-0.56-0.54-2.12-1.48-3.19c-2.57,5.65-4.2,11.68-8.44,16.31c-1.67-2.69,0.5-4.91,0.89-7.35c0.14-0.45,0.33-0.87,0.53-1.29
	c1.46-2.61,2.55-5.41,3.95-8.05C81.62,265.27,81.8,265.12,81.98,264.97z"/>
<path class="st8" d="M113.21,231.11c-0.08-0.38-0.16-0.76-0.24-1.13c-0.77-1.99,0.72-3.43,1.24-5.11c0.46-1.04,0.78-2.14,1.28-3.17
	c1.53-1.54,1.54-4.55,4.52-4.68c1.97,1.31,3.34,2.87,1.01,4.92C117.95,224.62,117.22,229.26,113.21,231.11z"/>
<path class="st9" d="M90.09,262.12c-0.61-3,2.51-5.12,1.91-8.12c-0.88-3.58,0.44-6,3.87-7.31c2.85,0.39,1.63,2.67,1.97,4.23
	C95.26,254.66,92.67,258.39,90.09,262.12z"/>
<path class="st10" d="M121.08,205.91c1.51,0.6,2.9,1.9,4.69,0.78c-0.2,1.33-0.51,2.59-1.98,3.11c-2.87,1.07-3.58,3.86-4.94,6.15
	c-0.76,1.29-1.26,3.33-3.46,1.58c-0.69-1.45-0.58-2.94-0.26-4.44C116.06,209.83,116.96,206.53,121.08,205.91z"/>
<path class="st11" d="M97.84,250.93c-1.42-0.92-0.22-3.02-1.76-3.89c-0.87-1.01-0.02-2.1-0.15-3.15c2.29-1.12,6.24,1.8,7.08-2.89
	c1.25-0.65,2.19-0.72,2.08,1.14C102.67,245.07,100.26,248,97.84,250.93z"/>
<path class="st12" d="M116.13,217.85c2.33-1.05,1.65-3.91,3.2-5.35c1.27-1.18,1.76-3.83,4.46-2.7c-1.26,2.4-2.52,4.81-3.78,7.21
	c-1.27,1.74-2.55,3.49-3.82,5.23C114.76,220.79,114.77,219.33,116.13,217.85z"/>
<path class="st13" d="M105.09,242.13c-0.4-0.92-1.19-1.12-2.08-1.14c-0.08-1.17,2.67-0.24,1.67-2.96c-0.54-1.48,2.96-4.51,6.38-3.95
	C109.07,236.77,107.08,239.45,105.09,242.13z"/>
<path class="st14" d="M77.59,253.89c3.69-1.85,3.04-5.86,4.42-8.87c1.61-4.73,3.22-9.46,4.83-14.19c2.01-0.22,1.91,1.3,2.12,2.56
	c-0.03,1.01-0.29,1.99-0.56,2.96c-0.4,1.86-0.94,3.68-1.56,5.48c-0.89,2.63-2.07,5.14-2.91,7.79c-0.15,0.46-0.33,0.89-0.53,1.33
	c-2.31,5.83-4.79,11.59-7.23,17.36c-0.74,1.75-0.98,3.95-3.26,4.65c-0.33-0.71-0.67-1.42-1-2.12
	C73.8,265.2,75.7,259.54,77.59,253.89z"/>
<path class="st15" d="M72.91,272.97c3.32-7.69,6.64-15.37,9.96-23.06c1.2-0.13,2.25,0.16,3.09,1.06c-1.45,4.63-3.66,9.05-3.98,14.01
	c0,0,0,0.01,0,0.01c-1.38,2.98-2.82,5.93-3.99,9c0,0,0.01,0.01,0.01,0.01c-2.73,3.16-4.67,6.76-6.37,10.56
	c-0.91,2.03-1.54,4.73-4.8,4.28C68.85,283.55,70.88,278.26,72.91,272.97z"/>
<path class="st16" d="M88.1,234.15c-0.26-1.16,0.03-2.54-1.26-3.31c0.35-1.61-0.19-3.42,1.06-4.84c1.43-4.13,3.85-8.34-0.89-12.01
	c0.71-0.89,1.55-1.49,2.77-1.29c2.51,1.11,2.41,3.4,2.56,5.59c0,2.19,0.07,4.37-0.08,6.56C91.05,228.03,91.68,232.03,88.1,234.15z"
	/>
<path class="st17" d="M81.95,196.07c2.82,1.43,2.31,4.84,4.11,6.88c1.63,2.95,4.37,5.89,0.03,8.86c-1.06-1.88-2.12-3.77-3.18-5.65
	c-3.25-1.37-5.06,0.82-6.95,2.82c-0.3,0.03-0.6,0.06-0.91,0.1c-0.12-3.38,2.1-5.62,3.92-8.06
	C78.62,198.55,80.01,197.14,81.95,196.07z"/>
<path class="st18" d="M86.1,211.8c2.44-2.96-0.42-5.9-0.03-8.86c0.32,0.01,0.64,0.01,0.95,0.02c1.89,0.66,2.52,2.58,3.82,3.83
	c1.08,1.55,2.17,3.11,1.82,5.16c-2.57,2.98-2.5-0.57-3.46-1.02c-0.18-1.07-0.73,0.09-0.12-0.18c0.11-0.05,0.14,0.11,0.23,0.44
	c0.19,0.66,0.3,1.28-0.29,1.8c-0.44,0.81-1.18,0.99-2.01,0.99C86.7,213.26,86.4,212.53,86.1,211.8z"/>
<path class="st19" d="M75.97,208.97c2.37-5.23,3.88-5.84,6.95-2.82C81.8,210.04,78.37,208.24,75.97,208.97z"/>
<path class="st20" d="M89.99,207.03c-1.89-0.7-2.17-2.57-2.97-4.07c-0.93-2.44-0.96-4.93-0.46-7.21c1.64-2.43,4.08,2.81,5.49-0.86
	c1.29-1.06,2.73-1.16,4.25-0.64c1.52,0.79,1.75,3.22,4.03,3.09c3.43-0.2,3.64,1.85,3.02,4.44c-0.71,1.26-1.5,1.95-3.16,1.31
	C94.45,200.89,91.94,201.91,89.99,207.03z"/>
<path class="st21" d="M96.99,195.13c-1.65-0.08-3.3-0.16-4.94-0.24c-0.03-0.27-0.11-0.53-0.25-0.77c-1.59-3.63,1.2-5.72,2.89-8.19
	c2.75-0.54,3.21,1.69,4.13,3.38c0.45,1.46,1.39,2.14,2.98,1.97c1.51-0.17,3.02-0.18,3.93,1.41c1.41,3.28,0.09,4.3-3.11,3.76
	C100.88,195.42,98.73,196.13,96.99,195.13z"/>
<path class="st22" d="M80.9,184.14c0.06-0.42,0.11-0.83,0.17-1.25c1.74,0.04,2.81,1.44,4.24,2.1c0.56-0.08,1.11-0.16,1.67-0.23
	c0.23,0.09,0.45,0.19,0.68,0.28c0.61,0.44,1.06,1.02,1.43,1.67c0.72,2.41,3.02,4.44,1.77,7.33c-5.88-0.27-8.52-4.07-9.97-9.16
	C80.91,184.63,80.91,184.38,80.9,184.14z"/>
<path class="st23" d="M90.87,194.04c-0.92-2.37-1.84-4.73-2.76-7.1c1.46-0.78,2.93-1.54,3.71-3.13c1.23-0.69,2.25-0.34,3.14,0.64
	c0.27,0.44,0.27,0.89,0.03,1.34c0.17,3.25-3.37,5.08-3.2,8.34C91.49,194.11,91.18,194.08,90.87,194.04z"/>
<path class="st24" d="M85.31,184.99c-1.99,0.47-3.18-0.69-4.24-2.1c0.01-0.25,0.05-0.49,0.13-0.73c1.33,0,2.65,0,3.98,0
	C85.22,183.1,85.26,184.05,85.31,184.99z"/>
<path class="st25" d="M114.03,192.93c3.17,0.92,5.91-1.02,8.9-1.34c-2.53,2.37-3.33,5.8-5.2,8.58c-2.69,0.53-5.06-1.12-7.68-1.12
	c-2.4-0.87-6.08,1.52-7.15-2.77c2.04-0.43,2.88-1.58,2.21-3.65C108.09,192.37,111.11,191.16,114.03,192.93z"/>
<path class="st26" d="M121.08,205.91c-2.22,2.02-4.16,4.23-4.97,7.22c-0.6-0.35-0.75-1.02-1.07-1.56c-1.93,2.09-4.7,0.54-6.6,1.38
	c-2.67,1.17-4.32,0.23-6.26-0.99c-0.9-0.42-1.62-1-1.74-2.08c0.4-2.8,1.72-4.09,4.59-2.74c1.55,0.73,3.1,0.53,4.66,0.07
	c1.35-0.38,2.69-0.78,4.03-1.16c0.59-0.22,1.24-0.31,1.71-0.89c-0.17-1.45-2.24-1.19-2.49-2.88c1.44-1.97,3.06-2.29,4.94-0.23
	C118.94,203.33,120.01,204.62,121.08,205.91z"/>
<path class="st7" d="M117.87,202.03c-1.32,0.02-2.8-1.43-4,0.5c1.18,1.02,4.07,0.12,3.72,2.72c-0.25,1.84-2.1,1.73-3.58,1.75
	c-0.39-1.93-2.22-2.44-3.49-3.51c-1.13-1.75-3.25-3.41-0.51-5.51c2.85-0.25,5.38,0.64,7.72,2.19
	C117.78,200.79,117.83,201.41,117.87,202.03z"/>
<path class="st27" d="M95.93,243.89c1.86,0.97,0.25,2.09,0.15,3.15c-2.03,1.93-3.78,4.02-4.07,6.96c-1.44-1.98-3.71-3.55-2.21-6.7
	c0.41-0.87-1.12-0.42-1.81-0.31c-1.49-3.49,2.52-4.87,2.9-7.64c0.94-2.42,1.56-4.91,1.8-7.5c0.16-3.05,0.91-6.01,1.18-9.06
	c0.2-2.25-1.23-1.54-2.18-1.89c-0.24-1-0.13-2-0.16-3c0.06-1.32-0.27-2.76,1.1-3.68c3.27-1.35,4.12,0.79,4.56,3.28
	c0.4,2.27-0.07,4.62,0.57,6.87c1.09,2.75-1.21,6.35,2.14,8.55c-0.4,5.6-4.58,8.69-8.35,12.54C93.5,245.79,94.64,244.61,95.93,243.89
	z"/>
<path class="st28" d="M99.89,232.91c-2.96,0.41-4.34-0.38-3.23-3.7c0.44-1.32,0.17-2.87,0.23-4.32c-0.47-2.94-0.95-5.89,0.45-8.73
	c3.73-0.52,9.06,2.07,10.1,5.04c1.25,3.55-2.2,5.17-3.33,7.74c-0.31,0.42-0.66,0.79-1.06,1.12
	C101.99,231.01,100.94,231.96,99.89,232.91z"/>
<path class="st29" d="M103.04,230.06c-0.02-0.36-0.03-0.71-0.05-1.07c1.24-1.97,3.15-3.37,4.55-5.19c1.95-2.53,2.17-4.38-1.33-6.1
	c-2.78-1.37-6.25-1.13-8.48-3.69c-0.03-2.23,0.42-4.08,3.25-4c0.43,0.79,1.17,0.97,1.98,1.02c-0.34,2.41,1.26,2.45,2.95,2.48
	c3.86,0.07,6.87,1.58,8.6,5.2c0.32,4.55-3.44,6.86-5.57,10.07c-0.81,1.22-2.51,1.66-2.89,3.28c-0.89,0.9-1.84,1.67-3.24,1.66
	C102.24,232.42,104.97,231.37,103.04,230.06z"/>
<path class="st30" d="M106.06,232.05c-1.73-1.43-0.32-2.09,0.66-2.96c3.16-2.81,5.78-6.03,7.32-10.03c2.94,1.56,1.07,3.88,0.96,5.93
	c-0.67,1.66-1.35,3.32-2.02,4.98C110.67,230.67,108.36,231.36,106.06,232.05z"/>
<path class="st31" d="M91.91,239.95c-0.48,2.81-3.59,4.15-3.93,7.03c-1.23,1.05-1.84,2.4-2.02,3.98c-1.17,0.05-2.33,0.1-3.09-1.06
	c0,0,0.01,0.04,0.01,0.04c1.79-2.38,2.34-5.25,3.08-8.03c0.47-1.95,0.93-3.89,1.4-5.84C89.4,236.75,90.27,238.81,91.91,239.95z"/>
<path class="st32" d="M115,224.99c-0.35-1.97,0.89-4.2-0.96-5.93c-3.24-4.49-8.23-5.12-13.12-5.45c-0.32-2.14,1.85-1.39,2.05-2.58
	c1.83,1.95,3.59,2.3,5.71,0.22c1.9-1.86,1.84,0.72,2.7,1.63c1.24-1.09,2.44-2.15,3.79-3.33c1.27,1.06,0.6,2.47,0.94,3.59
	c0.01,1.58,0.02,3.15,0.03,4.72c0.02,1.46,0.03,2.92,0.05,4.39C116.06,223.27,115.89,224.29,115,224.99z"/>
<path class="st33" d="M91.91,239.95c-3.16,0.63-3.62-1.91-4.56-3.89c0.25-0.64,0.5-1.28,0.75-1.92c1.02-2.99,2.04-5.98,3.06-8.97
	c0.39-0.39,0.78-0.4,1.19-0.04c1.51,2.04-0.18,4.82,1.58,6.8C93.79,234.75,93.09,237.41,91.91,239.95z"/>
<path class="st15" d="M85.96,241.91c-0.08,3.04,0.03,6.16-3.08,8.03C83.31,247.04,84.57,244.45,85.96,241.91z"/>
<path class="st1" d="M92.97,214.97c-1.16,0.71-0.84,1.93-1.02,2.98c-0.25,0.47-0.56,0.51-0.91,0.11c-0.08-1.92,0.32-4.04-2.02-5.06
	c0.17-1.44-1.45-2.6-0.7-4.15c1.93,0.25,0.91,3.96,3.72,3.12C94.19,212.4,93.76,213.63,92.97,214.97z"/>
<path class="st32" d="M91.03,218.06c0.3-0.04,0.61-0.07,0.91-0.11c0.05,1.05,0.11,2.09,0.16,3.14c1.04,1.31,1.01,2.58-0.18,3.79
	c-0.26,0.09-0.52,0.19-0.76,0.3C91.12,222.81,91.08,220.43,91.03,218.06z"/>
<path class="st32" d="M92.97,214.97c-0.01-1.1,0.2-2.26-0.93-3.01c-0.68-1.65-1.37-3.29-2.05-4.94c0.69-1.85-2.38-4.77,0.75-5.55
	c3.12-0.78,6.98-1.95,9.8,0.36c2.1,1.73,1.72-0.44,2.47-0.82c0.76-0.32,1.21,0.11,1.6,0.68c0.37,0.76,0.52,1.6,0.87,2.37
	c0.66,0.9,1.86,0.98,2.59,1.73c-0.16,1.42,1.2,1.56,1.95,2.23c-1.67,1.59-3.96,1.59-5.35,0.44c-2.74-2.26-2.78,0.34-3.68,1.55
	c-1.81,0.85-2.35,2.53-2.82,4.27c0.42,0.62,0.43,1.2-0.18,1.72c-1.29,2.85-0.77,5.93-1.1,8.89c-1.77-2.21-0.55-4.79-0.86-7.18
	C95.78,215.82,95.92,213.75,92.97,214.97z"/>
<path class="st34" d="M108.01,206.02c-1.38-0.16-2.98,0.52-3.99-1.04c0.26-0.98,2.6-1.92,0.05-2.94c-0.35-0.34-0.71-0.68-1.06-1.02
	c-0.88-0.75,0.57-3.61-2.68-2.39c-2.23,0.83-4.27-0.36-3.33-3.49c2.27-1.16,4.45-1.86,5.91,1.16c1.69,3.41,4.93,0.31,7.11,1.7
	c-1.22,1.98,0.42,3.39,0.99,5.01C110.77,204.77,110.36,206.35,108.01,206.02z"/>
<path class="st35" d="M87.01,185.11c0.99-0.43,1.97-0.86,2.96-1.29c0.68,0.06,1.36,0.13,2.03,0.19c0.46,3.31-0.83,4.29-3.89,2.93
	C87.74,186.33,87.38,185.72,87.01,185.11z"/>
<path class="st36" d="M108.01,206.02c1-1.01,2-2.02,2.99-3.03c1.49,0.54,2.98,1.08,4.44,1.61c0.37,1.39-1.2,1.48-1.44,2.4
	c-1.33,0.34-2.66,0.67-3.99,1.01C108.83,207.88,106.85,208.53,108.01,206.02z"/>
<path class="st37" d="M91.93,224.88c0.06-1.26,0.12-2.53,0.18-3.79c0.63-1.12,1.25-2.24,2.23-3.97c1.73,5.44-0.18,10.13-0.39,14.83
	C90.79,230.3,92.51,227.26,91.93,224.88z"/>
<path class="st38" d="M97.99,216c0.06-0.57,0.12-1.15,0.17-1.72c3.79,0.32,7.16,1.77,10.57,3.41c3,1.43,2.71,3.02,1.01,4.87
	c-2.1,2.29-4.49,4.31-6.75,6.44c0.02-0.16,0.05-0.33,0.04-0.49c-0.04-3,6.15-4.01,2.86-7.73C103.91,218.52,101.12,216.77,97.99,216z
	"/>
<path class="st39" d="M104.06,202.04c1.15-0.35,1.69-2.07,3.77-1.32c-1.5,1.4-1.35,3.81-3.82,4.26
	C104.03,204,104.05,203.02,104.06,202.04z"/>
</svg>
