<?xml version="1.0" encoding="utf-8"?>
<!-- Generator: Adobe Illustrator 26.1.0, SVG Export Plug-In . SVG Version: 6.00 Build 0)  -->
<svg version="1.1" id="Layer_1" xmlns="http://www.w3.org/2000/svg" xmlns:xlink="http://www.w3.org/1999/xlink" x="0px" y="0px"
	 viewBox="0 0 244 406" style="enable-background:new 0 0 244 406;" xml:space="preserve">
<style type="text/css">
	.st0{fill:#1A202B;}
	.st1{fill:#161B22;}
	.st2{fill:#161B21;}
	.st3{fill:#1D2329;}
	.st4{fill:#2D343D;}
	.st5{fill:#13171C;}
	.st6{fill:#1B2027;}
	.st7{fill:#131921;}
	.st8{fill:#13171E;}
	.st9{fill:#11141A;}
	.st10{fill:#14181F;}
	.st11{fill:#161A20;}
	.st12{fill:#1F242C;}
	.st13{fill:#2E343F;}
	.st14{fill:#1E252F;}
	.st15{fill:#22282F;}
	.st16{fill:#171D26;}
	.st17{fill:#20262C;}
	.st18{fill:#151A22;}
	.st19{fill:#0F131B;}
	.st20{fill:#1B1F2A;}
	.st21{fill:#1F232B;}
	.st22{fill:#242932;}
	.st23{fill:#2F3741;}
	.st24{fill:#1D2128;}
	.st25{fill:#AFB1BB;}
	.st26{fill:#2D3540;}
	.st27{fill:#343C48;}
	.st28{fill:#414856;}
	.st29{fill:#555E6E;}
	.st30{fill:#E2E1E3;}
	.st31{fill:#3A414D;}
	.st32{fill:#4B535F;}
	.st33{fill:#64666B;}
	.st34{fill:#383C45;}
	.st35{fill:#0A0C10;}
	.st36{fill:#0C1015;}
	.st37{fill:#040506;}
	.st38{fill:#010203;}
	.st39{fill:#434B63;}
	.st40{fill:#CCD1E5;}
	.st41{fill:#C4C7DE;}
	.st42{fill:#E0E4EC;}
	.st43{fill:#585C72;}
	.st44{fill:#9399B1;}
	.st45{fill:#919CB8;}
	.st46{fill:#96A0BD;}
	.st47{fill:#090B0D;}
	.st48{fill:#0E1116;}
</style>
<path class="st0" d="M0,200c4.2-2.97,4.14-8.79,8.01-11.99c2.71-1.15,3.42,1.32,2.69,2.42c-3.97,5.99-2.54,13.74-6.68,19.59
	C3.08,213.5,3.32,217.47,0,220C0,213.33,0,206.67,0,200z"/>
<path class="st1" d="M0,228c0.85,0.09,1.92,0.28,1.97,1.18c0.3,5.62,3.26,11.08,1.02,16.84c-3.67-1.2-1.22-5.01-2.98-7.02
	C0,235.33,0,231.67,0,228z"/>
<path class="st2" d="M0,346c1.76,0,3.53,0,7.11,0c-6.67,4.06-0.97,6.35-0.72,9.58c-2.86,0.85-4.11-2.3-6.39-2.58
	C0,350.67,0,348.33,0,346z"/>
<path class="st3" d="M0,312c3.24-0.07,7.03,0.83,7.11-4.77c2.46,3.71,1.72,6.05-1.73,6.66C3.64,314.2,1.8,313.98,0,314
	C0,313.33,0,312.67,0,312z"/>
<path class="st4" d="M0,239c2.07,1.88,1.22,5,2.98,7.02c-0.12,1.4,0.54,2.98-1,4.03C1.32,248.7,0.66,247.35,0,246
	C0,243.67,0,241.33,0,239z"/>
<path class="st5" d="M0,361c1.13,0.51,2.26,1.03,3.41,1.55C2.73,364.2,1.6,364.94,0,365C0,363.67,0,362.33,0,361z"/>
<path class="st6" d="M0,301c1.61,0.91,3.63,1.32,4.42,3.52C2.55,304.91,1.46,303.41,0,303C0,302.33,0,301.67,0,301z"/>
<path class="st7" d="M27.03,172.16c1.51,1.85,3.24,3.57,1.4,6.26c-0.79,1.15-0.64,2.63,0.34,3.72c1.44,1.6,1,2.9-0.45,4.45
	c-3.35-2.3-0.86-7.7-5.21-9.3c-1.58,0.16-2.36,1.43-3.12,2.72c-0.66,0.56-1.31,0.6-1.97-0.01c1.66-3.49,5.4-4.66,7.96-7.15
	C26.1,172.29,26.36,171.93,27.03,172.16z"/>
<path class="st8" d="M49.26,341.59c-5.78-1.97-6.23-4.73-2.01-9.31"/>
<path class="st9" d="M19.01,250.01c-0.09,1.13-0.17,2.27-0.25,3.25c-2.03,1-3.17-1.26-5.42-0.67c2.94,3.5,5.27,7.06,4.41,11.8
	c-0.2,1.12,0.19,2.32-0.99,3.04c-1.36,0.82-2.12-0.44-3.04-1.03c-4.24-2.71-5.58-7.19-3.76-12.42c1.41,1.11,1.07,3.09,1.82,3.94
	c-2.33-7.97-2.81-16.47-0.64-25.02c0.48-1.88-0.18-3.61,0.09-5.41c0.29-1.9,1.08-3.46,2.76-4.49c1.48-1.31,2.86-2.77,4.98-3.02
	c0.19,0.15,0.37,0.3,0.56,0.44c1.38,2.55,2.45,5.16,1.47,8.14c-0.69,4.19-3.95,7.69-3.29,12.25c-0.34,1.89-0.95,3.72-1.25,5.62
	C16.16,248.43,16.53,249.97,19.01,250.01z"/>
<path class="st9" d="M30.02,248.96c-0.01,0.35-0.02,0.7-0.02,1.05c-3.37-2.05-2.46-5.96-3.69-8.93c-1.38-3.3-2.08-6.96-3.06-10.47
	c-1.67-3.43-1.43-7.61-4.23-10.59c0,0-0.04-0.02-0.04-0.02c-1.39-1.65-3-2.26-4.97-0.99c-1.35,0.23-2.7,0.75-4.03-0.05
	c0.01-0.33,0.01-0.66,0.02-0.99c-0.27-2.75,2.15-2.81,3.71-3.73c1.11-0.46,2.22-0.94,3.47-0.75c2.53,2.72,5.05,2.29,7.58-0.06
	c0.54-2.24-2.63-4.23-0.64-6.47c1.05-1.17,2.42-0.75,3.41,0.49c0.69,3.2,2.48,4.46,5.69,3.2c0.47,0.03,0.86,0.23,1.16,0.6
	c0.56,1.94,0.47,4.03,1.37,5.9c0.13,0.46,0.2,0.92,0.22,1.39c-0.61,4.32-2.37,2.23-4.04,0.73c-0.68-0.63-0.26-1.78-1.12-2.44
	c0.23,1.23,0.53,2.33,1.55,3.05c1.01,2.35-1.63,4.53-0.32,6.91c-0.02,0.47-0.12,0.92-0.26,1.37c-0.19,0.43-0.48,0.78-0.87,1.06
	c-2.82-0.75-2.49-4.21-4.7-5.49c-0.9-0.87-0.76-2.07-1.21-3.08c1.7,3.35,1.51,7.47,4.46,10.31c0.47,0.82,0.64,1.72,0.76,2.64
	c0.3,3.11,0.53,6.23,1.4,9.26C31.5,244.99,32.32,247.39,30.02,248.96z"/>
<path class="st10" d="M17,214c-0.99,0.34-1.98,0.68-2.97,1.01c-0.76,0.4,0.24-2.66-1.33-0.68c-0.75,0.94-1.55,1.7-2.75,0.59
	c-1.95-3.31,0.42-6.69-0.08-10.19c-4.43-0.85-2.09,5.65-5.86,5.27c3.02-5.91-0.08-13.57,5.52-18.84c1.11-1.04,0.62-2.88-1.53-3.17
	c0.63-1.37,1.63-2.37,3-2.99c2.8,2.85,2.96,6.82,4.67,10.34c-2.04,1.45-4.76,2.35-3.62,5.53c-0.13,1.06,0.01,2.2-0.62,2.81
	c0.94-1.87,1.08-4.53,3.07-6.23c4.3-1.73,5.92-0.89,4.45,2.9C17.21,204.91,18.98,209.68,17,214z"/>
<path class="st11" d="M24.06,229.98c3.29,6.28,2.76,13.7,5.93,20.02c-0.2,2.77,0.22,5.51,1.39,9.46c-4.49-3.55-3.03-7.53-3.89-10.72
	c-1.89-6.97-1.85-7.09-7.49-2.75c-2.33-0.09-2.21-1.99-1.64-3.11c0.99-1.99-1.09-1.18-1.37-1.91c-2.35-5.11,2.86-8.47,3.02-12.99
	C22.63,226.06,21.91,230.95,24.06,229.98z"/>
<path class="st6" d="M14,223c-1.58,2.98-0.1,7.21-1.13,9.02c-2.79,4.89-1.39,9.67-1.84,14.44c-0.4,4.19,0.48,8.22,2.22,12.06
	c0.54,1.21,1.18,2.39,0.08,4c-2.35-2.47-2.96-5.46-3.36-8.54c-1.92-4.28-0.68-8.79-0.94-13.19c-0.2-3.45,0.55-7.06-0.19-10.36
	C7.75,225.6,9.8,223.76,14,223z"/>
<path class="st12" d="M16.99,240.98c0.8-0.11,1.61-0.21,2.51-0.33c0.5,1.76-1.7,3.8,0.5,5.35c-1.21,1.12,0.65,3-1,4.01
	c-2.42,2.2-3.83,1.6-3.95-1.59C14.95,245.79,15.64,243.28,16.99,240.98z"/>
<path class="st13" d="M30.02,248.96c0.32-1.98,0.64-3.97,0.96-5.95c-0.27-1.27,0.41-1.15,1.23-0.83c2.35,2.2,1.38,5.17,1.82,7.82
	c0,0,0.1-0.04,0.1-0.04c-0.21,1.19-0.42,2.37-0.67,3.84C31.33,252.46,31.84,249.89,30.02,248.96z"/>
<path class="st14" d="M9.96,214.93c2.87,0.02,1.8-3.78,4.72-4.31c-0.22,1.5-0.43,2.94-0.63,4.39c-1.04,1.41-3.47,0.9-4.04,2.95
	C6.73,216.99,8.6,215.96,9.96,214.93z"/>
<path class="st15" d="M9.98,218.95c1.35-0.85,2.7-0.86,4.03,0.05c-1.55,2.09-3.37,3.58-6.23,2.91
	C7.46,219.94,9.73,220.25,9.98,218.95z"/>
<path class="st14" d="M17,214c-1.98-5.68,0.13-11.07,1.65-16.21c-1.72-1.23-2.59-0.11-3.61,0.23c-2.1-0.02-1.68,3.29-3.98,3.01
	c-0.22-1.43-0.45-2.86-0.65-4.13c0.87-2.14,3.05-0.64,4.49-1.9c-2.41-2.91-3.02-6.49-3.88-9.98c4.27,1.04,5.36-2.36,7-5.01
	c0.66,0,1.31,0.01,1.97,0.01c0.01,0.33,0.02,0.65,0.03,0.98c1.1,2.88,0.49,5.6-0.8,8.06c0.38,1.85,2.38,1.84,3,3.2
	c0.28,1.51-1.09,2.8-0.63,4.35c0.53-0.05,0.78-0.48,1.16-0.74c1.46-1.03,2.82,1.04,4.27,0.11c0.03-0.82,0.2-1.56,1.01-1.98
	c0.57-0.85,1.25-1.61,2.33-0.86c1.01,0.7,1.55,1.64,0.65,2.85c-0.32,0.34-0.63,0.67-0.95,1.01c-3.03,4.07-0.05,8.75-0.66,12.94
	c-2.17,0.21-1.59-1.45-2.38-1.92c-1.12-1.11-3.3-0.78-2.46,0.35c5.19,6.97-0.39,7.5-4.75,8.85C17.82,216.98,18.33,214.72,17,214z"/>
<path class="st16" d="M31.08,205.02c-1.13-1.01-1.13-1.01,0.91-5.03c3.54-4.85,5.52-9.98,3.02-15.98c-0.31-0.73-0.07-2.01-0.54-2.31
	c-4.09-2.6-1.72-5.4-0.26-8.03c2.03-3.67,6.97-5.36,9.22-4.13c4.08,2.23,5.8-1.1,8.58-1.54c-1.3,2.89-3.48,5.48-3.03,8.97
	c-9.41,0.61-12.18,6.06-7.52,14.77c0.65,0.39,1.21,0.24,1.78-0.22c2.65-2.13,4.11-1.63,4.35,1.91c0.07,0.97,0.81,1.77,1.38,2.58
	c0.01,0.99,0.02,1.99,0.02,2.98c-1.19,0.41-2.39,0.82-3.53,1.22c-1.18-1.15,0.34-2.59-0.5-3.78c-2.59,1.28-1.31,4.2-2.43,5.79
	c-2.03,1.45-1.05-4.28-3.58-1.15c-1.91,0.68-3.2,2.27-4.85,3.35C33.16,204.92,32.35,206.1,31.08,205.02z"/>
<path class="st17" d="M44.93,204.05c1.6-1.04,1.86-3.68,4.43-3.67c1.71,2.82-2.19,2.81-2.33,4.64c-0.02,0.32-0.04,0.64-0.07,0.97
	c-0.62-0.32-1.24-0.64-1.86-0.96c-0.27-0.18-0.38-0.38-0.34-0.61C44.79,204.17,44.85,204.05,44.93,204.05z"/>
<path class="st10" d="M26.99,195.98c-1.32,1.87-2.62,0.56-3.92-0.02c-1.11-0.74-1.17-1.85-1.04-3.02c-3.01-1.61-8.47-2.29-2.36-7.14
	c0.85-0.67,0.26-3.16,0.33-4.81C21.13,186.55,23.08,191.73,26.99,195.98z"/>
<path class="st18" d="M30.98,195.98C30.87,194,30.15,192.92,28,194c0.12-1.55-0.47-3.37,1.6-4.19c0.66-0.26,1.4-0.34,1.72,0.33
	C32.27,192.12,32.64,194.13,30.98,195.98z"/>
<path class="st19" d="M49.38,356.69c-3.89-1.34-3.28-4.26-0.41-6.7"/>
<path class="st20" d="M48.98,349.98"/>
<path class="st21" d="M32,242c-0.34,0.34-0.68,0.67-1.02,1.01c-2.04-2.7-1.33-6-1.96-9.01c0.89-1.44,1.95-1.64,3.18-0.41
	c0.63,0.65,0.2,1.68,0.83,2.34c0.49,1.19,1.43,2.27,0.93,3.71c0.03,0.18,0.06,0.37,0.09,0.55c-0.41,0.63-0.95,1.13-1.54,1.59
	C32.34,241.86,32.17,241.93,32,242z"/>
<path class="st22" d="M24.06,229.98c-0.64,1.14-1.79,1.22-2.33,1.47c-2.88-0.54,1.66-3.36-1.72-3.47c1.38-2.87-1.48-5.22-0.99-7.98
	c2.24-1.12,2.42,0.8,2.82,2.05C22.67,224.67,23.33,227.34,24.06,229.98z"/>
<path class="st23" d="M29,230.98c-1.7-0.1-2.92-0.93-2.92-2.67c-0.01-3.67-2.65-6.83-2.21-10.88c3.38,0.84,1.11,4.39,3.16,5.55
	C28.5,225.45,29.85,227.95,29,230.98z"/>
<path class="st24" d="M29,230.98c-0.66-2.67-1.31-5.33-1.97-8c2.66,1.13,2.21,4.3,3.95,6.03c1.06,0.78,0.31,2.15,0.98,3.05
	c-0.01,0.64-0.02,1.28-0.03,1.92c-0.97-0.65-1.94-0.59-2.91,0.01C29.01,232.99,29.01,231.99,29,230.98z"/>
<path class="st25" d="M32.07,219c-0.13,0.26-0.18,0.53-0.14,0.81c-2.17-1.12-3.5-2.69-2.93-5.72C32.98,214.1,32.71,216.42,32.07,219
	z"/>
<path class="st26" d="M11.06,201.03c1.45-0.84,0.82-4.43,3.98-3.01c-0.97,2.06-1.94,4.12-3.1,6.58
	C10.61,203.48,11.17,202.15,11.06,201.03z"/>
<path class="st21" d="M34.03,249.99c-1.53-2.45-1.49-5.29-2.03-7.99c0,0,0.01,0,0.01,0c1.18-0.41,1.75,2.02,3.13,0.67
	c0,0-0.04,0.17-0.04,0.17C34.75,245.22,35.54,247.78,34.03,249.99z"/>
<path class="st27" d="M22.03,192.95c1.09,0.75,0.95,1.92,1.04,3.02c-0.13,1.59-0.97,2.67-2.98,3.82
	C20.79,197.09,18.8,194.45,22.03,192.95z"/>
<path class="st28" d="M34.04,210.96c-0.52-0.57-1.04-1.15-1.78-1.95c3.03-1.07,5.76-2.05,9.06-3.21c-0.6,4.99-5.14,3.38-7.29,5.14
	C34.04,210.93,34.04,210.96,34.04,210.96z"/>
<path class="st29" d="M33.84,203.9c1.69-0.97,1.62-5.13,5.12-2.82c0.36,3.82-3,3.14-4.98,4.13
	C33.54,204.81,33.49,204.38,33.84,203.9z"/>
<path class="st30" d="M49.18,215.66c-3.09,1.22-3.35-0.77-3.71-2.52c-0.23-1.12,0.73-1.47,1.47-1.41
	C49.3,211.92,48.83,213.91,49.18,215.66z"/>
<path class="st31" d="M33.84,203.9c0.05,0.43,0.1,0.87,0.14,1.3c-0.91,0.81-1.81,1.65-3.18,1.47c0.09-0.55,0.19-1.1,0.28-1.65
	C32,204.65,32.92,204.27,33.84,203.9z"/>
<path class="st32" d="M44.93,204.05c0.07,0.32,0.12,0.65,0.16,0.98c-0.34,0.49-0.68,0.99-1.01,1.48c-0.33-0.27-0.91-0.51-0.95-0.82
	C42.96,204.4,43.89,204.13,44.93,204.05z"/>
<path class="st33" d="M35.99,234.14c-0.69-0.41-2.26,0.67-2.07-1.23c0.88,0.19,1.55-1.29,2.41-0.39
	C36.55,232.74,36.12,233.58,35.99,234.14z"/>
<path class="st34" d="M35.13,242.67c-1.42,1.55-2.19,0.04-3.13-0.67c0.03-1.29,0.67-1.98,1.98-2
	C34.37,240.88,34.75,241.77,35.13,242.67z"/>
<path class="st35" d="M0,185c6.61-2.81,13.16-5.69,19.27-9.55c1.98-1.25,4.1-2.7,6.7-2.59c0.46,2.5-1.94,2.65-3.15,3.73
	c-1.48,1.31-2.89,2.64-3.92,4.34c-1.53,2.7-2.89,5.62-6.75,5.4c-1.74,0.15-2.6,1.42-3.46,2.71c-1.81,2.37-3.4,4.85-4.56,7.62
	C3.4,198.43,2.63,200.44,0,200C0,195,0,190,0,185z"/>
<path class="st36" d="M48.98,196.02c-2.3-0.76-1.61-3.39-2.61-4.69c-3.06-0.51-1.77,2.5-3.41,3.33c-6.07-2.34-4.2-8.09-4.63-12.44
	c-0.41-4.1,3.73-5.15,6.75-6.65c1.87-0.93,2.55,1.09,3.9,1.41C47.23,183.32,47.65,189.67,48.98,196.02z"/>
<path class="st37" d="M33.03,235.93c-0.89-0.35-1-1.14-1.1-1.94c-0.42-0.59-0.62-1.25-0.54-1.98c0.26-0.71,0.64-1.24,1.53-0.99
	c0.34,0.63,0.67,1.26,1.01,1.89c0.24,1.17,1.88-0.02,2.07,1.23c-0.08,0.4-0.15,0.79-0.24,1.19
	C34.93,235.93,33.62,234.33,33.03,235.93z"/>
<path class="st38" d="M31.96,232.07c-1.13-0.76-0.92-1.95-0.98-3.05c0.01-0.37,0.02-0.74,0.03-1.12c0.63,1.04,1.27,2.08,1.9,3.12
	C32.6,231.37,32.28,231.72,31.96,232.07z"/>
<path class="st39" d="M75.52,281.35c3.68-5.04,5.33-11.17,8.44-16.49c2.8,0.69,1.31,2.88,2.03,4.13c-3.81,4.64-6,10.25-9.02,15.36"
	/>
<path class="st40" d="M74.08,240.01c0.37-1.25,0.74-2.5,1.11-3.75c3.96,2.67,2.4,7.01,3.23,10.63c-0.57,9.45-3.92,17.81-9.93,25.41
	c-1.6-1.85-0.94-3.73-0.58-5.58c0.07-0.57,0.14-1.15,0.2-1.72c0.31-0.37,0.56-0.78,0.74-1.23c0.92-5.23,0.27-10.78,4.74-15.12
	C75.89,246.42,73.88,242.93,74.08,240.01z"/>
<path class="st41" d="M67.9,266.73c0.1,1.43,0.21,2.85,0.3,4.14c4.91-7.3,8.54-15.09,8.89-24.07c3.19,1.45,2.02,4.17,1.94,6.58
	c-1.65,6.03-3.97,11.84-6.05,17.73c-2.54,4.97-2.84,11.02-7.19,15.13c-1.53-0.34-1.38-1.32-0.92-2.41
	C65.89,278.13,66.9,272.43,67.9,266.73z"/>
<path class="st42" d="M74.08,240.01c2.69,4.69,3.02,8.65-2.01,12.46c-2.19,1.66-1.38,5.52-2.02,8.36c-0.32,1.4,0.38,3.03-1.03,4.17
	c-0.84-2.08-0.64-4.18-0.14-6.29c0.07-0.9,0.14-1.8,0.21-2.7c0.98-1.66-0.05-3.62,0.78-5.31c0.04-0.58,0.08-1.15,0.12-1.73
	C72.19,246.36,72.38,242.85,74.08,240.01z"/>
<path class="st43" d="M65.94,285.92c1.99-5.03,3.98-10.05,5.97-15.08c0.99,0.49,1.45,1.36,1.73,2.37"/>
<path class="st44" d="M64.88,283.83c0.35,0.7,0.7,1.39,1.05,2.09"/>
<path class="st41" d="M68.87,258.7c0.05,2.1,0.09,4.2,0.14,6.29c-0.3,0-0.61,0.01-0.91,0.01C68.08,262.87,67.98,260.73,68.87,258.7z
	"/>
<path class="st40" d="M69.87,250.69c0.02,1.81,0.76,3.73-0.78,5.31C69.03,254.18,68.71,252.33,69.87,250.69z"/>
<path class="st45" d="M73.66,278.13c1.23-1.6,1.61-4.1,4.34-4.13c-0.64,2.7-1.29,5.41-1.93,8.11"/>
<path class="st46" d="M77.99,273.99c0.18-3.51,1.55-6.49,3.99-9C81.78,268.49,80.12,271.34,77.99,273.99z"/>
<path class="st47" d="M55,243c0.39-3.26,1-6.43,3.58-8.74c5.36,1.11,5.22,9.57,12.05,8.04c-0.25,1.85-0.44,3.28-0.64,4.7
	c-4.45,4.95-2.7,11.37-3.84,17.08c-0.93,4.69-1.26,8.31-6.98,10.38c-4.62,1.67-6.68,7.44-9.28,11.82c-1.18,1.98-2.14,4.09-3.22,6.13
	c-0.61,1.15-1.61,1.61-2.9,1.5c-1.24-0.11-1.59-0.94-1.8-2c-0.45-2.24-1.11-4.33-0.63-6.81c1.16-5.98,1.8-12.05,2.64-18.09
	c2.41-1.72,1.59-5.28,4-7c7.09,2.66,12.28-1.06,13.08-10.08c0.27-3.02,1.16-6.55-0.95-9.34C57.46,239.81,57.37,243.63,55,243z"/>
<path class="st48" d="M55,243c2.09-1.14,1.67-5.75,4.91-4.57c2.77,1.01,2.04,4.3,2.51,7.01c1.03,5.88-2.18,9.8-4.36,14.21
	C55.8,264.2,51.56,264.19,48,260c1.33-3.33,2.67-6.66,4-10C53.72,247.98,53.79,245.24,55,243L55,243z"/>
</svg>
