<?xml version="1.0" encoding="utf-8"?>
<!-- Generator: Adobe Illustrator 26.1.0, SVG Export Plug-In . SVG Version: 6.00 Build 0)  -->
<svg version="1.1" id="Layer_1" xmlns="http://www.w3.org/2000/svg" xmlns:xlink="http://www.w3.org/1999/xlink" x="0px" y="0px"
	 viewBox="0 0 244 406" style="enable-background:new 0 0 244 406;" xml:space="preserve">
<style type="text/css">
	.st0{fill:#AD887E;}
	.st1{fill:#947167;}
	.st2{fill:#89655A;}
	.st3{fill:#A57E74;}
	.st4{fill:#8E7170;}
	.st5{fill:#89696A;}
	.st6{fill:#997C7E;}
	.st7{fill:#3D2C28;}
	.st8{fill:#3D2E2C;}
	.st9{fill:#40322F;}
	.st10{fill:#593C34;}
	.st11{fill:#45322D;}
	.st12{fill:#43312C;}
	.st13{fill:#40322E;}
	.st14{fill:#442F2A;}
	.st15{fill:#3D2C29;}
	.st16{fill:#503C35;}
	.st17{fill:#4A3730;}
	.st18{fill:#4C3532;}
	.st19{fill:#3F2B27;}
	.st20{fill:#573B33;}
	.st21{fill:#422B26;}
	.st22{fill:#462C26;}
	.st23{fill:#715046;}
	.st24{fill:#2D201D;}
	.st25{fill:#0B0A0A;}
	.st26{fill:#1C1615;}
	.st27{fill:#372925;}
	.st28{fill:#160F0E;}
	.st29{fill:#1C1514;}
	.st30{fill:#2A1E1B;}
	.st31{fill:#322522;}
	.st32{fill:#1D1717;}
	.st33{fill:#332520;}
	.st34{fill:#0D0B0B;}
</style>
<path class="st0" d="M114.03,192.93c-2.98,0.15-6.01,1.72-8.92-0.29c-1.59-1.85-3.42-0.13-4.96-0.01c-2.74,0.22-2.09-1.25-2.12-2.65
	c0.44-1.76,0.81-3.54,2.12-4.92c2.16-4.01,5.92-6.89,7.86-11.07c1.84-1.43,3.92-2.42,6.19-2.84c2.53-0.46,4.81,1.01,4.55,3.25
	C118.01,180.75,117.66,187.29,114.03,192.93z"/>
<path class="st1" d="M122.99,191c-0.64-0.05-1.28-0.1-2.27-0.18c2.62-3.85,2.56-8.4,4.92-12.27c1.46-2.39,0.83-5.93-2.64-7.56
	c-4.57-3.73-8.7-3.72-14.8,0.27c-2.35,1.54-4.57,2.76-7.2,0.72c4.82-3.3,10.71-4.83,15.04-8.97c9.18-1.06,15.28,6.11,12.49,14.71
	c-1.12,3.43-1.69,7.06-3.53,10.24c0.11,0.87-2.16,0.82-0.83,2.15C123.76,190.42,123.38,190.71,122.99,191z"/>
<path class="st2" d="M124.99,187.98c0.02-3.04,1.25-5.81,2.39-8.47c3.74-8.7-0.24-11.83-7.59-15.41c-1.15-0.56-2.5-0.73-3.76-1.08
	c2.73-2.8,5.83-2.54,9.01-0.98c4.11,2.01,7.05,4.8,5.96,9.95C128.36,177.09,129.51,183.6,124.99,187.98z"/>
<path class="st3" d="M122.99,191c-0.05,0.19-0.07,0.39-0.06,0.59c-2.55,1.64-5.13,3.16-8.36,2.06c-1.55-3.01,0.38-5.68,1.07-8.38
	c0.7-2.75,1.21-5.52,1.47-8.31c0.36-3.79-0.96-4.73-4.76-3.81c-1.52,0.37-2.91,1.84-4.66,0.64c0.96-3.97,6.45-6.68,11.23-5.54
	c1.45,0.34,2.74,1.09,4.13,1.59c4.52,3.31,5.15,5.92,2.94,11.03C124.58,184.11,122.81,187.28,122.99,191z"/>
<path class="st4" d="M164.96,178.69c-0.65,0.1-1.31,0.2-1.96,0.29c-0.35-0.3-0.69-0.6-1.04-0.9c-0.3-1.28-1.36-2-2.16-2.91
	c-0.24-0.37-0.37-0.77-0.42-1.21c-0.29-3.18,1.57-4.95,4.12-6.26c2.01,0.51,2.49,1.97,2.38,3.8
	C164.02,173.69,164.93,176.25,164.96,178.69z"/>
<path class="st5" d="M179.77,171.07c0.11,0.89,0.15,1.82,1.27,2.1c-2.02,0.92-4.04,1.84-6.06,2.76c-2.73-0.71-6.47,1.01-7.77-3.2
	c-0.1-1.76,0.47-3.35,1.27-4.89c2.94-3.46,6.12-0.75,9.21-0.37c1.4,0.66,0.9,2.12,1.35,3.17
	C179.43,170.53,179.67,170.67,179.77,171.07z"/>
<path class="st6" d="M168,173c1.6,2.69,5.26,0.51,6.97,2.94c-2.08,0.98-4.16,1.96-6.24,2.94c-1.25-0.06-2.51-0.12-3.76-0.18
	c-0.91-1.55-1.82-3.09-2.81-4.77c1.03-0.7,1.94-1.32,2.85-1.93C166.36,171.26,167.15,172.21,168,173z"/>
<path class="st7" d="M87.02,14.04c-1.01,0.32-2.01,0.64-3.02,0.96c-2.12,0.06-4.02-0.1-3.04-3.09c5.62-0.31,8.48-6.74,14.27-6.52
	c5.53,0.21,10.91-3.7,16.58-0.44c1.96,1.13,4.14,1.84,5.3,3.97c-2.44,3.58-6.72,1.77-9.84,3.37c-4.55,0.32-9.11-0.03-13.65,0.13
	c-1.71-0.12-2.53,1.37-3.78,2.09C88.81,14.92,87.87,14.77,87.02,14.04z"/>
<path class="st8" d="M60.02,126.96c1.02,2.62,1.87,5.33,3.12,7.84c1.5,3.01,0.73,4.97-2.19,6.31c-1.23-4.97-2.38-9.95-1.76-15.13
	C59.46,126.31,59.74,126.64,60.02,126.96z"/>
<path class="st9" d="M73.02,13.14c0.15,4.75-3.06,4.07-6.05,3.75C68.63,15.07,70.38,13.39,73.02,13.14z"/>
<path class="st10" d="M88,37.02c2.95-0.82,6.15-0.55,8.93-2.09c0.15,0.19,0.3,0.37,0.44,0.56c0.1,0.47,0.04,0.93-0.14,1.37
	c-0.59,0.86-1.54,1.21-2.4,1.7c-7.6,4.27-7.69,4.6-3.47,12.04c0.11,0.46,0.1,0.91-0.01,1.36c-0.94,2.16-3.68,1.87-4.92,3.62
	c-0.55,0.25-1.18,0.18-1.71,0.41c1,0.29,0.95,1.1,0.93,1.91c-0.41,1.48-1.43,1.44-2.59,1.07c-2.88-2.46-1.84-5.81-2.01-8.89
	c1.13-2.15,2.96-0.93,5.07-0.66c-1.64-2.81-1.97-5.48-1.89-8.52C85.23,39.56,88.71,40.19,88,37.02z"/>
<path class="st11" d="M160,101c-0.03,0.23-0.09,0.44-0.18,0.66c-0.83,1.37-2.31,1.09-3.46,1.09c-2.48,0.01-3.06,1.34-2.97,3.41
	c-0.7,2.49-1.06,5.07-2.23,7.41c-1.74,2.48-2.81,5.17-2.67,8.26c-1.35,1.43-1.08,3.31-1.5,5.01c-0.27,1.09-0.37,2.9-2.41,1.69
	c-1.23-1.9-0.76-4.09-1.1-6.14c-0.66-1.99-0.2-3.86,0.36-5.81c2.68-9.26,3.85-18.73,3.78-28.37c-0.02-2.75-0.49-5.27-2.83-7.07
	c-2.61-2.01-1.76-5.16-2.54-7.77c-0.23-0.48-0.38-0.98-0.47-1.5c2.08-2.04,3.23-1.41,3.8,1.67c0.49-5.13,6.15-0.93,7.36-4.63
	c-0.11-0.84,0.22-1.18,1.06-0.95c1.94,2.4-0.7,3.21-1.74,4.14c-2.13,1.91-3.92,3.81-3.82,6.86c3.49-0.82,6.29-0.47,6.56,4.02
	c-0.37,0.51-1.09,0.68-1.3,1.35c5.04-0.41,2.56,2.59,2.08,4.64c-0.3,1.27-0.64,2.53-0.44,3.88c3.09-2.71,0.29-6.99,2.68-9.86
	c0.61-0.54,1.21-1.08,2.29-2.03c0.23,3.03-0.43,5.94,1.49,8.32c2.2-1.41,0.44-4.17,2.93-7.05c0,4.32,0.03,7.33-0.01,10.33
	c-0.02,1.65-0.82,2.15-2.55,2.05c-2.89-0.16-5.53,0.58-7.52,4.32C157.5,98.37,159.57,98.26,160,101z"/>
<path class="st12" d="M163.75,71.17c-0.9-5.16,1.73-7.79,4.59-10.33C169.08,64.88,168.15,68.23,163.75,71.17z"/>
<path class="st13" d="M167,73c-0.01,1.33-0.01,2.66-0.02,3.98c-1.71,0.96-0.14,4.42-3.7,4.2C164.59,78.44,163.12,74.66,167,73z"/>
<path class="st14" d="M135.98,17.01c1.34-3.06,2.67-0.44,4.01,0c3.64,2.5,1.24,6.75,2.84,9.95c1.06,2.11,1.14,4.79,1.3,7.24
	c0.16,2.45,3.89,6.34-2.3,6.64c-0.7,4.17-3.78,7.53-4.36,11.61c-0.45,3.18,2.64,0.66,4.18,1.55c-0.33,1.78,0.76,3.86-1.63,5.05
	c-5.96,0.86-7.8,4.96-8.08,10.29c-0.72,0.31-1.42,0.27-2.1-0.12c-0.53-0.56-0.79-1.24-0.93-1.99c-0.35-4.25-0.04-8.51-0.51-12.77
	c-0.38-3.46,0.84-6.48,3.87-8.49c2.2-1.45,3.5-3.38,3.7-6.03c0.48-2.16,0.95-4.33,1.45-6.61c2.49,1.03-0.73,3.4,2.11,4.23
	c0.41-4.91,3.03-9.56,0.46-14.55C137.37,21.87,136.56,19.52,135.98,17.01z"/>
<path class="st15" d="M160,48c-1.95,6.83-6.69,12.33-9.02,18.98c-2.66-2-2.3-5.52-4.02-8c2.26-0.66,1.64-4.12,5.49-4.38
	c-1.98-0.05-2.77,0.04-3.4-0.56c0.52-2.24,2.78-3.63,2.94-6.04c2.47-0.15,2.49,2.27,3.68,3.43c3.36-6.85,3.39-8.17,0.34-13.44
	c0,0,0-0.01,0-0.01c0.58-1.07,1.63-2.35,2.42-0.82c1.01,1.95,4.71,2.13,3.54,5.4C161.32,44.38,160.66,46.19,160,48z"/>
<path class="st15" d="M149.99,28.01c1.23,4.18,3.02,8.13,5.01,11.99c1.18,2.58,1.58,5.17,0.27,7.82c-1.78,0.55-2.86-0.28-3.82-1.42
	c-1-1.76-0.5-3.81-1.08-5.66c-0.31-0.9-0.33-1.83-0.35-2.76c-0.15-0.3-0.28-0.6-0.44-0.89c-1.73-3.23-5.47-6.05-1.58-10.23
	C148.37,27.07,149.18,27.54,149.99,28.01z"/>
<path class="st16" d="M149.05,54.04c1.66,0.16,3.07-0.57,4.4-1.61c0.27,0.39,0.54,0.78,0.81,1.17c-2.43,1.79-4.86,3.59-7.29,5.38
	C147.66,57.33,148.35,55.69,149.05,54.04z"/>
<path class="st17" d="M64.07,52.07c3.16-1.33,3.12,0.68,2.46,2.63c-0.86,2.52-2.6,4.29-5.55,4.3
	C62.58,56.94,63.52,54.59,64.07,52.07z"/>
<path class="st18" d="M86.03,178.99c2.27-2.01-0.07-3.99-0.05-5.98c-0.84-2.87-1.01-5.87-1.89-8.75c-1.37-4.5,0-5.82,4.71-4.6
	c3.68,0.96,7.05,2.98,10.91,3.37c1.59,0.16,3.22,1.01,5.09-0.49c-2.8-2.5-6.14-1.95-9.25-2.2c-3.35-0.27-3.35-0.25-4.22-2.81
	c4.84-1.95,9.99-0.15,14.9-1.23c1.71-0.6,3.59-0.42,5.27-1.13c4.25-1.88,8.63-3.43,12.99-5.02c5.05-1.84,8.94-4.95,11.72-9.51
	c1.01-1.71,1.73-3.58,2.86-5.2c0.99-1.41,1.88-3.29,4.24-2.34c0.66,0.89,0.75,1.88,0.57,2.93c-2.69,4.74-5.03,9.71-9.61,13.86
	c6.89,6.45,4.68,13.9,2.55,21.36c-1.29,4.5-1.46,9.19-2.18,13.78c-0.08,0.51-0.29,0.96-0.59,1.38c-1.59,1.39-3.49,1.99-5.54,2.18
	c-2.98-0.73-1.18-2.33-0.72-3.76c2.59-8.02,5.85-15.91,4.86-24.65c-0.5-4.4-1.63-5.26-6.1-4.42c-6.72,3.33-12.4,8.42-19.36,11.36
	c-7.79,1.63-12.87,6.87-17.18,13.03c-1.12,1.6-1.56,3.64-3.04,5.06c-0.72,0.38-1.43,0.39-2.15-0.01c-0.73-0.86-0.79-1.86-0.62-2.91
	C84.54,181.02,84.9,179.79,86.03,178.99z"/>
<path class="st19" d="M125,40.03c2.36-3.68,3.89-7.36,0.02-11.05c0.39-2.24-4.47-3.34-1.35-6.18c4.43,2.87,5.9,4.86,7.86,10.86
	c0.77-5.99-3.45-8.14-7.35-10.52c-1.05-0.79-1.69-1.72-1.12-3.09c0.31-0.35,0.62-0.7,0.93-1.05c5.42-0.24,6.47,4.98,9.2,7.82
	c3.82,3.97,2.51,8.8-0.16,13.18c-1.48,1.67-1.7,4.45-4.63,5.16C126.82,43.79,127.19,40.98,125,40.03z"/>
<path class="st20" d="M125,40.03c2.07,0.65,3.74,1.67,3.18,4.65c2.27-1.5,2.67-4.02,4.85-4.68c-0.2,1.4-0.39,2.8-0.6,4.25
	c2.67-0.35,2.01-3.19,3.54-4.3c1,1.76,0.17,3.49-0.98,4.41c-5.23,4.17-6.01,9.54-5.04,15.68c0.36,2.27,0.03,4.64,0.01,6.97
	c-1.36,0.19-1.62-0.83-1.97-1.76c-1.02-6.37-1.98-12.74-3.79-18.96c-0.7-2.4-2.62-3.71-3.97-5.53c-0.41-0.67-0.66-1.35-0.08-2.06
	c1.78-1.03,2.9,0.03,3.98,1.25C124.42,39.94,124.71,39.97,125,40.03z"/>
<path class="st21" d="M77.02,59.99c-0.25,1.71,0.59,3.63-2.03,6.16c0-3.02,0-5.09,0-7.16c0.2-0.69,0.13-1.83,1.25-1.45
	C77.3,57.91,76.89,59.12,77.02,59.99z"/>
<path class="st10" d="M97.1,34.06c0.3-0.01,0.6-0.05,0.89-0.11c4.76-3.43,9.82-1.35,14.77-0.71c0.88,0.11,1.86,0.88,0.96,2.14
	c-5.55,1.47-11.08,1.82-16.58-0.23c0,0-0.22-0.22-0.22-0.22C97,34.64,97.06,34.35,97.1,34.06z"/>
<path class="st11" d="M142.93,132.86c0.29-1.5,0.78-2.88,1.99-3.91c0.69,2.48-1.12,4.62-0.94,7.02c-0.32,0.01-0.65,0.02-0.97,0.02
	C142.98,134.95,142.95,133.9,142.93,132.86z"/>
<path class="st22" d="M116.07,35.93c-0.07-0.26-0.13-0.53-0.18-0.79c4.49-1.4,6.81,0.92,8.23,4.79c-1.38-0.31-2.76-0.62-4.14-0.93
	C117.78,39.14,116.92,37.54,116.07,35.93z"/>
<path class="st23" d="M131,172c1.92-4.41,1.62-8.47-1.66-12.22c-1.28-1.46-2.24-3.2-3.35-4.82c4.58-2.87,7.68-1.19,8.01,4.3
	c0.6,9.94-1.74,19.19-6.32,27.96c-0.04,0.08,0.63,0.53,0.97,0.81c0.18,0.03,0.36,0.06,0.54,0.09c-0.08,0.16-0.16,0.33-0.25,0.49
	c-1.6,0.51-3.2,1.01-4.8,1.52c-3.02-1.09,0.02-2,0.08-3c2.94-2.99,2.65-7.23,4.13-10.78C129.02,174.75,128.92,172.72,131,172z"/>
<path class="st24" d="M172.11,50.96c1.51,2.09,2.97,4.2,2.94,6.93c0.77,4.97-4.18,8.4-3.43,13.16c-0.59,0.67,0.7,0.22,0.06,0.05
	c-0.37-0.1-0.28-0.17-0.07-0.45c1.31-1.86,2.32-1.39,3.23,0.34c0,0.99,0,1.98,0,2.98c-0.87,0.48-1.51,1.25-2.33,1.82
	c-2.67,2.02-3.22-2.36-5.41-1.75c-1.31,1.49-2.17,3.13-2.21,5.23c0.54-1.24,0.37-3.23,2.63-1.94c0.85,1.34,0.77,2.89,1.02,4.37
	c0.77,4.42-0.52,8.96,0.76,13.36c-0.01,1.98-0.24,3.88-1.87,5.28c-2.13,1.17-4.5,1.28-6.84,1.49c-1.36-0.02-1.72-1.53-2.71-1.92
	c-1.29-0.51-3.31,0.02-3.23-2.19c0.09-2.15,1.86-3.26,3.64-3.55c4.51-0.75,5.9-3.49,5.44-8.02c-0.08,2.01-0.07,3.78-2.35,3.94
	c-2.7-1.17-0.76-5.17-3.77-6.15c-0.92,0.08-1.79-0.02-2.59-0.5c-1.6-2.64-3.98-3.78-7.15-3.35c-0.84-3.34,0.14-5.75,2.45-7.76
	c1.51-1.31,3.03-2.63,3.18-4.85c0.52-1.5,1.48-2.46,2.89-2.62c1.6,0.62,0.85,2.24,2.36,3.49c0.54-6.09,4.79-10.85,3.78-17
	c0.59-1.59-0.68-3.26,0.18-4.84C168.13,44.2,168.13,44.2,172.11,50.96z"/>
<path class="st25" d="M168.01,94.99c-1.94-4.2,0.28-8.72-0.99-12.98c1.09-1.15-0.1-2.86,1.11-4.18c1.68-0.49,3.58-0.29,5.45-0.36
	c0.74,0.25,0.97,0.92,1.25,1.55c0,0.67,0,1.33-0.01,2c-0.17,3.92-0.84,7.69-2.91,11.14C170.99,93.72,170.33,95.44,168.01,94.99z"/>
<path class="st26" d="M170.05,102.14c-1.01-0.75-2.01-1.5-3.02-2.24c1-1.5,1.05-3.19,0.98-4.91c4.63-3.51,5.44-8.88,6.83-13.97
	C175.45,88.56,173.04,95.41,170.05,102.14z"/>
<path class="st27" d="M174.83,70.99c-2.07-0.12-2.54,0.14-3.55,2c-2-5.83,1.51-10.31,3.77-15.09
	C177.72,62.31,174.5,66.62,174.83,70.99z"/>
<path class="st27" d="M174.84,79.02c-0.29-0.34-0.57-0.67-0.86-1.01c-0.77-0.85-1.73-1.64-1-3c-0.06-1.54,0.66-1.7,1.84-1.05
	C174.83,75.65,174.84,77.34,174.84,79.02z"/>
<path class="st28" d="M153.99,67.98c-0.35,0.32-0.71,0.63-1.06,0.95c-0.65-0.65-1.29-1.3-1.94-1.95c0.49-7.52,5.25-13.02,9.02-18.98
	c2.21-0.21,1.68,2.31,2.99,3c1.64,3.06,1.51,6.15-0.56,8.83c-2.48,3.2-0.45,8.07-4.35,10.74c-3.44-0.5-1.13-3.22-1.57-4.9
	C155.1,65.95,154.57,66.99,153.99,67.98z"/>
<path class="st29" d="M172.99,75.01c0.33,1,0.67,2,1,3c-2.41,1.18-6.24-0.12-6.96,4c-0.01-1.68-0.03-3.35-0.04-5.03
	c-1.17-1.33-0.99-2.66,0.02-3.98c0.48-2.22,1.48-2.18,2.25-0.3C170,74.54,170.64,76.01,172.99,75.01z"/>
<path class="st30" d="M140.04,15.89c2.57,0.91,5.29,1.57,7,4c2.58,1.87,3.98,4.28,3.49,7.56c-2.46,1.47-3.87,3.21-1.78,6.07
	c0.97,1.33,1.82,2.77,1.79,4.53c-0.02,2.88-1.38,5.88,0.79,8.55c0.52,0.44,0.95,0.96,1.19,1.61c0.44,2.5-1.76,4.02-2.26,6.17
	c-0.48,1.64-1.52,3.05-1.83,4.74c1.25,2.31,1.69,4.96,3.15,7.16c0.72,0.89,1.46,1.77,1.78,2.9c-3.1,3.94-7.06,4.94-11.76,3.43
	c-3.68-0.5-5.29-3.49-7.18-6.09c-1.01-1.39-0.7-2.73,0.59-3.9c1.45-1.31,2.87-2.67,4.12-4.18c0.73-1.17,1.62-2.26-0.41-3.16
	c-2.86-1.27-2.88-3.59-1.5-5.8c2.06-3.28,1.74-7.89,5.74-10.11c0.97-0.54,0.82-1.81,0.56-2.76c-1.78-6.41-1.97-13.14-4.03-19.48
	C139.53,16.66,139.7,16.24,140.04,15.89z"/>
<path class="st31" d="M172.11,50.96c-0.15-0.06-0.34-0.08-0.45-0.19c-2.34-2.18-3.47-6.84-8.41-3.55c-2.08,0.74,4.04,2.78-0.26,3.78
	c-2.15,0.25-2.29-1.86-3.37-2.87c-0.49-1.13-0.14-2.18,0.19-3.28c1.32-4.41,0.46-5.69-4.35-6.63c-4.07-4.2-4.65-10.98-1.41-16.35
	c1.78,2.69,3.3,5.24,3.3,8.85c0,1.63,3.01,3.45,4.89,4.87C167.45,39.53,170.23,44.94,172.11,50.96z"/>
<path class="st32" d="M154.05,21.89c-0.37,5.49-2.46,11.19,1.97,16.09c0.12,0.22,0.25,0.43,0.37,0.65
	c-0.03,1.26-0.54,1.89-1.88,1.41c-2.84-3.51-5.39-7.13-4.52-12.04c-0.31-2.95-1.81-5.47-2.96-8.11
	C149.49,20.16,152.19,19.53,154.05,21.89z"/>
<path class="st33" d="M158,83c-0.39,4.24,2.18,9.25-3.65,12.32c-0.92-3.64-0.37-6.93,1.83-10.04c-2.04-0.43-1.91,2.19-4.37,1.68
	c1.07-1.46-2-5.01,3.17-3.96C155.99,83,156.99,83,158,83z"/>
<path class="st31" d="M152,46c0.58,0.86,1.35,1.35,2.5,1.24c1.75-2.29-1.43-4.97,0.51-7.24c0.83-0.42,0.98-1.18,1.02-2
	c5.28,3.39,5.1,8.35-0.53,15.16c-1.17-1.72-2.33-3.43-3.5-5.15c-0.33-0.34-0.67-0.67-1-1.01c-0.22-0.24-0.31-0.49-0.26-0.75
	c0.05-0.27,0.1-0.4,0.17-0.4C151.3,45.59,151.67,45.64,152,46z"/>
<path class="st34" d="M151.05,46.02c-0.02,0.32-0.04,0.65-0.06,0.97c-0.71,0.11-1.93,0.84-1.88-0.45c0.11-2.86-1.11-5.9,0.9-8.56
	c0.34,0.67,0.67,1.35,1.01,2.02C151.76,42,151.72,44.01,151.05,46.02z"/>
<path class="st30" d="M151.05,46.02c-0.01-2.01-0.02-4.02-0.03-6.02c1.74,1.77,0.68,4,0.98,6C151.68,46,151.37,46.01,151.05,46.02z"
	/>
</svg>
