<?xml version="1.0" encoding="utf-8"?>
<!-- Generator: Adobe Illustrator 26.1.0, SVG Export Plug-In . SVG Version: 6.00 Build 0)  -->
<svg version="1.1" id="Layer_1" xmlns="http://www.w3.org/2000/svg" xmlns:xlink="http://www.w3.org/1999/xlink" x="0px" y="0px"
	 viewBox="0 0 244 406" style="enable-background:new 0 0 244 406;" xml:space="preserve">
<style type="text/css">
	.st0{fill:#5E4641;}
	.st1{fill:#3F2022;}
	.st2{fill:#573936;}
	.st3{fill:#AF6B70;}
	.st4{fill:#1D0F0F;}
	.st5{fill:#483230;}
	.st6{fill:#633E38;}
	.st7{fill:#783D40;}
	.st8{fill:#CF929A;}
	.st9{fill:#251013;}
	.st10{fill:#0D090A;}
	.st11{fill:#3D2E2C;}
	.st12{fill:#473230;}
	.st13{fill:#17181A;}
	.st14{fill:#3A3D48;}
	.st15{fill:#151215;}
	.st16{fill:#2E2629;}
	.st17{fill:#BC9389;}
	.st18{fill:#5E3D37;}
	.st19{fill:#594745;}
	.st20{fill:#483533;}
	.st21{fill:#281415;}
	.st22{fill:#A59FAA;}
	.st23{fill:#5E443E;}
	.st24{fill:#553D37;}
	.st25{fill:#EEF6FA;}
	.st26{fill:#E4C8CB;}
	.st27{fill:#ECCCCC;}
	.st28{fill:#BBA5A8;}
	.st29{fill:#8E7B79;}
	.st30{fill:#4A2824;}
	.st31{fill:#351917;}
	.st32{fill:#A16864;}
	.st33{fill:#0F0606;}
	.st34{fill:#F1D4D0;}
	.st35{fill:#762E2C;}
	.st36{fill:#9A4B47;}
	.st37{fill:#303E45;}
	.st38{fill:#79413C;}
	.st39{fill:#7E4540;}
	.st40{fill:#391E1D;}
	.st41{fill:#482624;}
	.st42{fill:#702F28;}
	.st43{fill:#4F3530;}
	.st44{fill:#4F4744;}
	.st45{fill:#2C1413;}
	.st46{fill:#7D605E;}
	.st47{fill:#644C49;}
</style>
<path class="st0" d="M87.07,90.09c-0.27,4.25-3.45,6.93-5.73,11.82c-0.2-2.38-0.26-3.14-0.32-3.9c-0.23-3.14,0.13-6.05,3.04-8
	c1.41-1.09,0.78-2.69,1.03-4.07C86.56,86.95,85.39,89.2,87.07,90.09z"/>
<path class="st1" d="M105.94,127.05c0.64,1.64,4.95,0.57,3.04,4.1c-0.47,0.22-0.96,0.25-1.45,0.09c-4.58,0.22-8.68-2.22-13.2-2.33
	c-5.81-2.56-10.01,1.89-14.88,3.42c-0.51,0.05-0.97-0.08-1.37-0.38c-0.01-1.31-0.03-2.63-0.04-3.94c3.16-5.99,6.61-7.77,12.74-6.59
	c1.41,1.74,2.57,3.24,5.51,2.81C99.67,123.73,102.73,126.01,105.94,127.05z"/>
<path class="st2" d="M97.99,135.04c0.54,0.61,1.07,1.21,2.22,2.51c-6.82,1.08-12.98,4.85-19.17-0.58c-2.59-1.01-3.05-2.53-1.14-4.65
	c2.3-1.45,4.36-3.73,7.54-2.24c1.19,2.5,3.09,3.73,5.94,3.63C95,133.65,96.76,133.56,97.99,135.04z"/>
<path class="st3" d="M97.99,135.04c-1.97-0.02-3.95-0.23-5.9-0.03c-3.88,0.38-5.43-1.43-5.31-5.1c1.77-2.99,4.62-1.97,7.2-1.93
	c4.92-0.02,9.53,1.39,14.12,2.97c-2.62,2.27-5.74,0.27-8.7,0.94c0.63,1.34,2.05,0.97,2.87,1.63c1.89,1.61,3.73,3.23,0.74,5.5
	c-0.68-0.03-1.36-0.05-2.03-0.08C102.87,135.42,100.63,135.08,97.99,135.04z"/>
<path class="st4" d="M95.94,105.93c1.75,0.33,4.23-0.91,4.8,1.98c0.22,1.13-0.9,1.62-1.87,1.9c-2.55,0.74-3.65-0.57-4-2.89
	C95.23,106.58,95.58,106.25,95.94,105.93z"/>
<path class="st5" d="M88.98,113.97c-0.99,0.34-1.98,0.69-2.98,1.03c-2.36,0.64-4.96,1.66-6.5-1.14c-1.62-2.93-2.62-6.09,0.47-8.89
	c1.36-1.16,2.71-2.32,4.33-3.7c1.83,1.3,4.12,2.55,5.69,4.75c1.3,2.27,2.55,4.54,0.96,7.19C90.43,113.83,89.87,114.33,88.98,113.97z
	"/>
<path class="st6" d="M93.05,112.07c-1,0.35-2.01,0.7-3.01,1.05c1.56-2.38-0.6-4.73-0.06-7.1C92.7,107.18,93.28,109.42,93.05,112.07z
	"/>
<path class="st7" d="M90.75,122.14c3.86,0.07,7.64,0.57,11.31,1.81c1.24-0.38,2.03,0.44,2.88,1.08c0.33,0.68,0.66,1.35,0.99,2.03
	c-1.98,0.52-3.97,0.49-5.69-0.62c-1.6-1.04-3.1-1.85-5.03-1.02C91.89,126.85,91.21,124.64,90.75,122.14z"/>
<path class="st8" d="M102,134.01c-1.91-0.09-3.92,0.14-5.51-1.77c3.43-4.74,7.93,0.24,11.61-1.29c0.3,0.03,0.6,0.09,0.88,0.21
	c-0.86,1.09-2.56,1.3-2.98,2.84c-0.34,0.01-0.68,0.02-1.02,0.02C103.98,134.9,102.99,134.7,102,134.01z"/>
<path class="st9" d="M79.96,133.06c-0.35-0.33-0.69-0.65-1.04-0.98c4.61-2.87,8.8-7.29,15.06-4.11c-2.26,1.17-5.06,0.31-7.2,1.93
	C84.33,130.57,82,131.5,79.96,133.06z"/>
<path class="st10" d="M83.24,106.23c2.44,0.37,3.34,1.61,4.45,3.67C85.61,109.01,83.15,109.84,83.24,106.23z"/>
<path class="st11" d="M90.99,158.02c4.09,2.27,8.78,0.16,13.04,1.83c1.7,0.67,3.13,0.78,2.92,3.03c-0.24,2.53-2.19,2.29-3.72,2.06
	c-4.37-0.63-8.79-1.01-12.75-3.47c-1.55-0.96-3.71-0.93-6.02-1.45c0.15,4.64,4.13,8.51,1.53,12.99c-5.18-2.57-2.66-8.24-4.77-12.12
	c-1.09-2,2.69-1.2,3.15-3.26C72.79,150.08,65.09,139.65,62,126c2.46-5.57,0.2-11.06-0.82-16.35c-2.04-10.6-1.7-12.55,6.79-18.69
	c-0.53-1.76,0.73-2.56,1.86-3.42c0.91-0.41,1.84-0.47,2.79-0.11c0.43,0.24,0.72,0.59,0.89,1.05c0.14,3-2.6,3.61-4.25,5.13
	c-1.19,0.75-2.33,1.56-3.41,2.46c-1.87,1.45-2.47,3.22-2.13,5.65c0.98,6.94,2.68,13.61,6.33,19.66c1.58,2.62,1.98,5.54,2.55,8.47
	c0.73,3.73,2.27,7.24,4.18,10.55c0.56,7.96,6.29,11.91,12.21,15.71C89.78,156.61,90.57,157.12,90.99,158.02z"/>
<path class="st12" d="M85.02,71c2.26,1.79,2.09,5.01,4.08,6.96c2.62,0.57,2.02,2.66,1.81,4.3c-0.26,1.93-0.71,3.87-1.43,5.71
	c-0.23,0.77-0.57,1.48-1.11,2.08c-0.42,0.32-0.9,0.47-1.43,0.45c-2.1-0.57-1.96-2.64-2.75-4.09c-0.96-2.1-2.14-4.08-3.8-5.68
	c-2.74-2.63-5.66-4.62-9.51-1.85c-0.67,0.48-1.51,0.61-2.24-0.07c-1.2-3.24,1.37-3.81,3.38-4.77c3.73-0.37,7.46-0.74,11.19-1.09
	C84.41,72.83,84.84,72.04,85.02,71z"/>
<path class="st13" d="M70.02,87.97c-0.68,0.99-1.36,1.99-2.04,2.98C66.99,90.64,66,90.32,65,90c-0.13-0.8-2.36-1.17-0.3-2.47
	c1.32-0.84,2.21-2.34,3.3-3.54c0.91-2.2,3.2-2.03,4.89-2.9c1.89-0.72,3.79-1.53,5.68,0.03c1.27,1.64,4.16,2.87,1.45,5.56
	c-2.21,1.15-4.25,3.22-7.03,1.29l0.05-0.02C72.03,87.03,71.01,85.52,70.02,87.97z"/>
<path class="st14" d="M70.02,87.97c-0.49-1.12-1.62-2.55,0.42-3.05c2.43-0.6,2.1,1.68,2.6,3.03C72.04,87.96,71.03,87.97,70.02,87.97
	z"/>
<path class="st15" d="M78.01,81.95c2.43,0.22,4.05,1.5,5.16,3.45c-1.1,1.77-2.18,0.39-3.14,0.51
	C81.39,83.55,77.99,83.62,78.01,81.95z"/>
<path class="st16" d="M128.99,85.04c-0.23-0.2-0.49-0.27-0.79-0.21c-2.76-0.27-5.51-0.17-8.26,0.11c-2.66,0.41-4.65-0.41-5.65-3.06
	c-0.39-1.59-1.41-0.45-2.16-0.49c-0.84-0.18-1.53-0.58-1.97-1.35c2.26-2.06,5.18-1.59,7.86-2.07c3.8,0.78,7.58,1.62,10.35,4.68
	C128.97,83.3,130.13,83.9,128.99,85.04z"/>
<path class="st17" d="M76,90.99c0.66-0.34,1.32-0.68,1.98-1.01c3.6,0.48,4.73,2.04,3.22,5.22c-1.05,2.2-1.67,4.46-2.22,6.78
	l-0.01,0.02c-1.18,2.3-0.85,6.33-4.89,5.61c-3.84-0.68-3.26-4.2-3.6-7.17C69.93,95.73,72.04,92.9,76,90.99z"/>
<path class="st18" d="M85.02,71c-0.83-1.55-1.44-3.17-3.17-4.14c-3.74-2.11-3.56-5.26-1.95-8.66c0.81,3.21,2.92,5.4,5.3,7.4
	c1.07-0.86,0.68-1.72,0.69-2.51c3.06-0.36,3.1,1.79,2.89,3.77c-0.19,1.8-0.9,3.54,0.2,5.27c0.75,1.89,1.61,3.78,0.31,5.78
	C85.05,77.34,86.39,73.34,85.02,71z"/>
<path class="st19" d="M128.97,64.96c0.04,0.82,0.2,1.59,0.98,2.05c0.04,0.64,0.07,1.29,0.11,1.93c-3.59,0.56-7.14,0.14-10.69-0.39
	c-0.11-2.3-3.15-1.95-3.6-3.96c1.94-2.82,4.36-1.46,6.7-0.77c1.48,0.88,3.05,0.61,4.63,0.37C127.82,64.2,128.44,64.47,128.97,64.96z
	"/>
<path class="st20" d="M105.01,66.01c0.35-0.32,0.7-0.64,1.05-0.96c1.97-0.91,3.97-0.7,5.98-0.16c1.27,0,2.54-0.01,3.81-0.02
	c1.27,0.78,4.28-0.21,3.12,3.05c-3.04-0.05-6.06,0.02-8.97,1.08c-0.86,0.76-1.84,1.28-2.98,1.5c-1.42,0.28-3.13,0.82-3.92-0.71
	C102.2,68.05,103.38,66.79,105.01,66.01z"/>
<path class="st21" d="M110.17,80.03c0.61,0.32,1.22,0.64,1.83,0.95c0.72,0.77-0.09,1.43-0.17,2.14c-1.32,1.4-2.44-0.18-3.66-0.02
	C108.05,81.38,108.96,80.6,110.17,80.03z"/>
<path class="st22" d="M111.83,83.12c-1.55-0.84,0.1-1.43,0.17-2.14c0.96-0.2,2.07-0.8,2.3,0.89
	C113.74,82.82,112.76,82.93,111.83,83.12z"/>
<path class="st23" d="M72.01,124c1.66,5.67,3.33,11.34,4.99,17.01c-0.33,0.47-0.67,0.46-1,0c-2.92-3.97-4.56-8.45-4.97-13.32
	c-0.37-4.36-3.41-7.47-4.97-11.27c-2.11-5.14-2.87-10.53-3.86-15.86c-0.47-2.54,0.67-4.93,3.68-5.65c0.3,0.42,0.43,0.88,0.36,1.39
	c-1.45,6.2,0.19,12.05,2.23,17.79c1.05,2.94,2.69,5.65,3.92,8.53C72.49,123.13,72.36,123.6,72.01,124z"/>
<path class="st24" d="M76,141c0.33,0,0.67,0,1,0c3.98,5.35,7.97,10.69,11.95,16.04C82.5,153.42,75.97,149.85,76,141z"/>
<path class="st25" d="M182.92,159.85c4.97-1.49,9.92-1.38,14.84,0.22c0.77-0.14,0.85,0.6,1.24,0.95c0,1.25,0.01,2.5,0.01,3.76
	c-6,2.8-11.99,5.6-17.99,8.4c-1.59,0.08-1.85-1.13-2.19-2.26c-0.25-2.61-0.46-5.24,0.39-7.76
	C179.82,161.44,180.66,159.8,182.92,159.85z"/>
<path class="st26" d="M203.16,125.88c-1,0.16-2.53,0.4-2.5,1.3c0.25,8.52-4.93,15.73-5.64,23.98c-0.18,2.11-0.52,4.39-3.11,4.06
	c-2.71-0.35-1-2.55-0.95-4c0.02-0.5,0.21-1.1,0-1.48c-3.33-6.2,1.04-9.86,4.47-13.86c0.39-0.45,0.39-1.24,0.58-1.87
	c0.02-0.21,0.05-0.42,0.07-0.64c0.5-1.37,1.5-2.6,1.15-4.21c-0.28-2.14-0.91-4.32,0.63-6.28c1.69-0.7,3.01,0.06,4.26,1.08
	C202.46,124.59,202.81,125.24,203.16,125.88z"/>
<path class="st27" d="M202.11,123.95c-1.49,0.22-2.81-0.23-4.08-0.95c-3.01-1.1-1.54-5.12-4.19-6.45c-0.75-0.83-1.22-1.84-1.83-2.77
	c-1.03-1.78-2.91-1.56-4.55-1.91c-0.45-0.08-0.89-0.19-1.33-0.32c-1.46-0.77-3.98,0.17-4.19-2.6l0,0.03
	c4.69-0.76,9.38-0.78,14.07,0.01C198.64,113.74,201.22,118.5,202.11,123.95z"/>
<path class="st28" d="M196.01,108.99c-4.69,0-9.38-0.01-14.07-0.01C186.64,107.32,191.32,107.5,196.01,108.99z"/>
<path class="st29" d="M199.01,161.02c-0.41-0.32-0.82-0.63-1.24-0.95c-0.27-1.21-0.68-2.46,1.08-2.91
	C198.9,158.45,198.96,159.74,199.01,161.02z"/>
<path class="st30" d="M191.01,135.03c-0.35,0.29-0.71,0.58-1.06,0.87c-2.06,4.19-4.92,7.88-7.34,11.85
	c-3.36,3.62-3.36,3.62-8.86-0.7c-0.53-2.23,0-4.41,0.37-6.59c3.21-6.21,7.9-11.28,12.44-16.43c1.91-0.12,3.03,1.48,4.66,1.66
	c4.11,2.8,1.5,5.85,0.33,8.86C191.38,134.72,191.19,134.88,191.01,135.03z"/>
<path class="st31" d="M184.87,114.95c0.17-0.27,0.23-0.56,0.16-0.87c2.45-0.85,4.33,2.14,7.18,0.88c-2.6,3.63,4.92,7.86-1.2,11.05
	c-1.41-0.21-3.68,2.28-3.81-1.23c-4.1,5.12-8.15,10.18-12.2,15.23c-2.12-0.71-3.13-2.6-3.82-4.38c-1.2-3.11-3.8-4.99-5.68-7.49
	c-0.27-0.7-0.3-1.42-0.14-2.15c1.39-2.78,2.58-5.71,5.39-7.48c1.39-0.07,2.03,1.01,2.84,1.84
	C179.48,122.98,182.17,118.95,184.87,114.95z"/>
<path class="st32" d="M172.97,121.05c0.29-0.7,0.58-1.39,0.87-2.09c2.72,1.68,5,1.65,7.11-1.2c0.91-1.23,2.6-1.89,3.93-2.81
	C182.93,121.88,179.59,123.59,172.97,121.05z"/>
<path class="st33" d="M186.86,120.45c-0.41,1.81-1.11,2.55-2.47,2.95C184.36,121.85,185.18,121.13,186.86,120.45z"/>
<path class="st34" d="M170.91,112.84c1.14-0.46,2.48-0.56,3.13-1.85c1.93-0.37,3.87-0.74,5.8-1.1c0.41,0.36,0.55,0.81,0.42,1.34
	c-0.68,1.49-1.95,2.3-3.39,2.92c-2.42,0.61-4.94,2.12-7.06-0.64C169.94,112.89,170.31,112.67,170.91,112.84z"/>
<path class="st35" d="M160.24,107.64c-0.39-0.22-0.77-0.44-1.16-0.66c3.83-5.91,7.8-6.32,11.03-1.14c0.71,1.49,0.22,2.41-1.33,2.83
	c-1.3,0.12-2.24-0.65-3.21-1.31C163.71,105.9,162.06,108.66,160.24,107.64z"/>
<path class="st36" d="M170.97,111.95c-2.77,0.12-2.81-1.97-3.1-3.85c1.41-0.09,2.1-0.9,2.24-2.26
	C171.82,107.68,171.1,109.86,170.97,111.95z"/>
<path class="st37" d="M165.83,127.92c5.48,2.2,6.22,7.99,9.18,12.09c-0.14,2.37,0.43,4.84-1.08,7c-1.45,1.63-3.64,0.96-5.37,1.74
	c-1.38,0.43-2.72,1.14-4.25,0.76c-0.46-0.2-0.84-0.5-1.15-0.88c-1.75-5.01-1.04-10.47-2.85-15.48c-0.17-1.29,0.19-2.4,1.08-3.34
	C162.74,128.85,163.95,127.59,165.83,127.92z"/>
<path class="st38" d="M165.83,127.92c-1.18,0.75-2.02,2.1-3.64,2.08c-2.78,0.18-5.47,0.75-8.07,1.75c-0.71,0.2-1.43,0.29-2.17,0.26
	c-1.4-0.05-2.29-0.86-2.93-2.02c-1.87-1.75-1.45-3.83-0.87-5.93c0.27,0.29,0.54,0.59,0.81,0.88c2.99,4.62,4.9,1.05,7.03-0.92
	c3.31,0.96,6.67,1.65,10.09,2.1C166,126.71,165.92,127.31,165.83,127.92z"/>
<path class="st39" d="M170.95,118.96c0.69-0.65,1.38-1.31,2.06-1.96c0.66-0.37,1.32-0.74,1.98-1.1c0.01,0.37,0.03,0.75,0.04,1.12
	c-0.4,0.65-0.8,1.3-1.19,1.94c-0.39,0.65-0.02,1.63-0.87,2.09C172.29,120.35,171.62,119.66,170.95,118.96z"/>
<path class="st40" d="M163.01,148.98c-0.65-0.72-1.3-1.44-1.94-2.15c0.2-4.49-3.3-3.65-5.95-4.01c-0.98-1.09,0.77-3.79-2.05-3.68
	c-2.59,0.1-2,2.18-2.06,3.73c-0.17,4.12,0.98,8.7-4.03,11.04c2.51-4.24,3.52-8.79,3.06-13.73c-0.13-1.41-0.45-3.04,1-4.15
	c0.81-0.21,1.61-0.66,2.47-0.2c3.27,0.97,4.7-2.87,7.58-2.91c2.73,4.92,1.67,10.55,2.99,15.74
	C163.72,148.77,163.36,148.88,163.01,148.98z"/>
<path class="st41" d="M182.44,127.18c-0.38,1.77-1.6,3.17-3.42,3.42c-1.34,0.19-2.57-1.04-2.37-2.49c0.23-1.68,0.36-3.86,2.81-3.97
	C181.27,124.07,181.85,125.58,182.44,127.18z"/>
<path class="st42" d="M157.92,111.11c0.3,0.89,1.06,1,1.84,1.06c2.07,0.89,2.09,1.78,0,2.67c-0.56,0.13-1.13,0.26-1.69,0.39
	c-1.6-0.81-2.32-2.19-2.01-3.86C156.29,110.15,157.25,110.89,157.92,111.11z"/>
<path class="st43" d="M152.99,154.02c0.12,4.32-0.7,8.76,1.77,12.78c0.45,0.73,0.09,1.57-0.65,2.11c-0.33-0.31-0.66-0.61-0.99-0.92
	c-0.75-3.42-2.68-6.57-2.25-10.29c0.12-1.07-0.97-1.55-1.88-1.93c-1.26,0.37-2.51,0.88-3.86,0.35c-0.17-1.38,0.54-2.05,1.83-2.23
	c3.51-3.22,3.83-7.39,3.57-11.78c-0.08-1.43-0.45-3.17,1.54-3.76c1.67-0.49,2.95,0.12,3.69,1.71c0.65,1.4,2,1.6,3.25,2.06
	c1.91,0.71,3.07,1.97,2.59,4.2c-0.38,0.86-1.01,1.01-1.83,0.68c-4.99-2.9-6.4-2.18-6.56,3.37c-0.03,0.98,0.09,1.97-0.11,2.95
	C153.08,153.56,153.04,153.79,152.99,154.02z"/>
<path class="st44" d="M153.03,136.06c-0.67,0.05-1.35,1.09-1.99-0.03c0.3-0.66,0.6-1.32,0.9-1.98c-0.22-1.03-0.3-2.06,0.15-3.06
	c0.66,0,1.32-0.01,1.98-0.01C156.98,133.34,154.91,134.68,153.03,136.06z"/>
<path class="st45" d="M153.03,136.06c0.34-1.7,2.77-2.96,1.04-5.08c2.56-1.51,5.12-3.11,8.13-0.99c-0.37,0.98-0.73,1.96-1.1,2.93
	c-1.08,2.14-3.45,2.78-5.07,4.32C154.72,138.49,153.33,138.22,153.03,136.06z"/>
<path class="st46" d="M161.98,165.04c0.34,0.98,0.68,1.97,1.03,2.95c0.01,2.53-3.32,3.38-3.05,6.04c-0.33-0.29-0.66-0.58-0.99-0.87
	c-0.73-4.47-3.92-8.04-4.6-12.52c0.2-0.48,0.56-0.79,1.04-0.97C158.2,160.72,159.64,163.43,161.98,165.04z"/>
<path class="st47" d="M154.99,160c0,1.15-0.2,2.56,0.85,3.18c4.15,2.42,3.09,6.35,3.11,9.99c-1.27-0.44-2.54-0.87-3.81-1.31
	c-0.34-0.98-0.69-1.96-1.03-2.94c-0.47-3.89-2.82-7.4-2.19-11.54c0.17-1.15,0.08-2.3,0.97-3.21
	C156.58,155.04,155.26,157.71,154.99,160z"/>
</svg>
