<?xml version="1.0" encoding="utf-8"?>
<!-- Generator: Adobe Illustrator 26.1.0, SVG Export Plug-In . SVG Version: 6.00 Build 0)  -->
<svg version="1.1" id="Layer_1" xmlns="http://www.w3.org/2000/svg" xmlns:xlink="http://www.w3.org/1999/xlink" x="0px" y="0px"
	 viewBox="0 0 244 406" style="enable-background:new 0 0 244 406;" xml:space="preserve">
<style type="text/css">
	.st0{fill:#060709;}
</style>
<path class="st0" d="M243.99,304.01c0,0,0.01-0.01,0.01-0.01c0-4,0-8,0.01-11.99c-0.03,0.01-0.05,0.02-0.07,0.02
	c0.02-0.01,0.04-0.02,0.06-0.03c0-1.67,0-3.33,0-5c0,0,0,0.01-0.01,0.01c0-0.01,0-0.01,0.01-0.02c0-5.33,0-10.66,0-15.99
	c0,0,0-0.01,0-0.01c0-1,0-1.99,0-2.99c0,0-0.01-0.01-0.01-0.01c0,0,0.01,0,0.01,0c0-1.33,0-2.67,0-4c-3.09-3.72-4.41-8.41-6.8-12.53
	c-1.02-1.77-2.39-4.11-1.97-5.79c2.02-8.13,2.26-16.39,3.11-24.63c0.41-4-0.54-6.02-3.23-8.09v0c-1.22-2.38-3.65-3.06-5.78-4.21
	c-4.41-2.38-8.68-4.75-11.55-9.34c-6.42-10.25-10.21-21.73-15.79-32.36c-0.65-1.23-0.65-3.25-2.97-2.26c0,0-0.01,0-0.01,0
	c0,0,0,0,0,0c0-1.26-0.01-2.51-0.01-3.76c-0.01-0.01-0.01-0.02-0.02-0.03c0.01,0.01,0.02,0.02,0.03,0.03
	c-0.05-1.28-0.11-2.57-0.16-3.86l0,0c1.73-6.12,3.17-12.35,5.29-18.34c1.64-4.64,1.45-8.78-0.98-12.94
	c-0.35-0.64-0.7-1.29-1.04-1.92c0,0-0.01-0.01-0.01-0.01c0,0,0,0,0,0c-0.89-5.45-3.47-10.21-6.1-14.96
	c-4.69-1.49-9.36-1.67-14.06-0.01c0,0,0-0.01-0.01-0.01c0-0.01,0-0.01,0-0.02v0.01c0-0.01-0.01-0.01-0.01-0.01
	c-0.83,0.01-1.63,0.1-2.1,0.94c0,0,0,0,0,0c-1.93,0.36-3.86,0.73-5.79,1.1c-1.35-2.95-1.97-6.22-3.99-8.86
	c2.99-6.73,5.4-13.58,4.79-21.11c-0.01,0.03-0.02,0.07-0.03,0.1c0-0.03,0-0.06,0.01-0.1c0.01-0.67,0.01-1.33,0.01-2
	c0-0.01-0.01-0.02-0.01-0.02c0.01,0.01,0.01,0.02,0.02,0.02c0-1.67-0.01-3.35-0.02-5.04c0.01,0,0.01-0.01,0.02-0.01
	c0-1,0-1.99,0-2.98c0-0.01-0.01-0.01-0.01-0.02c-0.32-4.36,2.89-8.67,0.22-13.07c0,0,0-0.01,0-0.01c0.03-2.73-1.43-4.84-2.94-6.93
	c-1.88-6.02-4.66-11.43-9.87-15.37c-1.88-1.42-4.89-3.24-4.89-4.87c0-3.61-1.52-6.16-3.3-8.85c0,0,0,0.01-0.01,0.01
	c-1.86-2.35-4.55-1.72-7-1.99c0,0,0,0,0,0c-1.71-2.43-4.43-3.09-7-4c-1.91-3.06-4.71-4.04-8.22-3.92
	c-3.92,0.13-7.85-0.06-11.77-0.11c0,0,0-0.01,0-0.01c-0.97-0.98-1.95-1.95-2.93-2.93c-0.01,0-0.01,0.01-0.02,0.01
	c0,0,0.01-0.01,0.01-0.01c-1.16-2.13-3.34-2.84-5.3-3.97c-5.67-3.26-11.05,0.65-16.58,0.44c-5.79-0.22-8.65,6.21-14.27,6.52
	c0,0,0,0.01,0,0.01c-0.32,0.08-0.65,0.17-0.97,0.25c-2.45-0.61-4.72,0.1-6.97,0.97c-2.64,0.25-4.39,1.93-6.05,3.75h0
	c-2.55,1.17-3.48,3.83-5,5.83c-4.25,5.58-10.26,9.97-12.08,17.24c-1.1,2.4-2.53,4.69-3.64,7c-2.23,4.65-5.4,9.4-3.3,15.1
	c0,0.01,0,0.02,0,0.03c0.06,8.13,4.57,15.25,5.09,23.37c0.5,7.81,7.94,13.42,7.94,21.46c0,6.26,0.81,12.26,3.04,18.08
	c0.11,0.3,0.11,0.65,0.16,0.98c0,0.01,0.01,0.01,0.01,0.02c-0.61,5.16,0.53,10.13,1.76,15.08c-0.01,0.01-0.01,0.02-0.01,0.03
	c4.65,0.73,6.79,3.72,8.91,7.83c1.85,3.59,0.94,4.66-1.92,5.93c0,0,0,0.01,0,0.01c-1.47,0.65-0.63,1.99-0.94,3
	c-0.31,1.02-0.63,2.32-2.12,1.08c0,0,0-0.01,0-0.01c-1.54-1.9-3.69-1.19-5.29-0.67c-6.39,2.09-12.8,4.22-18.53,7.89
	c0,0.01,0.01,0.02,0.01,0.02c-0.01-0.01-0.02-0.01-0.03-0.02c-4.9,1.43-9.62,3.29-13.99,5.98c0,0,0,0,0,0
	c-0.67-0.23-0.93,0.13-1.05,0.69c0,0-0.01,0.01-0.01,0.01c-2.6-0.11-4.72,1.34-6.7,2.59C13.16,179.31,6.61,182.19,0,185
	c0,5,0,10,0,15c0,6.67,0,13.33,0,20c0,2.67,0,5.33,0,8c0,3.67,0,7.33,0.01,11c0.01,0.01,0.02,0.03,0.03,0.04
	C0.02,239.03,0.01,239.01,0,239c0,2.33,0,4.67,0,7c0,18.33,0,36.67,0,55c0,0.67,0,1.33,0,2c0,3,0,6,0,9c0,0.67,0,1.33,0,2
	c0,10.67,0,21.33,0,32c0,2.33,0,4.67,0,7c0,2.67,0,5.33,0,8c0,1.33,0,2.67,0,4c0,6,0,12,0,18c0,6.33,0,12.67,0,19c0,0,0.01,0,0.01,0
	c0,1.33,0,2.66,0,3.99c74,0,148,0,222,0c0,0,0-0.01-0.01-0.01c7.33,0,14.66,0,21.99,0c0-13.99,0-27.99,0-41.98c0,0,0.01,0,0.01,0
	c0-5.67,0-11.33,0-17c-0.01,0.01-0.02,0.03-0.03,0.04c0.01-0.02,0.02-0.04,0.02-0.06c0-7.99,0-15.98,0-23.97
	c0,0,0.01-0.01,0.01-0.01c0-1.67,0-3.33,0-5l0,0v0c0-2.67,0-5.33,0-8c-0.01,0.01-0.02,0.02-0.02,0.03c0-0.01,0.01-0.03,0.01-0.04
	C243.99,308,243.99,306,243.99,304.01z"/>
</svg>
