<?xml version="1.0" encoding="utf-8"?>
<!-- Generator: Adobe Illustrator 26.1.0, SVG Export Plug-In . SVG Version: 6.00 Build 0)  -->
<svg version="1.1" id="Layer_1" xmlns="http://www.w3.org/2000/svg" xmlns:xlink="http://www.w3.org/1999/xlink" x="0px" y="0px"
	 viewBox="0 0 244 406" style="enable-background:new 0 0 244 406;" xml:space="preserve">
<style type="text/css">
	.st0{fill:#060709;}
	.st1{fill:#0C0F12;}
	.st2{fill:#0B0E12;}
	.st3{fill:#080A0C;}
	.st4{fill:#0E1116;}
	.st5{fill:#0B0D10;}
	.st6{fill:#0C0E12;}
	.st7{fill:#101418;}
	.st8{fill:#090B0D;}
	.st9{fill:#111617;}
	.st10{fill:#0F1216;}
</style>
<path class="st0" d="M235.11,212.95c2.69,2.07,3.64,4.09,3.23,8.09c-0.85,8.24-1.09,16.5-3.11,24.63c-0.42,1.68,0.95,4.02,1.97,5.79
	c2.39,4.12,3.71,8.81,6.8,12.53c0,1.33,0,2.67,0,4c-3.09-0.13-3.12-3-4.18-4.84c-1.28-2.21-1.75-4.88-3.63-7.32
	c-1.75,2.9-0.35,4.93,0.32,7.05c1.5,4.74,0.56,6.21-4.55,6.9c-0.41,7.15,3.55,14.08,1.41,21.37c2.23-4.39,2.32-9.28,3.48-13.9
	c1.1-4.39,3.16-6.28,7.15-6.26c0,5.33,0,10.67,0,16c-1.11,3.79-2.05,7.63-3.15,11.44c-0.15,0.44-0.35,0.84-0.6,1.23
	c-2.08,2.35-3.37,4.77-0.73,7.55c1.07-0.03,1.31-0.93,1.8-1.53c0.72-0.83,1.14-2.15,2.67-1.69c0,2,0,4,0,6
	c-1.68,5.41-3.88,10.57-7.02,15.3c-0.74,1.76-2.27,3.25-1.87,5.73c3.06-0.58,4.33-2.86,5.59-5.15c0.19-0.42,0.42-0.82,0.66-1.21
	c0.71-0.82,1.1-2.17,2.64-1.68c0,8,0,16,0,24c-2.13,6.17-6.96,9.13-11.9,10.62c3.99,0.86,8.54,2.39,11.9,6.38c0,14,0,28,0,42
	c-7.33,0-14.67,0-22,0c-4.69-3.13-9.21-6.52-14.36-8.93c-1.84-0.86-3.24-2.39-2.79-4.8c0.32-1.7,1.61-3.94-1.07-4.57
	c-2.74-0.64-5.68-2.61-8.48,0.01c-0.97,0.91-1.74,2.01-2.76,2.89c-1.68,1.45-3.01,2.04-5.01-0.06c-3.2-3.36-6.19-2.76-8.94,1.18
	c-1.67,2.39-2.62,5.47-5.83,6.31c-2.02-0.49-1.09-2.78-1.67-3.12c-7-1.37-13.18-1.76-19.33,0.26c-1.37,0.45-3.04,0.18-4.41-0.47
	c-9.41-4.43-17.53-0.57-25.01,4.5c-5.25,3.55-10.37,5.15-16.38,3.14c-2.94-0.98-5.82-0.97-8.85-0.56
	c-6.13,0.84-12.26,1.15-18.1-1.56c-0.12-2.8,2.45-2.62,3.99-3.5c4.07-2.31,4.13-3.3,1.56-7.03c-3.15-4.58-3.09-9.89-2.48-15.19
	c0.72-3,1.29-6.04,3.07-8.69c1.34-1.99,1.14-3.99-0.48-5.83c-1.29-1.47-2.53-2.99-3.42-4.76c-3.16-6.1-8.04-11.24-10.02-17.99
	c2.7-5.71-2.68-8.23-4.78-12.04c-0.58-1.66-1.24-3.29-2.18-4.78c-0.68-1.49-0.78-3.05-0.64-4.65c0.09-1.21-0.47-2.23-0.99-3.26
	c-1.44-5.74-0.71-7.97,4.6-10.34c4.64-2.07,9.56-3.6,14.68-4.15c1.61,0.15,3.18,1.2,4.84,0.24c0.56-0.74,0.14-1.4-0.19-2.06
	c-1.65-2.67,0.22-3.01,2.17-3.24c2.33-0.27,3.54,1.16,4.45,2.99c0.65,0.34,1.01-0.13,1.4-0.53c1.5-1.14,1.99,0.11,2.6,1.09
	c0.55,0.88,0.54,2.49,2.28,1.79c0.04-1.09-0.46-2.18,0.14-3.21c0.69-1.09,1.72-1.59,2.96-1.48c5.18,0.44,10.29-0.51,15.43-0.81
	c2.62-0.15,5.04,0.17,6.12,3.09c0.65,1,1.55,1.46,2.75,1.21c0.58-0.1,1.17-0.18,1.74-0.34c0.83-0.25,1.14-0.94,1.41-1.67
	c0.22-0.62,0.53-1.19,1-1.66c0.63-0.56,1.3-1.19,2.07-1.35c8.09-1.63,10.94-7.32,11.93-14.77c0.46-3.44,2.12-6.87-2.49-8.82
	c-1.15-0.49-1.25-1.66-0.61-2.83c-3.07,2.52-1.29,6.41-2.82,9.32c-2.02,1.75-5.37,1.63-6.48,4.66c-1.43,1.93-2.67,4.34-5.7,2.33
	c-0.74-1.26,0.27-3.06-1.27-4.07c-1.79-1.1-3.94-1.3-5.74-2.37c-1.01-0.64-1.78-1.51-2.42-2.49c-1.14-1.73-2.16-3.66-0.84-5.55
	c1.37-1.96,3.31-0.68,5.02-0.23c0.64,0.17-0.16-0.04,0.47,0.16c9.76,3.11,12.08,1.27,11.37-9.2c-0.6-8.79-0.77-17.59-0.93-26.4
	c-0.09-4.96,1.52-8.5,6.47-9.88c5.57-1.55,9.52-5.9,14.62-8.22c2.19,1.33,1.13,3.75,1.87,5.64c1.06-0.1,1.13-1.94,2.46-1.49
	c2.1-0.5,0.54-1.97,0.57-2.83c0.22-6.05-0.01-12.1,0.15-18.15c1.03-4.2-0.63-8.24-0.75-11.82c-0.22,1.78,0.75,3.97,0.89,6.24
	c0.13,2.04,0.87,4.69-2.12,5.37c-3.16,0.72-3.26-2.02-3.91-4.02c-0.57-1.72-1.28-3.43-0.37-5.24c0.93-1.06,1.49-0.52,1.99,0.43
	c-0.27-1.55-0.87-3.07-0.81-4.7c-0.65-5.48,3.64-4.97,6.91-5.71c0.51-0.06,1.02-0.03,1.53,0.08c0.75,0.21,1.46,0.52,2.15,0.86
	c3.55,0.39,4.84,2.47,5.31,5.92c0.73,5.37,2.72,10.49,3.82,15.8c0.3,1.48,1.14,2.06,2.44,2.71c4.02,1.98,3.93,3.12-0.17,5.8
	c-0.73,0.22-1.49,0.28-2.24,0.22c-0.79,0.02-1.61-0.5-2.48,0.13c-0.55,1.93,1.46,2.27,2.25,3.34c1.25,1.68,3.33,2.99,1.24,5.51
	c-0.83,1,0.09,2.19,0.48,3.28c4.77,13.29,10.18,26.31,15.76,39.27c2.22,5.15,6.32,8.44,9.29,12.77c1.89,7.46,5.15,14.36,8.52,21.23
	c0.51,1.05,0.88,2.17,1.66,3.05c1.02,1.15,2.19,2.22,3.87,1.61c1.52-0.55,1.7-2.05,1.62-3.35c-0.28-4.42,1.04-8.18,4.1-11.37
	c0.82-0.86,1.31-1.93,1.31-3.16c-0.03-5.81,1.6-11.54,0.83-17.4c1.39-6.97,2.67-13.93,1.13-21.06c-0.88-5.4,0.38-11.06-2.02-16.26
	c-0.27-1.29-0.29-2.59-0.3-3.9c0.2-2.43-0.4-5,1.46-7.64c1.8,2.68,4.97,0.56,7.13,2.33c0.9,2.18-1.74,3.2-1.76,5.27
	c0.44-2.13,2.18-3.32,2.88-5.11C232.05,216.01,232.19,212.98,235.11,212.95z"/>
<path class="st1" d="M0,383c6.07,5.14,6.99,9.23,4.11,16.36C3.25,401.47,2,402.1,0,402C0,395.67,0,389.33,0,383z"/>
<path class="st2" d="M228.99,217.99c-2.6-2.69-3.33,1.17-4.99,1.51c-1.72-0.67-0.38-2.51-2.02-3.8c0,2.39,0,4.37,0,6.34
	c-0.49,0.31-0.94,0.25-1.34-0.16c-1.18-1.99-0.96-4.31-1.49-6.45c-0.07-2.44,0.52-5.06-2.09-7.08c-3.48,1.96-6.38,5.03-10.16,6.71
	c-1.13,0.34-2.66,0.7-2.76,1.86c-0.51,5.76-5.21,9.96-5.68,15.7c-0.08,0.99-0.26,1.99-0.65,2.91c-0.65,1.53-1.26,3.34-3.44,2.81
	c-1.72-0.42-2.08-1.95-2.05-3.55c0.05-2.83,0.27-5.63,0.96-8.39c0.56-2.25,0.46-4.31-1.89-5.59c-0.42-0.29-0.75-0.66-1.01-1.11
	c-0.65-1.46-0.64-2.98-0.42-4.51c0.09-0.48,0.23-0.96,0.42-1.41c4.82-6.14,5.03-12.89,3-20.14c-0.96-3.41-1.23-7.09,3.83-7.99
	c-0.67-2.86-1.3-5.57-2.31-8.06c-2.3-0.36-3.7,1.1-5.4,1.59c-3.94,1.19-7.33,3.61-11.17,5.01c-1.91,0.7-2.28,2.01-2.3,3.81
	c-0.02,2-0.25,4.04-2.96,4.25c-3.9-5.2-4.33-10.22-1.06-12.4c-1.1,0.09-2.19,0.16-3.08-0.68c0.37-3.21,3.61-2.75,5.36-4.2
	c2.16-1.09,4.43-1.92,6.64-2.88c6.02-2.45,11.39-6.52,18.09-7.31c2.32-0.99,2.32,1.03,2.97,2.26c5.58,10.63,9.37,22.11,15.79,32.36
	c2.87,4.59,7.14,6.96,11.55,9.34c2.13,1.15,4.56,1.83,5.78,4.21c-1.36,1.69-2.72,3.37-4.08,5.06
	C230.35,217.98,229.66,218.7,228.99,217.99z"/>
<path class="st3" d="M127.01,281.15c2.96,2.29,3.42-1.02,4.85-2.16c1.31,0.72,1.49,2.23,2.31,3.28c1.84,1.73,4.1,2.94,5.81,0.47
	c1.5-2.16,3.05-5.09-0.67-7.1c-0.14-0.18-0.28-0.36-0.42-0.54c-1.58-5.27,0.15-9.37,4.42-12.63c1.59,1.92-0.97,2.92-0.88,4.47
	c4.51,1.97,5.86,4.9,4.1,9.76c-1.16,3.22-3.07,6.15-1.77,9.89c0.37,1.06-0.42,2.92-1.94,3.01c-4.6,0.27-7.97,3.62-12.25,4.6
	c-0.75,1.11-1.97,1.51-3.09,2.08c-1.1,0.77-2.27,1.2-3.61,0.7c-2.02-3.37-5.02-3.25-8.45-2.79c-4.38,0.58-8.82,1.46-13.29,0.41
	c-1.22-0.29-1.77,0.61-2.21,1.56c-1.5,2.41,0.65,2.12,1.87,2.52c-1.14,2.36-3.18,0.73-4.86,1.46c-0.41-1.69-0.73-3.03-1.08-4.37
	c-0.02-0.08-0.31-0.14-0.46-0.11c-0.14,0.03-0.26,0.19-0.39,0.29c-0.59,0.65-1.24,1.15-2.19,1.02c-1.99-0.8-2.29-5.04-5.89-2.61
	c0.29,0.53,0.65,1.17,1,1.81c-0.76,0.95-0.26,1.87,0.07,2.79c-1.64,1.52-3.3,1.46-4.98,0.07c-5.12-2.35-9.36,1.28-14.01,2.13
	c-1.34,0.24-2.35,1.97-4.05,0.98c-0.23-0.46-0.39-1.04-0.1-1.41c7.81-9.91,12.89-21.52,19.81-31.98c0.48-0.77,0.96-1.54,1.41-2.33
	c1.06-1.7,2.2-3.34,3.27-5.04c2.37-3.8,5.26-7.25,7.66-11.03c2.46-2.94,4.67-6.09,7.29-8.9c2.26-2.46,3.44-5.72,5.93-8
	c0.85-1.06,1.55-2.24,2.61-3.12c3.01-2.45,4.4-6.2,7.11-8.89c1.72-1.72-0.27-2.99-0.65-4.45c-0.08-3.08,2.03-5.1,3.57-7.4
	c0.96-0.94,1.64-2.06,2.05-3.34c0.48-1.33,1.31-2.4,2.47-3.21c4.17-1.92,7.52-5.08,11.38-7.47c1.8-1.11,2.84-2.65,3.34-4.65
	c0.2-0.44,0.48-0.82,0.84-1.14c1.06-0.28,1.84,0.25,2.56,0.92c3.01,4.18,3.08,9.32,5.17,13.63c-2.42,1.62-4.18-1.7-6,0.31
	c-2.35,3.73-4.29,7.65-6.11,11.75c4.01-0.75,7.32-2.25,9.74-5.46c1.02-1.34,1.63-3.49,4.09-2.92c1.97,1.61,3.28,3.39,1.61,5.97
	c-4.61,5.01-10.54,7.84-16.81,10.09c-2.35,0.85-3.34,2.58-3.19,5.03c0.39,6.27,0.14,12.55,0.53,18.84
	c0.43,6.86,1.17,13.97-0.7,20.84c-0.73,2.68-2.96,2.44-4.89,1.97c-3.8-0.93-7.63-1.83-11.41-3.94c-0.95,4.39,1.33,6.43,3.85,8.34
	c0.18,0.38,0.31,0.78,0.42,1.18c0.26,1.98,4.02,1.3,3.16,4.11c0.02-0.03-0.09,0.41-0.09,0.41s0.45,0.04,0.48,0.02
	C125.95,280.73,126.52,280.7,127.01,281.15z"/>
<path class="st4" d="M191,220c4.56-0.62,4.53,2.54,3.84,5.3c-0.8,3.2-0.92,6.43-1.36,9.64c-0.19,1.37-0.08,2.24,1.45,2.7
	c0.31-0.24,1-0.51,1.01-0.8c0.13-6.83,5.43-11.96,6.08-18.6c0.3-3.03,2.06-4.32,4.99-4.24c0.97,2.26-0.25,4.25-1.01,6.15
	c-1.69,4.18-1.83,8.32-0.51,12.57c-0.45,3.29-1.03,6.54-2.14,9.69c-0.9,2.55-0.46,4.94,0.12,7.66c1.11,5.21,2.04,10.76,0.93,16.03
	c-0.71,3.38,0.81,5.85,1.73,8.48c0.85,2.41,3.31,2.5,5.3,0.68c1.11-1.01,1.69-2.45,2.37-3.78c0.64-1.25,1.45-2.32,3.07-1.9
	c1.61,0.41,2.66,1.31,2.22,3.23c0.66-2.93,0.71-6.04,2.6-8.59c0.39-0.33,0.83-0.4,1.3-0.23c1.69,6.19-1.77,12.31-0.22,18.52
	c0.28,1.12-1.16,1.47-1.79,2.19c-2.68,3.05-4.73,6.26-4.06,10.7c0.3,1.96,0.81,4.59-2.12,5.42c-3.15,0.89-5.6-0.92-6.43-3.43
	c-2.14-6.45-6.75-11.8-7.98-18.61c-0.35-1.95-0.92-3.86-1.39-5.78c-4.57-10.7-9.36-21.33-10.63-33.08c1.23-1.52,1.02-3.21,1-5.06
	C189.3,229.86,189.13,224.8,191,220z"/>
<path class="st5" d="M189,239c1.76,11.8,7.68,22.37,10,34c-9.41-6.35-10.7-17.52-15.71-26.49c-4.79-8.57-5.76-18.62-10.61-27.14
	c-1.26-2.22-0.12-3.08,1.71-3.35c-1.01-3.53-5.69-3.96-5.81-7.85c1.56-1.43,2.98-1.68,4.42-0.15c0.87,1.42,1.69,3.07,3.15,3.78
	c10.25,5.03,10.28,15.59,13.4,24.47C189.91,237.28,189.84,238.22,189,239z"/>
<path class="st1" d="M145,191c-0.64-0.33-1.28-0.66-1.92-1c-1.05-0.66-1.28-1.77-1.57-2.85c-0.06-0.46,0-0.9,0.13-1.34
	c0.77-1.43,1.94-2.5,3.18-3.52c0.65-0.48,1.43-0.74,2.12-1.16c4.96-3.02,4.95-3.03,7.97,1.65c0,1.66,0,3.33,0,5.05
	c-0.98,0.62-1.22-0.7-1.93-0.83c-1.22,2-0.89,3.67,1.06,5c1.81,0.82-0.06,2.86,1.73,4.31c5.34-4.25-0.73-10.1,2.25-14.5
	c0.9,5.09,2.28,10.08,1.91,15.32c-1.88,1.64,1.2,5.06-2.2,6.17c-1.36-0.3-1.68-1.25-1.68-1.23c0.05,1.33,1.74,3.23,2.72,5.41
	c-0.11,2.58,1.5,5.49-1.68,7.52c-0.42,0.27,2.34,1.41,0.91,3c-1.86,1.05-0.11,3.7-2.51,4.95c-2.78-2.58-0.95-6.03-1.49-8.95
	c0.26-2.31-1.13-4.06-2-5.99c-0.05-0.23-0.1-0.45-0.15-0.68C150.6,201.45,149.49,195.52,145,191z"/>
<path class="st5" d="M176.99,199c-0.28,1.2-1.92,1.79-1.51,3.31c1.07,1.11,2.39,0.56,3.61,0.62c2.28-2.03,4.74-3.35,7.87-1.96
	c1.47,0.06,3.33-0.08,3.6,1.74c0.3,1.98-1.54,2.08-3.01,2.36c-2.1,0.39-3.83,1.52-5.65,2.64c-2.07,1.29-4.54,1.93-6.91,0.28
	c0.51-1.34,3.22-0.65,2.62-3.38c-5.21,0.3-5.91-3.65-6.43-7.6c-0.67-5.09-3.33-9.7-3.29-14.97c0.03-3.31-3.87-1.04-4.91-3.06
	c0.53-0.64,1.25-0.93,2.04-1.06c1.33-0.11,2.64-0.08,3.68,0.94c1.12,0.1,2.25,0.19,3.62,0.31c-3.6,4.61,0.27,8.59,0.65,12.82
	c0.09,0.77,0.34,1.49,0.71,2.17C174.97,195.67,176.74,196.82,176.99,199z"/>
<path class="st6" d="M83.02,374.01c-0.01-0.67-0.02-1.34-0.03-2.01c-2.53-1.39-4.27,0.58-6.27,1.47c-1.78,0.78-3.03,2.52-5.07,2.83
	c-2.78-2.64-0.65-5.07,0.54-7.34c0.96-1.84,2.63-3.29,3.56-5.2c0.72-1.56,1.79-2.84,3.21-3.81c0.06-2.25,2.23-3.18,3.08-4.94
	c1.18,1.36,2.3,2.77,3.55,4.06c2.09,2.15,2.89,4.48,0.85,6.99C84.52,368.42,84.3,371.42,83.02,374.01z"/>
<path class="st7" d="M236,325c1.5,3.33,3.9,1.19,5.98,0.97c-1.57,3.59-3.79,6.4-8.18,6.92C231.89,329.36,235.17,327.52,236,325z"/>
<path class="st8" d="M57.05,321.02c-0.61,1.37-2.17,2.24-2.09,3.98c-2.34,2.52-4.72,5-7,7.57c-1.24,1.39-3.58,2.41-2.61,4.82
	c0.86,2.13,2.94,3.4,5.07,3.44c3.96,0.07,4.98,1.67,3.59,5.2c0.44,1.49-0.84,1.86-1.64,2.54c-1.11,0.65-2.2,1.35-2.98,2.41
	c-1.69,2.39-0.87,4,1.59,5.05c2.45,1.03,3.98,2.85,4.8,5.33c-0.49,5.38,0.82,10.82-0.71,16.17c-0.63,2.21,0.18,4.25,1.27,6.15
	c1.16,2.02,2.4,4.04,2.6,6.38c0.4,4.48,2.56,7,7.18,7.13c0.72,1.08,1.98,0.28,2.86,0.82c2.26,0.94,4.48,2.01,7.01,2.01
	c-4.21,1.73-8.33-0.36-12.5-0.48c-2.08-0.06-4.26-0.5-6.41-0.51c-8.04-0.04-10.61-3.83-7.33-11.89c-6.35,3.25-12.47,1.75-18.56,0.73
	c-3.45-0.58-5.7-2.07-5.28-6.28c0.55-5.43-1.45-10.15-5.62-13.71c-3.36-2.87-3.3-5.31,0.23-7.94c3.86-2.88,7.51-5.81,12.77-6.1
	c3.21-0.18,6.37-1.61,9.51-4.35c-4.81-1.37-8.21,2.12-13.01,2.09c2.82-6.63,8.74-10.01,12.87-14.8c4.38-5.07,6.89-11.16,10.28-16.76
	C54.31,320.41,56.31,318.21,57.05,321.02z"/>
<path class="st0" d="M165.41,399.66c-0.57-2.15-0.42-3.31,1.04-4.07C167.4,397.26,166.99,398.4,165.41,399.66z"/>
<path class="st8" d="M55,243c-0.4,2.59-0.34,5.38-3,7C52.71,247.54,52.95,244.88,55,243z"/>
<path class="st9" d="M172,194c0.02-0.82,0.19-1.57,1-2c0.58-0.57,1.75-1.3,1.65-1.68c-1.97-7.09,4.18-7.4,7.97-9.56
	c2-1.14,4.25-1.85,6.39-2.76c0.78,0.54,1.56,1.09,2.69,1.88c-4.06,2.06-5.54,6.33-8.69,9.13c-1.09,0.38-1.24,1.48-1.71,2.31
	C178.38,196.57,177.3,196.9,172,194z"/>
<path class="st4" d="M189.99,216.99c0.03-0.82,0.22-1.55,1.02-1.97c0,1.66,0,3.32-0.01,4.99
	C189.82,219.28,190.05,218.08,189.99,216.99z"/>
<path class="st1" d="M151.99,208.01c-2.82,4.14-5.96,7.88-10.98,9.52c-1.37,0.45-2.63,1.67-3.96-0.03
	c-1.12-1.43-0.04-2.49,0.62-3.57c2.07-3.33,4.21-6.63,6.32-9.94c1.5,1.09,2.66,2.31,1.97,4.1c4.34-3.02,4.34-3.02,6.04-0.1
	L151.99,208.01z"/>
<path class="st0" d="M128.01,258.9c-2.05-1.06-3.8-2.36-3.93-4.94c0.54-0.71,1.17-1.33,1.94-1.79c1.37-1.11,3.01-2.12,1.29-4.17
	c-1.28-1.03-3.06,0.29-4.28-0.92c1.43-2.75,3.72-2.57,5.91-1.39c1.99,1.07,2.34,2.94,1.68,5.16c-0.95,3.22-1.06,6.32,0.83,9.51
	c1.41,2.38-0.39,4.49-3.43,4.72C128.74,263.02,128.94,260.96,128.01,258.9z"/>
<path class="st0" d="M133.04,282.8c3.93,0.82,6.4-0.48,6.87-4.71c-0.73-0.53-0.33-1.51-0.85-2.12c-0.08-0.3-0.13-0.6-0.14-0.91
	c1.99-0.14,4.01,0.19,3.93,2.59c-0.09,2.77-0.55,6.29-3.08,7.36C137.99,285.77,134.4,286.18,133.04,282.8z"/>
<path class="st0" d="M127.54,203.87c0.8-1.01,1.6-2.02,2.4-3.03c1.11-2.59,3.36-4.03,5.57-5.5c1.2-0.88,2.69-1.26,3.85-2.21
	c1.12-0.87,1.68-2.64,3.58-2.28c0.41,2.27-0.68,4.06-2.44,5.03C136.04,198.34,132.64,202.49,127.54,203.87z"/>
<path class="st2" d="M172,194c6.25,2.92,8.03-1.7,10.04-5.94c0.05-0.11,0.23-0.15,0.34-0.23c0.2,0.39,0.41,0.78,0.61,1.17
	c-0.67,2-1.34,4-2.01,6c-0.42,1.58-1.93,2.07-3,3c-0.34,0.33-0.67,0.67-1.01,1C175.33,197.33,173.66,195.66,172,194z"/>
<path class="st9" d="M178,198c0.65-1.34,1.65-2.35,3-3C182.1,198.1,179.3,197.3,178,198z"/>
<path class="st10" d="M127,248.01c2.25,2.76,0.03,3.36-1.96,4.07c-0.91-0.44-1.62-1.05-1.93-2.42
	C124.51,249.2,127.27,251.5,127,248.01z"/>
<path class="st8" d="M64,383c-0.67,0.66-1.34,1.32-2.01,1.98c-2.17-0.53-4.6-1.13-3.16-4.12c1.44-2.99,3.81-2.45,6.12-0.86
	C64.63,381.01,64.32,382.01,64,383z"/>
</svg>
