<?xml version="1.0" encoding="utf-8"?>
<!-- Generator: Adobe Illustrator 26.1.0, SVG Export Plug-In . SVG Version: 6.00 Build 0)  -->
<svg version="1.1" id="Layer_1" xmlns="http://www.w3.org/2000/svg" xmlns:xlink="http://www.w3.org/1999/xlink" x="0px" y="0px"
	 viewBox="0 0 244 406" style="enable-background:new 0 0 244 406;" xml:space="preserve">
<style type="text/css">
	.st0{fill:#2D2E33;}
	.st1{fill:#43454A;}
	.st2{fill:#191E24;}
	.st3{fill:#313336;}
	.st4{fill:#2E3239;}
	.st5{fill:#434B57;}
	.st6{fill:#3C4450;}
	.st7{fill:#313842;}
	.st8{fill:#62646D;}
	.st9{fill:#4F525A;}
	.st10{fill:#12161B;}
	.st11{fill:#0B0E11;}
	.st12{fill:#090B0D;}
	.st13{fill:#040506;}
	.st14{fill:#CBA296;}
	.st15{fill:#BB8D7F;}
	.st16{fill:#765852;}
	.st17{fill:#95726F;}
	.st18{fill:#A07E76;}
	.st19{fill:#D7B8B8;}
</style>
<path class="st0" d="M43.03,263.9c-0.28,1.04-2.3,1.59-0.87,3.11c-0.53,2.15-2.01,3.67-3.36,5.46c-1.32-1.5-0.49-3.04-0.76-4.4
	c0.92-1.54,0.44-3.24,0.44-4.85c-0.01-2.25,0.89-3.37,2.96-3.43C43.24,260.87,41.82,262.84,43.03,263.9z"/>
<path class="st1" d="M38.98,255.88c0.86,0.01,1.54-1.27,2.42-0.45c0.21,0.19-0.2,1.05-0.33,1.6
	C40.38,256.64,38.72,258.02,38.98,255.88z"/>
<path class="st2" d="M45.04,235c2.15,4.08,0.94,8.91,2.95,13.02c0,1.32,0,2.63,0,3.95c-0.86-0.12-1.88-0.44-1.8-1.35
	c0.47-5.39-2.51-10.28-2.16-15.63C44.36,234.51,44.71,234.52,45.04,235z"/>
<path class="st3" d="M49.97,235c0.16-1.45,0.42-2.67,2.07-1c-1.29,0.55,0.56,2.33-0.93,2.62C50.1,236.82,50.15,235.7,49.97,235z"/>
<path class="st4" d="M31.01,227.9c0.04-0.25,0.06-0.5,0.06-0.76c2.22-2.13,3.88,1.61,5.99,0.57c1.01-0.11,1.41,0.67,1.93,1.29
	c-0.07,2.63,0.69,5.69-3.24,6.33c-0.21-0.33-0.38-0.68-0.53-1.04c-0.29-0.58-0.82-0.81-1.39-1.01c-0.77-0.43-1.28-1.08-1.71-1.82
	C31.23,230.44,31.78,228.97,31.01,227.9z"/>
<path class="st5" d="M39.8,216.04c0.49-1.58-1.52-3,0.24-5.37c1.97,4.21,2.87,8.16,2.94,12.36c0.68,1.19,0.81,2.09-1.02,2.01
	C41.24,222.03,40.52,219.04,39.8,216.04z"/>
<path class="st6" d="M38.99,229c-0.6-0.36-1.2-0.72-1.8-1.08c-3.59-2.75-1.05-6.79-2.12-10.08c0.02-0.28-0.01-0.57-0.08-0.84
	c0.22-1.72,0.8-2.02,1.77-0.42c0.46,0.77,0.81,1.61,1.2,2.42C38.31,222.33,38.65,225.66,38.99,229z"/>
<path class="st7" d="M41.96,225.03c0.86-0.41,0.99-1.18,1.02-2.01c1.55,2.44,1.36,5.35,2.11,8.01c-0.02,1.32-0.04,2.65-0.06,3.97
	c-0.34-0.01-0.68-0.01-1.02-0.02C43.34,231.67,41.55,228.58,41.96,225.03z"/>
<path class="st8" d="M36.04,244.92c0.48-0.54,0.95-1.08,1.53-1.74c-0.94-0.13-1.71-0.23-2.49-0.34c-0.2-0.12-0.4-0.23-0.6-0.34
	c-0.6-0.75-1.09-1.52-0.5-2.5l-0.03-0.35c4.71-1.8,4.86,1.88,5.84,4.61C38.62,245.66,37.28,244.92,36.04,244.92z"/>
<path class="st9" d="M40.03,250.2c-1.09-0.37-3.25,0.33-2.23-2.19c0.63-0.67,1.32-0.98,2.18-0.42
	C41.28,248.44,40.18,249.33,40.03,250.2z"/>
<path class="st10" d="M35.07,217.84c0.7,3.36,1.41,6.72,2.11,10.08c-0.35,0.43,0.33,1.69-1.32,1.12c-1.64-0.56-2.84-2.23-4.8-1.9
	c-1.5-2.65,0.73-4.87,0.86-7.33c-0.25-0.23-0.31-0.42-0.19-0.59c0.11-0.15,0.22-0.22,0.32-0.22c0.86,0.36,1.73,0.72,2.78,1.16
	C34.92,219.4,35,218.62,35.07,217.84z"/>
<path class="st11" d="M37,255c-5.7,4.52-8.8,11.37-14.4,16c-1.59,1.31-2.2,3.2-2.68,5.21c-0.55,2.33-0.68,5.04-4.19,6.62
	C12.2,271.4,2.28,262.88,1.99,250.05c0.71-1.4-0.26-2.79-0.02-4.18C2.94,239.73,1.89,233.82,0,228c0-2.67,0-5.33,0-8
	c1.63-3.24,1.59-7.04,3.44-10.21c0.75-1.26,2.03-2.15,2.38-3.7c0.36-1.59,1.25-2.76,3.12-2.41c2.24,0.42,2.2,2.26,2.03,3.88
	c-0.23,2.14-0.41,4.26-0.23,6.4c-0.15,1.39-1.22,2.73-0.25,4.2c0.09,0.43,0.1,0.85,0.02,1.27c-0.13,0.44-0.48,0.78-0.69,1.32
	c1.62-0.53,2.99-1.3,4.14-2.48c2.28-1.24,4.25-1.53,5.07,1.67c-1.24,2.09-3.42,2.98-5.34,4.21c-1.94,1.04-3.62,2.14-3.48,4.8
	c0.44,8.03-0.24,16.09,0.43,24.12c-0.74,7.55,0.3,10.12,5,12.28c2.91-5.13-1.91-8.78-2.86-12.77c1.61-2.14,4.54,0.56,5.32-2.38
	c0.53-1.71,0.35-3.66,1.69-5.1c1.51-1.58,3.04-3.35,5.52-2.67c2.82,0.78,2.69,3.46,3.27,5.67c0.56,2.12,0.32,4.28,0.51,6.41
	c-0.12-1.37-0.09-2.73,0.01-4.1c0.07-0.45,0.24-0.87,0.5-1.25c1.15-0.83,1.83-0.03,2.41,0.78c0.63,0.88,1.2,0.97,1.92,0.14
	c2.84,0.1,2.39,2.6,3.11,4.24C37.02,254.55,37.01,254.78,37,255z"/>
<path class="st12" d="M47.98,251.97c-0.51,3.47-3.31,4.67-5.97,6c-0.31-0.31-0.62-0.62-0.93-0.94c-0.39-0.94-1.5-0.59-2.1-1.15
	c-0.66-0.29-1.32-0.59-1.98-0.88l0,0c-1.01-2.29-0.4-4.06,1.68-5.34c0-1.25-1.06-0.81-1.68-1.06c-1.71-0.56-2.01-1.76-1.52-3.32
	c3.11-3.18,3.03-3.46-1.59-5.32c-1.02-1.06-1.43-2.35-1.47-3.79c0.33-2.14,2.35-1.56,3.59-2.23c2.48-1.31,1.55-3.65,1.7-5.66
	c0.28-2.93-1.55-5.73-0.49-8.69c1.16-1.05-0.27-4.5,3.18-3.45c1.85,2.68,2.09,5.86,2.82,8.89c-0.19,3.5,1.5,6.63,2.02,9.99
	C46.21,240.66,46.55,246.4,47.98,251.97z"/>
<path class="st12" d="M43.03,263.9c-0.59-1.08-1.17-2.16-1.76-3.25c-4.29,1.16-0.76,5.57-3.23,7.42c-0.01-1.78,0.17-3.58-0.08-5.32
	c-0.47-3.23,0.72-4.82,4.02-4.73C43.22,259.82,42.99,261.88,43.03,263.9z"/>
<path class="st13" d="M36.04,244.92c-0.03,1.38-0.26,2.87,1.75,3.09c0.24,1.25,1.68,1.26,2.23,2.19c-0.67,1.82-3.87,2.03-3.03,4.8
	c-1.88-1.16-1.49-3.61-2.87-5.05c-0.13-0.22-0.26-0.43-0.4-0.65c-0.04-2.27-0.33-4.6,1.33-6.53c1.08-0.51,2.37-0.87,2.84,0.51
	C38.37,244.65,36.62,244.28,36.04,244.92z"/>
<path class="st12" d="M45.96,221.02c6.12,2.12,0.5,5.31,1.51,7.6C47.02,226.34,46.57,224.06,45.96,221.02z"/>
<path class="st14" d="M90.97,51.06c1.87-8.04,9.95-16.59,20.26-13.84c1.26,0.33,2.56,0.48,3.84,0.71c2.11-0.91,3,0,3.11,2.07
	c-1.51,1.48-3.39,1.25-5.12,0.78c-7.67-2.08-12.6,1.83-16.72,7.51c-1.06,1.46-1.78,3.19-3.66,3.86c-0.52,0.16-1,0.08-1.44-0.23
	C91.2,51.63,91.11,51.34,90.97,51.06z"/>
<path class="st15" d="M90.97,51.06c-0.36-0.32-0.79-0.59-1.07-0.97c-4.15-5.79-3.9-7.51,1.89-11.32c1.64-1.08,3.5-1.81,5.26-2.69
	c5.81-0.92,11.61-1.02,17.39,0.18c0.51,0.28,0.79,0.72,0.84,1.31c-0.75,1.52-2.17,1.45-3.41,1.12c-9.74-2.53-15.03,3.12-19.41,10.47
	C92.05,49.86,91.69,50.6,90.97,51.06z"/>
<path class="st16" d="M95.01,184.97c-1-0.32-2-0.64-3-0.96c-0.6,0.57-1.25,0.58-1.96,0.23c-0.86-3.07-1.18-5.9,2.89-6.94
	c0.62-0.16,1.21-0.68,1.43-1.3c2.07-6.06,7.76-7.51,12.65-9.97c5.17-3.11,10.36-6.2,15.52-9.34c1.11-0.67,1.99-1.77,3.45-1.73
	c5.65,2.68,9.42,11.32,5.61,17.22c-1.73-0.34-1.5-1.89-1.88-3.06c-1.9-5.79-7.22-7.99-12.76-5.25c-4.42,3.91-9.96,5.93-14.98,8.81
	c-0.51,0.41-0.98,0.87-1.35,1.42c-0.89,1.63-1.34,3.37-1.38,5.21C99.19,182.22,97.88,184.17,95.01,184.97z"/>
<path class="st17" d="M100.99,185.99c-0.99,1.33-1.98,2.66-2.97,3.99c-0.86-1.51-1.32-3.3-3.03-4.19c0.03-0.27,0.03-0.55,0.01-0.82
	c4.32-2.89,1.91-8.58,4.99-11.98C102.36,177.17,102.21,181.54,100.99,185.99z"/>
<path class="st18" d="M100.99,185.99c0.11-4.37-1.62-8.6-1-13c0.33-0.33,0.67-0.67,1-1c5.7,1.14,9.33-4.16,14.73-4.63
	c3.79-0.33,6.02,0.02,7.26,3.64c-4.08-2.06-8.12-2.09-12.31-0.12c-1.51,0.71-2.61,1.36-2.68,3.11c0.22,2.21-0.25,4.13-2.09,5.61
	C103.77,181.33,102.22,183.55,100.99,185.99z"/>
<path class="st19" d="M203.16,125.88c2.43,4.16,2.62,8.3,0.98,12.94c-2.12,5.99-3.56,12.22-5.29,18.34
	c-1.15,0.93,0.26,3.53-2.31,3.55c-4.41-0.64-8.84-0.15-13.26-0.35c-2.49-3.21-1.11-6.49-0.1-9.73c1.56-4.98,3.75-9.71,5.83-14.48
	c0.34-0.66,0.81-1.18,1.52-1.43c1.95,0.53,3.85-1.97,5.82-0.11c0.31,1.07-0.02,2.1-0.75,2.76c-4.9,4.36-4.75,9.68-2.83,15.97
	c1.45-4.68,2.93-8.9,3.64-13.14c0.71-4.25,3.83-7.75,3.15-12.42C199.36,126.17,201.04,124.8,203.16,125.88z"/>
</svg>
