<?xml version="1.0" encoding="utf-8"?>
<!-- Generator: Adobe Illustrator 26.1.0, SVG Export Plug-In . SVG Version: 6.00 Build 0)  -->
<svg version="1.1" id="Layer_1" xmlns="http://www.w3.org/2000/svg" xmlns:xlink="http://www.w3.org/1999/xlink" x="0px" y="0px"
	 viewBox="0 0 244 406" style="enable-background:new 0 0 244 406;" xml:space="preserve">
<style type="text/css">
	.st0{fill:#C3917F;}
	.st1{fill:#CB938A;}
	.st2{fill:#7C5547;}
	.st3{fill:#7E594C;}
	.st4{fill:#C79784;}
	.st5{fill:#765651;}
	.st6{fill:#6E5148;}
	.st7{fill:#74524B;}
	.st8{fill:#775850;}
	.st9{fill:#C58A85;}
	.st10{fill:#75524B;}
	.st11{fill:#7A5A52;}
	.st12{fill:#7E5D53;}
	.st13{fill:#714B44;}
	.st14{fill:#6D514D;}
	.st15{fill:#DDB9B1;}
	.st16{fill:#D1AA9F;}
	.st17{fill:#8D6257;}
	.st18{fill:#8F645F;}
	.st19{fill:#906A5A;}
	.st20{fill:#8D655E;}
	.st21{fill:#84615B;}
	.st22{fill:#927067;}
	.st23{fill:#A87472;}
	.st24{fill:#9B7370;}
	.st25{fill:#9B746A;}
	.st26{fill:#AC8170;}
	.st27{fill:#98746B;}
	.st28{fill:#A37973;}
	.st29{fill:#A27B74;}
	.st30{fill:#A2786E;}
	.st31{fill:#A98178;}
</style>
<path class="st0" d="M150.09,113.07c1.46-2.16,0.35-5.37,2.9-7.08c0.35-0.57,0.71-0.58,1.08-0.02c1.51,1.1,3.24,1.12,5,1.02
	c0.86-0.22,1.14,0.26,1.22,1c-0.38,1.27-1.13,2.3-2.08,3.2c-2.23,1.48,0.67,2.88,0.07,4.34c0.12,1.24-2.79,0.71-1.45,3.18
	c0.79,1.46-1.49,2.87-3.58,2.72C148.26,120.13,148.99,116.67,150.09,113.07z"/>
<path class="st1" d="M165.92,106.26c0.65,0.61,1.3,1.23,1.95,1.84c1.54,0.87,1.75,2.82,3.1,3.84c0,0.3-0.02,0.6-0.06,0.9
	c-0.27,0.09-0.55,0.16-0.84,0.21c-1,1.24-2.23,1.78-3.81,1.23C164.04,111.7,164.16,109.02,165.92,106.26z"/>
<path class="st0" d="M154.09,104.22c0.93-1.85,2.62-1.03,4.05-1.14C157.27,105.17,155.51,104.07,154.09,104.22z"/>
<path class="st2" d="M91.24,51.93c0.27-0.06,0.55-0.08,0.83-0.07c3.2,1.61,5.36,4.31,7.43,7.11c0.22,0.69,0.21,1.37-0.07,2.04
	c-1.46,2.02-3,1.02-4.63,0.2c-1.72-0.86-2.72-2.74-4.67-3.2c-0.6,0.42-0.99,1.13-1.76,1.31c-0.43-0.02-0.8-0.16-1.13-0.43
	c-0.7-1.2-2.49-2.02-1.29-3.85C87.56,53.75,89.06,52.25,91.24,51.93z"/>
<path class="st3" d="M115.01,36.97c-5.91-1.84-11.95-0.79-17.95-0.89c-0.03-0.32-0.01-0.63,0.09-0.93
	c5.63-0.06,11.25-0.11,16.88-0.17c0.67-0.6,1.32-0.56,1.95,0.06l-0.08,0.11c0.39,0.16,0.54,0.45,0.44,0.87
	C116.04,36.54,115.62,36.89,115.01,36.97z"/>
<path class="st4" d="M131.93,71.07c3.2,2.19,6.63,2.21,10.17,1.03c0.16,0.03,0.47,0.04,0.47,0.08c0.56,6.21,7.12,9.84,6.48,16.91
	c-0.9,9.99-0.78,20.05-4.55,29.6c-0.36,0.91,0.25,2.2,0.41,3.31c-0.37,0.56-0.6,1.21-1,1.76c-3.02,3.04-3.64,7.19-5.09,10.96
	c-0.2,0.45-0.46,0.86-0.76,1.24c-2.84,2.78-6.28,4.71-9.6,6.79c-1.8,1.13-3.81,2.16-5.71-0.01c0.13-2.15,1.78-3.18,3.34-3.98
	c7.7-3.96,10.84-10.88,11.99-18.84c0.92-6.34,3.29-12.48,2.62-19.03c1.53-6.5,0.43-13.14,0.96-19.69c0.29-3.55-1.52-5.19-4.78-5.59
	c-3.27-0.4-6.56-0.66-9.75-1.58c-1.37-0.51-2.4-1.33-2.66-2.87c0-0.58,0.21-1.09,0.6-1.51C127.76,68.18,129.84,69.65,131.93,71.07z"
	/>
<path class="st5" d="M118.97,67.94c3.74-0.21,7.5-0.51,11.09,1c0.64,0.03,1.28,0.07,1.92,0.11c-0.02,0.67-0.03,1.35-0.05,2.02
	c-2.3-0.38-4.59-0.76-6.89-1.14c-1.26,0.3-2.54,0.41-3.84,0.39c-3.71-0.55-7.44,1.34-11.15-0.08c-0.36-0.52-0.37-1.05-0.06-1.6
	C112.83,66.34,115.81,65.9,118.97,67.94z"/>
<path class="st6" d="M90.99,158.02c-0.81-0.06-1.59-0.18-2.04-0.98c-5.73-4.27-9.56-9.98-12.48-16.39
	c-2.73-5.12-4.43-10.55-4.86-16.35c3.59-1.28,4.64,2.22,6.81,3.61c0.64,1.16,0.7,2.37,0.31,3.62c-1.83,3.28-0.18,4.53,2.9,4.93
	c4.05,2.91,8.45,1.69,12.86,1.27c2.28-0.22,2.83-1.92,3.94-3.23c3.81-0.34,4.97,1.2,3.33,4.71c-1.07,1.3-2.5,2.06-4.05,2.62
	c-1.79,0.54-3.63,0.5-5.46,0.53c-1.32,0.01-2.68-0.17-3.97,0.2c-2.99,0.84-3.95,2.36-2.44,5.52c2.82,5.91,6.49,9.82,13.79,8.54
	c2.21-0.39,4.61-0.42,6.92-0.05c0.18,0.17,0.35,0.35,0.52,0.52C101.81,159.07,96.34,157.57,90.99,158.02z"/>
<path class="st6" d="M108.94,155.16c0.82,1.01,2,0.76,3.08,0.87c-1.38,1.58-3.29,0.74-4.94,1.05l-0.12-0.14
	c-0.44-1.12,0.39-1.41,1.14-1.75C108.38,155.17,108.66,155.16,108.94,155.16z"/>
<path class="st7" d="M73.02,82.04c-2.52,0.57-2.62-2.07-3.99-3.01c6.41-5.15,11.51-2.95,16.07,6.92c0.5,1.4,0.79,2.79-0.2,4.11
	c-2.14,0.09-4.42-1.26-6.37,0.65c-0.78,0.5-1.59,0.92-2.47,1.19c-2.05,0.31-3.84,1.55-5.94,1.69c-0.47-0.08-0.88-0.29-1.21-0.64
	c0.79-2.14,4.32-2.02,4.1-4.99c2.72,0.61,4.52-1.95,7.03-2.05c0.81-0.55,2.55-0.83,0.81-2.2c-0.86-0.68-1.96-1.05-2.83-1.76
	C76.32,80.35,74.68,81.93,73.02,82.04z"/>
<path class="st8" d="M65.93,95.95c-0.02-0.35-0.04-0.7-0.06-1.05c0.68-1.16,1.71-1.77,3.03-1.95c0.37,0.02,0.74,0.03,1.11,0.05
	c0.42,1.95-1.17,2.52-2.32,3.39c-0.43,0.11-0.85,0.11-1.27-0.01C66.25,96.24,66.09,96.1,65.93,95.95z"/>
<path class="st3" d="M126.98,62.95c-0.94-1.53-1.87-3.06-2.8-4.56c-1.71-0.35-2.86,1.83-5.1,0.8c1.88-2.55,3.68-5,4.91-6.68
	c-1.12-4.62-2.08-8.55-3.03-12.49c4.52,3.83,6.38,8.65,6.14,14.6c-0.14,3.48,3.01,6.54,1.86,10.33c-0.65,0.01-1.31,0.01-1.96,0.02
	C126.38,64.31,126.42,63.63,126.98,62.95z"/>
<path class="st9" d="M166.08,126.1c-3.91,1.92-7.08,0.29-10.09-2.1c0.42-0.46,1.12-1.38,1.22-1.32c5.12,3.12,8.01-0.71,11.14-3.58
	c1.36-1.25,2.62-2.47,4.67-2.1c0.57,1.98-1.39,1.29-2.06,1.96C169.33,121.34,167.71,123.72,166.08,126.1z"/>
<path class="st1" d="M159.76,114.83c0.87-0.89,0.92-1.78,0-2.67c2.32-0.39,3.96,0.24,4.29,2.85
	C162.63,114.95,161.2,114.89,159.76,114.83z"/>
<path class="st5" d="M126.98,62.95c0.01,0.67,0.01,1.35,0.02,2.02c-1.32,0.56-2.63,1.87-4.01,0.11
	C124.71,65.1,124.84,62.15,126.98,62.95z"/>
<path class="st10" d="M110,70.01c-3.34,3.36-6.67,2.32-10-0.01l0,0c-1.44-2.42,0.91-2.89,2.04-3.98c0.99-0.62,1.98-0.71,2.97,0
	c-0.4,1.21-1.57,2.16-1.22,3.75c2.07-0.25,4.14-0.5,6.22-0.75C110,69.35,110,69.68,110,70.01z"/>
<path class="st11" d="M90.75,122.14c-5.86-1.54-8.92,2.97-12.72,5.88c-2.86-0.06-3.74-3.08-6.02-4.02
	c-0.01-0.32-0.02-0.64-0.03-0.96c-0.43-0.54-0.35-0.99,0.24-1.34c5.99-0.32,11.77-2.56,17.86-2.11c2.74,0.06,5.5-0.13,8.22,0.42
	c1.59,0.5,3.03,1.24,3.93,2.73c0.17,0.53,0.09,1.02-0.23,1.47C98.15,124.01,94.21,124.42,90.75,122.14z"/>
<path class="st12" d="M79.96,133.06c-1.17,1.73,0.55,2.65,1.08,3.9c-2.85,1.73-3.55-1.07-4.58-2.45c-1.05-1.4,0.01-2.35,1.6-2.56
	c0.29,0.03,0.57,0.07,0.85,0.13C79.53,132.13,79.87,132.46,79.96,133.06z"/>
<path class="st8" d="M72,122c-0.01,0.35-0.01,0.69-0.02,1.04c-5.63-6.78-6.76-15.09-7.94-23.38c-0.23-1.61,0.38-2.92,1.89-3.7
	l0.08,0.06c0.84,7.17,2.84,14,6.03,20.49C72.91,118.28,73.61,120.18,72,122z"/>
<path class="st10" d="M112.04,64.9c-1.99,0.05-3.99,0.1-5.98,0.15c0.64-1.23,1.89-0.92,2.92-1.17
	C110.05,64.04,111.25,63.87,112.04,64.9z"/>
<path class="st13" d="M159.95,146.06c-5.58,0.32-6.84,1.76-6.95,7.94c-1.66-2.93-1.62-6.13-0.15-8.87c1.04-1.93,3.57-1.29,5.47-0.78
	C158.97,144.52,159.41,145.47,159.95,146.06z"/>
<path class="st14" d="M79.97,104.98c-2.13,6.72-0.19,9.95,6.03,10.03c-6.94,3.55-9.45,2.3-10.05-5.03c0.99-1.68,1.98-3.35,2.97-5.03
	C79.27,104.95,79.62,104.97,79.97,104.98z"/>
<path class="st15" d="M98.95,59.07c0.98-2.44,2.14-4.82,2.91-7.32c1.84-5.99,7.39-9.48,13.72-8.88c2.32,0.22,3.68,1.03,4.41,3.12V46
	c-0.99,2.63-0.2,5.68-1.89,8.15c-0.51,2.97-4.61,3.83-4.21,7.67c0.12,1.14-3.1,1.09-4.87,1.27c-3.5,0.19-7.26,1.61-9.94-2.09
	C99.03,60.35,98.99,59.71,98.95,59.07z"/>
<path class="st16" d="M118.06,39.98c2.24,1.49,2.98,3.47,1.93,6.01c-8.41-3.88-14.22-1.38-17.48,7.35
	c-0.78,2.09-1.03,4.66-3.55,5.73c-2.52-2.18-4.99-4.42-6.88-7.2c3.02-2.35,4.18-6.09,7.01-8.78c4.31-4.1,8.74-4.78,14.07-3.56
	C114.74,39.88,116.42,39.84,118.06,39.98z"/>
<path class="st17" d="M87.96,72.03c-1.37-1.23-1.76-2.41-0.59-4.19c1.25-1.9,0.82-3.74-1.49-4.76c-0.95-1.38-1.89-2.75-2.83-4.13
	c0.69-0.32,1.38-0.64,2.07-0.97c1.45-0.27,1.97,0.96,2.79,1.71c1.64,2.08,3.6,3.7,5.92,5.07c2.27,1.33,2.59,3.29-0.53,3.97
	C91.02,69.23,89.66,70.81,87.96,72.03z"/>
<path class="st18" d="M167.9,147.96c1.78-1.8,4.05-0.53,6.05-0.95c2.3-0.21,3.97,0.86,5.05,3.66c1.41-1.71,2.22-2.68,3.03-3.66
	c0.29,1.49-0.32,2.74-1.07,3.95c-1.88,0.67-1.5,2.9-2.61,3.91c-1.16,1.05-1.69,4.22-4.43,2.05c-0.47-0.58-0.62-1.24-0.53-1.97
	c0.83-2.13,0.28-3.63-1.82-4.75C170.3,149.54,168.8,149.21,167.9,147.96z"/>
<path class="st19" d="M108.94,155.16c10.71-2.05,19.24-8.44,28.12-14.13c-1.75,4.39-5.1,7.26-9.3,9.01
	c-5.18,2.17-10.49,4-15.74,5.98C110.78,156.47,109.45,157.25,108.94,155.16z"/>
<path class="st20" d="M163.01,148.98c0,0.32-0.01,0.63-0.04,0.95c-0.31,0.4-0.62,0.4-0.94,0.01c-1.58-2.49-3.77-2.44-6.03-1.23
	c-2.73,1.46-0.64,3.11-0.22,4.88c0.48,2.04,0.17,4.27,0.21,6.42h-0.5h-0.5c-1.53-1.71-0.15-4.39-2-5.99V154
	c-1.09-6.99,1.22-9.63,6.95-7.94c0.37,0.26,0.74,0.51,1.11,0.77C162.53,146.8,163.34,147.37,163.01,148.98z"/>
<path class="st21" d="M95.94,105.93c4.72-3.43,6.93,1.22,10,3.1c0.53,1.14-0.09,1.94-0.8,2.71c-2.21,1.94-4.71,1.03-7.15,0.71
	c-1.63-0.29-3.28,0.65-4.9-0.08c-1.62-1.61-1.57-4.29-3.63-5.63c-2.69-2.82-5.51-4.71-9.14-1.4c-0.47,0.1-0.93,0.05-1.38-0.12
	c-0.76-0.73-0.85-1.64-0.77-2.61c0.06-0.46,0.16-0.92,0.29-1.36c0.7-1.26,0.22-3.45,2.6-3.4c0.09,0.1,0.27,0.2,0.31,0.34
	c0.13,0.45,0.51,0.65,0.67,0.33c1.47-2.94,2.94-5.87,5.02-8.44c0.3-0.05,0.6-0.09,0.9-0.12c-0.01,0.81,0.1,1.65-0.04,2.44
	c-1.53,8.16-0.56,10.21,6.94,14.49c1.06,0.29,1.8,1.37,3.2,1.19C97.87,106.82,96.31,106.91,95.94,105.93z"/>
<path class="st19" d="M92.04,141.04c-1.02,0.64-2.04,1.28-3.06,1.92c-2.72,1.29-2.58,3.33-1.35,5.54c0.69,1.23,2.19,1.92,2.34,3.53
	c0.5,3.03,2.44,3.97,5.31,4.03c4.31,0.1,8.57-0.32,12.82-0.87c-0.38,0.59-0.76,1.17-1.14,1.76c-3.48,0.03-6.95,0.09-10.43,0.1
	c-5.46,0.02-12.34-5.41-13.08-10.68c-0.3-2.15,0.55-4.08,3.21-4.8C88.47,141.08,90.22,140.97,92.04,141.04z"/>
<path class="st22" d="M72,122c0.07-4.61-3-8.19-4.08-12.45c-1.13-4.48-2.33-8.87-1.91-13.53c0.33,0,0.67,0,1,0.01
	c-0.16,6.07,2.96,11.18,4.32,16.5c3.04,0.99,3.25-1.66,4.62-2.54c3.93,6.41,3.93,6.41,9.66,4.1c1.08-0.51,2.16-0.98,3.36-0.37
	c1.25,2.26-1.4,5.13,1.1,7.21c-4.08-0.1-8.12,0.22-11.99,1.59C75.94,123.26,73.96,123.09,72,122z"/>
<path class="st23" d="M174.99,115.9c0.73-0.91,1.46-1.82,2.2-2.73c0.94-0.75,1.88-1.49,2.81-2.24c-0.04,0.69-0.07,1.38-0.11,2.07
	c-0.7,2.54-1.43,5.06-5,4.2C174.5,116.73,174.53,116.3,174.99,115.9z"/>
<path class="st24" d="M169.02,168.01c1.94-5.84,2.98-6.21,7.7-2.9c0.64,0.45,1.49,0.61,2.24,0.91c-0.02,0.69-0.04,1.38-0.06,2.07
	c-0.34,0.41-0.63,0.36-0.89-0.08C175.01,169.93,172.01,165.22,169.02,168.01z"/>
<path class="st25" d="M85.95,55.05c-0.07,1.71,1.5,2.57,2.03,3.97c-0.12,0.55-0.44,0.89-0.99,1c-0.62-0.68-1.24-1.35-1.86-2.03
	C85.53,57.05,82.91,55.25,85.95,55.05z"/>
<path class="st26" d="M143.96,122.98c0.32-0.33,0.63-0.66,0.95-0.99c0,2.31,0,4.61,0,6.92l0.01,0.04c-0.77,1.25-0.41,3.07-1.99,3.91
	c-3.19,1.84-3.59,5.68-5.87,8.17c-7.61,8.32-17.69,11.99-28.15,14.96c-0.54,0.01-1.07,0.05-1.61,0.11
	c-4.5,1.53-9.14,0.85-13.72,0.77c-2.4-0.04-3.94-1.49-4.12-4.05c0.18-0.92,0.81-1.32,1.68-1.43c0.77,0.01,1.47,0.28,2.13,0.64
	c2.41,1.56,5.04,1.75,7.79,1.18c0.45-0.02,0.89,0,1.34,0.03c2.81-0.31,5.71-0.08,8.39-1.28c1.84-1.02,3.93-1.3,5.86-2.03
	c6.43-5.98,16.06-7.36,21.36-14.95l0,0C139.9,130.95,141.75,126.87,143.96,122.98z"/>
<path class="st27" d="M116.07,35.93c1.31,1.02,2.61,2.05,3.92,3.07c0.33,0.34,0.65,0.68,0.98,1.02c2.04,3.3,3.17,6.89,3.95,10.69
	c0.62,3-1.83,4.37-2.8,6.66c3.91-0.08,4.88,2.46,5.09,5.68c-1.83-0.21-1.88,3.28-4.21,2.04c-2.37-0.48-4.71-2.16-7.15-0.2
	c-0.92,1.2-2.17,1.12-3.46,0.93c-1.21-0.31-2.4-0.68-3.38-1.5c-0.27-0.41-0.34-0.87-0.22-1.34c4.53-1.57,5.55-6.32,8.46-9.37
	c1.93-1.85,1.47-4.34,1.79-6.62c0.05-0.43,0.13-0.86,0.21-1.29c0.42-2.08-1.1-3.75-1.18-5.72c-0.58-1.29-1.62-1.91-2.99-2.04
	c-0.03-0.32-0.06-0.64-0.07-0.97C115.36,36.62,115.72,36.28,116.07,35.93z"/>
<path class="st28" d="M161.98,165.04c-2.56-1.01-5.33-1.77-5.99-5.04c-1.56-2.72-0.84-6.02-2.37-8.84c-0.7-1.29,0.68-2.79,2.07-3.49
	c2.47-1.26,4.71-0.86,6.52,1.34c0.25,0.82-0.02,1.51-0.51,2.15c-3.48,3.79-3.68,6.02-0.92,10.03c0.38,0.56,0.6,1.15,0.24,1.81
	C161.33,163.68,161.65,164.36,161.98,165.04z"/>
<path class="st29" d="M109.01,63.08c-0.01,0.27-0.03,0.53-0.04,0.8c-0.49,0.98-1.52,1.31-2.29,1.96c-0.51,0.38-1.08,0.64-1.72,0.68
	c-0.99-0.32-1.95-0.37-2.81,0.37c-0.97,0.59-2.22,0.98-1.89,2.55c0.11,0.41,0.15,0.82,0.11,1.24c-0.16,0.42-0.43,0.75-0.8,1
	c-0.4,0.22-0.82,0.39-1.25,0.52c-3.85-0.09-5.59,1.6-5.3,5.62c0.15,2.09-0.8,4.18-1.06,6.31c-0.39,1.42-0.71,2.87-1.72,4.01
	c-0.71,0.41-1.4,0.46-2.08-0.07c0.49-3.36,2.91-6.53,0.95-10.12c0.38-2.12-0.8-3.94-1.14-5.92c0.15-4.44,3.8-3.94,8.11-4.66
	c-4.35-2.15-7.5-3.96-9.08-7.36c0.33-0.33,0.66-0.67,0.99-1L88,59.02c2.43,0.44,1.4-0.98,1.08-2.01c1.22-3.03,2.06-0.18,2.7,0.32
	c2.21,1.73,3.83,4.49,7.3,3.67C102.36,61.81,105.86,61.62,109.01,63.08z"/>
<path class="st25" d="M89.08,57.01c0.5,1.08,1.01,2.15,1.54,3.28c-1.76,0.82-2.05-0.48-2.62-1.27
	C88.83,58.61,88.99,57.83,89.08,57.01z"/>
<path class="st30" d="M122.06,69.08c-1.36,2.59-5.35,1.84-6.31,5.38c1.37,0.54,3.66,0.97,2.28,3.5c-1.9,1.98-4.74,1.58-6.95,2.76
	c-0.41,0.39-1.27,0.66-0.86,1.36c0.35,0.59,1.12,0.18,1.72,0.07c0.84-0.26,1.66-0.57,2.56-0.49c1.91,1.28,4.04,2.14,6.04,3.25
	c0.61,0.89,1.21,1.78,0.01,2.68c-2.94,1.21-5.93,0.86-8.94,0.38c-2.03-0.69-3.96-1.55-5.28-3.35c-0.53-0.84-1.12-1.82-0.99-2.72
	c0.55-3.9-0.96-6.55-4.39-8.36c-0.82-0.43-1.43-1.37-0.98-2.51C99.99,70.69,100,70.35,100,70c3.33,0.95,6.67,0.97,10,0.01
	C113.98,69.13,117.99,68.72,122.06,69.08z"/>
<path class="st31" d="M76,90.99c-3.01,2.88-4.91,6.11-4.35,10.56c0.25,1.97-0.05,4.22,2.01,5.07c2.64,1.09,3.1-1.57,4.12-3.11
	c0.35-0.53,0.79-1.01,1.19-1.52c-0.01,0.98-0.03,1.97-0.04,2.95c0.18,2.52-1.41,4.31-2.58,6.29c-4,3.63-5.55,3.34-7.33-1.55
	c-1.02-2.8-1.99-5.62-2.77-8.51c-0.49-1.83-0.64-3.6,0.77-5.15c1-1,2-2.01,3-3.01C71.94,92.13,73.71,90.78,76,90.99z"/>
<path class="st31" d="M78.97,101.97c-0.11-2.33,0.2-4.53,1.3-6.68c1.29-2.52,0.52-4.43-2.3-5.31c2.03-1.15,4.08-4.27,6.08,0.04
	c-1.01,2.67-2.02,5.33-3.04,8C80.34,99.33,79.66,100.65,78.97,101.97z"/>
<path class="st30" d="M102.04,66.02c-0.62,1.36-2.21,2.22-2.04,3.98c-0.78-0.15-1.9-0.25-1.58-1.31
	C98.92,67.02,100.22,66.07,102.04,66.02z"/>
</svg>
