<?xml version="1.0" encoding="utf-8"?>
<!-- Generator: Adobe Illustrator 26.1.0, SVG Export Plug-In . SVG Version: 6.00 Build 0)  -->
<svg version="1.1" id="Layer_1" xmlns="http://www.w3.org/2000/svg" xmlns:xlink="http://www.w3.org/1999/xlink" x="0px" y="0px"
	 viewBox="0 0 297 282" style="enable-background:new 0 0 297 282;" xml:space="preserve">
<style type="text/css">
	.st0{fill:#010107;}
	.st1{fill:#202938;}
	.st2{fill:#EAF4FB;}
	.st3{fill:#DCBCBB;}
	.st4{fill:#B9C5E4;}
	.st5{fill:#000005;}
	.st6{fill:#E3E7F0;}
	.st7{fill:#03030A;}
	.st8{fill:#13151F;}
	.st9{fill:#A87D7F;}
	.st10{fill:#0C0F1A;}
	.st11{fill:#010101;}
	.st12{fill:#1E2634;}
	.st13{fill:#C1C8DB;}
	.st14{fill:#DFE9F8;}
	.st15{fill:#ABBADC;}
	.st16{fill:#D2D6EA;}
	.st17{fill:#A2A9CE;}
	.st18{fill:#B5B7D6;}
	.st19{fill:#928AA4;}
	.st20{fill:#A18391;}
	.st21{fill:#999FC4;}
	.st22{fill:#2E3441;}
	.st23{fill:#E8E9F0;}
	.st24{fill:#A4A9CE;}
	.st25{fill:#C2B0C2;}
	.st26{fill:#8B84A1;}
	.st27{fill:#948DA9;}
	.st28{fill:#C3BFD7;}
	.st29{fill:#FCF7F9;}
	.st30{fill:#C1C0DC;}
	.st31{fill:#05060F;}
	.st32{fill:#5F6E82;}
	.st33{fill:#D9EAFB;}
	.st34{fill:#0E121D;}
	.st35{fill:#3C4858;}
	.st36{fill:#98ACD4;}
	.st37{fill:#C2C6E2;}
	.st38{fill:#707CA9;}
	.st39{fill:#ABA7C9;}
	.st40{fill:#02030A;}
	.st41{fill:#4E5A6D;}
</style>
<path class="st0" d="M206.8,219.74c-6.72,2.65-12.23,1.05-16.15-4.8c-4.95,0.85-1.27,5.89-3.73,7.88
	c-3.15-6.26-1.25-17.21,3.68-21.38c0.72-0.58,1.43-1.22,2.16-1.81c0.43-0.26,1.19-0.14,1.13-0.95c-1.43-0.17-1.43,1.4-2.35,1.81
	c-3.34,1.89-3.62-0.2-3.59-2.71c0.76-2.88,3.74-4.57,4.1-7.67c0.04-0.44,0.14-0.86,0.28-1.28c0.67-1.37,1.74-2.38,2.96-3.24
	c0.33-0.2,0.69-0.37,1.06-0.52c0.98-0.39,1.34-1.3,1.76-2.17c0.2-0.39,0.44-0.73,0.71-1.07c1.65-2.01,4.38-2.47,6.11-4.35
	c1.2-0.81,2.48-1.29,3.96-1c0.68,0.3,1.18,0.77,1.54,1.41c0.4,0.88,0.48,1.8,0.38,2.74c-0.16,1.1-0.55,2.15-0.86,3.22
	c-0.72,1.62-0.2,3.32-0.24,4.99c-0.04,0.43-0.14,0.85-0.26,1.26c-1.38,1.68,1.87,3.63-0.3,5.27c-0.4,0.21-0.81,0.37-1.23,0.51
	c-3.27,2.9-3.85,4.03-4.77,10.04c1.82-2.66,4.47-4.57,6.16-7.34c0.17-0.66,0.36-1.31,0.58-1.96c0.47-1.32,1.37-2.37,2.11-3.52
	c1.48-7.93,7.22-13.23,11.83-19.23c4.37-5.05,9.75-8.95,15-12.98c2.1,3.4,2.16,6.28-0.71,9.68c-3.8,4.5-6.51,9.96-11.25,13.66
	c-3.23,2.52-1.39,6.97-4.06,9.6c0.54,1.94-1.14,2.66-2.19,3.48c-6.93,5.43-9.62,13.75-14.31,20.7
	C205.88,218.64,206.31,219.25,206.8,219.74z"/>
<path class="st1" d="M206.8,219.74c-0.64,0-1.28,0-2.5,0c5.14-9.76,9.35-19.57,18.51-25.92c1.01,0.02,2.02,0.03,3.02,0.05
	c0.92,1.16-0.19,2.8,0.92,3.92c-0.66,1.98-1.32,3.97-1.98,5.95c-2.2,0.24-1.88-1.64-2.22-2.81c-0.41-1.37-0.97-1.9-2.28-1.01
	c-2.97,2.23-4.75,5.31-6.38,8.55c-1.67,3.33-2.92,6.96-6.06,9.35C207.49,218.46,207.15,219.1,206.8,219.74z"/>
<path class="st2" d="M208.87,177.16c-1.27,0.7-2.56,1.3-4.06,0.77c-0.19-0.12-0.38-0.23-0.57-0.35c-1.31-1.6-1.44-3.15,0.5-4.55
	c-1.08-0.25-1.87-0.47-2.57-0.9c-0.74-0.43-1.46-0.9-2.23-1.3c-0.39-0.17-0.77-0.36-1.15-0.56c-1.72-0.71-2.68-2.13-3.5-3.71
	c-0.37-1.47,0.2-2.71,0.93-3.93c0.68-1,1.49-1.84,2.57-2.41c0.65-0.3,1.33-0.46,2.03-0.54c2.89-0.31,5.84,0.86,8.72-0.28
	c1.1-0.1,1.72,0.51,2.12,1.44c0.12,3.68,0.23,7.36,0.35,11.03C211.84,174.16,211.89,176.57,208.87,177.16z"/>
<path class="st3" d="M127.77,228.06c2.56-1.85,1.71,2.38,3.67,1.85c0.94-1.01,0.87-3.08,3.67-3.64c4.46,6.08,7.47-3.45,11.75-2.34
	c2.1,2.06-2.02,4.39,1.02,5.91c-0.4,1.19-1.34,1.75-2.45,2.11c-4.84,0.5-9.55,2.94-14.57,1.07c-0.21-0.23-0.47-0.33-0.77-0.29
	c-0.78-0.4-1.18-1.04-1.25-1.91C128.48,229.9,128.12,228.98,127.77,228.06z"/>
<path class="st4" d="M126.92,219.98c0.1,1.62-0.33,2.98-1.82,3.85c-1.72-2.67-3.44-5.35-5.16-8.02c0.81-2.5,0.75-4.98-0.37-7.86
	c0.96,0.38,1.64,0.65,2.31,0.91c3.04,1.09,5.21,2.78,4.52,6.44c-0.17,0.18-0.36,0.39-0.59,0.61c0.4-0.06,0.78-0.26,1.18,0.03
	C127.65,217.31,127.56,218.65,126.92,219.98z"/>
<path class="st5" d="M128.83,230.82c0.42,0.64,0.83,1.27,1.25,1.91c-1.06,0.36-2.12,0.71-3.19,1.07
	C126.9,232.39,127.55,231.4,128.83,230.82z"/>
<path class="st5" d="M125.9,233.8c-1.06,1.42-2.61,0.88-4,1C122.96,233.37,124.51,233.92,125.9,233.8z"/>
<path class="st6" d="M121.9,207.75c3.54,2,5.38,5.13,6.08,9.04c-0.17,1.13,0.02,2.37-1.07,3.19c-0.2-1.42,0.4-3.03-1.03-4.15
	l-0.01-0.01c0.55-3.41-2.79-4.58-4.02-6.97C121.88,208.48,121.89,208.12,121.9,207.75z"/>
<path class="st7" d="M192.83,189.82c1.06,3.62-1.95,5.01-3.83,7.02c-0.19-0.16-0.39-0.32-0.58-0.47c-0.74-1.97,0.09-3.88,0-5.86
	c-0.15,1.15,0.01,2.36-0.28,3.52c0.14,7.02-3.59,13.43-2.93,20.58c0.28,3.04,2.31,6.02,0.62,9.19c-2.89-1.83-5.2,1.31-7.82,0.97
	c-7.01-0.92-13.36,2.16-20.06,3.05c1.19-4.43,5.24-6.28,8.26-9.02c1.8-1.64,4.15-2.66,5.77-4.55c2.81-3.2,5.06-6.77,7.04-10.52
	c0.74-1.41,1.8-2.55,2.99-3.59c0.43-0.5,0.81-1.04,1.14-1.62c0.83-3.17-0.19-6.57,1.29-9.64c0.2-0.45,0.45-0.86,0.75-1.25
	c0.66-0.76,1.45-1.28,2.46-1.42c1.5-0.01,2.69,0.58,3.49,1.87C191.38,188.95,192.08,189.41,192.83,189.82z"/>
<path class="st8" d="M185.84,223.81c-1.32-6.53-3.76-13.15-0.94-19.69c1.46-3.38,1.46-7.02,2.93-10.3c0.97,0.79,0.03,2.23,1.02,3.01
	c0,0,0.14,0.01,0.14,0.01c0.01,1.88-1.09,4.84,2.84,2.98c0.31,0.22,0.42,0.44,0.32,0.66c-0.1,0.23-0.2,0.34-0.3,0.34
	c-5.92,6.37-4.92,14.3-4.95,21.99C186.56,223.15,186.2,223.48,185.84,223.81z"/>
<path class="st9" d="M156.86,227.75c0.11-2.81,3.2-3.62,4.01-5.96c2.07-3.01,5.41-4.58,8-7.01c1.14-1.07,2.66-1.19,3.97,0.03
	c-4.96,4.34-9.92,8.69-14.88,13.03C157.59,227.8,157.23,227.78,156.86,227.75z"/>
<path class="st10" d="M210.81,198.81c-2.8,3.52-5.61,7.04-8.5,10.67c-2.12-4.84,1.38-13.75,5.52-14.68
	C208.9,196.07,208.57,198.39,210.81,198.81z"/>
<path class="st11" d="M204.81,177.93c-0.56,3.56-4.3,2.89-6.21,4.65c-0.67-0.8-0.68-1.71-0.51-2.67c0.22-0.93,0.55-1.82,0.99-2.67
	c2.15-3.12,4.01-1.41,5.88,0.34L204.81,177.93z"/>
<path class="st10" d="M212.9,193.95c-0.7,0.97-1.41,1.94-2.11,2.91c-1.59,0.24-2.29-0.38-1.98-2.01c1.22-1.66-4.33-3.39,0.05-5.01
	c2.03,0.57,2.29,2.9,3.88,3.9C212.74,193.75,212.9,193.95,212.9,193.95z"/>
<path class="st12" d="M208.81,194.85c0.66,0.67,1.32,1.34,1.98,2.01c0.01,0.65,0.01,1.3,0.02,1.95c-1.11,0.45-2.14,1.5-3.5,0.44
	c-1.05-1.6,0.67-2.93,0.52-4.45C208.16,194.81,208.48,194.83,208.81,194.85z"/>
<path class="st7" d="M191.87,200.82c-0.01-0.33-0.02-0.67-0.03-1c-0.05-1.53,0.12-2.92,2.07-3.27c1.4,0.27,0.71,1.47,0.92,2.28
	c-0.11,0.56-0.43,0.9-1,1C193.18,200.16,192.53,200.49,191.87,200.82z"/>
<path class="st13" d="M199.05,180.19c-0.15,0.8-0.3,1.59-0.45,2.39c0,0,0.01,0.01,0.01,0.01c-0.39,1.16-0.65,2.41-1.86,3.08
	c-0.29,0.08-0.58,0.18-0.86,0.29c-0.42-0.32-0.71-0.74-0.85-1.25c-0.15-0.78-0.08-1.55,0.16-2.3c0.44-1.18,1-2.32,2-3.1
	C198.29,178.46,199.21,178.29,199.05,180.19z"/>
<path class="st14" d="M195.83,184.89c0.02,0.36,0.05,0.71,0.07,1.07c-0.46,1.52-1.6,2.29-3.02,2.76c-0.77-0.05-1.25-0.48-1.53-1.17
	C191.69,184.72,193.66,184.64,195.83,184.89z"/>
<path class="st11" d="M191.9,187.94c0.32,0.26,0.65,0.52,0.97,0.77c-0.01,0.37-0.03,0.74-0.04,1.1c-0.83,0.47-1.65,0.94-2.48,1.41
	c-0.78-1.24-0.18-1.93,0.7-2.52C191.16,188.26,191.46,188.01,191.9,187.94z"/>
<path class="st11" d="M193.84,199.83c0.33-0.33,0.66-0.67,1-1c0.81,0.11,1.71,0.21,1.6,1.31c-0.04,0.38-0.51,0.95-0.87,1.02
	C194.6,201.36,194.2,200.56,193.84,199.83z"/>
<path class="st11" d="M196.76,185.66c0.62-1.03,1.24-2.05,1.86-3.08C198.51,183.92,199.9,186.16,196.76,185.66z"/>
<path class="st15" d="M204.96,177.58c-1.74-0.56-3.57-2.98-5.1,0.27c-1.89,0.53-3.25-0.19-4.25-1.77c-0.29-1.41,0.7-2.1,1.58-2.85
	c1.43-1,2.98-1.79,4.64-2.36c2.23,0.87,4.45,1.75,6.81,2.67c-1.36,2.47-3.15-0.35-4.6,1.09
	C204.32,175.51,204.64,176.55,204.96,177.58z"/>
<path class="st16" d="M201.83,170.86c-0.16,2.55-2.7,1.95-3.99,3c-1.28-0.33-3.35,2.5-3.85-0.96c2.97-1.3,0.09-4.41,1.88-6.08
	c1.32,1.01,2.64,2.02,3.96,3.03l0,0C200.5,170.19,201.17,170.53,201.83,170.86z"/>
<path class="st17" d="M125.89,215.83c-0.07,1.38-0.13,2.75-0.21,4.44C123.19,217.36,123.19,217.36,125.89,215.83
	C125.88,215.82,125.89,215.83,125.89,215.83z"/>
<path class="st18" d="M191.9,187.94c-0.28,0.25-0.57,0.51-0.85,0.76c-1.08-0.63-2.15-1.25-3.23-1.88c-0.65-0.55-1.28-1.11-1.45-2
	c-0.05-0.43-0.01-0.85,0.11-1.27c0.56-1.16,1.26-2.24,2.07-3.24c0.64-0.63,1.37-1.06,2.28-1.07c1.75,0.11,2.62,2.01,4.36,2.17
	c0.59,0.29,1.1,0.61,0.64,1.38c0,0.7-0.01,1.39-0.01,2.09C194.89,186.38,192.05,185.43,191.9,187.94z"/>
<path class="st19" d="M185.93,188.8c-2.79,3.31,0.17,7.68-2.05,11.09c-1.46-2.77-2.4-6.02-6.19-6.59c-1.3-0.45-2.57-0.95-3.64-1.87
	c-0.51-0.53-0.77-1.15-0.73-1.88c0.12-0.47,0.38-0.83,0.79-1.08c0.46-0.12,0.92-0.13,1.38-0.07c2.14,0.38,4.19,1.97,6.48,0.48
	C183.29,188.38,184.59,187.67,185.93,188.8z"/>
<path class="st20" d="M185.93,188.8c-1.45,0.38-2.9,0.77-4.34,1.15c-1.77,0.09-2.7-0.84-3.05-2.49c1.31-2.64,3.81-3.56,6.36-4.41
	c0.77-0.01,1.45,0.2,1.96,0.81c0.02,0.33,0.04,0.65,0.07,0.98c0.42,1.39-0.84,2.27-1.05,3.47l0.23,0.23L185.93,188.8z"/>
<path class="st21" d="M177.9,191.85c1.87,0.9,3.73,1.79,5.98,2.87c0,1.69,0,3.43,0,5.18c-0.34,0.35-0.68,0.7-1.02,1.04
	c-0.18-0.14-0.35-0.28-0.53-0.42c-0.27-0.36-0.48-0.76-0.66-1.17c-0.23-1.63-1.63-2.34-2.61-3.4
	C178.02,194.81,176.4,193.74,177.9,191.85z"/>
<path class="st22" d="M188.86,196.84c-1.26-0.69-0.94-1.92-1.02-3.01c0.09-1.36,0.19-2.71,0.28-4.07c0.25,0.02,0.5,0.03,0.74,0.05
	C188.86,192.15,188.86,194.49,188.86,196.84z"/>
<path class="st23" d="M185.87,188.3c0.35-1.16,0.7-2.31,1.05-3.47c0.89,0.4,0.94,1.18,0.91,1.99
	C187.17,187.32,186.52,187.81,185.87,188.3z"/>
<path class="st24" d="M195.84,182.79c-0.33-0.32-0.67-0.64-1-0.95c-1.53-1.42-1.52-3.27-1.44-5.15c0.5-1.17,1.23-1.68,2.44-0.86
	c1.34,0.67,2.69,1.34,4.03,2.02c-0.27,0.78-0.53,1.56-0.8,2.34C196.53,179.27,197.42,182.56,195.84,182.79z"/>
<path class="st25" d="M195.83,175.84c-0.67,0.33-1.34,0.66-2.01,0.99c-0.8,1.15-1.8,1.72-3.19,1.04c-0.62-1.44,0.03-2.36,1.26-3.03
	c0.7-0.64,1.4-1.28,2.1-1.92c0.87,2,2.81-0.32,3.85,0.96C197.17,174.52,196.5,175.18,195.83,175.84z"/>
<path class="st26" d="M177.9,191.85c-0.22,3.82,5.84,3.75,4.94,7.99c-0.69,0.59-1.36,0.54-2.01-0.07l0.03-0.03
	c-2.43-0.79-4.34-2.77-7-3.04c-0.41-0.18-0.75-0.45-1.02-0.81c-0.32-0.64-0.63-1.29-0.95-1.93c-0.01-0.57,0.25-1.03,0.61-1.44
	c0.33-0.4,0.63-0.82,0.9-1.27c0.11-0.13,0.23-0.26,0.34-0.39C175.13,191.19,176.52,191.52,177.9,191.85z"/>
<path class="st27" d="M189.93,177.92c0.31-0.05,0.63-0.08,0.94-0.1c0.98-0.33,1.96-0.67,2.95-1c1.62,1.41,0.79,3.32,1.01,5.02
	c-0.37,0.45-0.74,0.91-1.22,1.5c-1.09-1.25-1.11-3.13-2.83-3.54C190.02,179.39,189.37,178.93,189.93,177.92z"/>
<path class="st28" d="M174.78,188.88c1.33-0.41,2.67-0.82,4-1.24c0.93,0.77,1.87,1.54,2.8,2.31
	C178.84,192.65,176.99,189.63,174.78,188.88z"/>
<path class="st29" d="M180.83,199.77c0.67,0.02,1.34,0.05,2.01,0.07c-0.02,0.32-0.16,0.59-0.4,0.81
	C181.9,200.36,181.37,200.06,180.83,199.77z"/>
<path class="st30" d="M172.93,192.75c0.01-0.74-0.08-1.54,0.94-1.72c0.28,0.68,0.56,1.37,1.11,2.69
	C173.91,193.21,173.42,192.98,172.93,192.75z"/>
<path class="st31" d="M231.8,155.01c1.67,0.02,3.34,0.03,5.02,0.05c1.15,0.53,1.63,1.71,0.46,2.15c-4.37,1.68-8.79,3.7-13.37,4.19
	c-3.19,0.34-5.19-3.03-6.69-5.87c-0.46-0.87-0.71-1.81-0.79-2.01c2.2,3.85,2.11,8.6,0.77,13.44c-0.13,0.73-0.34,1.44-0.6,2.13
	c-1.28,1.67-0.86,4.76-4.04,4.85c-0.9-0.66-1.4-1.56-1.73-2.59c-0.75-3.1-0.37-6.25-0.52-9.38c0.23-1.51-0.43-2.93-0.46-4.42
	c0-0.49,0.06-0.97,0.16-1.45c0.25-0.92,0.63-1.8,0.97-2.7c0.56-1.34,0.53-2.83,1.07-4.18c1.57-2.52,3.33-4.67,6.78-3.64
	c2.82,3.04,4.46,7.08,8,9.52C228.51,155.49,230.16,155.63,231.8,155.01z"/>
<path class="st32" d="M215.72,168.67c0.43,0.75,0.85,1.5,1.28,2.26c0.63,2.17-0.3,3.85-1.69,5.39c-1.53,1-2.82,1.31-3.14-1.12
	c0.07-0.51,0.3-0.94,0.69-1.28C213.81,172.17,214.76,170.42,215.72,168.67z"/>
<path class="st11" d="M212.85,173.92c0.03,0.3,0.01,0.6-0.05,0.9c-1,0.95,0.27,2.99-1.68,3.49c-0.49,0.04-0.91-0.11-1.26-0.44
	c-0.33-0.23-0.66-0.47-0.99-0.7c1.05-1.76,2.09-3.52,3.14-5.28C212.29,172.56,212.57,173.24,212.85,173.92z"/>
<path class="st33" d="M210.72,156.86c-0.46,0.14-0.91,0.28-1.37,0.42c0-0.43-0.14-0.94,0.04-1.28c0.38-0.71,0.95-0.82,1.49-0.08
	C210.92,156.25,210.87,156.56,210.72,156.86z"/>
<path class="st34" d="M214.78,175.82c0.74-1.63,1.48-3.27,2.22-4.9c0.58-0.39,1.16-0.78,1.73-1.17c1.76,0.58,1.19,2.09,1.3,3.33
	c0.99,0.47,1.79-1,2.78-0.25c0.34,0.34,0.68,0.68,1.02,1.03c-1,5.66-5.9,8.95-8.63,13.58c-1.31,2.23,0.62,5.24-2.31,6.51
	c-0.19-0.1-0.38-0.19-0.57-0.29c-1.34-1.35-1.97-3.23-3.33-4.57c-0.35-1.79-1.55-3.57-0.06-5.38
	C212.32,182.15,211.83,177.71,214.78,175.82z"/>
<path class="st35" d="M214.78,175.82c-1.15,3.17-2.3,6.34-3.41,9.41c-1.58,0.41-1.62-1.11-2.43-1.51c0.33-0.92,0.66-1.84,0.98-2.75
	c0.82-0.86-0.1-2.29,1.01-3.05c0.62-1.03,1.25-2.06,1.87-3.09C212.82,176.41,213.56,176.59,214.78,175.82z"/>
<path class="st36" d="M200.86,160.85c0.63-0.72,1.27-1.45,1.9-2.17c0,0,0.15,0.32,0.15,0.32c0.59,0.41,1.18,0.43,1.76-0.03
	c1.52,1.48,3.71-0.76,5.2,0.92C207.18,163.18,203.81,160.01,200.86,160.85z"/>
<path class="st37" d="M201.47,166.11c-0.26,0.14-0.5,0.27-0.75,0.4c-0.12-0.33-0.25-0.66-0.37-0.99c0.27-0.07,0.6-0.26,0.78-0.16
	C201.32,165.46,201.36,165.84,201.47,166.11z"/>
<path class="st38" d="M204.67,158.97c-0.57,0.98-1.15,1.01-1.76,0.03C203.5,158.99,204.08,158.98,204.67,158.97z"/>
<path class="st39" d="M199.83,169.85C199.51,170.14,199.19,170.42,199.83,169.85C198.99,170.08,199.41,169.97,199.83,169.85
	C199.83,169.85,199.83,169.85,199.83,169.85z"/>
<path class="st40" d="M219.79,198.81c2.59,0.35,3.35,1.69,2.49,4.18c-1.23,3.58-2.32,7.22-3.46,10.83c-3.18,2.64-6.09,6.04-10.98,4
	C211.58,211.33,213.15,203.48,219.79,198.81z"/>
<path class="st41" d="M212.74,193.75c-2.94,0.33-2.91-2.28-3.88-3.9c0.08-0.24,0.12-0.5,0.14-0.75
	C212.29,188.99,212.19,191.64,212.74,193.75z"/>
<path class="st34" d="M210.93,177.91c-0.34,1.02-0.67,2.03-1.01,3.05c-0.02-1.03-0.04-2.07-0.06-3.1
	C210.22,177.88,210.57,177.89,210.93,177.91z"/>
</svg>
