<?xml version="1.0" encoding="utf-8"?>
<!-- Generator: Adobe Illustrator 26.1.0, SVG Export Plug-In . SVG Version: 6.00 Build 0)  -->
<svg version="1.1" id="Layer_1" xmlns="http://www.w3.org/2000/svg" xmlns:xlink="http://www.w3.org/1999/xlink" x="0px" y="0px"
	 viewBox="0 0 297 282" style="enable-background:new 0 0 297 282;" xml:space="preserve">
<style type="text/css">
	.st0{fill:#1D1D1D;}
	.st1{fill:#1B1C1C;}
	.st2{fill:#212122;}
	.st3{fill:#2E1C1C;}
	.st4{fill:#1D1317;}
	.st5{fill:#12080F;}
	.st6{fill:#1A1821;}
	.st7{fill:#212328;}
	.st8{fill:#121213;}
	.st9{fill:#2D1A20;}
	.st10{fill:#231112;}
	.st11{fill:#1D080A;}
	.st12{fill:#1A0A0E;}
	.st13{fill:#2D2225;}
	.st14{fill:#261217;}
	.st15{fill:#211116;}
	.st16{fill:#21181C;}
	.st17{fill:#1B1619;}
	.st18{fill:#202224;}
	.st19{fill:#171216;}
	.st20{fill:#211519;}
	.st21{fill:#200D11;}
	.st22{fill:#291820;}
	.st23{fill:#2F1D1F;}
	.st24{fill:#180D0F;}
	.st25{fill:#170B0E;}
	.st26{fill:#200D0E;}
	.st27{fill:#17090C;}
	.st28{fill:#2D1C1A;}
	.st29{fill:#341E20;}
	.st30{fill:#3B2A2D;}
	.st31{fill:#332122;}
	.st32{fill:#352C2E;}
	.st33{fill:#331F21;}
	.st34{fill:#331F1E;}
	.st35{fill:#3D2324;}
	.st36{fill:#3D292D;}
	.st37{fill:#452A2B;}
</style>
<path class="st0" d="M295.76,281.75c-54.62,0-109.24,0-163.86,0c-0.98-1.71-1.57-3.33,0.96-4.24c5.71,2.79,11.82,1.39,17.79,1.61
	c35.79-0.2,71.56,0.01,107.33-0.07c3.15-0.01,6.34,0.24,9.34-0.98c1.07-0.38,2.19-0.76,3.36-0.39c7.94,2.52,15.85,2.37,23.75-0.13
	c0.49-0.15,0.98-0.03,1.46,0.1C296.36,279.03,296.53,280.41,295.76,281.75z"/>
<path class="st1" d="M0,280.76c2.65,0,5.3,0,7.96,0c1.04-1.9,1.97-3.58,3.74-6.79c-0.22,3.08-0.32,4.51-0.48,6.8
	c38.36,0,76.52,0,114.68,0c0.34,0.22,0.45,0.44,0.33,0.66c-0.11,0.22-0.23,0.33-0.35,0.33c-40.63,0-81.27,0.01-121.9-0.06
	C2.7,281.69,0.9,282.82,0,280.76z"/>
<path class="st2" d="M295.76,281.75c-0.01-1.34-0.02-2.68-0.03-4.02c-2.38-2.61-1.44-5.84-1.66-8.85
	c-0.25-3.41,0.53-6.81,0.06-10.22c-0.06-17.83-0.32-35.66,0.11-53.5c0.3-5.36-1.56-10.93,1.5-16.04c0.34-0.1,0.68-0.2,1.02-0.29
	c0,29.64,0.02,59.28-0.06,88.92C296.69,279.05,297.82,280.86,295.76,281.75z"/>
<path class="st3" d="M130.79,26.7c2.35-2.24,4.71-4.49,7.06-6.73c2.16-1.32,3.33-0.54,3.77,1.78c0.34,1.78,0,3.54-0.2,5.23
	c1.01,1.93,4.99,1.04,4.13,4.58c-2.36,4.54-5.84,7-11.13,6.12C131.04,34.75,131.94,30.39,130.79,26.7z"/>
<path class="st4" d="M127.88,43.97c-3.3-1.25-5.22-5-9.16-5.08c3.71-4.38,6.63-9.53,12.08-12.18c0.3,1.66,1.99,1.79,3.68,2.55
	c-3.43,2.69,0.22,5.17-0.6,7.7c-0.57,0.84-1.47,1.07-2.37,1.28c-2.38,0.21-2.82,1.59-2.19,3.64
	C129.31,42.9,128.9,43.64,127.88,43.97z"/>
<path class="st5" d="M118.92,92.92c-0.18,1.54-0.77,2.87-1.89,3.97c1.59-5.38-1.72-10.98,0.72-16.32c0.57,1.21,1.25,2.33,2.09,2.62
	c5.91-0.32,4.78-11.71,13.07-7.31c-0.83,1.43-2.93,1.39-3.73,3.31c1.65,1.45,3.92,1.06,5.73,1.89c0.63,0.31,1.1,0.76,1.24,1.47
	c-0.58,1.47-2.07,2.16-2.94,3.38c-1.05,0.54-2.51-0.12-3.35,1.12c-2.09,2.67-2.09,2.67-7.26-0.2
	C120.48,88.29,120.56,91.17,118.92,92.92z"/>
<path class="st6" d="M249.87,45.84c-2.91-0.01-3-1.69-2.27-3.85C248.86,42.98,249.82,44.14,249.87,45.84z"/>
<path class="st7" d="M85.91,199.8c-0.36-0.01-0.72-0.02-1.08-0.04c-0.76-0.84-1.99-0.09-2.78-0.83c0-0.74,0-1.48,0-2.22
	c0.98-0.45,1.96-0.64,2.89,0.12C85.26,197.82,85.59,198.81,85.91,199.8z"/>
<path class="st8" d="M268.78,278.76c0.31-2.22,1.32-4.02,3.03-5.41c4.36,3.13,13.71,0.2,17.78-5.16c2.28-3.01,3-7,6.14-9.41
	c0,6.32-0.01,12.64-0.01,18.96c-5.07,3.96-20.31,4.39-26.01,0.78C269.52,278.4,269.09,278.67,268.78,278.76z"/>
<path class="st9" d="M115.95,132.89c3,4.19,1.73,9.58,3.94,13.99c1.69,1.66,2.01,3.67,1.5,5.9c-0.6,0.98-1.39,1.57-2.61,1.25
	c-2.35-2.35-1.94-5.64-2.85-8.47c-0.19-0.91-0.28-1.85-0.36-2.79c-0.29-1.26,0.08-2.62-0.6-3.83
	C117.14,137.22,115.54,134.89,115.95,132.89z"/>
<path class="st10" d="M140.89,48.96c0.2,1.4-0.47,3.02,1.41,4.42c3.46-6-0.52-15.72,8.64-18.41c-1.1,7.59-5.61,14.8-3.17,23.05
	c1.88,1.88,1.61,3.78,0.2,5.65c-1.49,0.42-1.74-0.64-2.19-1.52c0.41,3.17,1.12,6.3-0.25,9.38c-0.32,0.49-0.76,0.73-1.32,0.75
	c-1.51-0.44-2.02-1.57-2.11-2.99c0.88-4.39,0.57-8.59-2.19-12.35C140.29,54.29,138.92,51.42,140.89,48.96z"/>
<path class="st11" d="M139.91,56.95c5.67,2.78,4.22,7.42,3.15,11.97c-1.14-0.45-1.57-1.56-2.28-2.42c-0.45-0.65-0.69-1.39-0.82-2.14
	c-1.51,2.07-2.18,4.67-4.03,6.56c-1.83-1.36-2.18-3.16-1.24-5.13c-1.83-1.07-3.44,0.97-5.16-0.41c-0.69-1.69,0.57-2.79,1.72-4.07
	c1.42,0.03,0.62,3.11,3.28,2.04C137.72,62.05,139.3,60.08,139.91,56.95z"/>
<path class="st3" d="M140.93,41.99c-4.02,0.74-8.03,0.42-12.04-0.03c-4.2-3.62-0.78-4.17,2.01-4.98c-0.91,2.21,0.67,2.18,1.97,1.95
	c3.54-0.62,7.04-1.41,10.64-2.15c0.78,2.14-0.12,3.75-1.63,5.18C141.56,41.97,141.25,41.98,140.93,41.99z"/>
<path class="st12" d="M138.87,78.94c-0.01-0.31-0.01-0.63,0.01-0.94c-0.66-2.03-1.32-4.07-1.97-6.1c0.54-0.57,0.82-1.33,1.33-1.93
	c0.53-0.65,1.09-1.23,1.98-1.34c0.68,0.14,1.09,0.57,1.34,1.19c0.26,1.41,0.26,2.92,1.37,4.07c0.81,1.16,1.55,2.33,1.88,3.73
	c0.17,1.91,0.05,3.64-2.4,3.95C140.74,81.33,139.43,80.64,138.87,78.94z"/>
<path class="st10" d="M141.84,43.94c0.05,1.12,0.17,2.26-0.91,3.04C140.89,45.87,140.76,44.72,141.84,43.94z"/>
<path class="st13" d="M193.9,20.01c1.21-0.17,2.59,0.34,3.56-0.85c0.78-1.46-0.72-2.33-0.9-3.54c1.09-0.55,2.18-1.11,3.26-1.66
	c2.4-3.38,5.09-5.38,8.97-1.95c-0.02,1.62,1.22,2.53,2.41,3.49c-1.61,0.86-3.36-0.03-4.43,1.36c-0.4,1.13-1.44,1.66-2.26,2.4
	c-1.68,3.07-3.47,6-7.66,5.68c-2.99-0.33-6.06-0.16-8.86-1.58c-1-2.1,0.95-2.17,1.97-2.88c1.05-0.4,2.13-0.69,3.28-0.57
	C193.46,19.96,193.68,19.98,193.9,20.01z"/>
<path class="st14" d="M118.92,92.92c0.49-3.01,0.59-6.17,3.27-8.8c1.88,1.64,3.57,3.11,5.43,4.72c0.49-1.1,0.9-2.01,1.3-2.91
	c1.45,0.45,2.5,1.17,1.99,2.94C127,90.47,122.41,90.09,118.92,92.92z"/>
<path class="st15" d="M237.82,38.98c-2.18,0.58-1.57,2.97-2.68,4.29c-2.7-3.66-2.79-4.17-1.81-10.74
	C235.74,34.21,237.95,35.72,237.82,38.98L237.82,38.98z"/>
<path class="st16" d="M209.83,30.98c-1.54-2.26-3.08-4.53-5.6-8.22c3.04,1.53,4.79,2.41,6.53,3.29c0.01,0.31,0.01,0.62,0.01,0.94
	C211.08,28.45,211.18,29.89,209.83,30.98z"/>
<path class="st17" d="M143.87,238.87c-1.95-2.71-1.95-2.71,4.19-6.43c-0.73-0.56-1.46-1.12-2.18-1.67c0.67-0.31,1.34-0.62,2.01-0.93
	c1.73-0.01,3.47,0.02,5.02-0.96c0.99-0.04,1.97-0.09,2.96-0.13c-1.72,2.58-3,5.52-5.93,7.09
	C147.05,235.15,146.5,239.09,143.87,238.87z"/>
<path class="st18" d="M175.84,250.71c1.63,1.45,4.86,2.58,1.01,5.1C175.83,254.24,174.3,252.78,175.84,250.71z"/>
<path class="st19" d="M161.81,37.96c0.02-1,0.04-1.99,0.06-2.99c0.02-0.64,0.04-1.28,0.06-1.92c0.14-1.6,1.36-2.31,2.51-3.09
	c1.34-0.77-0.11-2.23,0.77-3.13c3.76-0.89,7.48-1.4,10.8,1.38c0.58,0.36,1.13,0.73,1.65,1.14c1.42,1.12,3.42,2.18,2.41,4.34
	c-1.02,2.19-3.04,2.32-5.11,1.17c-0.02-0.61-0.85,0.48-0.32,0.07c0.36-0.28,0.32-0.13,0.45,0.26c0.31,0.89,0.15,1.63-0.46,2.27
	C171.7,40.55,164.98,40.8,161.81,37.96z"/>
<path class="st20" d="M161.81,37.96c5.47,2.87,11.96,0.85,12.38-4.2c1.83,0.49,3.94,1.86,5.29-0.82c-0.49-2.49-3.54-2.11-4.62-3.97
	c0.35-2.82,2.11-4.05,4.78-4.24c1.42-0.31,2.72,0.75,4.23,0.44c0.64-1.91,1.45-3.64,3.98-2.21c3,0.34,6,0.68,9,1.02
	c-0.68,0.99-1.36,1.98-2.04,2.96c0,0,0.05,0.05,0.05,0.05c10.12-2.69,11.73-1.49,12.06,8.98c1.91,2.2,1.38,4.69,0.89,7.18
	c-0.29,0.79-0.8,1.42-1.54,1.84c-0.5,0.23-1.01,0.26-1.53,0.1c-0.57-0.53-0.89-1.21-1.1-1.94c-0.72-5.19-0.72-5.19-3.39-7.98
	c0.18,2.36,0.65,4.53-1.29,6.02c-0.46,0.15-0.91,0.16-1.36,0.01c-1.49-0.65-1.36-2.42-2.47-3.78c0.26,3.67,1.97,7.67-1.74,9.69
	c-2.5,1.36-5.38-0.17-7.5-2.26c-5.22-4.03-10.78-6.1-17.54-4.15C165.94,41.42,162.7,41.89,161.81,37.96z"/>
<path class="st21" d="M136.83,171.68c-1.62,0.79-3.25,1.58-4.87,2.38c-0.53,0.92-1.28,1.49-2.38,1.53c-0.5-0.03-0.97-0.18-1.41-0.43
	c-1.31-2.81-0.74-5.78-0.73-8.72c2-2.31,3.61,0.21,5.4,0.44l0.06,0.03c0.84,0.84,2.17,0.07,3.01,0.91c0.99,0,1.97,0,3.08,0
	C138.67,169.56,136.58,169.96,136.83,171.68z"/>
<path class="st22" d="M132.84,166.88c-1.65,0.62-3.3-1.78-4.95,0c-2.09,1.14-4.09,1.57-5.73-0.75c-0.6-1.5-0.8-3.12-1.16-4.69
	c-0.14-1.54-0.24-3.09-1.02-4.49c0.28-0.37,0.56-0.74,0.84-1.1c0.69,0.67,1.39,1.34,2.09,2.02
	C124.17,163.12,129.2,164.23,132.84,166.88z"/>
<path class="st22" d="M135.9,167.82c-1.1,0.03-2.24,0.17-3.01-0.91C133.99,166.89,135.12,166.77,135.9,167.82z"/>
<path class="st23" d="M178.83,24.06c0.34,0.32,0.69,0.63,1.03,0.95c-1.84,1.1-3.82,2.03-5,3.96c-2.65-2.11-5.73-2.14-8.9-1.87
	c-0.09,1.57,1.79,1.28,2.16,2.46c-0.45,1.72-1.95,1.29-3.17,1.44c-2.37-2.28-4.67-0.2-7.01,0.09c0.35-3.6,4.7-2.53,5.95-5.08
	c1.24-0.87,4.27,1.78,4.02-2.03c2.59-0.85,5.35-0.32,7.96-0.98C176.85,23.36,177.84,23.71,178.83,24.06z"/>
<path class="st24" d="M221.84,54.89c0,2.03,0,4.05,0,6.08c0.02,0.19,0.03,0.37,0.05,0.56c0.04,0.57-0.04,1.13-0.17,1.68
	c-0.08,0.38-0.2,0.74-0.35,1.09c-0.43,0.68-0.56,1.45-0.75,2.21c-0.15,0.39-0.34,0.75-0.57,1.09c-0.65,0.85-1.38,1.62-2.24,2.26
	c-0.99,0.59-1.99,1.03-3.01,0.08c0.12-1.08-0.2-2.29,0.91-3.08C218.09,63.05,218.55,58.25,221.84,54.89z"/>
<path class="st25" d="M231.77,61.98c-1.67-4.18-3.71-8.28-2.96-13.02c0.02-0.31,0.04-0.63,0.05-0.94c0.28-0.44,0.58-0.46,0.91-0.05
	c0.18,4.68,3.29,8.46,3.97,12.99c0.65,0.7,0.65,1.35-0.15,1.94c-0.58,0.33-1.15,0.66-1.73,1C231.3,63.28,231.2,62.65,231.77,61.98z"
	/>
<path class="st24" d="M221.91,52.98c-0.07,0.31-0.1,0.62-0.11,0.94c-0.53-0.29-1-0.6-0.56-1.29
	C221.25,52.61,221.67,52.86,221.91,52.98z"/>
<path class="st26" d="M234.84,72.98c0.01,1.94-0.57,3.64-2.01,4.99c-0.81,0.7-1.7,0.83-2.65,0.32c-2.08-3.59,1.64-6.83,0.62-10.36
	c0.67-1,1.34-2,2.01-2.99C233.95,67.51,234.88,70.12,234.84,72.98z"/>
<path class="st27" d="M235.75,83.93c0.38-0.98,0.77-1.96,1.15-2.93c0.3-0.03,0.6-0.05,0.9-0.06c-0.34,0.98-0.69,1.97-1.03,2.95
	C236.43,83.9,236.09,83.91,235.75,83.93z"/>
<path class="st27" d="M226.81,97.92c-3.86-0.35,2.52-3.64-0.45-3.73c-2.11-1.01-1.53,1.64-3.18,0.61c0.81-3.99,4.19-5.47,7.64-6.87
	c0.79-1.7,2.54-2.17,3.94-3.1c0.35,2.69,0.7,5.39,1.06,8.08c-0.69,0.64-1.37,1.28-2.06,1.92C232.19,97.53,228.47,95.41,226.81,97.92
	z"/>
<path class="st28" d="M225.82,108.92c0.29-2.86-1.78-6.36,2.62-8.43c0.34,3.36-0.57,6.05-2.64,8.42
	C225.8,108.91,225.82,108.92,225.82,108.92z"/>
<path class="st10" d="M144.82,72.93c0.3-0.01,0.6,0.02,0.89,0.07c-0.08,0.42-0.15,0.83-0.33,1.78
	C145.09,73.81,144.95,73.37,144.82,72.93z"/>
<path class="st26" d="M226.71,85.87c0.06-0.31,0.08-0.61,0.07-0.93c-0.69-1.01-0.69-2.02,0-3.03c0,0,0.03,0.01,0.03,0.01
	c1.66-0.84,0.24-4,3.01-3.99C229,80.66,231.13,84.55,226.71,85.87z"/>
<path class="st29" d="M249.87,45.84c0.27,0.71,0.54,1.43,0.82,2.14c-0.36,2.94-0.3,5.76,0.57,8.7c0.81,2.7,0.23,5.57-1.44,8.29
	c-3.06,0.27-4.05-1.61-4.25-4.16c-0.18-2.32-0.56-4.6-0.98-6.89c-0.45-2.5-1.98-2.19-3.69-1.6c-1.69-0.04-2.49-3.66-5-1.08
	c-0.71,0.73-2.07-0.5-2.62-1.55c-0.68-1.29-1.27-2.61-2.48-3.52c-1.07-1.39-0.63-3.09-0.96-4.63c-0.3-2.15,1.11-3.94,1.32-5.98
	c-0.51,1.35-0.46,2.96-1.84,3.9c-0.81,0.25-2.03,0.37-2.2-0.31c-0.81-3.28-3.94-4.97-5.18-7.92c-0.2-0.66-0.29-1.33-0.31-2.01
	c-0.2-1.99,1.28-3.72,0.91-5.74c0.29-0.96,1.05-1.4,1.89-1.77c4.68-1.68,5.78,2.26,7.65,4.95c1.05-0.7-0.88-3.32,1.89-2.77
	c1.62,0.49,3.25,1.14,3.87,2.81c2.14,5.82,6.02,10.51,9.77,15.28C247.56,43.75,248.66,44.83,249.87,45.84z"/>
<path class="st29" d="M227.04,18.89c-0.4,0.03-0.81,0.07-1.21,0.1c-1.06,0.54-1.78-0.07-2.47-0.75c-0.47-1.04-1.15-2.05-0.55-3.28
	c0.3-0.32,0.59-0.64,0.89-0.95C224.81,15.64,225.93,17.27,227.04,18.89z"/>
<path class="st29" d="M231.78,22.07c-2.74,1.64-2.93-0.98-3.89-2.32C229.19,20.52,230.49,21.29,231.78,22.07z"/>
<path class="st29" d="M252.57,54.94c-0.22-0.76-0.44-1.51-0.66-2.27C252.13,53.43,252.35,54.18,252.57,54.94z"/>
<path class="st29" d="M251.61,50.94c-0.25-0.71-0.49-1.42-0.74-2.14C251.11,49.52,251.36,50.23,251.61,50.94z"/>
<path class="st30" d="M180.85,11.99c0.67-0.66,1.33-1.33,2-1.99c3.39-3.12,6.09-8.05,11.97-4.84c1.97,1.07,4.13,2.23,3.64,5.41
	c-3.88,1.25-4.83-4.89-8.5-3.39c1.55,4.7,5.84,5.54,9.86,6.79c0.32,1.67-1.46,2.55-1.42,4.33c0.05,2.61-1.88,2.98-4.07,2.15
	c-1.36-3.79-3.87-5.57-8.06-5.71C184.45,14.68,181.42,15.27,180.85,11.99z"/>
<path class="st31" d="M238.9,83.98c-0.49,3.16-1.35,6.2-3.11,8.92c-0.19-0.13-0.38-0.26-0.57-0.39c-1.43-2.43-2.66-4.9-1.07-7.75
	c0.27-0.61,0.7-1.08,1.34-1.33c0.4-0.07,0.81-0.05,1.21,0.07C237.34,84.05,238.22,83.57,238.9,83.98z"/>
<path class="st32" d="M130.86,233.02c5-0.75,10.01-1.49,15.01-2.24c0.85,0.74,2.34-0.16,2.99,1.28c0.28,3.14-6.11,2.73-3.91,7.02
	c-0.11,4.58-4.14,2.31-6.17,3.57c-1.08,0.08-2.04-0.25-2.92-0.83C134.19,238.89,132.52,235.95,130.86,233.02z"/>
<path class="st33" d="M198.89,40.97c1.47,1.02,0.15,2.02-0.03,3.02c-0.33,1.66-0.67,3.31-1,4.97c-0.33,0.33-0.64,0.32-0.94-0.03
	c0-1.32,0.01-2.64,0.01-3.96c1.3-1.11,0.8-2.62,0.9-4C198.19,40.97,198.54,40.97,198.89,40.97z"/>
<path class="st34" d="M204.82,44.94c0.01,1.27,0.35,2.67-1.45,3.3c-0.39-1.56,0.4-2.48,1.48-3.27
	C204.85,44.96,204.82,44.94,204.82,44.94z"/>
<path class="st35" d="M115.95,132.89c-0.38-1.82,0.85-4.32-2.1-5.07c2.2-0.82,1.98-2.4,1.73-4.37c-1.14-8.92-0.9-17.81,1.44-26.56
	c0.8-1.53,0.55-3.44,1.78-4.81c3.29-3.54,7.88-3.2,12.07-4.09c1.08-0.2,2.14-0.19,3.17,0.24c0.76,0.45,1.24,1.05,0.96,2
	c-1.41,2.19-3.7,1.96-5.83,2.12c-6.34,1.33-8.17,4.23-9.06,10.37c-1.17,8.06-0.1,15.76,1.6,23.53c0.58,2.67,1.31,5.14,3.74,6.71
	c0.8,0.69,1,1.61,0.98,2.6c0.1,3.02,3.02,3.54,4.66,5.2c0.17,0.45,0.18,0.89,0.05,1.35c-3.13,3.66-5-1.04-7.49-1.15
	c-3.13,0.86-1.17,5.51-4.69,6.01c-2-2.68-2-5.75-1.92-8.89C117.11,136.29,116.48,134.58,115.95,132.89z"/>
<path class="st36" d="M113.93,155.95c-0.07,0.38-0.13,0.76-0.2,1.14c-0.39-0.75-0.77-1.49-1.16-2.24
	C113.03,155.22,113.48,155.58,113.93,155.95z"/>
<path class="st37" d="M140.85,87.95c-1.6-1.72-2.58-4.05-4.94-5.04c-0.34-0.33-0.68-0.66-1.02-0.99c-0.55-3.5,2.62-2.04,3.99-2.99
	c1,0.66,2.01,1.32,3.01,1.98c2.81,2.25,1.86-2.88,3.99-2.01c2.46,5.58,1.9,11.09-0.25,16.58c-0.22,0.45-0.47,0.9-0.72,1.34
	c-0.39,0.65-0.86,1.24-1.44,1.73c-0.22,0.11-0.45,0.22-0.68,0.32c-3.85-1.56-0.78-4-0.75-6.04
	C142.08,91.09,144.91,88.69,140.85,87.95z"/>
<path class="st37" d="M144.82,72.93c-0.29-0.36-0.59-0.71-0.88-1.07c0.32,0.06,0.65,0.08,0.97,0.08c0.34,0,0.68-0.01,1.02-0.01
	c0.19,0.18,0.28,0.38,0.28,0.6c-0.01,0.23-0.04,0.34-0.09,0.34l-0.41,0.14C145.37,73.43,145.08,73.39,144.82,72.93z"/>
<path class="st37" d="M141.81,69.92c0.01,1.36,0.01,2.71,0.02,4.07c-2.33-0.9-1.04-2.59-0.89-4.04
	C141.24,69.95,141.52,69.93,141.81,69.92z"/>
</svg>
