<?xml version="1.0" encoding="utf-8"?>
<!-- Generator: Adobe Illustrator 26.1.0, SVG Export Plug-In . SVG Version: 6.00 Build 0)  -->
<svg version="1.1" id="Layer_1" xmlns="http://www.w3.org/2000/svg" xmlns:xlink="http://www.w3.org/1999/xlink" x="0px" y="0px"
	 viewBox="0 0 297 282" style="enable-background:new 0 0 297 282;" xml:space="preserve">
<style type="text/css">
	.st0{fill:#E3A5A0;}
	.st1{fill:#DDA6A6;}
	.st2{fill:#D89F92;}
	.st3{fill:#CC9F9A;}
	.st4{fill:#D1A4A1;}
	.st5{fill:#CFA19C;}
	.st6{fill:#D59A8A;}
	.st7{fill:#D6A399;}
	.st8{fill:#CC978C;}
	.st9{fill:#C79D95;}
	.st10{fill:#DBB8B5;}
	.st11{fill:#D6AEAA;}
	.st12{fill:#D3B0AF;}
	.st13{fill:#DAA9A8;}
	.st14{fill:#E5B3B4;}
	.st15{fill:#DCACAC;}
	.st16{fill:#DEA7A2;}
	.st17{fill:#C3918C;}
	.st18{fill:#B5848A;}
	.st19{fill:#BD928F;}
	.st20{fill:#AE8383;}
	.st21{fill:#BF9491;}
	.st22{fill:#C6938A;}
	.st23{fill:#BC8B8C;}
	.st24{fill:#C7938D;}
	.st25{fill:#B88F8C;}
	.st26{fill:#FCEAE9;}
</style>
<path class="st0" d="M232.26,130.92c0-0.01,0-0.02,0.01-0.04c-0.12-0.8-0.58-1.2-1.4-1.18c-2.78,0.64-3.26,4.54-6.46,4.56
	c-0.92,0.22-1.74,0.66-2.49,1.23c-1.7,1.88-3.8,2.2-6.21,1.81c-2.82-0.45-5.13,0.31-6.14,3.34c2.21,2.66,1.28,4.48-1.5,5.79
	c-0.42,0.25-0.73,0.63-0.88,1.12c-0.16,0.8-0.05,1.55,0.39,2.25c1.68,1.55,3.42,1.49,5.2,0.15c1.29-2.48,3.67-3.46,6.08-4.38
	l-0.04-0.19c0,0,0,0,0,0c0.93-0.41,1.87-0.82,2.8-1.23c0.11-0.03,0.21-0.07,0.32-0.14c0,0,0,0,0,0h0c1.58-0.57,2.71-1.63,3.45-3.12
	c0,0,0,0,0,0c1.44-0.25,1.95-1.4,2.47-2.54c0,0,0,0,0,0c0,0,0,0,0,0c2.37-2.02,4.73-4.04,5.03-7.45
	C232.68,130.91,232.47,130.92,232.26,130.92z"/>
<path class="st1" d="M103.1,143.73c3.99,2.48,6.56,6.22,9.01,10.08c0.53,0.36,1.11,0.65,1.5,1.19c0.5,0.74,0.88,1.53,1.02,2.43
	c0.07,0.69-0.03,1.36-0.28,2c-1.28,1.82-0.88,4.22-1.95,5.98c-1.35,1.46-3.34,0.69-4.7,1.73c-1.07-0.12-1.31-0.88-1.27-1.76
	c0.34-6.35-1.61-12.17-3.97-17.92C101.7,145.57,101.8,145.52,103.1,143.73z"/>
<path class="st2" d="M223.8,121.9c-0.72,1.16-1.92,1-3.03,1.07c-0.52,0.57-0.76,1.33-1.37,1.85c-0.32,0.25-0.69,0.38-1.09,0.39
	c-0.61-0.16-1.08-0.53-1.51-0.97c-0.8-0.94-1.91-1.63-2.29-2.9c-0.07-1.5,0.57-2.99-0.07-4.48c-0.06-0.46,0-0.9,0.16-1.33
	c0.36-0.61,0.86-1.05,1.52-1.3c2.65-0.13,5.13,0.81,7.67,1.37c4.75-0.26,9.31-0.21,10.25,6.02c-0.35,0.4-0.7,0.8-1.05,1.21
	c-0.92-0.17-1.63-0.73-2.36-1.25c-1.72-1.13-3.59-1.77-5.66-1.59C223.85,120.07,223.05,120.56,223.8,121.9z"/>
<path class="st3" d="M127.92,178.89c-2.44,5.35,4.84,7.47,3.56,12.12c3.35,1.35,4.7-2.21,7.3-1.98c1.71,1.01,2.04,2.9,2.75,4.34
	c-1.3,7.37-8.92,8.92-12.11,14.63c-4.47-3.21-8.45-6.07-12.34-8.86c-2.19,0.83,0.18,2.97-1.36,3.88c-0.62-0.3-1.24-0.61-1.86-0.91
	c0.89-8.77-2.74-16.33-6.3-24.39c2.45-1.77,0.48-4.3,0.2-6.74c0.09-0.38,0.18-0.77,0.27-1.15c3.47,2.02,5.31,5.49,7.6,8.55
	c2.13,3.57,3.86,2.45,5.42-0.48c0.13-0.41,0.33-0.79,0.58-1.15c1.15-0.89,2.45-0.48,3.72-0.4
	C126.67,176.72,127.69,177.4,127.92,178.89z"/>
<path class="st4" d="M139.78,106.83c0.34-1.33,0.68-2.66,1.01-3.99c0.66-1.32,1.33-2.64,1.99-3.96c0,0,0.04-0.06,0.04-0.06
	c0.72-0.41,0.45-1.45,1.17-1.85c0,0,0,0.04,0,0.04c0.97-1.36,1.94-2.71,2.91-4.07c0.57-0.78,1.05-1.77,2.26-0.87
	c0.29,0.61,0.55,1.33,0.2,1.89c-2.79,4.52-4.87,9.52-8.93,13.17C140.23,107.04,140.01,106.94,139.78,106.83z"/>
<path class="st5" d="M196.86,162.88c-0.33,1.32-0.66,2.63-0.99,3.95c0.31,2.31,1.56,4.76-0.95,6.67c-0.83,0.69-1.61,1.48-2.73,1.74
	c-1.09-0.03-2.27,0.26-3.06-0.86c-1.53-6.09,0.65-9.73,7.07-11.82C196.43,162.66,196.65,162.77,196.86,162.88z"/>
<path class="st5" d="M198.77,158.91c-0.02,0.65-0.03,1.29-0.05,1.94c-0.62,0.67-1.24,1.35-1.86,2.02c0,0-0.14-0.11-0.14-0.11
	c-0.89-1.16-0.39-2.2,0.25-3.23C197.46,158.99,197.98,158.56,198.77,158.91z"/>
<path class="st2" d="M214.98,129.69c-0.08,0.75-0.17,1.51-0.25,2.27c-0.65,0.31-1.3,0.62-1.94,0.93c-0.28,0.32-0.97,0.62-0.05,1
	c-0.29,0.67-0.58,1.35-0.87,2.02c-1.17,1-2.69,1.26-4.03,1.92c0,0-0.02,0.14-0.02,0.14s-0.49-0.06-0.49-0.06l-0.5,0
	c-0.15-0.15-0.3-0.3-0.46-0.45c-0.48-1.43-1.47-2.5-2.59-3.46c-0.23-0.39-0.31-0.8-0.28-1.24c0.41-1.22,1.03-2.38,1.18-3.7
	c0.36-1.01,0.44-2.29,2.02-2.17c2.24,2.27,5.32,0.63,7.82,1.67C214.94,128.82,215.09,129.21,214.98,129.69z"/>
<path class="st6" d="M212.74,133.89c-1.09,0.56-2.14,0.8-3.43-1c1.44,0,2.46,0,3.48,0C212.77,133.22,212.76,133.55,212.74,133.89z"
	/>
<path class="st6" d="M207.84,137.82c1.06-1.23,2.43-1.81,4.03-1.92C211.03,137.6,209.64,138.14,207.84,137.82z"/>
<path class="st0" d="M208.82,146.87c-0.34-0.67-0.69-1.33-1.03-2c-0.67,0.34-1.34,0.67-2,1.01c-0.84,1.15-1.47,2.58-3.64,2.35
	c-3.15-3.72-0.4-6.57,1.72-9.51c0.85-0.74,1.75-1.32,2.95-0.91c0,0,0.02,0.09,0.02,0.09C206.28,141.16,210.93,143.27,208.82,146.87z
	"/>
<path class="st3" d="M129.96,174.98c0.67-0.31,1.33-0.62,2-0.93c2.88,1.78,5.45-1.4,9.05-0.3c-3.57,3.65-7.98,4.07-12.12,5.08
	C128.36,177.3,129.75,176.31,129.96,174.98z"/>
<path class="st7" d="M145.88,164.84c-0.63-0.17-1.32-0.23-1.87-0.54c-3.17-1.8-6.11-4.13-4.89-8.15c1.21-3.99,5.09-1.66,7.74-2.31
	c2.61-0.43,0.58-3.46,2.43-4.32c2.8-0.07,5.27,1.23,7.43,2.6c6.72,4.26,13.01,1.92,19.33-0.74c1.97-0.83,3.76-2.19,5.86-2.7
	c4.52-1.1,8.48-2.77,10.33-7.56c0.4-1.04,1.45-1.86,2.85-1.21c1.01,2.08,0.11,3.99-0.47,5.93c-2.48,3.58-5.49,6.28-9.79,7.83
	c-8.18,2.95-15.79,7.32-24.08,10.06c-1.56,0.65-2.95,2.01-4.87,1.15c-3.02-0.18-6.02,2.46-9.05,0.03c2.4-2.37,6.38-1.12,9.41-4.14
	c-4-2.14-7.29-4.52-11.52-3.6C142.77,160.45,146.85,162.15,145.88,164.84z"/>
<path class="st4" d="M147.89,119.87c-0.04,0.39-0.08,0.78-0.12,1.17c-10.52-2.49-12.74-6.44-7.99-14.21c0,0,0.17,0.12,0.17,0.12
	c0.48,0.49,0.76,1.09,0.77,1.78c0.11,7.12,0.1,7.12,6.28,9.34C147.64,118.51,148.14,119,147.89,119.87z"/>
<path class="st2" d="M210.71,121.82c0.02-0.65,0.03-1.3,0.05-1.95c0,0,0.02-0.03,0.02-0.03c0.7-0.4,0.41-1.55,1.35-1.77
	c0.88-0.41,1.77-0.83,2.65-1.24C213.23,118.32,213.59,121.39,210.71,121.82z"/>
<path class="st8" d="M186.85,183.86c-0.69-0.02-1.39-0.04-2.08-0.07c-4.23,0.43-6.97,4.05-10.92,5.07l0.06,0.06
	c-1.74,1.28-3.09-0.4-4.64-0.59c-2.14-0.77-2.37-2.76-2.91-4.54c-0.14-0.38-0.26-0.76-0.38-1.15c-0.29-0.97-0.77-1.78-1.79-2.19
	c-2.06-0.96-5.27-0.33-5.38-3.92c4.96-3.88,10.37-7.04,15.68-10.37c3.01-1.88,6.04-3.28,9.75-1.57c2.64,1.22,4.66-0.46,6.68-2.05
	c1.96-1.55,3.66-4.03,6.81-2.75c-0.34,0.99-0.68,1.97-1.02,2.96c-4.92,2.6-8.55,5.92-6.81,12.23c0.52,0.5,0.59,1.11,0.47,1.79
	c-0.39,1.11-1.11,1.99-1.83,2.79c0.06-0.04-0.28,0.24-0.28,0.24s0.08,0.43,0.1,0.42c0.26,0.16,0.41,0.4,0.47,0.69
	C188.75,182.3,188.06,183.25,186.85,183.86z"/>
<path class="st6" d="M202.85,133.91c0.31-0.36,0.62-0.71,0.93-1.07c1.15,0.56,2.3,1.12,3.67,1.79c-0.2,0.98-0.42,2.08-0.64,3.18
	c-0.63,0.36-1.25,0.72-1.88,1.08c-0.68-0.92-1.38-1.15-2.12-0.05c-1.18,0.52-1.34-0.38-1.6-1.15c-0.01-0.41,0.05-0.81,0.18-1.2
	C201.9,135.65,202.27,134.72,202.85,133.91z"/>
<path class="st6" d="M203.78,132.87c0.15-1.37,0.92-2.36,1.98-3.16C205.88,131.25,205.22,132.3,203.78,132.87z"/>
<path class="st2" d="M206.81,126.88c0.4-2.39,2.44-3.53,3.93-5.08C211.35,124.98,209.03,125.89,206.81,126.88z"/>
<path class="st2" d="M214.83,121.9c-0.32,0.68-0.65,1.35-0.97,2.03C214.18,123.25,214.5,122.57,214.83,121.9z"/>
<path class="st9" d="M192.96,93.04c0.32-0.31,0.64-0.62,0.97-0.93c2.6,0.25,5.21,0.5,7.81,0.74c0.11,0.2,0.22,0.41,0.34,0.61
	c-2.4,3.38-5.57,3.63-9.67,0.74C192.38,93.72,192.55,93.33,192.96,93.04z"/>
<path class="st9" d="M184.84,104.95c-0.39-0.33-0.78-0.67-1.18-1c0.02-0.27,0.06-0.53,0.14-0.78c-1.27-3.34-4.48-4.97-6.63-7.55
	c-0.28-0.38-0.51-0.78-0.73-1.2c-0.42-1.25-2.55-1.84-1.41-3.69c5.9-1.2,11.31,0.41,16.57,2.82c0.6,2.55-1.41,2.38-2.84,2.56
	c-2.21,0.27-4.25-0.29-5.68-1.7c-0.79-0.55-0.58,0.8-0.45,0.15c0.03-0.14,0.18-0.1,0.49,0.09c2.3,1.39,4.48,3.04,5.07,5.77
	C188.74,102.91,188.83,105.57,184.84,104.95z"/>
<path class="st10" d="M127.77,228.06c-0.89-1.41-1.78-2.82-2.67-4.24c0.35-1.48,0.53-3.01,1.11-4.44c0.38-1.06,0.74-2.13,1.33-3.1
	c1.47-2.6,2.67-5.34,4.61-7.67c3.65-4.39,5.79-4.46,10.05-0.16c0.32,3.24-5.85,5.8-0.99,9.5c2.24,1.27,4.63,1.37,7.16,1.23
	c4.33-0.23,5.61,1.2,4.04,5.06c-0.91,2.24,1.15,3.29,0.9,5.05c-1.06,1.9-2.8,1.72-4.53,1.53c-2.43-0.53-3.35-2.28-3.26-4.89
	c-2.89,0.7-4.71,3.59-7.52,2.69c-2.88-0.93-4.66,0.57-6.19,2.27C129.46,231,129.34,228.58,127.77,228.06z"/>
<path class="st11" d="M140.89,218.81c-1.32-0.03-2.69,0.07-3.7-1.73c1.16-2.74,1.08-6.32,4.54-8.43c-1.86-1-3.42-1.84-4.85-2.61
	c-4.7,2.36-5.49,7.62-8.89,10.75c-1.58-3.31-3.65-6.3-6.08-9.04c-2.06-1.57-4.12-3.15-6.19-4.72c-0.06-1.44-0.84-2.92,0.6-4.77
	c4.91,0.69,7.81,5.58,12.88,7.03c3.65-4.08,10.87-5.67,10.1-13.42c-3.11-1.73-7.3,3.09-8.72-1.3c-1.26-3.89-6.77-6.92-3.13-12.08
	c0.37-0.3,0.77-0.54,1.19-0.73c2.38-1.06,5.11-0.96,7.51-2.23c0.6-0.05-0.14-0.99,0.09-0.37c0.04,0.09-0.09,0.14-0.36,0.18
	c-1.68,0.19-3.64,1.14-4.21-1.61c1.24-1.92,2.95-2.64,5.17-2.05c0.97-0.33,1.93-0.67,2.9-1c0.95-0.28,1.71-0.92,2.54-1.42
	c2.17-1.83,4.36-3.57,7.41-1.84c0.36,0.37,0.52,0.81,0.48,1.31c-0.38,1.71-1.96,2.6-2.92,4.3c0.48,2.33,0.52,4.7-0.58,7.38
	c-1.77,4.31-0.1,8.79,1.74,12.76c1.15,2.48,3.51,1.78,5.46,0.21c1.63-1.31,3.31-3.92,5.39-2.76c3.52,1.96,7.91,3.02,10.01,6.88
	c1.37,2.5,1.16,5.15-1.6,6.95c-1,0.52-2.15,0.68-3.1,1.32c-0.95,0.65-1.69,1.49-2.38,2.41c-1.37,1.9-3.29,3.28-4.67,5.14
	c-2.56,3.45-5.85,5.21-10.22,4.89C145.14,218.06,143.05,218.89,140.89,218.81z"/>
<path class="st12" d="M140.89,218.81c1.13-0.64,2.4-2,3.36-1.8c9.01,1.88,12.56-5.43,17.62-10.19c1.53,1.57,3.63,1.06,5.49,1.47
	c2.31,4.31,1.82,7.11-1.85,9.77c-1.45,1.05-3.32,1.64-3.55,3.8c-0.92,2.64-3.64,3.71-5.1,5.88c-0.33,0.33-0.67,0.67-1,1
	c-0.95,0.77-1.94,0.75-2.96,0.13c-1.22-0.65-2.43-1.29-3.94-2.09c1.3-1.65,2.47-3.14,3.91-4.96
	C149.37,218.34,143.82,223.22,140.89,218.81z"/>
<path class="st13" d="M166.86,208.82c4.3-2.91,3.5-7.91,4.91-12.01c1.34,0.83,1.32,2.36,1.86,3.6c0.51,3.24,2.63,3.52,5.27,2.84
	c0.47,0.1,0.83,0.35,1.1,0.73c-1.7,4.07-3.97,7.76-7.17,10.84c-5.55-0.34-7.39,5.68-11.98,6.98c-0.1-1.99,0.52-3.27,2.64-4.09
	C167.72,216.07,168.66,212.88,166.86,208.82z"/>
<path class="st14" d="M114.87,178.87c-2.24-3.04-5.43-5.36-6.84-9.03c-0.08-0.94-0.16-1.88-0.23-2.82c-0.48-3.94,2.42-1.2,3.58-1.68
	c1.18-2.13-0.51-5.23,2.54-6.46c1.86,0.56,2.38,2.18,2.97,3.74c0.6,2.61,1.63,5.07,2.81,7.47c0.76,1.85,2.54,2.93,3.49,4.65
	c0.23,1.11-0.59,1.58-1.27,2.13c0,0.33,0,0.66,0,0.99C119.5,177.76,117.67,181.64,114.87,178.87z"/>
<path class="st15" d="M114.87,178.87c2.64,1.68,4.18-4.18,7.03-1.02c1.71,3.96-3.07,2.67-3.44,4.82
	C116.12,182.13,115.13,180.82,114.87,178.87z"/>
<path class="st15" d="M124.82,175.95c0.06,0.28,0.13,0.55,0.18,0.83c-1,1.23-2.07-0.19-3.09,0.08c0.33-0.61,0.65-1.22,0.98-1.82
	c0.22-0.37,0.55-0.52,0.98-0.48C124.45,174.84,124.81,175.28,124.82,175.95z"/>
<path class="st16" d="M224.8,134.88c-0.67,0.34-1.33,0.67-2,1.01c-0.57,0.52-1.2,0.62-1.89,0.28c-0.1-3.2,1.18-6.49-0.61-9.59
	c-0.07-1.36-0.28-2.74,0.45-4.02c0.87-0.84,1.95-1.37,2.95-2.03c3.28-1.19,4.73,0.83,5.92,3.33c0.37,1.01,0.49,2.06,0.5,3.13
	C229.58,130.46,228.71,133.7,224.8,134.88z"/>
<path class="st17" d="M132.08,131.84c0.25-0.67,0.5-1.35,0.75-2.02c5.06,0.77,8.29-5.44,13.64-3.56c0.41,0.28,0.66,0.65,0.74,1.13
	c-0.09,0.48-0.34,0.86-0.73,1.13c-2.16,1-4.74,1.69-3.77,5.05c0.29,0.64,0.5,1.28,0.46,1.99c-0.21,0.45-0.55,0.74-1.04,0.85
	c-2.03-0.72-4.4-0.08-6.22-1.6c-1.14-0.8-2.29-1.6-3.43-2.4C132.43,132.17,132.29,131.98,132.08,131.84z"/>
<path class="st18" d="M129.96,174.98c0.43,0.47,0.85,0.93,1.22,1.34c-0.81,0.88-1.55,1.7-2.29,2.51c-0.32,0.01-0.65,0.02-0.97,0.06
	c-0.97-0.7-1.94-1.41-2.91-2.11c-0.25-0.25-0.34-0.51-0.29-0.78c0.05-0.28,0.11-0.42,0.19-0.42c1.2-1.14,2.64-0.3,3.96-0.5
	C129.22,175.04,129.59,175.01,129.96,174.98z"/>
<path class="st19" d="M116.91,191.82c-2.03-3.26-1.55-6.42,1.93-7.73c3.19-1.2,5.29,0.94,7.19,3.97c2.05,3.27,0.24,7.11,2.89,9.99
	c-3.93,4.4-6.63-3.94-9.84-0.28c-1.74-1.63-0.97-3.38-1.18-4.94c2.99-1.03,2.99-1.03,2.45-3.83
	C118.23,188.75,118.36,191.27,116.91,191.82z"/>
<path class="st20" d="M116.91,191.82c0.34-1.57,0.67-3.14,1.02-4.76c1.86-0.37,3.81-0.59,4.63,1.56c0.82,2.14,0.3,4.2-1.35,5.8
	c-1.85,0.84-2.25-1.05-3.32-1.59C117.57,192.49,117.24,192.16,116.91,191.82z"/>
<path class="st21" d="M164.92,102.86c-2.38-1.34-3.41-3.3-4.3-6.01c-1.41-4.35-4.3-8-9.74-7.93c0.8-6.77-1.49-13.34-0.65-20.27
	c0.92-7.7,5.59-13.22,8.66-19.68c0.65-0.59,1.35-0.59,2.09-0.21c1.6,3.92-1.22,6.93-3.02,9.34c-4.92,6.56-3.41,13.69-3.68,20.51
	c2.09,1.92,4.62,0.47,6.4,1.85c0.38,0.35,0.56,0.78,0.59,1.28c-1.94,3.64-0.11,6.96,0.93,10.33c0.62,2.02,1.3,4.03,2.03,6.03
	C164.57,99.67,166.26,101.05,164.92,102.86z"/>
<path class="st22" d="M193.84,145.87c-1.55,7.18-7.94,8.56-13.38,10.77c-2.77,1.12-5.23,2.51-7.6,4.22
	c-0.12,0.19-0.25,0.39-0.37,0.58c-1.22,1.2-2.9,1.32-4.4,1.86c-0.48,0.05-0.89-0.1-1.23-0.45c-2.33,0-4.66,0-6.99,0.01
	c8.57-3.65,17.04-7.61,25.78-10.81C189.23,150.74,190.7,147.34,193.84,145.87z"/>
<path class="st23" d="M179.83,103.89c-1.34,0.16-2.43,0.01-2.22-1.77c-3.59,0.75-6.33,6.33-10.8,1.86c0.72-2,2.71-2.86,3.95-4.41
	c0.4-0.25,0.83-0.41,1.28-0.51c0.47-0.06,0.93-0.06,1.4-0.02c1.61,0.42,3.23,0.41,4.88,0.25c1.75-0.18,3.31,0.05,3.86,2.11
	C181.98,102.77,180.68,103.12,179.83,103.89L179.83,103.89z"/>
<path class="st24" d="M172.78,73.76c2.51-0.48,3.99-2.57,5.99-3.83c1.78,2.14,2.61-1.09,4.23-0.66c0.7,1.26-1.1,1.69-1.09,2.72
	c-1.6,1.39-3.24,2.74-4.79,4.19c-1.14,1.07-0.64,1.61,0.72,1.7c2,0.49,3.3,1.21,1.02,3.1c-3.35,1.71-6.65,0.43-9.97-0.15
	c-0.02-0.29-0.04-0.58-0.06-0.86c0.89-1.05,1.98-1.14,3.17-0.7c0.22,0.15,0.34,0.24,0.34,0.24c0.36,0.36,0.45,0.4,0.19,0.04
	c-1.75-2.02-3.12-0.09-4.61,0.32c-1.38-0.02-2.75-0.04-4.13-0.06c-0.11-0.19-0.22-0.38-0.33-0.58c0.15-0.42,0.38-0.79,0.7-1.1
	c1.05-0.79,2.26-1.31,3.32-2.08C169.21,75.18,170.53,73.4,172.78,73.76z"/>
<path class="st25" d="M187.7,81.68c-1.67,3.93-4.42,1.7-6.86,1.21c-1.14-2.22,0.19-3.15,2.01-3.82c1.67-1.28,3.46-1.37,5.6-0.64
	C188.18,79.58,187.94,80.63,187.7,81.68z"/>
<path class="st26" d="M181.37,116.23c2.22-2.75,0.86-8.47,6.31-8.03c2.59,0.21,2.8,3.04,2.36,5.21
	C188.96,118.85,184.82,116.39,181.37,116.23z"/>
</svg>
