<?xml version="1.0" encoding="utf-8"?>
<!-- Generator: Adobe Illustrator 26.1.0, SVG Export Plug-In . SVG Version: 6.00 Build 0)  -->
<svg version="1.1" id="Layer_1" xmlns="http://www.w3.org/2000/svg" xmlns:xlink="http://www.w3.org/1999/xlink" x="0px" y="0px"
	 viewBox="0 0 297 282" style="enable-background:new 0 0 297 282;" xml:space="preserve">
<style type="text/css">
	.st0{fill:#4E4043;}
	.st1{fill:#523F41;}
	.st2{fill:#594244;}
	.st3{fill:#735B5B;}
	.st4{fill:#70504D;}
	.st5{fill:#70575A;}
	.st6{fill:#D1D1D3;}
	.st7{fill:#030106;}
	.st8{fill:#393941;}
	.st9{fill:#1A0609;}
	.st10{fill:#492B28;}
	.st11{fill:#060308;}
	.st12{fill:#110A10;}
	.st13{fill:#080307;}
	.st14{fill:#44445A;}
	.st15{fill:#1E2129;}
	.st16{fill:#482B2A;}
	.st17{fill:#412321;}
	.st18{fill:#000107;}
	.st19{fill:#616B8D;}
	.st20{fill:#485270;}
	.st21{fill:#576180;}
	.st22{fill:#050408;}
	.st23{fill:#8A96BC;}
	.st24{fill:#596589;}
	.st25{fill:#0C0B0E;}
	.st26{fill:#444964;}
	.st27{fill:#482726;}
	.st28{fill:#000005;}
	.st29{fill:#080B18;}
	.st30{fill:#13192B;}
	.st31{fill:#0A0E1E;}
	.st32{fill:#4B2F36;}
	.st33{fill:#080D1C;}
	.st34{fill:#0E1423;}
	.st35{fill:#1A2335;}
</style>
<path class="st0" d="M177.8,0.83c1.7-0.01,3.4-0.01,5.1-0.02c7.24,0.09,14.3,1.02,20.92,4.19c3.69,2.13,8.05,2.88,11.45,5.6
	c-0.77,4.42-3.45,3.96-6.5,2.56c-3.53-2.72-6.28-0.27-9.14,1.42c-5.02-0.15-8.82-2.17-10.8-7.32c2.51-2.59,4.61-0.18,6.81,0.78
	c-4.16-3.46-5.12-3.46-8.94-0.05c-1.32,1.18-2.41,2.8-4.55,2.53c-4.61-1.24-8.8-3.78-13.64-4.41c1.67,2.63,1.2,4.57-2.12,5.03
	c-2.95,0.41-5.82,1.3-8.75,1.54c-2.42,0.2-5.74,0.56-4.82-3.85C159.44,0.83,168.85,1.54,177.8,0.83z"/>
<path class="st1" d="M223.91,17.97c-0.69,0-1.39,0-2.08,0c-0.04-2.84-3.23,0.28-3.57-2.33c0.88-2.47,2.72-1.54,4.55-0.67
	C223.18,15.97,223.54,16.97,223.91,17.97z"/>
<path class="st2" d="M152.9,35.99c0.97-0.35,1.95-0.71,2.92-1.06c0.85,0.42,1.02,1.21,1.06,2.05c-0.57,1.34-1.68,1.99-3.27,2.45
	C153.37,38.27,153.13,37.13,152.9,35.99z"/>
<path class="st3" d="M156.88,36.98c-0.35-0.68-0.71-1.36-1.06-2.05c0.69-0.65,1.38-1.29,2.07-1.94c0.95-0.2,1.87-1.58,2.88-0.1
	C159.47,34.25,158.17,35.61,156.88,36.98z"/>
<path class="st4" d="M204.83,69.94c3.88,0.4,1.57-4.69,4.63-5.01c1.09,1.34-1.21,2.57-0.21,4.23c0.89-1.13,1.72-2.18,2.55-3.24
	c1.05-0.14,1.65-1.63,2.96-0.99c0.31,0.64,0.62,1.28,0.92,1.93c0.29,1.22,0.21,2.39-0.36,3.52c-2.11,3.52-4.5,6.85-7.07,10.04
	c-1.3,1.62-2.55,3.58-5.2,2.85c0.3-2.25,0.3-2.25,3.26-5.56c-1.17,0.82-1.6,3-3.73,2.07c-0.81-0.75-1.4-1.68-2.02-2.59
	c-0.16-0.4-0.21-0.83-0.16-1.26c0.4-1.21,1.11-2.29,1.58-3.47C202.53,71.15,203.57,70.42,204.83,69.94z"/>
<path class="st5" d="M222.92,86.83c0.28-0.51,0.56-1.01,0.84-1.52c0.24,0.16,0.7,0.41,0.68,0.47c-0.15,0.42-0.42,0.8-0.64,1.19
	C223.5,86.92,223.21,86.87,222.92,86.83z"/>
<path class="st6" d="M182.85,0c0.03,0.27,0.05,0.54,0.06,0.81c-1.7,1.71-3.4,1.7-5.1,0.02c0.02-0.28,0.04-0.55,0.05-0.83
	C179.52,0,181.18,0,182.85,0z"/>
<path class="st7" d="M251.83,92c-2.02,8.65-9.11,13.3-14.95,18.95c-2.13,0.13-1.7-1.44-1.65-2.62c0.14-3.11-0.41-6.14-0.95-9.18
	c-0.1-0.47-0.13-0.93-0.11-1.41c0.28-1.63,0.38-3.29,0.82-4.89c0.99-2.93,1.83-5.91,2.99-8.78c0.33-0.64,0.78-1.19,1.33-1.65
	c2.73-1.89,3.64,0.8,5.11,2.05c1.29-2.06,1.16-5.9,5.4-4.14C253.36,83.74,252.91,87.82,251.83,92z"/>
<path class="st8" d="M217.94,10.94c-1.04,0.01-2.08,0.02-3.12,0.03c-3.81-1.72-8.32-2.15-10.99-5.97
	C209.34,5.05,213.66,7.94,217.94,10.94z"/>
<path class="st9" d="M241.78,66.96c-0.24,1.69,0.59,3.52-0.85,5.57C239.76,70.15,238.54,68.28,241.78,66.96
	C241.78,66.96,241.78,66.96,241.78,66.96z"/>
<path class="st10" d="M198.87,75.98c-0.91,1.91-2.52,3.58-2.11,5.95c-1.43,1.12-2.85,2.24-4.58,2.89c-0.87,0.33-1.74,0.72-2.62,0.04
	c-1.32-2.37,0.38-4.39,0.78-6.46c-0.43-1.81-2.3-2.44-2.96-4.19c0.02-3.57,2.81-5.11,5.4-6.82c0.72-0.52,1.4-1.09,2.03-1.73
	c0.3-0.33,0.62-0.64,0.95-0.94c2.53-2.17,5.25-4.15,6.91-7.17c0.29-0.36,0.64-0.65,1.03-0.89c0.45-0.12,0.9-0.09,1.33,0.09
	c0.31,0.34,0.56,0.72,0.74,1.15c0.79,3.5-1.75,5.17-3.9,7.05c-0.72,0.87-0.09,2.2-1.04,2.99c0,0,0,0,0,0
	C197.2,69.89,195.93,72.42,198.87,75.98z"/>
<path class="st11" d="M117.75,80.57c-7.14-6.58-6.4-15.13-5.89-23.62c0.86-0.89,0.89-2.04,1.07-3.18c0.78-4.85,4.71-7.67,9.55-6.64
	c2.25,0.48,4.5,0.85,6.75,1.21c2.31,3.96-1.04,6.21-2.82,8.85c-0.94,1.39-2.88,1.99-4.04,4.73c5.84-3.54,8.93-8.14,12-12.76
	c1.81-2.73,3.12-5.87,6.25-7.51c0.48-0.11,0.95-0.05,1.39,0.15c0.5,0.59,0.64,1.28,0.6,2.02c-0.18,1.17-0.41,2.34-0.51,3.52
	c-0.07,0.71-0.21,1.41-0.38,2.1c-0.78,2.3-0.31,4.7-0.56,7.03c-1.66,6.26-2.82,7.26-7,7.62c2.9-0.65,0.67,4.37,2.71,5.9
	c0.47,0.56,0.88,1.15,1.23,1.79c0.83,2.1,1.94,4.17,0.74,6.49c-2.42,1.53-4.36,0.11-6.35-1.02c-2.66-1.59-4.58-1.01-6,1.81
	c-0.81,1.62-2.12,2.95-3.61,4.01C120.1,85.06,118.94,84.47,117.75,80.57z"/>
<path class="st12" d="M129.9,48.96c-1.73,0.04-3.2,1.18-5.21,0.47c-6.71-2.37-8.75-1.2-10.96,5.42c-0.27,0.82-1.23,1.41-1.87,2.11
	c-0.54-7.09,3.28-12.54,6.86-18.06c4.64-1.97,6.52,2.6,9.7,4.1C133.14,46.39,133.2,46.62,129.9,48.96z"/>
<path class="st13" d="M140.85,87.95c0,0.96,0,1.93,0,3.19c-2.2-0.49-4.04-0.9-5.88-1.31c-0.38-0.3-0.76-0.61-1.14-0.91
	c-0.92-0.73-1.97-1.4-1.05-2.81c-0.04-2.12,0.76-3.44,3.13-3.2C139.48,82.7,140.16,85.33,140.85,87.95z"/>
<path class="st14" d="M132.78,86.11c0.35,0.94,0.7,1.88,1.05,2.81c-0.97-0.02-1.94-0.04-2.91-0.06c-0.66-0.98-1.33-1.96-1.99-2.94
	C130.3,84.03,131.58,84.13,132.78,86.11z"/>
<path class="st15" d="M135.5,85.18c0.27,0.11,0.52,0.21,0.78,0.32c-0.14,0.25-0.23,0.59-0.45,0.71c-0.14,0.08-0.46-0.16-0.7-0.25
	C135.25,85.7,135.37,85.45,135.5,85.18z"/>
<path class="st16" d="M125.91,133.89c-2.24,0.14-4.18-0.68-4.71-2.86c-2.63-10.8-4.43-21.82-1.96-32.78
	c0.91-4.06,4.72-7.16,9.68-7.32c0.57,0.66,0.5,1.34,0.1,2.04c-7.77,4.46-10.45,14.85-5.83,22.89c3.03,5.27,4.77,11.26,8.91,15.93
	c0.16,0.53,0.07,1.01-0.27,1.45C129.95,134.36,128.05,135.28,125.91,133.89z"/>
<path class="st17" d="M141.93,66.01c0.75,1.18,0.4,2.46,0.31,3.71c-0.36,0.48-0.79,0.56-1.3,0.23c-0.33-0.32-0.66-0.64-0.99-0.97
	c-1.22,0.15-1.64,0.75-1.09,1.91c-0.65,0.33-1.3,0.66-1.95,0.99c-0.33-0.33-0.65-0.66-0.98-0.98c-0.33-3.47,2.3-5.53,4.06-8.62"/>
<path class="st17" d="M143.84,76.95c0.36,0.65,0.72,1.29,1.08,1.94c-0.15,1.96-0.12,4.19-3.03,2.02
	C144.54,80.58,143.74,78.55,143.84,76.95z"/>
<path class="st18" d="M34,192.83c-0.95-5.11-4.06-9.66-3.9-15.55c-5.56-0.63-5.48-5.35-6.3-9.5c0.48-2.27,0.81-4.65,3.78-5.06
	c2.58-0.66,4.7-2.52,7.41-2.81l0.03-0.01c0.5-0.62,1.38-0.41,1.95-0.9c14.19-4.05,27.39-10.71,40.85-16.52
	c7.82-3.38,16.26-6.06,23.14-11.66c3.67-2.98,8.51-2.37,12.91-2.99c3.69-0.76,2.97,2.19,3.49,4.11c-0.26,2.53,0.68,5.24-1.06,7.56
	c-1.3,1.89-0.92,4.19-1.48,6.26c-0.38,1.15-0.54,2.34-0.53,3.56c-0.14,1.72,0.08,3.55-1.59,4.74c-2.97-0.07-3.72-2.84-5.27-4.54
	c-1.64-1.79-3.36-3.5-4.97-5.31c-0.23-0.43-0.4-0.88-0.49-1.35c-0.22-1.86,0.5-3.2,2.23-3.99c1.91-0.88,3.16-2.31,3.76-4.59
	c-4.81,0.5-5.45,4.76-7.42,7.71c-1.25,1.32-3.06,1.83-4.4,3.01c-1.29,1.56-0.31,3.35-0.49,5.01c-0.34,2.4-2.63,4.15-2.25,6.79
	c2.31,6.79-1.76,11.96-8.77,11.17c-2.97-1.09-3.33-4.69-5.9-6.17c-0.77-0.45-1.6-0.72-2.47-0.9c-2.8,0.05-5.6-0.54-8.31-0.59
	c-6.36-0.13-12.67,2.14-19.14,0.52c-0.59-0.15-1.26,0.96-1.85,1.53c-1.63,1.36-2.73,3.27-4.62,4.33c-3.26,1.75-4.16-1.14-5.48-3.17
	c-4.78,1.17-1.53,7.01-5.3,8.43c-0.38,0.31-0.88,0.4-1.29,0.67c2.38,1.74,3.43,4.54,5.36,6.64c0.81,1.07,1.52,2.19,1.95,3.48
	c0.24,1.75,0.32,3.49-0.59,5.11c-0.34,0.68-0.68,1.36-1.02,2.04c-0.4,0.18-0.78,0.15-1.06-0.03c0.09,0.06-0.34,0.04-0.34,0.04
	s0.19,0.39,0.2,0.42C34.97,191.31,34.77,192.15,34,192.83z"/>
<path class="st19" d="M116.92,144.88c0.7,3,1.4,6,2.1,8.99c-0.33,0.36-0.74,0.59-1.21,0.71c-0.67,0.04-1.49,0.03-1.82-0.54
	c-1-1.7-1.12-3.9-2.89-5.18c-0.25-1.15-0.37-2.27,0.71-3.12c0,0,0.43,0.14,0.45,0.15c0.02,0.01,0.13,0.4,0.13,0.4
	s0.14-0.38,0.14-0.4c0.13-0.32,0.3-0.58,0.54-0.82C115.67,144.68,116.24,144.25,116.92,144.88z"/>
<path class="st20" d="M113.1,148.86c3.15,0.33,2.16,4.66,5.06,5.23c-0.56,2.11-2,2.64-3.97,2.21c-0.66-0.34-0.96-1.09-1.62-1.44
	c-0.15-0.35-0.31-0.69-0.46-1.04C113.45,152.37,112.85,150.53,113.1,148.86z"/>
<path class="st21" d="M114.97,138.94c2.47-0.2,0.89,2.22,1.91,2.96c-1.28,1.02-0.89,2.89-2.01,4l0.05-0.06
	c-0.19,0.35-0.47,0.45-0.84,0.3c0,0-0.26-0.39-0.26-0.39C114.5,143.53,113.45,141.01,114.97,138.94z"/>
<path class="st22" d="M115.88,162.86c-0.65-1.33-1.31-2.66-1.96-3.99c-0.06-0.59-0.12-1.19-0.18-1.78c-0.28-0.44-0.2-0.82,0.2-1.14
	c1.41-0.62,2.82-1.24,4.23-1.86c0.29-0.05,0.58-0.12,0.86-0.22c0.6-0.3,1.2-0.6,1.8-0.9c0,0.96-0.01,1.92-0.01,2.88
	c0.05,0.7,0.09,1.4,0.17,2.11c0.19,1.25,0.04,2.44-0.52,3.59C119.23,163.02,117.9,164.16,115.88,162.86z"/>
<path class="st23" d="M114.87,145.89c0.43-1.45-0.76-3.72,2.01-4c0.01,0.99,0.03,1.99,0.04,2.98
	C116.24,145.22,115.55,145.56,114.87,145.89z"/>
<path class="st24" d="M121.84,160.82c0.72,1.59,1.55,3.16,0.85,4.99c-0.91,1.94,4.54,4.15-0.24,5.93c-1.43,0.41-2.5-0.73-3.81-0.9
	c-1.1-2.6-2.7-5.02-2.76-7.98c1.57-0.28,3.12-0.58,4.12-2.01C120.61,160.27,121.22,160.27,121.84,160.82z"/>
<path class="st25" d="M118.64,170.84c1.1-1.32,2.06,0.63,3.12,0.14c1.26,0.59,3.08,0.37,3.48,2.25c0.24,1.14-0.1,1.92-1.45,1.87
	l-0.45-0.09c0,0-0.46,0.03-0.46,0.03C121.11,174,119.35,172.95,118.64,170.84z"/>
<path class="st26" d="M123.8,175.09c2.76-3.07-1.26-2.79-2.03-4.12c4.94-2.52-0.61-2.45-0.94-3.94c0.55-0.36,1.21-0.8,1.86-1.23
	c1.35,2.21,3.7-0.41,5.2,1.07c1.88,2.55,0.62,5.47,0.98,8.2c-1.35,0.29-2.69,0.58-4.04,0.87
	C124.48,175.66,124.14,175.38,123.8,175.09z"/>
<path class="st27" d="M130.86,141.87c0.11,1.62,0.22,3.23,0.37,5.56c-7.59-0.49-7.18,5.55-8.34,10.43c-1.71,0.39-2.1-0.94-2.67-2.04
	c-0.29-1.05,0.02-1.98,0.59-2.85c-0.31-2.03-0.62-4.06-0.93-6.09c0.08-3.17,0.46-6.22,3.04-8.36
	C126.16,138.6,126.72,144.37,130.86,141.87z"/>
<path class="st27" d="M121.84,160.82c-0.61,0.01-1.22,0.02-1.83,0.03c-0.01-1.3-0.02-2.6-0.03-3.9
	C121.26,157.93,121.73,159.29,121.84,160.82z"/>
<path class="st28" d="M11.83,211.45c2.66-9.83,5.27-19.62,5.69-29.94c0.21-5.09,3.54-9.44,6.27-13.74c0.15-0.06,0.3-0.13,0.45-0.19
	c0.85,5.3,6.32,7.87,7.52,13.2c0.87,3.88,2.08,7.77,3.21,11.63c1.03,6.19,2.93,12.12,5.18,17.95c-2.46-6.52-4.58-13.13-5.36-20.12
	c0.13-1.03,0.43-1.96,1.36-2.55c0.53-0.16,0.98-0.03,1.35,0.37c2.18,3.55,2.52,7.84,4.56,11.44c2.51,9.46,5.67,18.67,10.12,27.43
	c0.82,1.62,1.31,3.42,2.83,4.59c7.62-1.98,7.62-1.98,7.54-11.38c-0.11-3.99,0.32-7.85,2.26-11.39c1.27-1.69,2.8-3.2,4.86-3.79
	c3.29-0.95,4.29-3.08,3.76-6.24c-0.53-2.29-1-4.57-0.89-6.94c0.09-2.14-0.25-4.36,1.26-6.2c0.81-0.77,1.74-1.2,2.88-1.03
	c0.72,0.45,0.94,1.15,0.97,1.94c-0.1,1.19-0.41,2.36-0.37,3.57c-0.01,0.92-0.01,1.84-0.01,2.76c0.01,1.57-0.05,3.15,0.47,4.66
	c0.3,0.95,0.31,2.08,1.51,2.48c0.96,0.13,1.93,0.23,2.91,0.43c0.7,0.05,1.36,0.03,1.94-0.23c0.18-0.26,0.34-0.57,0.38-0.94
	c-0.02-0.94-0.37-1.83-0.46-2.77c-0.03-0.43-0.02-0.83,0.03-1.25c0.03-0.21,0.07-0.42,0.1-0.63c0.04-0.21,0.1-0.42,0.14-0.62
	c0.38-2.3,0.72-4.6-0.23-6.83c-0.62-0.83-1.59-1.15-2.45-1.62c-0.7-0.5-1-1.12-0.54-1.92c0.21-0.4,0.45-0.81,0.09-1.28
	c-0.34-0.35-0.59-0.74-0.73-1.21c-0.22-0.51-0.67-0.7-1.16-0.87c-0.57-0.27-0.99-0.67-1.35-1.17c-0.49-0.77-0.8-1.59-0.8-2.51
	c0.08-0.99,0.47-1.77,1.45-2.14c2.89,0.05,2.89-3.04,4.61-4.28c2.04-1.17,4.34-1.42,6.56-1.96c4.81-1.18,5.53-2.32,4.79-7.26
	c-0.37-2.51-1.6-5.31,2.08-6.55c3.13,0.56,3.15,4.28,5.63,5.51c2.71,5.05,3.09,10.56,3.62,16.16c0.76,7.96,1.05,16.08,4.5,23.55
	c0.43,0.62,0.94,1.19,1.37,1.81c0.71,1.06,1.17,2.21,1.12,3.51c-0.63,3.04-2.5,3.3-4.74,1.82c-3.56-2.35-7.45-4.54-6.98-9.56
	c-1.25-0.13-1.51,0.36-1.46,0.82c1.2,11.36-6.38,16.45-14.91,20.83c-1.56,0.8-1.58,0.76-3.65,4.65c2.24,4.56,5.17,9.3,0.92,14.44
	c-4.93,0.02-5.3-7.76-10.77-6.32c-1.5,2.05-0.8,4.12-1.04,6.04c-0.04,1.39-0.44,2.72-0.86,4.04c-0.42,1.42,0.5,2.81,0.08,4.26
	c-0.73,2.26-2.1,4.16-3.18,6.21c-3,5.69-7.71,8.72-14.14,8.16c-11.21-0.98-22.45,0.36-33.65-0.86c-4.09-0.44-8.27-0.18-12.38,0.55
	c-2.15,0.38-4.31,0.44-6.11-1.19c0-5.99,0-11.99,0-17.98c4.1-6.53,4.79-14.54,9.14-20.96C12.53,217.84,11.34,214.38,11.83,211.45z"
	/>
<path class="st29" d="M81.93,169.85c-0.31-2.29,3.54-0.43,2.98-2.98c3.65,1.94,3.72-0.63,3.74-2.99c1.6-1.28,2.86,1.07,4.36,0.11
	c2.67-2.79-1.11-4.7-1.07-7.14c1.91-1.43,1.64-5.01,4.96-5.05l0.09,0.09c0.62,1,0.86,1.99-0.05,2.96c-2.86,1.34-1.68,3.48-1.06,5.47
	c1.62,5.26,0.17,8.58-5.68,9.32c-2.43,0.31-4.83,0.81-7.24,1.22C82.33,170.81,82.23,170.23,81.93,169.85z"/>
<path class="st30" d="M96.93,154.85c0.02-0.99,0.03-1.97,0.05-2.96c4.15,1.71,3.44,5.57,3.94,8.89
	C99.59,158.81,98.26,156.83,96.93,154.85z"/>
<path class="st31" d="M102.88,142.94c-0.98-0.32-1.96-0.63-2.95-0.95c2.22-7.48,4.55-9.68,11.27-9.66
	c-2.62,2.73-2.01,6.99-6.52,7.62C102.88,140.2,102.96,141.63,102.88,142.94z"/>
<path class="st30" d="M96.9,151.81c-2.21,1.14-1.58,5.07-4.96,5.05c-0.25-2.88,1.55-4.86,3.06-6.97
	C95.63,150.52,96.26,151.17,96.9,151.81z"/>
<path class="st23" d="M114.08,146.14c0.25-0.19,0.53-0.29,0.84-0.3c-0.08,0.44-0.16,0.88-0.37,2.01
	C114.28,146.85,114.18,146.49,114.08,146.14z"/>
<path class="st32" d="M94.99,149.88c-0.82-1.98-2.46-3.97,0.1-5.89c7.08,2.07,9.16,8.12,10.9,14.18c1.18,4.12,1.68,8.43,2.24,12.7
	c-2.11,7.11,0.38,13.61,2.71,20.11c1.16,3.24,1.4,6.38-0.35,9.48c-0.23,0.12-0.46,0.23-0.69,0.35c-4.96-7.65-4.34-16.55-5.38-25.02
	c-0.64-5.19-0.65-10.42-3.6-15.01c-1.48-2.41-1.26-5.66-3.78-7.55c-0.35-0.29-0.66-0.61-0.96-0.95
	C95.51,151.62,95.33,150.71,94.99,149.88z"/>
<path class="st33" d="M45.93,161.82c0.94-0.9,2.23-2.76,2.75-2.57c6.69,2.53,13.31-1.59,19.73-0.16c2.94,0.66,5.8-0.42,8.54,0.75
	c-0.23,1.01-0.95,1.53-1.84,1.87c-2.35,0.47-4.6,1.16-6.18,3.15l0.02-0.02c-1.4,1.3-2.82,0.38-4.18-0.04
	c-2.88-0.89-5.23-0.44-6.8,2.35c-4.02,4.07-9.98,5.82-13.03,11.11c-0.78,1.35-2.3,0.96-3.42-0.13c-0.78-0.99-1.16-2.1-1.15-3.35
	c0.19-1.42,0.36-2.86,1.21-4.08c1.13-1.16,2.73-1.63,4-2.63C48.06,166.1,48.62,164.07,45.93,161.82z"/>
<path class="st34" d="M74.91,160.9c0.68-0.35,1.36-0.7,2.05-1.05c0.67,0.33,1.34,0.65,2.01,0.98c0,0-0.04,0.06-0.04,0.06
	C77.59,162.12,76.26,163.72,74.91,160.9z"/>
<path class="st35" d="M74.91,160.9c1.35,1.67,2.67-0.33,4.01-0.02c0.96,1.77,0.25,3.11-1.39,4.59c-2.57-3.58-5.67,0.26-8.6-0.62
	C69.22,160.96,72,160.83,74.91,160.9z"/>
</svg>
