<?xml version="1.0" encoding="utf-8"?>
<!-- Generator: Adobe Illustrator 26.1.0, SVG Export Plug-In . SVG Version: 6.00 Build 0)  -->
<svg version="1.1" id="Layer_1" xmlns="http://www.w3.org/2000/svg" xmlns:xlink="http://www.w3.org/1999/xlink" x="0px" y="0px"
	 viewBox="0 0 297 282" style="enable-background:new 0 0 297 282;" xml:space="preserve">
<style type="text/css">
	.st0{fill:#453233;}
	.st1{fill:#39292A;}
	.st2{fill:#453031;}
	.st3{fill:#3B2425;}
	.st4{fill:#3C2322;}
	.st5{fill:#412321;}
	.st6{fill:#3F2424;}
	.st7{fill:#442C2C;}
	.st8{fill:#4C302E;}
	.st9{fill:#4A2F2C;}
	.st10{fill:#442926;}
	.st11{fill:#3E2727;}
	.st12{fill:#4A3028;}
	.st13{fill:#442F2F;}
	.st14{fill:#412B2A;}
	.st15{fill:#513431;}
	.st16{fill:#402928;}
	.st17{fill:#522F2A;}
	.st18{fill:#39201E;}
	.st19{fill:#52332F;}
	.st20{fill:#4A2A26;}
	.st21{fill:#3B2322;}
	.st22{fill:#4E2F2D;}
	.st23{fill:#3F2523;}
	.st24{fill:#513432;}
	.st25{fill:#391E1B;}
	.st26{fill:#523536;}
	.st27{fill:#4A302E;}
	.st28{fill:#422C2C;}
	.st29{fill:#4D3234;}
	.st30{fill:#54322C;}
</style>
<path class="st0" d="M152.83,8.85c0.07,1.6,1.25,2.83,2.46,2.68c4.53-0.56,9-1.51,13.72-2.36c-1.69-3.54-4.85-1.06-6.45-2.91
	c5.04-2.67,14.29-0.97,20.3,3.74c0.44,1.6-0.59,2.24-1.8,2.75c-4.47-0.15-8.94,0.03-13.2,1.52c-3.31,1.15-6.14,2.43-8.66,5.68
	c-2.85,3.68-7.41,6.4-11.63,9.03c-2.17,0.36-4.46,0.56-5.6-1.69c-1.02-2.01,0.64-3.25,2.07-4.34c2.72-0.45,6,0.67,7.69-2.96
	c-1.26-0.11-2.62,0.05-3.97,0.34c-2.92-2.61-2.92-2.61,1.74-6.03c0.68-1.24-0.58-2.15-0.55-3.28C150,9.88,151.15,8.88,152.83,8.85z"
	/>
<path class="st1" d="M144.89,30.97c-0.63-3.06-3.19-2.07-5.11-2.46c-0.11-2.94,3.34-6.72-1.92-8.54c2.47-4.5,6.64-6.9,11.08-8.96
	c1.25,0.95,2.5,1.89,3.69,2.79c-1.04,3.31-5.87,1.2-6.06,4.91c-0.02,0.4,0.84,0.85,1.3,1.28c0.56,2.54-1.58,2.39-2.97,2.98
	c-0.84,1.18-1.69,2.36-2.52,3.53c1.52,2.26,3.69,1.19,5.52,1.47c0.33,0.31,0.43,0.7,0.33,1.14c-0.46,1.02-1.2,1.76-2.22,2.22
	C145.57,31.43,145.19,31.32,144.89,30.97z"/>
<path class="st2" d="M208.8,12.01c2.21,0.84,4.44,1.78,6.02-1.04c1.03-0.74,2.08-0.61,3.12-0.03c2.19,0.51,4.79,0.26,5.76,3.07
	c-0.2,0.63-0.5,1.17-1.18,1.38c-0.33-0.05-0.65-0.01-0.97,0.12c0.36,0.66,0.95,1.25,0.74,2.12c-0.17,0.43-0.45,0.76-0.83,1.01
	c-4.44,1.22-7.4,3.92-8.49,8.49c-0.63,0.44-1.3,0.49-2.01,0.23c-0.39-0.27-0.7-0.61-0.93-1.02c-1.04-2.65-2.45-5.19-2.84-8.08
	c-0.39-0.56-0.7-1.14-0.62-1.85c0.8-1.58,2.28-1.38,4.33-0.91c-0.11-0.08-0.65-1.2-0.7-0.54C208.31,14.66,207.88,13.66,208.8,12.01z
	"/>
<path class="st3" d="M233.96,23.9c-2.8,2.47,2.35,2.7,1.11,5.06c-2.77,0.8-4.22-0.98-5.19-3.33c-0.99-2.37-2.04-4.33-5.07-2.66
	c-1.16-1.79,0.37-2.93,1.03-4.27c0.44-0.21,0.85-0.16,1.2,0.19c0.28,0.28,0.57,0.57,0.85,0.85c1.04,1.2,2.23,2.15,3.89,2.32
	C232.51,22.68,233.24,23.29,233.96,23.9z"/>
<path class="st4" d="M144.89,30.97c0.33,0,0.67-0.01,1-0.01c1.06-0.73,2.18-1.4,2.97-2.47c1.36-1.82,3.12-2.52,5.34-1.97
	c2.31,2.91-1.54,5.83,0.01,8.75c0.11,0.59,0.11,1.21,0.59,1.68c0.72,0.08,1.05-0.48,1.47-0.91c1.34-1.55,2.3-3.6,4.78-3.64
	c0.49,0.11,0.89,0.36,1.2,0.75c0.29,0.73,0.25,1.43-0.08,2.13c-5.63,7.03-11.82,13.72-14.13,22.8c-3.54-0.92-2.37-3.81-2.29-6
	c0.18-4.61,2.38-8.87,2.44-13.67c-4.24,4.37-1,11.47-5.66,15.77c-2.77-1.14-2.35-3.13-1.65-5.22c0.02-0.66,0.03-1.32,0.05-1.98
	c0.86-0.85,0.07-2.19,0.9-3.04c0.01-0.66,0.02-1.31,0.03-1.97c-0.29-0.91,0.33-2-0.68-2.91c-2.87-0.36-5.63,1.7-8.58,1
	c-1.42-0.34-4.6-0.15-1.71-3.08c0.99-0.01,1.99-0.02,2.98-0.02C138.74,37.16,142.36,35.06,144.89,30.97z"/>
<path class="st5" d="M139.99,62.3c0.76,1.46,1.35,2.59,1.94,3.72"/>
<path class="st0" d="M147.9,28.97c0.33,0,0.65,0.01,0.98,0.02c-0.57,1.3-1.56,1.96-2.99,1.97C146.56,30.3,147.23,29.63,147.9,28.97z
	"/>
<path class="st6" d="M230.82,41.96c1.71,1.34-0.32,2.66-0.01,4c-0.03,0.21-0.05,0.41-0.07,0.62c-0.29,0.81-0.73,1.53-1.27,2.2
	c-0.3,0.33-0.66,0.56-1.08,0.71c-0.43,0.08-0.86,0.07-1.3,0c-2.78-0.42-1.91,3.32-4.06,3.56c-0.34,0.32-0.75-0.19-1.12,0.04
	c-0.12,0.52,0.38,0.83,0.4,1.31c0.02,0.44-0.03,0.85-0.14,1.27c-2.42,3.64-2.72,8.38-6.02,11.54c-0.93-0.12-1.44-0.77-1.89-1.5
	c-0.94-1.06-2.44,0.24-3.4-0.8c-0.84-3.08,0.95-5.52,2.28-7.85c1.97-3.44,2.92-6.99,2.79-10.86c-0.1-2.96,0.95-4.79,4.09-4.98
	c0.97-0.02,1.73,0.76,2.94,0.78c0.55-2.57-2.21-3.61-2.65-5.67c0.39-2.01-0.73-4.71,2.48-5.4c1.52,3.05,5.48,4.25,6.04,8.03
	C229.9,39.7,229.76,41.23,230.82,41.96z"/>
<path class="st6" d="M240.83,51.93c1.24,1.04,1.8,2.42,1.94,4c-1.44,1.68,1.23,3.33,0.04,5.02c0,0.66,0.01,1.33,0.01,1.99
	c-0.77,0.45-1.63,0.25-2.45,0.38c-1.07,0.1-1.06,1.79-2.45,1.55c-1.44-0.59-2-1.96-2.49-3.38c-0.7-1.28-1.88,0.67-2.63-0.4
	c-1.36-4.12-4.3-7.8-3.47-12.52c0.26-1,0.96-1.76,1.47-2.61l0,0c4.85-1.93,1.59,4.72,5.42,4.4c1.51-0.43-0.26-2.96,1.47-3.86
	C240.47,47.26,238.95,50.62,240.83,51.93z"/>
<path class="st3" d="M222.78,29.05c-3.43,1.61-3.7,5.01-4.33,8.13c-1.6-0.19-1.47-1.34-1.7-2.25c-1.82-1.46-0.27-3.46-0.8-5.12
	c-0.01,0.02-0.03,0.04,0.02-0.02c0.48,1.1-0.27,1.35-0.98,1.65c-1.88-0.18-2.3-1.59-2.64-3.08c-0.03-0.52,0.13-0.98,0.49-1.37
	c-1.45-4.97,2.42-8.85,8.97-8.98c0.56,1.54-1.35,1.59-1.63,2.75c0.23,1.54,1.88,2.04,2.67,3.23
	C225.77,25.7,221.28,27.34,222.78,29.05z"/>
<path class="st2" d="M222.84,23.98c-3.76,1.39-3.18-3-6.03-3.76c2.15-0.96,3.56-1.59,4.98-2.22c0,0,0.03-0.03,0.03-0.03
	c0.69-0.58,1.39-0.58,2.08,0c0.64,0.34,1.28,0.68,1.92,1.03c1.27,1.74-1.32,2.49-1.02,3.98C224.15,23.31,223.49,23.64,222.84,23.98z
	"/>
<path class="st7" d="M237.82,38.98c3.97,0.06,3.5,2.81,3.62,5.86C238.9,43.24,237.69,41.52,237.82,38.98
	C237.82,38.98,237.82,38.98,237.82,38.98z"/>
<path class="st8" d="M230.82,41.96c-2-0.1-2.03-1.53-2-2.99c0.83-1.68,1.66-3.36,2.59-5.26C232.57,36.76,230.23,39.25,230.82,41.96z
	"/>
<path class="st6" d="M227.54,32.13c-0.12,0.03-0.31,0.12-0.34,0.09c-0.08-0.1-0.09-0.26-0.13-0.39c0.12-0.03,0.31-0.12,0.34-0.08
	C227.49,31.84,227.5,32,227.54,32.13z"/>
<path class="st9" d="M238.9,83.98c-0.69-0.5-1.57,3.07-2.14-0.1c-0.71-1.35,0.25-2.12,1.03-2.95c0.81-1.48,1.62-2.95,2.64-4.83
	c2.32,2.89-1.07,4.7-0.59,6.88C239.53,83.31,239.22,83.64,238.9,83.98z"/>
<path class="st10" d="M241.78,66.96c-0.34-1.33-0.67-2.66-1.01-3.99c0.66-1.09,1.36-0.14,2.04-0.03c1.46,2.6,1.74,5.79,3.98,8
	c0.82,3.91-0.9,7.14-3.28,10.43C245.45,76.17,243.44,71.59,241.78,66.96L241.78,66.96z"/>
<path class="st11" d="M196.85,23.99c4.41,0.41,5.06-3.49,6.91-6.02c1.35,0.99,2.7-0.83,4.04,0.01c0.65,0.04,1.3,0.08,2.58,0.16
	c-3.96,3.15,1.39,5.12,0.38,7.91c-0.7,0.49-1.54,0-2.32,0.31c0.77,1.33,1.6,2.62,2.05,4.1c0.17,0.45,0.28,0.9,0.37,1.36
	c0.19,1.45,0.24,2.88-0.74,4.12c-1.23-1.75-2.25,0.63-3.43,0.17c-0.25-0.23-0.49-0.48-0.58-0.79c-2.16-7.53-2.15-7.53-10.11-7.59
	c-0.47-0.09-0.9-0.28-1.27-0.58C194.17,25.24,195.61,24.68,196.85,23.99z"/>
<path class="st11" d="M209.83,30.98c0.12-1.38-0.39-2.91,0.95-4c0.68,0,1.36,0,2.05,0c0,0.33,0,0.65,0,0.98
	c-0.36,1.78,1.8,3.61-0.11,5.36C210.49,34.08,210.59,32,209.83,30.98L209.83,30.98z"/>
<path class="st12" d="M231.86,108.9c0.64-0.33,1.28-0.65,1.92-0.98c-0.08,2.27-0.58,4.39-2.22,6.47
	C230.16,112.26,231.01,110.58,231.86,108.9z"/>
<path class="st13" d="M153.86,26.94c3.23-1.52,6.7-0.47,10.03-0.92c0.14,3.4-4.05,2.92-4.86,5.46c-0.13,0.63-0.25,1.26-0.49,1.87
	c-0.56,1-1.44,1.67-2.38,2.28c-1.04,0.53-2.11,0.86-3.26,0.35C151.69,32.81,153.79,29.98,153.86,26.94z"/>
<path class="st14" d="M187.84,22.96c-0.89,0.3-1.78,0.6-2.81,0.94c0.54,1.15,1.06,2.24,1.66,3.51c-3.19,0.99-4.55-1.98-6.84-2.41
	c-1.02,0.41-1.18-0.1-1.03-0.95c1.1-0.12,2.19-0.25,4.34-0.49c-5.74-4.37-12.22-2.45-17.8-5.32c8.34-3.82,15.48-1.16,22.49,2.69
	c1.01-0.74,2.01-0.84,3,0.06C189.85,21.65,188.85,22.31,187.84,22.96z"/>
<path class="st15" d="M175.86,23c-2.2,3.99-5.21,1.45-7.96,0.98c-3.36-0.25-6.63-2.09-10.11-0.3
	C161.49,20.14,171.15,19.92,175.86,23z"/>
<path class="st16" d="M190.83,18.05c-0.98-0.36-1.97-0.72-2.95-1.08C189.83,16.01,190.25,16.16,190.83,18.05z"/>
<path class="st17" d="M221.91,52.98c0.61-1.39,2.08-1.85,2.22-4.1c0.2-3.2,2.41-0.94,3.74,0.08c2.17,3.45,0.38,6.63-0.65,9.85
	c-2.2,2.75-0.16,6.87-2.99,9.44c-2.2-0.12-3.28-1.34-2.89-3.47c0.3-1.65,0.27-3.17-0.41-4.7c-0.21-1.83,0.11-3.56,0.92-5.19
	c0-0.32-0.02-0.65-0.04-0.97c-0.3-0.24-0.38-0.47-0.25-0.66C221.67,53.07,221.79,52.98,221.91,52.98z"/>
<path class="st18" d="M202.75,68.86c0.67-0.68,1.34-1.36,2.01-2.04c1.8,1-1.6,2.12,0.07,3.12c-0.67,1-1.33,2-2,2.99
	C200.76,71.6,200.76,71.6,202.75,68.86z"/>
<path class="st19" d="M210.74,46.84c-0.3,0.71-0.59,1.42-0.89,2.13c-0.69-0.08-1.18-0.45-1.57-0.99c-0.33-0.54-0.58-1.13-0.82-1.72
	c-0.37-0.77-0.63-1.57-0.74-2.42c0.06-2.62,0.13-5.24,0.19-7.86c0.96-1.55,1.93-1.34,2.9,0c0.58,0.38,0.85,0.96,1.1,1.91
	c0.02-2.08,0.55-3.66,1.87-4.9c0.7-1.67-1.69-3.37,0.05-5.04c0.67,1.01,1.34,2.03,2.01,3.04c-2.13,4.09-0.77,9.22-3.9,13.01
	C209.77,44.88,210.28,45.87,210.74,46.84z"/>
<path class="st20" d="M231.77,61.98c0.03,0.64,0.06,1.28,0.1,1.91c0.32,0.35,0.63,0.7,0.94,1.05c0.61,1.56-1.14,2.33-1.22,3.66
	c-0.72,1.33-0.58,3.3-2.67,3.61c-0.76-0.22-1.29-0.89-2.12-1.15c-1.71,0.51-1.74,3.08-3.81,3.2c-0.76-0.18-1.3-0.63-1.7-1.26
	c-0.32-0.7-0.42-1.43-0.33-2.2c0.49-1.38,0.67-3.06,2.78-2.88c1.4-2.83-0.07-6.32,2.09-8.97c-0.04,2.98,2.97,5.01,2.15,8.26
	C231.1,66.42,228.36,62.15,231.77,61.98z"/>
<path class="st9" d="M235.75,83.93c-0.33,0.3-0.66,0.6-0.99,0.9c-0.95,1.7-2.23,3-4.22,3.41c-1.49-0.52-1.53-1.72-0.86-2.72
	c1.62-2.4,0.77-5.45,2.28-7.84c0.96-1.57,1.27-3.54,2.88-4.7c2.79-1.59,2.94,0.16,2.95,2.27c0.01,1.97,0.1,3.94-0.89,5.74
	C237.2,82.24,236.43,83.07,235.75,83.93z"/>
<path class="st21" d="M229.81,77.95c1.01,0.01,2.01,0.02,3.02,0.03c-0.67,3.32-1.34,6.64-2.01,9.96c-0.89,2.59-3.91,2.6-5.54,4.74
	c2.61,1.04,1.52,3.28,1.54,5.25c-0.47,1.73-3.06,1.87-3.01,4c-6.66,2.31-7.14,8.59-8.99,13.99c-0.04,0.31-0.06,0.61-0.06,0.92
	c-0.1,0.2-0.2,0.4-0.29,0.6c-0.6,0.69-1.34,1.2-2.07,1.74c-0.57,0.44-1.13,0.87-1.85,1.05c-0.51-0.05-0.97-0.21-1.39-0.48
	c-1.97-1.81-1.94-4.22-1.44-6.44c0.74-3.26,0.61-6.54,0.91-9.8c0.18-1.16,0.49-2.32,0.57-3.51c0.04-0.23,0.1-0.46,0.15-0.69
	c0.19-0.44,0.5-0.78,0.91-1.03c1.11-0.49,2.25-0.44,3.41-0.22c1.09,0.04,1.91,0.95,2.98,1.02c0.9-0.98,1.43-2.08,1.5-3.38
	c0.37-2.22-1.42-4.19-0.77-6.45c0.87-2.29,2.51-3.4,4.94-3.31c0.42,0.07,0.84,0.2,1.22,0.4c1.5,1.37,1.73-0.75,2.66-1
	c2.81-1.57,1.52-4.92,3.08-7.01C229.43,78.2,229.62,78.07,229.81,77.95z"/>
<path class="st22" d="M196.93,44.96c-0.08-0.94-0.16-1.87-0.24-2.81c-0.2-0.02-0.39-0.04-0.59-0.06c-0.58,3.01-1.16,6.02-1.75,9.04
	c-1.91,0.03-3.61-0.24-4.52-2.19c-0.93-0.76-2.05-1.25-2.99-1.99c-0.35-0.3-0.7-0.61-1.05-0.91c0.03-0.39,0.07-0.78,0.11-1.17
	c2.39,0.56,4.79,1.13,7.06,1.66c3.65-3.79-0.39-7.91,0.52-11.78c2.57,0.28,2.57,0.28,4.35,6.21
	C198.8,42.58,199.5,44.14,196.93,44.96z"/>
<path class="st22" d="M204.71,43.04c-1.95,0.31-3.9,0.63-5.85,0.94c-0.63-1.01,0.18-2.01,0.03-3.02c1.71-2.91-0.97-5.58-0.99-8.98
	C203.45,34.28,205.19,38,204.71,43.04z"/>
<path class="st11" d="M194.86,27c-0.69,0.8-1.38,1.61-2.27,2.65c-0.62-2.48,1.03-2.37,2.22-2.7C194.81,26.95,194.86,27,194.86,27z"
	/>
<path class="st23" d="M214.78,69.94c0.99-0.35,1.98-0.71,2.97-1.06c0.36,0.31,0.58,0.69,0.67,1.16c0.01,0.46-0.08,0.91-0.25,1.33
	c-0.27,0.55-0.72,1-0.99,1.54c-0.29,0.59,0.05,1.12,0.04,0.45c-0.02-0.67,0.82,0.43,0.46-0.14c0.67-0.43,1.34-0.72,2.15-0.49
	c1.08,1.21,0.53,2.42,0.05,3.63c-0.18,0.39-0.39,0.77-0.63,1.13c-0.76,1.03-1.28,2.19-1.79,3.35c-1.11,2.05-2.96,3.62-3.71,5.88
	c-0.03,1.1,1.05,1.63,1.33,2.58c0.03,0.44-0.11,0.81-0.41,1.13c-1.28,1.05-3.18,1.04-4.23,2.5c-1.16,1.28-1.16,3.34-2.89,4.23
	c-1.42-0.26-1.62-1.37-1.8-2.51c-0.44-0.99,1.14-2.12-0.23-3.04c-1.47,0.17-2.92,0.4-4.34-0.28c-4.36-3.76-0.09-5.77,1.65-8.3
	c4.54-1.4,5.86-5.86,8.54-9.02C212.53,72.68,213.65,71.3,214.78,69.94z"/>
<path class="st24" d="M202.75,68.86c0.5,1.35-1.73,2.75,0.08,4.07c0,1.4-0.66,2.4-1.91,3.01c-0.55,0.5-1.17,0.86-1.93,0.92
	c-3.2-0.26-3.3-2.51-2.57-4.68c0.68-2.02,0.47-5.45,4.42-4.24C201.48,68.25,202.11,68.55,202.75,68.86z"/>
<path class="st25" d="M198.87,75.98c0.68-0.01,1.37-0.03,2.05-0.04c-0.04,0.32-0.05,0.65-0.03,0.98c0.14,0.75,1.71,0.84,0.94,2.01
	c-1.35,1.64-2.69,3.29-4.04,4.93c-0.16,0.14-0.31,0.28-0.47,0.42c-2.16,0.2-1.7-1.28-1.63-2.52
	C195.39,79.08,196.55,77.21,198.87,75.98z"/>
<path class="st24" d="M201.84,78.93c0.15-0.89-2.07-0.67-0.94-2.01c1.29,0.03,1.92,0.67,1.86,1.97
	C202.45,78.91,202.14,78.93,201.84,78.93z"/>
<path class="st20" d="M221.81,60.95c-0.29,0.69-0.58,1.39-0.87,2.08C220.82,62.16,220.98,61.41,221.81,60.95z"/>
<path class="st24" d="M200.84,67.95c0.01-1.11-0.16-2.29,1.04-2.99C202.58,66.31,202.46,67.39,200.84,67.95z"/>
<path class="st26" d="M214.8,86.9c1.39-3.98,4.67-6.18,8.02-8.69c1.56,1.15,3.35,1.74,4,3.72c0.01,0.2,0.03,0.39,0.04,0.59
	c0.06,0.79,0.32,1.56,0.39,2.35c0,0.43-0.18,0.77-0.54,1.01c-1.38,1.19-1.86,3.41-4.53,3.94c0.7-1.24,1.16-2.04,1.61-2.83
	c-0.24-0.36-0.54-0.39-0.88-0.15c-2.39-0.08-4.09,0.93-5.04,3.16c-0.15,2.12-1.44,2.45-3.2,2.03c-0.43-0.73-0.45-1.43,0.15-2.09l0,0
	C215.72,88.91,213.86,87.92,214.8,86.9z"/>
<path class="st23" d="M210.03,101.85c-0.05-0.64-0.1-1.29-0.15-1.93C210.78,100.5,210.9,101.13,210.03,101.85z"/>
<path class="st23" d="M208.01,98.83c0.6,0.03,1.21,0.06,1.81,0.09c0,0.31,0.01,0.63,0.01,0.94
	C209.23,99.52,208.62,99.17,208.01,98.83z"/>
<path class="st27" d="M195.85,58.97c-0.71,0.33-1.41,0.66-2.12,0.99c1.06-3.68,2.13-7.36,3.19-11.04c0.31,0.03,0.63,0.04,0.94,0.03
	c0.67,0,1.35,0,2.02,0c0.56,0.62,0.48,1.32,0.23,2.03C198.04,53.3,199.71,57.61,195.85,58.97z"/>
<path class="st28" d="M214.84,91.88c-1.01,0.75-2.02,1.5-3.12,2.33c-1.36-0.06-1.29-1.49-1.91-2.28c1-2.36,3.36-1.3,5.02-2.01
	C214.83,90.58,214.84,91.23,214.84,91.88z"/>
<path class="st28" d="M214.8,86.9c0.33,1,1.57,2,0.03,3.02c-0.72-1.28-3.15-0.85-3.01-3C212.82,86.92,213.81,86.91,214.8,86.9z"/>
<path class="st29" d="M197.8,83.86c1.5,1.76,1.59,3.18-0.86,4.17c-1.8,0.73-3.07,1.94-3.01,4.09c-0.01,0.9-0.59,1.33-1.35,1.59
	c-1.35,0.27-2.48-0.07-3.33-1.19c-3.17-5.09-3.01-5.64,1.9-6.67c2.6,0.65,4.63-0.69,6.67-1.97L197.8,83.86z"/>
<path class="st21" d="M226.78,81.91c0,1.01,0,2.02,0,3.03C224.81,83.93,224.81,82.92,226.78,81.91z"/>
<path class="st30" d="M197.78,61.92c-0.67,0.99-1.33,1.99-2,2.98c-2.93-1.05,0.3-1.98,0.05-2.98
	C196.48,61.89,197.13,60.9,197.78,61.92z"/>
</svg>
