<?xml version="1.0" encoding="utf-8"?>
<!-- Generator: Adobe Illustrator 26.1.0, SVG Export Plug-In . SVG Version: 6.00 Build 0)  -->
<svg version="1.1" id="Layer_1" xmlns="http://www.w3.org/2000/svg" xmlns:xlink="http://www.w3.org/1999/xlink" x="0px" y="0px"
	 viewBox="0 0 297 282" style="enable-background:new 0 0 297 282;" xml:space="preserve">
<style type="text/css">
	.st0{fill:#261113;}
	.st1{fill:#2F1B19;}
	.st2{fill:#BD7E7B;}
	.st3{fill:#A77376;}
	.st4{fill:#2B1413;}
	.st5{fill:#321D1F;}
	.st6{fill:#321817;}
	.st7{fill:#B58076;}
	.st8{fill:#AC7B76;}
	.st9{fill:#331819;}
	.st10{fill:#30181A;}
	.st11{fill:#2E1615;}
	.st12{fill:#321B1C;}
	.st13{fill:#B47F76;}
	.st14{fill:#2D1A1A;}
	.st15{fill:#2C1615;}
	.st16{fill:#A87771;}
	.st17{fill:#BE7D7D;}
	.st18{fill:#B48177;}
	.st19{fill:#310A09;}
	.st20{fill:#B47F77;}
	.st21{fill:#72483D;}
	.st22{fill:#9D6A69;}
	.st23{fill:#6B4A4A;}
	.st24{fill:#885F5C;}
	.st25{fill:#A98082;}
	.st26{fill:#0D060A;}
	.st27{fill:#9396B5;}
	.st28{fill:#523439;}
	.st29{fill:#95655D;}
	.st30{fill:#452C2E;}
	.st31{fill:#846160;}
	.st32{fill:#272734;}
</style>
<path class="st0" d="M251.83,92c0.74-4.46-1.05-8.28-3.07-12.03c1.76-3.66,2.15-6.91-2.66-8.53c-2.55-2.19-3.42-5.2-4.05-8.31
	c-0.12-0.7-0.09-1.4,0.09-2.09c1.43-1.66,0.91-3.17-0.38-4.61c-0.39-1.47-1.14-2.88-0.93-4.49c0.82-0.79,1.65-1.57,2.64-2.52
	c5.37,3.65,0.98,10.93,5.8,15.72c0.41-4.23,1.84-7.3-0.06-10.75c-1.18-2.14,0.22-4.43,1.46-6.4c0.26,0.23,0.32,0.5,0.18,0.82
	c0.46,0.64,0.33,1.48,0.74,2.14c0.1,0.58,0.2,1.15,0.31,1.73c0.33,0.72,0.31,1.55,0.66,2.27C253.57,67.32,257.21,79.75,251.83,92z"
	/>
<path class="st1" d="M234.79,98.91c2.58,2.79,1.56,6.25,1.66,9.47c0.03,0.92-0.65,1.84,0.43,2.57c-0.75,2.69-4.81,4.61-1.89,8.14
	c0.27,1.2,0.89,2.51-0.94,3.04c-2.28-3.82-5.9-5.22-10.1-5.59c-0.87-0.57-1.41-1.31-1.27-2.4c2.51-1.62,4.42-3.53,4.65-6.85
	c0.11-1.54,0.93-3.17,3.3-3.5c0.87,1.59,1.73,3.27,2,5.21c-0.09,0.84-0.4,1.59-0.91,2.24c1.12-1.2,1.18-2.63,0.89-4.17
	C231.94,103.98,229.58,100.43,234.79,98.91z"/>
<path class="st2" d="M234.99,119.09c-0.32,0.84-0.63,1.68-0.95,2.52c-0.77,0.09-1.34,0.51-1.77,1.14c-0.78,2.23-1.35,4.5-1.75,6.82
	c0.16,0.18,0.31,0.36,0.46,0.54c0.28,0.27,0.57,0.54,0.85,0.81c0.34,0.45,0.68,0.43,1,0.02c0,0,0,0.01,0,0.01
	c1.25-0.22,1.03-1.17,1.04-2.01c1.14-0.29,0.93-1.27,1.03-2.09c0,0,0,0,0,0c0,0,0,0,0,0C236.11,124.28,236.42,121.7,234.99,119.09z"
	/>
<path class="st3" d="M103.1,143.73c1.18,5.21,1.84,10.66,6.47,14.11c-0.17,2.12-2.08,1.13-3.09,1.6c0.84,2.7-0.34,5.36,1.31,7.57
	c0.94,0.62,1.06,1.56,1,2.58c-0.1,0.48-0.3,0.92-0.6,1.32c-0.44,0.29-0.87,0.3-1.3-0.03c-1.62-9.98-2.3-20.37-11.8-26.88
	c1.33-1.35,3.08-1.69,4.84-2c1.39-0.93,2.13,0.12,2.95,0.95C102.99,143.2,103.06,143.46,103.1,143.73z"/>
<path class="st4" d="M127.88,43.97c0.34-0.67,0.67-1.34,1.01-2.01c4.02-1.49,8.03-1.4,12.04,0.03c-6.06,7.38-9.61,16.96-18.86,21.85
	c-1.92-1.62-2.77-2.99-0.13-4.55c4.03-2.38,6.23-6.18,7.96-10.34c0.52-0.76,1.04-1.52,1.57-2.28
	C130.14,45.67,129.01,44.82,127.88,43.97z"/>
<path class="st5" d="M134.89,81.93c-2.7-0.4-5.41-0.81-8.22-1.23c0.87-3.42,2.7-5.24,6.24-4.82c1.74,1.42,3.63,2.4,5.98,2.12
	c0.24,0.39,0.27,0.79,0.07,1.2C137.91,80.56,135.91,80.53,134.89,81.93z"/>
<path class="st6" d="M235.92,60.99c0.76,1.02,1.52,2.03,2.55,3.41c0.23-1.4,0.4-2.43,0.61-3.68c0.64,0.84,1.17,1.55,1.7,2.25
	c1.57,0.72,2.17,1.85,1.47,3.5c-0.24,0.29-0.62,0.49-0.72,0.92c0.06-0.2,0.23-0.39,0.53-0.57c3.14,2.99,3.33,6.67,3.32,10.16
	c1.73-1.08-0.87-4.42,1.42-6.04c1.79,0.89,4.3,0.51,4.79,3.54c0.45,2.76-0.68,4.27-2.82,5.49c-3.15,1.82-3.01,5.66-5.61,9.15
	c0.55-3.65,0.36-6.2-3.3-6.14c-0.94-0.87-0.56-1.81-0.1-2.78c-0.62,0.47-1.02,1.19-1.87,1.26c-0.46-0.02-0.88-0.17-1.25-0.44
	c-1.2-2.46,1.42-5.91-2-7.81c-1.21-2.35-2.31-4.74-2.69-7.39c-0.26-0.58-0.49-1.17-0.44-1.83c0.32-0.85,1-1.3,1.78-1.63
	C234.26,62.1,235.07,61.51,235.92,60.99z"/>
<path class="st1" d="M234.89,97.98c-0.14-1.14,0.06-2.39-1.13-3.15c-0.12-1.5,0.41-2.31,2.06-1.92c0,0-0.03-0.02-0.03-0.02
	C235.6,94.61,236.36,96.5,234.89,97.98z"/>
<path class="st6" d="M242.81,60.95c-0.75-1.67-1.84-3.33-0.04-5.02C244.69,57.59,245.97,59.26,242.81,60.95z"/>
<path class="st2" d="M224.8,134.88c2.58-2.04,4.26-4.52,4.01-7.99c0.18-0.14,0.35-0.27,0.53-0.41c0.45,0.11,0.8,0.35,1.03,0.75
	c0.43,0.8-0.06,1.74,0.39,2.55c0,0,0.23,0.33,0.23,0.33C228.58,131.25,229.21,136.34,224.8,134.88z"/>
<path class="st7" d="M149.9,167.99c-3.03-0.83-5.4,0.97-7.98,1.97c-0.52-0.39-0.57-0.82-0.14-1.31c0.31-0.31,0.63-0.61,0.94-0.92
	c-0.62-2.73-4.16-1.3-5.11-3.59c-4.53-5.42-4.57-6.85-0.31-11.53c1.72-1.37,4.95-0.62,5.41-3.83c0.37-0.33,0.78-0.55,1.25-0.67
	c4.68,1.33,5.04,1.98,3.39,6.03c-1.87,1.52-4.56,0.43-6.6,2.06c-1.03,4.4,2.06,5.94,5.3,7.36c0.45,0.12,0.89,0.26,1.33,0.42
	c2.69,1.43,5.57-0.78,8.28,0.43c0.38,0.34,0.57,0.76,0.57,1.27c-0.91,2.25-3,2.33-4.93,2.72
	C150.79,168.41,150.32,168.27,149.9,167.99z"/>
<path class="st8" d="M141.79,168.65c0.05,0.44,0.09,0.87,0.14,1.31c-0.73,0.24-1.46,0.48-2.2,0.72
	C140.41,170,141.1,169.32,141.79,168.65z"/>
<path class="st9" d="M225.83,58.95c1.27-3.21,2.11-6.5,2.03-9.98c0.32,0,0.64,0,0.95,0c0.77,4.44,3.18,8.47,3.33,13.07
	c-1.95,1.53-0.39,5.17-3.97,6.1C226.06,65.47,225.21,62.43,225.83,58.95z"/>
<path class="st10" d="M220.76,41.92c-0.1-1.65-1.28-3.31,0.07-4.94c3.94,0.81,3.76,3.87,4.06,6.88
	C222.62,44.56,221.64,43.34,220.76,41.92z"/>
<path class="st9" d="M229.78,47.97c-0.31,0-0.61,0.02-0.92,0.05c0.65-0.69,1.3-1.37,1.94-2.06
	C230.46,46.63,230.12,47.3,229.78,47.97z"/>
<path class="st11" d="M214.82,115.91c-0.76-0.21-1.99-0.34-1.55-1.38c1.84-4.27,3.87-8.45,5.81-12.61c1.72,0,3.22,0,4.72,0
	c-3.36,2.56,1.03,5.6-1.67,9.12c2.05-1.18,2.87-1.65,3.68-2.12c0,0-0.01-0.01-0.01-0.01c0.66,2.66-2.23,3.18-2.99,4.99
	c-2.47-0.49-4.91-0.79-6.91,1.28C215.54,115.42,215.18,115.67,214.82,115.91z"/>
<path class="st12" d="M212.78,33c-0.38,2.26-0.77,4.52-1.21,7.13c-1.75-1.06-1.72-2.62-1.76-4.15c0-1.67,0.01-3.34,0.01-5.01
	C210.85,31.59,211.28,33.07,212.78,33z"/>
<path class="st13" d="M161.87,164.87c-1.78,1.66-3.99,0.71-6,1.02c0-0.34,0-0.68,0-1.02c1.33-0.67,2.66-1.34,4-2
	c2.2-0.55,4.37-1.47,6.67-0.44c0.96,1.23,0.2,1.65-0.91,1.88C164.39,164.55,163.01,163.94,161.87,164.87z"/>
<path class="st14" d="M205.78,57.9c-0.34-0.36-0.68-0.71-1.03-1.07c-0.27-0.4-0.36-0.84-0.26-1.31c1.74-2.35,1.71-5.74,4.41-7.52
	c0.32,0.32,0.63,0.64,0.95,0.97C208.49,51.95,207.13,54.93,205.78,57.9z"/>
<path class="st14" d="M210.74,46.84c-0.92-1.01-1.71-2.01,0.19-2.83C210.87,44.96,210.8,45.9,210.74,46.84z"/>
<path class="st6" d="M211.83,86.93c1.67-2.37,3.34-4.73,5.02-7.1c0.82-0.87,1.26-1.99,2-2.91l-0.03,0.04
	c1.27-1.14,1.16-3.32,3.02-4.02c0.35,0.33,0.7,0.67,1.05,1c3.14,2.87,3.87-1.72,6.02-1.94c0.64-1.36,1.27-2.71,1.91-4.07
	c2.09,3.58,0.24,6.76-0.99,10.01c0,0,0.02-0.01,0.02-0.01c-1.75,0.83-0.6,3.6-2.78,4.14c-3.77-2.51-6.62-1.17-9.16,2.04
	c-0.99,1.25-1.88,2.65-3.4,3.42C213.47,87.86,212.58,87.67,211.83,86.93z"/>
<path class="st15" d="M214.84,91.88c1.01-0.63,2.03-1.27,3.04-1.9c0.1,1.98,3.31,3.48,0.91,5.85c-0.68,2.63-3.35,2.01-5,3.07
	c-1.32,0.01-2.65,0.01-3.97,0.02c-0.64,0.61-1.24,0.59-1.81-0.1c-0.08-0.61-0.17-1.22-0.25-1.83c0.07-1.94,0.45-3.75,2.05-5.06
	C211.5,92.77,213.16,91.4,214.84,91.88z"/>
<path class="st16" d="M197.74,159.81c-2.49,0.62-4.38,2.24-6.19,3.9c-2.72,2.48-5.31,4.39-9.12,1.65c-1.69-1.22-3.7-0.46-5.51,0.79
	c-4.72,3.25-9.61,6.27-14.34,9.52c-1.18,0.81-2.3,1.2-3.66,1.14c-0.97,0.25-1.38,0.01-0.91-1.02c4.69-5.51,10.92-8.72,17.36-11.63
	c2.34-1.06,4.65-2.19,8.14-3.83c-2.12-0.27-2.89-0.37-3.66-0.47c-0.13-0.49-0.19-1.13,0.21-1.35c4.44-2.4,8.5-5.52,13.38-7.09
	c0.45,0.23,0.71,0.61,0.8,1.1c-0.6,2.87-3.2,4.42-4.3,7.15c2.57-1.63,5.02-3.42,7.31-5.47c1.3-1.17,2.35-2.82,4.48-2.61
	c1.52,2.11,1.04,3.86-0.97,5.32c-0.65,0.67-1.31,1.33-1.96,2C198.43,159.21,198.08,159.51,197.74,159.81z"/>
<path class="st13" d="M201.81,136.86c0.33,0.66,0.67,1.32,1,1.98c0.15,2.37-2.46,3.2-2.91,5.23c0.23,0.85-0.09,1.62-0.3,2.42
	c-0.34,0.78-0.83,1.45-1.36,2.11c-1.33,1.2-1.78,3.53-4.21,3.34c-4.73,2.63-9.46,5.27-14.19,7.9c0,0-0.01,0.01-0.01,0.01
	c-2.16,0.53-4.08,2.21-6.52,1.39c-1.35-2.35,0.9-2.71,2.06-3.53c2.43-1.71,5.28-2.73,8.06-3.5c4.79-1.32,7.82-4.47,10.41-8.34
	c0.34-2,0.67-4,1.01-5.99c0.69-1.31,1.38-2.62,2.06-3.93c0.85,0.73,0.87,1.74,0.92,2.84C199.52,138.87,199.89,136.18,201.81,136.86z
	"/>
<path class="st17" d="M172.84,195.89c0.31-0.01,0.62-0.01,0.93,0.01c1.54,1.98,1.44,3.66-0.91,4.91c-1.38-1.06-0.84-2.64-1.07-4.01
	C172.13,196.5,172.48,196.2,172.84,195.89z"/>
<path class="st18" d="M160.86,48.96c-0.66,0-1.33,0.01-1.99,0.01c-0.02-0.36-0.05-0.73-0.07-1.09c0.68-0.65,1.35-1.31,2.03-1.96
	c1.16-1.02,2.75-1.19,4.02-1.99c0.02-0.28,0.07-0.55,0.16-0.82c4.25-0.02,8.5-0.03,12.75-0.05c3.31,2.38,7.25,3.76,9.8,7.37
	c2.15,3.04,3.44,5.91,2.31,9.56c-1.68,1.01-1.15,4.51-4.32,3.84c-0.84-1.22-0.42-2.48-0.15-3.78c1.24-6.04-0.01-8.89-5.35-12.35
	c-4.8-2.26-9.66-1.74-14.53-0.35C163.94,47.82,162.62,49.02,160.86,48.96z"/>
<path class="st16" d="M172.86,160.86c2.33-0.34,4.65-0.67,6.98-1.01c-2.24,2.1-4.87,3.17-7.97,3.03c-0.09-0.2-0.17-0.4-0.26-0.59
	C171.8,161.61,172.36,161.27,172.86,160.86L172.86,160.86z"/>
<path class="st16" d="M166.86,162.85c0.32-0.01,0.64-0.02,0.97-0.03c1.33-0.66,2.66-0.75,4-0.01c0,0,0.04,0.06,0.04,0.06
	c-3,2.32-6.53,2.01-10,1.99C163.04,162.98,165.68,164.71,166.86,162.85z"/>
<path class="st15" d="M206.83,93.85c-1.27-0.66-1.02-1.84-1.01-2.94c0.96-0.6,1.93-1.2,3.51-2.18
	C208.29,90.86,207.56,92.36,206.83,93.85z"/>
<path class="st13" d="M201.81,136.87c-0.01-0.67-0.01-1.34-0.02-2c0.35-0.32,0.71-0.63,1.06-0.95
	C202.84,135.02,202.99,136.18,201.81,136.87z"/>
<path class="st19" d="M198.91,145.9c0.81,0.56,0.85,1.26,0.27,1.97c-0.51,0.62-1.05,0.5-1.48-0.15
	C198.1,147.11,198.51,146.51,198.91,145.9z"/>
<path class="st20" d="M182.85,79.07c-0.67,1.27-1.34,2.55-2.01,3.82c-0.66-0.64-1.32-1.27-1.98-1.91c1.06-1.49-0.41-2.16-1.02-3.1
	c1.05-1.15,2.33-1.79,3.83-1.78C183.33,76.66,181.67,78.39,182.85,79.07z"/>
<path class="st13" d="M171.83,162.82c-1.33,0-2.67,0.01-4,0.01c1.42-1.32,3.26-1.56,5.03-1.97
	C172.52,161.52,172.17,162.17,171.83,162.82z"/>
<path class="st21" d="M193.85,67.81c-1.88,1.98-4.9,2.88-5.66,6.28c1.38,1.04,3.27,1.8,4.28,4.09c-1.27,1.78-2.71,3.97-2.55,6.71
	c-2.02,0.57-2.51-0.87-3.03-2.28c0.18-2.83-1.52-3.32-3.83-3.05c-1.74-1.22-3.56-1.93-5.68-1c-2.43-0.42-1.87-1.85-0.96-3.18
	c1.21-1.77,2.78-3.21,4.67-4.24c2.51-1.01,4.75-2.35,5.92-4.98c0.33-0.6,0.74-1.14,1.24-1.6c0.75-0.55,1.53-0.97,2.5-0.67
	c1.29-1.07,0.51-3.73,2.97-3.91c0.65-0.62,1.12-1.6,2.3-1.1c0.67,0.71,0.82,1.59,0.78,2.51c-0.12,1.19-0.83,2.3-0.57,3.56
	c0.02,0.4-0.11,0.76-0.39,1.06l0.04-0.05C195.03,66.37,194.41,67.06,193.85,67.81z"/>
<path class="st22" d="M170.94,99.87c0.32,3.07-2.52,2.96-4.12,4.1c-0.63-0.37-1.27-0.74-1.9-1.11c-0.65-1.33-1.31-2.66-1.96-3.99
	c0.71-0.67,1.55-1.09,2.53-1.18c1.17-0.13,2.35-0.28,3.54-0.29C170.28,97.75,171.3,98.28,170.94,99.87z"/>
<path class="st23" d="M191.83,83.92c3.11,0.99-0.33,2,0.01,3c-1.23,0.2-2.65-0.41-3.35,0.49c-1.63,2.47,3.1,2.3,1.28,4.56
	c-1.12,0.62-2.14,0.04-3.19-0.26c-1.04-0.39-2.13-0.58-3.22-0.77c-0.46-0.07-0.9-0.17-1.34-0.29c-1.79-0.84-4.45,0.26-5.41-2.42
	c0.19-0.83,1.3-0.95,1.62-2.22c-3.82-1.51-8.86,0.27-11.59-4c-0.12-0.5-0.06-0.95,0.21-1.38c0.59-0.5,1.28-0.74,2.03-0.84
	c3.14,0.07,6.23,1.29,9.41,0.42c1.23,0.03,2.21,0.72,3.22,1.28c2.02,1.31,4.12,0.41,6.19,0.2c0.15,1.47,0.71,2.67,2.22,3.2
	C190.56,84.56,191.19,84.24,191.83,83.92z"/>
<path class="st24" d="M176.82,87.97c1.62,1.99,4.47-0.01,6.12,1.88c-1.43,1.76-3.47,1.18-5.31,1.41c-1.31,0.16-2.9-0.91-3.88,0.83
	c-3.22,1.54-7.83,1.48-7.81,6.76c-0.99,0.01-1.99,0.02-2.98,0.03c-1.23-3.74-2.57-7.46-3.63-11.25c-0.58-2.08-1.75-4.58,1.5-5.78
	c1.75-2.4,3.76-2.8,6.1-0.81c-0.04,0.27-0.07,0.54-0.1,0.8c-0.46,0.9-1.52,1.17-2.39,2.25c2.31,1.68,4.93,1.43,7.34,1.67
	C173.74,85.97,175.67,85.98,176.82,87.97z"/>
<path class="st25" d="M160.8,80.88c0.06-0.3,0.1-0.61,0.1-0.91c0.15-0.18,0.3-0.35,0.46-0.53c0.82-0.52,1.74-0.65,2.68-0.71
	c1.17-0.05,2.34-0.04,3.5,0.21c0.46,0.13,0.88,0.35,1.26,0.63c0.23,0.27,0.32,0.54,0.27,0.83c-0.05,0.29-0.11,0.44-0.18,0.44
	c-0.66,0.07-1.32,0.13-1.98,0.2c-2.1-0.26-4.16-0.18-6.1,0.81C160.83,81.52,160.83,81.2,160.8,80.88z"/>
<path class="st26" d="M177.84,94.93c2.45,2.41,6.29,3.81,5.96,8.23c-0.63-0.13-1.26-0.27-1.89-0.4c-0.33-0.08-0.47-0.22-0.45-0.42
	c0.03-0.23,0.09-0.35,0.18-0.35c-0.54-2.12-1.64-2.34-3.5-1.3c-1.84,1.02-3.7,0.71-5.23-0.87c-0.64-0.51-1.24-1.06-1.63-1.79
	c-0.25-0.55-0.49-1.1-0.88-1.6c-0.87-0.67-2.16-0.8-2.56-2.15c1.43-2.19,3.7-1.04,5.61-1.34c0.47,0,0.94,0.06,1.4,0.16
	C176,93.46,176.99,94.08,177.84,94.93z"/>
<path class="st27" d="M171.85,95.88c0.07,0.67,0.14,1.35,0.21,2.02c0.3,0.62,0.31,1.26,0.09,1.9c-0.41,0.02-0.81,0.04-1.22,0.06
	c-0.72-0.66-1.44-1.32-2.16-1.98c-1.36,0.04-1.1-0.84-0.64-1.43C169.14,95.18,170.46,95.13,171.85,95.88z"/>
<path class="st28" d="M172.16,99.81c-0.03-0.63-0.06-1.27-0.09-1.9c0.28,0.64,0.56,1.27,0.84,1.91c0,0-0.37,0.01-0.37,0.01
	L172.16,99.81z"/>
<path class="st28" d="M171.85,95.88c-1.21,0.39-3.37-0.67-3.08,2.01c-0.63,1.26-1.77,1.01-2.85,0.95c-2.12-2.53-0.38-6.07,3.5-6.81
	c1.42-0.27,2.94-0.06,4.41-0.08c0.15,0.17,0.3,0.35,0.45,0.52c0.08,0.47-0.02,0.89-0.32,1.27c-1.65,0.1-3.31,0.2-5.04,0.31
	c0.64,1.51,2.14,0.23,2.95,0.98c0.11,0.1,0.22,0.28,0.21,0.42C172.08,95.6,171.94,95.74,171.85,95.88z"/>
<path class="st29" d="M192.85,93.95c-0.32-0.01-0.63,0.04-0.93,0.15c-5.57-1.07-10.75-4.96-16.83-2.34
	c-0.36,0.48-0.79,0.55-1.28,0.19c0,0,0.02,0.01,0.02,0.01c-0.63-0.5-1.26-0.99-2.68-2.11c4.41,0,8.1,0,11.78,0
	c0.31,0.03,0.61,0.06,0.91,0.09c0.81,0.92,2.19,0.08,3.01,0.96c0.97,0.35,1.94,0.71,2.9,1.06c0.78,1.19,2.06,0.92,3.19,1.08
	C192.91,93.35,192.87,93.65,192.85,93.95z"/>
<path class="st30" d="M176.82,87.97c-4.91-1.8-10.54-0.13-15.35-3.09c0.59-3.28,3.15-2.85,5.33-3.05c3.45,0.57,6.5,4.05,10.79,0.92
	c0.38,3.03,2.55,3.57,5.7,3.36C180.7,88.69,178.62,87.6,176.82,87.97z"/>
<path class="st24" d="M173.81,91.96c0.42-0.06,0.85-0.13,1.27-0.19c1.32,0.16,2.32,0.69,2.54,2.14c-0.93,1.07-1.84-0.01-2.75-0.04
	c-0.31,0.02-0.61-0.02-0.91-0.11C173.92,93.15,173.86,92.55,173.81,91.96z"/>
<path class="st31" d="M174.87,93.86c0.93-1.04,1.83,0.29,2.76,0.04c0.07,0.34,0.14,0.69,0.21,1.03
	C176.73,94.92,175.64,94.83,174.87,93.86z"/>
<path class="st32" d="M175.09,97.63c-0.3-0.14-0.74-0.21-0.81-0.41c-0.08-0.21,0.2-0.55,0.32-0.83c0.28,0.12,0.72,0.18,0.8,0.38
	C175.48,96.97,175.21,97.32,175.09,97.63z"/>
</svg>
