<?xml version="1.0" encoding="utf-8"?>
<!-- Generator: Adobe Illustrator 26.1.0, SVG Export Plug-In . SVG Version: 6.00 Build 0)  -->
<svg version="1.1" id="Layer_1" xmlns="http://www.w3.org/2000/svg" xmlns:xlink="http://www.w3.org/1999/xlink" x="0px" y="0px"
	 viewBox="0 0 297 282" style="enable-background:new 0 0 297 282;" xml:space="preserve">
<style type="text/css">
	.st0{fill:#010101;}
</style>
<path class="st0" d="M296.7,277.75c0.08-29.64,0.06-59.28,0.06-88.92c-0.34,0.09-0.68,0.19-1.02,0.29c0,0,0,0,0,0.01
	c-1.4-1.08-2.81-2.17-4.2-3.26c-0.01,0-0.01,0-0.01,0c-1.03-1.86-2.75-2.62-4.74-2.95c0,0,0,0,0,0c-0.97-0.49-1.93-0.98-2.9-1.47
	c0,0-0.01,0-0.01,0c0,0,0,0,0,0c-1.36-0.82-2.72-1.65-4.08-2.47c-0.01-0.01-0.02-0.02-0.03-0.03c-8.1-2.73-15.8-6.27-22.84-11.17
	c-1.05-1.3-2.44-1.93-4.08-2c0,0,0,0,0,0.01c-0.01-0.01-0.01-0.01-0.02-0.02l0.02,0.03c-1.69-0.98-3.36-1.96-5.04-2.95
	c0,0.01,0,0.01,0,0.02c0-0.01-0.01-0.01-0.01-0.02c-1.34-1.32-2.68-2.65-4.02-3.98c0,0,0,0-0.01,0c0.01,0,0.01,0,0.02,0
	c-1.53-2.7-4.27-3.18-6.94-3.8c-0.01,0-0.01-0.01-0.02-0.01c-1.68-0.02-3.35-0.03-5.02-0.05c-1.65,0.03-3.3,0.06-4.96,0.09
	c0,0,0,0,0,0c-0.01,0-0.01,0-0.01,0c-3.54-2.44-5.18-6.48-8-9.52c0.01,0,0.02-0.01,0.03-0.01l-0.04-0.19
	c0.93-0.41,1.87-0.82,2.8-1.23c0.11-0.03,0.21-0.07,0.32-0.14c1.58-0.57,2.71-1.63,3.45-3.12c1.44-0.25,1.95-1.4,2.47-2.54
	c2.36-2.01,4.71-4.03,5.02-7.42c1.18-0.24,0.98-1.17,0.99-1.99c1.14-0.29,0.93-1.27,1.03-2.09c1.21-2.57,1.52-5.15,0.09-7.76
	c-2.92-3.53,1.14-5.45,1.89-8.14c5.84-5.65,12.93-10.3,14.95-18.95c5.38-12.25,1.74-24.68,0.73-37.05
	c-0.35-0.72-0.33-1.55-0.66-2.27c-0.11-0.58-0.21-1.15-0.31-1.73c-0.41-0.66-0.28-1.5-0.74-2.14c0.14-0.31,0.08-0.57-0.16-0.8
	c0-0.01,0-0.02,0-0.03c-0.28-0.71-0.55-1.43-0.82-2.14c-0.05-1.69-1-2.85-2.26-3.84c0-0.01,0-0.01,0-0.02
	c-3.75-4.77-7.63-9.46-9.77-15.28c-0.62-1.67-2.25-2.32-3.87-2.81c-0.01,0-0.02,0-0.03,0c-0.71-0.61-1.44-1.21-2.16-1.83
	c-0.01,0-0.02,0-0.02,0c-1.28-0.77-2.56-1.53-3.85-2.29c-0.01-0.01-0.01-0.01-0.02-0.02c-0.28-0.28-0.57-0.57-0.85-0.85
	c-1.11-1.62-2.23-3.25-3.34-4.88c-0.97-2.81-3.57-2.56-5.76-3.07c-4.28-3-8.6-5.89-14.11-5.94c0,0,0,0.01,0.01,0.01
	c-0.01,0-0.01-0.01-0.02-0.01c-6.62-3.17-13.67-4.1-20.91-4.19c0,0,0,0,0,0c-0.01-0.27-0.03-0.54-0.06-0.81c-1.67,0-3.33,0-4.99,0
	c-0.01,0.28-0.03,0.55-0.05,0.83c0,0-0.01,0-0.01,0c-8.95,0.71-18.36,0-24.98,8c0,0.01,0,0.01,0,0.02
	c-1.67,0.04-2.82,1.03-3.87,2.17c0,0-0.01-0.01-0.01-0.01c-4.44,2.06-8.6,4.46-11.08,8.95c-0.01,0-0.01,0-0.01,0.01
	c-2.35,2.24-4.71,4.49-7.06,6.73c0,0,0,0.01,0,0.01c-5.45,2.65-8.37,7.8-12.07,12.18c0.01,0,0.02,0,0.02,0c-0.01,0-0.02,0-0.02,0.01
	c-3.58,5.52-7.4,10.97-6.86,18.05c-0.51,8.49-1.25,17.04,5.89,23.62c-2.43,5.32,0.85,10.9-0.71,16.27
	c-0.01,0.02-0.01,0.04-0.02,0.05c-2.34,8.75-2.58,17.64-1.44,26.56c0.25,1.97,0.47,3.55-1.73,4.37c0.01,0,0.02,0.01,0.03,0.01
	c0,0,0,0-0.01,0c-4.4,0.62-9.24,0.01-12.91,2.99c-6.88,5.6-15.32,8.28-23.14,11.66c-13.46,5.81-26.66,12.47-40.85,16.52
	c-0.57,0.49-1.45,0.28-1.95,0.9l-0.03,0.01c-0.01,0-0.02,0-0.03,0.01c0.01,0,0.02-0.01,0.03-0.02c-2.78,0.13-5.53,0.32-7.41,2.81
	c0.01,0,0.02,0,0.02,0c-0.01,0-0.02,0.01-0.02,0.01c-2.96,0.41-3.3,2.78-3.78,5.04c0,0-0.01,0-0.01,0.01
	c-2.73,4.3-6.06,8.65-6.27,13.74c-0.42,10.32-3.03,20.11-5.69,29.94c-1.55,2.58-2.29,5.43-2.69,8.37c0,0,0.01,0,0.01,0
	c-0.01,0.01-0.02,0.01-0.03,0.02c-4.35,6.42-5.04,14.43-9.14,20.96c0,5.99,0,11.99,0,17.98c0.01,0.01,0.01,0.01,0.02,0.02
	c0,4.32,0,8.64-0.01,12.95c0,0,0.01,0.01,0.01,0.01c0,0,0,0,0,0c0,3,0,6,0,9c0.9,2.06,2.7,0.93,3.98,0.94
	c40.63,0.07,81.27,0.06,121.9,0.06c0.01,0,0.01-0.01,0.02-0.01c1.99,0,3.99,0,6.01,0.01c0,0,0-0.01,0-0.01
	c54.62,0,109.23,0,163.85,0C297.82,280.86,296.69,279.05,296.7,277.75z"/>
</svg>
