<?xml version="1.0" encoding="utf-8"?>
<!-- Generator: Adobe Illustrator 26.1.0, SVG Export Plug-In . SVG Version: 6.00 Build 0)  -->
<svg version="1.1" id="Layer_1" xmlns="http://www.w3.org/2000/svg" xmlns:xlink="http://www.w3.org/1999/xlink" x="0px" y="0px"
	 viewBox="0 0 297 282" style="enable-background:new 0 0 297 282;" xml:space="preserve">
<style type="text/css">
	.st0{fill:#833D44;}
	.st1{fill:#43080F;}
	.st2{fill:#6D3E3A;}
	.st3{fill:#906767;}
	.st4{fill:#75373D;}
	.st5{fill:#79373C;}
	.st6{fill:#45080C;}
	.st7{fill:#916762;}
	.st8{fill:#9E7069;}
	.st9{fill:#835D5C;}
	.st10{fill:#9F6D69;}
	.st11{fill:#86625B;}
	.st12{fill:#8A695F;}
	.st13{fill:#885F5C;}
	.st14{fill:#3D0F18;}
	.st15{fill:#A36969;}
	.st16{fill:#7C4F4A;}
	.st17{fill:#765250;}
	.st18{fill:#7E5D58;}
	.st19{fill:#A2746D;}
	.st20{fill:#815951;}
	.st21{fill:#875B52;}
	.st22{fill:#88544E;}
	.st23{fill:#7A5750;}
	.st24{fill:#7A584F;}
	.st25{fill:#7A564F;}
	.st26{fill:#A1716C;}
	.st27{fill:#755653;}
	.st28{fill:#7A4F4A;}
	.st29{fill:#5D3132;}
	.st30{fill:#1D0309;}
	.st31{fill:#AF646F;}
	.st32{fill:#D0898E;}
	.st33{fill:#652728;}
	.st34{fill:#DDA0B0;}
	.st35{fill:#976457;}
	.st36{fill:#5A2723;}
	.st37{fill:#B87372;}
	.st38{fill:#E8B7A7;}
</style>
<path class="st0" d="M231.78,121.17c0.41,0.55,0.81,1.1,1.22,1.65c-0.16,2.51-0.27,5.04-2.24,6.96c-1.06-0.67-0.93-1.78-1.03-2.8
	C230.7,125.15,230.02,122.72,231.78,121.17z"/>
<path class="st1" d="M142.9,142.87c-1.06-1.42-2.69-0.73-4.04-1.06c0.02-0.31,0.03-0.62,0.03-0.93c1.38-0.22,3.01,0.49,4.03-1.08
	c2.37-1.33,4.07,0.99,6.18,1.13c0.96,0.42,1.74,1.02,2.06,2.07c-0.25,1.66-1.54,1.83-2.84,2.01c-0.51,0.03-1.02-0.01-1.52-0.1
	C145.35,144.53,143.85,144.21,142.9,142.87z"/>
<path class="st2" d="M134.95,146.7c2.19,0.14,4.18,0.84,5.96,2.13c1.04,4.25-2.24,2.62-4.06,2.99
	C138.12,149.4,136.3,148.14,134.95,146.7z"/>
<path class="st2" d="M131.9,151.85c-3.8,0.2-5.82,2.19-6,6.01c-1.86-1.92-0.89-3.55,0.59-5.05
	C128.04,151.22,129.68,149.83,131.9,151.85z"/>
<path class="st1" d="M134.81,139.95c1.42,0.02,2.96-0.46,4.07,0.92C137.47,140.83,135.97,141.17,134.81,139.95z"/>
<path class="st3" d="M135.96,119.74c-1.87-4.96-0.1-9.41,1.93-13.83c0.97-1.02,1.94-2.04,2.91-3.07c1.32,1.41,0.49,2.82,0.01,4.22
	c-0.49,1.21-1.2,2.35-1.44,3.68c-0.89,4.95,0.3,6.84,5.14,8.22c1.11,0.32,2.24,0.62,3.19,1.36c0.35,0.37,0.51,0.81,0.49,1.31
	c-0.24,0.45-0.58,0.78-1.03,1.01c-1.44,0.42-2.91,0.18-4.38,0.17C139.02,125.08,138.26,120.7,135.96,119.74z"/>
<path class="st4" d="M148.93,141.84c-2.45,0.63-3.82-1.92-6.01-2.05c-0.36-0.3-0.72-0.59-1.07-0.89c-0.41-3.63-5.37-0.67-5.93-4.09
	c2.41-0.26,4.66,0.4,6.9,1.16c0.65-0.05,1.24,0.17,1.8,0.47c0.92,0.51,1.8,1.08,2.6,1.76c0.79,0.72,1.55,1.46,1.99,2.47
	C149.32,141.11,149.23,141.5,148.93,141.84z"/>
<path class="st5" d="M231.78,121.17c-0.45,2.02,1.41,4.85-2.05,5.81c0,0,0.02-0.01,0.02-0.01c-0.86-0.83,0.11-2.32-1.09-3.03
	c-1.39-1.23-2.05-4.18-4.85-2.03c-0.78,0-1.55,0-2.58,0C224.6,117.75,228.29,117.6,231.78,121.17z"/>
<path class="st0" d="M228.65,123.93c1.32,0.66,1.13,1.88,1.09,3.03c-0.31-0.03-0.62-0.05-0.93-0.07
	C228.76,125.91,228.71,124.92,228.65,123.93z"/>
<path class="st6" d="M214.82,128.88c-0.01-0.66-0.03-1.33-0.04-1.99c-0.16-2.17,0.7-3.27,3-2.91c0.33,0.33,0.67,0.67,1,1
	c0.46,2.44,0.45,4.81-1.15,6.96c-1.8,0.35-1.62-1.67-2.64-2.25C215.06,129.4,215.01,129.13,214.82,128.88z"/>
<path class="st7" d="M146.9,126.91c-1.65,0-3.29,0-5.07,0c-0.82,1.53-1.58,2.95-2.53,4.73c-1.99-1.68-4.16-2.05-6.46-1.83
	c2.64-5.8,8.72-3.95,13.09-5.88c0.28-0.32,0.61-0.55,1.02-0.68c0.88-0.12,1.55-0.76,2.41-0.96c2.77,0.44,4.69,1.43,3.07,4.72
	c-0.38,0.34-0.8,0.59-1.28,0.77C149.58,128.22,148.14,128.07,146.9,126.91z"/>
<path class="st8" d="M138.86,163.9c-0.82-0.1-1.68-0.07-2.44-0.33c-3.14-1.08-6.98-2.13-6.28-6.33c0.65-3.92,4.12-4.74,7.77-4.29
	c-1.46,1.84-2.51,3.86-2.7,6.34C136.41,160.8,137.63,162.35,138.86,163.9z"/>
<path class="st9" d="M134.9,100.92c-3.05,1.4-4.32,5.39-9.08,6.16c1.83-4.21,0.73-9.12,6.24-10.08
	C135.14,96.46,134.87,98.94,134.9,100.92C134.9,100.93,134.9,100.92,134.9,100.92z"/>
<path class="st10" d="M191.89,174.83c-0.34,1-0.68,2-1.02,2.99c-0.38,0.27-0.78,0.32-1.2,0.13c-0.28-0.41-0.22-0.77,0.17-1.08
	c0.02-0.63,0.04-1.25,0.07-1.88C190.56,174.8,191.14,173.79,191.89,174.83z"/>
<path class="st11" d="M199.84,51.93c-0.02-0.36-0.05-0.71-0.07-1.07c0.04-0.63,0.08-1.26,0.12-1.89
	C202.65,49.99,200.46,50.95,199.84,51.93z"/>
<path class="st12" d="M197.78,61.92c2.04-1.65,4.08-3.31,6.12-4.96c-1.1,4.42-4.77,6.55-8.06,9.03c-0.02-0.36-0.04-0.72-0.06-1.09
	C195.35,63.18,196.77,62.69,197.78,61.92z"/>
<path class="st12" d="M193.85,67.81c0.1-1.25,0.83-1.82,2.04-1.87C195.21,66.57,194.53,67.19,193.85,67.81z"/>
<path class="st12" d="M203.87,57.02c-0.03-0.37-0.06-0.75-0.08-1.12c-0.27-0.23-0.35-0.44-0.24-0.64c0.11-0.18,0.22-0.28,0.32-0.28
	c0.32,0.32,0.64,0.65,0.96,0.97c-0.03,0.29-0.06,0.58-0.08,0.88C204.47,56.95,204.18,57.01,203.87,57.02z"/>
<path class="st13" d="M186.87,90.9c-1.1-0.02-2.26,0.15-3.01-0.96C184.95,89.96,186.11,89.81,186.87,90.9z"/>
<path class="st14" d="M141.85,138.91c-5.77-0.25-10.91-4.03-16.91-2.98c0.32-0.68,0.65-1.36,0.97-2.04
	c2.19-0.49,4.39-0.99,6.58-1.48c1.93-0.41,3.24,0.73,4.57,1.83c0.9,1.14,2.32,1.15,3.51,1.68
	C141.87,136.5,142.96,137.26,141.85,138.91z"/>
<path class="st15" d="M212.04,153.74c-0.74-1.3-1.39,0.12-2.09,0.07c-1.4-1.45-5.03-1.34-3.4-4.9c0.42-0.32,0.81-0.3,1.19,0.08
	c1.45,1.48,3.39,0.44,5.03,0.98C212.93,151.3,213.03,152.62,212.04,153.74z"/>
<path class="st16" d="M138.86,163.9c0.55,2.02,4.61,0.5,3.87,3.83c-4.14-2.24-9.32-1.72-13.09-4.99c-1.6-1.38-3.54-2.45-3.74-4.89
	c-0.27-4.55,1.43-6.25,6-6.01c1.65-0.01,3.3-0.03,4.96-0.04c1.4-1.05,2.91-1.96,4.1-3.28c0.69-0.24,1.32-0.18,1.84,0.38
	c0.62,0.53,1.23,1.05,2.02,1.72c-2.11,2.09-4.52,2.16-6.9,2.3c-0.7,0.46-1.5,0.7-2.26,1.05c-1.66,0.77-3.59,1.4-3.77,3.56
	c-0.2,2.46,1.84,3.28,3.57,4.29C136.59,162.53,137.79,163.11,138.86,163.9z"/>
<path class="st17" d="M136.89,99.92c-0.66,0.34-1.32,0.67-1.99,1.01c-3.94-3.18-4.93-2.74-6.25,2.86c2.52-0.06,3.32-3.86,6.25-2.86
	c-1.39,2.54-2.59,5.21-4.23,7.57c-1.5,2.16-3.58,3.43-6.21,1.31c-0.08-6.55,1.65-12.3,6.44-16.88c3.11,0.3,6.83-1.28,8.82,3.06
	C138.79,97.28,137.84,98.6,136.89,99.92z"/>
<path class="st18" d="M214.77,64.94c-1.11-0.03-1.44,2.27-2.96,0.99c0.01-0.33,0.01-0.66,0.02-0.98c1.11-0.8,2.22-1.59,4.24-3.04
	C215.34,63.6,215.06,64.27,214.77,64.94z"/>
<path class="st19" d="M148.87,91.9c-0.65,0.35-1.3,0.7-1.95,1.05c1.91-6.78,1.58-13.47-0.79-20.08c-0.04-0.32-0.1-0.63-0.19-0.94
	c3.84-2.86,2.8-7.08,3.06-10.93c1.32-2.66,2.1-5.59,3.9-8.02l0-0.01c2.05-1.65,2.15-6.01,6.41-4.59c0.17,0.51,0.21,1.02,0.12,1.55
	c-1.7,3.59-3.68,7.06-5.45,10.59c-2.95,5.89-3.19,12.44-2.23,18.92c0.44,2.99,0.78,5.92,0.15,8.91
	C151.34,89.92,150.68,91.39,148.87,91.9z"/>
<path class="st20" d="M177.97,42.85c3,0.11,5.27,2.02,7.83,3.2c0.68-0.01,1.27,0.23,1.83,0.59c1.04,0.76,2.15,1.43,3.32,1.99
	c1.97,0.89,2.67-0.37,3.34-1.86c0.82-1.81,0.78-3.87,1.68-5.92c2.33,0.82,2,2.77,2.23,4.44c0.03,1.22,0.03,2.43-0.01,3.64
	c-0.24,3.86-2.01,7.22-3.42,10.68c-1.62,1.23-2.19,3.34-3.75,4.67c-2.69-0.44-2.73-2.31-2.43-4.37c1.58-6.13-2.43-9.47-6.45-12.77
	c-1.49-1.22-3.76-1.5-4.47-3.67C177.75,43.26,177.86,43.05,177.97,42.85z"/>
<path class="st21" d="M158.8,47.88c-1.97,1.69-3.94,3.39-5.91,5.08c1.71-6.01,5.79-9.24,11.88-10.12c0.13,0.17,0.26,0.34,0.39,0.51
	c0.01,0.44-0.15,0.82-0.47,1.12c-1.01,0.72-2.22,1.14-3.15,2.01C160.72,47.12,159.95,47.89,158.8,47.88z"/>
<path class="st21" d="M152.89,52.97c-0.28,3.17-0.9,6.18-3.9,8.02C148.28,57.34,149.6,54.68,152.89,52.97z"/>
<path class="st21" d="M164.77,42.85c4.4-1.48,8.8-1.53,13.19,0c0,0-0.21,0.22-0.21,0.22c-4.24,2.06-8.49,2-12.75,0.05L164.77,42.85z
	"/>
<path class="st22" d="M152.09,168.7c-0.36-0.32-0.72-0.65-1.07-0.97c1.62-0.61,3.24-1.23,4.85-1.84c1.73-1.26,3.9-1.21,5.78-1.97
	c3.18-0.51,6.47-0.43,9.51-1.71c2.83-0.59,5.53-1.58,8.11-2.9c0.47-0.17,0.94-0.26,1.43-0.29c1.03,0.08,1.97,0.3,2.46,2.34
	c-8.15,4.93-17.51,8.46-24.98,14.95c-1.5,0.06-2.25-0.88-2.81-2.08c-0.23-0.71-0.23-1.42,0.06-2.12c0.37-0.68,1.26-0.92,1.58-1.78
	c-0.96-1.49-2.54-0.61-3.77-0.96C152.77,169.3,152.39,169.07,152.09,168.7z"/>
<path class="st23" d="M219.82,72.81c-0.67,0.38-1.33,0.76-2,1.14c-0.92-1-0.67-2.02-0.06-3.05c0.05-0.31,0.09-0.61,0.13-0.92
	c0.6-1.04,1.31-2.02,1.81-3.13l0,0.02c1.14-0.68,0.17-2.17,1.11-2.92c0.06-0.3,0.1-0.61,0.13-0.92c0.44-0.63,0.29-1.51,0.87-2.08
	c0,0,0.02,0.02,0.02,0.02c2.16,0.23,1.86,1.58,1.06,2.77c-1.21,1.79-0.44,2.99,0.85,4.17c-0.64,1.01-1.27,2.03-1.91,3.04
	C221.12,71.53,220.74,72.46,219.82,72.81z"/>
<path class="st24" d="M208.9,48.01c-1.36,2.65-2.71,5.3-4.07,7.95c-0.62-0.07-1.03-0.42-1.3-0.96c-0.01-0.19-0.02-0.38-0.03-0.57
	c0.11-0.16,0.22-0.31,0.32-0.47c1.66-2.66,3.32-5.32,4.98-7.98C208.84,46.66,208.87,47.34,208.9,48.01z"/>
<path class="st25" d="M170.84,192.84c0.17-1.79-0.02-3.49-1.19-4.95c1.88-1.54,2.58,1.75,4.26,1.04c-0.05,0.64-0.11,1.29-0.16,1.93
	c0,0,0.13,0.17,0.13,0.17c-0.31,0.58-0.43,1.26-0.94,1.72c-0.35,0.4-0.7,0.81-1.04,1.21C171.54,193.59,171.19,193.21,170.84,192.84z
	"/>
<path class="st26" d="M173.85,188.86c3.23-2.57,6.03-6.07,10.92-5.07c-2,1.28-3.99,2.57-5.98,3.86c-1.01,1.45-2.46,1.49-4,1.24
	C174.47,188.88,174.16,188.88,173.85,188.86z"/>
<path class="st19" d="M164.85,43.94c-1.02,1.31-2.4,1.89-4.02,1.99C161.65,44.19,163.16,43.87,164.85,43.94z"/>
<path class="st27" d="M195.85,58.97c1.31-2.7,2.61-5.41,3.92-8.11c0.33,0.22,0.45,0.45,0.37,0.7c-0.09,0.25-0.19,0.38-0.29,0.38
	c0,0.97,0,1.94,0,3.85c1.09-1.94,1.74-3.07,2.35-4.16c1.54,0.32,1.51,1.38,1.64,2.35c0,0,0.01-0.02,0.01-0.02
	c-0.81,0.8-0.11,1.38,0.28,2.02c0.14,0.41,0.05,0.76-0.25,1.06l0.03-0.06c-1.84,1.8-2.78,4.51-5.52,5.36
	c-0.75-0.73-1.75,0.11-2.55-0.4C195.84,60.94,195.84,59.96,195.85,58.97z"/>
<path class="st28" d="M201.81,136.86c-1.85,1.77-2.9,4.38-5.86,5.62c0.36-2.42,0.66-4.47,0.96-6.53c0.77-1.63,2.32-2.95,1.98-5.02
	c0,0-0.02,0.01-0.02,0.01c0.78-0.57,0.07-2.45,1.87-2.12c1.01,1.9-1.91,4.49,1.05,6.05C202.41,135.53,202.42,136.19,201.81,136.86
	L201.81,136.86z"/>
<path class="st28" d="M202.44,125.76c0.19-1.6,0.39-3.2,0.58-4.79c0.54-0.46,1.09-0.92,1.63-1.38
	C204.84,121.97,204.59,124.2,202.44,125.76z"/>
<path class="st28" d="M200.74,128.85c0.34-0.69,0.69-1.39,1.03-2.08C201.87,127.68,201.69,128.45,200.74,128.85z"/>
<path class="st26" d="M186.93,179.89c0.31,0.36,0.62,0.72,0.92,1.08c-0.43,0.48-1,0.92-1.51,0.31
	C185.83,180.67,186.34,180.2,186.93,179.89z"/>
<path class="st20" d="M187.83,65.94c-0.77-1.45,0.58-0.76,1.01-1C188.51,65.27,188.17,65.61,187.83,65.94z"/>
<path class="st29" d="M130.86,141.87c0-0.34-0.01-0.68-0.01-1.01c0.07-2.36,1.85-1.83,3.26-1.94c1.42,0.28,2.83,0.64,4.18,1.2
	c0.42,0.24,0.72,0.6,0.92,1.03c0.01,0.49-0.18,0.89-0.54,1.21c-1.27,0.99-4.88,0.49-2.45,3.84c1.75,1.93,3.14,3.89,0.56,6.2
	c-1.36,0.76-2.81,0.72-4.27,0.47c-4.93-0.62-5.97,0.3-5.5,4.87c2.07,3.72,5.45,5.55,9.37,6.68c2.32,0.67,4.95,0.57,6.72,2.67
	c0.21,0.76-0.06,1.4-0.47,2.02c-0.72,0.97-1.61,1.76-2.63,2.41c-1.06,0.52-2.13,1.06-3.31,0.36c-0.9-0.92,0.4-2.41-0.83-3.25
	c-0.95-0.39-1.93-0.62-2.9-0.96c-0.43-0.14-0.84-0.3-1.25-0.49c-4.33-1.94-8.77-3.77-9.67-9.27c0.27-4.82,0.64-9.52,6.28-11.51
	C130.26,145.73,129.68,143.21,130.86,141.87z"/>
<path class="st30" d="M134.81,139.95c-1.37,0.06-2.88-0.44-3.96,0.91c-3.35,0.01-5.17-1.82-5.92-4.93
	c3.67-1.55,7.33-1.98,10.77,0.47c1.99,1.41,4.67,0.3,6.52,2.03c0.59,0.58,0.99,1.22,0.88,2.09c-1.27,1.73-2.7,1.5-4.21,0.36l-0.01,0
	C137.7,139.79,136.03,140.88,134.81,139.95z"/>
<path class="st31" d="M142.79,148.92c-0.63-0.03-1.25-0.06-1.88-0.09c-2.44,0.57-3.96-1.45-5.96-2.13c-0.61-1.24-2.17-2.01-1.78-3.9
	c1.52-1.89,3.81-0.45,5.69-1c1.35-0.62,2.69-0.67,4,0.06c-0.02,2.3,1,4.58,0.23,6.92L142.79,148.92z"/>
<path class="st32" d="M148.87,149.87c0.23,1.06,0.45,2.13,0.66,3.08c-0.74,1.09-1.75,0.84-2.66,0.88c1.85-4-0.9-4.57-3.77-5.05
	c0.7-2-4.46-3.8-0.19-5.92c1.33,0.37,2.66,0.75,3.99,1.12c0.58,0.86,1.79,1.01,2.27,2C149.29,147.31,148.93,148.58,148.87,149.87z"
	/>
<path class="st33" d="M150.87,145.04c-0.66-0.07-1.31-0.14-1.97-0.2c-1.09,0.52-1.19-0.08-1.05-0.94c1.05-0.2,2.28,0.13,3.02-1.01
	c1.54,0.11,3.42-0.24,3.88,1.83c0.24,1.1-0.93,0.98-1.69,1.03C152.38,145.35,151.55,145.43,150.87,145.04z"/>
<path class="st34" d="M147.84,143.89c0.35,0.31,0.7,0.63,1.05,0.94c-0.01,0.35-0.02,0.7-0.02,1.06c-1.11-0.16-3.13,0.62-1.99-1.9
	C147.2,143.88,147.52,143.85,147.84,143.89z"/>
<path class="st32" d="M150.87,145.04c0.73,0.24,1.46,0.47,2.19,0.71C152.33,145.51,151.6,145.27,150.87,145.04z"/>
<path class="st35" d="M187.83,65.94c0.14,4.09-3.18,4.79-5.92,6.05c-0.45-0.15,0.2-1.49-1.02-0.87c-1.33,0.67-2.23,0.2-2.51-1.32
	c1.69-2.94,3.72-5.44,7.37-5.95c1.37-1.29,2.75-2.57,4.12-3.86c-0.41,1.45-0.54,2.84,0.89,3.87c-0.64,0.36-1.27,0.71-1.91,1.07
	C188.55,65.31,187.86,65.29,187.83,65.94z"/>
<path class="st36" d="M155.89,171.84c-0.98-1.04-1.96-2.08-2.94-3.12c2.29-0.77,4.54-1.2,6.73,0.37
	C159.13,171.45,158.3,172.8,155.89,171.84z"/>
<path class="st37" d="M220.86,135.9c-0.87,0.36-1.74,0.72-3.12,1.28c0.01-2.52-2.06-3.47-3.01-5.22c-0.52-0.59-0.53-1.23-0.22-1.92
	c3.7,0.24,2.56-3.61,4.26-5.06c0-0.22,0.06-0.41,0.17-0.6c1,0.04,1.64,0.52,1.84,1.53C223.35,129.22,224.19,132.55,220.86,135.9z"/>
<path class="st37" d="M217.78,123.99c-1,0.97-2,1.94-3,2.91c-1.19-0.71-0.9-1.89-0.93-2.97c0.58-0.55,0.38-1.48,0.97-2.03
	c0,0,0,0,0,0C216.25,121.97,217.36,122.48,217.78,123.99z"/>
<path class="st38" d="M214.82,128.88c-3.02,0.7-6.27,2.36-8.01-2.01c0.06-0.21,0.12-0.41,0.17-0.62c0.96-1.38,2.53-2.32,3.02-4.06
	c0.21-0.39,0.48-0.74,0.78-1.06c1.21-1.55,2.26-3.25,3.99-4.31c0,0-0.03,0.01-0.03,0.01c4.04,1.63,0,3.38,0.07,5.07
	c0.02,0.2,0.04,0.4,0.07,0.6c0.1,0.59,0.1,1.2,0.11,1.8c0.04,1,0.34,1.96,0.47,2.96C215.5,127.89,215.34,128.46,214.82,128.88z"/>
</svg>
