<?xml version="1.0" encoding="utf-8"?>
<!-- Generator: Adobe Illustrator 26.1.0, SVG Export Plug-In . SVG Version: 6.00 Build 0)  -->
<svg version="1.1" id="Layer_1" xmlns="http://www.w3.org/2000/svg" xmlns:xlink="http://www.w3.org/1999/xlink" x="0px" y="0px"
	 viewBox="0 0 297 282" style="enable-background:new 0 0 297 282;" xml:space="preserve">
<style type="text/css">
	.st0{fill:#553737;}
	.st1{fill:#5B423F;}
	.st2{fill:#533D3B;}
	.st3{fill:#543632;}
	.st4{fill:#604644;}
	.st5{fill:#64474C;}
	.st6{fill:#573937;}
	.st7{fill:#5B403F;}
	.st8{fill:#634341;}
	.st9{fill:#664A45;}
	.st10{fill:#654646;}
	.st11{fill:#6F4E47;}
	.st12{fill:#634340;}
	.st13{fill:#553D3B;}
	.st14{fill:#664642;}
	.st15{fill:#5A3E3F;}
	.st16{fill:#5C403B;}
	.st17{fill:#583833;}
	.st18{fill:#62403D;}
	.st19{fill:#5A403B;}
	.st20{fill:#5F3B3C;}
	.st21{fill:#633E42;}
	.st22{fill:#452629;}
	.st23{fill:#300E10;}
	.st24{fill:#B5C4E1;}
	.st25{fill:#BEB8BF;}
	.st26{fill:#CB8580;}
	.st27{fill:#E7F1F9;}
	.st28{fill:#917F8A;}
	.st29{fill:#AD6F6A;}
	.st30{fill:#A8ACCA;}
	.st31{fill:#645E66;}
	.st32{fill:#472529;}
	.st33{fill:#462D28;}
</style>
<path class="st0" d="M128.87,92.89c0.02-0.65,0.03-1.3,0.05-1.95c2.08,0,4.2,0.19,6.05-1.11c1.42-1.44,2.92-0.22,4.35-0.07
	c0.62-0.64,0.54-1.52,0.98-2.19c3.12-0.3,3.83,0.52,3.48,3.88c-0.24,2.34-2.07,4.53-0.68,7.03c0.5,1.87-0.35,3.34-1.4,4.76
	c-1.08,1.27-2.31,2.41-3.45,3.64c-1.82,1.42-3.02,4.03-6.39,3.18c-0.32-4.07,3.4-6.56,3.98-10.17c0.36-1.41,1.71-2.49,1.36-4.24
	c-1.47-2.15-3.87-1.16-5.87-1.55c-0.72-0.07-1.39-0.28-2-0.67C129.17,93.26,129.02,93.07,128.87,92.89z"/>
<path class="st1" d="M180.85,11.99c3.79,1.63,7.68,2.52,12.58,1.39c-1.88,2.75,3.38,3.89,0.47,6.63c0,0-0.11-0.06-0.11-0.06
	c-1.4,0.49-2.41-0.08-3.23-1.19c-0.45-0.84-1.15-1.18-2.04-1.08c-0.59,1.18,1.02,3.22-1.39,3.68c-5.61-1.77-11.05-4.36-17.35-3.37
	c4.43,1.92,10.18,0.06,13.31,4.83c-0.87,2.49-2.61,2.29-4.25,2.34c-1.22-0.12-2.32-0.57-3.37-1.15c-4.2-2.74-9.07-1.05-12.55-2.02
	c1.34,0.02,3.63,0.18,5.5,1.88c1.44,4.42-2.24,2.85-4.03,3.49c-3.52,0.05-7.05,0.36-10.54-0.42c-1.66,0.68-3.32,1.37-4.98,2.05
	c-0.34,0.42-0.67,0.41-0.98-0.02c0-0.33,0-0.66,0-0.99c2.73-2.8,5.41-5.63,9.12-7.21c2.24-0.95,3.17-2.54,1.67-4.67
	C166,13.78,172.88,9.79,180.85,11.99z"/>
<path class="st2" d="M144.89,22.98c0.99-0.99,1.98-1.99,2.97-2.98c1.96-2.48,4.93-0.31,7.26-1.46
	C151.7,20.08,151.12,27.81,144.89,22.98z"/>
<path class="st3" d="M222.78,30.95c-0.65,2.01-1.3,4.02-1.95,6.03c0.74,1.66,1.22,3.31-0.07,4.94c-1.19,0.46-2.39,0.91-3.88,1.49
	c2.02,6.59-1.29,11.74-3.81,17.13c-0.63,1.34-2.31,2.53-1.24,4.4c0.34,0.35,0.47,0.77,0.43,1.25c-1.97,4.06-1.97,4.06-4.1,2.16
	c-0.13,1.94-1.19,2.68-3.04,2.4c-2.82-1.08-0.7-3.04-0.83-4.61c5-8.18,7.74-17.15,9.21-26.56c0.31-1.97,0.62-4.01,2.82-4.93
	c1.75-0.16,1.64-1.84,2.36-2.86c1-1.43,1.68-3.39,4.09-2.74C222.78,29.68,222.78,30.32,222.78,30.95z"/>
<path class="st4" d="M207.8,17.97c-1.35,0.51-2.7,1.8-4.04-0.01c1-0.37,2.01-0.73,3.02-1.1C207.11,17.23,207.46,17.6,207.8,17.97z"
	/>
<path class="st5" d="M106.9,170.88c0.29,0.02,0.58,0.05,0.87,0.1c0.8,0.38,1.49,1.05,1.52,1.86c0.35,8.58,5.32,16,6.16,24.44
	c0.18,1.82,1.37,4.02-1.58,4.84c-0.57-0.18-1.14-0.37-1.71-0.55c-0.69-0.2-1.39-0.41-2.08-0.61c0.89-5.46-0.31-10.47-2.59-15.48
	C105.37,180.83,105.91,175.8,106.9,170.88z"/>
<path class="st6" d="M144.91,71.94c0-3.69,0-7.38,0-10.95c2.12-0.41,1.39,1.9,2.87,1.92c0-1.64,0-3.27,0-4.9
	c0.58-10.2,7.28-16.65,14.09-23.04c0.81,0.63,0.94,1.58,1.23,2.48c1.72,3.18,4.43,1.97,6.96,1.6c6.35-0.94,12.01,0.2,16.29,5.48
	c0.07,0.52-0.03,1-0.29,1.45c-3.3,1.03-5.62-1.85-8.59-2.13c-3.87-0.9-7.77-0.55-11.65-0.24c-5.54,0.95-9.49,4.01-11.9,9.09
	c-0.22,0.41-0.49,0.79-0.77,1.15c-2.62,2.08-3.29,4.86-2.89,8.06c-0.25,3.81,1.09,8.2-3.8,10.27
	C145.89,72.33,145.38,72.25,144.91,71.94z"/>
<path class="st7" d="M157.89,32.99c0.02-0.63,0.03-1.26,0.05-1.89c2.32-1.23,4.61-4.34,7.01-0.09c-1.01,0.68-2.02,1.36-3.02,2.04
	c-0.38-0.05-0.77-0.11-1.15-0.16C159.79,32.22,158.88,33.8,157.89,32.99z"/>
<path class="st0" d="M144.01,97.01c1.96-5.96,2.99-11.96,0.91-18.12c-0.75-0.43-0.38-1.48-1.08-1.94c-0.67-0.99-1.34-1.97-2.01-2.96
	c-0.79-1.35-0.67-2.71-0.02-4.07c0.04-1.3,0.08-2.61,0.12-3.91c1.25,0.63,0.85,1.9,1.12,2.9c0.29,0.98,0.59,1.96,0.88,2.94
	c0.32,0.41,0.83,0.57,1.19,0.91c0.57,0.78,1.19-0.52,1.79,0.06c0.35,0.29,0.62,0.61,0.85,0.99c2.09,6.36,2.45,12.73,0.35,19.14
	C147.2,94.79,146.76,97.08,144.01,97.01z"/>
<path class="st8" d="M138.86,70.9c-1.28-1.01-1.22-2.16-0.39-3.41c1.23-0.2,1.25,0.75,1.48,1.49
	C139.59,69.63,139.23,70.27,138.86,70.9z"/>
<path class="st9" d="M190.86,21c-1-0.02-2-0.04-3-0.06c0.63-2.15-1.65-2.85-2.58-4.9c1.2,0.43,1.9,0.68,2.6,0.93
	c1.29-0.47,2.09,0.38,2.95,1.08c0.99,0.63,1.98,1.27,2.97,1.9C193.17,21.32,191.93,20.92,190.86,21z"/>
<path class="st0" d="M132.08,131.84c-1.13,0-2.27,0-2.49,0c-2.84-5.65-5.27-10.7-7.88-15.65c-3.47-6.58-2.07-13.18,0.24-19.53
	c0.92-2.53,3.63-4.29,6.91-3.76c0,0,0.03,0.03,0.03,0.03c0.22,0.48,0.27,1.12-0.11,1.36c-6.03,3.85-4.45,10.12-4.8,15.64
	c-0.23,3.58,2.75,4.4,5.72,4.67c1.75,1.25,1.46,3.47,2.42,5.09c0.74,1.25,1.45,2.88,3.06,0.78c0.23-0.38,0.55-0.66,0.94-0.86
	c2.65,0.21,4.27,3.08,7.14,2.75c1.13,0.32,2.28,0.59,2.84,1.79c-0.57,2.08-2.38,1.97-3.92,2.01c-3.29,0.09-5.87,1.48-8,3.87
	C133.57,130.73,132.95,131.43,132.08,131.84z"/>
<path class="st10" d="M129.89,114.89c-2.31,1.59-7.68-0.49-7.37-3.3c0.72-6.6-1.88-14.58,6.38-18.66c0.67,0,1.33,0,2,0.01
	c0.68,1.77-0.72,2.72-1.57,3.86c-2.61,3.47-3.51,7.35-3.08,11.95c4.94-0.06,4.68-5.08,7.26-7.13c0.25-0.4,0.55-0.76,0.88-1.09
	c0.74-0.58,1.49-1.19,2.51-0.61c0.06,3.78-3.45,6.05-4.33,10.21c2.12-1.68,3.72-2.95,5.33-4.22c0.87,1.03,0.69,2.18,0.09,3.16
	c-2.04,3.32-0.57,7.26-2.02,10.67l-0.1,0.28c-1.64,0.34-2.31-0.79-2.79-1.98C132.45,116.49,131.74,115.15,129.89,114.89z"/>
<path class="st0" d="M144.01,96.97c-0.39,0.62-0.78,1.23-1.17,1.85C143.22,98.2,143.62,97.59,144.01,96.97z"/>
<path class="st11" d="M214.83,31c0.46-0.63,0.93-1.26,1.91-2.6c0,2.59,0,4.56,0,6.53c-2.72,2.45-2.77,6.23-3.05,9.14
	c-0.82,8.59-4.07,15.91-8.94,22.75c-0.24,1.12-1.13,1.76-1.86,2.52c-0.91,0.33-1.69,0.19-2.27-0.64c-0.14-0.42-0.16-0.84-0.08-1.28
	c0.31-1.03,0.56-2.09,1.05-3.07c1.42-2.15,3.37-4.04,3.46-6.87c0.94-3.03,2.43-5.82,3.68-8.71c0.41-0.81,0.76-1.64,0.8-2.58
	c0.12-0.96,0.3-1.89,0.61-2.81C212.28,39.48,211.19,34.34,214.83,31z"/>
<path class="st12" d="M233.6,62.9c0.05-0.65,0.1-1.29,0.15-1.94c0.71-1.15,1.42-2.3,2.17-3.52c1.61,1.41,0.08,2.44,0,3.56
	C235.43,61.97,235.98,64.23,233.6,62.9z"/>
<path class="st13" d="M240.68,52.67c0,2.08,0.08,3.02-0.04,3.94c-0.05,0.38-0.5,0.71-0.99,1.35
	C237.46,55.86,238.94,54.83,240.68,52.67z"/>
<path class="st14" d="M206.72,43.84c0.7,0.71,1.39,1.43,2.09,2.14c-1.24,2.88-0.98,6.6-4.58,8.16c-1.94-0.76-2.52,1.8-4.16,1.78
	c-1.34-0.9-1.27-2.18-1.08-3.48c0.18-0.89,0.87-1.85-0.34-2.6c-0.59-0.33-1.08-0.73-1.16-1.46c0.45-1.65,0.35-3.44,1.41-4.9
	c1.87-1.16,3.74-2.15,5.81-0.44c0.05,0.64,0.09,1.28,0.14,1.92c0,0-0.03-0.02-0.03-0.02C205.45,44.57,206.09,44.21,206.72,43.84z"/>
<path class="st0" d="M147.86,121.91c0.36,0.3,0.72,0.61,1.07,0.91c-0.26,1.18-0.32,2.74-2.08,1.12c0.96-0.64,0.21-1.25-0.03-1.87
	C147.17,122.02,147.51,121.96,147.86,121.91z"/>
<path class="st15" d="M202.84,83.04c1.41,2.86-5.34,4.69-1.01,7.93c0.38,0.4,0.52,0.88,0.4,1.42c-0.2,0.5-0.53,0.89-0.98,1.17
	c-2.6,1.04-5.01,0.68-7.25-0.94c-1.53-1.89-0.46-3.34,0.92-4.64c1.17-1.11,2.76-1.9,2.38-3.93c0.36-2.58,2.09-4.1,4.15-5.38
	c0.48-0.15,0.92-0.08,1.32,0.22c3.58,0.91,2.6-4.19,5.66-4.12C207.64,78.27,204.44,80.14,202.84,83.04z"/>
<path class="st16" d="M219.71,66.86c0.16,1.49-0.58,2.44-1.81,3.13c-0.05-0.37-0.1-0.73-0.15-1.1
	C218.4,68.21,219.05,67.53,219.71,66.86z"/>
<path class="st16" d="M220.82,63.95c-0.02,1.11,0.19,2.3-1.11,2.92C219.79,65.79,219.79,64.67,220.82,63.95z"/>
<path class="st17" d="M228.9,72.01c-0.96,2.86-2.57,4.91-5.85,4.83c-1.08-1.04-0.03-1.98-0.17-2.89c1.03-1.62,2.05-3.25,3.26-5.17
	C227.46,69.46,228.68,70.23,228.9,72.01z"/>
<path class="st16" d="M221.83,72.95c-0.86,1.45-1.15,3.32-3.02,4.02c0.33-1.38,0.67-2.77,1.01-4.16c0.05-1.3,0.81-1.82,2.01-1.85
	C221.83,71.62,221.83,72.28,221.83,72.95z"/>
<path class="st18" d="M201.96,92.22c-0.04-0.42-0.09-0.84-0.13-1.25c1.33,0.3,2.65-1.07,3.99-0.06c1.12,0.71-0.02,2.2,1.01,2.94
	c0.01,1.14-0.12,2.31,0.93,3.14c0.58,0.29,0.91,0.79,1.13,1.37c0.15,0.6,0.46,1.11,0.95,1.5l0.04,0.06
	c0.49,0.61,0.49,1.26,0.15,1.93c-0.4,4.1,0.04,8.25-1.07,12.34c-0.52,1.93-0.73,4.41,1.8,5.67c0.56,0.67,0.67,1.32-0.05,1.95
	l0.02-0.01c-0.67,2.18-2.74,3.29-3.93,5.08c0,0,0.01-0.01,0.01-0.01c-0.35,0.94-0.71,1.89-1.06,2.83c-0.55,1.12-1.17,2.2-1.98,3.16
	l0-0.02c-0.33,0.55-0.37,1.25-0.86,1.73c-0.51,0.46-1.09,0.73-1.8,0.63c-2.66-1.18-0.9-3.46-1.3-5.21c0.07-0.43,0.19-0.84,0.33-1.25
	c0.29-0.8,0.61-1.6,0.96-2.38c0.27-0.58,0.62-1.12,0.99-1.64c1.04-1.7,1.45-3.55,1.37-5.53c-0.03-2.52,0.72-4.83,1.63-7.15
	c2.21-5.63,3.88-11.22-2.91-15.14C201.94,95.34,202.91,93.74,201.96,92.22z"/>
<path class="st19" d="M213.8,98.9c0.95-2.2,3.44-1.87,5-3.07c2.03,3.1-2.32,3.37-2.13,6.15C215.27,100.76,215.34,99,213.8,98.9z"/>
<path class="st18" d="M212.13,118.06c-0.45,0.59-0.9,1.18-1.35,1.77C210.8,118.92,211.13,118.23,212.13,118.06z"/>
<path class="st20" d="M202.12,150.93c-0.11,0.33-0.22,0.65-0.33,0.98c-4.2,3.59-8.4,7.18-12.61,10.78c-2.62-3.51-2.52-3.7,4.71-9.72
	c2.73-0.79,4.65-2.92,7.06-4.25C201.34,149.46,201.73,150.2,202.12,150.93z"/>
<path class="st21" d="M189.93,177.92c0.28,0.63,0.56,1.25,0.84,1.88c-0.65,0.38-1.3,0.75-1.94,1.13c0,0-0.49,0-0.49,0l-0.49,0.05
	c-0.94,0.18-1.36-0.09-0.92-1.08c0.97-1.01,1.94-2.01,2.91-3.02C189.87,177.22,189.9,177.57,189.93,177.92z"/>
<path class="st6" d="M186.85,46.96c1.44,0,2.43,0.67,2.99,1.99C188.41,48.93,187.45,48.21,186.85,46.96z"/>
<path class="st16" d="M217.77,70.9c0.02,1.02,0.04,2.03,0.06,3.05c-0.08,1.21-0.4,2.22-2.02,2.45
	C213.82,73.52,216.02,72.29,217.77,70.9z"/>
<path class="st16" d="M218.85,76.92c-0.05,1.39-0.64,2.42-2.01,2.91C216.88,78.42,217.61,77.49,218.85,76.92z"/>
<path class="st15" d="M197.82,83.89c-1.52,1.95-2.5,4.96-5.99,3.03c-0.71-1,0.16-2-0.01-3c1.65-0.66,3.29-1.32,4.93-1.98
	C196.3,83.03,196.14,83.96,197.82,83.89z"/>
<path class="st14" d="M203.88,54.99c-0.04,0.3-0.07,0.61-0.09,0.92c-1.03-0.68-0.92-1.33,0.05-1.96
	C203.85,54.29,203.86,54.64,203.88,54.99z"/>
<path class="st22" d="M129.89,114.89c0.76-0.94,1.65-1.58,3.06-1.23c1.73,1.72,0.05,5.12,2.91,6.35c0.22,1.09,0.44,2.18,0.78,3.83
	C130.13,123.58,130.4,118.94,129.89,114.89z"/>
<path class="st23" d="M146.85,123.94l-0.46,0c0,0-0.46,0-0.46,0c-1.11-0.22-2.44,0.22-3.15-1.12c1.16-1.24,2.56-1.21,4.04-0.75
	c0.78,0.26,1.35,0.72,1.11,1.61C147.79,124.21,147.28,124.13,146.85,123.94z"/>
<path class="st24" d="M211.66,160.84c-0.6-0.32-1.2-0.63-1.8-0.95c-1.67,0.03-3.34,1.16-5.02,0.03c-0.66-0.1-1.31-0.22-1.86-0.63
	c-0.32-0.35-0.43-0.75-0.34-1.21c1.61-1.82,3.9-2.83,5.58-4.58c0.38-0.26,0.77-0.47,1.2-0.64c1.01-0.14,2.31-1.07,2.61,0.88
	c-0.39,0.73-0.78,1.45-1.17,2.18c-0.43,0-0.62,0.21-0.53,0.63c0.05,0.21,0.2,0.31,0.37,0.31
	C211.03,158.19,211.35,159.51,211.66,160.84z"/>
<path class="st25" d="M207.74,148.98c-0.29,0.02-0.56,0.1-0.82,0.26c-0.89,0.07-1.4-0.42-1.75-1.17c-0.22-0.77-0.16-1.52,0.17-2.25
	c0.66-0.88,1.44-1.46,2.61-1.05c0.45,0.7,0.48,1.4-0.06,2.08C207.84,147.56,207.79,148.27,207.74,148.98z"/>
<path class="st26" d="M207.9,146.85c-0.04-0.66-0.07-1.32-0.11-1.97c1.88-0.13,1.63,0.84,1.03,2c0,0,0,0,0,0
	C208.52,146.86,208.21,146.85,207.9,146.85z"/>
<path class="st27" d="M208.72,153.95c-1.13,2.66-3.54,3.7-5.96,4.73c0.08,1.34-1.25,1.46-1.9,2.17c-0.71,0-1.42,0-2.14,0
	c-0.54-0.56-0.71-1.24-0.65-2c0.24-1.27,1.03-2.11,2.11-2.72c1-0.51,2.09-0.82,3.15-1.19c0.81-0.29,1.61-0.63,2.38-1.04
	C206.72,153.45,207.74,152.9,208.72,153.95z"/>
<path class="st28" d="M208.72,153.95c-1.22-0.59-2.01,0.33-2.91,0.84c-1.11-0.35-1.93-1.04-2.49-2.06
	c-0.24-0.66-0.27-1.33-0.13-2.01c0.53-1.2,0.56-2.84,2.47-2.83c0.42,0.45,0.85,0.91,1.27,1.36c-1.1,2.92,4.15,1.63,3.03,4.57
	C209.54,153.85,209.13,153.9,208.72,153.95z"/>
<path class="st29" d="M204.93,138.9c-1.01,2.76-4.21,4.86-2.62,8.41c1.73,0.71,2.28-1.12,3.47-1.43c-0.05,0.66-0.09,1.33-0.14,1.99
	c-0.69,1.06-1.39,2.11-2.08,3.17c-0.66,0.45-1.33,0.4-2.01,0.03c-0.75-0.64-1.2-1.48-1.53-2.39c-0.46-1.6-0.61-3.25-0.74-4.91
	c0.36-2.26,1.96-3.84,3.09-5.68C203.54,137.36,204.66,136.81,204.93,138.9z"/>
<path class="st30" d="M200.74,156.91c0.35-1.67,0.7-3.33,1.05-5c-0.26-0.45-0.16-0.78,0.33-0.98c0.49,0.04,0.97,0.07,1.45,0.11
	c0.14,0.64,0.27,1.29,0.41,1.93c0.21,0.96,0.3,1.91-0.1,2.85C202.83,156.18,201.79,156.55,200.74,156.91z"/>
<path class="st31" d="M203.88,155.82c-1.02-0.99-0.98-1.94,0.1-2.85c1.27-0.07,1.77,0.65,1.82,1.81
	C205.17,155.13,204.52,155.48,203.88,155.82z"/>
<path class="st32" d="M200.95,148.72c-1.12,3.46-3.51,4.82-7.06,4.25c0.05-0.34,0.09-0.69,0.14-1.03c1.22-1.41,2.45-2.82,3.67-4.22
	c1-0.21,1.67-0.64,1.21-1.82c0.33-0.61,0.66-1.22,0.99-1.82C201.42,145.36,200.3,147.24,200.95,148.72z"/>
<path class="st33" d="M234.79,98.91c-3.88,2.6-1.29,5.94-1.02,9.01c-0.53,0.55-0.83,1.53-1.92,0.98c0.29-1.7-3.76-1.76-1.43-4.39
	c-2.37,2.54-2.93,5.33-2.05,8.63c-2.08,0.29-3.82,0.53-5.56,0.77c-0.08-0.2-0.16-0.4-0.24-0.61c0.48-2.03,2.87-2.65,3.4-4.65
	c0.61-1.35,0.81-2.79,0.9-4.14c-0.47,1.34-0.15,3.03-1.06,4.38c-0.72,0.82-0.99,2.16-2.87,2.09c-0.34-3.06-2.77-6-0.51-9.42
	c0.67-1.86,2.24-3.01,3.48-4.41c2.53-2.01,5.45-2.71,8.63-2.53c1.04,1.03,0.91,2.17,0.34,3.36
	C234.88,98.3,234.84,98.61,234.79,98.91z"/>
<path class="st33" d="M223.8,115.59c-2.71,1.24-5.27-0.12-7.9-0.42c1.8-3.3,3.22-3.57,6.91-1.28c0,0,0.01,0.01,0.01,0.01
	C223.15,114.47,223.48,115.03,223.8,115.59z"/>
</svg>
