<?xml version="1.0" encoding="utf-8"?>
<!-- Generator: Adobe Illustrator 26.1.0, SVG Export Plug-In . SVG Version: 6.00 Build 0)  -->
<svg version="1.1" id="Layer_1" xmlns="http://www.w3.org/2000/svg" xmlns:xlink="http://www.w3.org/1999/xlink" x="0px" y="0px"
	 viewBox="0 0 297 282" style="enable-background:new 0 0 297 282;" xml:space="preserve">
<style type="text/css">
	.st0{fill:#040612;}
	.st1{fill:#02030D;}
	.st2{fill:#090A0F;}
	.st3{fill:#090D19;}
	.st4{fill:#1D2533;}
	.st5{fill:#1D232D;}
	.st6{fill:#0C1019;}
	.st7{fill:#0D101A;}
	.st8{fill:#000107;}
	.st9{fill:#0A0D15;}
	.st10{fill:#080E20;}
	.st11{fill:#9095A1;}
	.st12{fill:#10141B;}
	.st13{fill:#2A2D36;}
	.st14{fill:#292F3B;}
	.st15{fill:#3F444E;}
	.st16{fill:#252A32;}
	.st17{fill:#484C57;}
	.st18{fill:#212A37;}
	.st19{fill:#182235;}
	.st20{fill:#0E1421;}
	.st21{fill:#000005;}
	.st22{fill:#222C39;}
	.st23{fill:#161E30;}
	.st24{fill:#0A0E18;}
	.st25{fill:#212935;}
	.st26{fill:#3A4453;}
	.st27{fill:#343D4A;}
	.st28{fill:#2B333F;}
	.st29{fill:#1D263A;}
	.st30{fill:#3C4046;}
	.st31{fill:#454951;}
	.st32{fill:#5E636D;}
	.st33{fill:#D6DEE9;}
	.st34{fill:#313D53;}
	.st35{fill:#182236;}
	.st36{fill:#29313C;}
	.st37{fill:#0E1423;}
	.st38{fill:#13141E;}
	.st39{fill:#050814;}
	.st40{fill:#101727;}
	.st41{fill:#202834;}
	.st42{fill:#0B121F;}
	.st43{fill:#13121C;}
	.st44{fill:#141E32;}
</style>
<path class="st0" d="M34.99,159.9c-2.37,1.19-4.39,3.33-7.41,2.81C29.46,160.22,32.21,160.03,34.99,159.9z"/>
<path class="st0" d="M36.96,158.99c-0.65,0.3-1.3,0.6-1.95,0.9C35.66,159.59,36.31,159.29,36.96,158.99z"/>
<path class="st1" d="M36.97,187.84c-1.37-1.66-0.18-3.33,0-4.99c1.39-0.53,2.58,0.25,3.85,0.57c0.79,0.43,1.34,1.13,1.94,1.77
	c0.74,0.81,1.59,1.56,1.52,2.81c-0.17,2.63,0.68,5.19,0.56,7.82c0.01,0.46-0.03,0.91-0.1,1.36c-0.8,6,1.2,11.31,4.02,16.42
	c1.29,3.23,2.74,6.39,4.13,9.57c0.09,0.3,0.12,0.6,0.06,1.36c0.21-1.37-0.27-2.12-0.6-2.91c-0.81-2.19-2.47-4.07-2.44-6.57
	c0.58-2.78-1.83-6.3,1.99-8.3c3.44-1.63,5.04-0.28,5.08,3.28c0.02,2.11,0.3,4.16,0.69,6.21c-0.38-6.41-0.65-12.81-0.2-19.02
	c-1.63-2.43-5.23-2.18-5.97-5.22c0.01-1.04,0.63-1.64,1.51-2.03c-1.39-0.52-3.31,0.4-4.17-1.55c0.24-1.26,1.37-1.61,2.24-2.22
	c0.49-0.35,0.96-0.72,1.35-1.23c0.89-1.66-0.04-3.77,1.34-5.27c0.4-0.22,0.84-0.3,1.3-0.25c2.97,1.75,5.95,3.48,9.5,1.42
	c0.85-0.4,1.72-0.72,2.68-0.51c1.22,1.53,2.45,2.63,4.69,1.51c1.38-0.69,3.03-1.04,4.67-0.52c0.43,0.25,0.67,0.63,0.74,1.11
	c-0.18,1.56-1.86,2.05-2.38,3.36c-1.79,1.76-0.7,4-1.01,6.01c-1.79,2.63-1.85,5.01,1,6.98c0.21,3.72,0.49,7.31-5.04,7.33
	c-1.32,0.01-2.63,1.73-3.95,2.67c-2.77,3.64-4.02,7.54-2,11.98c1.75,7.07-1.69,11.15-8.97,13.56c-6.66-10.26-10.99-22.11-14-34.53
	C39.58,195.85,39.36,191.48,36.97,187.84L36.97,187.84z"/>
<path class="st2" d="M76.93,182.83c0-0.33,0.01-0.65,0.01-0.98c-0.46-1.75-0.25-3.06,2-3c0.32,0.33,0.65,0.65,0.97,0.98
	c0.6,0.1,0.94,0.45,1.04,1.04c0.33,0.32,0.65,0.65,0.98,0.97c0.63,0.67,0.59,1.34,0,2.01c-0.78,0.66-0.2,0.91,0.35,1.18
	c0.96,1.19,0.9,2.67,1.2,4.04c0.07,0.44,0.17,0.64,0.33-0.04c-0.05-0.6,0-1.13,0.13-1.68c0.2-0.65,0.51-1.19,1.12-1.52
	c1.37,3.02,1.51,6.03-0.12,9.01l-0.01,0c0,0.33,0,0.65,0,0.98c-0.49,0.49-1.01,0.96-1.36,1.5c-0.05,0.31-0.03,0.65,0.11,0.97
	c0.43,0.32,0.91,0.53,1.37,0.79c0.31,0.22,0.59,0.46,0.85,0.73c-0.04,0.41-0.08,0.81-0.13,1.22c-1.19,0.73-2.73-0.24-3.85,0.81
	c-0.98-0.33-1.96-0.65-2.94-0.98c-1.97-2.48-0.39-4.5,0.49-6.28c-4.16-0.07-1.87-3.62-2.54-5.51c0-0.75-0.01-1.49-0.02-2.24
	c0-0.65,0.01-1.31,0.01-1.96C77.28,184.18,77.52,183.51,76.93,182.83z"/>
<path class="st3" d="M78.93,178.85c-0.67,1-1.33,2-2,3c-3.36,0.95-6.71,1.89-9.91,2.8c-1.59-1.47,1.97-2.54-0.09-3.81
	c2.25-5.22,7.9-1.08,10.98-3.99C78.26,177.51,78.6,178.18,78.93,178.85z"/>
<path class="st4" d="M35.01,188.84c0.32,0.35,0.63,0.69,0.95,1.04c-0.24,8.15,3.86,15.25,5.23,23.06
	c-4.22-6.03-5.17-13.27-7.18-20.12c-0.02-1.33-0.03-2.66-0.05-3.99C34.3,188.35,34.65,188.38,35.01,188.84z"/>
<path class="st5" d="M77.93,187.86c-0.74,4.42,3.39,8.44,1.06,12.99c-0.27,0.53-0.55,1.07-0.88,1.71c-1.87-1.44-0.86-3.26-1.26-4.76
	c-1.01-1.53,0.27-3.48-0.91-4.98c0-0.99,0.01-1.98,0.01-2.97C76.86,189.43,75.91,187.17,77.93,187.86z"/>
<path class="st6" d="M74.93,198.82c-1.06,0.53-1.41,2.44-3.5,1.47c0.63-3.42,0.84-6.99-0.37-10.54c2.42-0.25,1.7,1.87,2.87,2.1
	C74.27,194.16,74.6,196.49,74.93,198.82z"/>
<path class="st7" d="M63.94,220.8c-0.6-0.01-1.21-0.02-1.81-0.02c0.07-4.37-0.87-9.06,3.82-11.95
	C64.34,212.66,63.69,216.65,63.94,220.8z"/>
<path class="st8" d="M36.97,187.84c3.79,3.18,3.86,7.6,4,11.99C38.87,196.09,37.61,192.06,36.97,187.84z"/>
<path class="st9" d="M88.28,198.96c-2.12-3.96-0.95-7.02-1.49-10.56C89.27,191.21,89.38,192.05,88.28,198.96z"/>
<path class="st10" d="M22.82,188.39c1.34,1.83,2.67,3.65,5.02,6.87C23.45,193.4,22.91,191.05,22.82,188.39z"/>
<path class="st11" d="M82.87,189.92c-1.62-1.46-1.27-3.16-0.59-4.9c0.93,0.27,1.85,0.54,2.78,0.8c-0.06,0.68-0.12,1.36-0.17,2.04
	c-0.67,0.6-0.29,1.62-0.89,2.25C83.58,190.28,83.2,190.22,82.87,189.92z"/>
<path class="st3" d="M81.93,169.85c0.34,0.34,0.67,0.68,1.01,1.02c-0.56,2.11,0.48,5.83-4.01,4
	C80.62,173.61,81.12,171.64,81.93,169.85z"/>
<path class="st12" d="M84.95,208.85c1.19,3.06-0.95,2.81-2.64,2.99c-1.3-0.97-0.23-2-0.45-2.9
	C82.87,208.05,83.9,208.15,84.95,208.85z"/>
<path class="st3" d="M76.93,182.83c0.69-0.28,1.38-0.56,2.12-0.86c0.88,2.44-0.1,3.1-2.13,2.88c-0.66,0.33-1.32,0.65-1.98,0.98
	C74.95,184.4,75.63,183.41,76.93,182.83z"/>
<path class="st13" d="M85.46,203.4c-1.17,1.47-2.08,1.66-3.16,0.61C82.93,202.28,84.04,202.66,85.46,203.4z"/>
<path class="st3" d="M80.95,180.87c-0.35-0.35-0.7-0.69-1.04-1.04c0.61-0.81,1.3-1.28,2.6-0.4
	C81.94,179.95,81.45,180.41,80.95,180.87z"/>
<path class="st14" d="M84.95,208.85c-1.03,0.03-2.06,0.06-3.09,0.09C82.83,206.94,83.87,207.25,84.95,208.85z"/>
<path class="st3" d="M81.93,183.84c0-0.67,0-1.34,0-2.01c0.68-0.13,1.63-0.91,1.85,0.37C83.99,183.45,82.95,183.74,81.93,183.84z"/>
<path class="st1" d="M75.94,192.82c1.5,1.44,0.79,3.29,0.91,4.98C75.34,196.36,76.14,194.5,75.94,192.82z"/>
<path class="st3" d="M77.93,187.86c-0.66,0.66-1.32,1.33-1.98,1.99c-0.01-1.12-0.16-2.28,0.96-3.03
	C77.25,187.16,77.59,187.51,77.93,187.86z"/>
<path class="st15" d="M81.93,201.82c1.01-1.59,2.5-0.87,3.85-0.81C84.71,202.27,83.28,201.84,81.93,201.82z"/>
<path class="st16" d="M82.57,206.35c0.57-0.67,1.1-0.53,1.67-0.08C83.67,206.94,83.14,206.8,82.57,206.35z"/>
<path class="st17" d="M84.94,196.84c-0.96-0.04-1.93-0.08-2.89-0.12c0.67-1.23,1.87-0.76,2.89-0.9
	C84.94,196.15,84.94,196.49,84.94,196.84z"/>
<path class="st18" d="M84.22,213.35c-0.56,0.52-1.08,0.58-1.59-0.08C83.19,212.75,83.72,212.69,84.22,213.35z"/>
<path class="st0" d="M41.96,170.85c-0.12,1.36,0.39,2.85-0.85,3.97c-0.91-0.04-1.47-0.65-2.03-1.21c-0.38-0.29-0.76-0.63-1.26-0.16
	c-0.17,0.31-0.35,0.6-0.52,0.91c-0.28,0.51-0.57,0.99-0.84,1.5c-0.53,0.88-0.71,2.03-1.96,2.27c-1.77-1.76-2.68-4-3.51-6.28
	c0.13-2.42,4.13-4.45,0.39-7.07c2.02-2.2,4.66-2.17,6.74-3.26c1.71,1.24,0.11,3.31,1.46,4.6c0.76-0.09,1.57-0.18,2.39-0.27
	C43.53,167.51,43.23,169.18,41.96,170.85z"/>
<path class="st19" d="M41.96,170.85c0-1.67-0.01-3.33-0.01-5c1.33-1.34,2.65-2.69,3.98-4.03c4.87-0.13,4.93,2,2.45,5.28
	C46.77,169.23,44.9,170.97,41.96,170.85z"/>
<path class="st20" d="M34.95,177.85c0.04-1.1-0.12-2.27,1-3.02c1.07,0.63,1.49,1.78,2.2,2.71c0.72,2.2,5.15,2.78,2.78,6.33
	c-1.77,1.38-2.86,0.14-3.97-1.03c-0.67-1-1.33-2-2-3C34.4,179.18,34.35,178.52,34.95,177.85z"/>
<path class="st21" d="M34.95,177.85c0.01,0.66,0.01,1.33,0.02,1.99c-1.94-2.36-5.27-4.03-4-7.99
	C33.65,172.96,33.23,176.12,34.95,177.85z"/>
<path class="st22" d="M35.01,188.84c-0.35,0-0.7,0-1.06,0c0.12-0.41,0.24-0.82,0.35-1.23C34.54,188.02,34.77,188.43,35.01,188.84z"
	/>
<path class="st23" d="M40.94,183.87c0.68-3.33-3.76-3.29-3.98-6.02c0.64-0.8,1.49-0.89,2.4-0.75c0.9,0.2,1.63,1.15,2.72,0.69
	c0.73,0.32,1.81,0.96,2.16,0.05c2.27-6,8.23-7.63,12.72-10.99c2.53-0.99,4.71-0.91,5.95,1.98l0.05,0.02
	c-1.77,4.31-3.63,8.55-8.02,10.95c-0.32,0.02-0.64,0.04-0.96,0.05c-1.78,1.75-0.46,4.02-1.01,5.98c-0.34,0.33-0.67,0.67-1.01,1
	c-3.13-2.46-6.84,1.04-10.02-0.97C41.6,185.21,41.27,184.54,40.94,183.87z"/>
<path class="st24" d="M51.95,191.81c2.04,2.11,4.75,2.84,7.9,3.47c-2.73,8.53,0.17,17.16-1.81,25.59c-1.8-4.28-3.2-8.58-2.23-13.03
	c-1.55-1.58-2.68-0.4-3.86-0.02c-3.16,0.16-3.56-1.76-2.96-4.17c0.68-2.74,1.4-5.44,0.64-8.29c-0.2-0.97-0.45-1.93-0.13-2.92
	C50.11,191.44,50.86,190.98,51.95,191.81z"/>
<path class="st3" d="M54.94,179.81c0.41-1.37,0.81-2.74,1.2-4.04c1.08-0.02,0.77,1.93,1.85,1.2c2.23-1.51,1.02-3.85,0.92-5.91
	c1.39-0.84,3.54-0.12,4.05-2.2c4.11,2.07,2.09,6.28,2.97,9.4c0.59,2.07-2.06,0.25-3.18,0.13c-0.39,2.29,0.45,3.21,2.21,3.46
	C61.04,183.97,57.55,184.06,54.94,179.81z"/>
<path class="st25" d="M50.96,194.8c1.08,2.9,0.65,6-0.53,8.46c-1.22,2.57-0.42,3.51,1.51,4.55c-2.87,1.97,0.56,4.86-1.03,7.01
	c-2.28,0.08-1.75-1.91-2.31-3.01c-0.13,0.68,0.1,1.59-0.77,2.11c-3.42-5.25-5.76-10.76-3.97-17.21c0.93,0.29,1.39,1.33,2.31,1.61
	c1.45-1.07,1.24-3.16,2.86-3.93C49.75,194.19,50.4,194.32,50.96,194.8z"/>
<path class="st20" d="M50.96,194.8c-0.69,0.03-1.37,0.06-2.06,0.09c-1.42,1.38-2.9,2.49-4.9,0.99c0.21-2.71-3.09-5.36-0.13-8.11
	c0.22-0.04,0.44-0.08,0.67-0.12c1.33-0.23,2.64-0.76,4.02-0.23c0.16,0.16,0.32,0.32,0.48,0.49c2.37,2.12,5.49-0.68,7.93,1.37
	c-0.51,1.34-1.83,1.34-3.04,1.52c-1.72-1.01-3.27-0.1-4.62,0.7c-0.92,0.54,0.44,0.82,0.65,1.29
	C50.28,193.47,50.62,194.14,50.96,194.8z"/>
<path class="st26" d="M47.83,213.93c0.11-0.79,0.22-1.58,0.34-2.39c2.25,0.22,1.35,2.64,2.75,3.29c0.69,2.32,1.39,4.63,2.08,6.95
	c0.6,1.12,0.78,2.02-0.98,1.94C50.62,220.45,49.23,217.19,47.83,213.93z"/>
<path class="st27" d="M44,195.88c1.63-0.33,3.27-0.66,4.9-0.99c-0.47,2.16-0.94,4.32-1.48,6.79c-2.66-0.92-3.05-2.99-3.56-4.96
	C43.9,196.44,43.95,196.16,44,195.88z"/>
<path class="st20" d="M41.94,185.87c2.6-0.09,5.26-0.01,7.15-2.84c0.99,1.31,1.93,2.56,2.87,3.81c-0.7,1.12-1.86,0.96-2.92,1.08
	c0,0-0.07-0.08-0.07-0.08c-1.66-1.38-3.32,0.84-4.98,0.01c0,0-0.11-0.07-0.11-0.07C43.23,187.14,42.58,186.51,41.94,185.87z"/>
<path class="st28" d="M49.94,192.8c-1.53-0.24-2.93,1.87-5.01-0.15c2.78-2.34,5.42-3.84,8.98-1.83c-0.66,0.33-1.31,0.66-1.97,0.99
	C51.28,192.14,50.61,192.47,49.94,192.8z"/>
<path class="st20" d="M52.97,185.84c-0.82-2.19-3.04-4.62,1.01-5.98C53.16,181.77,55.62,184.24,52.97,185.84z"/>
<path class="st29" d="M62.91,168.83c-1.57-1.91-4.14-0.8-5.95-1.98c0.86-4.54,4.1-4.35,7.46-3.62c1.55,0.34,3.02,1.06,4.53,1.61
	C68.82,169.02,63.69,165.64,62.91,168.83z"/>
<path class="st30" d="M82.87,189.92c0.38-0.06,0.75-0.12,1.13-0.18c0.33-0.41,0.63-0.4,0.91,0.05c-0.11,1.23,0.38,3.13-1.71,2.8
	C81.08,192.25,82.7,190.87,82.87,189.92z"/>
<path class="st31" d="M82.05,198.93c1.03-0.07,2.13-0.38,2.78,0.83C83.81,199.77,82.71,200.09,82.05,198.93z"/>
<path class="st32" d="M84.93,194.84c-0.75-0.03-1.5-0.07-2.6-0.12C83.6,193.54,84.35,193.64,84.93,194.84
	C84.94,194.83,84.93,194.84,84.93,194.84z"/>
<path class="st33" d="M84.91,189.79l-0.46,0.05l-0.45-0.1c-0.17-0.84-0.05-1.55,0.89-1.87C84.89,188.51,84.9,189.15,84.91,189.79z"
	/>
<path class="st34" d="M42.08,177.79c-0.64,2.73-1.41,1.05-2.16,0.06c-1.25-1.15-3.45-1.59-2.96-4.02l0,0
	c0.76-1.05,1.49-2.2,2.98-0.95c0.39,0.64,0.79,1.29,1.18,1.93C41.43,175.81,41.75,176.8,42.08,177.79z"/>
<path class="st35" d="M36.95,173.84c0.99,1.34,1.98,2.68,2.97,4.01c-0.99,0-1.97,0-2.95,0c-1.14-0.74-0.96-1.92-1.01-3.02
	C36.28,174.5,36.62,174.17,36.95,173.84z"/>
<path class="st35" d="M39.93,172.89c-0.99,0.32-1.98,0.63-2.98,0.95c0.18-1.06-1.02-2.09,0.01-3.25
	C38.78,170.23,39.26,171.69,39.93,172.89z"/>
<path class="st36" d="M43.98,187.84c1.66-0.68,3.32-1.99,4.98-0.01C47.3,187.66,45.64,189.93,43.98,187.84z"/>
<path class="st37" d="M66.94,180.83c-0.66,0.34-1.33,0.67-1.99,1.01c-1.59,1.02-2.46,0.09-3.02-1.23c-1-2.34,1.52-2.84,2.4-3.82
	c-0.25-2.69-0.31-5-1.44-7.08c-0.2-0.41-0.3-0.85-0.32-1.3c0.74-3.03,4.19-1.92,5.73-3.74c0.36-0.27,0.75-0.47,1.16-0.64
	c2.34-0.42,4.48-1.9,7.06-1.06c1.2,0.39,1.54-0.86,2.02-1.66c0.13-0.16,0.28-0.33,0.42-0.5c3.81,0.22,2.67,5.31,5.95,6.05
	c1.6,2.82-1.81,2.34-2.44,3.7c-0.83,1.72-0.61,4.31-3.54,4.29c-0.34,0.66-0.67,1.32-1.01,1.98c-0.93,2.18-2.91,2.5-4.88,2.48
	C70.84,179.3,68.93,180.15,66.94,180.83z"/>
<path class="st38" d="M11.83,211.45c0.22,3.15,4.13,7.49-2.69,8.37C9.54,216.88,10.28,214.03,11.83,211.45z"/>
<path class="st39" d="M24.97,251.78c-6.9,0.05-13.67,1.25-20.24,2.64c1.29-10.67,9.55-15.42,16.75-20.95
	c1.61-1.24,3.75-1.2,5.52,0.3c0.94,1.95,2.73,0.62,4.06,1.05c2.39,0.78,5.71-0.59,6.92,2.96c-3.71-0.04-7.36-0.15-10.86,1.73
	c-1.55,0.83-2.25,1.63-2.13,3.26c-0.16,0.17-0.31,0.34-0.47,0.5c-1.28,0.67-2.46,0.34-3.72-0.21c-4.4-1.92-5.38-1.48-7.61,3.35
	c2.04,1.86,4.65,0.7,6.94,1.19c2.01,0.35,3.86,0.98,5.05,2.79C25.41,250.9,25.34,251.36,24.97,251.78z"/>
<path class="st39" d="M24.99,242.78c5.58,0.69,11.63-0.45,17.06,3.9c-4.94,3.97-10.56,2.05-15.08,4.14
	c-0.22-0.06-0.43-0.12-0.65-0.18c-1.32-1.7-4.4-1.33-4.82-4.09c0.51-1.84,2.43-2.39,3.47-3.76L24.99,242.78z"/>
<path class="st40" d="M37.98,237.78c-4.73-2.5-10.01-1.7-15.26-2.25c0.96-2.43,2.85-1.46,4.28-1.77c6.31,0.05,12.57,0.34,20.03,2.65
	C43.09,238.41,40.47,237.54,37.98,237.78z"/>
<path class="st41" d="M52.02,223.72c0.33-0.65,0.65-1.29,0.98-1.94c1.25,1.89,2.22,3.85,1.65,6.36
	C52.43,227.31,52.96,225.08,52.02,223.72z"/>
<path class="st42" d="M24.97,242.8c0.64,2.56-1.83,2.79-3,4c-0.58,0.74-1.92,0.72-1.98,1.98c-2.62,0-5.25,0-7.95,0
	c-2.31-4.29,1.27-5.86,3.44-7.86c2.2-2.04,4.12-1.18,5.79,1.04C22.17,243.16,23.69,242.71,24.97,242.8z"/>
<path class="st43" d="M98.79,185.4c1,1.46,2.75,2.84,0.81,5.03C97.3,189.03,97.93,187.22,98.79,185.4z"/>
<path class="st44" d="M19.99,248.78c-0.87-0.61-1.74-1.23-2.77-1.96c1.79-1.32,3.27,0.5,4.76-0.02c1.59,1.42,4.23,1.52,5,3.98
	c-0.66,0.02-1.32,0.03-1.98,0.05C23.32,250.14,21.66,249.46,19.99,248.78z"/>
</svg>
