<?xml version="1.0" encoding="utf-8"?>
<!-- Generator: Adobe Illustrator 26.1.0, SVG Export Plug-In . SVG Version: 6.00 Build 0)  -->
<svg version="1.1" id="Layer_1" xmlns="http://www.w3.org/2000/svg" xmlns:xlink="http://www.w3.org/1999/xlink" x="0px" y="0px"
	 viewBox="0 0 297 282" style="enable-background:new 0 0 297 282;" xml:space="preserve">
<style type="text/css">
	.st0{fill:#E6B7AF;}
	.st1{fill:#EBC1BE;}
	.st2{fill:#E5BEB9;}
	.st3{fill:#F9D8D6;}
	.st4{fill:#DFB7B3;}
	.st5{fill:#E1B8B0;}
	.st6{fill:#E0B6AD;}
	.st7{fill:#E1B1A5;}
	.st8{fill:#DCACA2;}
	.st9{fill:#DAAFA7;}
	.st10{fill:#F4CFC8;}
	.st11{fill:#E9BFB6;}
	.st12{fill:#E7BAAD;}
	.st13{fill:#F8DCDB;}
	.st14{fill:#EDC2B6;}
	.st15{fill:#E1AF9F;}
	.st16{fill:#F8CFCA;}
	.st17{fill:#F7D9DA;}
	.st18{fill:#D4A79F;}
	.st19{fill:#DDAEA5;}
	.st20{fill:#F0C8BD;}
	.st21{fill:#ECC3B6;}
	.st22{fill:#E8B9AA;}
	.st23{fill:#FBE0E2;}
	.st24{fill:#D5AEAF;}
	.st25{fill:#ECC0B6;}
	.st26{fill:#F9DBD4;}
</style>
<path class="st0" d="M220.86,135.9c0.65,0,1.3-0.01,1.95-0.01c-1.24,2.64-3.57,3.64-6.09,2.87c-3-0.92-4.99,0.08-6.87,2.1
	c-1.91,0.37-2.08-1.07-2.42-2.33c0.04-0.43,0.21-0.81,0.51-1.12c0.94-0.72,2.16-1.04,2.96-1.97c0.5-0.63,0.8-1.36,1.1-2.09
	c0.18-0.4,0.41-0.74,0.7-1.07c0.71-0.61,1.48-0.96,2.44-0.68C217.27,132.73,218.33,135.3,220.86,135.9z"/>
<path class="st1" d="M207.83,137.96c0.67,0.97,1.34,1.94,2.01,2.9c1.31,0.03,2.66-0.04,3.81,1.76c-3.95-0.96,0.38,6.21-4.83,4.24
	c-0.05-0.21-0.1-0.43-0.15-0.64c-0.67-2.71-3.25-4.94-2.05-8.12C207,137.79,207.4,137.73,207.83,137.96z"/>
<path class="st2" d="M220.78,125.91c-0.61-0.51-1.23-1.02-1.84-1.52c0.09-1.15,0.8-1.49,1.83-1.42
	C221.18,123.95,222.35,124.93,220.78,125.91z"/>
<path class="st3" d="M224.56,117.08c2.34,0,3.37,0,4.82,0C227.97,118.03,226.93,117.97,224.56,117.08z"/>
<path class="st4" d="M149.9,167.99c0.37-0.09,0.75-0.17,1.12-0.26c1.01-0.03,1.16,0.49,0.84,1.31c-0.68,0.38-1.33,0.4-1.94-0.14
	l-0.06-0.06C149.88,168.56,149.89,168.27,149.9,167.99z"/>
<path class="st5" d="M142.82,134.93c-0.32-0.33-0.64-0.66-0.97-0.99c-0.74-3.4,1.21-5.02,4.03-6.06c0.31-0.03,0.61-0.04,0.92-0.03
	c1.52-1.17,3.57,0.32,5.06-1.02l-0.04,0.02c2.77-2.59,5.37-1.6,7.85,1.19c1.04-4.59-3.06-4.4-4.35-6.43
	c-0.39-1.03-0.27-1.99,0.33-2.9c3.25-2.85,5.55-1.28,7.14,1.81c1.53,2.98,2.1,6.3,2.42,9.62c0.98,10.27,3.32,12.84,13.46,14.7
	c0.48,0.17,0.91,0.45,1.27,0.81c0.38,2.72-1.56,3.47-3.57,3.79c-6.12,0.95-11.95-2.82-13.73-8.71c-0.43-1.42-0.66-2.92-1.75-4.77
	c-0.69,2.85-1.73,5.13-4.78,5.17c-2.46,0.03-5,0.62-7.19-1.1c-0.09-3.52-1.89-5.25-5.43-5.16
	C143.27,134.9,143.05,134.91,142.82,134.93z"/>
<path class="st6" d="M145.88,127.88c-1.95,1.61-3.87,3.25-4.03,6.05C140.23,130.94,141.64,128.82,145.88,127.88z"/>
<path class="st6" d="M151.86,126.83c-1.4,1.74-3.34,0.83-5.06,1.02c0.05-0.31,0.08-0.63,0.09-0.94
	C148.55,126.89,150.21,126.86,151.86,126.83z"/>
<path class="st5" d="M144.04,136.7c-0.41-0.24-0.81-0.48-1.22-0.73c0-0.35,0-0.7,0-1.04l0.23-0.17c0.85,0.01,1.19,0.52,1.24,1.3
	C144.21,136.27,144.12,136.49,144.04,136.7z"/>
<path class="st7" d="M145.88,164.84c-1.55-2.29-3.81-4.23-3.62-7.37c3.95-3.21,11.04-1.72,15.49,3.48
	c-2.63,4.11-6.97,3.53-10.93,3.93C146.51,164.89,146.2,164.87,145.88,164.84z"/>
<path class="st8" d="M148.87,149.87c-2.81-1.33-1.43-2.66,0.01-3.98c-0.25-0.21-0.37-0.44-0.35-0.7c0.01-0.28,0.05-0.41,0.11-0.41
	c0.51-0.38,1.13-0.38,1.71-0.41c0.47-0.04,0.99,0.06,1.41-0.27c-0.15-0.54-0.58-0.83-0.88-1.22c-0.65-0.35-1.29-0.69-1.94-1.04
	c0.01-0.33,0.01-0.65-0.02-0.98c5.24-1.61,9.27,0.75,12.98,4.01c6.56,5.78,12.7,6.23,19.88,1.41c1.1-0.74,2.06-1.67,3.17-2.39
	c3.37-2.45,6.44-5.04,8.29-9.02c0.97-2.08,2.51-4.46,5.66-3.91c1.57,2.08,0.07,3.63-0.91,5.26c-1.03,1.23-1.29,3.13-3.15,3.65
	c-6.13,11.89-18.95,12.09-29.31,16.35c-3.51,1.44-7.19-2.3-10.83-3.57C152.68,151.94,150.81,150.81,148.87,149.87z"/>
<path class="st6" d="M155.87,121.89c5.84,0.52,7.24,3.21,4.16,8.83c-2.15-2.62-4.03-6.03-8.2-3.87c1.26-2.94-0.9-3.42-2.89-4.03
	c-0.58-0.04-0.92-0.37-1.07-0.91c0.01-0.29-0.02-0.58-0.09-0.86c-0.22-0.24-0.31-0.49-0.28-0.76c0.03-0.28,0.08-0.41,0.14-0.41
	c0.35-0.27,0.74-0.42,1.19-0.42c1.31,0.2,2.35,0.96,3.41,1.65c0.51,0.27,1.02,0.57,1.64,0.56c0.36-0.1,0.73-0.17,1.09-0.24
	C155.35,121.4,155.65,121.56,155.87,121.89z"/>
<path class="st9" d="M146.86,118.91c-8.18-1.38-8.7-2.28-6.91-11.95c2.74-5.15,6.86-9.49,8.92-15.06c0.67-0.99,1.34-1.98,2-2.98
	c4.32-1.38,9.2,1.74,11.01,7.37c0.68,2.1,1.42,3.95,3.28,5.19c0.79,0.5,1.55,1.07,2.33,1.58c3.96,2.93,6.61-1.97,10.19-1.75
	c1.51,0.55,1.19,2.46,2.33,3.32c-2.73,4.43-13.15,7.19-17.44,4.61c-3.07-1.85-3.56-5.12-3.86-8.16c-0.31-3.14-2.02-5.1-4.17-6.94
	c-0.89-0.76-1.75-0.82-2.46,0.27c-1.6,3.31-3.97,6.13-5.73,9.36C143.52,109,142.07,114,146.86,118.91z"/>
<path class="st6" d="M185.85,144.87c-5.69,4.76-12.09,6.92-19.54,5.45c-2.03-0.4-2.81-2.01-4.07-3.32
	c-3.6-3.72-7.82-6.42-13.33-6.14c-0.76-0.63-1.53-1.26-2.29-1.9c0.28-0.36,0.65-0.57,1.11-0.63c0.45,0.05,0.84,0.24,1.15,0.57
	c3.3,1.84,6.65,0.98,9.95,0.46c0.91-2.42-0.98-4.87,1.01-7.2c3.7,2.32,3.42,6.46,4.56,9.84c1.99,5.88,10.92,8.16,15.46,3.87
	c1.29-2.58,3.32-3.66,6.18-3.06C186.48,143.54,186.39,144.23,185.85,144.87z"/>
<path class="st5" d="M147.98,138.83c-0.45,0.05-0.9,0.1-1.35,0.14c-0.86-0.76-1.72-1.51-2.59-2.27l0.32-0.32
	C146.44,135.9,147.92,136.31,147.98,138.83z"/>
<path class="st10" d="M156.08,173.48c-0.7,2.88-1.74,5.48-5.3,6.53c-0.71-1.94-1.31-3.55-1.9-5.16c0.35-1.98,0.7-3.96,1.05-5.94
	c0.72-0.06,1.45-0.13,2.17-0.2c0.29,0.06,0.57,0.06,0.86,0.02c1.84,0.23,3.25,0.86,2.94,3.12
	C155.96,172.39,156.02,172.93,156.08,173.48z"/>
<path class="st11" d="M150.87,93.91c0.02-1.87,0.54-3.98,2.73-2.36c2.57,1.9,5.57,3.79,6.24,7.43c0.67,3.61-0.28,8.79,4.35,9.56
	c5.53,0.91,11.65,0.92,15.65-4.65c0.12-0.18,0.24-0.36,0.35-0.55c0.68-0.62,1.45-1.02,2.38-1.08c0.73,0.05,1.34,0.28,1.64,1.02
	c0.03,0.49-0.09,0.94-0.33,1.36c-3.29,4.15-7.87,6.13-12.73,7.64c-4.99,2.75-6.23,5.31-4.72,12.06c1.04,4.67,2.63,9.21,5.3,13.37
	c2.04,3.19,3.96,3.97,7.29,1.96c2.07-1.25,4.01-3.05,6.72-3c1.64,2.3-0.24,3.65-1.48,5.02c-1.54,1.69-3.59,2.81-5.42,4.18
	c-10.04-0.21-14.82-4.79-14.95-14.54c-0.04-3.22-1.07-6.17-1.81-9.22c-0.86-3.56-2.88-4.57-6.21-3.2c-0.16-0.18-0.33-0.37-0.49-0.55
	c-1.07-3.36,2.37-5.41,2.32-8.82c-0.08-5.52-0.65-10.46-4.91-14.35C153.11,93.35,151.36,94.57,150.87,93.91z"/>
<path class="st12" d="M178.85,145.87c1.71-3.48,6.16-4.83,6.99-8.99c2.79-5.39,6.42-10.34,8.52-16.12c0.49-1.35,1.74-2.47,3.56-2.01
	c1.15,3.4-1.38,5.95-2.03,8.94c-0.4,0.85-0.84,1.69-1.28,2.53c-1.49,2.58-3.34,4.99-3.87,8.05c-1.44,1.74-1.93,4.49-4.89,4.61
	c-2,1-4,2-6,3C179.52,145.87,179.19,145.87,178.85,145.87z"/>
<path class="st13" d="M147.98,138.83c-0.77-1.46-2.23-1.91-3.62-2.44c-0.43-0.54-0.87-1.08-1.3-1.62c2.48-3.08,4.27-0.52,5.98,0.89
	c1.04,0.86,3.17,2.36-0.16,3.25C148.58,138.87,148.28,138.84,147.98,138.83z"/>
<path class="st11" d="M155.87,121.89c-0.32,0.01-0.65,0.02-0.97,0.02c-0.8-1.37-1.25-2.62,0.97-3.02l0.02,0.02
	C155.88,119.9,155.87,120.9,155.87,121.89z"/>
<path class="st14" d="M154.9,159.24c-2.45,4.65-5.6,3.89-8.5,3.12c-1.41-0.37-2.01-2.09-0.92-3.18
	C148.62,156.02,151.24,159.78,154.9,159.24z"/>
<path class="st15" d="M185.85,142.88c2.04-1.1,2.64-3.35,3.99-5c1.25-2.71,3.05-5.14,4-7.99c0.33-0.66,0.66-1.33,0.99-1.99
	c4.98-8.25,9.6-16.57,5.85-26.73c-0.81-2.18-0.93-4.23,1.62-5.45c0.22,0.1,0.44,0.2,0.66,0.3c-0.01,1.15,0.62,1.87,1.63,2.24
	c4.51,1.68,4.95,4.9,3.54,8.94c-1.41,4.05-3.23,8-3.48,12.38c-0.2,0.89-0.67,1.64-1.21,2.36c-1.22,2.91-3.34,5.38-4.05,8.52
	c-0.17,0.16-0.34,0.31-0.5,0.46c-5.91,3.18-6.51,11.35-13.05,13.95C185.85,144.21,185.85,143.54,185.85,142.88z"/>
<path class="st16" d="M155.86,118.89c-1.12,0.75-0.96,1.91-0.97,3.02l-0.01,0.01c-1.01,0.81-2.01,0.71-3-0.04
	c-1.02-0.65-2.03-1.3-3.05-1.95c1.24-1.8,0.31-3-1.05-4.21c-1.46-1.29-2.46-3.15-1.63-4.89c2.62-5.51,3-11.89,6.74-16.93
	c6.72,4.08,5.96,10.63,6.18,17.18C159.18,114.54,155.06,115.59,155.86,118.89z"/>
<path class="st17" d="M152.89,93.89c-1.28,4.53-1.69,9.59-4.05,13.48c-3.25,5.35-1.46,7.83,3.26,9.72c0.07,2.61-1.5,2.85-3.27,2.84
	c-0.31-0.03-0.63-0.05-0.94-0.06c-0.34-0.32-0.69-0.64-1.03-0.96c-6.25-2.91-5.8-7.56-3.11-12.6c2.24-4.2,4.74-8.27,7.12-12.4
	C151.54,93.81,152.21,92.85,152.89,93.89z"/>
<path class="st11" d="M151.88,121.88c1,0.01,2,0.02,3,0.04C153.85,125.04,152.86,123.36,151.88,121.88z"/>
<path class="st15" d="M201.96,92.22c3.4,0.45,1.74,2.24,1.01,3.79l-0.25-0.17c-0.95-0.73-0.47-1.8-0.65-2.72l-0.33-0.26
	C201.85,92.66,201.92,92.45,201.96,92.22z"/>
<path class="st8" d="M200.74,128.81c-0.62,0.71-1.25,1.42-1.87,2.12c-0.36-4.05,2.42-6.79,4.15-9.97c0.51,1.68,0.93,3.36-0.58,4.79
	c-0.23,0.34-0.45,0.67-0.68,1.01c-0.51,0.61-0.32,1.57-1.03,2.08L200.74,128.81z"/>
<path class="st4" d="M166.84,182.85c-1.1-0.76-0.95-1.92-0.95-3.02C166.99,180.58,166.88,181.72,166.84,182.85z"/>
<path class="st18" d="M160.86,48.96c5.06-4.82,14.06-5.73,20.03-2.03c-1.11,1.35-2.71,1.47-4.09,1.02
	c-7.69-2.48-11.98,2.4-15.49,7.68c-2.83,4.25-4.03,9.43-4.44,14.58c-0.29,3.59,0.8,6.87,3.77,9.27c0.29,0.44,0.33,0.91,0.17,1.4
	c-1.32,0.07-2.69-0.07-3.95,0.24c-3.63,0.91-3.97-0.4-4.42-3.97C151.07,66.33,156.89,57.99,160.86,48.96z"/>
<path class="st19" d="M160.91,79.97c-6.42-0.27-5.88-6.2-5.52-9.24c0.84-6.97,2.13-14.1,7.67-19.69c4.13-4.16,8.09-6.46,13.9-4.3
	c1.17,0.44,2.61,0.15,3.93,0.2c5.69,2.82,7.82,8.01,5.67,13.63c-0.4,1.05-0.55,2.19-0.82,3.29c-2.33,2.02-4.65,4.05-6.98,6.07
	c-1.11,2.75-2.67,4.81-6.1,4.02c-1.12-2.64,0.97-3.98,2.38-5.48c2.39-2.55,4.9-4.99,6.46-8.19c1.85-3.82-0.18-6.2-2.98-8.5
	c-2.69-2.21-4.8-1.85-7.5,0.2c-8.02,6.1-9.89,14.02-7.65,23.37c0.28,1.15,0.55,2.27-0.05,3.39c-0.58,0.87-1.82,0.43-2.45,1.23
	L160.91,79.97z"/>
<path class="st20" d="M170.86,110.91c5.09-0.8,8.76-4.22,12.8-6.96c0.93-0.62,1.29,0.04,1.64,0.72c0.06,0.49-0.01,0.97-0.21,1.42
	c-2.21,2.18-4.86,3.96-6.57,6.65c-1.58,2.5-1.06,4.39,1.79,5.44c4.45,1.64,8.85-0.31,11.61-4.05c2.58-3.49-1.34-5.23-1.35-7.94
	c1.84-2.02,3.9-1.66,5.87-0.43c1.89,1.18,2.23,3,2.01,5.22c-0.77,7.73-11.56,19.72-19.2,21.11c-6.28,1.14-10.33-0.72-12.8-5.89
	C163.95,120.95,165.61,115.21,170.86,110.91z"/>
<path class="st21" d="M170.86,110.91c-2.89,4.36-6.83,8.56-4.01,14.34c2.57,5.3,8.13,7.88,13.41,5.13
	c7.8-4.06,15.07-9.23,16.66-19.02c0.82-5.03-0.9-6.27-6.07-4.45c-1.62,1.47-3.3,1.46-5.02,0.18c2.08-3.47,8.91-6.29,12.21-5.05
	c1.14,0.43,1.96,1.18,2.54,2.26c2.06,3.88,0.66,11.47-2.73,14.59c-3.2,1.37-3.53,4.68-4.48,7.31c-1.57,4.32-4.12,7.74-7.51,10.68
	c-12.52,8.26-12.29,9.1-18.82-6.02c-1.57-3.63-2.32-7.47-2.26-11.56C164.84,114.84,166.77,112.22,170.86,110.91z"/>
<path class="st9" d="M181.64,101.99c0.21,0.22,0.3,0.48,0.27,0.78c-0.4,0.9-1.18,1.12-2.07,1.13
	C180.44,103.26,181.04,102.62,181.64,101.99z"/>
<path class="st22" d="M184.84,104.95c3.44-1.04,3.41-3.34,1.61-5.62c-1.7-2.15-3.93-3.88-6.67-6.51c4.7,0.83,8.23,3.75,12.14,1.29
	c0.22-0.57,0.53-0.62,0.93-0.15c3.17,0.84,6.39,2.14,9.22-0.83c0.95,0.73,0.7,1.75,0.65,2.72c-1.84,1.77-1.78,3.56-0.54,5.76
	c3.08,5.46-0.84,22.6-5.87,26.17c-0.35,0.24-0.97,0.09-1.47,0.12c1-3,2-6,2.99-9c2.32-3.67,2.01-7.76,2.02-11.83
	c0.01-4.1-2.33-4.79-5.51-3.76c-2.92,0.95-5.68,2.35-8.51,3.55c-0.85,0.23-1.21-0.05-0.99-0.94
	C184.85,105.59,184.85,105.27,184.84,104.95z"/>
<path class="st22" d="M193.85,129.88c0.12,3.39-1.56,5.89-4,7.99C189.74,134.49,191.85,132.22,193.85,129.88z"/>
<path class="st23" d="M157.43,114.17c-3.15-2.36-4.25-4.24-1.75-7.05C158.87,108.62,157.76,111.03,157.43,114.17z"/>
<path class="st24" d="M167.93,79.87c1.19-2.25,3.62-2.58,6.2-4.03c-0.53,1.71-0.91,2.9-1.28,4.09l0.01-0.01
	c-1.34,0.02-2.68,0.03-4.03,0.05C168.54,79.93,168.23,79.89,167.93,79.87z"/>
<path class="st18" d="M163.83,78.9c0.01,0.31,0,0.61-0.03,0.92c-0.97,0.05-1.95,0.1-2.92,0.15c0.67-0.35,1.34-0.71,2.01-1.06
	C163.21,78.57,163.52,78.57,163.83,78.9z"/>
<path class="st25" d="M163.83,78.9c-0.31,0-0.62,0-0.94,0c-1.19-4.92-2.31-9.53-1.21-14.98c1.37-6.75,5.45-10.6,10.18-14.5
	c2.43-2,4.38-1.27,6.54,0.53c3.36,2.8,7.29,5.27,4.59,10.57c-1.43,2.81-3.4,5.26-5.66,7.51c-1.72,1.72-4.05,3.03-4.56,5.73
	c-1.64,1.04-3.28,2.08-4.92,3.12c-1.66,0-2.7,1.28-4.01,1.99L163.83,78.9z"/>
<path class="st19" d="M163.85,78.87c1.1-1.13,1.53-3.62,4.01-1.99C166.86,78.23,165.46,78.76,163.85,78.87z"/>
<path class="st24" d="M172.85,79.94c1.05-0.21,2.11-0.43,3.74-0.76c-1.41,1.89-2.46,2.15-3.73,0.75
	C172.86,79.92,172.85,79.94,172.85,79.94z"/>
<path class="st26" d="M184.84,105.91c0.33,0.31,0.66,0.63,0.99,0.94c1.67,0.02,3.34,0.04,5.02,0.06c1.28,0.63,2.56,1.26,3.77,1.86
	c-0.85,8.7-6.73,12.98-14.74,10.96c-4.07-1.03-5.38-4.21-2.74-7.47C179.23,109.67,180.9,106.35,184.84,105.91z"/>
</svg>
