<?xml version="1.0" encoding="utf-8"?>
<!-- Generator: Adobe Illustrator 26.1.0, SVG Export Plug-In . SVG Version: 6.00 Build 0)  -->
<svg version="1.1" id="Layer_1" xmlns="http://www.w3.org/2000/svg" xmlns:xlink="http://www.w3.org/1999/xlink" x="0px" y="0px"
	 viewBox="0 0 297 282" style="enable-background:new 0 0 297 282;" xml:space="preserve">
<style type="text/css">
	.st0{fill:#050505;}
	.st1{fill:#000108;}
	.st2{fill:#CDD7EC;}
	.st3{fill:#101729;}
	.st4{fill:#1D293E;}
	.st5{fill:#A5ADCB;}
	.st6{fill:#010101;}
	.st7{fill:#060A18;}
	.st8{fill:#0D1325;}
	.st9{fill:#040713;}
	.st10{fill:#151E2F;}
	.st11{fill:#040614;}
	.st12{fill:#000005;}
	.st13{fill:#0B0B0B;}
	.st14{fill:#2A2E33;}
	.st15{fill:#101213;}
	.st16{fill:#060606;}
	.st17{fill:#23262E;}
	.st18{fill:#131523;}
	.st19{fill:#010108;}
	.st20{fill:#0C1221;}
	.st21{fill:#242D3B;}
	.st22{fill:#0E1317;}
	.st23{fill:#171C22;}
</style>
<path class="st0" d="M0,258.77c13.28-2.6,26.68,0.72,40.01-0.87c4.02-0.48,8.21,0.56,12.32,0.86c6.22,0.46,10.41-2.24,12.81-8.03
	c1-2.4,2.51-4.6,3.79-6.89c0.89-0.93,1.9-0.94,2.98-0.42c1.87,2.47,0.86,5.04,0.21,7.6c-0.52,2.04-1.87,3.96-0.87,6.19
	c7.75,2.74,11.24,1.13,13.71-6.25c0.69-2.05,1.22-4.14,1.76-6.23c0.59-2.29,1.83-4,4.48-3.77c2.51,0.22,2.9,2.35,3.51,4.26
	c1.18,3.69-1.17,7.14-0.76,11.02c3.44,1.8,7.09,1.2,10.59,0.6c2.88-0.49,5.48-0.02,8.29,0.5c7.85,1.44,15.74,2.18,23.41-1.3
	c4.9-2.23,6.25-1.54,8.16,3.42c-1.29,5.17-5.54,4.46-9.4,4.65c-1.64,0.81-0.68,3.14-2.24,4.05c-0.96,0.42-1.95,0.31-2.95,0.25
	c-7.96,5.7-17.11,4.27-25.96,4.24c-10.39-0.03-20.76-2.51-31.18,0.33c-3.79,1.03-7.54-0.72-11.18-1.84c-2.83-0.88-5.5-0.98-8.17,0.5
	c-1.61,0.89-3.47,1.74-5.23,1.38c-10.93-2.25-22.22,2.36-33.08-1.86c-2.66-1.03-5.55,0.5-8.32,0.88c-2.24,0.31-4.54,1.43-6.7-0.29
	C0,267.43,0,263.1,0,258.77z"/>
<path class="st1" d="M69,237.91c0.1-2.29-0.9-4.94,0.59-6.78c1.94-2.39,4.47-1.71,6.45,0.33c1.71,1.76,3.21,3.73,4.81,5.62
	c3.55-4.37,2.85-8.16-2.51-13.97c3.08-5.59,9.5-6.97,14.08-10.73c5.33-4.37,6.29-9.05,5.78-14.95c-0.1-1.16-0.54-2.27,0.69-3.38
	c5.21,0.41,3.54,4.84,4.33,7.95c1.92,1,4.08,1.5,5.48,3.7c1.2,1.87,2.85,1.28,3.31-1.1c3.56,0.37,4.06,3.8,5.84,5.92
	c1.14,1.36,1.81,3.06,2.84,4.51c1.83,2.58,3.78,5.1,5.17,7.97c0.71,1.62,1.7,3.09,2.67,4.57c0.56,1.04,0.97,2.1,0.77,3.31
	c-0.51,1.38-1.29,2.56-2.46,3.47c-0.43,0.25-0.89,0.44-1.37,0.58c-1.51,0.21-2.97,0.63-4.42,1.11c-8.48,1.92-17.05,3.03-25.72,3.37
	c-2.91-2.18-2.62-5.83-3.9-8.76c-0.77-1.76-1.22-3.68-2.09-5.46c-2.01-4.1-1.25-5.09,3.79-5.41c6.65,2.28,13.75,3.6,18.82,9.32
	c1.37,1.54,3.7,2.03,5.98,1.72c0.73-2.05-0.96-3.04-1.72-4.39c-2.47-3.36-4.32-7.13-6.99-10.36c-0.63-0.98-1.09-2.06-1.78-3
	c-2.62-3.64-4.97-4.02-8.17-0.78c-2.16,2.18-4.47,3.72-7.31,4.91c-5.35,2.24-7.18,6.43-6.14,12.61c0.19,0.69,0.3,1.39,0.37,2.1
	c0.12,2.85,0.81,5.73-0.58,8.47c-0.27,0.39-0.63,0.67-1.07,0.82c-1.84-0.45-3.4,0.17-4.83,1.31c-0.66,0.27-1.34,0.41-2.05,0.44
	c-0.98,0.01-1.91-0.16-2.72-0.73c-1.49-1.59-0.42-3.28-0.2-4.97c0.23-1.8,0.16-3.53-2.48-2.18c-0.21,0.65-0.46,1.27-0.81,1.85
	C70.8,237.69,70.07,238.23,69,237.91z"/>
<path class="st2" d="M119.93,215.8c-2.64-3.73-5.28-7.47-7.92-11.2c-0.45-0.9-0.9-1.8-1.34-2.7c0.27-0.39,0.64-0.67,1.08-0.83
	c0.7-0.17,1.39-0.14,2.08,0.03c0.89,0.26,1.72,0.66,2.54,1.08c2.27,1.46,4.75,2.69,6.05,5.27c0.06,0.44,0.02,0.88-0.12,1.3
	c-0.94,1.51-0.44,3.22-0.67,4.82C121.47,214.56,121.87,216.11,119.93,215.8z"/>
<path class="st3" d="M70.88,236.71c0.02-0.63,0.05-1.26,0.07-1.9c2.77-1.01,3.01,1.08,3.16,2.81c0.12,1.44-0.17,2.93-0.33,4.4
	c-0.29,0.93-0.9,1.52-1.86,1.73c-1,0.03-1.99,0.07-2.99,0.11c-1.14-0.3-2.57-0.46-1-2.07C70.81,241.19,70.29,238.62,70.88,236.71z"
	/>
<path class="st4" d="M70.88,236.71c1.26,2.99,1.72,5.52-2.94,5.08c0.36-1.29,0.71-2.58,1.07-3.87
	C69.63,237.51,70.26,237.11,70.88,236.71z"/>
<path class="st0" d="M24.97,251.78c0.01-0.32,0.01-0.64,0.02-0.95c0.64-0.67,1.3-0.59,1.98-0.05c0,0,0,0.05,0,0.05
	C26.3,251.14,25.64,251.46,24.97,251.78z"/>
<path class="st5" d="M112.16,201.57c-0.5,0.11-1,0.22-1.5,0.33c-0.25-0.36-0.5-0.72-0.76-1.08c0,0,0.17,0.13,0.17,0.13
	C111.13,199.93,111.74,200.44,112.16,201.57z"/>
<path class="st6" d="M71.92,243.75c0.34-0.32,0.67-0.64,1.01-0.97c0.32-0.33,0.7-0.55,1.14-0.66c1.3,0.04,2.65,0.63,3.86-0.33
	c0.67,0,1.33,0,2,0c1.23-0.75,2.41-1.69,4-1c0.34,0,0.67,0,1.01-0.01c0.7-0.68,1.52-1.14,2.49-1.29c1.6-0.3,3.17-0.71,4.78-1.01
	c0.92-0.13,1.86-0.29,2.7,0.3c9-1.33,17.99-2.66,26.99-3.99c1.14-1.08,2.86,0.12,4-1c0.33,0,0.67,0,1,0
	c0.69-1.07,1.53-1.91,2.93-1.84c0.48,0.06,0.94,0.21,1.37,0.43c2.53,2.47,3.37,6.04,5.6,8.72c2.31,2.55,4.91,4.02,8.37,2.27
	c0.35-3.2,1.75-5.86,3.99-8.12c2.56-1.96,3.89-4.93,5.96-7.3c0.53-0.49,1.13-0.86,1.8-1.11c0.45-0.17,0.91-0.28,1.37-0.37
	c8.62-2.67,17.66-2.89,26.45-4.47c0.67-0.06,1.15-0.42,1.5-1.02c0.32-1.14,0.2-2.32,0.51-3.43c1.09-3.88,3.48-4.65,6.37-1.73
	c3.54,3.58,7.57,4.22,12.16,2.95c0.65-0.67,1.32-1.32,2.2-1.68c4.29,0.71,7.44-2.17,11.04-3.59c1.58,0.52,0.65,2.83,2.33,3.3
	c6.58,0.79,12.46-2.79,18.87-2.99c2.07-0.06,4.14-0.01,6.86-0.01c-1.44,2.78-2.51,4.87-3.59,6.95c3.46-2.25,6.69-4.53,8.8-8
	c-0.3-1.26,0.67-1.55,1.48-1.95c2.03-0.22,2.96-1.69,3.71-3.35c0.38-0.56,0.88-0.97,1.53-1.12c0.6-0.03,1.13,0.18,1.54,0.63
	c0.26,0.21,0.26,0.92,0.93,0.47c0.49-0.63,0.85-1.29,1.29-1.92c2.36-1.72,3.57-4.89,6.88-5.36c1.77,0.38,3.23,1.05,3.13,3.22
	c-1.41,2.79-4.61,2.74-6.76,4.23c0.05-0.05,0.03,0.05,0.17-0.01c0.87-0.64,1.66-0.57,2.48-0.28c1.04,1.73,3.69,0.51,4.91,3.21
	c-3.71,3.11-4.56,8.06-6.19,12.66c-0.44,0.88-1.21,1.49-2.13,2.57c1.52-1.32,3.63-0.95,4.15-2.96c-0.81-3.86-0.27-7.34,2.64-10.16
	c2.73-2.65,5.87-2.12,6.96,1.47c1.27,4.19,1.3,8.59-0.09,12.77c-1.25,3.79-5.02,3.22-7.96,3.99c-5.4,0.85-10.88,1.5-15.29,5.26
	c-0.1,0.33-0.23,0.64-0.25,0.97c-0.49,12.7-1.88,13.74-14.72,14.21c-10.78,0.4-21.55,0.84-32.34,1c-5.59,0.08-10.88-0.94-16.14-2.49
	c-4.79-1.41-9.31-0.5-13.76,1.19c-2.44,1.89,0.15,3.62,0.21,5.46c-0.1,3.54-2.58,4.58-5.39,4.56c-6.72-0.05-13.66,1.56-19.93-2.44
	c-1.33-0.85-2.85-0.96-4.04,0.49c-1.44,1.14-2.8,2.51-4.91,1.67c-0.66-1.49-1.32-2.99-2.34-5.31c-16.21,9.65-33.14-0.05-50.13,3.84
	c0.57-6.66,4.37-11.81,0.61-17.15c-2.38-0.66-4.07,0.17-4,2.75c0.1,3.49-1.88,6.3-2.57,9.53c-1.04,4.87-4.81,5.78-9.23,5.39
	c-2.12-0.18-4.27-0.03-6.62-0.03C67.51,253.73,73.03,249.18,71.92,243.75z"/>
<path class="st7" d="M94.91,238.79c-0.68,0.32-1.36,0.64-2.04,0.95c-1.63-1.3-2.17-3.21-2.86-5.05c-0.91-2.45-2.54-4.15-5.09-4.89
	c-2.23-6.26,0.94-12.4,7.42-14.21c1.56-0.44,3.34-0.32,4.2-2.12c1.6-3.36,4.69-5.47,7.95-4.79c2.99,0.62,4.89,3.75,5.42,7.12
	c-2.89,2.03-6.72-0.74-9.71,2.15c-0.57,0.93,1,2.26,0.03,3.49c-2.24,1-4.27,0.07-6.32-0.63c-1.46,0.08-2.92,0.15-4.97,0.26
	C91.76,227.03,94.05,232.69,94.91,238.79z"/>
<path class="st8" d="M99.92,220.81c0.23-2.03-1.77-1.36-2.83-2.23c3.65-4.33,8.16-3.9,12.83-2.77c3.6,2.44,4.73,6.62,7,9.99
	c0.08,0.78-0.31,1.42-1.03,1.01c-2.9-1.67-6.22-1.4-9.3-2.19c-1.26-0.65-2.54-1.26-3.9-1.7C101.59,222.46,100.7,221.7,99.92,220.81z
	"/>
<path class="st9" d="M105.92,223.8c3.78,0.06,7.68-0.55,11,2c2.47,1.89,3.69,4.25,3.35,8.05c-10.11-2.78-16.78-10.93-26.36-13.04
	c2,0,4,0,6,0c1,0.34,2,0.67,3,1.01C103.69,222.82,104.99,223.03,105.92,223.8z"/>
<path class="st10" d="M84.92,229.8c3.62-2.36,4.63,1.06,5.74,2.99c1.18,2.06,1.51,4.61,2.21,6.95c-1.64,0.34-3.28,0.68-4.92,1.01
	c-1.45-0.72-2.06-1.82-1.85-3.49c0.24-1.93-0.08-3.8-1.15-5.49C84.94,231.12,84.93,230.46,84.92,229.8z"/>
<path class="st11" d="M73.94,242.79c-0.33,0-0.67,0-1-0.01c-0.81-2.62,1.96-6.13-1.98-7.97c0.1-1.09-0.26-2.69,1.29-2.74
	c2.47-0.09,3.49,1.98,4.58,3.74c0.02,2.26-2.47,3.64-1.88,5.98C74.89,242.41,74.21,242.4,73.94,242.79z"/>
<path class="st7" d="M84.95,231.78c3.73,2.08,0.7,6.42,3,8.98c-1,0.01-2.01,0.02-3.01,0.03C84.94,237.78,84.95,234.78,84.95,231.78z
	"/>
<path class="st12" d="M83.93,240.79c-1.33,0.33-2.66,0.67-4,1c0.56-0.92,1.13-1.84,1.6-2.61C83.03,239.08,83.47,239.95,83.93,240.79
	z"/>
<path class="st12" d="M73.94,242.79c0.33-0.33,0.67-0.67,1-1c1,0,2,0,3,0C76.87,243.21,75.32,242.67,73.94,242.79z"/>
<path class="st7" d="M105.92,223.8c-1.45,0.02-2.87,0-3-1.98C104.35,221.82,105.34,222.49,105.92,223.8z"/>
<path class="st13" d="M0,271.76c1.79-0.33,3.59-0.58,5.35-1.01c4.94-1.21,9.77-1.94,14.81-0.01c4.27,1.63,8.71,1.1,13.24,0.28
	c3.68-0.67,7.56-0.65,11.36,0.47c4.61,1.36,8.36-1.06,12.01-3.52c7.24,2.53,14.05,4.45,22.22,2.5c7.13-1.7,15.09,0.2,22.69,0.29
	c9.59,0.12,19.7,3.15,28.01-4.65c0.12-0.11,0.8,0.39,1.21,0.6c-0.01,3.93-1.48,7.57-2.4,11.31c-0.44,1.8-1.27,3.4-3.59,3.23
	c-36.09,0-72.18,0.11-108.26-0.11C11.12,281.1,5.52,282,0,280.76C0,277.76,0,274.76,0,271.76z"/>
<path class="st14" d="M125.9,281.75c0-0.33,0.01-0.66,0.01-0.99c2.44-4.41,2-9.84,5-14.05c0.67,0.33,1.34,0.66,2.01,0.98
	c0.39,0.84,0.07,1.47-0.58,2.03c0.83-0.18,1.61-0.79,2.52-0.25c0.35,0.33,0.57,0.73,0.68,1.19c0.14,1.46-0.38,2.79-0.79,4.15
	c-0.43,1.1-0.78,2.26-1.85,2.95c-1.4,1.07-0.85,2.62-0.99,4C129.89,281.75,127.89,281.75,125.9,281.75z"/>
<path class="st13" d="M143.89,260.75c1.32-0.67,2.65-1.35,3.97-2.02c1.83,0.03,1.18,1.2,0.67,1.86c-1.49,1.97-3.63,3.1-5.85,4.04
	c-2.07,0.56-3.89,1.76-5.85,2.58c-0.52,0.2-1.01,0.47-1.29,1.01c-0.17,0.59-0.29,1.18-0.69,1.65c-2.85,0.06-1.58,3.83-4.25,4.42
	c-1.46-2.99,1.52-4.46,2.32-6.59c-0.12-1.61-0.25-3.21-0.42-5.51C136.58,263.3,140.47,263.29,143.89,260.75z"/>
<path class="st13" d="M286.76,206.82c2.84-1.34,5.85-1.94,8.97-1.98c0,17.98,0,35.96,0,53.94c-2.67,8.1-7.25,14.37-15.9,16.89
	c-1.75,0.51-3.46,1.44-5.27,0.75c-2.75-1.05-4.4,0.23-5.79,2.34c-0.97,2.07-2.82,2.01-4.69,2c-28.1-0.13-56.21-0.29-84.31-0.35
	c-9.97-0.02-19.93,0.21-29.9,0.33c-4.1-5.29-10.02-5.71-15.99-5.98c0.33-1.33,0.65-2.66,0.98-3.99c2.29-2.88,5.54-4.17,8.87-5.25
	c2.42-0.79,4.72-0.1,6.46,1.62c3.23,3.19,7.24,3.97,11.46,4c16.63,0.14,33.27,0.02,49.9,0.08c3.67,0.01,5.99-1.09,6.6-5.07
	c0.44-2.86,2.53-4.64,5.21-5.55c5.04-1.71,10.06-3.42,15.51-3.4c7.05,0.03,13.76-1.19,20.23-4.45c6.7-3.38,14.34-2.38,21.58-3.08
	c5.42-0.52,6.34-0.95,6.39-6.45C287.21,231.08,287.59,218.94,286.76,206.82z"/>
<path class="st15" d="M133.89,274.76c9.26-2.42,11.96-1.4,15.99,5.98c-4.4,0-8.8-0.04-13.19,0.03c-2.17,0.03-4-0.15-3.8-3.01
	C132.92,276.65,132.77,275.5,133.89,274.76z"/>
<path class="st16" d="M286.76,206.82c2.07,0.96,2.01,2.82,2.01,4.69c-0.01,10.81,0.11,21.63-0.06,32.44
	c-0.08,4.68-0.43,7.65-7.61,7.45c-8.32-0.24-17.48-0.74-25.41,4.69c-3.89,2.66-9.2,2.84-13.98,2.6c-6.16-0.31-11.77,1.54-17.52,3.1
	c-3.41,0.92-5.29,3.18-4.9,6.46c0.39,3.31-1.24,4.51-3.78,4.45c-20.25-0.45-40.54,1.31-60.76-0.9c-0.82-0.09-2.09-0.01-2.37-0.47
	c-5.19-8.74-10.92-2.82-16.52-0.7c-0.3,0.12-0.65,0.11-0.98,0.16c-0.02-0.3-0.02-0.6-0.02-0.91c-0.32-0.67-0.65-1.34-0.97-2.01
	c0.54-0.57,0.77-1.71,1.97-1.1c1.98-1.06,3.59-2.87,6.04-2.98c1.83,0.55,3.18-0.66,4.65-1.32c2.64-1.2,5.21-1.28,7.53,0.53
	c2.54,1.98,5.4,2.37,8.46,2.32c3.32-0.05,6.66-0.21,9.97,0.03c10.17,0.72,19.56-1.5,29.04-5.4c14.24-5.85,29.45-8.1,44.83-8.57
	c9.54-0.3,15.09-6.85,13.74-16.7c-1.05-3.93,2.35-2.38,3.77-2.72c2.08-0.5,4.6,0.52,5.9-2.14c8.04-2.69,9.48-5.26,7.93-14.21
	c-0.28-1.63-0.64-3.34-2.7-3.66c-1.71-0.26-2.97,0.72-3.66,2.05c-1.58,3.04-3.21,6.12,0.41,9.1c1.45,1.19-0.12,1.43-0.99,1.71
	c-1.55-0.91-3.9,0.2-4.96-1.96c0.8-2.3,1.38-4.71,2.48-6.86c1.07-2.09,2.67-3.92,3.94-5.72c-1.03-2.14-4.74,1.69-4.49-2.46
	c1.78-3.45,5.53-4.01,8.46-5.76c0.46-0.08,0.93-0.07,1.39-0.01c1.42,0.34,2.17,1.33,2.57,2.64c0.09,0.3-0.01,0.76,0.26,0.94
	c0.54,0.38-0.26,0.16,0.24-0.3c0.26-0.28,0.53-0.52,0.84-0.75c1.38-0.72,2.34-2.45,4.28-1.77
	C286.23,204.09,283.32,206.23,286.76,206.82z"/>
<path class="st0" d="M259.78,233.79c1.46,0.08,2.91,0.17,5.96,0.34c-6.36,3.87-4,10.53-7.85,14.7c-2.05,2.22-3.99,3.9-7.06,3.94
	c-19.9,0.23-38.97,3.99-57.42,11.8c-11.49,4.86-24.2,2.98-35.91,1.37c-5-0.69-10.31-1.92-15.61-2.18c2.15-1.49,5.29-1.81,5.98-5.04
	c1.32-4.36,3.51-3.12,6.3-1.27c6.67,4.41,14.1,1.96,21.23,1.8c1.43-0.03,2.48-1.65,1.46-3.45c1.05-1.98-0.66-3.41-1.01-5.11
	c1.42-1.12,2.84-2.24,4.52-3.57c3.75,3.29,6.97,0.06,10.25-1.09c1.69,0.8-0.27,1.82-0.25,1.85c13.38,4.93,26.48,2.57,39.39,2.6
	c5.87,0.01,11.87-0.43,17.8-0.8c4.01-0.25,6.9-5.17,6.07-9.87c-0.31-1.72-1.66-3.42,0.2-5.03
	C255.98,235.53,257.45,232.11,259.78,233.79z"/>
<path class="st17" d="M143.87,238.87c2.82-4.47,3.83-4.97,6.06-3.04c-2.43,2.49-3.55,5.43-3.04,8.93c-2.39-1.75-5.78-0.84-8.02-3
	C139.53,239.07,144.18,243.25,143.87,238.87z"/>
<path class="st18" d="M138.87,241.77c3.03,0.05,6.33-0.65,8.02,3c-4.34,1.51-8.21,1.24-11.03-2.94
	C136.86,241.81,137.86,241.79,138.87,241.77z"/>
<path class="st14" d="M135.85,266.76c-0.66,0.37-1.32,0.73-1.97,1.1C134.08,266.67,134.13,265.23,135.85,266.76z"/>
<path class="st19" d="M243.77,158.87c1.34,1.33,2.68,2.66,4.02,3.98c1.5,2.43-0.86,3.31-1.89,4.73c-2.86,4.18-5.44,8.49-9.48,11.86
	c-3.06,2.55-3.12,7.17-5.24,10.47c-0.16,0.33-0.38,0.66-0.61,0.98c0.74,1.2,1.75-0.26,2.56,0.29c1.36,0.16,2.17,1.51,3.65,1.64
	c0.65-2.33,1.04-4.8,2.86-6.64c1.92-1.23,3-3.04,3.4-5.23c0.69-3.78,2.43-7.15,4.04-10.59c1.75-1.74,1.62-5.86,5.76-4.55l-0.02-0.04
	c0.75,0.62,1.99,1.34,1.78,2.19c-1.43,5.81,2.4,11.47,0.43,17.23c-1.29,4.12-2.33,8.29-1.62,12.69c0.58,3.58-1.59,6.32-2.77,9.39
	c-0.53,1.39-2.7,2.24-1.48,4.21c1.05,0.27,2.15,0.38,2.93,1.27c-0.63,5.41-5.04,6.94-8.68,9.41c-2.07-2.5,0.05-4.22,0.01-6.52
	c-3.9-1.13-7.63,0.24-11.41,1.04c-3.67,0.77-7.31,2.55-11.11,0.47c-1.4-4.79,2.32-8.57,2.55-13.03c0.32-2.16,1.36-4.08,2.1-6.08
	c0.18-1.04,1.6-2.3-0.53-2.95c-0.87-0.23-1.72-0.46-2.35-1.15c-0.04-5.6,2.08-10.1,6.39-13.78c3.8-3.24,5.81-7.94,8.86-11.82
	c1.91-2.43,0.32-5.1,0.34-7.67C239.22,157.41,241.08,156.86,243.77,158.87z"/>
<path class="st20" d="M257.79,207.81c-0.34,2.33-1.08,4.27-4.03,3.96c-0.46-0.81-0.46-1.98-1.69-2.27
	c-1.83,0.59-2.81,2.24-4.24,3.29c-0.92-0.06-1.95-0.59-1.18-1.41c6.39-6.87,4.76-15.76,6.23-23.86c0.11-0.6,0.59-1.13,0.89-1.69
	c0.27,2.21,0.54,4.43,0.83,6.84c1.36-0.15,2.54-0.28,3.65-0.4c1.24,2.54-2.84,4.23-0.48,6.54c1.69,1.72,1.19,3.7,0.67,5.67
	C258.31,205.59,257.08,206.51,257.79,207.81z"/>
<path class="st21" d="M247.83,212.79c0.04-2.42,2.33-3.37,3.32-5.22c1.77-0.03,3.04,0.86,4.19,1.9c0.28,1.4-1.26,1.4-1.58,2.29
	c-0.66,0.33-1.32,0.67-1.98,1C250.46,212.77,249.14,212.78,247.83,212.79z"/>
<path class="st22" d="M259.78,233.79c-2.12-0.46-3.6,2.88-5.97,1.01c4.93-2.92,10.15-4.9,15.96-5c1.07,3.33-0.44,4.37-3.47,3.66
	C264.05,232.94,261.88,232.05,259.78,233.79z"/>
<path class="st23" d="M265.8,222.84c1.76,0.39,3.59,0.6,4.96,1.96c-3.04,0.91-6.08,1.82-9.32,2.79
	C262.05,224.88,265.04,224.94,265.8,222.84z"/>
</svg>
