<?xml version="1.0" encoding="utf-8"?>
<!-- Generator: Adobe Illustrator 26.1.0, SVG Export Plug-In . SVG Version: 6.00 Build 0)  -->
<svg version="1.1" id="Layer_1" xmlns="http://www.w3.org/2000/svg" xmlns:xlink="http://www.w3.org/1999/xlink" x="0px" y="0px"
	 viewBox="0 0 297 282" style="enable-background:new 0 0 297 282;" xml:space="preserve">
<style type="text/css">
	.st0{fill:#070C19;}
	.st1{fill:#182134;}
	.st2{fill:#0D1220;}
	.st3{fill:#100F19;}
	.st4{fill:#141B2A;}
	.st5{fill:#131724;}
	.st6{fill:#151D2D;}
	.st7{fill:#2D3748;}
	.st8{fill:#080D19;}
	.st9{fill:#0E121C;}
	.st10{fill:#475363;}
	.st11{fill:#495668;}
	.st12{fill:#8B9DB6;}
	.st13{fill:#3C4759;}
	.st14{fill:#2A364B;}
	.st15{fill:#1A2539;}
	.st16{fill:#222937;}
	.st17{fill:#080A10;}
	.st18{fill:#505E72;}
	.st19{fill:#707C8D;}
	.st20{fill:#2F394A;}
	.st21{fill:#202B3F;}
	.st22{fill:#020309;}
	.st23{fill:#070810;}
	.st24{fill:#232B3B;}
	.st25{fill:#505A6C;}
	.st26{fill:#96A7BD;}
	.st27{fill:#29303F;}
	.st28{fill:#8A97A6;}
	.st29{fill:#DFB7B3;}
	.st30{fill:#D3B0AF;}
	.st31{fill:#DAA9A8;}
	.st32{fill:#EBC5C1;}
	.st33{fill:#DCABA3;}
	.st34{fill:#E0B0B1;}
</style>
<path class="st0" d="M256.92,167.78c7.04,4.9,14.74,8.44,22.84,11.17c0.64,0.68,0.59,1.4,0.18,2.18c-0.28,0.54-0.92,0.93-0.69,1.77
	c1.98,1.02,3.06-1.06,4.63-1.45c0.97,0.49,1.93,0.98,2.9,1.47c2.26,1.6,0.78,2.51-0.74,2.91c-3.4,0.9-6.21,2.89-9.18,4.56
	c-1.88,1.41-4.05,2.53-5.09,4.84c-0.82,1.61-2.06,2.88-3.29,4.16c-1.61,1.12-2.28,3.44-4.62,3.64c-0.37-0.29-0.63-0.65-0.8-1.09
	c-0.16-0.69-0.11-1.37,0.11-2.04c0.45-1.05,1.24-1.88,1.91-2.79c1.48-1.93,2.66-4.08,4.19-5.99c0.81-1.01,1.84-1.89,2.03-3.18
	c-0.78-1.59-2.06-0.77-3.12-0.89c-0.77,0.03-1.52-0.06-2.26-0.27c-4.47-2.79-8.04-6.38-10.32-11.19
	C253.96,172.14,254.35,169.71,256.92,167.78z"/>
<path class="st1" d="M256.92,167.78c-3.74,5.73,1.43,9.3,3.85,13.02c1.17,1.79,3.59,3.85,6.02,5.04c0.35,2.06-1.9,2.65-2.38,4.25
	c-1.92,1.95-2.9,4.32-3.2,7.03c-0.82,1.25-1.8,2.22-3.46,2.01c-1.7-4.32-5.97-7.88-3.97-13.31c0.75-6.73-0.85-13.35-0.94-20.04
	C254.48,165.85,255.87,166.48,256.92,167.78z"/>
<path class="st2" d="M215.84,166.88c2.32-5.86,0.18-11.59-0.64-17.51c1.98,4.83,4.43,11.47,9.04,10.69
	c3.78-0.64,9.54-0.65,12.59-4.99c2.67,0.62,5.42,1.1,6.95,3.8c-2.22-0.75-4-0.4-4.93,2.01c-0.16,1.21-0.8,2.24-1.75,2.86
	c-4.77,3.1-8.16,7.9-13.22,10.64c-0.77-0.13-1.28-0.56-1.54-1.29c0.96-5.57,5.39-8.26,9.27-11.35c-2.88,0.12-4.59,3.43-7.72,3.24
	c-1.42-0.96-2.62-0.52-3.86,0.45C218.82,166.38,217.67,167.67,215.84,166.88z"/>
<path class="st3" d="M295.74,189.13c0,5.24-0.01,10.47-0.01,15.71c-2.49,2.25-5.73,2.11-8.73,2.71c-3.07-0.03-3.12-1.91-2.55-4.16
	c0.93-2.95,3.6-4.74,4.98-7.41c0.2-0.4,0.43-0.79,0.65-1.18c0.08-0.88,1.45-1.9-0.33-2.52c-0.41,0.04-0.81-0.02-1.2-0.16
	c-0.58-0.36-0.98-0.86-1.15-1.53c0.57-2.29,1.15-4.56,4.14-4.72C292.93,186.96,294.34,188.05,295.74,189.13z"/>
<path class="st4" d="M291.53,185.88c-1.25,1.65-2.51,3.3-3.76,4.96c-2.54,3.57-6.24,4-10.16,3.78c-1.05-1.42-2.3-2.8-1.85-4.83
	c3.35-1.94,6.11-5.04,10.44-5.02c1.28,0,0.77-1.1,0.57-1.85C288.77,183.25,290.5,184.01,291.53,185.88z"/>
<path class="st5" d="M252.85,165.81c-3.5-0.15-2.49,4.2-5.01,5.03c-0.73,0.85-1.34,1.98-2.85,1.12c-1.18-1.61,0.65-3.44-0.19-5.12
	c0.96-1.36,3.16-1.79,3-3.99C249.48,163.84,251.16,164.83,252.85,165.81z"/>
<path class="st6" d="M283.87,181.45c-2.71,4.62-4.02,4.84-7.46,1.12c1.11-1.19,3.56-1.25,3.34-3.61
	C281.13,179.79,282.5,180.62,283.87,181.45z"/>
<path class="st2" d="M231.8,155.01c-1.63,1.27-3.28,1.36-4.96,0.09C228.5,155.07,230.15,155.04,231.8,155.01z"/>
<path class="st7" d="M244.79,166.85c4.01,0.8-0.27,3.14,1.06,4.72c0.57-0.21,1.28-0.46,1.98-0.72c-1.35,4.12-2.75,8.21-4.01,12.36
	c-0.64,2.08-1.74,3.44-4.01,3.6c-0.28-0.3-0.46-0.66-0.59-1.06c-3.57-1.26-4.45,1.66-5.86,3.73c-0.12,0.19-0.25,0.38-0.38,0.58
	c-0.38,0.28-0.8,0.46-1.26,0.55c-0.73,0.04-1.35-0.23-1.88-0.72C232.26,180.54,240.5,174.98,244.79,166.85z"/>
<path class="st8" d="M219.79,198.81c2.01-2.84,3.31-2.17,4,0.86c0.31,1.36-0.44,2.97,0.99,4.06c-0.42,4.63-2.47,8.77-3.95,13.08
	c-0.73,0.86-1.52,1.29-2.64,0.24c0.2-1.03,0.41-2.13,0.63-3.24c-1.11-2.57,0.52-4.72,1.13-6.99
	C220.68,204.1,221.31,201.45,219.79,198.81z"/>
<path class="st9" d="M239.74,185.94c0.04,0.29,0.06,0.57,0.07,0.86c-2.01,2.57-0.21,6.31-2.34,9.22c-1.83-1.65-3.23-2.92-4.63-4.18
	c-0.64-0.68-0.6-1.34,0.05-1.99l-0.03,0.05C234.41,187.3,236.37,185.39,239.74,185.94z"/>
<path class="st10" d="M226.75,197.79c-3.48-0.56-1.45-2.42-0.92-3.92C230.29,194.2,227.47,196.24,226.75,197.79z"/>
<path class="st11" d="M232.88,189.85c-0.02,0.66-0.03,1.33-0.05,1.99c-1.58,0.88-3.19,1.52-5.06,0.78c-0.02-1.2,0.93-1.53,1.73-1.98
	c0.92,0.27,1.55-0.29,2.21-0.76C232.1,189.88,232.49,189.87,232.88,189.85z"/>
<path class="st12" d="M231.71,189.89c-0.51,0.9-0.68,2.83-2.21,0.76c0.15-0.24,0.27-0.5,0.34-0.77
	C230.46,189.88,231.09,189.89,231.71,189.89z"/>
<path class="st13" d="M256.79,204.83c1.13-1.88,0.85-3.99,0.98-6.03c1-0.66,2-1.33,3.01-1.99c1.53-1,2.56-0.29,3.42,1
	c0.2,0.84,0.04,1.62-0.39,2.36c-0.02,0.51-0.04,1.03-0.06,1.54c-0.73,1.47-1.29,3.09-3.19,3.45c-0.58,0.36-0.8-0.87-1.44-0.34
	c-0.23,0.29-0.52,0.49-0.88,0.59C257.64,205.48,257.16,205.29,256.79,204.83z"/>
<path class="st14" d="M263.76,189.83c-0.61-2.55,1.83-2.8,3.02-3.98c0.66,0,1.32,0,1.99,0.01c0.48,1.98,2.09,3.77,1.04,6.01
	c-1.31,2-2.61,4.01-3.92,6.01c-0.77-0.11-1.25-0.55-1.47-1.28C265.78,194.19,264.33,192.05,263.76,189.83z"/>
<path class="st14" d="M275.76,189.79c0.42,1.54,1.5,2.25,3.23,2.32c-0.85,0.66-1.53,1.19-2.22,1.72c-0.47,1.99-1.73,3.1-3.75,3.38
	c-1.29-0.26-1.78-1.28-2.21-2.35C271.07,191.81,274.04,191.41,275.76,189.79z"/>
<path class="st15" d="M269.81,191.86c-0.29-2.01-2.27-3.73-1.04-6.01c1.39,0.14,2.69-1.47,4.41-0.01
	C273.94,188.75,271.89,190.31,269.81,191.86z"/>
<path class="st16" d="M268.81,200.85c-2.44,1.56-4.46,3.54-6.03,5.98c-2.12-1.39-2.04-1.7,1.01-3.99c1.2-1.37,2.4-2.73,3.6-4.1
	c0.73-0.02,1.28,0.3,1.67,0.9C269.22,200.09,269.13,200.5,268.81,200.85z"/>
<path class="st17" d="M263.79,202.84c-0.07,1.4-3.15,2.04-1.01,3.99c-0.61,0.68-1.22,1.35-1.84,2.03c-0.72-0.01-0.87-0.64-1.18-1.09
	c-0.33-0.32-0.67-0.64-1-0.95c-0.6-0.69-0.56-1.36,0.09-1.99l-0.06,0.06c0.23-0.51,0.54-0.55,0.91-0.14
	c1.35-1.01,2.69-2.02,4.04-3.03C263.76,202.08,263.78,202.46,263.79,202.84z"/>
<path class="st18" d="M268.87,200c-0.49-0.42-0.98-0.84-1.47-1.26c1.13-1.29,2.27-2.58,3.41-3.88c1.02,0.27,1.68,0.9,1.94,1.94
	C272.23,198.81,271.15,200.13,268.87,200z"/>
<path class="st19" d="M264.83,196.98c0.35,0.3,0.71,0.59,1.06,0.89c-0.7,0.76-1.39,1.53-2.09,2.29c0.03-0.74,0.06-1.48,0.1-2.22
	C264.04,197.47,264.34,197.14,264.83,196.98z"/>
<path class="st20" d="M215.84,166.88c2.27-1.6,4.53-3.21,6.65-4.71c1.64,0.58,1.13,1.74,1.28,2.64c-0.09,0.2-0.17,0.4-0.25,0.61
	c-1.09,1.34-2.57,2.34-3.47,3.86c-0.25,0.38-0.53,0.72-0.84,1.04c-0.71,0.6-1.48,1.05-2.46,0.75c-0.83-0.59-0.91-1.5-1.02-2.4
	C215.76,168.07,215.8,167.47,215.84,166.88z"/>
<path class="st21" d="M264.83,196.98c-0.31,0.32-0.62,0.64-0.93,0.96c-1.04-0.38-2.08-0.76-3.12-1.14
	c-1.56-3.42,0.23-5.41,2.99-6.98c1.17,0.87,2.34,1.74,3.57,2.64C267.63,194.58,265.11,195.18,264.83,196.98z"/>
<path class="st22" d="M222.81,172.84c-1.1,1.28-2.2,2.56-3.26,3.79c-3-2.41,0.83-4.79-0.82-6.87c0.06-0.29,0.12-0.58,0.17-0.87
	c1.74-1.23,3.16-2.83,4.89-4.08l-0.02,0.01c3.24-2.78,6.89-4.72,11.95-5.54C231.31,164.21,225.44,167.08,222.81,172.84z"/>
<path class="st23" d="M268.87,200c1.29-1.07,2.58-2.13,3.87-3.2c1.34-0.99,2.69-1.98,4.03-2.97c3.97,0.13,7.4-1.73,11-2.99
	c0.34,0.36,0.69,0.73,1.03,1.09c0.57,1.78-0.84,2.93-1.37,4.37c-0.6,4.33-3.28,7.19-6.68,9.55l0.05-0.03
	c-0.37,0.42-0.72,0.43-1.04-0.05c-0.68-0.99-1.36-1.97-2.04-2.96c-0.43-0.85,0.09-1.57,0.32-2.38c-1.79-0.58-2.09,0.91-2.71,1.94
	c-1.02,0.91-1.98,1.95-3.56,1.41c-0.08-1.89-1.69-2.23-2.95-2.91C268.82,200.57,268.84,200.28,268.87,200z"/>
<path class="st24" d="M280.75,205.85c3.35-2.53,4.02-6.66,5.99-10.01c1.27-1.11,2.54-2.29,3.91-0.13c-0.62,3.05-3.44,4.59-4.89,7.07
	C283.94,203.55,283.08,205.9,280.75,205.85z"/>
<path class="st25" d="M290.65,195.71c-1.3,0.04-2.61,0.08-3.91,0.13c0.69-1.3,1.37-2.6,2.06-3.9c0.32-0.07,0.65-0.15,0.97-0.22
	c2.46,0.88,1.53,2.53,0.93,4.11L290.65,195.71z"/>
<path class="st4" d="M290.71,195.81c0.09-1.46,0.56-3-0.93-4.11c0.63-0.85,0.72-2.2,2.47-2.41
	C292.8,191.75,291.95,193.82,290.71,195.81z"/>
<path class="st13" d="M271.76,203.77c1.03-0.64,2.05-1.27,3.08-1.91c1.15-0.66,1.98-0.7,1.95,0.98c-3.02,1.65-6.04,3.31-9.06,4.96
	c-0.99,0.41-1.99,0.82-2.98,1.23c-0.4,0.25-0.73,0.18-1-0.2C265.46,205.62,268.61,204.7,271.76,203.77z"/>
<path class="st26" d="M258.85,204.82c-0.03,0.66-0.06,1.33-0.09,1.99c-0.33,0.33-0.65,0.66-0.98,1c-1.94-0.46-1.16-1.82-0.99-2.98
	C257.48,204.83,258.17,204.82,258.85,204.82z"/>
<path class="st16" d="M259.77,207.77c0.39,0.36,0.79,0.73,1.18,1.09c-0.42,0.46-0.84,0.93-1.29,1.42
	C258.35,209.24,259.73,208.56,259.77,207.77z"/>
<path class="st23" d="M263.75,208.83c0.33,0.07,0.67,0.13,1,0.2c-0.39,0.18-0.78,0.35-1.18,0.53
	C263.63,209.31,263.69,209.07,263.75,208.83z"/>
<path class="st27" d="M276.79,202.84c-0.65-0.33-1.3-0.65-1.95-0.98c-0.8-5.86,4.68-1.32,5.92-3.86c0.05,2.43-2.38,3.01-3.04,4.8
	C277.41,202.82,277.1,202.83,276.79,202.84z"/>
<path class="st24" d="M279.76,205.76c0.35,0.02,0.69,0.04,1.04,0.05c-0.44,0.87-0.9,1.73-2.14,1.65
	C278.24,206.37,279.23,206.21,279.76,205.76z"/>
<path class="st11" d="M239.74,185.94c-2.3,1.32-4.59,2.64-6.89,3.96c-0.77-5.71,4.69-5.15,7.26-7.6
	C241.24,183.84,240.92,184.95,239.74,185.94z"/>
<path class="st28" d="M259.71,204.74c-0.29,0.14-0.6,0.18-0.91,0.14c0.07-0.57,0.14-1.15,0.43-3.44
	C259.55,203.68,259.63,204.21,259.71,204.74z"/>
<path class="st2" d="M223.78,164.8c-1.14,1.95-2.42,3.72-4.89,4.08C220,166.9,221.31,165.16,223.78,164.8z"/>
<path class="st29" d="M166.86,208.82c-1.21,0.45-2.42,0.9-3.69,1.37c-1.49-0.66-1.24-2.08-1.31-3.37c0.67-0.67,1.33-1.33,2-2
	c0.81-0.92,2.21-0.04,3-1c3.35-3.24,2.82-5.85-1.19-8.06c-2.47-1.36-5.44-1.95-6.96-5.05c-1.54,1.45-2.76,2.55-3.92,3.7
	c-1.43,1.42-2.84,3.06-5.12,2.13c-2.32-0.95-4.29-3.42-3.98-5.26c0.76-4.6-4.16-9.46,0.91-13.9c1.45-1.27-1.49-3.06-1.36-5.29
	c1.43-1.01,3.03-2.13,4.62-3.26c0.18,0.17,0.35,0.34,0.53,0.51c1,1.95,0.09,3.78-0.32,5.63c-0.5,2.09-0.11,4.23-0.39,6.35
	c-0.57,4.31,3.24,7.01,7.23,5.3c0.45-0.19,0.82-0.54,1.25-0.79c6-3.5,6.4-3.34,8.07,3.08c1.08,1.73,3.03,2.18,4.65,3.14
	c0.58,0.36,1.08,0.8,1.52,1.31c0.58,0.76,0.97,1.59,0.85,2.59c-0.15,0.7-0.41,1.36-0.71,2.01
	C171.94,202.28,172.36,207.11,166.86,208.82z"/>
<path class="st30" d="M166.86,203.82c-0.73,1.14-1.9,0.97-3,1C164.6,203.69,165.76,203.85,166.86,203.82z"/>
<path class="st31" d="M182.86,200.94c-0.95,1.01-1.9,2.02-2.85,3.03l-0.31-0.28c-0.98-1.22-1-2.47-0.1-3.74
	c0.35-0.3,0.77-0.44,1.23-0.46c0.69,0.17,1.19,0.6,1.6,1.16C182.57,200.77,182.71,200.86,182.86,200.94z"/>
<path class="st32" d="M158.01,175.78c0.3,0.34,0.61,0.68,0.91,1.02c1.56,2.75,5.05,1.08,6.96,3.02c0.87,0.84,0.05,2.2,0.95,3.03
	l0.04-0.01c0.21,2.41,2,5.05-1.02,6.99c-3.92-0.49-0.06-3.77-2.44-5.53c-4.44,2.54-9.25,7.67-15.44,0.92
	c0.25-2.86,0.57-6.62,0.9-10.37c1.42,0.27,1.74,1.9,2.97,2.41c2.27-0.32,2.28-3.15,4.24-3.78
	C156.72,174.24,157.37,175.01,158.01,175.78z"/>
<path class="st33" d="M165.85,189.82c1.43-2.17,0.92-4.62,1.02-6.99c1.66,1.28,0.39,4.17,2.77,5.06c2.34,1.18,2.88,2.8,1.19,4.95
	C169.01,192.11,166.44,192.6,165.85,189.82z"/>
<path class="st34" d="M172.85,200.81c0.89-1.53,1.27-3.15,0.92-4.91c3.3-0.45,5.57,1,7.1,3.84c-1.37,1.03-0.86,2.61-1.15,3.95
	c-1.45,0.7-2.9,1.4-4.31,2.09C173.1,204.75,172.91,202.81,172.85,200.81z"/>
</svg>
