<?xml version="1.0" encoding="utf-8"?>
<!-- Generator: Adobe Illustrator 26.1.0, SVG Export Plug-In . SVG Version: 6.00 Build 0)  -->
<svg version="1.1" id="Layer_1" xmlns="http://www.w3.org/2000/svg" xmlns:xlink="http://www.w3.org/1999/xlink" x="0px" y="0px"
	 viewBox="0 0 283 415" style="enable-background:new 0 0 283 415;" xml:space="preserve">
<style type="text/css">
	.st0{fill:#090A0C;}
	.st1{fill:#0D0E12;}
	.st2{fill:#0B0C0F;}
	.st3{fill:#131419;}
	.st4{fill:#060708;}
	.st5{fill:#0C0D11;}
	.st6{fill:#0D0E13;}
	.st7{fill:#14151A;}
	.st8{fill:#0F1014;}
	.st9{fill:#121319;}
	.st10{fill:#060709;}
	.st11{fill:#15151C;}
	.st12{fill:#090A0E;}
	.st13{fill:#13131B;}
	.st14{fill:#070710;}
	.st15{fill:#0B0E15;}
	.st16{fill:#11121A;}
	.st17{fill:#06070B;}
	.st18{fill:#0C0C12;}
	.st19{fill:#12131B;}
	.st20{fill:#04040D;}
	.st21{fill:#0E0E18;}
	.st22{fill:#120C11;}
	.st23{fill:#0D0F13;}
	.st24{fill:#0F1117;}
</style>
<path class="st0" d="M0,146c1.3-0.6,2.7-1.2,3.8-1.7c1.9,0.5,2.7,1.7,3.5,3C5,149,2.5,149,0,149C0,148,0,147,0,146z"/>
<path class="st0" d="M11,114c1-0.7,2-1.3,3-2c1.1,0.4,2.2,0.8,3,1.6c5.8,5.9,13.4,8.9,20.5,12.6c1.6,0.8,3.4,1.4,3.9,3.5
	c0.3,4.8-1.8,8.3-6.6,10.4c5.1,6.9,0.6,14.6,4,22.8c1.7,1.9,5.6,4.3,4.7,8.7c2.1,2.9,5.5,3.9,6.1,7.2c0.4,2.3-2.1,3.8-1.9,6.3
	c4.8,0.7,6.8-6.3,12.1-4.4c2.3,2.8,0.3,4.8-1.6,6.7c-5,5-6.1,13.8-3,21.9c7.3-2.1,11.4-10,19-11.1c2.5,3,0.5,5,0,7.1
	c-0.6,1.5-1.4,2.9-2.3,4.2c-1.8,2-3.6,3.9-3.7,6.8c0,0.5-0.1,0.9-0.3,1.3c-0.5,1.8-1.1,3.5-1.2,5.4c0.9-2.5,2.9-4.6,2.8-7.4
	c0.3-1,0.8-1.7,1.8-2c4.5,0.6,5.8-2.6,7-5.9c0.6-1.7,1.2-3.4,0.8-5.2c1-3.4,2.7-6.1,6.8-6.1c2.2,1,1.4,2.6,0.8,4.2
	c-3.6,8.7-4,14.9-1.4,23c-2.7-7.2,1.2-13.3,3.9-19.3c1.7-3.9,5.5-3.9,9.8-1.5c0.4,0.4,0.6,0.8,0.9,1.2c0.5,1.9,0.7,3.9,1.5,5.8
	c0.2,0.5,0.3,1,0.4,1.5c0.3,2.1,1.2,4.4,0.3,6.4c-4,8.8,0.6,16.8,2.2,25c0.1,0.5,0.2,1,0.1,1.6c0.1,2.1,0.7,4.1,0.4,6.2
	c-0.6,2.2-0.3,4,1.2,6c3.7,4.6,6.3,10.1,11.9,13c0.9,0.4,1.4,1.4,0.9,2.6c-2.7-0.1-3.9,4.3-7.9,1.6c-1.3-2.3-3.7-5-7.1-7.1
	c-1.7-0.8-4.1,1.4-6.3-1.4c2.2-6.7-1.4-10.8-7.3-12.5c-3.7-5.7-3.8-12-6.4-18.1c-3.7,3.8-0.6,8.2-3,11.6c-3.4,0-4.9-1.9-5-5.2
	c-0.1-4.3,0-8.7-0.1-13c0-1.8,0.5-3.7-1.1-5.2c-1.9-0.9-3,0.5-4.3,1.4c-1,4.2-0.9,8.4-2.8,12.2c-0.4,0.9-0.7,1.9-2.8,2.1
	c-2.6-7.5,0.3-16.1-3.9-23.4c-2.7,1.2-5,3.3-6,6.3c-4.7,0.6-6.8-1.2-7-6c-0.2-5-0.2-10,0.8-14.9c0.4-2,0.1-4.3,0.1-7.2
	c-8.1,1.5-13.5-6.3-21.5-4.3c-1.7,0.4-3.6-0.4-4.4-2.9c2.8-6.2,11-5.2,15.5-9.9c-7.3-5.6-15.2-5.1-23.8-5.3c5.2-5.2,11.7-0.5,16-4.5
	c-1.9-4.3-6.5-2.1-9.1-4.1c0.2-3.1,3.9-1.4,5-4.4c-2.7-4.4-11-4-11-10.4c-2.1-1.8-4.4-1-5.7-3.5c-1.6-5,2.9-8,5.2-12
	c5.4-2.2,10.6,1.4,15.9,0.1c-1.4-3-4.5-1.3-7.4-3C20.3,124.2,12.3,122,11,114z"/>
<path class="st1" d="M119,271.9c-1.1-2.4-3.7-1.7-5.9-2.5c-2.5-6.6-10.6-10.1-10.1-18.5c1.6-1,3.3,0.3,4.2,0
	c7.1-4.4,8.1-9.8,6.2-17.1c-1.9-7.3-1.4-15.1,0-22.6c3.3-1.6,3.1,2.4,5,3.1c1.4-0.4,1.4-2.6,3.1-2.6c3.4,4.7,3.3,10.2,2.8,15.5
	c-0.7,8.2,0.3,16.5-1.1,24.8c-0.4,2.6-0.2,5.2-1.8,7.5c-1,1.4-1.4,3,0.6,5.1c9-4.8,18-10.2,27.3-15.1c3.2,0.7,6.6-3,9.7,0.4
	c-5.2,3.1-8.5,9.1-15.6,9.5c-2.6,0.2-4.4,2.8-6.4,4.5c-3.7,1-6.4,3.3-9,6C125.5,272.6,122.7,274.2,119,271.9z"/>
<path class="st2" d="M128,269.9c1.6-4.1,4.5-6.3,9-6c-0.4,2.9-4.3,1.4-5,4c0,0.3,0,0.7,0,1C130.7,269.3,129.3,269.6,128,269.9z"/>
<path class="st0" d="M5.3,134.4c-1.4-1.3-1.4-2.5-0.1-3.8c1.6-0.6,2.4,0.3,3.1,1.6C8,133.9,7.1,134.8,5.3,134.4z"/>
<path class="st3" d="M159,249.9c-3.3,0.3-6.7,0.7-10,1c-0.8-3.2,1.7-4,3.7-5c3.9-2,7.1-4.8,10.1-7.9c0.9-4,0.6-8.7,6.1-9.8
	c2.2,0.9,3.9,2.9,6,2.3c-1.8,0.2-3.7-0.7-5.3-2.2c-1.4-0.8-2.5-1.8-2.8-3.5c0-3.1,0.5-5.9,3.7-7.4c0.8-0.1,1.5,0.2,2,0.9
	c0.8,1.4,0,2.8,0.1,4.1c0,0.6,0.1,1.3,0.3,1.9c0.4,1,1.1,1.7,2.2,1.8c1.1,0.1,1.8-0.6,2.7-1.1c0.4-0.2,0.8-0.4,1.2-0.5
	c0.4-0.1,0.8-0.1,1.3-0.2c2-1.4,5.4,0.2,6.4-3.1c0.4-1.5,0.3-3.1,0.8-4.6c0.7-1.3,1.8-1.2,3-0.8c1.1,0.5,2.1,1.4,3.3,0.3
	c1.6-3.1-1.8-3.9-2.7-5.9c-0.8-3,0.1-5.9,0.3-8.8c0.2-2.6,1.8-4.7,4.5-5.3c2.6-0.6,3.9,1.3,5,3.3c2.3,4.2,7.7,6.1,8.2,11.8
	c4.9-1.8,8.8-4.6,12.9-6.9c2.6-1.5,5.1-3.2,8-3.9c2.8-0.6,5.4-0.5,5.2,3.6c-0.3,2.4-1.8,3.7-4.1,4.1c-0.3,0-0.5,0-0.7,0
	c-0.8,3.7-4,4.8-7,6c-1.3,1.2-2.8,2.4-4.4,3.1c-0.6,0.4-1.2,0.7-1.9,0.9c-0.7,0.2-1.4,0.2-2.1,0.2c-4.2-1-6.9,2.1-9.8,3.8
	c-7,4-13.8,8.2-21.7,10.6c-2.9,0.9-5.5,3.4-8.1,5.3c1.8,6.1-0.1,9.4-6.3,10.9c-2.6,0.6-5.2,0.3-7.8,1.1
	C160.3,249.9,159.7,249.9,159,249.9z"/>
<path class="st4" d="M41,130c-5.4-2.7-11-5.2-16.3-8.1c-4.3-2.4-8.6-5-10.7-9.9c2.3-1.4,4.2-3.5,7-4c1.3,0.4,2.8,0.6,3.6,1.9
	c0.8,2.9,3.9,4.1,5,6.9c1.3-5.6,2.2-5.2,7.9-5.6c9.5-0.5,15,5.2,20.6,11.2c1.1,1.2,2.2,2.4,3.6,3.4c9.7,7.1,14.3,17.2,15.8,28.8
	c0.2,1.3,0.1,2.7,1.5,3.4c2.1-0.3,1.3-1.9,1.4-3.1c0.2-3-0.6-6.2,1.5-9.2c3.6-0.3,4.9,1.8,5.7,4.8c1.8,7,4.4,13.8,3.6,21.3
	c-0.1,1.1,0.6,2.2,1.2,3.2c0.7,1.6-0.6,2.8-1,4.2c-0.1,0.4-0.2,0.8-0.4,1.2c-0.3,0.8-0.6,1.5-1,2.3c-0.4,0.8-0.9,1.5-1.5,2.2
	c-1.3,1-2.1,2.6-3.9,3.1c-3.7,0.7-5.8-1.2-6.4-4.6c-1.1-5.5-3.7-10.6-4.5-16.2c-0.8-5.8-3.5-10.6-7.2-15c-2.6-3.4-6.2-5.8-8.7-9.3
	c-4.1-5.9-11.1-8-16.4-12.3C41.2,130.4,41.1,130.2,41,130z"/>
<path class="st5" d="M92,175.9c-0.8-1.1-1.8-0.5-2.7-0.4c0.1-7.7,0.9-15.5-3.8-22.1c0.5-4.4,0.5-4.4-2.9-6.7
	c-1.3,4.9,0.4,9.9-1,14.4c-2,1-2.8-0.1-3.5-1.2c-1.5-3.5-0.8-7.1-0.6-10.9c-2.4-3-2.9-7.1-4.6-10.6c-4.9-10.2-12.3-18.4-20.7-25.8
	c-0.9-0.8-2-1.6-3.1-1.5c-5.9,1-11.8-0.7-17.7,0.4c-2.7,0.5-5.3,0.4-7.4-1.6c-1.4,0-2.7-0.2-3-2c1.7-2.5,5-1.3,7-3
	c3.7-0.7,7.3-1.4,11-2c8.3-1.5,15.4,2.2,22.8,5c8.6,3.3,11.1,11.4,14.9,18.3c1.8,3.2,2.8,6.9,4.4,10.3c0.8-0.6,1.7-1.2,2.7-0.6
	c7.2,7.4,8.9,17,10.7,26.6c0.6,3.4,0.2,6.9,0.6,10.3C94.6,174.5,94.3,176.2,92,175.9z"/>
<path class="st6" d="M59,142c2.7,3,5.3,6,8,9c-0.4,1-1.2,1.4-2.1,1.6c-2.2,0.8-3.3-3.5-5.8-1.3c-2.5,6.6,0.1,13,0.4,19.2
	c1.2,1.6,2.8,1.4,4.2,1.9c4.7,1.5,5.9,4.6,3.1,8.7c-1.5,2.2-3.4,4.1-5.1,6.1c-2.2,2.5-2.8,3.8-3.9,8.2c6.5-2.3,7.7-13.5,16.7-10.1
	c1.8,1.5,1,3.1,1.1,4.5c3.3,1.2,7.6-1.6,9.9,2.2c0.5,1.5,0.2,2.8-0.7,3.5c-3,2.2-5.1,5.2-7.4,7.9c-1,1.2-2.3,2.5-4.3,1.6
	c0.5-1.7,1.1-3.4,2-6.4c-8.1,4.4-13.6,10.7-21.5,14.2c-3.1-11.6-2.7-22,6.9-30.8c-5.8-0.8-7.2,5.6-12.6,5.6c-1-0.1-2.4-0.8-3.4-2.2
	c0.1-3.1,3.8-3.8,4.2-6.7c-1.7-2.8-5.3-3.3-7.5-6.7c-0.6-0.9,1.2-2.5,0.4-4.5c-2.1-1.6-4.4-3.5-6.5-5.2c-0.8-2,1.6-2.2,1.5-3.9
	c-0.6-0.9-1.3-1.9-2.4-3.4c3.9-5.7,1.3-11.1-2.4-16.4c2.8-1.4,5.9-0.9,6.7-2.3c1.8-2.7-0.2-5.4,2.5-6.3c0,0,0,0,0,0
	C47.2,133.8,53.2,137.7,59,142z"/>
<path class="st7" d="M73,205c4.6-3.4,6.9-9,13.4-12.1c-6.1-2.3-10.4-0.1-14.7-0.4c-0.4-2.7,2.5-3.2,2.8-5.3
	c-3.8-1.9-6.8-0.6-9.7,4.2c-2.6,4.3-4.3,5.6-9.4,6.9c-1.3-5.2,2.1-8.7,4.6-12.3c1.6-2.3,3.7-4.2,5.6-6.2c1.4-1.5,1.7-3.1,0.5-4.9
	c-2.6-1.9-6.2,0.1-8.6-2.8c-1.4-2.1,0.1-4.5,0.3-7.2c-0.8-1.2-1.7-2.6-2.7-4.1c1-3.6,1.9-7.2,2.9-10.9c6.9,1.6,9.6,7.4,12.7,12.8
	c0.5,0.8,0.5,1.9,1,2.6c-1.3-3.7-3.1-7.3-6-10.3c-0.8-0.9-1.4-1.9-0.7-3.1c0.7-0.3,1.3-0.7,2-1c3.5,3.6,6.5,7.5,7.3,12.6
	c1.3,7.6,5.5,14.4,6,22.4c1.7,0.4,3.1,0.7,4.6,1c0.7,0,1.3,0.3,1.8,0.7c1.6,1.8,4.9,1.8,5.4,4.8c0,4.3-3.4,3.9-6.1,4.4
	c-2.8,1.2-4.3,3.7-6,6c-0.4,5.3-3.5,8.7-8,11c-0.3,0.7-0.7,1.3-1,2c-1.1,1.1-1.6,4.7-4,1c0-0.3,0-0.7,0-1c1.4-2.3,2.2-5,4-7
	C71.2,207.4,71.8,206,73,205z"/>
<path class="st8" d="M101,197.9c-0.2,2.2-2.4,3.6-2,6c-1.3-0.6-2.7-1.2-4.8-2.1c-8.6,7.7-8.1,17.9-7.9,28.1
	c-1.3-6.7-6.4-12.2-4.1-20c1.3-4.3,1.9-8.8,3.8-13c0.7-2.6,5.5-1.1,5-5C95.3,192.3,98.5,194.6,101,197.9z"/>
<path class="st9" d="M108,203c-1-0.8-1-1.9-1-3c6.4,0.6,9.7,5.7,7,11c0.7,9.6-1.6,19.4,2.6,28.8c1.1,2.5-0.4,5.3-2,7.4
	c-1.9,2.4-4.4,4.3-6.9,6.6c-2.1,0.3-3-2.1-4.7-2.8c0-2.3,0-4.7,0-7c1.4-1.3,3.5-0.8,4.9-1.6c5.5-6.6,4.9-13.9,3.1-21.4c0-1,0-2,0-3
	C112.1,212.5,109.8,207.8,108,203z"/>
<path class="st10" d="M100.8,242.2c0,3.1,1.2,5.9-1.9,8.8c-3.6-5.4-2.8-12.5-7.8-16.5c0.2-2,0.3-3.6,0.5-5.3
	c-4.8-6.6-1.1-13.5-1.4-20.6c0.9,0.4,1.4,0.5,1.4,0.7c0.1,9.1,4.9,17.3,4.7,26.5C96.2,238.7,98.1,241,100.8,242.2z"/>
<path class="st11" d="M111,221c3.6,5.3,2.2,10.9,1,16.4c-0.3,1.2-1.3,2.3-1.8,3.5c-1.3,3.8-3.6,5-7.2,3.1c0-0.3,0-0.7,0-1
	c-2-5.1-1.4-10.6-2.9-15.8c-0.4-1.4-1.1-3.8,1.9-4.2c1.6,4.7,1,9.8,2.9,14.4c0.5,1.2,0.3,2.7,2.6,3.2
	C113.6,235.1,110.1,227.5,111,221z"/>
<path class="st10" d="M72,214c1.4-4.6,6.7-6.4,8-11c1.5,1.8,0.2,8.1-2.2,10.4c-1.2,1.1-2.5,2.1-3.8,3C72.4,216.3,72.2,215.1,72,214z
	"/>
<path class="st9" d="M102,222.9c-2.4,5.3,0.8,10.4,0.4,15.6c-0.1,1.5,0.4,2.9,0.6,4.4c-3.1-6-2.2-13-4.8-18.9
	c1.9-4.4,3.9-8.5,1.9-13.1C103.9,214.4,101.2,219,102,222.9z"/>
<path class="st6" d="M67,217c1.8,1.7,2.7-0.7,4-1c-0.1,4.7-3.1,8.3-4.6,12.5C64.4,224.4,64.6,220.6,67,217z"/>
<path class="st10" d="M95.8,209.1c3.9,2.1,3.1,4.1,0.8,6.4C94.4,213.6,94.9,211.7,95.8,209.1z"/>
<path class="st6" d="M71,209c-1,2.5-1,5.6-4,7C67.1,212.9,68.3,210.5,71,209z"/>
<path class="st8" d="M99,204c1.6,1.8,0.8,4,1,6C98.4,208.2,99.2,206,99,204z"/>
<path class="st12" d="M120,208c0.1,1.4-0.2,2.9,1,4c0,2.5-0.1,5-2.8,6.6c-2.3-2.1-2.3-5.4-4.2-7.6c0.8-5.7-3.5-8-7-11
	c-1.7-1.7-3-4.5-6-2c-3.8-1.3-7.3-2.8-10-6c-1.5-1.5-3.7-0.9-5.4-1.9c-0.5-0.8,0.2-1.4,0.4-2.2c-0.3-1.5,0.7-2.1,1.8-2.7
	c1-0.3,1.9,0,2.8,0.3c1.9,0.4,3.5,1.3,5.1,2.3c2.2,1.5,4.6,2.7,7,3.6c1.3,0.3,2.3-0.6,3.5-0.8c4.3,0.5,7.8,2.9,11.6,4.7
	C119.1,199.4,119.3,203.7,120,208z"/>
<path class="st1" d="M168,265.9c-0.9,0.3-1.8,0.9-2.7,0.1C166.6,264.4,166.6,264.4,168,265.9z"/>
<path class="st13" d="M171,217.9c-0.8-1.6-1.1-3.2-1-5c3-2,2.6,1.9,4,2.4c2.3-1.1,2.2-3.3,2.7-4.8c3-3.3,5.7,0.7,8.3,0.1
	c1.9-1.9-1.1-4.2,1.4-6c2.4,1.4,3.5,3.3,2.7,6.3c-0.1,1.1-0.7,1.7-1.6,2.2c-1.9,0.9-4.1,1.1-5.7,1.5c-1.8,0.9-2.3,2.4-3.4,3.4
	c-0.3,0.3-0.7,0.5-1.1,0.7c-1.7,0.3-3.4,1.4-5.2,0.2C171.7,218.6,171.3,218.3,171,217.9z"/>
<path class="st14" d="M181.1,222.8c2.6,1.9,4.9,1.1,7-0.9c1.2,2.7-1.3,2.4-2.5,2.8c-1.8,0.6-3.8,0.8-5.7,1.1
	C180.1,224.8,179.9,223.5,181.1,222.8z"/>
<path class="st0" d="M24,110c4.1-0.2,8.2-0.5,12.4-0.1c4.1,0.3,8.3,0.9,12.5-1.7c15,9.9,24.1,24,30.6,40.4
	c-0.5,3.5-1.2,7.5-1.4,11.5c-3.7-3.1-2.5-7.8-3.4-11.6c-2.2-9.6-7.6-16.3-15.2-21.9c-2.2-1.6-3.7-4.2-5.7-6.2
	c-5.3-5.6-11.6-8.8-19.6-7.7c-1.5,0.1-2.5,1.1-2.8,2.2c-0.5,2.6,2.1,3.3,2.1,5.2c-0.4,0.8-1.2,1.2-1.6,0.7c-2.8-2.5-5.5-5.1-8.2-7.8
	C22.9,112,23.7,110.9,24,110z"/>
<path class="st15" d="M90.2,186.9c-0.7-0.3-1.5-0.6-2.2-0.9c-0.6-0.7-0.6-1.5,0-2.2c0.2-0.6,0.5-1.3,0.7-1.9
	c2.5-1.4,4.4,1.1,6.7,0.9c2.4,0.7,4.3,2.3,6.5,3.5c1.5,1.8,4.8,3.1,1.7,6.1c-3.1,0.1-5.1-2.4-7.7-3.4
	C94.1,188.1,92.8,185.5,90.2,186.9z"/>
<path class="st0" d="M59,142c-6.6-2.1-11.4-7.1-17.3-10.2c-0.4-0.2-0.5-1.2-0.7-1.8C48.1,132.3,54.1,136.3,59,142z"/>
<path class="st16" d="M63,102c4.7-0.8,9.4,1.4,14-0.1c1.7-1.2,2.7-0.1,3.7,1.2c0.9,2.5,1,5.4,4.2,6.5c1.3,0.8,1.8,2,1.9,3.4
	c1,5.4,2.8,10.6,4.4,15.8c0.8,2.3,2,4.7,0.3,7.1c-4.2,1.3-5.7-2-7.6-4.4c0.3,1.5,0.7,3.2-0.9,4.4c-0.7,1-1.3,2-2,3
	c-0.8-8-2.5-15.6-5.8-23c-1.9-4.3-4.6-7.1-8.6-9C64.5,106,62,105.2,63,102z"/>
<path class="st17" d="M65,152c3.8,4.2,6.8,8.8,8.2,14.4c0.5,1.9,1.5,3.7-1.4,6.1C71.1,162.1,65,155.7,58,150
	c-0.2-0.8-0.7-1.5,0.2-2.3C61.4,147.5,62.5,150.9,65,152z"/>
<path class="st11" d="M108,203c2.8,3.1,5.6,6.1,5,10.8c-0.2,1.7-0.3,3.3-2,4.2C107.7,213.4,108,208.2,108,203z"/>
<path class="st18" d="M139,207c-0.7-1.7-1.3-3.3-2-5c-0.9-1-0.5-2.2-0.6-3.1c1.3-2.5,5.7-3,3.6-6.9c-1.4-1.6-2.8-3.3-4.2-4.9
	c-1.4-1.3-3.5,0.7-4.7-1c0-2.2,1.7-3.1,3.2-4.3c2.7-1.6,4.7-4.5,8.4-4c3,1.8,3.2,4.8,3.3,7.8c0.1,4.8,0,9.6,0,14.4
	c-2,5.2-0.5,10.7-1,16c-1.7,1.3-0.2,4-2.5,5.3c-3-1.5-3.5-4.3-3.5-7.3C139.8,211.6,139.8,209.3,139,207z"/>
<path class="st1" d="M118,193c2,3.4,0.2,7.5,2,11c0,1.3,0,2.7,0,4c-1.5-4.2-3.7-8.3-3-13c0-0.2,0-0.4,0-0.6
	C117.1,193.7,117.4,193.2,118,193z"/>
<path class="st19" d="M139,207c1.5,2.3,1.5,4.7,0,7c0-0.3,0-0.7,0-1C139,210.9,139,209,139,207z"/>
<path class="st10" d="M95,147c-0.4-4-2.1-7.5-4-11c-1.6-7.6-3.9-15-7.1-22.3c0.4-0.9,1.3-0.6,2.1-0.7c1.2-2.6,2.6-4.9,6.1-4
	c2.5,1.3-0.7,5.3,2.4,5.9c2,1,2.2-1.7,3.5-1.3c0,3.9,0,7.6,0,11.3c2.3,1.6,2.5,4.2,3,6.6c1.4,6.8,2.9,13.6,3.5,20.5
	c0.2,2.9,2,5.2,2.7,7.9c2.5,7.2,2.6,14.9,3.6,21.3c1.2,2.5,2.9,2.9,3.6,4.2c1,1.8-1.3,3.1-0.6,4.7c1.3,1.4,4.5,1.5,3.2,4.7
	c0,0,0,0,0,0c-3.1-0.3-6.7,0.8-8.6-3.1c-0.1-0.3-1.5,0-2.3,0.1c-0.5-0.4-0.9-0.9-1-1.6c0.3-1.4-0.7-2.3-1.5-3.3
	c-0.4-0.6-0.6-1.3-0.6-2c-0.4-6.9-3.2-13.2-4.9-19.8c-0.9-3.4-0.3-6.9-0.9-10.3C96.6,152.2,96.2,149.5,95,147z"/>
<path class="st20" d="M181,216.1c-1.1,0.2-2,0.5-2.1,1.8c-0.6-0.1-1.2-0.1-1.8-0.2c1.6-4.9,5.9-5.1,10-5.7c0,1.2-0.1,2.4-0.1,3.5
	c-1.5,1-3.1,0-4.6,0.4C181.9,216,181.4,216,181,216.1z"/>
<path class="st9" d="M192,216.8l-0.4,0c0,0-0.4,0-0.4,0c-0.6-3.1-0.6-3.1,2.2-2.7C194,215.6,192.5,216,192,216.8z"/>
<path class="st21" d="M176.8,223.9c-0.9,0.3-1.9,0.7-2.8,1c-0.1-0.8-0.3-1.6-0.4-2.5C175.2,221.8,176,223,176.8,223.9z"/>
<path class="st22" d="M126,165.9c0.9,1.4,1.8,2.7,2.6,4c3.4,1.9,7.2,0.4,10,1.6c1.7,1.6-0.1,2.8,0.6,4.3c0.9,0.1,1.8,0.1,2.8,0.2
	c0,0.3,0,0.6,0,1c-0.9,1.1-2.2,1.6-3.5,2.2c-3,0.3-6,1.2-8.9-0.6c-2.9-3.9-7-7.2-7.9-12.4c0.1-0.8,0.5-1.5,1.2-2
	c0.4-0.7,0.7-1.4,1.1-2.1c1,0.1,1.6,0.7,2.1,1.5C126.5,164.3,126.6,165.1,126,165.9z"/>
<path class="st23" d="M104,186c-1.6-1-3.3-2.1-4.9-3.1c0.4-0.7,0.8-1.4,1.2-2.2c-1.6-0.8-1.9-2.2-2.3-3.7c-1-10-2-20-3-30
	c1.9,1.7,2.6,4,2.8,6.2c0.8,9.7,4.7,18.6,6.6,28.1C104.7,183,104.9,184.5,104,186z"/>
<path class="st24" d="M106,161c4.2,4.6,8.4,9.2,11,15c0.1,5,0.2,10-0.9,15c-1.8,0.2-3.7,0.4-5,2c-2.5-3.4,2.1-4.2,2.5-7
	c-4.3,0.2-4.7-3.2-5-6.2C107.9,173.5,107.8,167.1,106,161z"/>
<path class="st19" d="M140,192c1.1,1,1.1,2.3,0.8,3.8c-1.3,2-4.3,3.1-3.8,6.2c-3-4.1-6.8-7.1-12-8c-0.6-1.7-2.7-2.4-3.1-4.6
	c4.1-1.3,7.8,0.3,11.1,1.2c2.4,1.3,2.1,4.7,5,4.9C140,195,139.9,193.4,140,192z"/>
<path class="st12" d="M111,193c0.8-2.8,2.6-3.1,5-2c0.7,0.7,1.3,1.3,2,2c-0.3,0.7-0.7,1.3-1,2c-0.2-1.2-0.6-2.2-2.1-2.8
	C113.8,192.4,112.4,192.7,111,193z"/>
<path class="st12" d="M106.1,189.9c-0.4-1-0.8-2-1.1-3C107.6,187.1,107.2,188.4,106.1,189.9z"/>
</svg>
