<?xml version="1.0" encoding="utf-8"?>
<!-- Generator: Adobe Illustrator 26.1.0, SVG Export Plug-In . SVG Version: 6.00 Build 0)  -->
<svg version="1.1" id="Layer_1" xmlns="http://www.w3.org/2000/svg" xmlns:xlink="http://www.w3.org/1999/xlink" x="0px" y="0px"
	 viewBox="0 0 283 415" style="enable-background:new 0 0 283 415;" xml:space="preserve">
<style type="text/css">
	.st0{fill:#08090B;}
	.st1{fill:#030406;}
	.st2{fill:#07080A;}
	.st3{fill:#0D0D0F;}
	.st4{fill:#14151C;}
	.st5{fill:#431D20;}
	.st6{fill:#4F2521;}
	.st7{fill:#662930;}
	.st8{fill:#6E3E3C;}
</style>
<path class="st0" d="M180,414.9c0.2-2-0.6-4.2,1.3-6.4c1.2,2.3,0.5,4.4,0.7,6.4C181.3,414.9,180.7,414.9,180,414.9z"/>
<path class="st1" d="M162.7,401c1.6,2.2,1.5,3.6,0.4,5.3C161.5,404.8,162,403.3,162.7,401z"/>
<path class="st1" d="M155,312.9c0.3-1,0.7-2,1-3c3.6,0.7,5.5,2.6,6.3,6.5c0.9,4.4,3,8.7,4.5,12.9c-5,2.9-10.5,0.9-14.4-5.1
	c1.4-4.7,1.4-4.7,4.8-7.1C157.1,315.5,156.2,314.1,155,312.9z"/>
<path class="st2" d="M163,288.9c2.8-1.1,3.5,1.1,4.3,2.8c1.9,4,2.2,8.3,1.1,12.8c-1.8,0.8-3.6,1.6-5.2,2.4c-0.9,1.1-0.2,2.1-0.3,3
	c-1.9-0.9-3.7-2.2-6-2c0-0.3,0-0.7,0-1C159,300.9,161,294.9,163,288.9z"/>
<path class="st1" d="M103,323.9c1.4,0.6,2.7,1.2,3.7,1.6c3.7-0.4,4.5-3.3,6-5.7c4.6-0.4,6.1-6.8,11.1-6.2c2.6-1.6,1.4-4.8,4.3-6.6
	c5.3,2,6.1,7.6,8.6,11.6c0,2.7-1.6,4.9,0.3,7.8c8.8,0.5,9.1,7.7,8.7,14.1c-0.9,14.5-2.5,29-1.8,43.7c0.1,2-0.3,4,0.6,5.4
	c2,2.1,4.7,0.7,6.4,2.3c1.9,5.3-1.4,15-6.4,18.8c-0.8,1.3-0.5,2.9-0.6,4.3c-23.3,0-46.7,0-70,0c-1.5-1.4-1.5-3.3-1.5-5.1
	c0.3-10.1-0.8-20.3,1-30.4c0.1-1.6,0.8-2.8,2.6-3.7c5.7,1.8,9.7-0.3,11.8-6.2c0.7-1.8,2.2-2.9,3.8-3.8c2.1-1.2,3.6-2.9,5-4.8
	c3.1-4.1,2.9-6.7-0.6-10.5c-1.8-1.9-3.8-3.8-6.5-4.4c-3.4-0.7-6-2.1-6.3-6c-0.3-4.1,1.7-7.2,5.1-9c3.1-1.6,5.4-3.8,7.2-6.6
	c1.4-1.9,1.4-5.1,4.7-5.1c0.5,0.1,0.9,0.4,1.2,0.8c0.7,1.5,0.4,3.1,0.3,4.8C102.4,324.6,102.6,324.1,103,323.9z"/>
<path class="st1" d="M152.9,375.4c-3.7-1.8-4-3.5-0.9-7C154.6,371.2,154.6,371.2,152.9,375.4z"/>
<path class="st3" d="M75,377.9c1-15,0.9-30.1,2.9-45c0.4-2.9,0.1-6,0.1-9c-0.1-0.2-0.1-0.5-0.2-0.7c-0.6-7.6,2.6-12.3,9.8-14.4
	c1.6,0.5,1.2,2.1,1.8,3.2c-0.1,4.5,0.1,8.9,2,13.1c2.8,0.6,2.7-4.4,5.9-3c0.1,1,0.4,2-0.4,2.8c-1.4,3.1-3.7,5.3-6.7,7
	c-5.3,3-6.1,5.3-4.3,11.3c7.2,0.9,13.7,4,14.8,11.8c1,7-4.7,10.6-10.8,13.9c-1,5.4-4.1,9.5-10.5,9.7C77.7,379.8,77,375.3,75,377.9z"
	/>
<path class="st4" d="M66,381.9c0-0.3,0-0.7,0-1c-0.8-0.8-1.6-1.7-1.7-2.9c-0.5-11.6-2.4-23.1-2.3-34.8c0-3.2,0.7-6.4-0.4-9.5
	c0-2.3-0.7-4.7,0.7-6.8c3-2.7,5.9,0.3,9.4-0.3c1.6,9.4,0.3,18.5,0.9,27.5c1.3,4.6,0.8,9.3,0.9,14c1,8.1-2.1,15.7-2,23.7
	c0.1,6.5,1.4,12.8,1.2,19.3c0,1.3,0.3,2.6-0.7,3.8c-1,0-2,0-3,0c-0.6-6.7-0.6-13.4-2-20C64.6,390.7,67.2,386.2,66,381.9z"/>
<path class="st5" d="M171.1,141.7c0.6,0.1,1.3,0.2,1.9,0.3c2.6,2.1,5.3,4.2,7.8,6.1c-0.2,1.4-1,1.6-1.8,1.8
	c-1.2,0.8-2.1-0.1-3.1-0.4c-1.7-0.9-3.7-1.3-5.4-2.2c-1.2-0.5-2.4-1-3.7-1.1c-0.4-0.1-0.8-0.3-1.2-0.6c-1.4-1.3-1.3-3.4-2.5-4.8
	c0-0.9,0-1.8,0-2.8C167.6,135.2,168.8,139.7,171.1,141.7z"/>
<path class="st6" d="M175.9,126.9c0.4-0.6,0.9-1.3,1.3-1.9c2.4,0.3,2.4,0.3,4,3.1c1.7,0.5,3.5,0.2,5.2,0.3c1.4,0.1,2.9-0.1,4.3,0.4
	c1.8,0.8,1.7,2.6,2.3,4.1c1.5,0.9,4.2,0.2,4.4,2.9c-0.1,2.4-2.8,0.8-3.3,2.4c0,0.2-0.1,0.5-0.1,0.7c-6.5-1.4-13.1-2.4-18.3-7.2
	C174.9,130.1,176.4,128.6,175.9,126.9z"/>
<path class="st7" d="M192,151.2c-1.7,1.5-3.3,0.5-4.9-0.2c-1.4-0.6-2.8-1.3-3.2,1.1c-0.4,0.3-0.8,0.6-1.3,0.7
	c-1.7-0.2-3.4-0.5-4.1-2.5c-0.1-2.2-1.5-3.3-3.1-4.5c-1.4-1-3.5-2-2.1-4.5c2.3-1.4,4.4-0.6,6.6,0.3c1.2,0.4,1.9,1.5,2.9,2.1
	c2,1.8,4.9,1.9,6.7,3.9c0.7,0.7,1.3,1.6,2.1,2.3C191.9,150.4,192,150.8,192,151.2z"/>
<path class="st8" d="M196.1,133.9c0.9,0.3,1.9,0.6,2.6,0.8c0.8,1.2,0.4,2.1,0,3c-1.5,0.2-3,0.3-4.5,0.5c0.8-0.7,1.5-1.5,2.4-2.3
	c-1.6-1.9-4.1-0.2-5.6-1.9c-1.1-1.4,2.1-2.7,0.1-4.1C194.6,128.8,194.1,133,196.1,133.9z"/>
</svg>
