<?xml version="1.0" encoding="utf-8"?>
<!-- Generator: Adobe Illustrator 26.1.0, SVG Export Plug-In . SVG Version: 6.00 Build 0)  -->
<svg version="1.1" id="Layer_1" xmlns="http://www.w3.org/2000/svg" xmlns:xlink="http://www.w3.org/1999/xlink" x="0px" y="0px"
	 viewBox="0 0 283 415" style="enable-background:new 0 0 283 415;" xml:space="preserve">
<style type="text/css">
	.st0{fill:#E4B9B4;}
	.st1{fill:#E1ACAD;}
	.st2{fill:#DBB3B1;}
	.st3{fill:#E1C1BC;}
	.st4{fill:#EAC3C0;}
	.st5{fill:#E2BABA;}
	.st6{fill:#D6B1AA;}
	.st7{fill:#E1BCB4;}
	.st8{fill:#DBB4AC;}
	.st9{fill:#E0AC9F;}
	.st10{fill:#E7AEAC;}
	.st11{fill:#D8A79E;}
	.st12{fill:#DAACA7;}
	.st13{fill:#D7ABA2;}
	.st14{fill:#DBB7B3;}
	.st15{fill:#D4A49E;}
	.st16{fill:#E3B7AF;}
	.st17{fill:#F4C5C4;}
	.st18{fill:#F7CBC5;}
	.st19{fill:#EFD1C6;}
	.st20{fill:#ECC6BE;}
	.st21{fill:#F8D2C9;}
	.st22{fill:#F3CABF;}
	.st23{fill:#EBC4BE;}
	.st24{fill:#F3D1CD;}
	.st25{fill:#C4908D;}
	.st26{fill:#B98577;}
	.st27{fill:#B98980;}
	.st28{fill:#CA978C;}
	.st29{fill:#BF8A82;}
	.st30{fill:#B78275;}
	.st31{fill:#C49188;}
	.st32{fill:#B78780;}
	.st33{fill:#A57076;}
	.st34{fill:#AA7A6F;}
	.st35{fill:#9E7770;}
	.st36{fill:#9D6E65;}
	.st37{fill:#A17168;}
	.st38{fill:#AF827C;}
	.st39{fill:#98706A;}
	.st40{fill:#AA7770;}
	.st41{fill:#A26C60;}
	.st42{fill:#AA776B;}
	.st43{fill:#A6756D;}
	.st44{fill:#A97777;}
	.st45{fill:#AA5D60;}
	.st46{fill:#CE8990;}
	.st47{fill:#653139;}
	.st48{fill:#823A42;}
	.st49{fill:#321828;}
</style>
<path class="st0" d="M271.1,170.7c1,0.7,1.9,1.5,2.9,2.2c2.9,4.1,8,6.5,9,12c0,2.3,0,4.7,0,7c-2.6,1-3.5-0.6-4.3-2.6
	c-1.8-4.2-4-8.2-7-11.7c-0.8-1.2-1.5-2.5-2.4-3.6c1,1.3,1.7,2.7,2.7,4c3.5,3.9,5.6,8.7,7.7,13.4c0.5,1.2,0.6,2.2,0,3.2
	c-2.2,1.4-2.7-0.6-3.6-1.8c-0.2-0.3-0.2-0.6-0.2-0.9c0,0.1-0.1,0.3-0.1,0.5c0.4,1.3,0.9,2.4,0.6,3.8c-0.7,1.6-0.5,3.5-1.8,4.9
	c-3.2,0.8-4.1-1.7-4.8-3.7c-2.7-7.7-6.7-14.6-11.6-21c-0.3-0.7-0.3-1.5-0.3-2.3c0.1-0.8,0.4-1.4,0.9-2c4.5-0.1,5.4,4.1,7.6,6.1
	c-0.9-3.9-6.4-5.8-5.9-11c2-1.6,0.2-4.8,2.7-6.2c1.1,0.6,2.2,1.2,3.3,1.9C267.7,165.5,268.6,168.6,271.1,170.7z"/>
<path class="st1" d="M283,182c-2.9-1-2.4-4.4-4.3-6.1c1.5-2.1,2.9-0.2,4.3,0.1C283,178,283,180,283,182z"/>
<path class="st2" d="M263,161c-1.2,1.8,2.9,5.4-2,6c-2,0-3-2-5-2.5c-1.1,1.9,1.6,3.6,0.4,5.4c-2,2-4,0.1-6,0
	c-0.4-0.2-0.8-0.5-1.1-0.8c-0.8-1.3-1.6-2.7-3.1-3.3c-1.5-1.6-3.6-1.4-5.5-2c-2.6-0.8-5.1-1.6-5.4-4.9c-0.6-5,2.2-7.2,6.5-8.3
	c1.6-0.2,3,0.6,4.5,0.9c4.4,2,8.8,3.9,13.1,6.1c1.1,0.6,1.9,1.5,2.7,2.3C262.4,160.3,262.7,160.6,263,161z"/>
<path class="st3" d="M271.1,170.7c-3.2-1.3-4.2-3-4.8-7.9C269.1,164.7,269.7,168,271.1,170.7z"/>
<path class="st4" d="M256,170c-0.6-2.7-5.1-4.5-1.7-8.2c3.9-0.5,5.2,2.4,6.7,5.1c0.2,2.5,2.2,4,3.7,5.7c2.5,2.7,3.8,5.6,4,10.1
	c-4.2-3.4-6.8-7.3-9.8-10.8C256.9,173,255.9,172.2,256,170z"/>
<path class="st5" d="M275,207c-0.4-1.9-0.8-3.8-1.2-5.7c0.3-1.8-0.4-3.8,1.2-5.3c-0.1,1.7,1.1,2.8,1.9,4.1c1.4,1.4,1.4,3.4,2.1,5
	c0,0.9-0.1,1.9-0.1,2.8c-1.2,0-2.4,0-3.6,0C275.3,207.5,275.2,207.2,275,207z"/>
<path class="st6" d="M239,149.9c0.7,0.3,1.4,0.6,2,0.9c0.9-0.2,1.2,0.3,1.1,1.1c-2.9,1.5-6.7,2.4-5.2,7.1c-4.4,1.9-7.6-1.9-11.5-2.4
	c-0.7-0.1-1.6-0.1-2.3-0.6c-2.9-5.2-1.2-8.3,4.5-8.1c2,0.1,3.9-0.6,5.8-0.6C235.6,147.7,237.5,148.3,239,149.9z"/>
<path class="st7" d="M224,156c0,1.3,0,2.6,0,3.9c-0.5,0.8-1,1.6-2.2,1.2c-0.4-0.3-0.7-0.6-0.9-1.1c-0.4-1-0.5-2.1-0.3-3.1
	c-0.2,1.2-0.1,2.3,0.3,3.4c0.1,0.5,0.2,0.9,0.3,1.4c0.2,2.7-0.8,4.8-3,6.3c-0.3,0.3-0.6,0.6-0.9,1c-3.1-0.3-2.5-2.9-2.7-4.8
	c-0.3-2.1,0.4-4.3,0.6-6.4c0.4-1.3,0.5-2.6,0.4-3.9c-0.2-5.1,2.6-8.2,6.7-10.4c2.4-0.9,4.6,0,6.7,1c0.9,0.4,1.6,1,2.4,1.6
	c0.7,0.9,2.3,0.7,2.7,2c-3,1.6-6.1,1.7-9.2,1C222.1,151.4,223,153.7,224,156z"/>
<path class="st8" d="M214,143c-0.1,2.9-3,2.6-4.5,3.7c-0.6,1.8-1.2,3.5-1.8,5.3c-1.2,0.6-2.5,1.3-3.8,1.9c-0.3-0.4-0.7-0.7-1-1.1
	c0-5.9,2.5-9.4,8.1-11.1C212.3,141.7,213.2,142.1,214,143z"/>
<path class="st9" d="M191,140.1c1.1,0,2.3,0.1,3-1.1c-0.3-0.3-0.4-0.6-0.3-0.9c0-0.3,0.1-0.5,0.2-0.5c1-1.3,2.6-1,3.9-1.5
	c2.6-1.4,2.3-3.5,1.4-5.7c-0.3-4.6,0.1-9.1,0.9-13.6c0.5-2.6,1.5-5.5-1.5-7.5c-0.3-0.4-0.5-0.9-0.7-1.4c-0.2-0.8-0.1-1.6,0.2-2.4
	c0.4-0.8,0.9-1.4,1.6-1.9c2.6-0.7,3.6,0.6,3.7,2.9c0,1.7,0.4,3.5-0.4,5.2c-0.6,4.2,2.5,6.5,4.8,9.2c0.1,3.5,3.6,6.1,2.8,10.2
	c-2.5,1.6-3.7,4.8-7.6,5.8c-3.5,0.8-3.4,5.3-4.8,8.8c-3,1-6.3,2.2-9.7,3.3c-1.1-3.3-5.9-0.5-6.8-4.1c1.8-1.5,4.7,0.3,6.2-2.1
	C189.2,142.2,190,141,191,140.1z"/>
<path class="st10" d="M189,144c-2,3.1-4.6,1.9-7.2,1.1c-0.6-0.6-1.3-1.2-1.9-1.9c0.3-0.8,0.7-1.5,1-2.3c2.2-1.6,5,1.6,7.1-0.9
	c0.7,0,1.3,0,2,0C191.1,141.7,189.9,142.8,189,144z"/>
<path class="st11" d="M175.9,126.9c-1.6,1.7-3.3,3.3-4.9,5c-1.8,0.9-3.1,0.1-4.7-1.2c0.5-3.7-1.4-6.8-3.7-9.6
	c-7-8.6-2.1-16,8.3-17.7c1-0.2,2,0,2.9-0.5c2-0.8,3.8-0.2,5.2,1.3c0.3,0.4,0.4,0.9,0.3,1.4c-1.1,1.9-2.7,1.2-4.4,1.1
	c-4.8-0.2-8.7,2.7-10.5,7.6c2.5,2.5,4.2,7.2,8.5,6.2c5.5-1.3,8.7-6,11.1-10.5c-0.6-2.7-5.4-0.9-4.1-4.8c1-0.9,2.3-0.9,3.6-0.9
	c1.6,0.1,3.1-0.2,4.6,0.5c0.4,0.3,0.8,0.7,1,1.1c1.8,5.7-2.7,9.1-5,13.2c-1.6,1.8-3.7,3.1-5.1,5.1c-0.4,0.5-0.8,1-1.2,1.5
	C177.5,126.5,176.9,127,175.9,126.9z"/>
<path class="st12" d="M188,140c-0.7,1.3-1.7,2.4-3.3,2.8c-1.3-0.6-2.6-1.3-3.8-1.9c0.6-0.7,1.3-1.4,1.9-2.1
	C184.7,138.7,186.1,140.5,188,140z"/>
<path class="st12" d="M189,144c0.3-1.3,0.7-2.7,1-4c0.3,0.1,0.7,0.1,1,0.2C190.9,141.7,191.3,143.5,189,144z"/>
<path class="st13" d="M199,109c0.6,5.3-1.9,10-3.2,14.9c-0.5,2.1-1.6,4.1,0.2,6.1c1.2,0.7,2.4,1.8,4,1c0,0,0,0,0,0
	c3.4,3,1.3,5-1.4,6.8c-0.8-1.3-0.7-3.3-2.8-3.5c-1.8-1.3-3.2-2.9-2.7-5.3c-0.1-4.2-0.7-8.4,3-11.9c2.3-2.2,0-6.6,2.9-9.1
	C199,108.3,199,108.7,199,109z"/>
<path class="st14" d="M200,72c0.6-3.7,1.3-7.3,1.9-11c-0.5-0.7-0.5-1.4,0.1-2c0.1-0.7,0.2-1.3,0.3-2c1.1-1.1,2.3-1.2,4,0.1
	c0.8,8.2,2,16.8,0,25.4c-0.8,3.5-1.8,3.7-5.9,1.9C199.7,80.4,198.8,76.3,200,72z"/>
<path class="st15" d="M200,72c0.1,4.4-0.3,8.9,2.4,12.7c5-1.8,5.2-3.5,3.4-26.3c-0.7-1.6-2.1-1.3-3.4-1.4c0-0.7-0.1-1.3-0.1-2
	c1.3,0,1.9-1.9,4.3-1.1c2.1,10.8,2.5,21.9-0.5,33.1c-3.4,1.6-3.4,1.6-6.8,0.4C199.1,82.3,198.2,77.1,200,72z"/>
<path class="st16" d="M180,106.1c1.5,1.3,3.6,0.5,5.7,1.6c0.9,7.2-6.3,9.5-9.1,14.2c-7.2,2.9-9.6-3.2-13.3-6.4c0.7-8,6-11,15.8-9.6
	C179.5,105.5,179.8,105.6,180,106.1z"/>
<path class="st9" d="M200,131c-0.4,0.7-0.9,1.4-1.9,1.5c-1.3-0.3-1.5-1.6-2.1-2.5C197.4,130.3,198.7,130.7,200,131z"/>
<path class="st17" d="M272,176.9c2.9,2.9,5.7,5.8,6.6,10c0.5,2.3,1.9,4.1,4.4,5c0,3.7,0,7.3,0,11c-4.4-1.1-4.8-4.3-4-8
	c-0.5-6.7-5.4-11.3-8-17C270.6,176.9,271.1,176.7,272,176.9z"/>
<path class="st18" d="M272,176.9c-0.3,0.3-0.7,0.7-1,1c-2-2.3-3.7-4.8-5.5-8.7C268.9,172,270.8,174.2,272,176.9z"/>
<path class="st19" d="M216.9,158c0,3.7-1.7,7.4,0.3,11.1c-0.2,0.6-0.3,1.2-0.6,2.1c-2.4-1.2-3.3-3.6-4.9-5.2
	c-1.6-2.4-3.1-4.8-4.7-7.2c-1.8-0.7-2.5-2.1-2.4-4c3.4-0.3,5.6-4.5,9.2-3.3C216.3,153.4,215.5,156.2,216.9,158z"/>
<path class="st20" d="M220,143.8c1,0.2,2,0.3,2.9,0.5c-1.4,1.3-2.9,2.7-4.4,4.1c-1.1,3-1.7,6.2-1.6,9.6c-2.1-1.1-2.4-3.4-3.5-5.3
	c-3.2-0.3-4.2,1.5-4.1,4.9c-1.4-1.7-2.3-3.9-4.6-2.6c-0.3-0.3-0.6-0.7-0.8-1c0.7-3.2,4.4-4.8,4.3-8.3c2.1-1,4.1-1.9,5.8-3.2
	C216.2,142.4,218.2,142.7,220,143.8z"/>
<path class="st21" d="M220.1,154.1c-0.1,2.3-0.2,4.5-0.4,6.8c-1.4-2.2-0.5-4.7-0.7-7.1c0-0.1,0-0.4,0.1-0.4
	C219.9,153.1,219.9,153.8,220.1,154.1z"/>
<path class="st22" d="M199,109c0.6-0.5,1.2-1.1,2.6-2.2c1.1,8.7-0.2,16.4-1.6,24.2c-0.2,0.1-0.5,0.3-0.7,0.4
	c-1.6,0.1-3.3,0.1-4.6-1.1c-1.6-2.7-1.1-5.9,0-8.2C196.9,117.9,197.8,113.5,199,109z"/>
<path class="st23" d="M182.3,109.4c1,7.2-5.2,8.3-9,11.2c-7.9-4-8.1-4.5-5.9-10.9c1.7-1,3.5-2,5.4-3.1
	C175.9,107.6,179,108.5,182.3,109.4z"/>
<path class="st24" d="M174.4,117.8c-3.7,0.1-5.7-1.4-5.1-4.3c1-4.5,4.7-3.3,8-3.3C177.7,113.5,175,115.1,174.4,117.8z"/>
<path class="st25" d="M283,185c-2.9-4.1-7.8-6.6-9-12c1.4,1.3,3.6,1.1,4.7,2.9c1.8-0.7,2.4,0.7,2.7,1.9c0.3,1.5,0.7,2.9,1.6,4.1
	C283,183,283,184,283,185z"/>
<path class="st26" d="M211,143.1c-1.3,0.6-2.6,1.2-3.6,1.6c-1.6,3-3,5.6-4.4,8.2c-0.6-0.4-1.3-0.7-1.9-1.1c-2.2-3,1.3-5,1.3-7.6
	c1.6-2.4,3.6-3.8,6.6-3.8C210.2,140.9,210.9,141.8,211,143.1z"/>
<path class="st27" d="M179.8,143.2c-2.3-0.4-4.4-1.5-6.8-1.1c-0.6,0.5-1.2,0.6-2,0.5c-2.1-0.8-2-3.2-3.3-4.4c-1.3-0.6-2,0-2.6,0.9
	c-0.3,0.9-0.2,1.8-0.4,2.6c-0.4,3.8-1.7,6.6-6.3,5.7c-1.6-1.1-2.3-2.8-1.7-4.3c2-4.8-0.2-9.9,1.3-14.7c0.6-1.8-0.6-3.5-1.4-5.1
	c-1.8-3.4-2.6-7.2-3-10.9c-0.9-8.3,5.7-13.1,13.8-10.2c1.7,1.9,0.3,2.9-1.2,3.1c-3.2,0.5-4.7,2.9-6.5,4.9c-0.4,2.2-0.3,4.4,0,6.7
	c3.2,4.2,7,8.4,5.8,14.2c1.9,1.4,3.1,0.4,4.3-0.5c2.1-1.2,3.4-4,6.4-3.6c1.7,5.9,6.1,8.2,11.8,8.9c2.5,0.3,4.9,0.9,6.3,3.4
	c-0.2,1.5-1.3,2-2.5,2.3c-0.5,0-1,0-1.5,0.1c-0.7,0-1.4,0-2.1,0c-2,0.5-4.2-1.7-6.1,0.4C181.5,142.6,180.7,143,179.8,143.2z"/>
<path class="st28" d="M174.2,103.9c-2.5,0-4.8,0.6-7,1.8c-6.9,3.6-8.1,7.8-3.7,14.3c1.3,1.9,2.8,3.7,4.1,5.5
	c0.7,1.5-0.6,2.9-0.3,4.2c0.8,1.7,2.3,2,3.7,2.3c-1.4,1.2-3.2,1.7-4.9,1.8c-1.7-0.6-3-2.2-2.6-3.4c1.6-4.2-0.9-7-2.9-9.8
	c-5.3-7.8-2.9-14.4,6.1-16.7c0.5-0.1,0.8-0.5,1.2-0.8c1.7,0,3.3,0,5,0C173.9,102.7,174.2,103.1,174.2,103.9z"/>
<path class="st29" d="M183,118.9c2.4-4.1,5.4-7.9,6-12.9c0.3-0.4,0.7-0.4,1-0.1l0,0.1c1.2,1,2.9,1.5,3.3,3.4c2-1.1,3-3.8,5.8-3.4
	c0,0.6-0.1,1.2-0.1,1.9c-0.5,4.6,0,9.4-3.8,13.3c-1.8,1.8,0.1,5.2-1.5,7.6c-1.8,1.6-2.9-0.3-4.1-0.6c-1.7-2.6-0.6-5.2-1.3-7.7
	C186.9,119,184.3,120.8,183,118.9z"/>
<path class="st29" d="M184,105.9c0-0.3,0-0.6,0-1c0,0,0,0,0,0c1.7-1.8,3.4-1,5,0c0,0.3,0,0.7-0.1,1C187.3,106,185.6,105.9,184,105.9
	z"/>
<path class="st30" d="M191,69c1.9-2-0.2-5.6,3-7.2c1.3,4.7,3.2,9.2-1.3,13.1c-0.4,0.3,0.6,0.9,1.3,1.1c0.2,3.3-1.7,4.7-4.3,5.3
	c-2-0.7-2.4-2.1-2.7-3.6C188.9,75,188.5,71.4,191,69z"/>
<path class="st31" d="M187.1,82.8c-0.3-1.7-0.1-3.3,0.9-4.8c0.5,0.6,1,1.2,1.5,1.9c1.8-0.9,3.5-2.1,4.5-4c1.7,3,1.2,6,0,9
	c-2,1.4-3.3-0.7-5-0.9C188.4,83.6,187.8,83.2,187.1,82.8z"/>
<path class="st32" d="M186,129c-0.9-2-4-3.3-2.3-6.5c4.7-1,3.1,3.8,4.9,5.1C188.1,129.2,186.9,128.8,186,129
	C186,129,186,129,186,129z"/>
<path class="st33" d="M275,207c-2-1.2-1.7-4.1-3.9-5.1c0,0,0,0,0,0c-1.4-4.6-5.5-8-6-13c0-4.7-5.5-6.4-6.1-10.9
	c-0.6-0.8-0.6-1.6,0.2-2.3c5.3,6.2,9,13.3,11.8,21c0.6,1.7,1.9,3,2.9,4.6C276.2,202.8,276.8,204.6,275,207z"/>
<path class="st34" d="M217,126c-1,3-2,6-3,9c-0.4,0.3-0.8,0.3-1.2,0c0.3-5.4-1.2-10.1-5.4-13.7c-0.2-0.7-0.2-1.4,0.1-2.1
	c0.3-0.4,0.6-0.7,1.1-0.9c0.5-0.1,0.9-0.1,1.4-0.1c0.7,0.1,1.3,0.4,1.9,0.8c1.1,1.1,2.8,0.7,3.9,1.6
	C217.3,122.2,216.7,124.2,217,126z"/>
<path class="st35" d="M209.1,56c0,8.9-0.1,17.9-0.1,26.8c0,2,0.3,4.1-2,5.2c-1,0.2-1.4-0.4-1.8-1.1c1-7.7,1.8-15.4,1.4-23.2
	c-0.2-3.5-0.3-7-4.3-8.6c-0.2,0-0.3,0-0.5-0.1c1-1.2,1.4-3,3.1-3.8C208.2,51,208.7,53.4,209.1,56z"/>
<path class="st36" d="M165.9,161.6c-2,2-4.1,3.5-6.7,0.6C161.2,158.4,163.8,161.5,165.9,161.6z"/>
<path class="st37" d="M166.1,144.8c0.3,0.1,0.6,0.1,0.9,0.2c2.3,1.3,1.5,2.9,0.6,4.6c-2.8,1.6-5.8,1.2-8.6,1.4
	c-1.5-0.9-2.4-2-3.4-3.4c0-2.1-0.6-4.4,0.4-6.7l0,0c-0.5-6.2-0.2-12.3-2.6-18.4c-2.2-5.5-2.1-11.7-1.6-17.7c0.3-3.7,2.8-6.1,6.4-6.8
	c2.1-0.4,4.1-1.2,6.2-1.5c1.5-0.1,2.8,0.3,4.1,1c1.7,1.8,5.9,1.8,4.2,6c-1.7,1-3.3,0.8-4.6-0.7c-2.5,0-5,0-7.1-0.7
	c-7.4,5.9-7.5,11-0.6,24.8c-1.3,6.7-1.9,13.3-1.2,19.9C162.2,149,163.8,145.7,166.1,144.8z"/>
<path class="st38" d="M166.1,144.8c-0.1,1.5-0.2,3-2,3.9c-1.6-0.2-3.9,1-5-1.8c3.1-0.8,4.5-2.8,4-6.1
	C164.1,142.2,165.1,143.5,166.1,144.8z"/>
<path class="st39" d="M171.1,141.7c-2.9-0.8-4.5-4.3-8-3.6c1.2-2.6,3.3-2.2,5.5-1.7C170.2,137.8,170.4,139.9,171.1,141.7z"/>
<path class="st40" d="M199.1,106c-3.3,2-4.2,6-7.4,9.2c-0.3-3.6,0.6-6.8-1.7-9.2c3.4,0.3,6.7-0.5,9.9-1.1
	C199.6,105.3,199.4,105.7,199.1,106z"/>
<path class="st41" d="M190.8,93.1c2.1,3.2,0.1,6.6,0.2,9.9c-1,0.8-1,1.9-1,3c-0.3,0-0.7,0.1-1,0.1c0,0,0,0,0,0
	c-0.3-0.3-0.6-0.7-0.9-1c-0.7-0.7-0.9-1.5-0.9-2.5c1.5-3.2-1.2-5.6-1.6-8.4c0.1-1.4-0.6-2.9,0.2-4.2c1.9-1.3,3.3-0.3,4.6,1.1
	C190.8,91.6,191,92.3,190.8,93.1z"/>
<path class="st42" d="M201,91.9c-0.7-0.4-1.3-0.7-2-1.1c-2.9-0.4-4.8-2.1-6-4.6c-0.2-0.4-0.2-0.9-0.3-1.4c-0.2-2.5,1.4-5.2-0.5-7.6
	c-2.5-3.2,0.7-5.4,1.5-8.4c0.1-1-0.8-2.1-0.8-2.7c0.2,1,0,2.5-1.1,3.8c-1.7,1.5-2.1,4.1-4.6,5.2c-3.5-3.6-1.1-7.6-0.7-11.4
	c0-1.8,1.7-2.5,2.4-3.9c0.3-0.7,0.7-1.3,1-2c0.3,0.6,0.6,1.1,1.1,2.1c1.1-1.2,2.1-2.2,3.4-3.5c1,0.2,2.2,0.4,3.7,0.7
	c0,2.3,0,4.5,0,6.6c1.1,0.3,1.5-0.3,1.8-0.9c0.9-0.5,0.3-3.2,2.5-1.8c1.9,3.7-0.1,7.2-0.7,10.7c-1.8,4.6-1.6,9.3-0.8,13.8
	c1.7,1.5,3.6,0.1,5.1,1.3c0.3,0.3,0.6,0.7,1,1C205.6,90.2,204.1,92.2,201,91.9z"/>
<path class="st35" d="M202.1,59c0,0.7-0.1,1.3-0.1,2c-0.6,0.7-1.3,1.3-1.9,2C199.9,61.3,200.4,59.8,202.1,59z"/>
<path class="st43" d="M196.1,133.9c-2.3-0.5-2.6-3.7-5.1-3.9c-1.6-0.1-3.1-0.2-4.7-0.3c-0.4-0.2-0.5-0.3-0.4-0.6
	c0.1-0.2,0.2-0.4,0.3-0.4c0.8-1.1,0.2-2.2-0.4-3.3c0.1,1.3,1.3,2.5,0,3.6c-1.6,0.5-2.8-0.4-3.9-0.7c-1.6-1.5-1.7-3.9-3.8-4.6
	c1.3-2,3.1-3.6,5-5c2.5,0.1,4.4-2.6,7.2-1.4c2.7,3.3-3.7,9.1,2.9,11.4C194.3,130.5,195.8,131.8,196.1,133.9z"/>
<path class="st44" d="M180,106.1c-0.3-0.1-0.6-0.2-0.9-0.2c-0.1-0.3-0.1-0.5-0.2-0.8c1.7-0.1,3.4-0.1,5.1-0.2
	c0.3,0.2,0.3,0.4,0.3,0.6c-0.1,0.2-0.2,0.3-0.3,0.3C182.6,106,181.3,106,180,106.1z"/>
<path class="st44" d="M187.1,101.8c0.3,0.4,0.6,0.7,1,1.1c0.3,0.7,0.7,1.4,1,2.1c-1.7,0-3.4,0-5,0c-1.6-1.5-4.6-1-5-4
	C181.9,98.8,184.4,101.5,187.1,101.8z"/>
<path class="st45" d="M283,208c-1-1.3-2-2.7-3-4c-2.4-0.1-2.1-3.2-4.1-3.8c-1.1-1.2-1.9-2.5-1-4.2c-0.3-1.3-0.6-2.6-0.9-3.9
	c1.8-1.4,2.2,0.2,2.8,1.3c2.3,3.7,3.6,8,6.1,11.6C283,206,283,207,283,208z"/>
<path class="st46" d="M283,205c-3-2.1-3.6-5.8-5.3-8.7c-1-1.6-1-4-3.6-4.2c0-1.3,0-2.5,0-4.1c3.2,1.5,2.7,5.2,4.9,7
	c1.2,2.7,1.8,5.8,4,8C283,203.6,283,204.3,283,205z"/>
<path class="st47" d="M273,208c-0.6-2-2.7-3.6-1.9-6.1c3.4-0.3,3.6,2.5,4.5,4.6c0,0.5-0.1,0.9-0.4,1.4c-0.5,0.1-0.9,0.2-1.4,0.3
	C273.6,208.1,273.3,208,273,208z"/>
<path class="st48" d="M279,205c-1.1-1.5-2.1-3.1-2.1-5c2.4,0.2,2,2.6,3.1,3.9C279.7,204.3,279.4,204.7,279,205z"/>
<path class="st49" d="M264,192c0.3,0,0.6,0,0.9,0c4,1.7,4.6,6,6.8,9.1c0.3,0.4,0.5,0.8,0.6,1.2c-0.2,1.9,2.5,3.5,0.7,5.7
	c-0.6-0.1-1.7-0.1-1.9-0.4C268.8,202.3,265.2,197.7,264,192z"/>
<path class="st47" d="M265.1,188.9c1.6,4.5,5.6,7.9,6,13c-2-3.3-4.1-6.6-6.1-9.9C265,190.9,265,189.9,265.1,188.9z"/>
</svg>
