<?xml version="1.0" encoding="utf-8"?>
<!-- Generator: Adobe Illustrator 26.1.0, SVG Export Plug-In . SVG Version: 6.00 Build 0)  -->
<svg version="1.1" id="Layer_1" xmlns="http://www.w3.org/2000/svg" xmlns:xlink="http://www.w3.org/1999/xlink" x="0px" y="0px"
	 viewBox="0 0 283 415" style="enable-background:new 0 0 283 415;" xml:space="preserve">
<style type="text/css">
	.st0{fill:#030406;}
</style>
<path class="st0" d="M283,181.9c0-2,0-3.9,0-5.9c-1.4-0.3-2.8-2.2-4.3-0.1c-6.2-2.8-8.4-7.7-12.2-13c-1.1-0.7-2.2-1.3-3.3-1.9
	c-0.1,0.1-0.2,0.1-0.3,0.2c0-0.1,0.1-0.1,0.1-0.2c-5.4-5.4-14.4-9.8-22-10.2c-6.2-2.1-12.8-9.6-19.6-6.8c-2.5-0.5-4.6-1.9-7.4-1.5
	c-0.1,0.1-0.2,0.1-0.3,0.2c-0.8-0.7-1.9-1.3-3.1-0.9c-0.2-0.4-0.6-0.8-1-1.1c0.7-1.1,1.4-2.2,2.2-3.3c2.2,3.9,6.7-0.5,6.8-3.6
	c3.8-2.3,10-3.7,9-10.1c-0.3-0.3-0.4-0.6-0.6-0.9c0,0,0,0,0,0c0.1,0.2,0.2,0.3,0.3,0.5c3.2,0.8,4.4-1.1,5.2-3.7
	c3.9,2.8,2.4-3.2,3.5-4.7c0-3,4.4-4.3,3-7.9c3.4-1.2,2-5.1,3.9-7.1c-0.1-1.3,0.1-2.9,0.2-4.3c6.2-2.3,9.3-11.8,6.9-17.6
	c0.9-0.4,1.9-0.8,1.8-2.1c0,0,0.1,0,0.1,0.1c3.2-3.5,1.7-11.4,0.2-15.1c0,0,0,0-0.1,0.1c-3.1-1.7-3.6-4.8-4.1-8c-0.7,0-1.2,0-1.8,0
	c-0.4-0.7-0.7-1.4-1.1-2.1c0.3-0.3,0.5-0.5,0.8-0.8c0.2-1.3-0.5-1.9-1.7-2.2L244,48c0,0,0,0-0.1-0.1c0.1,0,0.1-0.1,0.2-0.1
	c1.4-2.2,0.5-4.1-0.9-6l-0.3,0.1c-0.7-0.9-1.2-1.8-1.8-2.8h0c-0.5-2.8-2.2-4.9-4.1-6.9c0,0,0,0,0-0.1c-5.6-10.3-16.6-16.6-28.1-22.3
	c-16.5-8.2-55-8.2-71,2.2c-3.6,1.4-8.8,5.8-10.9,9c-3.2,3.6-5.7,7.7-8,12c-2.6,3.5-8.5,9.6-8,15c0,0,0-0.1,0.1-0.1
	c-1.3,3.7,0.4,7.4,0.1,11.1c0,0,0,0,0,0c-1.6,10.8-11.1,19.3-8.6,31.4c-0.1,5.7-10.4,6.2-10.3,13.1c-3.1-0.5-8.3-1.5-12.5-1.5
	c-4.7-0.1-10.8,0.5-16.1,0c-13.5,0-30-0.7-42.5,6c0,0,0,0.1,0,0.1c-3.5,0.7-6,3.6-9,5.3c-0.3-0.1-0.5-0.1-0.8-0.1
	C-3.4,119.4,0.4,136.3,0,149c0,0,0.1,0,0.1,0c0.1,11.7,0,34.9-0.1,34.9c0,77,0,152.6,0,231.1c4.8,0.1,8-0.1,11.1,0c0,0,0-0.1,0-0.1
	c0,0,16.6,0,24.9,0c0,0,84.5,0.1,107.8,0.1c0,0,0.1,0.1,0.1,0.1c12,0,24,0,36,0c0.1-0.1,0.1-0.1,0.2-0.2c0.6,0,1.1,0,1.6,0
	c0.1,0.1,0.1,0.1,0.2,0.2c8,0,16,0,24,0c0.1-0.1,0.1-0.1,0.2-0.2c14.2,0,28.5,0,42.9-0.1c0,0,0,0.1,0,0.1c11.3,0,22.7,0,34-0.1
	c0-12.1,0.1-24.6-0.1-36.7c-12.4-10.5-26.6-21.4-33.9-35.2c-1.7-0.6-3.4-1.2-5.1-1.8c-11.9-13.6-28.8-26.6-45.2-31.4
	c0.2-5.5,1.3-11.6-3.6-15.6c0-5.3,0-10.7,0-16c1.4-15.7-1.3-32.4,3.4-48c5.6-4.6,12.2-6,16.1-11.8c5.6-0.9,13.2-4.8,15.8-10.1
	c2.5,0.1,4.6-1.6,4.8-4.2c1.6-0.1,2.6-1.3,3.8-2.1c0,0.1,0,0.1,0,0.2c2.5,1.4,5.1,2.4,8,2.1c0,0,0.1-0.1,0.1-0.1c0,0,0,0,0,0
	c3.1,1,5.4,4.1,9,3.9c0,0-0.1-0.1-0.1-0.2c7.5,2.3,9.7-7.5,2.8-9.7c-0.8-2.2-3.1-2.1-4.7-3.2c-0.4-1.7-1.5-2.7-3.2-2.8
	c0.1,0,0.1,0,0.2-0.1c-0.7-0.6-1.3-1.4-2-2c0,0-0.1,0-0.1,0c-2.9-7,3.5-9.9,9.1-5.8c0.1-0.1,0.1-0.1,0.2-0.2c0.3,0,0.6,0.1,0.8-0.1
	c0.1,0.1,0.2,0.2,0.3,0.4c-0.1-0.1-0.2-0.1-0.3-0.2c0.2,1.8,1.2,2.8,3,3c-0.1-0.1-0.2-0.2-0.2-0.4c0.1,0.1,0.1,0.1,0.2,0.2
	c0.9,1.7,1.1,3.8,2.3,5.2c-0.1,0-0.2,0-0.3,0c2.2,5.3,4.1,14.5,9.8,16.2c0.5-0.1,0.9-0.2,1.4-0.3c0-0.1,0.1-0.1,0.1-0.1
	c0,0.1,0,0.1,0,0.1c1.2,0,2.4,0,3.6,0c-0.1-1,0.2-2.1,0-3c0,0,0.1,0.1,0.1,0.1c0.4-0.3,0.7-0.6,0.9-1c0,0,0,0,0.1,0c1,1.3,2,2.7,3,4
	c-0.1-1,0.1-2.2-0.2-3.2c0.1,0.1,0.1,0.1,0.2,0.2c0-0.7,0-1.4,0-2c0,0-0.1-0.1-0.1-0.1c0,0,0.1,0,0.1,0
	C283,195.9,283,188.9,283,181.9z"/>
</svg>
