<?xml version="1.0" encoding="utf-8"?>
<!-- Generator: Adobe Illustrator 26.1.0, SVG Export Plug-In . SVG Version: 6.00 Build 0)  -->
<svg version="1.1" id="Layer_1" xmlns="http://www.w3.org/2000/svg" xmlns:xlink="http://www.w3.org/1999/xlink" x="0px" y="0px"
	 viewBox="0 0 283 415" style="enable-background:new 0 0 283 415;" xml:space="preserve">
<style type="text/css">
	.st0{fill:#2A2B30;}
	.st1{fill:#3B3B46;}
	.st2{fill:#6B6A76;}
	.st3{fill:#5C5C66;}
	.st4{fill:#48494F;}
	.st5{fill:#303138;}
	.st6{fill:#414147;}
	.st7{fill:#63646C;}
	.st8{fill:#4A4B50;}
	.st9{fill:#616267;}
	.st10{fill:#393E45;}
	.st11{fill:#64646D;}
	.st12{fill:#2A2F3C;}
	.st13{fill:#403E49;}
	.st14{fill:#545564;}
	.st15{fill:#5C5C65;}
	.st16{fill:#5B5B63;}
	.st17{fill:#333940;}
	.st18{fill:#333540;}
	.st19{fill:#42445A;}
	.st20{fill:#4B4D5F;}
	.st21{fill:#53566D;}
	.st22{fill:#0B0C10;}
	.st23{fill:#0B0C0F;}
	.st24{fill:#0D0E12;}
	.st25{fill:#08090B;}
	.st26{fill:#0A0B0F;}
	.st27{fill:#101116;}
	.st28{fill:#060709;}
	.st29{fill:#07080A;}
</style>
<path class="st0" d="M187,212c0.7-0.3,1.3-0.7,2-1c1-0.3,2-0.7,3-1c2.6,2.1,5.6,4,2.9,8c-0.9-0.6-2.1,0.3-2.9-0.5
	c-0.4-0.5-0.8-0.5-1.2-0.1c-0.4,0-0.7-0.1-0.9-0.4c-0.7-0.2-1.3-0.9-1.9,0.1c-0.5,0.1-1,0-1.4-0.3c-0.5-0.6-0.8-1.3-0.8-2.1
	C185.7,213.5,186.3,212.7,187,212z"/>
<path class="st1" d="M171.2,224.9c-0.1-0.7-0.1-1.3-0.2-2c0.8-3.1,2.9-4.5,5.9-4.8l0.1-0.4c0.7-0.2,1.4-0.5,2.1-0.1
	c1.4,1.5,2.1,3.3,2.5,5.2c-0.1,1.3-0.8,2.3-1.8,3.1l-0.4,0l-0.4,0c-0.6-0.7-1.4-0.8-2.2-0.9c-0.7-0.2-1.5-0.3-2.2,0.1
	c-0.4,0.2-0.7,0.3-1.1,0.4C172.7,225.6,172,225.2,171.2,224.9z"/>
<path class="st2" d="M181.1,222.8c-0.6-0.7-1.3-1.4-1.9-2.1c-0.1-1-0.2-2-0.2-2.9c-0.7-1.6-0.1-2.3,1.5-2.4c1.9,0.5,1.6,2.6,2.9,3.6
	c1.7,0.6,2-1.2,3.1-1.8c0.2-0.1,0.4-0.2,0.6-0.3c0.3-0.1,0.7-0.1,1,0c1,1.6,0.4,3.3,0.1,5C186.1,224.9,183.8,225.8,181.1,222.8z"/>
<path class="st3" d="M176.9,218.1c-2,1.5-4.5,2.5-5.9,4.8c-0.2-1.5,0.4-2.7,1-4C173.6,218.1,175.1,216.9,176.9,218.1z"/>
<path class="st4" d="M171.2,224.9c0.9-0.6,1.7-0.5,2.6,0.1c0.9-0.1,1.8-0.1,2.4,0.8c0.4,1.1-0.4,1.6-1.2,2.1
	C173.1,227.8,171.9,226.7,171.2,224.9z"/>
<path class="st5" d="M176.1,226.1c-0.8-0.4-1.5-0.7-2.3-1.1c0,0,0.2-0.1,0.2-0.1c0.7-1,1.4-2.1,2.8-1c1.2,0.1,2,0.8,2.2,2
	c0,0-0.3,0-0.3,0l-0.3,0C177.7,226.6,176.9,226.6,176.1,226.1z"/>
<path class="st6" d="M192,216.8c1.1,0.1,2.2,0.1,3,1.1c-2,1.2-3.7,1.3-5.1-1c0.4,0,0.8-0.1,1.2-0.1
	C191.4,216.5,191.7,216.5,192,216.8z"/>
<path class="st7" d="M176.1,226.1c0.8-0.1,1.5-0.1,2.3-0.2c-0.5,1.7-1.7,2.2-3.4,2C175.4,227.3,175.7,226.7,176.1,226.1z"/>
<path class="st8" d="M94,182c-1.4-0.9-2.7-2.1-4.5-2.1c0-0.3,0-0.6,0-0.9c2.2-0.4,4.2,0,5.6,1.9C95.3,181.8,95,182.2,94,182z"/>
<path class="st9" d="M88,183.8c0,0.7,0,1.5,0,2.2c-0.7,0.6-1.4,1.3-2,1.9c-0.4-0.3-0.7-0.6-1.1-1C85.7,185.7,85.9,183.7,88,183.8z"
	/>
<path class="st10" d="M103,192c0,0.3,0,0.7,0,1c-2.9-0.9-5.7-2-8-4c0-0.6,0.6-0.7,1-1C98.3,189.3,100.7,190.7,103,192z"/>
<path class="st11" d="M96,188c-0.3,0.3-0.7,0.7-1,1c-1.6-0.7-3.2-1.4-4.8-2.1c-0.2-1-0.1-2.1,1.3-1.5C93.1,186,94.5,187.1,96,188z"
	/>
<path class="st12" d="M102,136c-2.4-5.1-1.1-10.8-3-16c0-1.6,0.4-3.1,2.5-2.8c2.2,0.3,3.7,1.3,3.5,3.9c-2.1,2.8,1.1,4.9,1,7.5
	c0,0.5-0.1,1-0.2,1.4c0.3,2.8,1.6,5.3,2,8c0.3,1.9,0.4,3.5-1.7,4.6C103.3,141.3,102.9,138.4,102,136z"/>
<path class="st13" d="M118,171c-0.3-0.3-0.6-0.7-1-1c-1.3-7.1-3.6-14-6.2-20.7c-2.6-6.6-4.3-13.4-5.9-20.2l0.2-0.2
	c0.9-0.9-0.3-2.5,1.1-3.1c1.3,2.6,0.7,5.9,2.8,8.2c4.7,7.3,8.9,14.8,11,23.3c-1.1,2.7,0.2,5.4-0.2,8.1
	C119.2,167.3,120,169.6,118,171z"/>
<path class="st14" d="M106.2,125.7c-0.3,1.1-0.1,2.3-1.1,3.2c0.3-2.6-4.4-5.2-0.1-7.9C105.4,122.6,105.8,124.2,106.2,125.7z"/>
<path class="st15" d="M181.2,214.8c2.2-2,3.9,0,5.7,0.7c0,0.5,0,1,0.1,1.5c0,0,0,0,0,0C184.4,218.2,182.3,217.7,181.2,214.8z"/>
<path class="st16" d="M139,178c1-0.4,2-0.7,3-1.1c0.2,0.3,0.4,0.6,0.7,0.8c-2.6,1.7-5.1,3.4-7.7,5.2c-1.9-0.9-2.2-2.2-1.2-3.8
	C135.4,177.8,137.5,179.1,139,178z"/>
<path class="st17" d="M99,183c-0.4,1.9,3.1,1.8,2,4c-1.9-1.1-3.9-2.1-5.8-3.2c-0.4-0.6-0.7-1.3-1.1-1.9c0.4-0.4,0.7-0.7,1.1-1.1
	C96.7,181,97.7,182.3,99,183z"/>
<path class="st18" d="M139,178c-1.2,1.4-3.2,0.6-4.5,1.7c-0.7,1.2,0.1,2.2,0.5,3.2c-1.3,1-2.6,2.1-3.9,3.1
	c-3.7,2.9-7.9,1.8-11.7,1.8c-1.6-1.4-0.3-2.7-0.3-3.9c1-0.6,1.8-1.2,2.5-2.1c2.9-1.5,4.3-5.5,8.4-4.9C132.8,179,136,177.6,139,178z"
	/>
<path class="st19" d="M122,183c-0.8,0.9-1.9,0.9-3,0.9c0.9-4.4-1.3-8.6-1.1-12.9c0-2,0-4,0-6c1.4-0.6,2.1,0.4,2.9,1.3
	c0.5,0.8,0.8,1.6,1,2.5c-0.2,1.6,0.4,2.9,1.3,4.2C124.6,176.5,123.1,179.7,122,183z"/>
<path class="st20" d="M120,167c-0.7-0.7-1.3-1.3-2-2c0.3-2.6-0.8-5.4,0.9-7.9c1.4,2.3,2.7,4.7,4.1,7c0,0.6,0.1,1.2,0.1,1.9
	C122.2,166.8,121.3,167.6,120,167z"/>
<path class="st21" d="M120,167c1-0.3,2-0.7,3-1c1.3,4.3,5.6,6.7,7,11c-2.8,1.9-4.7,4.8-7.9,6.1c-2.4-3.3,1.4-6.7,0-10.1
	c-0.1-1.4-1.6-2.4-1-4C120.7,168.3,120.3,167.6,120,167z"/>
<path class="st20" d="M121,169c0.5,0.6,1,1.2,1.7,1.9c-0.2,0.6-0.5,1.4-0.7,2.1C120.4,171.9,119.3,170.8,121,169z"/>
<path class="st22" d="M283,390.9c-2-0.1-3-1.5-3.5-3.1c-1.3-4.6-4.1-5.7-8.4-4.2c-0.8,0.3-1.9,0-3.2-0.1c-1.8-8.4-9-8.7-15.3-9.9
	c-4.1-4.5-7.3-9.8-11.3-14.4c-1.4,4.4-1.9,8.4-4.6,13.1c-1.3-7.1-4.8-11.7-10-15.3c-2.4-1.7-1-5.7-4.1-7.1c-8.1-0.2-8.1-0.2-15-14.2
	c-1.1-1.1-2.6,0-2.8-0.1c-7.5-4.2-9.4-11.3-13.3-17.1c-0.7-0.2-1.5-0.4-2.3-0.7c-10-3-11.2-4.7-11.2-15.2c0-5.1,0.9-10.4-2.6-14.4
	c0.4-2.3,2.5-2.7,3.1-4.2c-2-4.8-8.6-8.3-13.5-7c-1.6-1.9-0.3-3.9-0.4-5.9c0.1-1.8,1.2-3.3,1.8-4.9c0-0.4,0-0.8-0.1-1.2
	c-1.5-2.2-3.8-1.1-5.5-0.8c-2.2,0.3-4.3,0.6-6.4,0.3c-5-0.5-9.1,1.1-13,4c-1.8,2.3-1,5.1-1.4,7.7c-0.3,1.9,0.3,4.6-2.9,4.9
	c-0.2-4.3,0.6-8.7-0.5-12.7c-1.7-1.6-3.1-0.3-4.5-0.3c-0.9-3.4,3.2-3,3.9-5.2c2.7-3,6.1-4.6,10-5.9c4.8-1.6,8.3-5.7,12.8-8
	c0.7-0.3,1.4-0.5,2.1-0.5c4.5,0.4,8.8-0.1,13-2.2c3.6-1.8,7.5-0.2,11.5,0.8c0.5,3.4,4.4,3.2,6.6,6.3c-3.6,2.2-6.1,5.8-10.4,5.4
	c2.5,1.1,7.8-1.4,8,4.6c-0.9,2.3-3,2.3-4.5,3.2c0.7,1.5,2.9,1.7,3.1,3.4c0.5,2-1.4,2.7-1.8,4c0.2,0.7,0.5,1,0.9,1.3
	c3.9,2.6,5.5,6.3,5.8,11c0.2,3.4,0.5,7,3.6,9.4c2.1,3.1,2.6,6.5,2.2,10.1c-0.3,1-0.4,2.1-0.4,3.1c0.8,4,1.8,8.1,1.6,12
	c2.8,2.1,6,2.2,8.4,4.1c1,0.8,2.4,1.5,2.9,2.7c3,8.4,11.3,11.7,16.8,17.6c0.9,1,1.8,2.2,3.1,2.4c6,0.6,10.8,4.3,16.3,5.7
	c6.4,1.7,11,5,14.8,10.1c0.7,0.9,1.4,1.9,2.5,2.7c2.2,0.5,4.7,0.8,6.6,2.6c3,4.1,8.3,5.3,11.4,9.3C283,382.2,283,386.6,283,390.9z"
	/>
<path class="st23" d="M155,312.9c0,0.7,0,1.3,0,2c-1.3,0-2.7-0.1-3.5-1.4c-3.1-5-7.7-8-12.7-8.9c-4.8-4.1-3.5-8.6-2.6-12.9
	c0.8-3.6,0.8-7.2,0.8-10.8c2.3-4.5-0.3-9.6,2.2-14.2c7.3-5.8,16.6-3.1,25.1-4.7c2.3-0.4,5.6-0.3,3.6,3.9c-0.7,1.7-1.3,3.3-2,5
	c-4.6,2-5.7-2.6-8.3-4.4c-1.8-0.7-3.5-0.7-5.6,0.1c-1.9,2.2-3.8,4.7-6.6,6.1c-1.6,7.7,0,14.9,2,22.1c1.3,1.5,3.5,1.4,5,3.5
	c1,2.5-0.1,7,4.5,8.4c0.3,0.4,0.3,0.9,0,1.3c-0.3,0.7-0.7,1.3-1,2C157.1,311.4,156.3,312.3,155,312.9z"/>
<path class="st24" d="M157,306.9c-0.8,0.5-1.7,1-2.7,1.5c-2.7-2.8-4.3-5.8-2.8-9.5c-1.6-1.7-3.8-0.4-5.7-2.1c-2-8.1-4-16.7-2.4-25.2
	c1.3-2,3.4-1.3,4.9-2.9c0.4-1,1-2.3,1.6-3.6c3.5-1.6,6.8-1.6,10.3,0c0.5,1.3,1.1,2.7,1.7,4c1.4,0.6,2.8,1.2,4.2,1.8
	c1.8,2.4-1,3.9-1,6c-0.7,3-1.3,6-2,9c0.8,0.8,1.3,1.8,1.3,2.9c-0.7,5.2-2.6,10.1-4.4,15C159.4,305.3,158.7,306.6,157,306.9z"/>
<path class="st24" d="M161,249.9c2.3-1.5,5.1-1.3,7.6-2.1c3.9-1.2,5.4-2.7,6.1-6.7c-0.4-0.9-1.2-1.1-2-1.2c-0.6-0.1-1.3-0.3-2.1-0.5
	c2.2-4.8,8.9-4,10.6-8.5c7.6-1.4,14-4.8,20.2-8.6c2.7-1.6,5.3-3.5,8.1-4.8c1.6-0.8,3.5-2.3,5.5-0.5c-0.8,3.5-3.9,4.8-6.4,6.5
	c-3.2,2.1-6.5,3.9-10.1,6.5c0.9,4.5-1.8,8.3-3,12.6c-0.6,7.6-0.5,15.1,0.3,22.7c-0.2,3.6-0.8,7.1,0.1,10.7c0,0.8-0.3,1.5-0.8,2
	c0,6,0,12,0,18c-3.2-2.3-3.5-6.2-3.7-9.4c-0.3-5.7-2.3-9.6-7.6-11.1c-0.8-1.4-0.8-2.5-0.4-3.4c1.1-1.7,2.8-0.1,4.1-1.5
	c-1.3-2.7-3.5-2.5-5.8-1c-0.5-2.4,0.3-3.8,1.4-5.3c1.7-0.2,3.5-0.5,5.6-0.8c-2.3-7.2-10.5-0.6-13.7-6c3.2-3,5.8-0.1,8.2,0.3
	c2.1-0.9-0.5-2.2-0.2-2.4c2.5-2.5,5.3-0.5,7.4-2.5c-2.2-2-5.3,0-7.4-1.6c-0.5-1.9,2.6-0.9,2-3c-4.7-0.4-9.3-2.3-14.2,0.7
	C167.9,250.9,164.3,249.8,161,249.9z"/>
<path class="st25" d="M206,414.9c0-7.6,0-15.3,0-22.9c-1.6-1.2-2.9-2.1-4.4-3.2c-0.3-1.6-0.7-3.4-1-5c-3.2-1.8-3.2-1.8-8.5-0.1
	c-1.9,1.9-0.4,5.4-3.5,7.3c-2.6,0-5.6,0.6-8.3,2.1c-7.4-6.5,1.9-11.1,1.3-16.6c-2.5-2.8-5.9-0.6-9-2.2c-2.4-1.7-0.6-6.8-4.6-7.1
	c-1.7-2.9,0.3-6.5-3.2-8.5c-3.9,4.9,0.4,11.4-2.9,16.3c-1.3-0.1-1.5-0.9-1.7-1.7c-1.8-9.4-5.4-18.2-8-27.3
	c-2.3-8.1-5.9-16.7-3.6-25.8c0.6-2.4-0.1-4.2-1.8-5.7c-10.9-1.9-11.5-2.5-12.7-14c-0.1-1.3-0.5-2.6-1.1-3.8c-1.7-3.5-2-6.9-0.7-10.6
	c1.9-5-0.5-10.7,2.6-15.2c-0.4-2-1.7-1.9-2.8-2c-0.3-0.6-0.3-1.1,0.2-1.6c4.2-1.7,5.8-0.9,6.2,3.4c0.3,3.1-0.2,6.2,0.5,9.3
	c0.5,5-0.3,10-1.2,14.9c-0.8,4.4,0.5,7.6,4.9,9c5.5,1.8,8.7,6.5,12.5,10.4c1.2,1.9,0.3,3.5-0.7,5c-2.5,3.7-1.9,6.8,1.3,9.7
	c2.5,2.2,4.5,4.9,6.6,7.5c1.5,1.9,3.2,3.3,5.6,3.8c2.3,0.4,4.4,1.5,6.2,3c3.5,3,7.8,3.4,11.9,3.9c1.9-1.7,3-3.4,2.8-5.8
	c-8.2-1-13.4-5.6-13.7-11.9c2.9-1.7,5,1,7.5,1.4c2.1,0.1,3.9-0.9,5.6-1.8c3.9-2,7.1-1.1,9.6,2.4c2.3,3.3,4.9,6.1,8.4,8.3
	c4.6,3,7.5,7.7,9,12.7c1.2,3.7,2.8,6.5,5.6,9c3.3,3,4.9,6.6,3.5,11.1c0.9-1.5,2.1-2.4,4.1-2.3c3.6,2.3,2,6.2,2.8,9.5
	c0.8-1.5,1.1-3.4,3.3-4.2c2.7-0.3,4.3,1.4,5,4c1.2,4.1,0,7.1-4.3,10.7c-0.5,1.3-0.3,2.6,0.5,3.7c4.6,3.3,12.5,1,14.6,8
	c1.2,4.2,2,8.8-1.2,12.8C234.7,414.9,220.3,414.9,206,414.9z"/>
<path class="st26" d="M249,414.9c0-0.2,0-0.3,0-0.5c-0.4-17,3.1-13.6-15.2-18c-1.5-2.4-0.2-5.5-2-7.7c1.7-1.3,3.7-0.2,5.6-2.3
	c0.3-3,2.3-6.9-2.3-9.9c-3.6,2.2-0.9,6.3-3.6,9c-4.9-3.9-0.9-9.7-3.4-14c-4.4,0.8-2.5,5.7-5.3,7.9c-2.3-4.1,1.4-8.1,0-11.9
	c-1.6-4.1-5.4-6.1-8.3-8.9c-1.1-8.8-4.5-15.9-13.3-19.3c-3.5-2.9-3.6-8.8-9.2-10c-3.2,1.5-6.1,4-9.8,4c-2.7-0.6-4.1-3.8-7.2-3.4
	c-0.9-0.6-1.2-1.6-1.2-2.7c0.3-2.8,2.5-4.1,4.2-5.9c-4.3-2.8-5.8-7-6.2-11.7c-0.1-0.7,0.1-1.3,0.2-2c1.3-9.2-0.3-17.2-9.5-21.8
	c-0.9-3.3-0.1-6.2,1.5-9.1c3.9-2.8,7.9-2.2,12.9,1.8c3.7,2.8,3.6,6.1,1.2,9.6c2.4,5.5,2,11.2,1.8,16.8c-0.2,4.9,1.9,8.2,6.3,9.5
	c5.5,1.6,8.8,5.1,11,10c2,4.4,4.9,7.8,9.8,9.3c2.3,0.7,3.2,2.8,4,4.8c1.9,5.1,4.6,9.2,10.8,9.5c1.3,0.1,2.8,0.8,3.3,2.1
	c2.2,6.6,9.5,9.3,11.7,16c1.8-2.4,0.8-5.7,3.6-7.7c3.9-0.8,5.4,2.2,7,5.2c1.5,3,4.3,5,6.2,7.8c6.4,1.7,13.1,2.7,15.9,10.2
	c8.5-2.4,11.1,3.3,13.5,9.2c0,8,0,16,0,24C271.7,414.9,260.3,414.9,249,414.9z"/>
<path class="st27" d="M197,308.9c1.9,0.1,2.4,2.3,4.8,2.9c7.8-2,12.4,5,18.3,8.9c6.6,4.3,12.4,9.7,18.8,14.3c2.3,1.7,3.5,3.9,5,6.1
	c1.7,0.6,3.4,1.2,5.1,1.8c0.6,4.5,2.7,7.8,7.2,9.1c3.6,1.1,3.9,4.8,5.5,7.3c2.6,4.1,7.5,6,9.3,10.6c-2.1-2-4.8-2-7.6-2.3
	c-1.8-2.3-3.7-4.6-5.6-6.9c-0.7-0.9-1.4-2.1-2.4-2.4c-7.5-2.2-14-7.2-21.9-8.3c-2.6-0.3-4.6-1-6.4-3.1c-2.8-3.3-5.6-6.6-10-7.9
	c-1.6-0.5-3.2-1.8-3.6-3.3c-1.8-7.9-7.1-11.6-15-12.3C197.5,318.4,198.5,313.5,197,308.9z"/>
<path class="st28" d="M0,146c0-6.3,0-12.7,0-19c1.9-6.1,5.1-11.1,11.2-13.8c0.9,0.1,1.8,0.3,2,1.1c1.5,6.1,7.2,8.4,11.1,12.4
	c1,1,2.4,1.1,3.6,1.5c1.8,0.5,3.5,1.1,4.4,3.7c-4.4,4.5-10,0.2-15.1,1.6c-2.6,2.4-5.7,4.7-5,9c5.2,4.9,9.8,10.1,15.5,14
	c0.4,1.9-0.9,3.1-1.2,4.8c2,1.2,4.9,1.6,5.1,5c-1.6,4.9-5.9,2.7-9.2,3.3c4.2-0.4,8.3,0.1,12.1,2c2.1,1,4.6,1.7,4.4,4.7
	c-0.1,2.8-2.4,3.7-4.6,4.6c-2.9,1.2-5.9,2.2-7.9,4.3c0.2,1.3,0.9,1.7,1.5,1.6c7-1.1,12.5,4,19.1,4.8c2.7,0.3,3.5,2.6,3.5,5.2
	c0.1,5.3-0.9,10.6-0.6,15.9c0.2,2.3,0,4.7,2.5,6.4c3.3-1.1,4.8-5.6,9.5-5.3c4,5.8,2.9,13.1,4.2,19.9c0.8-2.5,2.2-4.8,2.4-7.5
	c0.2-3.1,2-5.1,5.1-5c3.2,0.1,3.9,2.8,4.1,5.4c0.4,4.5,0,9,0.3,13.5c0,0.8,0.1,1.7,1.2,2.6c1.7-2.6,0-6.5,3.3-8.3
	c3.2-0.7,4.5,1.5,4.9,4.1c1.2,6.5,3.1,12.4,9.4,16.1c3.4,2,2.5,6.2,3.3,9.8c5.7,0.2,9.3,4.1,12.1,7.5c2.8,0.5,4.3-1.1,6.1-1
	c3.4,0.6,6.4-0.5,9.3-2.2c1.5-0.4,2.9-1.2,4.5-1c3.3,0.3,4,2.1,3.5,5.2c-1.7,10.3-2.7,20.6-0.2,30.9c1,4.1,3.1,7.2,7.6,8.3
	c6.5,1.6,7.4,3.1,6.4,9.8c-0.3,2-0.3,4,0.2,6c2.7,11.1,5.4,22.2,9.4,32.9c1,2.6,1.7,5.4,1.9,8.2c-0.3-7.7-0.1-8.2,3.4-11.1
	c3.8,0.7,3.8,4,4.8,6.7c1.1,2.8,3.3,5,4.5,7.5c0.9,0.3,0.1,0.1,0.7,0.4c3,1.4,7.4,0.3,8.4,4.9c0.8,3.6-2.3,6.1-3,9.3
	c-0.2,1-0.1,2,0.8,3c2.4,1.1,4.6-0.5,6.5-0.7c1.7-1.3,1.8-3,2.6-4.2c1.6-2.7,4.1-3.8,7.1-3.9c3,0,4.3,2.2,6.1,4.3
	c6.2,7.2,5.1,15.7,5.1,24c0,2.2-0.2,4.3-2,5.9c-8,0-16,0-24,0c-1.4-1.3-0.9-3-0.9-4.4c-0.3,1.4,0.4,3.2-1.1,4.4c-12,0-24,0-36,0
	c-2.4-2.6-1-4.8,0.7-7.1c3-4.1,4.4-8.7,5-14.1c-7.6-1.3-7.9-6.8-7.7-12.6c0.2-7.1,0-14.3,0.1-21.5c0-6,2.8-11.6,2-17.8
	c-0.3-2.3-0.4-4.6-0.8-6.9c-0.5-2.9-1.6-5-4.4-6.1c-3.2-1.3-4.6-3.8-4.4-7.1c0.2-4.5-1.9-7.9-5.1-11.3c-5,5.9-12.6,8.4-17.6,14.2
	c-2.9,3.4-5.6,2.9-9.4-0.4c-0.6-1.2-0.7-2.5-0.3-3.8c0.6-1.7,2.4-2.8,2.3-5c0.1-1.9-1.9-2.4-2.9-3.7c-0.6-0.8-0.8-1.8-0.7-2.8
	c1-3.6,3-6.8,4-10.4c2.4-3.5,4.7-6.9,5-11.3c0.5-1.6,1.4-3.1,0.9-4.9c0-3.9-3.5-3.9-5.8-5.2c-1-0.5-2.1-0.9-3.2-0.9
	c-2.2-0.8-4.5-1.1-6.6-2.1c-0.6-0.3-1.1-0.7-1.6-1.1c-0.2,0.6,0.3,1,0.2,1.6c-0.4,4.4,1.1,9.1-1.3,13.4c-2.8-0.7-3.4-2.5-3.4-4.4
	c-3,2.3-5.3,0.9-6.8-1.9c-1.6-3.1-4-5.1-7-6.7c-5.7-5.7-11.1-11.7-18.9-14.8c-1.9-0.8-3.4-0.8-5.1,0.2c-4.1-1.2-7.5-4.2-11.6-5.5
	c-1.5-1-3.2-1.6-4.5-2.9c-1.2-1.6-1.1-3.4-1.1-5.2c0.3-10.6,0-21.3,0.2-31.9c0-3.4-1.1-5.8-3.8-8.1c-7.9-6.5-17.3-10.5-25.1-17.1
	c-2.1-1.7-3.9-3.5-5.1-6c0-11.7,0-23.3,0-35c0.8-1.1,2.1-1.5,3.2-2.1C2.1,146.6,0.9,146.7,0,146z"/>
<path class="st28" d="M175,326.9c0,1,0,2,0,3c3.9,2.4,4.7,7.5,8.4,9.6c2.9,0.8,4.3-1.7,6.7-1.7c2.6,4.9-0.6,8.3-2.9,12.1
	c-5.6-1.7-11.5-1.6-15.6-6.1c-0.4-0.5-1.1-1-1.6-1.1c-9.8-0.5-11.7-10.3-17.7-15.2c-2.3-1.9-1.5-4.9-0.3-7.4c0.9-1.8,2-3.4,3-5.1
	c-0.6-0.6-0.6-1.2-0.2-1.9c3.6-0.5,3.2,2.3,3.7,4.1c-0.7,2.6-3.4,3.7-3.4,6.9c1.3,3.3,4.4,4.5,8.9,4.6c-1.6-7.1-3.2-13.7-8.4-18.7
	c-0.2-1.1,0.3-2,1.2-2.6c2.6-1.3,4.6,0.1,6.6,1.3c1.5,1,2.6,2.3,3.6,3.8c2.5,4.4,1.9,10.5,7.1,13.5
	C174.4,326.2,174.7,326.6,175,326.9z"/>
<path class="st25" d="M163,288.9c0-1,0-2,0-3c7.1,1.7,11,6.3,11,13.1c0,4.3,0.4,8.6-0.9,12.8c1.3,2.5,4.3,4.1,3.2,7.3
	c2,0.3,3.2-2.1,5.3-0.3c0.5,4.6-5.3,4.7-6.5,8.1c-0.3,0-0.7,0-1,0c-2.8-2-4.8-4.1-4.9-8c-0.1-2.1-1.6-4.2-3.1-6
	c-1.3-0.7-2.3-1.7-3-3c-0.6-0.9-1.4-1.8-1.2-2.9c1.1-2.3,3.5-2.7,4.9-4.5C167.8,297.4,166.4,292.9,163,288.9z"/>
<path class="st29" d="M166,312.9c2.7,2.1,4.8,4.3,4.5,8.2c-0.2,2.4,2.4,3.8,3.5,5.8c-4.1-1.1-5.4-4.2-6.2-7.9
	C167.4,317,166.6,315,166,312.9z"/>
</svg>
