<?xml version="1.0" encoding="utf-8"?>
<!-- Generator: Adobe Illustrator 26.1.0, SVG Export Plug-In . SVG Version: 6.00 Build 0)  -->
<svg version="1.1" id="Layer_1" xmlns="http://www.w3.org/2000/svg" xmlns:xlink="http://www.w3.org/1999/xlink" x="0px" y="0px"
	 viewBox="0 0 283 415" style="enable-background:new 0 0 283 415;" xml:space="preserve">
<style type="text/css">
	.st0{fill:#5A3E3D;}
	.st1{fill:#5C3D3F;}
	.st2{fill:#664A46;}
	.st3{fill:#5D3437;}
	.st4{fill:#76524B;}
	.st5{fill:#5D4541;}
	.st6{fill:#5F433E;}
	.st7{fill:#62373B;}
	.st8{fill:#69433E;}
	.st9{fill:#653E35;}
	.st10{fill:#804E50;}
	.st11{fill:#7F5950;}
	.st12{fill:#7B5349;}
	.st13{fill:#825D54;}
	.st14{fill:#795049;}
	.st15{fill:#824E44;}
	.st16{fill:#795249;}
	.st17{fill:#765854;}
	.st18{fill:#845D54;}
	.st19{fill:#835447;}
	.st20{fill:#794E47;}
	.st21{fill:#4A302D;}
	.st22{fill:#513A38;}
	.st23{fill:#573B3A;}
	.st24{fill:#503835;}
	.st25{fill:#533839;}
	.st26{fill:#493330;}
	.st27{fill:#523D3D;}
	.st28{fill:#543936;}
	.st29{fill:#4B312D;}
	.st30{fill:#58362F;}
	.st31{fill:#483231;}
	.st32{fill:#573733;}
	.st33{fill:#4A2E2B;}
	.st34{fill:#D59B8B;}
	.st35{fill:#AF6E73;}
	.st36{fill:#975F63;}
	.st37{fill:#936769;}
	.st38{fill:#8F625B;}
	.st39{fill:#C9A6A6;}
	.st40{fill:#A7807F;}
	.st41{fill:#EDA1B3;}
	.st42{fill:#B75C6F;}
	.st43{fill:#B38E8A;}
</style>
<path class="st0" d="M248,64c-0.2-1-0.5-2.1-0.7-3c1.1-1.4,2.7,0.5,3.6-0.9c0.4,0.3,0.8,0.6,1.2,0.9c-0.2,0.9-0.4,1.7-0.6,2.7
	C250.1,63.8,249,63.9,248,64z"/>
<path class="st1" d="M114,96c2.9,1.9,2.3-1.7,3.7-2.3c1.2-0.4,1.6,0.9,2.4,1.2c1-0.3,1.6,0.2,1.8,1.1c0.6,1,1.1,1.9,1.7,2.8
	c-1.3,1.5-2.8-0.4-3.9,0.9c-0.8,2.2,2.3,2,2.5,4.3c-3.9,2.8-5.6-1.8-8.2-3c-0.8-1.9-2.2-3.7-2.1-5.9c-0.4-0.8-0.5-1.5,0.3-2.1
	C114.1,93.1,114.3,94.4,114,96z"/>
<path class="st2" d="M224,66c0.5-2.3,1.4-4.6,0.9-7.1c0.1-0.3,0.1-0.5,0.2-0.8c0.5-0.6,0.9-1.2,1.6-2.1c0.2,1.6,0.3,2.8,0.4,4.1
	c1.2,0.7,2,1.6,1.8,3.1c-0.7,1.8-0.5,4.4-3.4,4.4C224.7,67.4,224.3,66.8,224,66z"/>
<path class="st3" d="M173.9,153.1c0.6,0.7,1.2,1.3,1.8,2c-0.6,2-1.1,3.9-1.7,5.9c-1.8,0.8-2.9,2.9-5.1,2.9c-0.3-0.3-0.5-0.8-0.5-1.2
	c1-2.5,0.9-5,0.9-7.6c0-1.7-0.3-3.8,2.5-3.8C172.9,151.5,173.4,152.3,173.9,153.1z"/>
<path class="st4" d="M222,86c-2.2-1.1-2-3.1-2-5.1c-3.5-2.7-0.8-4.2,1.2-5.8c0.3,0,0.6-0.1,0.9-0.1c0.3-0.3,0.7-0.3,1,0
	c-0.4,1.9-0.8,3.8-1.3,5.6c-0.5,1.6-0.8,2.9,1.3,3.4C222.6,84.7,222.3,85.3,222,86z"/>
<path class="st5" d="M179.1,47.1c-0.2,2-1.1,2.7-2.3,3.6C176.2,48.6,177.5,48.1,179.1,47.1z"/>
<path class="st6" d="M173.9,53.9c0.4-0.7,0.7-1.3,1.1-2c0.6,0.5,1.2,1,2,1.6C175.8,54.7,174.9,54.8,173.9,53.9z"/>
<path class="st7" d="M254.1,194.9c-0.4,0-0.8,0.1-1.1,0.1c-1.9-1.2-2.6,0.2-3.5,1.7c0.5,2.3,2.8,4.6,0.9,7.3c-2,0.9-2.5-1-3.4-2l0,0
	c-2.1-2.2-1.6-4.8-1.1-7.5c1.5-1.2,2.4-3.5,5.1-2.5C252.7,192.1,253.7,193.2,254.1,194.9z"/>
<path class="st8" d="M151,161c-3.2-5.5-2.6-11.1-0.2-16.6c-0.4-2.8-0.8-5.6-1.2-8.6c-0.4-1.5-2.3-1.6-3.1-2.6
	c-2.8-8.7-3.9-17.3-1.8-26.1c0.6-2.4,2-4.2,2.7-6.3c0.6-1.8,1.7-3.7,0.5-5.7c0.9-1.6,1.9-2.9,4-2.3c2,2.9-0.6,5.2-0.9,7.8
	c-1,12.4-1.8,24.8,2.7,36.9c1.5,4-0.6,7.8-0.8,11.8c-0.1,1.6-0.6,3.2-0.6,4.9c0.1,1.5-0.1,2.9-1.4,3.9C151,158.9,151,160,151,161z"
	/>
<path class="st9" d="M218.9,92c-0.5,0.4-0.9,0.7-1.7,1.3c-0.1-1-0.2-1.7-0.3-2.4c-1.7-3.5,0.2-6.6,1.4-9.7c0.4-0.4,0.9-0.6,1.4-0.5
	c1.3,1.5,0.8,3.8,2.3,5.3C220.9,87.9,219.3,89.6,218.9,92z"/>
<path class="st10" d="M254.9,206.1c-1.6-0.7-3.2-1.5-4.9-2.2c-0.3-2.1-0.8-4.2-0.9-6.4c-0.1-2.6,0.7-4.5,3.8-2.6
	c-1,0.1-2,0.3-2.4,1.6C251.9,199.7,252.8,203.2,254.9,206.1z"/>
<path class="st11" d="M237.9,53c0.7-1,1.4-0.9,2.2-0.1c0.6,1.6,1.6,3.2,0.1,4.8C239.4,56.2,238.7,54.6,237.9,53z"/>
<path class="st12" d="M233.1,49.9c2.7,1.2,2.5,4.2,3.9,6.1c0.5,3.5,2.9,6.4,3.1,10c-0.8,2.1,0.5,3.1,2,4c0.9,0.8,0.9,1.9,1,3
	c-0.1,1.1,0.1,2.4-1.1,3.2c-1.9,0.6-2.1-1.8-3.5-2.1c-0.5,0.7-1,1.3-1.5,2c-0.2-0.1-0.4-0.2-0.6-0.4c-2.8-6.4-4.7-13-3.9-20.1
	C232.8,53.6,231.1,51.6,233.1,49.9z"/>
<path class="st13" d="M232.2,53.9c-0.7-4.9-2.8-9.3-4.2-14c0.3-0.3,0.6-0.6,0.9-0.9c1.1,1.9,2.2,3.9,3.3,5.8
	c0.3,1.6,0.6,3.3,0.8,4.9c0.3,2.1,0.6,4.2,0.9,6.2C232.1,56.4,232.5,54.9,232.2,53.9z"/>
<path class="st14" d="M164,167c-1,0.3-2,0.7-3.1,1c-0.4,0.3-0.9,0.3-1.4,0.1c-4.7-0.4-8-2.8-9.5-7.3c-0.1-1-0.2-2,0.6-2.9
	c0.4-0.3,1.1-0.5,1.4-0.2c3.7,3.8,8.6,5.5,13.1,7.9C165.3,166.6,165.2,167.2,164,167z"/>
<path class="st15" d="M203,145c1.8,3-2.6,4.1-2,6.8c-2.9-1.3-5.9-1.4-9-0.6c0,0-0.1-0.5-0.1-0.5C195,147.6,198.6,145.5,203,145z"/>
<path class="st16" d="M231,67c0-1,0-2,0.1-3c0.3-0.1,0.6-0.2,0.9-0.3c1,5.1,2.5,10.1,0.1,15.2c0,0,0,0,0,0C230.7,75,228,71.2,231,67
	z"/>
<path class="st17" d="M225.1,70.1c-0.1,0.3-0.1,0.6-0.1,0.9c-0.6,1.4-1.3,2.7-1.9,4.1c-0.3,0-0.7,0-1,0c-0.3-3.2,0.6-6.1,2-9
	c0.3,0.3,0.7,0.7,1,1C225.8,68,225.9,69,225.1,70.1z"/>
<path class="st18" d="M170,150c0.6,0.7,1.3,1.3,1.9,2c-2.4,1.9,0.2,4.3-0.7,6.5c-0.6,1.5-0.2,3.5-2.1,4.6c-0.7-1.6-1.4-3.3-2.3-5.3
	c-5.8,1.8-10.2-1.4-14.8-3.8c-0.8-3.7,1.6-7.1,1.2-10.9c-0.2-2,0.1-4.2,0.2-6.3c3.7-2.1,2.7,1.7,3.8,3c0.1,0.5,0,1-0.1,1.5
	c-1.1,3-0.8,5.8,1,8C162.3,152.4,166.2,147.8,170,150z"/>
<path class="st19" d="M190,56c1.6-5.3,6-4.6,9.4-4.6c3.1,0.3-1,3.7,2.4,3.6c0.2,0.1,0.4,0.2,0.7,0.3c0.5,0.5,0.8,1.2,0.9,1.9
	c0.1,0.7-0.1,1.4-0.3,2.1c-0.9,1.4-1.5,2.8-2,4.4c-0.7,1-1.5,1.7-2.9,1.4c-2.1-1.4-1.4-3.9-2.1-5.7c-2.1-0.6-2.9,1.6-4.6,1.7
	c-1.7-0.4-2.4-1.7-2.5-3.3C189.1,57.1,189.4,56.5,190,56z"/>
<path class="st14" d="M154,136c-0.1,6.1,0.8,12.2-2,18c-0.3,0-0.7,0-1,0c-0.5-4.8,1.7-9.2,1.7-14.4c-4.7-13-4.7-26.8-2.7-40.6
	c0.5-0.3,1-0.3,1.4,0c1.4,1.7,1.1,3.7,0.6,5.6c-0.6,2.1-0.6,4.2,0,6.3c0.2,0.5,0.3,0.9,0.4,1.4c0,5.9,0.3,11.7,1.9,17.5
	c0.5,1.7,0.4,3.6-0.1,5.4C154.1,135.5,154.1,135.7,154,136z"/>
<path class="st20" d="M151,99c-0.3,0-0.7,0-1,0c0.7-2,1.3-4,2-6c0.4-0.3,0.7-0.6,1.1-1c3.8-1.5,7.5-2.5,11.3,0
	c0.6,0.6,1,1.2,0.7,2.1c-2.2,2.3-5.2,1.5-8,2.2C155,97,153.8,99.7,151,99z"/>
<path class="st20" d="M167.9,94.1c0.1,0.6,0.1,1.2,0.2,1.9c0,0.4,0,0.7-0.1,1.1c-1.8-0.2-2.8-1.2-3-3C166,94,166.9,94,167.9,94.1z"
	/>
<path class="st21" d="M251,83c0.3,1-0.5,3.3-1.2,3.8c-1.8,3.5-1.9,8.5-7.4,9c-0.9-1-0.9-2.3-0.9-3.6c0-1,0-2,0.2-3
	c1.2-2.5,2.1-5.1,2.5-7.9c1.1-2.3-2.5-4.4-0.2-6.8c3-0.9,4,1.7,5.6,3.2C251.3,79.2,250.5,81.3,251,83z"/>
<path class="st22" d="M231,24c1.5,3,5,4.6,6,8.1c-0.5,0.7-0.9,1.5-1.6,2c-0.6,0.4-1.2,0.6-1.9,0.5c-2.8-0.5-3.6-3.3-5.6-4.8
	c-2.5-2.6-4.2-6.1-8.3-6.6c-4.3-2.2-7.6-5.8-11.3-8.7c-1.2-0.9-2.1-2.2-1.7-3.9c0.6-1.1,1.4-1.5,2.5-0.7l0,0c3.3,0.5,10.7,6.3,12,7
	C224.4,19.2,228.2,20.9,231,24z"/>
<path class="st23" d="M243.2,41.8c1.4,1.9,2.3,3.8,0.9,6c-0.2,0.1-0.3,0.3-0.5,0.4c-1.2,0-2-0.7-2.7-1.6c-0.4-0.6-0.5-1.2-0.5-1.9
	c0.3-1.4,1.4-2.1,2.5-2.8L243.2,41.8z"/>
<path class="st23" d="M245.8,50.1c-0.3,0.3-0.5,0.5-0.8,0.8c-2.3-0.3-1.7-1.6-1-2.9c0,0,0.1-0.1,0.1-0.1
	C245.3,48.2,246,48.8,245.8,50.1z"/>
<path class="st23" d="M246,56c0-1,0-2,0-3c0.6,0,1.2,0,1.9,0c0.4,1.7,0.7,3.3,1.1,5C246.8,59.2,246.2,57.9,246,56z"/>
<path class="st24" d="M241,98c0.6,0,1.3,0,1.9,0c0,0.7,0,1.4,0,2c-1.9,2-0.5,5.9-3.9,7.1c-1.3,1.2-0.8,3.8-3.8,4.1
	c-3.5-1.3-3-4-1.5-6.9c0.3-0.4,0.6-0.8,1-1.1C237.8,102.5,237.6,98.1,241,98z"/>
<path class="st25" d="M123,106c-1.4,0-2.7,0.1-4.1,0.1c-2.5-0.8-4.4-2.3-4.9-5.1c1.6-1,2.8,0.3,4.6,1.1c-0.9-2.9,1.3-4.1,2.5-5.9
	c0.1-0.3,0-0.6-0.3-0.7c-0.3,0.1-0.6,0.2-0.9,0.3c-2.2,0.1-4.2,3.9-6.5,0.2c-1.6-5.5-2.7-11,0.1-16.4c0.2-1,0.7-1.8,1.4-2.5
	c2.8-1.2,4.7-4.2,8.1-4.5c1-0.2,1.9-0.2,2.4,0.9c0.3,2-1.4,3.6-1.4,5.6c0,0.6,0,1.2-0.1,1.9c-1.8,1.8-4.8,0.9-6.4,2.9
	c-0.4,1.3-2.4,2.8,0.3,3.8c1.5-2.4,3.2-4.4,6.3-4.6c0.3,0,0.6,0,0.9,0c0.7,3.2,2.8,5.5,4.5,8.1C130.4,97.4,127.1,101.9,123,106z"/>
<path class="st26" d="M213,134.8c0.3,0,0.7,0.1,1,0.1c2,0.7,1.9-1.2,2.6-2.1c0.7-0.9,1.1-2.2,2.5-0.9c-0.3,1.3-0.7,2.6-1,4
	c-0.7,1.3-1.8,2.3-3.1,3c-1.9,0.6-2.8-0.6-3.6-2.1C211.4,135.8,211.5,134.8,213,134.8z"/>
<path class="st27" d="M177,15c-1,0.4-1.9,0.7-2.9,1.1c-1.5,0.9-2.4,0.3-3.1-1.1c0,0,0,0,0,0c1.1-1.5-1-4.5,2.8-5.1
	C173.2,12.7,174.7,14.1,177,15z"/>
<path class="st28" d="M163.1,22c-0.3-0.4-0.6-0.8-1.5-1.8c3,0.8,3.4-3.5,6.4-2.2c0.4,0.2,0.9,0.4,1.3,0.5c0.7,1.3-1.9,2.3-0.2,3.6
	c-1.9,1.1-3.7,2.7-6,1C163,22.6,163,22.3,163.1,22z"/>
<path class="st28" d="M177,25c-1.5,1.2-3.4,0.2-5,1c-0.7-1.3,1.3-1.3,1.2-2.6c-1-0.5-2.1-1-3.2-1.5C173.9,19.5,174.7,24,177,25z"/>
<path class="st29" d="M222,57c2.2-1.3,1.8,1.5,2.9,1.9c2.4,2.2,1.3,4.6,0.5,7c-1.2,3-1.5,6.3-3.2,9.1c-0.5,0.3-1.1,0.2-1.6,0
	c-0.9-0.8-1.1-1.9-1.1-3C220.7,67.1,218.6,61.6,222,57L222,57z"/>
<path class="st30" d="M208,50c0.7,0.7,1.3,1.3,2,2c0.3,2,0.7,4,1,6c1,3,0.5,6.2,0.4,9.3c-0.1,4.7,0,9.1,3.8,12.6
	c-1.2,1.7-2.8,2.2-4.7,1.5c-2.2-1.4-1.9-3.6-2-5.8c-0.2-5.9,0.4-11.9-0.4-17.8c-0.7-1.4-0.3-3.3-2.1-4.2c-1.8-0.2-2.3,1.6-3.5,2.3
	c-2.8,1.9-3.4-1.8-6-2.4c-2.3-0.7-3.9,2.1-6.3,3c-4-0.4-5.7-2.9-6-6.6c0.3-2.4,1.5-4.1,3.9-4.7c0.6-0.5,1.1-1,2-1.8
	c0,1.8,0,3.1,0,5.1c3.5-1.9,6.7,0.2,9.9-0.4c0.7-0.6,1.4-0.6,2.1,0c0.6-0.3,1.2-0.7,1.8-1c0.8-0.7,1.4-1.9,2.9-1.3
	C208.3,46.7,206.6,48.8,208,50z"/>
<path class="st31" d="M179.2,39c-2-2.8,0.5-4.2,2-5.7c1.8-1.7,3.9-3,5.8-4.4c2.1,0.7,3.6,2.5,7.1,2.2c-2.6,2-3.4,4.3-5.8,4.8
	C184.4,34.5,182.8,40,179.2,39z"/>
<path class="st32" d="M144,98c1-1,2-2,3.1-3c0.5-0.3,1-0.4,1.5-0.1c2.5,2.2,1.1,4.6,0.2,6.8c-3.8,9.3-3.8,18.6-1,28.1
	c0.9,3.1,3.2,5.4,3.9,8.9c1.3,6.2-2.5,11.6-1.3,17.5c0.3,1.6-0.4,3.3,0.5,4.8c2,3.6,5.5,5.2,9,6.9c-5.3,1-7.5-3.6-11-5.9
	c-0.4-1.7-0.7-3.3-1.1-5c0.3-3.9-0.6-7.6-1.9-11.2c-2.1-5.8-4.2-11.7-6.8-17.3c-3.6-8-3.9-15.5,1.6-22.6c1.7-2.1,2.3-4.3,2.1-6.9
	C143.2,98.5,143.6,98.2,144,98z"/>
<path class="st29" d="M225.1,70.1c0-1,0-2,0-3c2.4-0.4,1.6-2.9,2.8-4.1c0.4,1.3,0.9,2.6,1.3,3.9c0.1,0.7,0.2,1.4,0,2.1
	c-1.2,1.8-1.5,3.9-2.1,5.9l-0.5,0c0,0-0.5,0-0.5,0C225.8,73.3,226.5,71.5,225.1,70.1z"/>
<path class="st30" d="M211.1,84c1.5,0.4,2.4-2,4-0.9c0,0.6-0.1,1.3-0.1,1.9c-1.3,0.3-2.6,0.7-3.9,1C211.1,85.3,211.1,84.6,211.1,84z
	"/>
<path class="st32" d="M168,77c0.3,0,0.7,0,1,0c4.4-1.2,7.9,0.8,11.5,3c0.9,1.5,0.6,2.8-0.4,4.1c-0.3,0.4-0.7,0.7-1.1,0.9
	c-2.4,0.9-2.1,3.6-3.5,5.2c-1.6,1.8-4.3,0.7-5.9,2.2c-0.4,0.5-0.7,1-1,1.5c-0.3,0.3-0.6,0.6-1,0.8c-0.7,0.2-1.3,0.1-1.9-0.3
	c-0.1-0.2-0.3-0.3-0.4-0.5c-0.3-0.3-0.7-0.7-1-1c-2.4-1.3-4.2-2.9-4-6C163.1,84,166,80.9,168,77z"/>
<path class="st33" d="M127,115c1.3-0.7,2.4-1.7,2.9-3.2c1.1-3.4,3.7-4.9,6.6-5.2c1.6-1.5,2.2-2.9,2.5-4.6c-0.4-0.8,0.1-1.4,0.6-2
	c1.2-1,2.4-2.2,4.1-0.7c1.8,3,0.3,5.6-1.3,7.8c-5.2,7.3-4,14.3-0.6,22c3.1,6.9,5.9,14,7.3,21.6c0.4,2.1,0.8,4.2-0.6,6.2
	c-2.1,1.2-3-0.4-3.9-1.8c-5.7-7.7-10.9-15.7-14.5-24.7c-1.6-4-0.5-8.7-3-12.5C127,117,127,116,127,115z"/>
<path class="st34" d="M212.1,137c-0.9,1.4-1.8,2.8-2.7,4.1c-2.3,1-4.5,2.1-6.4,3.9c-3.1,3-7.2,4.2-11.1,5.7c-1.6,0.5-2.8,0-3.4-1.6
	c2-2.3,4.8-3.4,7.6-4.8c2-2.5,2.3-6.3,5.3-8.2c2.6-1.7,5.6-3,6.9-5.9c0.6-3.1-2.6-5.7-0.9-8.8c0.2-0.1,0.4-0.3,0.6-0.4
	c2.9,2,5,4.7,6.6,7.9c-0.6,2-1.2,4-1.8,6C212.3,135.4,211.9,136.1,212.1,137z"/>
<path class="st35" d="M258.8,198c2.3,1.3,4.7,2.7,4.2,5.9c-0.3,2.3-1.4,4-4.1,4.1c-4.1-1.4-4.4-5.7-7-8.3
	C253.6,194.9,256.2,196.1,258.8,198z"/>
<path class="st36" d="M258.8,198c-1.7-0.1-3.4-1.9-5.4,0.5c1.8,3,3.7,6.2,5.6,9.4c-1,0-1.9-0.1-2.9-0.1c-0.9-0.4-1.8-0.9-2.4-1.7
	c-2.6-2.5-3.3-6-4.4-9c0.4-2.2,1.5-3.2,3.5-3c0.5,0.2,0.9,0.4,1.3,0.7C255.7,195.9,258,195.8,258.8,198z"/>
<path class="st37" d="M259.2,175.7c-0.1,0.8-0.1,1.5-0.2,2.3c-1-0.9-0.8-2.7-3.4-2.6c-3,0.1-5.8-1.8-6.7-5.2
	c-0.2-0.3-0.3-0.5-0.3-0.8c0-0.3,0.1-0.4,0.2-0.4c0.4-0.3,0.8-0.2,1.2,0.1l0,0c2.9,1.9,6.7,2,9,5C259,174.6,259.1,175.1,259.2,175.7
	z"/>
<path class="st38" d="M151,157.9c0-1.3,0-2.6,0-4c0.3-0.4,0.7-0.8,1.2-1c5,0.7,9.5,3.2,14.6,4c2.7,0.4,3.5,3.3,2.2,6
	c0,0.3,0,0.6-0.1,0.9c-1.4,0.7-2.7,1.3-4.1,2C159.1,165.3,153.8,163.8,151,157.9z"/>
<path class="st39" d="M224,156c0.7-1.1,1.3-2.1,2.5-4.1c-0.1,2-0.2,3.1-0.2,4.2c4.2-1,7.1,2.1,10.7,2.9c0.5,3.5,3.5,3.3,5.8,3.6
	c2,0.2,3.4,0.6,4.3,2.5c0.3,0.3,0.6,0.7,0.8,1.2c0.1,0.7,0,1.4-0.5,1.9c-2.9-0.7-5.3-2.4-8.2-3.3c-0.2-0.2-0.3-0.5-0.4-0.8
	c-0.7,0.3-1.3,0.9-2.1,0.8c-0.4,0-0.8-0.1-1.2-0.2c-0.9-0.4-1.8-0.6-2.6,0c-0.5,0.6-0.9,1.3-1.6,1.7c-2.7,0.6-2.6-2.3-4.2-3.2
	c-0.3,0.3-0.5,0.5-0.8,0.8c-0.9,0.9-1.8,1.5-3.1,1.1c-1.7-1.7-0.3-3.7-0.5-5.6C222.6,158.1,222.7,156.7,224,156z"/>
<path class="st40" d="M226.1,164c-0.8,1.2-1,2.8-2.6,3.5c-2.3-1.9-1.5-4.3-1.4-6.5c0.7-0.3,1.3-0.7,2-1c-0.1,1.3-0.3,2.6-0.4,3.9
	c1.5,0.2,1.4-1.6,2.5-1.9C226,162.7,226.1,163.3,226.1,164z"/>
<path class="st40" d="M230.9,165.8c-2,1.2-2.2,1.2-2.8-0.6c-0.4-1.3-0.2-2.9-2.1-3.2c0.1-1.1,0.3-2.2,1.4-3
	C230.2,160.5,227.9,164.6,230.9,165.8z"/>
<path class="st40" d="M235.9,164c-1.8,0.1-1.8,1.8-2.4,3.4c-1-1.8-1.7-3.1-2.5-4.5C232.5,161.3,234.3,161.6,235.9,164z"/>
<path class="st40" d="M239,164c0,0.3,0,0.7,0,1c-0.7,1.3-1.5,2.1-2.9,0.9c-0.1-0.6-0.1-1.3-0.2-1.9C237,164.1,238,163.1,239,164z"/>
<path class="st40" d="M221.9,160.1c-0.6,0.3-1.1,0.6-1.7,0.9l-0.5-0.1c-0.2-2.3-0.8-4.6,0.4-6.8
	C222.5,155.6,222.2,157.8,221.9,160.1z"/>
<path class="st41" d="M176.1,148.8c1,0.4,1.9,0.8,2.9,1.1c1.3,0.7,2.6,1.4,4,2.1c-3.9,3.9-5.2-1.7-7.9-2.1c-0.1-0.2-0.1-0.4-0.2-0.5
	C175.1,148.8,175.4,148.4,176.1,148.8z"/>
<path class="st42" d="M173.9,153.1c-0.7-0.4-1.3-0.8-2-1.1c-0.8-0.8-2.5-0.5-2.4-2.1c0.2-1.4,1.1-2.1,2.4-2.3c1.6,0,2.7,0.9,3.2,2.4
	c0,0,0,0,0,0C174.7,151,174.3,152.1,173.9,153.1z"/>
<path class="st43" d="M187,94.2c-0.6-0.1-1.2-0.2-1.8-0.3c-0.4-0.6-0.8-1.2-1.2-1.8c-0.5-1.2-0.7-2.3,1.2-2.2c0.3,0,0.6,0,0.9,0.2
	C186.7,91.4,187.4,92.7,187,94.2z"/>
<path class="st43" d="M185.1,89.9c-0.4,0.7-0.8,1.5-1.2,2.2c-1.3-0.2-2.5-0.6-2.4-2.3C182.8,88.1,183.9,89,185.1,89.9z"/>
</svg>
