<?xml version="1.0" encoding="utf-8"?>
<!-- Generator: Adobe Illustrator 26.1.0, SVG Export Plug-In . SVG Version: 6.00 Build 0)  -->
<svg version="1.1" id="Layer_1" xmlns="http://www.w3.org/2000/svg" xmlns:xlink="http://www.w3.org/1999/xlink" x="0px" y="0px"
	 viewBox="0 0 283 415" style="enable-background:new 0 0 283 415;" xml:space="preserve">
<style type="text/css">
	.st0{fill:#020502;}
	.st1{fill:#2E2E36;}
	.st2{fill:#777A96;}
	.st3{fill:#2E3142;}
	.st4{fill:#3E4256;}
	.st5{fill:#C9CDDA;}
	.st6{fill:#626268;}
	.st7{fill:#9495AB;}
	.st8{fill:#565973;}
	.st9{fill:#B0B6CB;}
	.st10{fill:#3B3B3F;}
	.st11{fill:#646881;}
	.st12{fill:#42424B;}
	.st13{fill:#5C5C66;}
	.st14{fill:#797981;}
	.st15{fill:#D4DBEB;}
	.st16{fill:#B5BDD4;}
	.st17{fill:#A6ABC5;}
	.st18{fill:#888A99;}
	.st19{fill:#515469;}
	.st20{fill:#2F303A;}
	.st21{fill:#8D8D98;}
	.st22{fill:#5A5A66;}
	.st23{fill:#2B2B35;}
	.st24{fill:#7C7C88;}
	.st25{fill:#6C6E7A;}
	.st26{fill:#090A0B;}
	.st27{fill:#070809;}
	.st28{fill:#0C0C0E;}
	.st29{fill:#100F14;}
	.st30{fill:#080A07;}
	.st31{fill:#0F100C;}
	.st32{fill:#0E100D;}
	.st33{fill:#12140D;}
	.st34{fill:#0E0F13;}
	.st35{fill:#030406;}
	.st36{fill:#101113;}
	.st37{fill:#060709;}
	.st38{fill:#131317;}
	.st39{fill:#14151C;}
	.st40{fill:#0F1014;}
	.st41{fill:#0A0B10;}
</style>
<path class="st0" d="M2,414.9C2,362,2,309,2,256.1c0-3.3,0.1-6.3,3.5-8.4c4.6,2.2,4.2,6.4,2.9,10.1c-1.7,4.7-2,8.9,0.8,13.3
	c1.6,2.5,0.8,5.5,0.5,8.3c-0.1,1.1-0.8,2.5-0.4,3.4c3.2,6.6,3,14.1,5.6,20.9c0.9,2.3,0.9,4.4,0.7,6.8c-0.7,7.4-1.5,14.9,0.8,22.2
	c0.3,1.1,0.7,2.3,0.6,3.4c-0.3,9.5,0.1,19-1.3,28.3c-1,6.6-3.5,13.1-4.2,19.8c-0.3,2.6-0.5,4.9,1.1,7.1c1.9,2.6,2.1,5.7,0.9,8.6
	c-2.1,4.9-2.6,9.9-2.4,15.1C8,414.9,5,414.9,2,414.9z"/>
<path class="st1" d="M72.9,367.9c0.3,7-0.3,13.9-1.5,20.8c-0.6,3.6,0,7.6,0.7,11.3c1,5,0.6,9.9,0.8,14.9c-0.3,0-0.7,0-1,0
	c-1.3-12.5-3.5-25-0.3-37.6c0.8-3,0.3-6.3,0.3-9.5C72.4,367.3,72.7,367.4,72.9,367.9z"/>
<path class="st2" d="M105.1,275.8c2.1,0.9,4.2,1.8,6.3,2.8c1,1.3,0.3,2.9,0.7,4.3c0.5,1.8-0.9,2.8-1.6,4.2c-0.5,0.8-0.5,1.8-0.9,2.6
	c-1,1.3-2.1,2.5-4.2,2.8c-2.5-1.2-4.4-3.3-6.2-5.6c-0.7-1.8,0.3-3.5,0.3-5.2c0.1-2.1,0.6-4.1,2.7-5.1c3.1-0.5,2.6,3.1,4.4,3.6
	C105.8,279,104.1,277.9,105.1,275.8z"/>
<path class="st3" d="M90.1,307c0.3-0.1,0.5-0.1,0.8-0.2c0.9,0.4,1.1,1.7,2.2,1.9c1,0.6,1.3,1.9,2.2,2.6c2.5-0.1,3.6-4,6.7-2.5
	c0,1-0.1,1.9-0.1,2.9c0,0.2,0,0.5,0,0.7c-0.9,3.3-2.4,6.4-5,8.8c-1.1,1-2.2,2.1-4.2,1.9c-6.1-2.3-3.8-7.9-4.2-12.5
	C88.6,309.4,88.6,307.9,90.1,307z"/>
<path class="st4" d="M102.1,308.9c-2.6,1.6-4.8,3.7-6.5,6.2c-3.4-1-1.8-4.4-3.3-6.2c-0.8-0.6-0.3-1.2-0.1-1.9c0.3-0.4,0.6-0.7,1-0.9
	c1.5-0.4,1.7-1.8,2.5-2.8c1.4-1.8,3.1-2.5,4.9-0.5c2.2-0.1,1.5-2.3,2.4-3.3c0.4-0.6,1-1,1.7-1.2c0.5,0,0.9,0.2,1.3,0.5
	C105.4,302.5,103.5,305.7,102.1,308.9z"/>
<path class="st5" d="M103.2,277.1c-1.4,1.3-2.3,2.9-2.2,4.8c-2.4,0.6-2-2.1-3.5-2.8c-1.7-0.2-2.2,2.8-4.4,1.8c0-0.7,0-1.3,0-2
	c0.7-1.5,0.2-3.2,0.4-4.8c0.1-1.1,0.4-1.9,1.8-1.4c2.2,0.8,4.5,1.5,6.7,2.3C102.8,275.5,103.7,275.9,103.2,277.1z"/>
<path class="st6" d="M51.1,259.9c0.7,1,1.4,1.9,2.1,2.9c-0.2,0.8-0.6,1.3-1.4,1.6c-5.2-2.6-10.6-4.9-14.1-9.8
	c0.5-1.2,1.4-1.3,2.5-0.9C44,255.5,47.8,257.3,51.1,259.9z"/>
<path class="st7" d="M103.2,277.1c-0.4-0.7-0.8-1.3-1.2-2c1.1-0.1,2.2-0.1,3.1,0.7c1,2.7,2.5,5.1,5.5,5.6c-0.1,1.9-1.1,2.8-2.4,3.9
	C106.8,282.3,105.5,279.3,103.2,277.1z"/>
<path class="st8" d="M106,298.9c-0.3,0-0.7-0.1-1-0.1c-1.6-2.1-0.8-4.1,0.7-5.7c1.2-1.3,2.3-2.7,3.3-4.2c0.3-0.7,0.7-1.4,1-2
	c0.2-0.1,0.4-0.3,0.6-0.4c0.2,0.2,0.4,0.3,0.5,0.5C111.2,291.7,109,295.5,106,298.9z"/>
<path class="st9" d="M95.3,272.8c-2.1,1.6-0.6,4.4-2.2,6.2c-0.4-1.7,0.3-3.7-1-5.3c-0.1-0.8-0.1-1.5-0.2-2.7
	C93.2,271.6,94.3,272.2,95.3,272.8z"/>
<path class="st10" d="M40.2,253.7c-0.7,0.3-1.3,0.7-2,1c-1.2,1-1.6,0-2-0.9c0-0.7-0.1-1.3-0.1-2C37.4,252.5,38.8,253.1,40.2,253.7z"
	/>
<path class="st11" d="M111.1,287c-0.4,0-0.8-0.1-1.2-0.1c0.7-1.3,1.4-2.7,2.1-4C113.5,284.6,111.9,285.7,111.1,287z"/>
<path class="st12" d="M71.1,354c1.7-10.4,1.2-20.8,0.1-31.2c1.4-2.1-1.1-4.6,0.5-6.7c0.4-0.4,0.9-0.5,1.4-0.2c0,17.3,0,34.6,0,51.9
	c0,0-0.4,0-0.4,0s-0.4,0-0.4,0C72.1,363.2,72.1,358.6,71.1,354z"/>
<path class="st13" d="M60,271.9c1,2,2,4,3.1,6c0.5,0.6,0.7,1.2,0.5,2c-0.6,0.9-1.2,1.5-2.3,0.8c-0.4-2.1-0.9-4.1-2-6
	c-1-1.6-2-3.2-3-4.9c0.2-0.5,0.3-1.2,1.1-1.2C58.2,269.8,59.1,270.9,60,271.9z"/>
<path class="st14" d="M57.3,268.7c-0.4,0.4-0.8,0.8-1.1,1.2c-0.7-0.7-1.4-1.4-2.1-2.1c-0.7-1.2-1.5-2.4-2.2-3.7
	c0.5-0.5,0.9-0.9,1.4-1.4C54.6,264.8,55.9,266.7,57.3,268.7z"/>
<path class="st15" d="M93.1,285.9c0-0.7,0-1.3,0-2c0.7-2.3,2-4,3.7-5.9c4.1,2.6,1.4,6.7,3,9.6c0,1.1-0.5,1.9-1.3,2.6
	c-1.7,0-2.8,2.2-4.8,1.5C93.2,289.8,94,287.8,93.1,285.9z"/>
<path class="st9" d="M98.9,287.7c-1.9-2.4-1.1-5.4-1.3-9.2c-1.9,2.3-3.2,3.8-4.5,5.4c0-1,0.1-2,0.1-3c2-0.8,1.5-3.5,3.4-4.5
	c3.8,0,2.8,3.8,4.4,5.5c-0.3,1.7-0.6,3.4-0.9,5.1C100.2,287.9,99.9,288.3,98.9,287.7z"/>
<path class="st16" d="M94.3,291.7c0.4-0.7,0.9-1.4,1.3-2.1c0.8,0.1,1.6,0.2,2.4,0.3c2.3,3-0.2,5.5-0.8,8.2c-0.9,1.9-1.3,4.2-3.7,5
	c-1.7-0.8-1.2-2.1-0.7-3.4c-0.2-0.3-0.1-0.6,0.1-0.8C94.5,296.7,92.4,293.9,94.3,291.7z"/>
<path class="st17" d="M94.3,291.7c-0.7,2.4,0.5,5.1-1.3,7.2c0-4.3,0-8.7,0.1-13C94.7,287.6,93.9,289.8,94.3,291.7z"/>
<path class="st17" d="M92.9,299.7c0.3,1.1,0.1,2.3,1.1,3.2c1.4,1.8,0.1,2.9-1,4l-0.2-0.1c-2,0.1-1.2-1.2-1.1-2.1
	C92,303,92,301.3,92.9,299.7z"/>
<path class="st18" d="M91.8,304.7c0.4,0.7,0.7,1.4,1.1,2.1c-0.2,0.7-0.4,1.5-0.7,2.2c-2.1,0.4-0.9-1.4-1.4-2.1
	C91.2,306.1,91.5,305.4,91.8,304.7z"/>
<path class="st11" d="M96,298c0.2-2.8,2.2-5.1,2-8.1c0.3-0.7,0.6-1.5,0.9-2.2c0.4-0.3,0.7-0.5,1.1-0.8c3-0.2,4,2.3,4.9,4.3
	c2-0.1,2.6-1.8,4-2.3c-0.5,3.6-3.7,6.2-4,10c-0.3,0.4-0.6,0.7-1,1.1c-0.7,0.5-0.3,1.6-1.3,2.1c-1.9-0.1-2.1-1.7-2.1-3.1
	c0-1.8-0.4-1.4-1.2-0.4C98.2,298.8,96.8,300.6,96,298z"/>
<path class="st8" d="M99,297.9c0.5-2,0.9-4.1,1.5-6.9c2.6,3.4,0.7,6.8,2,9.9c0.5-0.4,1-0.7,1.5-1c0.2,2.9-2.2,4.6-2.6,7.2
	c-1.9-0.9-1.1-2.2-1.4-3.2C99.3,302,98.1,300.1,99,297.9z"/>
<path class="st19" d="M99,297.9c1.6,1.8,0.8,4,1,6c-4.3-2.2-3.4,1.8-4.4,3.8c-0.9-0.3-1.7-0.5-2.6-0.8c0.3-1.3,0.6-2.7,1-4
	c0.2-1.8,0.6-3.6,2-4.9C97.1,298.8,98,297.8,99,297.9z"/>
<path class="st20" d="M61.2,280.7c0.7-0.2,1.3-0.4,2-0.5c1.1,0.3,1.8,1,2.2,2.1c0.3,3.1,1.3,6.1,2,9.1c0.1,1.4,0,2.8-1.3,3.6
	c-0.9-1.5-1.9-2.7-3.6-2.1c-1.1-2,1.5-2.2,1.2-3.6c-0.4-2-1.9-2-4.9-1.6C62.8,285.5,60.8,282.9,61.2,280.7z"/>
<path class="st21" d="M66,294.9c-0.1-1.3-0.1-2.5-0.2-3.8c-0.3-0.8-0.3-1.6,0.1-2.4c0.6-0.2,1.1-0.2,1.6,0.1
	c3.6,4.4,4.2,9.6,4.2,15.1c-0.6,1.2-0.5,3-2.6,2.9c-1.2-3.7-1.1-7.7-3-11.1C66.2,295.5,66.1,295.2,66,294.9z"/>
<path class="st22" d="M70.8,320c-0.3-3-0.5-6.1-0.8-9.1c0.4-0.4,0.5-1,1.1-1.3c0.4-0.1,0.7,0.1,0.8,0.6c0.1,1.9,0.2,3.8,0.3,5.7
	c-0.5,2.3,0.6,4.9-1,7C71,321.9,70.9,320.9,70.8,320z"/>
<path class="st23" d="M71.9,310.1c-0.2-0.1-0.5-0.2-0.7-0.3c-2-1.8,0.1-4.3-1-6.2c-1.1-4.9-2.1-9.8-3.2-14.7
	c-0.3-2.3-2.1-4.5,0.2-7.2c1.5,2.5,4.2-2.2,5.8,1.2c1.3,5.7,2.7,11.3,4,17c0.6,4.6,1,9.3,1,14c0,0,0,0,0,0c-2.7-1.2-1.6-4-2.4-6.1
	c-1.8,0.7,0.2,2.8-1.5,3.4c-1.4,0.1-0.7-1.6-1.4-2.1c-0.1-0.1-0.4,0-0.4,0.1C72.1,309.5,72,309.8,71.9,310.1z"/>
<path class="st24" d="M70.2,303.6c1.2,1.9,0.7,4.1,1,6.2c-0.4,0.4-0.7,0.7-1.1,1.1c-0.3-1.3-0.6-2.7-0.9-4
	C70.1,305.9,70,304.8,70.2,303.6z"/>
<path class="st25" d="M64,281.8c1,2.1,2,4.3,2.1,6.7c-0.1,0.9-0.2,1.7-0.3,2.6C64.4,288.2,63.8,285.1,64,281.8z"/>
<path class="st26" d="M69,414.9c-2,0-4,0-6,0c-0.1-8.1-7.6-13.9-6.4-22.3c-4.8,0.1-7.2,4.1-10.5,6c-3.4-1.3-3.6-4-4-6.6
	c-1.4-9-1.8-18.1-3.7-27c-0.2-1-0.4-2-0.2-3c2.7-12.5-0.4-25.1,0.2-37.6c0.2-3.5,2-6.7,1.3-9.9c-1.1-1.8-3-1.3-4.1-2.3
	c-1.1-1.1-0.9-2.6-1.3-4c-0.2-0.9,0.1-1.8,0.1-2.6c0.1-3.3,0.3-6.6-0.2-9.8c-1-6.5,0.4-12.9,0.3-19.4c0-2.3,0-4.6,0-6.9
	c0-2.2,0.7-3.9,3.1-4.4c3.4-0.1,5.5,2.6,8.4,3.7c2.8,2.1,4.7,4.7,4.5,8.4c-0.1,6.9-1.7,13.4-4.5,19.7c-1.4,3.1-1,6.3,0.3,9.2
	c1.7,4,1.9,8.1,1.4,12.2c-0.9,9.4-1.7,18.8,0.8,28.2c0.7,2.6-0.2,5.3-0.8,7.9c-1.6,6.2-1.1,12.2,3.1,17.2c4.5,0.7,9.3-2.9,13.3,1
	c0.7,3.7-2,4.9-4.5,6.9c2.4,0.5,4.7-0.4,6.4,1c0.4,0.4,0.7,0.8,1,1.3c0.5,1.5,0.2,2.9-0.2,4.4c-0.9,3.2-0.3,6.2,1.7,8.9
	c1.6,5.6,0.7,11.4,1.8,17C70.7,413.1,69.8,414.1,69,414.9z"/>
<path class="st27" d="M36,311.9c1.7-0.6,3-2.2,6.1-1.2c-0.9,9.4-4.5,19.3-1.7,28.4c3.1,10-1.5,19.4,0.8,29.4
	c2.1,9.2,2.7,19,4.4,28.8c1.5-3.9,4.2-5.6,7.8-5.8c1.1-1.2,2.1-2.3,3-3.3c2.6,0.4,3.5,1.9,2.5,3.9c-1.8,3.8-0.5,7.1,1.7,9.8
	c3.3,4.1,3.8,8.2,2.3,12.9c-9,0-18,0-27,0c-2.3-2-2.1-4.7-2.1-7.4c-0.1-17.4,0.1-34.8-0.1-52.2c0.9-4.3,0.7-8.7,0.9-13.1
	c1.3-7,1.5-14-0.3-21c-0.3-2.7-0.7-5.4,0.4-8.1C35,312.7,35.5,312.2,36,311.9z"/>
<path class="st28" d="M64,342.9c0.7,12.7,1.3,25.3,2,38c-3.2-0.7-5.9,2.5-9,1.1c-1.3-1.4-0.9-2.8-0.2-4.1c2.1-1.8,6.5-0.6,6.5-5.3
	c-4.4-0.2-8.6,0.4-12.9,2.2c-5-5.8-6.6-12.6-4.9-19.7c1.1-4.5,1-8.3,0.1-12.9c-1.4-7.1-1-14.6-0.1-21.8c0.7-5,1.1-9.8-1.2-14.6
	c-1.4-2.9-1.7-6.1-0.3-9.2c2.9-6.3,4.4-13,5.1-19.8c3.3-0.5,4.2,2.1,5,4.3c0.7,1.9,1.5,3.9,1.8,6c0,0.7-0.2,1.3-0.5,1.9
	c-6.8,10-4.7,20.3-1.1,30.7c0.1,0.3,0.3,0.6,0.2,1C54.2,329.6,59,336.3,64,342.9z"/>
<path class="st28" d="M66,381.9c2.1,4.2,0.5,8.7,1,13C62.8,390.9,65.9,386.3,66,381.9z"/>
<path class="st29" d="M55,286.9c0.3,0,0.7,0,1,0c3.2,2,3.7,5.6,4.2,8.7c1,6.2,3.1,12.2,3.4,18.5c-0.2,1.8-0.2,3.6,0.6,5.3
	c0.1,0.5,0.2,1,0.2,1.5c0,1,0,2-0.2,3c-0.1,0.5-0.4,0.9-0.7,1.3c-3.7,2.6-2,5.6-0.6,8.6c1.9,2.8,0.6,6,1,9c-1.4-0.5-2.8-1-4.4-1.6
	c-0.3-1.3-0.7-2.7-1.1-4.1c-1.3-1.1-2.5-2.1-4-3.4c-1.6-9.7-3.3-19.6-6.1-29.2c-1.8-6.2,3.8-10.6,5.6-16
	C54.1,288,54.6,287.5,55,286.9z"/>
<path class="st28" d="M63,324.9c0,0.7,0,1.3,0,2c0,2.3,0,4.7,0,7c-0.1,1-0.1,1.9-0.2,3.2C59.1,332,59.4,326.5,63,324.9z"/>
<path class="st30" d="M2,414.9c-0.6-0.4-2.1,1-2-1c0.1-1.2,0-2.3,0-3.5c0-54.8,0-109.6,0-164.5c1.6-8,1.6-16,0-24c0-1.7,0-3.3,0-5
	c1.3-1.4,3-1.9,4.9-2c7-0.4,14.1,0.9,21.2-1.4c3.9-1.3,7.5,2,7.7,6.5c0.3,8.9,1.3,18-1,26.8c-0.7,2.8-0.7,5.2,0.7,7.7
	c1.9,3.2,1.2,6.8,1.3,10.2c0,3-0.1,6-0.2,9c-0.1,1.5,0.1,3-0.2,4.5c-3.5,6.7-6,13.6-7.6,21c-0.9,4.3,0.3,8.6,1,12.8
	c2.4,14.5,0.8,29,1,43.5c0.1,6.6-2.3,13.1-0.5,19.8c0.1,11.5-0.6,23.1,0.5,34.6c0.2,1.9-0.3,3.6-1.7,5c-5.3,0-10.7,0-16,0
	c-2.6-2.4-2.5-5.5-1.7-8.4c1.8-6.2,2.2-11.8,0.3-18.4c-1.7-6.1,0.3-12.8,2.4-19c1.3-3.7,1.9-7.4,1.9-11.2c-0.1-4.5-0.1-8.9,0.7-13.4
	c0.6-3.4,0.7-7-0.3-10.4c-2.3-8-1.5-16.2-1.1-24.3c0.1-1.3,0.5-2.7-0.1-3.9c-3-6-2.9-12.9-4.7-19.2c-2.1-7.4-1.3-15.6-3.4-23.3
	c-0.5-1.9,0.5-3.9,1.1-5.8c0.5-1.7,1-3.5-0.6-5.4c-2.1,2.3-1.4,4.9-1.4,7.2c-0.1,48.9,0,97.8-0.1,146.8C4.1,409.1,4.8,412.4,2,414.9
	z"/>
<path class="st31" d="M39,265.9c-2.5-0.1-3.1,1.4-3,3.5c0.1,2.2,0,4.3,0,6.5c-2,0.9-2.1-1.2-3-2c0-2.7,0-5.3,0-8
	c0-5.1,0.8-10.4-3.8-14.1c3.7-12.4,3.9-24.3,1.6-35.9c-4.7-1.9-7.5,0.3-10.6,2c-6.6-1.6-13.4-0.9-20.2-1c0-11,0-22,0-33
	c11.4,8.8,24.4,15.5,35.8,24.8c0,13,0,26.1-0.1,39.3c0,1.3-0.4,2.6,0.3,3.8c0.5,0.5,0.9,1,1.2,1.7c1.4,3.1,0.5,6.8,2.5,9.8
	c0.2,0.7,0.2,1.4-0.1,2.1C39.3,265.6,39.2,265.8,39,265.9z"/>
<path class="st32" d="M33,273.9c1,0.7,2,1.3,3,2c0,6.7,0,13.3,0,20c-2.5,3.3-2,6.7,0,10c0,0.7,0,1.3,0,2c-1.3,1.7-0.8,3.3,0,5
	c0,2.7,0,5.3,0,8c1.1,5.9,0.2,11.9,0.5,17.9c-1.9,5.3-1.9,10.7-0.5,16.1c0,20,0,40,0,60c-3,0-6,0-9,0c-1.8-13.3-0.7-26.7-1-40
	c2.7-14.7,3.3-29.5,2.7-44.5c-0.3-8.3-1.3-16.4-2.2-24.6c-1.1-10,3.3-18.8,6.4-27.9C33,276.6,33,275.3,33,273.9z"/>
<path class="st33" d="M0,221.9c1.6,0.4,2,1.6,2,3c0,6,0,12,0,18c0,1.4-0.4,2.6-2,3C0,237.9,0,229.9,0,221.9z"/>
<path class="st28" d="M33,277.9c-0.1,4.7-2.1,9-3.5,13.4c-2.3,7.2-2.3,14.5-0.6,21.5c1.5,6.1,0.1,12.2,1,18.2
	c1.9,12.8,1.9,25.4-2.7,37.7c-0.7,2,0.4,4.4-1.3,6.2c1.3-15.1,0.4-30.2,1.2-45.2c0.4-6.9-0.2-13.5-1.5-20.1
	C23.5,297.8,27.8,287.8,33,277.9z"/>
<path class="st31" d="M36,305.9c-4.3-3.3-4.3-7.4,0-10C36,299.3,36,302.6,36,305.9z"/>
<path class="st31" d="M36,354.9c-2.4-5-3.2-10,0-15c0.6,0.7,0.6,1.3,0,2C36,346.3,36,350.6,36,354.9z"/>
<path class="st34" d="M75,274.9c0-0.3,0-0.7,0-1c3.5,1.1,6.2,3.1,7.8,6.5c1.2,2.7,3,4.4,5.9,2.6c1.8,0.8,2,2.5,3.5,4.2
	c0-5,0-9.3,0-13.6c2.7,0.6,2.1,2.9,2.3,4.7c0,0.8,0,1.6,0,2.5c0,1.1,0.3,2.1,0.5,3.2c0.1,0.8,0.1,1.7,0,2.5
	c-0.8,3.8-0.3,7.6-0.5,11.4c0,0.5,0,1.1-0.1,1.6c-0.5,1.7-0.9,3.5-1.2,5.2c-0.4,1-1,1.8-1.9,2.4c-0.5,0.2-1,0.2-1.5,0
	c-0.9-0.6-1.4-1.4-1.7-2.4c2.3-10.7-6.1-16.7-10.8-24.3C76.3,278.7,74,277.5,75,274.9z"/>
<path class="st35" d="M101.9,311.9c1.1-0.1,2.2-0.3,3.6-0.5c0.7,3.4,3.3,7.1-2.5,8.5c-0.7,0.6-1.3,0.6-2,0l0,0
	C97.9,316.8,100.8,314.5,101.9,311.9L101.9,311.9z"/>
<path class="st36" d="M101,319.9c0.7,0,1.3,0,2,0c0,1.3,0,2.7,0,4c0,2.3-0.3,4.4-2.1,6.7C98.8,326.7,101.8,323.3,101,319.9z"/>
<path class="st37" d="M97,324.9c0-1,0-2,0-3c-0.6-0.7-0.6-1.3,0-2c1.9-2.5,2-6.2,4.9-8.1c-0.8,2.6-1.7,5.2-1,8.1
	C98.1,320.3,98.6,323.5,97,324.9z"/>
<path class="st31" d="M36,312.9c-1.6-1.7-2.8-3.3,0-5c0,1.3,0,2.7,0,4C36,312.3,36,312.6,36,312.9z"/>
<path class="st26" d="M36,341.9c0-0.7,0-1.3,0-2c0-6.3,0-12.7,0-19C37.6,327.9,37.6,334.9,36,341.9z"/>
<path class="st38" d="M78,303.9c2-1.9,0.1-4.8,1.8-7.2c1.9,2,1.1,5,3.1,6.7c2,0.5,4,1,6.1,1.5c0.3,0.7,0.7,1.4,1,2.1
	c-0.1,1.3-0.2,2.6-0.3,3.9c0,0.5-0.3,0.8-0.8,1c-0.4-0.5-0.8-1-1.4-1.9c-1.1,1.7-2.8,2.1-4.5,2.1c-1.8,2,0,5.8-3.6,5.6
	c-0.8,2.3,0.2,4.5-1.4,6.1c0-3.3,0-6.7,0-10c0-0.2-0.1-0.5-0.1-0.7C78,310.1,75.3,307,78,303.9z"/>
<path class="st39" d="M62,314.9c3.2,1.1,1.6,3.1,1,5C61.6,318.5,62.1,316.6,62,314.9z"/>
<path class="st39" d="M63,320.9c0.5,0.2,1.1,0.5,1.5,0.7c0.2,1.4-0.7,1.9-1.5,2.4C63,322.9,63,321.9,63,320.9z"/>
<path class="st40" d="M51.1,259.9c1.2-0.9,0-2.2,0.3-3.2c9.8,3.4,18.1,8.4,23.6,17.3c0.2,0.3,0.3,0.5,0.2,0.8
	c-0.1,0.3-0.2,0.4-0.2,0.4c-5.2,1.2-8-3.2-11.9-5c-1.6,0.2-1.6,2.3-3.1,2.4c-2,0.1-2.7-1.7-3.9-2.7c-1.1-2.2-2.5-4.3-4.2-6.1
	C51.3,262.5,49.9,261.5,51.1,259.9z"/>
<path class="st31" d="M44,264.9c0.3,1.7,0.7,3.3,1,5c-2.2-1-4.2-2.3-6-4c0,0,0,0,0,0c1-0.8,1.2-2.5,2.9-2.5
	C42.9,263.5,43.4,264.2,44,264.9z"/>
<path class="st41" d="M44,264.9c-0.7-0.3-1.3-0.7-2-1c-1-0.8-2,1-3,0c-1.3-0.7-2.4-1.7-3-3.5c0.5-2,0.3-4.3,0.1-6.6
	c0.7,0.3,1.3,0.6,2,0.9c5.2,2.2,9.9,5.1,13.7,9.4c2.2,0.3,2.7,1.7,2.2,3.7c-2.4,0.6-3.6-1.4-5.3-2.4C47.1,264.4,45.7,263.8,44,264.9
	z"/>
</svg>
