<?xml version="1.0" encoding="utf-8"?>
<!-- Generator: Adobe Illustrator 26.1.0, SVG Export Plug-In . SVG Version: 6.00 Build 0)  -->
<svg version="1.1" id="Layer_1" xmlns="http://www.w3.org/2000/svg" xmlns:xlink="http://www.w3.org/1999/xlink" x="0px" y="0px"
	 viewBox="0 0 283 415" style="enable-background:new 0 0 283 415;" xml:space="preserve">
<style type="text/css">
	.st0{fill:#55332C;}
	.st1{fill:#441C14;}
	.st2{fill:#4F241F;}
	.st3{fill:#44201A;}
	.st4{fill:#563027;}
	.st5{fill:#4D251D;}
	.st6{fill:#491E16;}
	.st7{fill:#4F332F;}
	.st8{fill:#4F2921;}
	.st9{fill:#411B1A;}
	.st10{fill:#452722;}
	.st11{fill:#4E2F28;}
	.st12{fill:#4E2B25;}
	.st13{fill:#44221E;}
	.st14{fill:#59322B;}
	.st15{fill:#572B23;}
	.st16{fill:#532D26;}
	.st17{fill:#4A2420;}
	.st18{fill:#D59B8B;}
	.st19{fill:#966E66;}
	.st20{fill:#865E54;}
	.st21{fill:#875951;}
	.st22{fill:#926D63;}
	.st23{fill:#89625B;}
	.st24{fill:#8C5D55;}
	.st25{fill:#95645E;}
	.st26{fill:#8A5B51;}
	.st27{fill:#9E6B5B;}
	.st28{fill:#5F3A34;}
	.st29{fill:#724943;}
	.st30{fill:#75493D;}
	.st31{fill:#6A3E35;}
	.st32{fill:#70473F;}
	.st33{fill:#6B4139;}
	.st34{fill:#65443D;}
	.st35{fill:#623B33;}
	.st36{fill:#724034;}
	.st37{fill:#764338;}
	.st38{fill:#64433E;}
	.st39{fill:#71483F;}
	.st40{fill:#784A40;}
	.st41{fill:#68423B;}
	.st42{fill:#72453F;}
	.st43{fill:#6E3E3C;}
	.st44{fill:#6A3D34;}
	.st45{fill:#784A3E;}
	.st46{fill:#6D4137;}
</style>
<path class="st0" d="M229.9,32c-1.7,1.7,0.1,3.3,0.1,4.9c-0.6,0.8-0.1,1.9-0.7,2.6c-0.5,0.5-1.1,0.9-1.9,0.8
	c-2.7-1.3-1.6-4.8-3.6-6.5c-1.1-2.7-3.7-4.7-3.8-7.8c0.8-1.3,0.8-2.7-0.1-4c5.1-0.3,6.7,3.7,9.1,7C229.5,30,230.7,30.7,229.9,32z"/>
<path class="st1" d="M229.9,32c-0.3-1-0.6-2-0.9-3c2.1,1.2,2.6,4,5,4.9c0.5,1.4,1,2.9,1.5,4.3C233.1,36.6,230.8,34.9,229.9,32z"/>
<path class="st2" d="M239.9,39.2c0,0.6-0.1,1.2-0.2,2c-1.2-1.1-2-1.9-0.8-3.2C239.3,38.4,239.6,38.8,239.9,39.2z"/>
<path class="st3" d="M245.9,68c-1.1,1.2-2.6,0.9-4,1c-2.1,0.2-2.6-1.4-3.3-2.8c-1.1-3.4-2.9-6.7-3.1-10.4c0.1-1.4,0.4-2.7,2-3.2
	c2.4,0.9,2.9,2.8,2.6,5.1C241.9,61.3,241.4,66,245.9,68z"/>
<path class="st4" d="M237.9,53c-0.9,0.8-0.9,1.9-0.9,3c-3.3-0.5-2.9-4.2-5-5.7c-0.5-1.6-0.8-3.3-0.5-5c1.7-2.1,3.3,0.3,4.9,0.1
	c1.4,0.9,1.5,2.6,2.6,3.7l0,0c0.6,1,2,1.6,2.1,3c-0.3,0.3-0.6,0.7-1,1C239.3,53,238.6,53,237.9,53z"/>
<path class="st5" d="M235,104c-0.3-0.7-0.7-1.3-1-2c-0.5-0.5-0.5-1.2-0.5-1.9c0-0.5,0.4-0.9,0.3-1.4c-0.4-0.4-1.2-0.3-1.6-0.8
	c-1.6-1.5-1.7-3.5-1.7-5.5c0-0.8,0.1-1.5,0.5-2.1c0.2-0.4,0.5-0.8,0.8-1.2c1.8-2.3,1.5-4.7,1.2-7.4c-0.2-2.4-1-6.3,4-5.6V76
	c0.3,3,0.6,5.9,1,8.9c-0.6,2.6-1.3,5.3-1.8,7.3c0.6,2.8,2.7,3.4,4,4.8c-1.9,2-1.4,5.4-4.2,6.9C235.6,103.9,235.3,104,235,104z"/>
<path class="st6" d="M236,46.1c-0.2,0.4-0.4,0.8-0.6,1.2c-1.3-0.6-1.6-2.3-3.1-2.4c-2.7-1-3.9-2.9-3.3-5.8c0.4-0.7,0.7-1.4,1.1-2.1
	c1.6,2.4,3.3,4.7,4.9,7.1C235.9,44.4,236,45.2,236,46.1z"/>
<path class="st7" d="M225,111c0.2-2.7,0.5-5.3,0.7-8c0.4,0,0.8,0,1.2,0c0,2.3,0,4.6,0,7C226.3,110.3,225.7,110.6,225,111z"/>
<path class="st8" d="M229.9,66.9c0-2.6,0.1-5.3,0.1-7.9c0.3,0,0.7,0,1,0c1.5,1.7-0.5,3.3,0,5c0.9,0.9,0.7,1.9,0.3,2.9
	C230.9,67.3,230.4,67.3,229.9,66.9z"/>
<path class="st9" d="M212.9,106.9c0.8-0.9,2.1-1.5,2.1-3c3.4-1,6-0.7,6.9,3.6C218.5,108.9,215.8,107.4,212.9,106.9z"/>
<path class="st10" d="M225,78c-0.8,2,0.5,4.7-2.1,6.1c-3.2,0.9-3.1-1.3-2.9-3.2c0.2-2.1,1.2-4,2.4-5.7c1.1-1.2-0.4-4.5,3.1-3.8
	C226.9,73.6,226.8,75.9,225,78z"/>
<path class="st10" d="M232,78.9c0.3,1.4,0.6,2.8,0.8,4.2c-3,0.7-1.2-2.6-2.6-3.2c-1.4-0.7-2.9-1.3-4.3-2c-0.8-0.7-0.4-1.7-0.5-2.5
	c0.1-0.4,0.2-0.9,0.5-1.2c0.6-0.9,0.8-2.2,2.1-2.6c3.3,1,2.6,4.4,3.9,6.6C232,78.5,232,78.7,232,78.9z"/>
<path class="st11" d="M182,55c0.4,2.4-1.8,3.8-2,6c-1,1.3-1.8,2.7-3,4.1c-3.1,0.6-5.9,2.6-9.3,2.2c-1.1-0.8-1.6-1.9-1.7-3.1
	c1.2-4.1,3.6-7.4,6.7-10.2c-0.1,0,0.2-0.1,0.2-0.1l-0.1-0.3c-0.5,0.6-1.1,0.9-1.8,0.4c-1.6-1.9,0.3-2.6,1.2-3.6c1.9-2,3.8-4,5.6-6
	c-1.1-1.2-2.1,0.7-2.9-0.4c1-1.7,1.5-3.9,4-4c0.9,0.8,1.9,1.7,3,2.7c0.6-0.2,1.3-0.4,2-0.7c1.4,3.1-1.6,4.6-2.5,7
	c-0.7,2-2.7,3.3-2.9,5.5C179.6,56.5,180.8,55.4,182,55z"/>
<path class="st12" d="M152,93c-1.7,0-2.7,1.3-4,2h-0.5H147c4-4,8-8,12-12c1.3-3,2.1-6.1,3.5-9c1.1-2.4,2.1-5.3,5.7-5.1
	c2.2,2.4,0.4,5.3,1,7.9c-1.1,4.8-4.3,8.1-7.8,11.1c-2,2.3-4.9,3.4-7.4,5.1C153.3,93.3,152.6,93.4,152,93z"/>
<path class="st13" d="M168,69c-4.5,3.7-4.4,10.4-9,14c0.3-3.3,0.7-6.7,1-10c0.8-4.2,2.9-7.4,7-9c0.3,1,0.7,2,1,3
	C168.6,67.7,168.5,68.3,168,69z"/>
<path class="st14" d="M168,69c0-0.7,0-1.3,0-2c1.2-0.9,2.4-1.8,3.8-2.9c3.5,1.4,5.7-1.3,8.2-3.1c-0.3,1.7-0.7,3.3-1,5l0,0
	c-3.2,3.8-5,8.9-9.7,11.4c-0.5,0-0.9-0.1-1.3-0.4C166.8,74.3,167.7,71.6,168,69z"/>
<path class="st15" d="M199,95.9c-1.6-2-3.7-2.1-6-1.9c-0.4-0.3-0.7-0.7-1.1-1c0.1-1.3,0.1-2.6,0.2-4.1c2.6,0.8,3.5,4.6,6.8,3.2
	C198.9,93.3,199,94.6,199,95.9z"/>
<path class="st16" d="M185,82c-0.3,3.8,3,4.2,5.3,5.5c1,1.6,1,3.1-0.3,4.5c-1.4-0.6-2.2-2.2-4-2c-0.2,0.3-0.5,0.5-0.7,0.8
	c-0.1,0.3-0.1,0.7-0.1,1c0.2,0.8,0.3,1.6-0.1,2.3c-0.3,0.3-0.7,0.5-1.2,0.6c-1.3,0.1-2.2-0.4-2.9-1.5c0.2,1,0.2,1.9-0.2,2.8
	c-0.6,1.2-1.7,1.5-2.8,1.9c-3.2-1.4-7,0.6-10-2c-0.6-0.6-0.6-1.2-0.2-1.9l0.3-0.1c0.8-0.7,1.9-0.6,3.2-0.8c-2-0.8-3.9-1.1-5.3-2.2
	c2.4-2.1,5.6-0.2,8.4-1.7c0.7-2,1.4-4.3,2.1-6.5c1.2,0,1.3,0.6,1.5,1.3c0.4,0.5,0,1.1,0.2,1.6c0-0.6,0.3-1.1,0.7-1.6
	c0.3-1.3,0.7-2.6,1-4c0-0.6,0.6-0.7,1-1.1l0,0c2-0.9,2.1,1.2,3,2C184.4,81.3,184.7,81.6,185,82z"/>
<path class="st17" d="M184,94c0.4,0,0.8-0.1,1.2-0.1c0.7-0.5,1.4-0.6,1.8,0.3c0.9,2.8,3.8,5.4,1,8.7c-0.7,0.1-1.3-0.1-1.8-0.5
	c-1.3-1.2-1.9-2.8-1.8-4.5c0.4-0.6,0.4-1.2-0.3-1.7C183.7,95.5,183.4,94.8,184,94z"/>
<path class="st18" d="M208.1,118.9c0,0.7,0,1.3,0,2l-0.2,0.1c-4.8-1.3-6.5-4.1-5.4-8.9c0.5-0.4,0.9-0.5,1.5-0.1l0,0
	C205.4,114.2,207.8,115.9,208.1,118.9z"/>
<path class="st19" d="M242.9,91.9c-0.4,0.6-0.8,1.3-1.7,2.5c-0.1-1.9-0.2-3.2-0.3-4.5c0.3-0.9,0.2-1.9,1.5-2.4
	c0.2,0.5,0.4,1,0.7,1.4C243.1,90,243,91,242.9,91.9z"/>
<path class="st20" d="M239,49c2-1.5-0.2-3.4,0.4-5.2c0.7,0.5,1.2,0.9,1.7,1.2c0.3,0.3,0.5,0.7,0.8,1c0.3,1.9,0.7,3.9,1,5.7
	c-0.6,0.8-1.2,0.5-1.8,0.2C239.6,51.5,238.4,50.8,239,49z"/>
<path class="st20" d="M244,55c-0.4,2,1.9,4,0,6c-0.6-2-1.2-4-1.8-6.3C243.1,54.8,243.5,54.9,244,55z"/>
<path class="st21" d="M238.9,89.9c-1.2-1-0.8-2.5-0.9-3.8c1-0.2,1.4-2.1,2.9-1.1C240.3,86.6,239.6,88.2,238.9,89.9z"/>
<path class="st22" d="M242.1,70c-3.4,0-3.3-2.6-4.2-5.4c1.1,0.7,1.6,1,2.2,1.4c0.6,1,1.2,2.1,1.8,3.1C242,69.3,242,69.6,242.1,70z"
	/>
<path class="st23" d="M236,46.1c-0.4-0.7-0.7-1.4-1.1-2.1c4.8-1.2,2.8,3.3,4.1,5C238,48.1,237,47.1,236,46.1z"/>
<path class="st24" d="M205,112c0.4-0.4,0.7-0.7,1.1-1.1c1.5,0.6,3,1.1,5,1.8c1.3,0,2.2-2.1,4-1.7c-0.3,1.7-1.8,2.2-3.1,2.9
	C208.9,116,206.7,114.9,205,112z"/>
<path class="st24" d="M208.1,118.9c-1.5-2.2-3.6-4.1-4.1-6.9c0.3,0,0.7,0,1,0c1.4,2.3,3.7,4,4.1,6.9
	C208.8,118.9,208.5,118.9,208.1,118.9z"/>
<path class="st24" d="M206,96c0,0.3-0.1,0.6-0.1,0.8c-0.7,1.4-1.4,2.7-2.9,3.2c-0.5,0.4-1,0.8-1.7,1.4c4.6,2.7,2.2,7,2.7,10.6
	c-0.3,0-0.6,0-0.9-0.1c-0.1-1.9-0.1-3.9-0.5-5.8c-0.3-1.5-1.1-2.4-2.7-1.1c-2.6,2.4-5.5,3.5-9.1,2.2c-0.5-0.2-0.9-0.5-1.3-1
	c-0.7-1.3-0.6-2.5,0.4-3.6c5.4-1.4,10.1-4.4,14.8-7.3C205.3,95.4,205.7,95.6,206,96z"/>
<path class="st25" d="M156,141c0.2,3.2-0.9,6.8,3.2,9.2c2-0.1,4.4-0.3,6.7-0.4c1.4-1.5,1.9-3,1.1-4.7c1.4-0.2,2.8-0.4,4,0.7
	c0.4,0.7,0.8,1.4,0.9,2.2c-0.7,0.6-1.3,1.3-2,1.9c-3.8,1.8-7.8,2.4-11.9,1.8C154.6,148.6,154,145,156,141z"/>
<path class="st25" d="M165,98c-2.3,0.6-4.3,1.9-7,1.9c-2.5,0-4.7,2.2-4.8,4.9c-0.4,6.6-0.4,13.1,2.5,19.4c2.4,5.4,2,11.2,0.4,16.8
	c-0.4-1.8-0.7-3.6-2-5l0,0c-0.6-8.1-2.2-16-3-24l0,0c-1.7-4.5,0.7-8.6,1.3-12.5c2.7-3.7,6.5-3.5,10-3.6
	C163.6,95.8,165.1,96.1,165,98z"/>
<path class="st26" d="M165,98c-3.6-1.6-7,1-10.4,0c-3,4.5-3.9,9.1-3.6,14c-2.7-4.3,0.6-8.7,0-13c3.7-4.5,8.5-5.7,14-5l0,0
	c0.9,1.4,3,1.4,3.6,3.1c0.1,0.7,0,1.4-0.6,1.9C167,98.7,166,98.3,165,98z"/>
<path class="st26" d="M151,112c1.8,4.4,1.1,9.5,3.9,13.6c-0.8,3.5-1,6.9-0.9,10.3C151.6,128.1,150.4,120.2,151,112z"/>
<path class="st27" d="M191,69c-1,3-2,6-3,9c0.1,1.7,0.5,3.4-0.9,4.8c-0.4-0.2-0.8-0.5-1.2-0.7c-0.4-5.9-0.7-11.7-1-17.2
	c1.1-1.6,2.1-0.8,3.1-0.9c-0.2,3.2-1.7,6.3-0.7,9.6C189.8,73.1,187.2,68.5,191,69z"/>
<path class="st27" d="M189,84.1c1.7,0.3,3.3,0.6,5,0.9c0,0.4,0,0.8,0,1.2C191.5,87.4,190.6,85,189,84.1z"/>
<path class="st28" d="M244,48c0,1.1,0,2.1,1,2.9c0.4,0.7,0.7,1.4,1.1,2.1c0.7,0.7,1,1.4,0.7,2.4c-0.3,0.8-1,1.2-1.6,1.8
	c-1,1.4,0.2,2.5,0.5,3.6c0.8,2.2,1.9,4.4,1.1,7c-0.3,0.4-0.7,0.7-1.2,0.9c-3.5,0.4-3.7-2.6-4.8-4.7c-0.9-1.6-1.3-3.4-1.7-5.2
	c0.1-1.8,0.4-3.7,0.2-5.5c0.1-0.7,0.4-1.3,0.8-1.9c1.2-1.6-0.1-4,1.8-5.3C242.6,46.7,243.3,47.3,244,48z"/>
<path class="st29" d="M246,56c0.9,0.7,1.6,2,3,2c0.6,0.7,1.2,1.4,1.9,2.1c0.6,2.4-2.3,2.3-2.9,3.9c0,0.3,0,0.7,0,1
	c0.9,2.4,0.5,4.7,0.1,7.4c-3.8-0.4-2.8-2.5-2.1-4.4c-0.1-2.5-1.1-4.7-2.1-6.9c0.9-2-1.6-4,0-6C244.7,55.3,245.3,55.7,246,56z"/>
<path class="st30" d="M244,75c-0.2,2.3,3.1,3.5,2.1,6.1c-2.7,0.1-2.7,3-4.3,4.3c-1.4,0.5-2.8,1.7-4.4,0.5c-0.3-0.4-0.5-0.8-0.7-1.3
	c0-2.7-1.6-5.2-1-8c0.4-1.4,0.9-2.7,2.4-3.8c1.7-0.1,3.6,0.6,5.4-0.2C244.5,73.3,244.8,74,244,75z"/>
<path class="st28" d="M244,75c-0.3-0.7-0.6-1.4-1-2c-1.3-0.6-1.7-1.7-1.7-3c0.1-0.5,0.3-0.9,0.6-1.3c1.2-1.2,2.8,0.5,4-0.6L246,68
	c1.2,0.8,0,2.4,1,3.8c1.5-2.4,0.7-4.7,0.9-6.8c1.8,2.5,0.6,5.4,1,8c1.2,0.8,2.9,1.1,2.9,3c0.1,2-2.1,1.7-2.9,2.9
	C246.4,78.9,246.6,75.1,244,75z"/>
<path class="st31" d="M241,85c2.2-1.5-1.2-4.6,2.2-6.1c1.3-0.3,1.5,1.9,2.9,2.2c-0.4,2.9-1,5.7-2.9,8c-1.3-0.1-1.2,1.4-2.1,1.8
	c-1.3,0.7-2.3,0.5-2.9-0.9C237.7,87.4,239.3,86.2,241,85z"/>
<path class="st32" d="M238.9,89.9c0.6,0.9,1.3,0.4,2,0.1c1,0.3,0.3,2.4,2,2c0.1,1.4,0.1,2.8,0.2,4.1c-0.1,0.6-0.1,1.3-0.2,1.9
	c-0.6,0.6-1.3,0.8-2.1,0.8c-0.8-0.2-1.5-0.6-2.2-1.1c-4.9-4.1-5.2-9.3-0.7-12.7c0,0.4,0.1,0.8,0.1,1.1
	C239.5,87,237.9,88.8,238.9,89.9z"/>
<path class="st33" d="M243,42c0,1.4-0.7,2.3-1.9,3c-0.3,0.3-1.3,0.1-0.6,1.1c0.7,1.1,0.6,2.2-0.6,3c-0.4,0.1-0.9,0.1-1.3-0.1
	c-1.8-1.2-1.9-4.1-4.5-4.5c-2.4-2.1-4.1-4.7-5.4-7.6c-0.4-1.9-1.6-3.8,0.7-5.3c2.1-0.4,1.9,4.1,4.7,2.2c0.4-0.3,0.8-0.7,1.2-1
	c1.9,1.2,2.8,3.2,3.7,5.1c-0.5,1-0.1,1.3,0.9,1.2c0.4,0,0.8,0,1.2,0C241.7,40.1,242.3,41.1,243,42z"/>
<path class="st34" d="M235.9,103.9c1.7-2.1,0.7-5.9,4.2-6.9c0.3,0.3,0.6,0.6,0.9,0.9C238.7,99.5,240,103.9,235.9,103.9z"/>
<path class="st35" d="M232.9,90c0-2.3,0-4.6,0-6.9c-1-1.1-1.4-2.5-1.6-3.9c0.6-5.1,0.5-10.1-1.1-15.1c-0.8-1.9,0-3.5,0.8-5.1
	c-0.2-1.3-0.4-2.5-0.6-3.9c0.6-0.4,1.2-0.8,1.8-1.2c0.6,0.7,1.2,1.5,1.8,2.2c-1.2,7,2.8,13.2,3,19.9c-2.9,1.3-2.7,3.6-2.4,6.2
	C234.9,84.9,236.2,88,232.9,90z"/>
<path class="st36" d="M207,99c-0.5,1-0.9,2.1-1.5,3.3c2.6,0.5,1,4,3.5,4.6c-2,0.6-2.9,1.9-2.9,4c-0.1,0.5-0.3,0.9-0.7,1.2
	c-0.2,0.1-0.5,0.2-0.7,0.2s-0.5-0.1-0.7-0.1c-0.2-0.1-0.4-0.3-0.6-0.4c-1.8-2.9,0.1-6.8-2.8-9.6c-0.8-0.7,0.3-2.1,1.3-2.8
	c1.2-0.6,2.5-1,3.9-1.1C206.3,98.5,206.7,98.7,207,99z"/>
<path class="st37" d="M205,112c2.4,0.3,4.3,2.7,7,2c-0.7,1.7-1.4,3.5-2.1,5.2c-0.3-0.1-0.5-0.2-0.8-0.3
	C206.9,117.1,204.4,115.4,205,112L205,112z"/>
<path class="st35" d="M228,68c0.4-0.4,0.7-0.7,1.1-1.1c0.3,0,0.6,0.1,0.8,0c0.3,0,0.7,0,1,0c-0.6,4.1,1.3,7.9,1.1,12
	c-3-1.3-2.3-4.8-4-6.9C226.4,70.7,228.9,69.4,228,68z"/>
<path class="st36" d="M216,87c0.3,2.6-1.6,4.6-2.1,7c-1.3,1-2.6,2-3.8,3C211.2,93.2,213,89.7,216,87z"/>
<path class="st38" d="M228,68c1.4,1.3-0.2,2.7,0,4.1c-0.1,1.1-0.1,2.1-1,2.9C227,72.6,226.7,70.2,228,68z"/>
<path class="st39" d="M190,56c0,0.7,0,1.3,0,2c-0.6,0.8-0.1,1.8-0.7,2.6c-1.1,1.3-2.7,0.8-4.2,1.3c-1.3,2.6-2.3,6.1-6.6,3.8
	c-1.1-1.6-0.3-3.3-0.2-5c0.3-2.5,2.7-3.5,3.7-5.6c0.1-2.2,2.1-3.2,3.1-4.9C185.8,52.8,188.4,54,190,56z"/>
<path class="st40" d="M201,91.9c1.2,1.6,3,0.7,4.6,0.9c-0.3,1.3-0.5,2.2-0.7,3.2c-3.9,3.8-7.9,7.4-14,7c-2.5-3-0.4-6.4-0.7-9.6
	c0.3-0.5,0.7-0.8,1.2-0.9c0.8,0,1.4,0.3,2,0.8c1.1,1,1.3,2.8,2.8,3.6c0.7-0.3,0.7-1,0.9-1.5c0.3-1.2,0.1-2.4,0.5-3.5
	c0.2-0.5,0.6-0.9,1-1.2C200,90.4,201,90.3,201,91.9z"/>
<path class="st41" d="M160,87c1.3,2,2.7,4,4,6c-3.6-1-7.3-0.7-11-0.9C155.4,90.3,157.7,88.7,160,87z"/>
<path class="st42" d="M168,99c0-0.7,0-1.3,0-2c-0.2-0.3-0.3-0.5-0.3-0.8c0.1-0.3,0.1-0.4,0.2-0.4c3.4-0.2,6.8-0.7,10,0.9
	c0.6,0.3,1.1,0.8,1.4,1.3c0.5,0.9,0.6,1.9,1.2,2.8c0.8,1.7,3.6,1.6,3.7,4c-0.3,0.4-0.7,0.6-1.1,0.6c-1.4-0.1-2.9,0.3-4.2-0.3
	c-1.6-0.4-3.1-0.9-4.7-1.3c-0.4-0.3-0.8-0.6-1.2-0.9C171.3,101.6,169.7,100.3,168,99z"/>
<path class="st43" d="M186,129c0,0.3,0.1,0.5,0.2,0.8c-2.3,0.2-4.6,0.6-6.9-0.3c-2.2-0.8,0.6-3.9-2.2-4.4c0.3-0.4,0.5-0.7,0.8-1.1
	c0.8-0.1,1.6-0.1,2.5-0.2C181.6,126.2,182.7,128.7,186,129L186,129z"/>
<path class="st44" d="M185,82c0.3,0,0.6,0,1,0c0.6-0.1,1.2-0.2,1.9,0c0.8,0.2,1.6,0.6,2.3,1.1c1.5,0.8,2.4,2.3,3.9,3
	c1.5,1.8,4.4,2.1,5.1,4.7c-0.1,0.4-0.1,0.8-0.2,1.2c-1.3,1.5-2.8,2-4.3,0.6c-1.3-1.3-1.9-0.3-2.7,0.4c-0.4,0-0.7,0.1-1.1,0.1
	c-0.3-0.4-0.6-0.7-0.9-1.1c0.1-2.3-1.6-3.3-3.3-4.4C184.8,86.3,182.9,84.7,185,82z"/>
<path class="st44" d="M199,95.9c1.6,4.4-1.6,3.6-4.4,3.9c-0.6-2-1.1-3.9-1.6-5.8C195.7,92.3,197.8,92.8,199,95.9z"/>
<path class="st45" d="M181,79c-0.3,0.4-0.7,0.7-1,1.1c-3.8-0.5-7.5-1.4-11-3.1c3.4-3.6,4.6-9.2,10.1-11
	C179.6,70.3,178.8,74.9,181,79z"/>
<path class="st45" d="M184,80.9c-1-0.7-2-1.3-3-2c0.7-2.8,1.4-5.7,2.1-8.5C184.2,73.9,182.6,77.5,184,80.9z"/>
<path class="st46" d="M179,84c0,1.7,0.4,3.5-1.1,5.4c-1.5-2.1-0.6-3.8,0.1-5.4C178.3,84,178.7,84,179,84z"/>
</svg>
