<?xml version="1.0" encoding="utf-8"?>
<!-- Generator: Adobe Illustrator 26.1.0, SVG Export Plug-In . SVG Version: 6.00 Build 0)  -->
<svg version="1.1" id="Layer_1" xmlns="http://www.w3.org/2000/svg" xmlns:xlink="http://www.w3.org/1999/xlink" x="0px" y="0px"
	 viewBox="0 0 283 415" style="enable-background:new 0 0 283 415;" xml:space="preserve">
<style type="text/css">
	.st0{fill:#331E18;}
	.st1{fill:#3F201A;}
	.st2{fill:#291813;}
	.st3{fill:#331E1B;}
	.st4{fill:#3D2119;}
	.st5{fill:#271314;}
	.st6{fill:#341812;}
	.st7{fill:#2F1C1C;}
	.st8{fill:#36211C;}
	.st9{fill:#3C2421;}
	.st10{fill:#3A1F21;}
	.st11{fill:#2F1D1B;}
	.st12{fill:#311213;}
	.st13{fill:#311417;}
	.st14{fill:#270F0B;}
	.st15{fill:#2D0E0B;}
	.st16{fill:#2A1310;}
	.st17{fill:#361D1D;}
	.st18{fill:#3A1F1A;}
	.st19{fill:#32140E;}
	.st20{fill:#3F221E;}
	.st21{fill:#865346;}
	.st22{fill:#2C130D;}
	.st23{fill:#8D5D4C;}
	.st24{fill:#300B08;}
	.st25{fill:#30181B;}
	.st26{fill:#2B0D0C;}
	.st27{fill:#69392C;}
	.st28{fill:#613125;}
	.st29{fill:#613227;}
	.st30{fill:#62312C;}
	.st31{fill:#764338;}
	.st32{fill:#433334;}
	.st33{fill:#292025;}
	.st34{fill:#8A6C65;}
	.st35{fill:#27191D;}
	.st36{fill:#BA8E92;}
	.st37{fill:#825659;}
	.st38{fill:#996E73;}
	.st39{fill:#CA7389;}
	.st40{fill:#5B2C1C;}
	.st41{fill:#D28090;}
	.st42{fill:#C7B1B7;}
	.st43{fill:#2C1922;}
</style>
<path class="st0" d="M201,9c1.9,0.9,3.3,3.2,5.9,2c4.3,3.7,8.7,7.3,13,11c2.1,1.2,2.2,2.6,0.5,4.2c-3,1.1-5-1.7-7.6-2
	c-1.3-0.6-2.4-1.4-3.2-2.6c-3.9-1.8-6.1-5.4-8.5-8.7c-0.4-0.3-0.6-0.7-0.8-1.2C199.9,10.7,200.3,9.8,201,9z"/>
<path class="st1" d="M235,104c-0.1,2-2,4.1,0,6.2c2.3,0.3,2.1-2.9,4-3.1c1.4,3.6-3,4.9-3,7.9c-1.4,1.5,0.7,4.1-1.6,5.4
	c-0.7,0.1-1.3-0.1-1.9-0.7c-0.8,2.6-2,4.5-5.2,3.7c-1.5-2.2,0.8-3.5,1-4.7c-0.2,1.3-2.7,2.8-0.7,5.1c1.1,6-4.3,6.9-7.5,9.5
	c-1.4,0.3-2.4,1-3.3,2c-1.1,1.1-2.5,1.9-3.5-0.3c-0.1-3.2,1.5-5.9,2.3-8.9c1.2-1.8,0.3-3.8,0.5-5.7c0-0.6-0.3-1-0.8-1.4
	c-0.4-0.2-0.7-0.5-1-0.8c-2.3-3,0.1-5,1.5-7.3c3.6,0.5,5.5,3.5,8,6.3c1.2-2.4-1.5-4.6,0.1-6.6c0.6-0.7,1.4-1.2,2.3-1.6
	c1.1-0.5,2.3-0.3,3.2-0.5c-3.4-4,0.5-6,2-8.5c1.7-0.4,2.5,0.3,3.3,1.3C235.3,102.1,235.6,103,235,104z"/>
<path class="st2" d="M148,12c3.1,0.1,6.2-1.7,9.3-0.5c-0.1,1.8-1.9,1.5-2.3,2.5c-1.6,3.9-2,8.2-4.3,11.9c-4.6,2-5,1.8-7.7-5.1
	c-2.4-1.7-5.7,0.5-8-1.7c0,0,0,0,0,0c2.8-2.8,6.5-4.3,10-6C146.1,13,147.2,13,148,12z"/>
<path class="st3" d="M110,134c-1-4.1-3.3-8.1-1.1-12.7c3.2,0.6,5.7-1.5,8.5-1.9c0.9-2.2-1.2-3.3-1.2-5.4c0.6-1.8,0.1-4.5,3.1-5.8
	c1-0.4-0.1-1.4-0.3-2.1c0.7-1.4,2-1.5,3.3-1.5c0.8,0,1.5,0.1,2.2,0.4c0.4,0.2,0.7,0.6,1,1c0.1,1.6,1.1,2.8,2.2,4
	c0.8,1.7,0.6,3.7,1.1,5.4c0.2,1,0.2,2,0,3c-0.2,4.7-0.3,9.4,1.9,13.8c0.8,1.5,1.5,3.3,0.9,5.2c-1.2,2-3,1.7-4.8,1.1
	c-2.5-1.8-2.9-4.7-3.5-7.4c-0.4-1.7,0-3.7-2.4-4.9c-3.5,1.9-4.6,5-4.1,8.9c0.2,2.1,1.1,4.4-1.7,5.5C111.1,140.1,111.3,136.5,110,134
	z"/>
<path class="st4" d="M225.1,58.1c-0.3-2.6-1-5.2-0.8-7.8c0.1-1.9-0.7-4.6,2.6-5.2c-0.8-1.8-1.5-3.2-2.3-5.1c1.7-2.1-0.3-4.6,0.4-7.1
	c2.4,1.7,1.2,5,3,7c3.4,3.7,4,8.5,4.8,13.2c-0.3,1.9-0.7,3.8-1.3,5.6c-0.2,0.3-0.6,0.6-1,0.7c-1.3,0.2-2.4,1.8-3.9,0.7
	C225.7,59.8,227,57.8,225.1,58.1z"/>
<path class="st5" d="M180,160c-1.7,0.3-3.8-1.6-5,1c-0.4,0.3-0.8,0.3-1.2,0c-0.5-2.6-1.6-5.5,2.1-6.8c1.6,0,2.9,1.2,4.4,1.2
	c2.3-0.6,2.2-2.6,2.6-4.2c1-2.1,2.6-2.3,4.5-1.6c1.6,0.6,3.2,0.8,4.8,0.1c2.8-0.1,5.6-0.6,8.3,0.4c0.8,0.5,1.8,0.8,2.5,1.5
	c0.6,0.4,1,0.9,1.4,1.5c0.3,0.6,0.5,1.3,0.3,1.9c0.8,1.3,1.5,2.5,2.3,3.8c-0.6,0.6-1.4,0.5-1.7-0.1c-2.2-4.4-5.9-5.1-10.4-4.9
	c-4.4,0.2-8.2,0.9-10.9,4.8C183.1,160.1,181.5,159.9,180,160z"/>
<path class="st6" d="M231.9,92c0.4,2,0.7,4,1.1,6c0.8,0.4,1.5,0.9,1,2c0,0.7,0,1.3,0,2c-0.5-0.4-1-0.7-1.7-1.2
	c-1.2,2.1-2.2,4-3.3,5.8c1.4,1.4,1.7-0.8,2.9-0.2c-0.1,3.3-2.1,4-5,3.6c-0.6-0.6-0.9-1.3-1-1c0,0-0.1,1.1-0.9,2.1
	c-1.8,2.5,2.2,0.6,1.9,2.3c-0.5,1.7-1,3.4-1.6,5.5c-2-1.6-2.5,0.8-4,1.5c-0.2-1.9-0.3-3.5-0.5-4.9c-1.1-1.5-1.9,0.1-3-0.2
	c-1.4-0.9-0.2-3.2-1.8-4.1c-0.4,0.4-0.8,0.7-1.2,1c-4.4,2.7-5.6,2.6-9.5-1.4c-0.4-2.7,0.8-4.3,3.2-5.1c1.2-0.5,2.5-0.5,3.8-0.4
	c1.7,0.2,3.4,1.1,5.6,0.7c-1.1-0.8-2.1-0.8-3.1-1.1c-1.4-0.5-2.8-1-3.6-2.6c-0.8-2.8,0.7-4.9,3-6.5c1.5-1,3.2-1.8,3.4-3.9
	c0.3-2.4,1.5-4.4,2.8-6.3c0.4-0.8,1-1.5,1.4-2.4c1.9-1.4,0.9-4.5,3.2-5.7c0.4-0.2,0.9-0.3,1.4-0.3c4.5,0.1,6.1,3.4,7.6,6.8
	c-0.1,2,0.4,4.2-1,6.1c-0.3,0-0.6,0-0.9,0c-1.9,0.2-2.4-2-4-2.5c-1.5,2.4-0.5,5.3-1.9,7.8c1.2,0.3,2.6,0.2,3,1.5
	c0.3-0.6-0.3-1-0.2-1.6C229.1,93.4,229.5,91.7,231.9,92z"/>
<path class="st7" d="M227,123c-0.5,0.1-0.9,0.1-1.9,0.3c1.4-3.6,3.1-6.6,3.8-11.5C230.1,116.8,230.1,116.8,227,123
	C227,123,227,123,227,123z"/>
<path class="st8" d="M167,16c-1.8,0.1-3.7-0.2-5.7,1c-1,3.2-5.5,4-6.2,8c-1.3,1-2.7,0.9-4,0c-0.3,0-0.7,0-1,0
	c-0.2-2.5,0.1-4.8,2.6-6.3c-0.4-1.2-0.8-2.2-1.1-3.1c0.9-1.6,2.2-1.5,3.5-1.6c2.5,3.5,4.8-0.1,7.2-0.3C164.5,13.4,166.9,12,167,16z"
	/>
<path class="st8" d="M156,28c2.9-2.5,7-0.3,10.1-2.5c-2.2,4.2-7.4,1.7-10.2,4.4C155.9,29.3,156,28.6,156,28z"/>
<path class="st8" d="M153,27c0.3,0.3,0.7,0.7,1,1c-2.1,0.9-3.7,3-6.9,2.4c1.5-1.9,2.8-3.1,4.8-3.4C152.4,26.7,152.7,26.7,153,27z"/>
<path class="st2" d="M153,27c-0.3,0-0.7,0-1,0c-0.3-0.7-0.7-1.3-1-2c1.3,0,2.7,0,4,0C155.4,26.7,153.7,26.3,153,27z"/>
<path class="st9" d="M132,100c0.1,1.8,1.2,3,2.6,3.7c1.7,0.5,2.3-0.9,3.3-1.7c0.5-0.4,0.9-0.3,1.3,0.1c0.5,0.7,0.8,1.8,0.3,2.3
	c-3.6,4.2-7.2,8.6-12.6,10.6c-0.5-1.7-0.4-3.3,0-5c-1.5-0.9-1.2-2.7-2-4l0-0.1c-0.9-1.2-0.3-2.6,0.6-3c2.4-1.1,3.4-3.6,5.4-5
	C131.4,98.6,131.7,99.3,132,100z"/>
<path class="st10" d="M116,83c1.7-4.2,5-2.3,7.9-2.1c-0.1,0.7-0.7,1.5,0.1,2.2c-1.8,2.2-5,3.5-5.1,6.9C114.9,89,117,85.3,116,83z"/>
<path class="st10" d="M130,91c-0.3,0-0.6,0-0.9,0c-2.3-2.2-4.6-4.3-4.1-7.9C127.2,85.3,128.4,88.3,130,91z"/>
<path class="st10" d="M125,74c0,1.3,0,2.6,0,4c-0.4,0.3-0.7,0.7-1.1,1C122.7,77,124,75.5,125,74z"/>
<path class="st11" d="M151,166c-1-0.3-2-0.7-3-1c0,0,0,0,0,0c-2.8-1.5-4.2-4.6-7-6.3c-4.7,3.8-9.1,8.3-15.9,5.2
	c-0.4-0.7-0.7-1.3-1.1-2c-2.2-3.8-3.2-8.1-6.1-11.6c-1.3-1.6-2.3-4-0.9-6.4c1.8-0.9,3,1,4.6,0.9c4.2-0.5,2.7-5.3,5.5-6.9
	c1.3-0.8,2.7-0.8,4,0c1.5,0,2.5,0.8,3.2,2c4.8,7.4,10.2,14.4,15.6,21.4C150.4,162.8,152.1,164.1,151,166z"/>
<path class="st9" d="M127,138c0.5,5-0.7,8.9-6.6,9.8c-1.9-0.5-1.5-3.2-3.5-3.7c-1.7-0.8-2-2.3-2-4c1.8-1.7,0.2-3.4-0.2-5.1
	c-1-4.6,2.2-10,7.2-11.3C126.9,127.2,124.3,133.6,127,138z"/>
<path class="st9" d="M127,118c2.5,1.2,3.3,3.7,3.8,6.1c2.4,12.7,9.3,23.1,17.2,32.9c1.7,1.1,2.1,2.6,1.5,4.5
	c-0.2,0.2-0.4,0.3-0.5,0.5c-6.7-7.5-12.7-15.5-18-24C127.5,131.7,126.4,125,127,118z"/>
<path class="st12" d="M116,83c2.5,1.7,1.3,5,3,7c-1.1,3.1-2.5,1.2-3.2-0.1C114.5,87.6,114.5,85.2,116,83z"/>
<path class="st13" d="M122,96c-0.6-0.4-1.2-0.8-1.8-1.1c1.5-3.9,2.8-0.6,4.4-0.7C124,96.3,122.8,95.9,122,96z"/>
<path class="st14" d="M231.9,92c-1.6,0.9-2,2.3-1.9,4c1,1.4,0.4,2.4-1,3c-0.6-0.8-1.1-1.6-1.7-2.4c-0.6,0.4-1.3,0.7-1.9,1.1
	c-2.1-3.5,0.4-13.4,3.8-14.2c1.1,2.1,1,4.8,2.8,6.6C232,90.6,231.9,91.3,231.9,92z"/>
<path class="st1" d="M234,100c-0.3-0.7-0.7-1.4-1-2c0.8-0.7,1.7-1.3,2.6-2C236.4,97.9,235.5,99.1,234,100z"/>
<path class="st9" d="M160.1,167.9c0.3,0,0.6,0.1,0.9,0.2c-0.7,0.3-1.3,0.6-2,1c-3.3,0.5-5.7-1.1-8-3.1c-0.7-1.3-2-2.3-2-4
	c0,0,0.1-0.1,0.1-0.1c1.6-0.5,2.3,0.9,3.1,1.8C154.3,166.1,156.9,167.4,160.1,167.9z"/>
<path class="st1" d="M229,99c0.3-1,0.7-2,1-3c3.1,2.4,0.1,3.7-0.6,5.6C227.7,100.6,228.9,99.8,229,99z"/>
<path class="st15" d="M226,75c0,1,0,2,0,3c-0.3,0-0.7,0-1,0c0-2.3,0-4.7-0.1-7c0-0.3-0.1-0.6-0.1-0.8c0.3-0.1,0.5-0.2,0.8-0.3
	C227.7,71.4,227.2,73.2,226,75z"/>
<path class="st8" d="M163.1,22c0.1,0.2,0.2,0.5,0.2,0.7c0,0.1-0.2,0.2-0.3,0.3c-1.8-0.1-3.2,2-6,0.7C159.1,22.1,161.1,22.2,163.1,22
	z"/>
<path class="st16" d="M213,55c-0.4,6,0.1,11.6,6,15c-1.4,2.4-0.9,6-4.3,7.3c-3.2-1.1-4.1-3.5-4.2-6.6c-0.2-4.1,0.6-8.2-0.7-12.3
	c-0.2-2.1-1.8-4.2-0.2-6.4c0.4-0.4,0.9-0.5,1.5-0.2C211.1,53.4,211.7,54.4,213,55z"/>
<path class="st17" d="M188.1,45.1c-1,1.7-2,3.3-3,5c0.2,2.3-0.9,4.1-2.4,5.7c-1.7,1.3-3.3,1.4-5.1-0.9c0.1-4.8,4.7-8.2,5.5-13
	c0.6-1.1,1.3-2.2,2.9-1.9C186,41.9,186.5,43.7,188.1,45.1z"/>
<path class="st18" d="M171,47c1.3-1,2.6-2,4-3c1.1-0.2,1.8-1.7,3.3-0.8c1.2,3.6-2.4,5-3.8,7.3c-0.8,1.3-2.3,2.2-2.4,4.1
	c-3.2,5.4-7.5,10-11.5,16.3c-0.1,0.3,0.9,1.5,0.9,2.8c0.4,3.1-1.5,5.8-1.2,8.9c-2.8,5.4-7.5,9.2-12,13.2c-1,1.4-2.3,2.3-4,2.9
	c-2.1-0.5-3.4,0.6-4.3,2.3c-0.3,0.3-0.7,0.7-1,1c-0.3,0-0.7,0-1,0c0.6-5.3,5.7-7,8.4-10.6c0.9-1.1,2.3-1.8,3.8-2.9
	c-0.6-6.1,1.5-11.5,4.7-16.5c5-5.6,7.4-13,13.5-18.1C167.7,51.1,169.3,49,171,47z"/>
<path class="st9" d="M144,98c-0.3,0.3-0.6,0.7-1,1c-1,0.7-2,1.3-3,2C140.3,98.6,141.9,97.9,144,98z"/>
<path class="st19" d="M219,71c0.6,0.3,1.3,0.6,1.9,0.9c0.1,1,0.1,2.1,0.2,3.1c0.3,2.1-2.9,3.5-1.2,5.8c-0.3,0.1-0.6,0.1-0.8,0.1
	c-0.6,0.5-1.3,0.6-2,0.3C214.8,77.3,217,74.2,219,71z"/>
<path class="st6" d="M216,87c0.4-0.5,0.7-1,1-1.4c-0.5-1.4-1.5,0.2-2-0.7c-0.5-0.5-0.8-1.2-0.8-1.9c0.1-1,0.7-1.8,1.5-2.3
	c0.5-0.2,0.9-0.1,1.3,0.3c0.7,0,1.4,0,2.1,0c-0.7,3.3-1.4,6.6-2.2,9.9c-1.1,1-1.5,2.6-3.1,3.1C212.4,91,215.4,89.4,216,87z"/>
<path class="st20" d="M217,81c-0.3,0-0.7,0-1,0c-0.6-0.1-1-0.4-1.1-1c-1.2-0.8-2.4-1.6-3.9-2.7c0-6.4,0-12.9,0-19.4
	c2,3.7,0.7,7.7,0.9,11.6c0.1,2.6,0.3,4.9,2.9,6.6c1.6-1.9,1.2-5.3,4.1-6.3c0,0.3,0,0.7,0,1C218.4,74.3,217.7,77.6,217,81z"/>
<path class="st21" d="M206,96c-0.3,0-0.7,0-1,0c-1.1-1.7-4.4-1.3-4.1-4.3c2.3-1.5,4.4-3.2,5.9-5.6c1.6-8,0.3-16.1,0.8-24.2
	c0.1-2.1-0.6-4.4,1.6-5.9c2,5.8,0.6,11.8,0.9,17.8c0.1,2.5-0.4,5,1.1,7.3c1,0.7,1.3,1.7,1.2,2.9c-0.2,0.8-0.6,1.5-1.1,2.1
	C211.9,90.6,209.1,93.3,206,96z"/>
<path class="st22" d="M167,64c-2.3,3-4.7,6-7,9c-1.6-1.7-0.9-3.2,0.4-4.8c3.6-4.7,7.1-9.4,10.7-14.1c1.5-0.4,1.9-2.8,3.9-2.1
	c0.6,1.2-0.2,1.6-1.1,2C170.2,56.3,168.9,60.4,167,64z"/>
<path class="st23" d="M189,60c-0.3,1.3-0.7,2.7-1,4c-2.5,2.2-2.1,5-1.7,7.8c0.4,3.4,1.1,6.8,0.1,10.2c-0.4,0.3-0.8,0.5-1.4,0.5
	c-0.8-0.1-1.4-0.5-1.9-1.1c-1.9-3.4-0.3-6.8,0.3-9.2c-0.2,1.7-1.3,4.1-1.8,6.6c-0.4,0.4-0.8,0.6-1.3,0.7c-4-3.9-3.1-8.4-1.9-13.1
	c0.2-0.2,0.4-0.3,0.7-0.5c0.7-1.4,2.3-0.7,3.1-1.4c0.8-2,1.6-3.8,2.4-5.6C186.3,58.5,187.2,61.6,189,60z"/>
<path class="st24" d="M182.8,132.2c1.7-1.6,3.2-1.2,4.8-0.5C186.1,131.9,184.5,132.1,182.8,132.2z"/>
<path class="st25" d="M166,91c3.1,0,6.1,0,9.1,0c0.6,2.5-1,3.4-1.9,4.6c-2.1,0.5-3.4-1-5.1-1.6C167.4,93,166.7,92,166,91z"/>
<path class="st26" d="M184.9,96c-1.7,0.1-3.3-0.8-5,0c0.1-1,0.1-1.9,0.2-2.8c1.7-0.9,2.7,0.5,3.8,0.8
	C184.3,94.7,184.6,95.3,184.9,96z"/>
<path class="st27" d="M210.8,120.1c-0.3-0.3-0.7-0.6-1-0.9c-1.3-2.1-0.6-3.8,1.2-5.3c1.3-0.9,2.7-1.9,4-2.9c0.3,0,0.6-0.1,0.9,0
	c1.7,2.3-4,4.6-0.1,6.9C215.5,121.6,213.2,120.9,210.8,120.1z"/>
<path class="st27" d="M218,119.9c-0.1-1.2-0.8-1.8-2-2c0.6-0.7,1.3-0.9,2.2-0.5C219.1,118.3,218.8,119.1,218,119.9z"/>
<path class="st28" d="M218.9,92c0.2,0.9,0.4,1.9,0.7,3.1c-3.3,1-6.8,2-7.5,6.2c-0.1,2,2.9,0.6,2.9,2.6c0.6,0.7,0.5,1.4,0,2.1
	c-0.6,0.5-1.5,0.4-2.1,0.9c-1.3,0-2.7,0-4,0c-0.8-0.8-1.9-0.1-2.9-0.8c-1.7-2.4-2.8-5,0.3-7.5c1-0.7,2.2-1.3,2.9-2.3
	c1.2-1.2,2.4-2.5,3.9-3.6c1.4-0.6,2.1-2.5,4.1-1.9c0.5,0.6,0.8,1.3,0,2C217.8,92.5,218,91.4,218.9,92z"/>
<path class="st29" d="M207,99l-0.5,0l-0.5,0c-0.7-0.5-0.9-1.1-1-1.9c0-0.5,0.1-1,0.2-1.4c2.5-3,4-6.5,5.4-10.1
	c1-1.1,2.3-1.6,3.7-1.9c1-0.1,2-0.3,2.9,0.4c0.8,1.2,0.3,2.4-0.3,3.6c-2.2,3.1-4.5,6.2-6.8,9.3c-0.1,0.6-0.1,1.2-0.2,1.7
	C208.8,99.7,207.9,98.9,207,99z"/>
<path class="st29" d="M211.1,84c0-1,0-2,0-3c1.3-0.3,2.6-0.7,3.9-1c0.4,0.3,0.7,0.7,1.1,1c-0.3,0.7-0.6,1.4-1,2.1
	C213.8,83.6,212.8,85.5,211.1,84z"/>
<path class="st30" d="M226.1,164c2.1,1-1.1,5.1,2.9,4.9c-1.4,5.7-6,1-8.3,2.9c-2.1-0.8-1.2-3-2.6-3.8c0.7-2.4,1.4-4.7,2.1-7.1
	c0.3-0.9,0.6-1.5,1.7-0.9c0,0.3,0,0.6,0.1,0.9c1.5,1.1-0.1,2.9,0.8,4C224.4,165.8,225,164.1,226.1,164z"/>
<path class="st31" d="M210.8,120.1c1.9-0.2,4.1,0.2,5.1-2.2c0,0,0,0,0,0c2-0.6,2.9-0.2,2,2c-1.6,1.8,1.4,4.4-1,6.1
	c-2.1-0.8-0.8-2.9-1.5-4.4C214,121.1,211.8,122.3,210.8,120.1z"/>
<path class="st32" d="M254,69.9c-1.5-0.1-2.3,0.8-3,2c-0.6,1-1.4,1.9-2.7,0.8c-1.4-2.3-0.4-4.9-1.1-7.3c0-0.5,0.1-1,0.3-1.4
	c1.1-1.6,3.2-1.8,4.6-3.1C252.3,61,254.4,69.3,254,69.9z"/>
<path class="st33" d="M231,24c-4.4-0.8-6.8-4.5-10-7C224,18.1,230.6,22.8,231,24z"/>
<path class="st34" d="M240.1,35.9c0.3,1.1,0.7,2.2,1,3.2c-0.4,0.3-0.8,0.5-1.3,0.5c-0.8-0.1-1.4-0.5-1.9-1c-1-1.9-2.7-3.4-2.7-5.7
	c0.4-0.7,1-0.9,1.7-0.8C238,33.4,239.1,34.6,240.1,35.9z"/>
<path class="st35" d="M251.9,76c-1.2-0.7-2.8-1.1-2.9-3c1.9-1.7,0.1-4.5,1.7-6.4c1.8,0.4,2.3,2.1,3.3,3.3
	C253.3,72,253.4,74.3,251.9,76z"/>
<path class="st36" d="M247.2,166.3c-0.1-0.4-0.1-0.8-0.2-1.3c2.5,0.2,3,1.9,2.9,4c-0.3,0-0.6-0.1-0.9-0.1
	C248,168.3,247.8,167.1,247.2,166.3z"/>
<path class="st37" d="M230.9,165.8c0-1,0.1-1.9,0.1-2.9c1.6,0.7,3.3,0.5,4.9,1l0,0c0.5,0.4,1,0.9,1.5,1.4c1.1,1.1,2.3,1.9,3.9,1.4
	c1.9-0.6,3.1,0.5,4.4,1.5c0.4,0.1,0.9,0.2,1.3,0.3c0.1,0.2,0.1,0.4,0.2,0.6c-2.6,5.5-6.2,1.8-9.7,1c-1.1,0.3-2.3,0.6-3.7,0.9
	c-1.6-0.7-3.2-1.4-4.9-2.1c-1.3,1.9-2.4,1.2-3.1-0.5c-0.6-1.4-0.3-2.9-0.4-4.3c0.1-0.8,0-1.6,0.6-2.2l0,0c1.7-1.1,2.3-0.2,2.5,1.4
	C228.7,164.8,228.6,166.4,230.9,165.8z"/>
<path class="st36" d="M246.8,167.8c0,0.3,0,0.7,0,1c-0.2,0.1-0.5,0.3-0.7,0.3c-2,0.6-1.4-2.6-2.9-2.2c-1.5-0.5-1.6,1.4-2.9,1.1
	c-1.1-0.5-1.9-1.4-1.9-2.9c0.1-0.5,0.3-0.9,0.7-1.2c2,0.2,4.1,0.5,6.1,0.7C245.7,165.8,246.2,166.8,246.8,167.8z"/>
<path class="st38" d="M236.1,165.9c1-0.3,1.9-0.6,2.9-0.9c0.7,3,2.7,1.6,4.2,0.9c1.2,1.3,2,2.3,2.8,3.2c-1.9,1.7-2.1-1.6-3.5-1.2
	c-0.5,0.6-1,1.2-1.7,2C239.4,168.1,236.6,168.5,236.1,165.9z"/>
<path class="st39" d="M182.9,152.1c0.3,0,0.7,0,1,0c0.4,0.6,0.7,1.1,1.4,2.1c-1.8,1.1-3.5,2.2-5.4,3.4c-1.4-0.8-2.8-1.7-4.1-2.5
	c-0.6-0.9-2.3-0.6-2.4-2.2c-0.1-1.3,0.4-2.3,1.5-3.1c1.4-0.6,2.4,0,3.4,0.9C179.5,151.9,181,152.8,182.9,152.1z"/>
<path class="st40" d="M203,100c1-1.1,2-2.1,2.9-3.2c0,0.7,0,1.4,0,2.2C205.2,99.7,204.5,101,203,100z"/>
<path class="st41" d="M171.9,148c-0.3-0.7-0.6-1.5-0.9-2.2c1.3,1.6,4.1,0.9,5.1,3c-0.3,0.4-0.7,0.7-1,1.1
	C174,149.3,173,148.7,171.9,148z"/>
<path class="st42" d="M187.1,101.8c-3,2.4-5.4-0.8-8.1-0.8c-0.9-0.7-0.6-1.4,0.1-2c1.6-2,3.2-3.8,6-1.9
	C185.7,98.7,186.4,100.2,187.1,101.8z"/>
<path class="st43" d="M185,97.1c-2.5-1-3.5,2.6-6,1.9c-0.3-0.3-0.7-0.7-1-1c0.6-0.7,1.3-1.4,1.9-2c1.7-2.6,3.3-0.9,5,0
	c0.1,0.3,0.3,0.5,0.3,0.8C185.3,96.8,185.1,97,185,97.1z"/>
</svg>
