<?xml version="1.0" encoding="utf-8"?>
<!-- Generator: Adobe Illustrator 26.1.0, SVG Export Plug-In . SVG Version: 6.00 Build 0)  -->
<svg version="1.1" id="Layer_1" xmlns="http://www.w3.org/2000/svg" xmlns:xlink="http://www.w3.org/1999/xlink" x="0px" y="0px"
	 viewBox="0 0 283 415" style="enable-background:new 0 0 283 415;" xml:space="preserve">
<style type="text/css">
	.st0{fill:#161011;}
	.st1{fill:#1B1A21;}
	.st2{fill:#100C0C;}
	.st3{fill:#0F0C0E;}
	.st4{fill:#1C1012;}
	.st5{fill:#1A100E;}
	.st6{fill:#21120F;}
	.st7{fill:#0A0A0A;}
	.st8{fill:#150F0E;}
	.st9{fill:#1E0A07;}
	.st10{fill:#1A202D;}
	.st11{fill:#1A1B22;}
	.st12{fill:#17181E;}
	.st13{fill:#191923;}
	.st14{fill:#1D1C26;}
	.st15{fill:#1F1F2B;}
	.st16{fill:#1B1B25;}
	.st17{fill:#15151F;}
	.st18{fill:#191821;}
	.st19{fill:#1E1F28;}
	.st20{fill:#232429;}
	.st21{fill:#171C28;}
	.st22{fill:#1E1E28;}
	.st23{fill:#272733;}
	.st24{fill:#17181F;}
	.st25{fill:#1D2128;}
	.st26{fill:#18191F;}
	.st27{fill:#20202A;}
	.st28{fill:#1A1A23;}
	.st29{fill:#282B31;}
	.st30{fill:#23252F;}
	.st31{fill:#25242F;}
	.st32{fill:#20212B;}
	.st33{fill:#16171D;}
	.st34{fill:#1D1212;}
	.st35{fill:#180C0C;}
</style>
<path class="st0" d="M119,33c1.3-2.3,2.7-4.7,4-7c1.3-1.7,2.7-3.3,4-5c1.7-3,4.2-3.9,7.5-3c0.5,0.2,0.9,0.6,1.3,1
	c1.2,1.9,1.7,3.8,0.6,6c-1.3,1.3-3.1,0.8-5.1,1.2c-3.3,9.6-9.7,17-16.3,23.1c-0.5,2.6,0.6,4,0.4,5.5c-0.6,2.3-0.5,5.3-4.3,4.3
	c0.4-3.7-1.3-7.3-0.1-11C112.3,42.3,116.7,38.2,119,33z"/>
<path class="st1" d="M119,33c-1.1,5.8-5.4,10-8,15c-0.2-3.5,1.3-6.3,3.4-8.9C115.7,37.6,118.3,33.3,119,33z"/>
<path class="st2" d="M131,46c-3-0.4-3-0.4-2.4-4.7c0.9-1.8,5-1.1,3.8-4.9c-8.3,0.3-8.7,10.6-15.8,12.3c-0.7,1.8,1.4,5-2.5,5.3
	c-0.6-1.2-1.2-2.4-0.7-4.3c1.2-1.7,2.9-3.8,3.3-6.7c10.2-1.9,7.9-13.1,13.5-18.4c2.2-1.1,4-0.5,5.9,0.4c3.8-2.3,5.3,2.6,8,2.2
	c1.4,2.1,2.3,3.8,2.8,5.8c0,0.5-0.2,0.9-0.4,1.3c-1.2,1.4-3.2,1.7-4.4,3c-2.2,1-3.5,3.3-5.4,4.6C135,43.7,131.8,43.2,131,46z"/>
<path class="st3" d="M139,54c1.7-3.4,4.4-0.8,6.6-1.1c2.8-0.5,3.6-3.8,6.9-4.4c-0.2,3.2-1.6,5.9-2.5,8.6c-1,0.8-1.7,1.9-2.3,2.5
	c-1.5,0.6-2.5,0.2-3.6,0c-0.4,0-0.9-0.2-1.3,0.3c-0.1,0.7,0.6,1,0.9,1.5c1.3,1,1.1,2.8,2.3,3.8c-2.4,3.1-2.5,8.3-9.4,8.2
	c3.6,2.1,2.8,4.4,2.4,6.1c1,1.9,2.6,0.6,3.8,1.9c-2.9,5.5-4.8,11.7-8.8,16.8c0.7,0.8,0.7,1.7,0.5,2.4c-1,1.2-1.9,0.8-2.7,0.4
	c-0.9-0.7-1.5-1.5-2-2.5c-0.7-2.1-1.1-4.3-1.6-6.5c-0.9-2.6-2.4-4.8-3.9-7.1c-0.4-0.3-0.7-0.5-1.1-0.8c-0.9-0.9-1-2-0.8-3.2
	c0.1-0.7,0.1-1.4,0.3-2c0.2-0.7,0.6-1.3,1-1.8c1.1-0.9,0.8-3.4,3.2-2.8c0.3,2.5-0.7,5.2,1.1,7.9c4.6-2.6,2.9-9.1,8-11
	c-0.8-5.1,0.4-9.7,3.4-13.7C140.5,55.9,140.7,54.8,139,54z"/>
<path class="st4" d="M114.9,79.8c-1.8-2.1-0.2-3.9,0.6-5.8c0.6-1.5,1.7-3-0.5-4.1c0.7-0.9,1.3-2.3,2.7-1c2.4,2.3,5.3,2.1,8.2,1.8
	c1.1,0.9,1.1,2.1,1.1,3.2c-0.7,1.3-1.3,2.7-2,4c-0.8-1.3-0.8-2.6,0-4c-0.4-0.8-1.2-1-2-1c-3,0.7-5.5,2.2-7.1,4.9
	C115.6,78.6,115.2,79.2,114.9,79.8z"/>
<path class="st5" d="M146,34c-1.3,1.5-3,2-5,2C142.3,34.5,144.1,34,146,34z"/>
<path class="st6" d="M132,100c0.5,0.1,0.9,0.2,1.7,0.3c0.1-0.8,0.2-1.6,0.3-2.3c1.6-0.1,2.7-1.1,3.6-2.4c3.4-5.1,7.2-10.1,10-15.5
	c1.7-3.2,4.8-5,6.4-8.1c0.4-0.3,0.9-0.2,1.3,0.1c0.9,1.5,0.2,2.9-0.5,4.2c-0.6,1.2-1.7,2.3-1.7,3.6c0.4,8.8-6,13.3-11.5,18.3
	c-1.6,1.4-2,3.4-3.1,5c-1.4,1.8-3.1,2.4-5.1,1.2C131.8,103.4,130.7,102,132,100z"/>
<path class="st7" d="M144,58c2.4,2,3.8-2.1,6-1c-1.3,2.7-2.7,5.3-4,8c-1.8-0.2-2.3-1.7-3-3C141.8,60.3,142.4,59,144,58z"/>
<path class="st6" d="M144.8,79.1c0.5-3.2,1.9-6,4-8.7C149.9,73.9,149.7,74.5,144.8,79.1z"/>
<path class="st8" d="M144,58c-0.3,1.3-0.7,2.7-1,4c-4.4-1.1-2.4-3.2-1.2-5.2C143.2,56.6,143.6,57.3,144,58z"/>
<path class="st7" d="M135.5,79c-1.8-1.8-1.2-2.7,0.4-3.6C137.4,76.6,137,77.7,135.5,79z"/>
<path class="st9" d="M125,106c2.4,0.4,1.9,2.4,2,4c-1.1,0-2.3,0.1-3.1-1C123.3,107.6,124.7,107,125,106z"/>
<path class="st10" d="M58,104.6c0,0,17.1-3.2,23.6-2.6s13.5,2,13.5,2l27.2,20.4c0,0-24.7,17.1-26.6,17.5c-1.9,0.4-26.1-14-26.8-15.9
	C68.3,124.2,58,104.6,58,104.6z"/>
<path class="st11" d="M75,377.9c-1.5,12.3-0.9,24.7-1,37c-0.3,0-0.7,0-1,0c-1.1-11.6-3.9-23.2-1-34.9c1-4.1,0.3-8.3,0.5-12.4
	c-0.9-14.8,0-29.5-1-44.3c-0.1-2-0.2-4,0.2-5.9c0.3-0.7,0.7-1.5,2-1.6c3.8,2.9,1.3,7.4,2.2,10.7c0.4-1.4,0.1-3.9,3-1.6
	c1.1,1.6,1.2,3.5,1,5.3c-1.6,13.5-1.4,27.2-2.8,40.7C77,373.4,75.8,375.6,75,377.9z"/>
<path class="st12" d="M55,286.9c-2.8-2.9-2.3-7.7-6-10c-0.1-3-1.8-5.2-4-7c-0.9-1.5-2.6-2.5-2.1-4.6c1.4-3.2,3.8-2.7,6.1-1.5
	c1.9,0.9,3.6,2.3,5.6,3.1c1.1,0.6,1.5,1.8,2.2,2.7c0.9,1.8,3.3,2.8,2.9,5.3c-0.3,1.3-1.7,1.3-2.7,2c0.6,3.4,1.7,6.9-0.8,10.1
	C55.8,287.3,55.4,287.2,55,286.9z"/>
<path class="st12" d="M39,264c1-0.4,2-1.2,3,0c-0.9,0.7-1.6,2-3,2C39,265.3,39,264.6,39,264z"/>
<path class="st13" d="M235,203.9c-0.7-1.2-1.5-2.2-3.1-2.7c-8.7,3.2-15.9,10-26,13.3c2.4-5,0.2-7.7-3.4-9.9c-2.6-1.6-4-4.2-4.3-7
	c-4.2-1.2-4.1,2.5-6,3.7c0.5,2,0.9,3.8,1.3,5.5c-0.2,1.2-2.7,1.3-1.6,3.1c-0.7,1.3-1.7,1.7-3.1,1.3c-0.5-0.4-0.9-0.9-1.4-2.2
	c-1.7,4.5-4.8,2.7-7.6,2.2c-2.5,1.2-2.6,4.9-5.9,5.3c-2.2-0.4-3.1-2.6-4.6-4c1.1-8.5,4.1-16.3,8.5-23.6c1-1.7,2.4-3.2,3-5.1
	c2.1-6.4,2.8-6.7,10-4.5c2-5.4,6.4-6.4,11.9-6.2c3,0.1,6-1.9,9.1-2.4c1.3,0,2.5,0.7,3.8,0.9c1.7,0.6,2.9,2.1,4.8,2.4
	c2.3,0.3,3.6,2.1,4.4,4.3c2.7,7.6,7.4,13.9,13.4,19.3c1.4,1.3,2.2,2.5,0.8,4.2C237.7,202.6,236.7,203.9,235,203.9z"/>
<path class="st14" d="M62,314.9c-2-9.3-4-18.6-6-28c0-2.4,0-4.9,0-7.3c0.1-1.8-2.5-1.8-2.6-3.9c1.3-3.2,4,0.2,5.7-1
	c3,0.6,2.9,3.2,3.4,5.4c0.1,5.4,2.3,10,4.7,14.7c0.1,0.5,0.2,0.9,0.2,1.4c0,1.7-1.2,3-1.6,4.8c0.6,6.9,2.2,13.6,6.2,19.6
	c0.1,1.1,0,2.2,0.1,3.3c0.9,9.5,0.2,19.1,0.4,28.6c0,0.9-0.4,1.6-1.4,1.5c0-8.5,0-16.9,0-25.4c-2.1-0.2,0,2.2-2.2,2
	c-1.1-1.8-2.3-4.5-5.8-3.7c-0.5-0.7-0.6-1.3,0-2c0-0.3,0-0.7,0-1c0.8-1,1-2,0-3c0-0.3,0-0.7,0-1C62.4,318.3,63.8,316.3,62,314.9z"/>
<path class="st15" d="M73,315.9c-0.3,0-0.5-0.1-0.8-0.1c-2-1.2-1.5-3.2-1.6-5c0-3.1,2.7-3.2,4.8-4.4c3.1,2.2,2.2,6,3.9,8.7
	c-1.3,2.8-0.1,6-1.2,8.9c0,0,0,0,0,0c-2.2,2.7,0,6.2-2.1,10C74.1,327.5,75,321.4,73,315.9z"/>
<path class="st16" d="M100,210.9c0-0.3,0-0.7,0-1c-1.3-1.8,0.3-4.2-1-6l0,0c-2-2.7-0.3-4.7,1.1-6.9c3.5-2.7,5.9-1,7.9,2.1
	c0.5,1.3,0.8,2.7,1.3,4c0.4,5.1,1.2,10,3.1,14.8c0.2,1.1,0.1,2.3,0.1,3.4c0,4.1,0,8.3,0,12.4c0,3.6-1.6,6.3-4.7,7.8
	c-2.7,0-3.5-1.5-4.3-3.6c-1.7-4.7-1.7-9.8-2.8-14.6C100.4,219.2,103.2,214.9,100,210.9z"/>
<path class="st17" d="M169,228.9c-1.2,1.1-2.4,2.3-3.4,3.3c-1.1,2.2-0.2,4.4-0.3,6.6c-4.4,3.6-8.2,7.9-13.9,9.7
	c-0.9,0.3-1.6,1.6-2.3,2.4c-9.4,5.7-18.8,11.5-28.2,17.2c-3.8-5.5-3.6-7.1,0.3-11.9c0.5-9.5,0.6-18.4,1.4-27.2
	c0.6-5.9-0.4-11.4-1.6-17c-2.6-0.2-2.5-2.2-2.7-4c0.3-1.4,0.2-3,1.5-4.1c3.2-0.3,3.7,2.3,4.2,4.5c1.3,5,1.9,10.1,2.5,15.1
	c-1.2,5.8,2.1,11.1,1.9,16.9c-0.1,4.3,0.2,8.5-1.1,12.8c5.4-7.8,7.1-17,9.3-25.9c0.8-3.3-0.6-6.9-0.1-10.4c0.2-1.6-0.1-3.4,1.8-4.3
	c0.5-0.1,0.9,0.1,1.3,0.4c1.1,1,1.1,2.6,1.9,3.9c1.6,0.9,2.2-2.4,4-0.9c2.6,8,1.8,15.9,0,23.9c-0.7,3-2.3,5.8-2.6,9.6
	c3.7-2.3,4.2-6.9,7.9-7.6c1.2-1.4,0-2.9,0.9-3.8c0.3-0.5,0.5-0.9,0.8-1c3.9-1.6,6.2-4.6,7.9-8.4c1.4-3.1,3.4-6,7.6-3.8
	c0.7,1,1.3,2,2,3C169.8,228.4,169.5,228.8,169,228.9z"/>
<path class="st18" d="M75,274.9c5.8,6.4,10.4,13.6,15.4,20.8c-0.5,3,0.2,6.3-1.3,9.2c-5.1,1.6-6.7,0.9-8.7-3.6
	c0.2-0.6-0.8-0.3-0.1-0.3c0.1,1.6-0.1,3-2.1,3.1c-1.4-0.9-1.9-2.4-2.7-3.7c-1.5-5.4-2.6-10.9-3.7-16.4c-0.6-2.7-2.1-4.8-4-6.5
	c-1.8-0.3-3.1,1.7-4.9,0.9c-1.9-1.7-2.8-3.9-2.7-6.5c1.9-1.6-1.1-2.8-0.2-4.7C66,267.5,69.3,273.8,75,274.9z"/>
<path class="st19" d="M89,311.9c0.3-0.3,0.5-0.7,0.8-1c1,3.7-1.4,8.4,3.3,11.2c1.9,0.4,2.1-2.4,4-2.2c0,0.7,0,1.3,0,2
	c-2.8,2-2.9,6.5-8,7.7C89,323.6,89,317.8,89,311.9z"/>
<path class="st16" d="M168,224.9c-1.6,0.5-3.1,1-4.4,1.4c-5.5,10.8-5.5,10.8-10.7,12.2c-0.3,2,2.3,1,2.5,2.8c-1,2.9-4.4,2.1-5.9,3.1
	c-2,1.7-1.8,3.6-1.9,5.4c-2.2,1-4.3,1.9-7.1,3.2c-0.3-7,4-12.2,4.4-18.3c0.4-6.3,0.1-12.6,0.2-18.9c-3.5-5.1-2.5-10.3-0.7-15.6
	c2.2-1.8,3.3-0.5,4.1,1.5c0.7,1.5,0.4,3.3,1.4,5c1.7,1.6,4,2.5,6.6,3.6c2.5-2.6,4.6-5.7,6.4-8.7c4.8-8,11.8-14.5,15.2-23.3
	c0.9-2.4,2.6-3.7,5-4.6c1.7-0.6,3.3-1.6,4.7-2.9c1.2-1.4,0-3.2,0.9-4.7c4.1-3.5,15.7-2.7,21,1.5c0.6,0.9,1.1,1.9,2.1,2.6
	c0.5,0.5,0.9,1,0.4,1.7c-2.9,1.2-5.8,2.4-9,3.8c-2.5,0.1-5.2-1.8-8,0.1c-1.8,1.8-1.4,4.7-2.9,6.7c-3.2,0.8-4-3.5-7.3-3.2
	c-5.5,10.8-11.4,21.7-14.9,33.7c1.7,1.4,2,3.1,1,5C169,219.9,168.7,222.5,168,224.9z"/>
<path class="st20" d="M199.1,211c2.3,0.8,3.3-1.7,4.9-0.2c-1.5,2.7-2,3-4.5,2.1c-2.1-0.8-3.8-1.8-2.8-4.4
	C199.7,207.6,197.7,211,199.1,211z"/>
<path class="st16" d="M169,228.9c0.3-0.3,0.7-0.7,1-1c1.7,1.3,3.5,2.2,6.9,2.1C173.1,231.7,171,230.3,169,228.9z"/>
<path class="st21" d="M194,264.9c3.4,3.4,1.6,7.3,1,11C191.8,272.5,195.1,268.5,194,264.9z"/>
<path class="st22" d="M212,172c-0.3-0.3-0.7-0.7-1-1c-0.6-1-2.3-2,0-3c1.3,1.7,2.6,3.3,4,5C214,172.6,213,172.3,212,172z"/>
<path class="st22" d="M209,169c-3.1-3.5-8.1-1-11.2-4c-2.2,1.2,0.9,3.4-1.5,4.5c-2.9,0.3-1.7-3.1-3.3-4c-1.5-0.5-2.5,0.3-3.4,1.2
	c-0.3,2,2.2,3.3,0.7,5.7c-3.2,0.6-5.3,4.3-9.2,3.9c-5.5,14.2-17.2,24-23.4,37.4c-6.6-2.5-11.6-6-11.7-13.6c-2.4-1.8-2-4.4-2-6.8
	c0-4.6,0.2-9.3-1.6-13.7c-0.5-0.7-0.8-1.4-1-2.2c0-0.5,0.1-1,0.3-1.5c3.7-1.6,6.9-3.8,9.6-6.8c2.3-0.7,4.6-0.3,6.9-0.3
	c4.5,1,7.7,4.3,11.1,6.9c4.6-1.2,1.8-4.7,2.6-7.8c2.5-2.5,5.4-5.6,8.2-8.8c1-0.5,2.2-0.6,3-1.6c3.4-4.3,8.2-4.6,13.2-5.1
	c5.4-0.5,8,2.9,11.5,5.5c2.5,2.2,5.4,4.2,4.1,8.2c-0.3,0.3-0.6,0.6-0.8,1C210.1,167.4,209.7,168.3,209,169z"/>
<path class="st13" d="M209,169c0.1-1.2,0.8-1.9,2-2c0,0.3,0,0.7,0,1c-0.9,1,0.1,2,0,3C209.8,170.8,209.1,170.2,209,169z"/>
<path class="st23" d="M70.8,320c-0.8-1.3-2-1.3-3-0.5c-1.6-6.3-3-12.2-4.6-18.6c0.2-1.7,2.8-2.8,2.9-5.1c4.7,2.2,3.1,7,4.4,10.7
	c0.1,1.6,0.6,3.2,0.5,4.9C70.4,314.1,72.3,317.1,70.8,320z"/>
<path class="st24" d="M81,139c0,0.5-0.1,1-0.3,2.9c-3.2-11.3-8.5-20-13.7-29.1c-9.1-3.9-17.7-9.4-28.1-9.8c6.6-2,13.4-0.6,20.1-0.9
	c1.5,0.4,3-1.9,4.6-0.1c0.6,1,1.4,1.8,2.4,2.4C79.6,112.2,82.1,124.8,81,139z"/>
<path class="st25" d="M92,175.9c0.7-1,1.3-2,2-3c3.1-1.7,3.2,1.9,4.8,2.8c1.3,2.3,4.2,4.4,1.1,7.4c-0.4,0.3-0.8,0.4-1.3,0.5
	c-1.7,0-3-1.2-4.5-1.8c-1.4-1.2-3.2-1.7-4.7-2.8C88.4,176.4,91.5,177.3,92,175.9z"/>
<path class="st26" d="M95.1,183.9c-2.7,1.3-4.1-1.6-6.4-2c0.2-0.6,0.5-1.3,0.7-1.9c2-1,3.4,0,4.7,1.3
	C94.9,181.9,95.5,182.7,95.1,183.9z"/>
<path class="st24" d="M83,136c0-3.1-2.2-6.2-0.3-10.5c2.7,4.2,3.8,8.9,8.3,10.5c3.6,0.3,3.7,3.6,4.8,5.9c0.8,1.6,1.1,3.4,1.3,5.2
	c0.2,8.5,0.9,17,2.1,25.4c0.2,1.7,0.3,3.3-1.2,4.5c-2.1-0.6-1.6-3.8-4-4c-0.8-1-1.9-1.7-1.7-3.4c1.5-11.4-2.8-21.3-8.3-30.9
	C83.5,137.9,83.3,136.9,83,136z"/>
<path class="st27" d="M125,224c-1.9-4.9-1.6-10.2-2.9-15.2c-0.4-1.8-0.7-3.5-2.1-4.8c-3.4-2.7-0.8-7.1-3-10.2
	c-0.8-1.1-1.9-2-2.2-3.4c0.7-4.6,0.1-9.2,0.2-13.9c0.5-2.1-0.3-4.3,0.6-6.3c0.4-0.5,0.8-0.7,1.4-0.7c0.8,0.2,1.5,0.7,2,1.3
	c1.8,4.1,1.8,8.5,2,12.8c-0.3,1.8,0.8,2.1,2.3,2.3c2.7,0.3,5.1-0.7,7.7-1c5.1-0.3,8.6,1.9,10.3,6.8c0.4,2.2-0.2,3.9-2.9,4.9
	c-4.3-0.5-6.5-7-12.1-5.4c-0.2,0.7,0.4,1.2,0.7,1.7c3.3,3.9,6.8,7.7,10.3,11.4c2.4,2.6,2.5,4.8,1.1,8.4c-1.9,4.9-3.4,9.8-7.4,13.5
	c-1,0.9-1.5,2.2-3,2C125.2,227.8,126.2,225.2,125,224z"/>
<path class="st28" d="M125,224c1.5,0.6,1.9,2.2,2.6,3.4c2.2-0.7,0.8-2.9,3.4-4.5c4.8-1.7,4.8-7.9,6.8-12.7c0.9-2-0.8-3.7-2.2-5.2
	c-3.6-3.7-7-7.4-10.6-11.1c3.9-2.3,6.5,0.6,9.2,2.5c1.8,1.2,2.8,3.2,4.1,4.9c1,1.9,2.1,3.9,2.1,6.1c-0.1,1.9,0.5,4-1.5,5.5
	c-1.7,2.2-1.3,4.9-0.9,7.2c1.9,9.9-2.6,18.5-5.5,27.3c-1,3.1-3.3,5.7-3.8,9.1c-0.2,1.3-1,2.1-2.6,1.9c-1.9-1.2-1.5-3.3-1.1-4.9
	c2.4-8.6,1.5-17-0.8-25.4C124.1,227,124.8,225.4,125,224z"/>
<path class="st29" d="M106.1,189.9c0,0.7-0.1,1.4-0.1,2.1c-1.1,0.1-1.6,2-3.1,1.1c-0.4-0.2-0.5-0.4-0.4-0.7c0.1-0.2,0.2-0.3,0.4-0.3
	c2.6-3-1.5-3.2-2-5c-0.4-1.5-3.7-1.5-1.9-4l0.1-0.1c2.8-0.8,4.2,0.6,4.9,3.1c0.4,0.3,0.7,0.6,1.1,0.9
	C106.2,187.6,106.9,188.5,106.1,189.9z"/>
<path class="st30" d="M73,282.9c-1.9-2.1-3.7,2.6-5.6-0.4c-0.6,2.4,1.7,4.5-0.4,6.3c-0.3-0.1-0.6-0.3-0.9-0.4
	c-1.8-1.9-1.2-4.6-2.1-6.7c-0.3-0.6-0.6-1.1-0.8-1.7c0-0.7-0.1-1.5-0.1-2.2c2-0.7,1.8-4.6,5.5-3C70.2,277.1,72.1,279.7,73,282.9z"/>
<path class="st15" d="M78,313.9c-1.6-4.6-0.8-9.3-1-14c1.2,1.1,0.9,2.6,1,4C77.1,307.3,80.5,310.6,78,313.9z"/>
<path class="st12" d="M106,161c-4.1-8.1-3.5-17.3-5.9-25.8c-0.9-3.3-1.4-6.8-2.1-10.1c1.4-1.5,0.8-3.3,1-5c2.7,0.1,2.3,2.2,2.6,3.9
	c0.7,3.8,0.6,7.8,1.9,11.5c1.9,7.3,3.9,14.5,5.4,20.8c1.9,2.4,4.1,2.2,5.9,4.2c1.2,2.7,4.5,5.6,1.2,9.7c0.3,2,0.6,4,1,6
	c-1.5,0.5-2.3-0.6-2.8-1.5C111.7,169.8,107.6,166.1,106,161z"/>
<path class="st31" d="M181.2,214.8c1.6,1.6,4.1,0.9,5.8,2.2c-0.2,1.4,0.3,3-1,4.2c-4.8,1.3-5.9,0.2-5-5
	C181.1,215.6,181.1,215.2,181.2,214.8z"/>
<path class="st32" d="M104.9,129.1c3.4,8.6,7.3,17,10.1,25.8c1.5,4.7,1.4,10,2,15.1c-0.3,0-0.7,0-1,0c0.4-3.5-1-6.5-2.6-9.3
	c-1.6-1.2-3,0.5-4.9-0.4c-4-7.3-3.6-16.3-6.5-24.3c1.3,1.8,2.6,3.7,4.2,6C107.6,137,103.2,133.3,104.9,129.1z"/>
<path class="st33" d="M180,160c-1,4-4,6.3-7.1,8.5c-0.4,1.9,1.7,2.9,1.7,4.8c-0.7,2.8-3.3,3.6-5.6,5.6c-2.5-4.1-6.3-6.6-10-9
	c-0.3-0.4-0.5-0.8-0.3-1.2c0.5-0.9,1.2-1.4,2-1.9c1.1-0.4,2.2-0.8,3.4-0.9c4.5-0.1,7.7-2.3,10-6C176.1,157.8,178.1,157.6,180,160z"
	/>
<path class="st34" d="M151,170c-1.4,4.4-4.6,6-9,6c-3.7,2.9-4.3-0.9-5.6-2.6c-9.2-1.5-10.5-2.5-10.4-7.8c0.7-0.5,1.5-0.9,2.3-0.6
	c5.6,2.1,10.9,1.1,16.3-0.7c0.8-0.3,1.6-0.3,2.4-0.2c0.5,0.1,0.9,0.4,1.2,0.7c1.5,2.3-0.2,4-1.2,5.9
	C148.4,170.1,149.5,169.1,151,170z"/>
<path class="st35" d="M164,167c0.3-0.4,0.6-0.7,0.9-1.1c0.3-2,2-2.6,3.5-3.3c2-0.1,3.3-2.9,5.7-1.6c0.3,0,0.6,0,0.9,0
	C172.5,165.2,169.3,167.9,164,167z"/>
</svg>
