<?xml version="1.0" encoding="utf-8"?>
<!-- Generator: Adobe Illustrator 26.1.0, SVG Export Plug-In . SVG Version: 6.00 Build 0)  -->
<svg version="1.1" id="Layer_1" xmlns="http://www.w3.org/2000/svg" xmlns:xlink="http://www.w3.org/1999/xlink" x="0px" y="0px"
	 viewBox="0 0 269.4 255.9" style="enable-background:new 0 0 269.4 255.9;" xml:space="preserve">
<style type="text/css">
	.st0{fill:#4C2E33;}
	.st1{fill:#533A38;}
	.st2{fill:#512D32;}
	.st3{fill:#5A3D39;}
	.st4{fill:#50393A;}
	.st5{fill:#492F2E;}
	.st6{fill:#493131;}
	.st7{fill:#504146;}
	.st8{fill:#513939;}
	.st9{fill:#4D3636;}
	.st10{fill:#4C302D;}
	.st11{fill:#503331;}
	.st12{fill:#583934;}
	.st13{fill:#543634;}
	.st14{fill:#583835;}
	.st15{fill:#523739;}
	.st16{fill:#5D3C39;}
	.st17{fill:#4F393A;}
	.st18{fill:#50302E;}
	.st19{fill:#583330;}
	.st20{fill:#54393B;}
	.st21{fill:#543737;}
	.st22{fill:#FDF8EF;}
	.st23{fill:#F4F2F4;}
	.st24{fill:#775752;}
	.st25{fill:#855D51;}
	.st26{fill:#7D5A54;}
	.st27{fill:#795550;}
	.st28{fill:#734B45;}
	.st29{fill:#825B54;}
</style>
<path class="st0" d="M145,213.1c-0.3,0-0.7,0-1,0c-0.7-0.3-1.3-0.7-2-1c0,0.7,0,1.3,0,2c2.8,0.4,3,0.7,3,4c1.3-1.3,2.7-2.7,4-4
	c-0.9,0-1.9,0-2.8,0C145.5,214.1,144.9,214,145,213.1z"/>
<path class="st1" d="M192,38.1c-0.1,0.2-0.1,0.4-0.1,0.7C192,38.6,192,38.4,192,38.1z"/>
<path class="st1" d="M188,33.1c0,0.3,0,0.7,0,1c0.5,2.2,2.9,2.5,4,4c1.3-0.5,1.9,0.9,3,1c0-2.5-1.7-4.2-2.7-6.2
	c-0.3-0.7-0.2-1.2-0.3-1.8c0-0.3,0-0.7,0-1c-0.3,0-0.7,0-1,0c-0.3,0.6-0.9,1.3-1,1.9C189.9,33.6,188.8,33,188,33.1z"/>
<path class="st2" d="M144,199.1c-0.2,1.5,0.5,2.8,1.8,2.9c1.9,0.2,4.3,1,5.2-1.9c-0.5-0.1-1.2,0-0.6-0.9c0.2-0.3,0.4-0.7,0.6-1.1
	c0-0.3,0-0.7,0-1C148.3,196.5,146.2,198,144,199.1z"/>
<path class="st3" d="M197.6,62c-1.7-0.7-1.6-2.7-2.6-3.9c-0.9-0.1-1,0.6-1,1.2c0.1,1.1,0,2.1-1.5,1.7c-1.2-0.3-1.5,1.1-2.5,1
	c0.8,2.1,1.6,4.2,3,6c2.3,0.3,2.7,0.8,1.4,2c-1.2,1.1-1.3,1.9-0.4,3c1,0,2,0,3,0c0-0.7-0.3-1.5,0-1.9c1-2.1-0.3-3.5,0.6-5
	c1.7-0.1,1.2-1.2,1.8-1.8c1.5-1.6,0.3-3.5,0.7-5.2c-0.7,0.3-1.3,0.7-2,1C197.9,60.7,198.3,61.4,197.6,62z"/>
<path class="st3" d="M192.4,70.2L192.4,70.2L192.4,70.2L192.4,70.2z"/>
<path class="st4" d="M132.2,8.1c2.4,1.5,5.2,2.3,7,4.7c0.6,0.9,2.4,1.2,3.8,0.6c0.6-0.2,1.6-0.5,1.6-0.1c0,2.5,3.1,2.3,3.6,4.4
	c0.4,1.4,2.1,2.1,3.6,0.8c1.1-0.9,1.7-0.5,2.4,0.3c1.4,1.5,3.7,1.7,5,3.5c0.1-2.2-2.1-2.7-2.4-4.3c-1.1-1.8-3.3-1.9-4.9-2.9
	c-0.8-0.5-1.5-1-2-1.7c1.3-0.8,2.3-0.5,3.4,0.5c1.2,1.1,2.6,2.2,4.5,2.1c0.3,0,0.7,0,1,0c-0.2-1.1-1-1.6-1.9-2
	c-1.4-0.7-2.8-1.3-4.1-2c-2.3-0.7-4.2-3.1-6.9-1.6c0.3,1.1,1.6,0.2,1.9,1.1c-0.4,0.7-1.2,0.7-1.7,0.5c-2.7-1.1-5.5-2.1-7.7-4
	c-1.5-1.3-3.8-2.3-3.6-4.9c-0.3,0-0.7,0-1,0c-0.6,0.2-1.6-0.5-2,1.2c0.6,0.3,1.4,0.8,2.2,1.2c-1.9-0.1-2.9,1.1-4.1,1.6
	C130.2,8.8,131.6,7.7,132.2,8.1z"/>
<path class="st5" d="M176,30.1c-2.9-1.9-6.1-3.3-7.1-7.1c-0.3-1.4-1.4-2.1-3-1.9c0.9,1.4,2.1,2.8,2.7,4.3c0.7,1.7,1.8,2.7,3.4,3.7
	c4.7,3.1,7.5,7.6,8.9,12.9c1.1,0,1.4,1.1,2.1,1.6c0.1,0.1,0.2,0.2,0.3,0.2l0,0c0.2-0.2,0.4-0.4,0.6-0.7c0-0.3,0-0.7,0-1
	c-0.9,0.1-1-0.6-1-1.3c0-1.6,0-3.2,0-5.1c-0.7,0.6-1,1-1.1,1c-1.5-0.4-3.1-1.4-2.7-2.9c0.3-1.2,1-1.6-0.8-1.9
	c-0.5-0.1-1.4-0.8-1.4-1.8C176.7,30.1,176.3,30.2,176,30.1z"/>
<path class="st6" d="M177,29.1c1.1-0.3,2-1,2-2.5c-1.6-1.6-3.3-3.3-5-5c-0.5-0.5-1.1-0.7-1.7-0.3c-0.7,0.5-0.2,1.2-0.3,1.8
	C173.8,25,174.6,27.7,177,29.1z"/>
<path class="st7" d="M98.4,27.2c-0.6,0.9-0.8,1.6,0.6,1.9c0-0.7,0.3-1,1-1c0-1,0.8-1.3,1.4-1.8c0.7-0.7,0.6-1.4,0.6-2.2
	c-0.7,0.3-1.3,0.7-2,1C100,26.2,98.9,26.5,98.4,27.2z"/>
<path class="st8" d="M107.8,54.5c0.7,2.3,0.7,2.3,3.1,3.2c0.8-1.4-1.6-1.7-1-3.1c0.2-0.5,0-1.2,0.6-1.4c0.1,0,0.1,0,0.2,0
	c0.2,0,0.3,0,0.4,0c0.5,0.1,0.8,0.4,0.8,1.1c0,0.9-0.4,2,0.4,2.8c2.6,0.8,1.9-2.6,3.6-2.9c1.2-0.3,1.9-1,2-2.3c0-0.5,0.4-0.9,1-0.7
	c0-0.3,0-0.7,0-1c-0.7,0-1-0.3-1-1c-0.7,0-1,0.3-1,1c-0.3,1.2-1,1.9-2.3,2s-2.2-0.7-1.5-1.5c1.5-1.8,0.6-3.6,0.8-5.7
	c-1.4,0.9-1.8,1.8-2.2,2.9c-0.4,1.1-1.2,2.7-2.1,3c-1.9,0.5-1.7,2.3-2.7,3.4C107.3,54.2,107.8,54.3,107.8,54.5z"/>
<path class="st9" d="M100,110.7c-0.1,3.1,1.6,5.6,2.4,8.4c0.9,3,2.8,5.5,2.8,8.9c0,1.9,1.7,3.9,2.2,6c3.9,1.8,5.9,5.9,9.8,7.6
	c1.4,0.6,2.3,1.6,3.4,2.4c1.2-1.2,4-1.2,3.5-3.9c-0.3,0-0.7,0-1,0c-1.3,1.5-2.3,2.3-4.2,0.4c-2.1-2-5.4-2.5-6.8-5.4
	c-1.3-2.1-2.5-4.1-3.3-6.6c-1.5-5-3.7-9.7-5.7-14.5c-1.7-4.1-3.2-8.2-1-12.7c0.5-1-0.9-2.7,1-3.3c0-0.7-0.3-1-1-1
	c-1.2,0.3-1.8,1-2,2.3c-0.6,3.2-1.3,6.4-1,9.7C98.9,109.9,100,110.1,100,110.7z"/>
<path class="st10" d="M100,86.3c0.1-1.2,0-2.3,0-3.5c0-0.5,0.4-0.9,1-0.7c0.3,0.1,0.7,0.2,0.8,0.4c0.2,0.4,0,1,0.2,1.4
	c1.3,2.3,1,5.4,4.4,7.6c-1-2.8-2.3-4.8-2.2-6.8c0-2.1,1-4.3,0.9-6.6c-0.1-1-0.6-2.2,0.9-3.4c0,1.9,0,3.5,0,5.4
	c3.5-1,3.8,1.8,4.9,3.3c-0.8,1.7-2.4,2.5-4.7,3.4c2.1,1.6,3.5,3,2.9,5.2c2.6-2,2.6-2,6-2c0.7,0,1.3,0,2,0c-0.1-1.5-1.2-0.8-2-1
	c-1.6,0-3.4,0.2-4-1.8c-0.2-0.7-0.4-1.7,0.5-2.2c0.9-0.4,1.5,0.3,2,0.9c1-0.3-0.1-2.2,1.5-2c0.2-0.8-0.7-1-1.1-1.9
	c5.2,0.4,10.2-0.7,15.4,0.8c2.5,0.7,1.4,2,1.7,3.2c0.8-0.2,1.9,0.5,2-1c-0.2,0-0.4,0-0.5,0c-1.6-4-1.6-4-5.9-4c-1.9,0-3.9,0-5.8,0
	c-0.5,0-0.9-0.4-0.8-1c-1.3,0-2.5,0-3.8,0c-0.7,0-1.3-0.1-1.2-1c-1.9-0.7-1.9,1-2.5,2c-1.1-1.3-0.8-3.6-3.1-4.2
	c-0.9-0.2-0.7-1.8-0.3-2.2c1.1-1.2,0.9-1.9,0.1-3.3c-0.7-1.1-0.1-2.9-0.1-4.4c-2.1,0.6-2.5,0.5-3.6-0.9c-0.9,0.9-1.8,0.3-1.3-0.5
	c1.2-1.6,0.6-3.1,0.9-4.6c-0.3,0-0.7,0-1,0c-0.3,0.1-0.8,0.2-0.8,0.3c0.1,3.3-1.7,6.3-1.2,9.7c0.4,2.8-1.7,4.6-2.4,7.1
	c-0.9-0.8-0.5-1.5-0.6-2.1c-0.9-0.1-0.9,0.6-1,1.2c-0.5,2.7,1.5,5.1,1,7.8c0,0.7,0,1.3,0,2C99.6,87.2,100,86.8,100,86.3z"/>
<path class="st11" d="M118,49.1c0,0.7,0.3,1,1,1c1.3,0,2.6,0,3.9,0c4.7,0,5.9,1.2,7.2,5.8c0.4,1.5,0.8,3.2,1.7,4.7
	c0.7,1.2,1.6,2.7,1.2,4.4c-0.2,0.7-0.3,1.7,0.6,2.2c2,1.2,1.2,3.1,1.4,4.9c0,0.3,0,0.7,0,1c0,1.5-0.2,3,0,4.4s-0.5,2.4-1,3.6
	c1.7,0.2,1.6,0.2,1.5,1c-0.2,2-2,3.5-1.4,5.7c2.9-0.5,1.3-3.1,2.1-4.6c1,0.3,1.5,0.9,1.7,1.9c0.7-0.3,1.3-0.7,2-1c0-1.9,0-3.9,0-5.8
	c0-0.7-0.1-1.3-1-1.2c0,0.3,0,0.7,0,1c-0.1,0.7,0.5,1.8-0.8,2c-1.7,0.2-1.1-1.1-1.2-2c-0.3-2.7,0.4-5.4-0.8-8.1
	c-0.6-1.3-0.9-3.5,0.5-5.1c0.7-0.8,0.3-1.9,0.3-2.8c0-3.6,0-7.3,0-10.9l0,0c-1.3,0-1,1.1-1,1.8c0,2.8,0,5.6,0,8.4
	c0,0.5-0.4,0.9-1,0.8c-0.3-0.1-0.8-0.2-0.8-0.3c0.1-1.3-1.5-2-1.2-3.5c0.6-3.6-2.1-6.1-3.4-9c-0.9-2-4.2-2.8-6.3-1.8
	c-1.1,0.6-2.2,0.4-3.2,0.6c-0.3,0-0.7,0-1,0C119,48.8,118.7,49.1,118,49.1z"/>
<path class="st12" d="M141,48.1c0.5,0.1,1.2,0,0.6,0.9c-0.2,0.3-0.4,0.7-0.6,1.1c0.6-0.2,0.8,0.4,1.2,0.7c0.6,0.5,1.2,1.1,0.6,2
	c-0.4,0.7-1.2,0.2-1.8,0.3c0.3,0.7,0.7,1.3,1,2c0.7-0.3,1.3-0.7,2-1c0-0.7,0.3-1,1-1c0-0.2,0-0.3,0-0.5c-0.1-0.5-1.3-0.6-0.7-1.3
	c0.3-0.3,1.1-0.2,1.7-0.3c-0.7-1-1.3-2-2-3c-1.4-0.6-2.4-1.6-3-3c-2.1-0.8-2.9-3.2-5-4c0,0.8-0.1,1.5,0.6,2.2
	C138.1,44.8,140,46.1,141,48.1z"/>
<path class="st13" d="M153,29.1c0.6-0.1,0.9,0.3,1,0.8c0.1,0.7,0.1,1.3,1,1.2c1.7,0.1,0.5-2.1,1.9-2.3c-0.6-1.9-3-1.4-3.9-3.5
	c2.3,0.2,4.1,0.6,5.1,2.8c0.2,0,0.3-0.1,0,0c1.4-0.2,2.7,1.3,4.1,0.1c0.3-0.3,1.8-0.2,1.7,0.3c-0.3,1.9,1.6,1.5,2.3,2.4
	c1.4,1.8,3,3.8,6.1,2.9c-0.9-0.9-1.5-1.7-2.3-2.3c-3-2.2-3-2.2-4.9-6.4c-1.3,0.5-2-1-3.1-1c-0.4,0-1.2,0.1-0.6,0.7
	c1,1.1,0.6,1.3-0.5,1.2c-0.8,0-1.3-0.8-2-1.1c-3.9-1.5-8.5-1.2-11.5-4.9c-0.3-0.3-1.3,0-1.2,1c0,0.3,0,0.7,0,1
	C148.7,24,151.1,26.3,153,29.1z"/>
<path class="st14" d="M149.2,46.7c1.3,0.4,0.1,2.5,1.8,2.4c0.1-1.5,1.2-0.8,2-1c0.2-0.6-0.4-0.8-0.7-1.2c-0.5-0.9-0.7-2,0.1-2.6
	c0.5-0.4,1.9-0.4,2.2,0c0.7,1,2,1,2.9,1.5c1.7,1,1.6-0.7,1.6-1.7c-0.2-1.7-2.6-0.8-2.9-2.5c0.4-0.9,1.2-0.4,1.9-0.5
	c-2.3-2.1,0.2-5,0-5c-3.1-0.9-1.3,2.3-2.3,2.9c-2-0.8-3.9-1.7-4.6-3.4c-1.6-3.7-4.9-4.4-8.1-5.5c0,0.7,0,1.3,0,2
	c1-0.1,1.8,0.1,2.5,1c0.4,0.6,0.8,1.2,0.3,1.7c-0.8,0.8-0.8-0.6-1.4-0.6c-0.5,0-1,0-1.5,0c-0.2,0.6,0.5,0.8,0.7,1.2
	c0.2,0.6,1.7,0.6,0.9,1.7c-0.7,0.9-0.6,2.8-2.5,2c1.6,2.1,3.1,4.2,4.8,6.3C147.4,46,148.3,46.5,149.2,46.7z"/>
<path class="st15" d="M119.1,138.8c-1.8-2.2-4.5-3-7.1-3.7c1.4,2.9,4.7,3.5,6.8,5.4c1.9,1.9,3,1,4.2-0.4
	C121.6,140.1,120.3,140.2,119.1,138.8z"/>
<path class="st16" d="M152.7,54.1c2.9,1.7,2.8,1.8,1.3,5c2.6-0.2,3.3,2.3,4.9,3.5c0.1,0.1-1.1,0.7-0.9,1.5c-0.1,1.7,0.7,3,2,4
	c-0.1-1.7,0.7-3,2-4c-1.2-1.8-1.5-4.1-3.1-5.7c-0.9-0.9-2.5-1.6-0.9-3.3c0.5-0.6-0.4-1-1.2-1c-0.6,0-1.5,0.3-1.7-0.6
	c0-0.1,0-0.1,0-0.2c0-0.1,0-0.2,0-0.3c-1.3,0.5-1.9-0.9-3-1C152.1,52.8,151.7,53.5,152.7,54.1z"/>
<path class="st17" d="M183,72.1c0,1.5,0,2.7,0,4c0,0.3,0,0.7,0,1c0.7,0,1.3,0,2,0c0-0.7,0-1.3,0-2C185.2,73.7,184.6,72.8,183,72.1z"
	/>
<path class="st18" d="M176.9,69.3c-3.1,0.3-0.8,4.1-3.5,4.6c0,0,0,0-0.1,0c-0.1-0.1-0.2-0.3-0.2-0.5c-0.3-0.8,0-1.6-0.1-2.4
	c-0.8,0.1-1-0.7-1.5-1c-0.9,0.5-0.5,1.6-1.2,2.4c-1.3,1.3-1.4-0.9-2.3-0.4c0,0.3,0,0.7,0,1c-0.5,1.8,1.2,3.2,1,5c0.3,0,0.7,0,1,0
	c0-1.1-0.3-2.5,1.7-1.8c1.7,0.6,3,1.7,2.3,3.8c1.1,1.3,1.5,1.4,2,0.1c0.2-0.6,0.2-1.2,1-1.1C175,75.9,176.2,72.5,176.9,69.3z"/>
<path class="st19" d="M153.3,91.9c-0.7-0.6-1.7-1.1-1.2-2.4c1.6-1.1,3.8,0.7,5.4-1.2c0.3-0.3-0.1,2,1.4,1.9c0.7,0,1.3,0,2,0
	c-0.1-0.6,0.3-1.4-0.3-1.8c-0.8-0.6-0.7-1.4-0.7-2.2c-0.1-1.7-2.2-0.7-2.6-1.9c-1.2,0.6,0.6,2.7-1.4,2.9c0,0.5-0.3,1.1-0.6,0.8
	c-1.2-1.2-2.7-2.1-3.4-3.8c-1.1,0.5-2.1,1.3-3.5,1.1c-0.7-0.1-1.7-0.5-2.3,0.3c-0.3,0.5,0.3,0.7,0.8,0.7c1.9,0.7,2.7,2.6,4,3.5
	c0,1.9-1.9,2.1-2,3.5c0.1,0.7-0.4,1.8,0.7,1.9c0.7,0.1,2.1,0.7,2.3-0.7c0.5-3,1.5,0.9,2-0.2C154,93.3,154.1,92.5,153.3,91.9z"/>
<path class="st15" d="M138,132.3c0-1.6-1.2-1.1-2-1.2l0,0c-1.8,1.3-3.3,2.8-4,5c0.7,0,1.3,0,2,0c0-0.7,0.3-1,1-1
	c-0.1-1,0.6-1.1,1.3-1c0.5,0.1,0.8,0.4,0.8,1c-0.1,1,0,2,0,3c0.3,0,0.7,0,1,0C138,136.2,138,134.2,138,132.3z"/>
<path class="st20" d="M134.5,94.1c-1.6,2.4-1.6,2.5-3.5,0c-0.3,0-0.7,0-1,0c0,0.3,0,0.7,0,1s0,0.7,0,1c0.3,0.1,0.8,0.2,0.8,0.3
	c0.1,2.3,0.8,4.8,0.1,6.8c-1.9,5.3-3,10.9-5.9,15.8c0,0.1,0,0.2,0.1,0.3c0.1,1.2-1.3,2-1,3.2c0.1,0.5-0.1,1.8,0.6,1.2
	c1.7-1.4,2,0.5,2.4,1c1.1,1.4,2.5,1.3,3.9,1.3c-0.1-1,0-1.9,1-2.5s1.1-1.5,1-2.5c-2.4,0.1-3.1-1.7-4.2-3.2c4.5-4.2,6-9.3,6.2-14.9
	c0.1-3,0-5.9,0-8.9C134.8,94.1,134.6,94,134.5,94.1z"/>
<path class="st11" d="M131,94.1c1.9,2.5,1.9,2.5,3.5,0c0-0.1,0.3,0,0.5,0c-0.4-1.3,1.5-2.7,0-4C132.8,90.6,132.5,92.9,131,94.1z"/>
<path class="st21" d="M140,66.1c0,0.2,0,0.4,0,0.5c-1.6,0.6-3.3,1.1-1,3.1c0.2,0.2,0,0.9,0,1.4c1.6,0.3,2.3-0.4,2-2
	C140.6,68.1,141.9,66.6,140,66.1z"/>
<path class="st22" d="M45,232.1c-0.3,0-0.7,0-1,0c-1.3,0-2.5,0-3.8,0c-0.7,0-1.3-0.1-1.2-1c-1.5,0.1-0.8,1.2-1,2c1.3,0,2.7,0,4,0
	C43,232.7,44.5,234,45,232.1z"/>
<path class="st23" d="M164.2,152.5c-0.2,0.2-0.2,1,0,1.3c0.5,0.7,0.7-0.2,1-0.4c0.6-0.5,1.2-0.2,1.8-0.3c0-0.3,0-0.7,0-1
	c0-0.7,0-1.3,0-2C165.6,150.3,165.1,151.7,164.2,152.5z"/>
<path class="st24" d="M198,60.1c0.7-0.3,1.3-0.7,2-1c0-2.3,0-4.7,0-7c-0.3,0-0.7,0-1,0C199.7,54.9,197.9,57.4,198,60.1z"/>
<path class="st25" d="M145,47.1c1.2,0.2,2,1.3,2.5,2.1c0.6,1.1,2.5,0.2,2.5,1.9c0.8,0.2,1.9-0.5,2,1c1.1,0.1,1.7,1.5,3,1
	c-0.3-0.7-0.7-1.3-1-2c-1-0.7-2-1.3-3-2c-1.7,0.1-0.5-2-1.8-2.4c-0.8-0.2-1.8-0.7-2.3-1.3c-1.7-2-3.2-4.2-4.8-6.3c-1-1.3-2-2.7-3-4
	c-0.7,0-1,0.3-1,1c0.1,0.6-0.3,1.3,0.3,1.8c1.5,1.1,1.8,2.8,2.7,4.2C143.3,43,144.1,45.1,145,47.1z"/>
<path class="st25" d="M155,53.3c0-0.1,0-0.2,0-0.3C155,53.2,155,53.3,155,53.3L155,53.3z"/>
<path class="st24" d="M197,58.4c-0.3-1.6-1.3-2.5-3-2.3c0.3,0.7,0.7,1.3,1,2c1,1.2,0.9,3.2,2.6,3.9c0.6-0.6,0.3-1.3,0.4-1.9
	C196.7,60.1,197.1,59.1,197,58.4z"/>
<path class="st26" d="M158,28.1L158,28.1C158.2,28,158.2,28,158,28.1z"/>
<path class="st26" d="M169.9,31.5c0.8,0.6,1.4,1.4,2.3,2.3c-3.1,0.9-4.7-1.1-6.1-2.9c-0.7-0.9-2.6-0.5-2.3-2.4
	c0.1-0.6-1.4-0.6-1.7-0.3c-1.5,1.3-2.8-0.3-4.1-0.1c1.7,2,2.4,4.6,5.1,5.8c1.8,0.8,2.8,3,2.9,5.2c0.8,0.1,1-0.7,1.5-1
	c1.3,0.9,2,2.4,3.5,3c1.4-1.5,2.7-0.2,3.8,0.4c1.1,0.6,1.6,2,3.2,1.6c0.5,0,1.1-0.2,1.4,0c1.9,1.8,1.6,0.1,1.6-1
	c-1.4-5.4-4.2-9.9-8.9-12.9c-1.5-1-2.7-2-3.4-3.7c-0.6-1.6-1.8-2.9-2.7-4.3c-1.1-0.1-1.7-1.5-3-1c0.8,2,2.9,2.8,3.9,4.6
	c-0.2,0.2-0.3,0.4-0.4,0.4c-0.5,0-1,0-1.5,0C166.9,29.3,166.9,29.3,169.9,31.5z M176.8,39.5c0.2,0.3,0.2,1,0,1.3
	c-0.5,0.8-0.7-0.2-1-0.3c-1-0.4-2.1-0.6-2.8-1.9C174.7,37.6,175.9,38.1,176.8,39.5z"/>
<path class="st24" d="M192.9,53.5c0.3,0.2,0.7,0.4,1.1,0.6c0.3-1.7-0.2-3.2-1.7-4.2s-1.3-2.4-1.3-3.8c0-0.7-0.3-1-1-1
	c-2.1-0.2-0.2-2.4-1.5-3c-0.9,0.8-0.4,1.8-0.5,2.7c-0.1,3.4,3.2,5.6,3.2,8.9c0,0.1,0.5,0.2,0.8,0.3C192.1,53.5,192,52.9,192.9,53.5z
	"/>
<path class="st27" d="M142.6,57.3c0.6,0.5,1.4,0.8,1.4,1.8c0,1.7-0.3,3.5,1,5c0.7,0,1,0.3,1,1c0.6,0.1,1-0.2,1-0.7
	c0-1.7,0.5-1.3,1.4-0.5c0.3,0.2,0.6-0.3,0.6-0.8c0.1-1-0.9-1.5-1.1-2.5c-1-4.4-1.1-4.4-3.9-6.5c-0.7,0.3-1.3,0.7-2,1
	C142,55.9,141.9,56.6,142.6,57.3z"/>
<path class="st28" d="M148,79.3c0.1-2.8-1.7-4.5-4-6.6c0,2.2,0,3.8,0,5.4c-0.1,1,0.8,1.8,0.9,2.5c0.2,2.3,1.7,1.5,2.7,1.3
	c0.6-0.2,1.4-0.8,1.4-1.8C148.4,80.2,148,79.8,148,79.3z"/>
<path class="st29" d="M169.2,57.5c0-0.2-0.1-0.4-0.1-0.5H169C169.1,57.1,169.1,57.3,169.2,57.5z"/>
<path class="st29" d="M167.2,56.8c-0.3-0.9-1-2.2,0.8-2.7c0.2-2.2-1.4-3.1-3-4c-0.6-0.1-1.7-0.2-1.7-0.3c0-1.8-2-2.2-2.3-3.7
	c-2.1,0.2-0.2,2.4-1.5,3c-0.4-0.3-0.8-0.9-1.1-0.8c-0.5,0.1-0.6,0.9-0.4,1.2c0.5,0.8,1.2,1.5,2,2.1c1.4,1.2,2.7,2.6,1.9,4.6
	c-0.5,1.2,1.8,2,0.3,3.2c1,0.7,0.2,2.5,1.8,2.7c1.1,0.1,1.9,0.9,1.9,1.8c0.2,3.1,1.7,6,1.1,9.2c0.3,0,0.7,0,1,0c0-0.3,0-0.7,0-1
	c0-1.7,0-3.3,0-5C169.1,62.7,169.1,62.7,167.2,56.8z"/>
</svg>
