<?xml version="1.0" encoding="utf-8"?>
<!-- Generator: Adobe Illustrator 26.1.0, SVG Export Plug-In . SVG Version: 6.00 Build 0)  -->
<svg version="1.1" id="Layer_1" xmlns="http://www.w3.org/2000/svg" xmlns:xlink="http://www.w3.org/1999/xlink" x="0px" y="0px"
	 viewBox="0 0 269.4 255.9" style="enable-background:new 0 0 269.4 255.9;" xml:space="preserve">
<style type="text/css">
	.st0{fill:#5A4748;}
	.st1{fill:#614541;}
	.st2{fill:#5A4544;}
	.st3{fill:#6F524F;}
	.st4{fill:#604544;}
	.st5{fill:#583C3C;}
	.st6{fill:#5F383D;}
	.st7{fill:#614643;}
	.st8{fill:#6D5351;}
	.st9{fill:#6E4D45;}
	.st10{fill:#5A3F3D;}
	.st11{fill:#6C4E4A;}
	.st12{fill:#654847;}
	.st13{fill:#694B49;}
	.st14{fill:#6D4C4A;}
	.st15{fill:#6F4F53;}
	.st16{fill:#654B4B;}
	.st17{fill:#5F4545;}
	.st18{fill:#6C4C49;}
	.st19{fill:#664844;}
	.st20{fill:#724F4A;}
	.st21{fill:#6B4946;}
	.st22{fill:#653F3B;}
	.st23{fill:#644749;}
	.st24{fill:#724E49;}
	.st25{fill:#603B3F;}
	.st26{fill:#63403C;}
	.st27{fill:#684542;}
	.st28{fill:#64413C;}
</style>
<path class="st0" d="M138.6,8c2.2,2,5,2.9,7.7,4c0.5,0.2,1.3,0.2,1.7-0.5c-0.3-0.9-1.6,0-1.9-1.1c2.8-1.5,4.7,0.9,6.9,1.6
	c2.3-1.3,2.6-1.4,4.4-0.1c0.6,0.5,1,1.4,2.1,1.1c1.2-0.6-0.2-2.2,1-2.9c0.6,1,0.7,2.6,2.5,2c0.2-1-1.6-1.3-1-2.5c1.3-0.6,3,2,4-0.5
	c-0.6-0.1-1.2,0.2-1.9-0.3c-2.4-1.8-5.6-1.8-8-3.7c-3.6,0.3-6.7-1.6-10.2-2c-0.7,0-1.3,0-2,0c-1.3,0-2.7,0-4,0c-0.3,0-0.7,0-1,0
	c-1.3,0-2.7,0-4,0C134.8,5.7,137.1,6.7,138.6,8z"/>
<path class="st1" d="M175.7,19.8c-0.6,0.6-3.2-0.8-3.4-1.5c-0.9-3.2-1.6-3.6-4.3-2.2c1.3,1.3,0.9,3.2,1.9,4.7
	c0.6,0.9,0.9,1.9,2.1,2.3c0.1-0.6-0.3-1.3,0.3-1.8c0.6-0.4,1.2-0.2,1.7,0.3c1.7,1.7,3.4,3.4,5,5c0,1.5-0.9,2.2-2,2.5
	c0,0.3,0,0.7,0,1c0,1,0.9,1.7,1.4,1.8c1.7,0.3,1.1,0.6,0.8,1.9c-0.4,1.5,1.2,2.5,2.7,2.9c0.2,0,0.4-0.4,1.1-1c0,2,0,3.5,0,5.1
	c0,0.7,0.1,1.3,1,1.3c0.7-0.3,1.3-0.8,2.1-1c0.6-0.1,1.1-0.4,0.9-0.9c-0.5-1.3-1.1-2.5-1-4.1c0-1.2-0.2-1.2-2.9-2.6
	c0.6-0.8,3.6-0.5,1.3-2.7c-0.3-0.3-0.3-0.5,0.2-0.7c0.3-0.1,0.7-0.2,0.9-0.1c0.5,0.2,0.4,0.8,0.7,1.1c0.8,0.9,0.5,2.5,2,2.9
	c0-0.3,0-0.7,0-1c-1.1-1.9,0-5-3-6c0,0.5-0.1,1.1-0.7,0.8c-3-1.4-4.9-4.1-7.3-6.3c1-1.1,1.6-0.3,2.4,0.3c1.2,1.1,2,2.6,3.6,3.2
	c0.1-1.5,1.2-0.8,2-1c-0.9-2.3-3-3.1-5-4C178.6,19.5,177.4,18.2,175.7,19.8z"/>
<path class="st2" d="M193.3,43.9c0.8,0,1-1.2,2.3-0.7c0.4,1.8,0.9,3.8,1.4,5.9c-0.2,1.6,0.4,2.6,2,3c0.3,0,0.7,0,1,0
	c-1.2-3.9-2.1-8-3-12c-0.7-0.3-1.3-0.7-2-1C193.1,40.8,193.1,40.8,193.3,43.9z"/>
<path class="st3" d="M159,16.1c1.6,0.5,1.4,2.1,2,3.3c0.5,1.1,1.3,0.6,2,0.7c1.3-0.5,1.9,0.9,3,1c1.5-0.2,2.6,0.5,3,1.9
	c0.9,3.9,4.2,5.3,7.1,7.1c0.2,0.2,0.6,0,1,0c0-0.3,0-0.7,0-1c-2.4-1.4-3.2-4.1-5-6c-1.2-0.4-1.5-1.4-2.1-2.3c-1-1.5-0.6-3.5-1.9-4.7
	c-1-2.2-3.5-2.5-5-4c-1.9,0.7-1.9-1-2.5-2c-1.1,0.7,0.3,2.3-1,2.9c-1.1,0.3-1.5-0.6-2.1-1.1c-1.7-1.3-2.1-1.2-4.4,0.1
	c1.4,0.7,2.8,1.3,4.1,2C158,14.5,158.8,15,159,16.1z"/>
<path class="st4" d="M127,9.1c1.7,1,3.3,2,5,3c0.8-0.1,1,0.8,1.6,1c1.1,0.4,2.9-0.8,3.3,0.9c0.5,2,1.9,0.7,2.6,1.2
	c1.3,0.9,1.7,2.6,2.5,3.9c1.3,0.7,2.7,1.3,4,2c-0.1-1,1-1.3,1.2-1c3,3.6,7.6,3.4,11.5,4.9c0.8,0.3,1.3,1,2,1.1
	c1.1,0.1,1.6-0.2,0.5-1.2c-0.5-0.6,0.2-0.7,0.6-0.7c1.1,0,1.8,1.5,3.1,1c0.5,0,1,0,1.5,0c0.1,0,0.2-0.2,0.4-0.4
	c-1-1.8-3.1-2.6-3.9-4.6c-0.7-0.1-1.5,0.4-2-0.7c-0.5-1.2-0.4-2.7-2-3.3c-0.3,0-0.7,0-1,0c-0.2,0.8,0.5,1.9-1,2
	c0.3,1.7,2.5,2.1,2.4,4.3c-1.4-1.8-3.6-1.9-5-3.5c-0.7-0.8-1.4-1.3-2.4-0.3c-1.5,1.3-3.2,0.5-3.6-0.8c-0.6-2.1-3.7-1.9-3.6-4.4
	c0-0.5-1-0.2-1.6,0.1c-1.4,0.5-3.2,0.2-3.8-0.6c-1.8-2.4-4.6-3.2-7-4.7c-0.7-0.4-2.1,0.6-2.2-1c-0.9,0-1.9,0-2.8,0
	c-0.7,0-1.2,0.1-1.2,1C126.7,8.1,127,8.4,127,9.1z"/>
<path class="st5" d="M136.3,21.9c-1.5-1.4-2.9-2.9-4.1-4.6c3,1.3,5.6,3,7.9,5.4c-0.7,0.3-1.3,0.5-2.2,0.8c1.5,0.4,0.3,2.4,2.1,2.6
	c0-0.5,0.3-1.1,0.6-0.8c1.2,1.2,2.7,2.1,3.4,3.8c0.5,0,1.1,0.1,1.5,0c0.6-0.3,0.1-0.6,0-1c-0.6-1.6-1.7-3.1-2.2-4.6s-1.4-2.7-2.1-4
	c0,0,0.2-0.3,0.3-0.3c0.1-0.1,0.3,0,0.5,0c-0.7-1.4-1.1-3-2.5-3.9c-0.8-0.5-2.2,0.7-2.6-1.2c-0.4-1.7-2.2-0.5-3.3-0.9
	c-0.6-0.2-0.7-1.1-1.6-1c0.3,1.3-0.4,2.2-1.4,2.8c-0.5,0.3-0.7-0.3-0.6-0.8c-0.7,0-1.3,0-2,0c-0.3,0.7-0.7,1.3-1,2
	c1.4,0.6,2.4,1.6,3,3c2.3,1.7,4.7,3.3,7,5C137,23.3,137.1,22.6,136.3,21.9z"/>
<path class="st6" d="M154.8,181c0.8,0.1,2.1,0.7,2.2-0.9c-6.1-0.7-12.1,0.9-18.2,1c-0.5,0-0.9,0.4-0.8,1c0,0.3,0,0.7,0,1
	c3.4-0.3,6.9,0.6,10.4-0.9c0.8-0.3,2.9-1.3,3.6,0.9c0,0.7,0.3,1,1,1c0-0.3,0-0.7,0-1C152.8,181.8,153.1,180.9,154.8,181z"/>
<path class="st6" d="M163.9,185.1c1.6,0.2,2.7-0.3,3.1-2c-0.8,0-1.9-0.3-2.4,0.1c-2.1,1.6-3.7,1.3-5.6-0.5c-1.2-1.1-2.8-1.2-4,0.4
	c0.1,0.3,0.3,0.8,0.3,0.8c2.2-0.5,3.1,1.6,4.7,2.2C161.2,185.3,162.4,184.9,163.9,185.1z"/>
<path class="st7" d="M105,61.1c-0.2,1.5,0.4,3.1-0.9,4.6c-0.6,0.7,0.4,1.4,1.3,0.5c1.1,1.4,1.5,1.5,3.6,0.9c-0.1-2.6,0.9-4.9,2.3-7
	c1.4,0.7,0,2.3,1.3,3.1c0.6-2.1,0.9-4.4,2.7-5.9c1.1-0.9,0.5-2.1,0.7-3.2c-1.7,0.3-1,3.7-3.6,2.9c-0.7-0.8-0.3-1.9-0.4-2.8
	c0-0.7-0.3-1-0.8-1.1c-0.2,0-0.4,0-0.6,0c-0.7,0.2-0.4,0.9-0.6,1.4c-0.6,1.4,1.8,1.7,1,3.1c-2.4-0.9-2.4-0.9-3.1-3.2
	c-0.1-0.2-0.5-0.2-0.8-0.4c-0.2,0.8,0.5,1.9-1,2C106.5,57.9,104.8,59.3,105,61.1z"/>
<path class="st8" d="M100.2,73.1c1.1-0.4,0.4-2.3,1.8-2c-0.5-3.3,1.3-6.4,1.2-9.7c0-0.1,0.5-0.2,0.8-0.3c0-1,0-2,0-3
	c-0.1-0.3-0.1-0.7-0.3-0.8c-0.6-0.2-0.6,0.3-0.7,0.7c-0.1,0.8,0.6,2-1,2.1c-0.4,2.6-0.8,5.2-1.3,7.8c-0.1,0.4-0.8,0.6-0.7,1.2
	c0,0.3,0,0.7,0,1c0,0.9,0,1.7,0,2.8C100.1,73,100.1,73,100.2,73.1z"/>
<path class="st9" d="M139,35.1c0.1-1,0-2.1-1-2.4c-2-0.6-3.1-2.4-5-3.9c0,1.1,0,1.7,0,2.3c0.6,1.3,2.1,1.9,2.8,3.2
	c0.4,0.7,1,1.7,2.2,1.8C138,35.4,138.3,35.1,139,35.1z"/>
<path class="st10" d="M99.6,78.2c0.7-2.5,2.8-4.3,2.4-7.1c-1.4-0.3-0.6,1.6-1.8,2c-0.1,0-0.1,0-0.2,0.1c0-0.1,0-0.1,0-0.2
	c0-1.1,0-2,0-2.8c-0.9-0.1-1,0.5-1,1.2c0,1.6,0,3.2,0,4.8C99.1,76.7,98.7,77.4,99.6,78.2z"/>
<path class="st11" d="M194,54.1c-0.4-0.2-0.8-0.4-1.1-0.6c-0.9-0.6-0.8,0.1-0.9,0.6c0,0.3,0,0.7,0,1c2,1.2,0.4,3.1,1.2,4.5
	c-2.8,0.4-2.8,0.4-3.2-1.5c-2.3-0.6-2-3.6-4-4.5c0-2.7,0.3-5.5-1-8c1.9-1.8-0.1-1.9-1-2.5c-0.1,0.5-0.1,1-0.6,0.8l0,0
	c-0.1,0-0.2-0.1-0.3-0.2c-0.7-0.5-1-1.5-2.1-1.6c0,1.1,0.3,2.8-1.6,1c-0.3-0.2-0.9,0-1.4,0c0,0.8-0.1,1.5,0.6,2.2
	c0.6,0.5,1.4,0.8,1.4,1.8c2.2,2.6,3.5,5.5,3,9c2.4,1,4.6,2.3,5.5,5c0.1,0.4,0.5,0.9,1.1,1c0.1,0,0.3,0,0.4,0c1,0.1,1.3-1.3,2.5-1
	c1.5,0.4,1.5-0.7,1.5-1.7c0-0.7,0-1.3,1-1.2c-0.3-0.7-0.7-1.3-1-2C194,55.4,194,54.8,194,54.1z"/>
<path class="st12" d="M192.3,70.1c0,0.1,0.1,0.1,0.1,0.2l0,0l0,0c-0.1,0-0.1,0-0.2,0c-1.8-0.3-3.2,0.7-4.2-1.1
	c-0.5,0.8-1.6,3.4-1.5,4c0.4,1.4-0.6,1.7-1.5,2c0,0.7,0,1.3,0,2c0,0.2,0,0.3,0,0.5c0.2,1.8,2.8,2.6,3,1.5c0.2-0.9-0.5-2,0.3-2.8
	c0.8-0.7,1.4,0,2,0.6c0.1,0.1,0.6-0.2,0.6-0.3c0.2-3.2,1.7-0.8,3-0.6c0-1,0-1.9,0-2.8c-0.9-1.1-0.8-1.9,0.4-3c1.3-1.2,0.9-1.6-1.4-2
	C191.9,68.1,190.3,67.8,192.3,70.1z"/>
<path class="st3" d="M150.1,13.5c0.6,0.7,1.2,1.2,2,1.7c1.6,1,3.8,1.1,4.9,2.9c1.5-0.1,0.8-1.2,1-2c-1.9,0.1-3.3-1-4.5-2.1
	C152.4,13,151.4,12.7,150.1,13.5z"/>
<path class="st13" d="M143,32.1c0-0.7,0-1.3,0-2c0-0.3,0-0.7,0-1c-1.4-0.6-2.4-1.6-3-3c-1.7-0.2-0.6-2.2-2.1-2.6
	c0.9-0.3,1.4-0.5,2.2-0.8c-2.3-2.5-4.9-4.1-7.9-5.4c1.2,1.7,2.6,3.2,4.1,4.6c0.7,0.7,0.7,1.4,0.7,2.2c1.4,3.1,3.8,5.7,5,9
	C142.7,33.1,143,32.8,143,32.1z"/>
<path class="st14" d="M145.8,34.7c0.5-0.5,0.1-1.1-0.3-1.7c-0.7-0.9-1.5-1.1-2.5-1c0,0.7-0.3,1-1,1c0,0.7,0.3,1,1,1c0.5,0,1,0,1.5,0
	C145,34.1,145,35.5,145.8,34.7z"/>
<path class="st15" d="M138.8,164.1c1.6,0.1,1.1-1.2,1.2-2c-0.8,0-1.6,0-2.8,0c0.1-1.1,1.1-2.1,0.8-3.2c-0.3-1.1-1.7-1.3-1.8-2.8
	c1.6,0,3.1,0,4.7,0c0,0,0,0,0-0.1l0,0c-0.1-0.3-0.2-0.7-0.3-0.7c-2.7,0.3-5.2-1.4-7.9-1.2c-0.5,0-0.9-0.4-0.8-1
	c-0.8,0-1.6,0.2-2.2-0.7c-0.5-0.7-1.2-0.2-1.8-0.3c0.8,2.3,3.1,2.4,4.7,3.2c-0.3,1.9-1.9,3.7-0.7,5.8c0.5,0.1,1.1-0.1,1.6,0.1
	c0.1,0.1,0.2,0.2,0.3,0.4c0,0.1,0.1,0.1,0.1,0.2c0.1,0.8,0.5,1.7-0.8,2.4c-1.4,0.7-3.3,0.3-4.2,1.9c1,0,2,0,3,0
	C134.2,165.3,136.3,164,138.8,164.1z"/>
<path class="st6" d="M157,180.1c4,0.1,8.1-0.5,12,1c-0.2-1.1-0.9-1.8-2-2c-2.9,0-5.8,0-8.8,0C157.6,179.1,156.9,179.2,157,180.1z"/>
<path class="st16" d="M126.9,57.1c0.4,1.6,0.9,3.3,1.3,4.9c0.6,2.6,1.1,5.7,3.7,7.3c1.2,0.8,1.8,2.2,3.2,2.8
	c-0.1-1.7,0.6-3.7-1.4-4.9c-0.9-0.5-0.8-1.4-0.6-2.2c0.4-1.7-0.5-3.2-1.2-4.4c-0.9-1.5-1.3-3.2-1.7-4.7c-1.3-4.6-2.5-5.8-7.2-5.8
	c-1.3,0-2.6,0-3.9,0c0,0.3,0,0.7,0,1C123.2,51.4,126,53.3,126.9,57.1z"/>
<path class="st17" d="M132,136.1c0.7-2.2,2.2-3.7,4-5l0,0c-0.9,0.2-1.9-0.4-2.8,0.3c-3.4,2.7-7.4,4.6-11.4,6.9
	c-1.9-1.8-3.8-3.3-6.1-4.4c-3.5-1.6-4.5-5.5-5.7-8.9c1.2-2.3-2.8-1.5-2-3.6c0.7-1.8-1.2-2.5-1.7-3.7c-0.5-1.1-1.7-2-1.2-3.5
	c0.4-1.3-0.5-2.2-1.1-3c-1.5-2.3-1.2-4.8-0.8-7.1c0.2-1.4,1.9-2.7,2.9-4c-0.3-1.7-2.2-1-3-2c-1.9,0.6-0.5,2.2-1,3.3
	c-2.2,4.4-0.8,8.5,1,12.7c2,4.8,4.3,9.5,5.7,14.5c0.7,2.5,2,4.5,3.3,6.6c2.7,0.7,5.4,1.5,7.1,3.7c1.1,1.4,2.4,1.3,3.9,1.3
	c0.3,0,0.7,0,1,0c0.8-2.8,3.1-1.8,5-2C129.3,136.4,131.2,137.1,132,136.1z"/>
<path class="st17" d="M106,100.1c0,0.2,0,0.4,0.1,0.6C106.1,100.5,106,100.3,106,100.1z"/>
<path class="st17" d="M117.6,102.1c0.5-1.8,1.8-3.2,1.4-5c-1-0.7-2-1.3-3-2c-1,0.5-1.9,0.9-2.9,1.4c0.5,1.3,1.9,1.4,2.9,2.1
	c-3.5,0.6-3.5,0.6-6,2.5c0,0.3,0,0.7,0,1C112.6,102.1,115.1,102.1,117.6,102.1z"/>
<path class="st17" d="M107.2,101.1c0.9,0,1.9,0,2.8,0c-1-1.7-2.3-2-4-1c0.1,0.3,0.2,0.6,0.3,0.8
	C106.5,101.1,106.8,101.1,107.2,101.1z"/>
<path class="st18" d="M119,87.1c-0.4-1.4-1.3-2.1-2.8-2c-0.6,0-1.1,0-1.2-0.7c0-0.1,0-0.2,0-0.3c-1.6-0.2-0.5,1.7-1.5,2
	c-0.5-0.6-1.1-1.4-2-0.9c-0.9,0.4-0.7,1.5-0.5,2.2c0.6,2,2.3,1.8,4,1.8C115.6,86.9,117.3,87,119,87.1z"/>
<path class="st19" d="M138.2,71.4c0.3-0.1,0.5-0.2,0.8-0.3c0-0.5,0.2-1.2,0-1.4c-2.3-2-0.5-2.5,1-3.1c0.1,0,0-0.3,0-0.5
	c-0.3-0.5-2-5.8-2-6.3c0-1.1,0-2.3,0-3.5c3,2.4,3.1,2.6,4,5.8c1.3,0,0.9-1,1-1.7c0-0.7,0.1-1.3,1-1.3c0-1-0.8-1.3-1.4-1.8
	c-0.7-0.7-0.6-1.4-0.6-2.2c-0.3-0.7-0.7-1.3-1-2c-0.2-0.4-0.4-0.8-0.6-1.1c-0.6-0.9-0.7-1.6,0.6-1.9c0.2-0.4,0.4-0.8,0.6-1.1
	c0.6-0.9-0.1-0.8-0.6-0.9c-2.4,0.5-2.9-2.2-4.6-2.9c-1.4,2.1,0.8,3.9,0.6,5.9l0,0c0,3.6,0,7.3,0,10.9c0,1,0.4,2-0.3,2.8
	c-1.5,1.6-1.1,3.8-0.5,5.1c1.2,2.7,0.6,5.4,0.8,8.1c0.1,0.9-0.5,2.2,1.2,2c1.2-0.2,0.6-1.3,0.8-2c0.1-0.3,0-0.7,0-1
	C138.9,75.2,139.5,73.2,138.2,71.4z"/>
<path class="st20" d="M181,59.4c0-1-0.4-1.5-1.4-1.3c-1,0.3-0.5,1.3-0.7,2c1.9,0.5,0.6,2,1,3c1.5-0.9,1.5-0.9,3,0
	c0.5-1.3-0.9-1.9-1-3C181.4,60.2,181,59.8,181,59.4z"/>
<path class="st21" d="M174.1,66.6c0.2,0.2,0.5,0.4,0.9,0.5C174.7,66.9,174.4,66.7,174.1,66.6C174.1,66.5,174.1,66.5,174.1,66.6z"/>
<path class="st21" d="M181,74.5c0.1-0.8,0-1.6,0-2.4c-0.2-1.7,0.8-3.9-1.7-4.8c-0.9,0.7,0.3,2-0.7,2.7c-0.2-0.1-0.6-0.3-0.6-0.4
	c-0.1-1.1,0-2.3,0-3.4c-1.3-0.5-1.9,0.9-3,1c-0.4,1.1-1.4,1.9-1,3.3c0.1,0.4-0.4,0.8-1,0.7c0.1,0.8-0.2,1.6,0.1,2.4
	c0.1,0.1,0.2,0.3,0.3,0.4c2.7-0.5,0.4-4.3,3.5-4.6c-0.7,3.2-1.9,6.6,0.1,9.8c0,1.7,2.1,0.5,2.4,1.9c2.7-0.8,2.4,1.7,3.6,2.9
	c0-2.3,0-4.5,0-6.8c0-0.3,0-0.7,0-1C181.8,76.2,180.7,76.2,181,74.5z"/>
<path class="st22" d="M171.6,80.1c-1.8,0.3-1.6-0.9-1.6-2c-0.3,0-0.7,0-1,0c0,0.7-0.3,1-1,1c0.7,1.9,1.5,3.7,2,5.6
	c0.4,1.4,1.1,2.7,2.4,2.3c1.2-0.4,1-1.9,0.1-2.8c-0.5-0.6-0.7-1.1-0.3-1.7c0.1-0.2,0.5-0.2,0.8-0.4c0-0.7,0-1.3,0-2
	C172.5,80.1,172,80,171.6,80.1z"/>
<path class="st23" d="M138,87.1c-0.2-0.2-0.6,0-1,0c0.2,1.6-0.4,2.6-2,3c1.5,1.3-0.4,2.7,0,4c0,3,0.1,5.9,0,8.9
	c-0.2,5.6-1.7,10.8-6.2,14.9c1.1,1.5,1.8,3.3,4.2,3.2c0.3,0,0.7,0,1,0c0.5-1.9,2-0.6,3-1c-2.8-3.7-2.5-7.8-0.7-11.6
	c0.9-2,1.2-4.2,0.5-5.6c-0.9-2-0.6-3.8-0.8-5.7c-0.3-3.3,1.1-5.3,4.3-6.1c1.1,0.5,1.4,1.8,2.7,2c0.7-0.3,1.3-0.7,2-1
	c-0.1-0.3-0.1-0.7-0.4-0.8C142.4,90,139.9,88.9,138,87.1z"/>
<path class="st24" d="M158,41.1c1.5,0.7,2.9,1.2,3.5,3c0.4,1,1.4,1.1,2.5,1c0-0.3,0-0.7,0-1c0.5-1.9-1.1-2.6-2.1-3.6
	c-1.8-1.6-0.4-2.4,0.9-3.6c0.6,4.4,4.4,5.8,7.3,8.1c-0.4-1.5-2.2-4.4-3.3-5c-0.4-0.2-0.9-0.4-0.7-1c-0.1-2.2-1-4.4-2.9-5.2
	c-2.8-1.2-3.5-3.9-5.1-5.8l0,0c-0.9-2.2-2.8-2.6-5.1-2.8c0.9,2,3.3,1.6,3.9,3.5c-1.3,0.2-0.2,2.4-1.9,2.3c0.2,1.2,1.3,1.8,2.1,2.5
	s1.1,1.5,0.9,2.5C158.2,36.1,155.7,39,158,41.1z"/>
<path class="st25" d="M146.2,123c-0.8,0.1-2.1,0.7-2.2-0.9c-2.7,0.6-4.8-0.9-7-2c-1,0.4-2.5-0.9-3,1c0.9,0,1.9,0,2.8,0
	c-0.8,3.7-0.8,3.7-3.6,4c-0.7,0.1-1.3,0.1-1.2,1c-0.1,0.9,0.5,1,1.2,1c0.9,0,1.9,0,2.8,0c1.1-2.9,3.4-3.3,6-3c2,0,4,0,6,0
	c0-1,0-2,0-3c-0.3,0-0.7,0-1,0C146.9,121.8,147.5,122.9,146.2,123z"/>
<path class="st26" d="M160.7,74.9c-1.9-2.1-2.8-3.8-4.2-8.8c-0.9,2.5-3-0.7-4.1,0.9c-0.9-0.8-1.7-1.5-1.4-2.9c0.1-0.3,0-0.7,0-1
	c-0.7,0-1.3,0-2,0c0.1,0.5-0.3,1.1-0.6,0.8c-0.9-0.8-1.4-1.2-1.4,0.5c0,0.4-0.4,0.8-1,0.7c1.7,1.3,3.3,2.7,5,4c1.4,0.6,2.4,1.6,3,3
	c2.3,0.5,2,3.1,3.6,4.2c0.8,0.6-1.1,1.3-0.6,2.4c0.3,0.7-0.4,1.7,0.4,2.3c0.4,0.3,0.6,1.4,1.3,0.8c0.4-0.3,1.7-0.6,0.7-1.7
	c-0.8-0.9-0.9-1.6,0.6-2c1-0.3,1.9-0.9,2.9-1.4c-1.4-0.9-0.9-2.3-1-3.5c-0.3,0-0.7,0-1,0C160.9,73.7,161.3,74.4,160.7,74.9z"/>
<path class="st27" d="M151.6,63.2c0.5,0.4,0.2,1.8,1.4,1.9c0-1.2,0-2.1,0-3c0-1-0.8-1.3-1.4-1.8c-0.7-0.7-0.6-1.4-0.6-2.2
	c-0.7-0.3-1.3-0.7-2-1c-0.5,2.4,1.3,4,2,6c0.1,0,0.1,0,0.2,0C151.4,63.1,151.5,63.1,151.6,63.2z"/>
<path class="st24" d="M172.6,47c-1.1-0.3-1.3-1.9-2.6-1.9c-0.5,1.3,0.9,1.9,1,3c1.7,0.7,2.6,2.4,3.9,3.3c0.1,0.7-1.4,0.8-0.5,1.4
	c0.6,0.5,1.6,0.5,1.6-0.8c0-1,0-2,0-3c-0.2,0-0.3,0-0.4,0c-0.5-0.1-0.5-0.7-0.6-1.2c-0.5-1.9-0.7-4-3-4.8
	C171.2,44.6,174,45.4,172.6,47z"/>
<path class="st28" d="M164,44.1c0,0.3,0,0.7,0,1c-0.5,1.8,1.2,3.2,1,5c1.6,0.9,3.2,1.8,3,4c0.2,0.8-0.5,1.9,1,2
	c1.4-0.7,3.1-0.4,4.8,0.8c0.1,0.1,0.2,0.1,0.2,0.2c0.3,1.6,0.3,1.6,1.7,2.8c0.6-0.5,0.2-1.2,0.3-1.8c-0.2-0.9,0.4-2-0.3-2.8
	c-1-1.2-2.5-1.7-3.9-2.2c-3-1-3.5-1.7-3.8-5C166.5,46.9,166.2,44.6,164,44.1z"/>
<path class="st28" d="M169,56.9h0.1c0-0.3-0.1-0.6-0.1-0.9C169,56.4,169,56.7,169,56.9z"/>
<path class="st21" d="M171,68.1c-1.1,1.3-1.5,1.4-2,0.1c-0.2-0.6-0.2-1.2-1-1.1c0,1.7,0,3.3,0,5c0.8-0.5,1,1.7,2.3,0.4
	c0.7-0.8,0.4-1.9,1.2-2.4c0.5,0.3,0.7,1.1,1.5,1C173.2,69.5,172.6,68.5,171,68.1z"/>
</svg>
