<?xml version="1.0" encoding="utf-8"?>
<!-- Generator: Adobe Illustrator 26.1.0, SVG Export Plug-In . SVG Version: 6.00 Build 0)  -->
<svg version="1.1" id="Layer_1" xmlns="http://www.w3.org/2000/svg" xmlns:xlink="http://www.w3.org/1999/xlink" x="0px" y="0px"
	 viewBox="0 0 269.4 255.9" style="enable-background:new 0 0 269.4 255.9;" xml:space="preserve">
<style type="text/css">
	.st0{fill:none;}
	.st1{fill:#020203;}
	.st2{fill:#010005;}
	.st3{fill:#4B5A70;}
	.st4{fill:#E3EBF0;}
	.st5{fill:#0F1629;}
	.st6{fill:#121A2E;}
	.st7{fill:#0A1024;}
	.st8{fill:#A16C6D;}
	.st9{fill:#939EB0;}
	.st10{fill:#9B9496;}
	.st11{fill:#101626;}
	.st12{fill:#B5AFB4;}
	.st13{fill:#643333;}
	.st14{fill:#7A5456;}
	.st15{fill:#37232A;}
</style>
<path class="st0" d="M209,178c-0.1,0-0.1,0-0.2,0c0.1,0,0.1,0,0.2,0.1C209,178.1,209,178,209,178z"/>
<path class="st0" d="M169.8,197.8c0.1,0.1,0.2,0.2,0.3,0.3c-0.1-0.1-0.2-0.3-0.3-0.4C169.8,197.7,169.8,197.7,169.8,197.8z"/>
<path class="st0" d="M147,206.6c0,0.1-0.1,0.2-0.1,0.3c0.2-0.2,0.4-0.4,0.6-0.6C147.3,206.3,147.2,206.3,147,206.6z"/>
<path class="st0" d="M102.9,215C103,215,103,215.1,102.9,215C103,215.1,103,215,102.9,215C103,215,103,215,102.9,215z"/>
<path class="st0" d="M64.9,178.7c0.2,0.1,0.3,0.2,0.4,0.2c0-0.1,0-0.2,0-0.3C65.3,178.6,65.1,178.6,64.9,178.7z"/>
<path class="st0" d="M99,138.1C99,138.1,99,138.1,99,138.1C99,138.1,99,138.1,99,138.1C99,138.1,99,138.1,99,138.1z"/>
<path class="st0" d="M29,202.4C29,202.4,29,202.4,29,202.4C29,202.3,29,202.3,29,202.4C29,202.3,29,202.3,29,202.4z"/>
<path class="st0" d="M153.4,201.2c0,0,0.1-0.1,0.1-0.1c0,0,0,0,0,0C153.4,201.1,153.4,201.2,153.4,201.2z"/>
<path class="st0" d="M248.6,175.3c0.1,0,0.2,0.1,0.3,0.1c0,0,0.1,0,0.1,0.1c0-0.1,0-0.2,0-0.3C248.8,175.2,248.7,175.2,248.6,175.3z
	"/>
<path class="st1" d="M269,245.3c-0.1-0.5,0-1,0-1.5c0-13.5-0.1-27,0.1-40.5c0-2.5-0.6-4.4-2.1-6.2c0.2-0.2,0.5-0.4,0.7-0.5
	c-0.7-0.4-1.5-0.6-2.3-0.6c-0.4,0.1-0.7,0.1-1.1,0.1c0.2,0.3,0.5,0.7,0.7,1c0.1,0.6-0.3,0.9-0.8,1c-1.7,0.2-3.5-0.5-4.9,1
	c-3.5-0.7-6.8,1.2-10.3,1c0.1,0.6-0.3,1-0.8,1c-2,0-3.9,0-5.6,0c-0.8-0.5-0.6-1-0.6-1.5c0.1-2.1,2.8-3.1,2.1-5.6
	c-0.5-1.9,1.5-3.3,2-5.1c0.3-1.1,1.8-2.1,0-3.2c0.4-1.5,0.7-2.9,1.2-4.4c0.6-1.9,1.8-3.7,1.6-5.9c0,0-0.1,0-0.1-0.1
	c-0.1,0-0.2-0.1-0.3-0.1c-2.1,1.1-1.7,3.8-3.6,4.8c0.1,1.7-0.7,3-2,4c0.7,2.6-0.4,5-1.2,7.3c-0.4,1.4-0.8,2.6-0.9,4
	c0,0.5-0.4,0.9-1,0.7c-0.3,0.7-0.8,1.3-1,2c-1.3,4.5-1.6,4.8-5.7,5.8c-0.1,0-0.3-0.2-0.3-0.3c-0.1-0.1,0-0.3,0-0.5c-0.7,0-1-0.3-1-1
	c-2.7,2.6-6.3,2.1-9.6,3c-0.8,0.2-1.6,0-2.4,0c-0.7,0.3-1.3,0.7-2,1c-1.4,2.6-3.5,4-6.5,4c-1.8,0-3.4,1.9-5.4,0.6
	c1-1.3,3.2-0.8,3.9-2.6c-1.7,0-3.3,0-5,0c0.1,0.6-0.3,1-0.8,1c-2,0.1-3.9-0.1-5.9,0.1c-2.4,0.2-4.1-1.3-4.2-3c-0.1-2-2-2.5-2.2-4
	c-0.6,0.1-0.9-0.3-1-0.7c-0.1-1.3-0.9-1.9-2-2.3c-1.1,0.2-1.6,1-2,1.8c-0.9,1.9-2.2,3.4-4.3,4.2c-1.2,0.4-0.6,1.3-0.7,2
	c1.1,1,2.6,0.8,3.9,1.3c-2,3.7-5.7,4.1-9.3,4.6c-1.9,0.3-3.7,0-5.6,0.9c-1.3,0.6-3.2,0.1-4.3,0.1c-1.4-0.7,1.7-1.8-0.8-2
	c-2,1.8-4.4,3.1-7,4c-0.9,0-1.9,0-2.8,0c-0.7,0-1.2-0.1-1.2-1c0.4-1-0.9-2.5,1-3c0.3-2.5,2-4.3,3.6-6c1.3-1.5,2.4-3,2.4-5
	c-0.7-1.8-2.2-1.3-2.9-0.4c-1,1.2-2.6,1.2-3.5,2.4c-0.7-0.6-1.3-1.3-2-1.9c0,0-0.1,0.1-0.1,0.1c-0.7,1.2-0.4,2.6-1.3,3.8
	c-1.6,2.2-1.4,2.4-4,1.6c-0.2-0.1-0.3-0.2-0.5-0.2c-0.2,0.2-0.4,0.4-0.6,0.6c0,0.4,0,0.8,0,1.2c1,1.3,2.1,2.5,3,3.8
	c0.3,0.5,0,1.3-1,1.2c0,0.3,0,0.7,0,1c-1.3,1.3-2.7,2.7-4,4c-0.7,0-1,0.3-1,1c0.2,3.7-1.2,7-2.7,10.1c-0.9,1.9-1.4,3.8-1.3,5.9
	c0,2.1-1.7,3.8-1,6c0.2,0.6-0.3,0.9-0.8,1c-0.5,0.1-1.2-0.1-1.2-0.6c0.3-2.9-2.4-4.2-3.2-6.6c-0.8-2.2-1.7-4.7-3.8-6.4
	c-0.2-0.2,0-0.9,0-1.4c-1.6-0.6-2.3-1.9-3.6-3.2c1.5-0.8,2.6-1.3,3.6-1.8c-0.1-1.5-1.2-0.8-2-1c-3.3-0.4-6.8,0.9-9.9-1
	c-2.4,1.8-5.3,0.6-7.9,1.2c0,1,1.8,2.1,0.3,2.7c-1.1,0.4-2.1,1.6-3.5,1.1c-4.8,1.6-9.7,2.6-14.7,3c-2.6,2-6.1,0-8.6,2
	c-2.9-0.4-5.6,1.7-8.6,1c-2.1,1.8-4.8,0.3-6.9,1.4c-2.2,1.2-4.7-0.1-6.7,0.7c-1.9,0.8-4,0.6-5.8,1.5c-1.7,0.9-3.9,1-4.7-1.6
	c-2.9,1.6-6,1.2-9,0.5c0,0,0-0.3,0-0.5c-1.3,0-2.7,0-4,0c-1.2-1.9-1.2-3.5-0.6-5.9c0.7-3,1.7-5.9,1.6-9.1c0-0.7,0.3-1,1-1
	c-3-3.1-5.3-6.7-6.9-10.6c-0.8-2-2.5-2.8-4.1-4.1c0,0,0,0,0,0c0.8,2.5,1.6,5.1,2.4,7.6c0.7,2.2,1.9,4.3,1.6,6.8
	c-0.1,1-0.8,1.4-1.4,2.1c-4.4-2.5-7.9-5.9-10.3-10.2c-0.7-1.3-1.5-2.5-2.6-3.4c-2-1.7-3.4-3.7-2.7-6.4c0.9-3.5-1.4-6.1-2.7-8.9
	c-1.8-4.1-3.7-8.2-6.3-11.9c-1.3-1.8-2.8-3.1-4.2-4.7c-0.8-0.9-1.9-0.2-2.8-0.4c0,27.6,0,55.2,0,82.8h269.1
	C269.7,253.8,269.2,247.4,269,245.3z"/>
<path class="st2" d="M93,109.1c0.4,0,0.6-0.1,0.8-0.2C93.6,108.9,93.3,109,93,109.1z"/>
<path class="st2" d="M65.4,178.8c0.4,0,0.7-0.3,0.9-0.6c-0.3,0.1-0.6,0.2-0.9,0.3C65.4,178.6,65.4,178.7,65.4,178.8z"/>
<path class="st2" d="M70,154.1c-0.2,1.1-1.2,1.8-1.1,3.1c0.2,2.6,0.1,5.3,0.1,7.9c0,0.7,0,1.3,0,2c0,1.3,0,2.5,0,3.8
	c0,0.7-0.1,1.3-1,1.2c0.7,2.2-1,3.9-1,6c0.2,2.1,0.1,4.2-1.4,5.8c-0.6,0.7-0.6,1.4-0.6,2.2c0.8,3.1-1.4,5.8-1,8.9
	c0,0.3-0.1,0.8-0.3,0.8c-2.9,1.4-0.5,3.5-0.7,5.3c1.6,0.9,2.9,1.7,3.1,3.9c0.2,2-0.6,3.4-2,4.6c-0.6,0.5-1.1,0.7-1.7,0.3
	c-0.7-0.4-0.2-1.2-0.3-1.8c-0.3,0.1-0.8,0.2-0.8,0.3c0.1,3.6-1.9,7-1.2,10.7c2,1.4,0.6,3.5,1,5.2c0.1,0.5-0.3,0.8-0.9,0.8
	c-0.6,0-1-0.2-1-0.7c0-1.6-0.3-2.8-2-3.3c0,0.3,0,0.7,0,1c-1.6,1.6-3.7,2.2-5.9,2c-3.5-0.4-7.2,1.1-10.6-0.9c0,0-0.5,0.4-0.5,0.6
	c-0.1,0.7,0,1.4,1,1.3c5.3,0,10.5,0,16.1,0c-0.7,1.6-1.8,0.9-2.6,1c-3.9,0.1-7.8-0.4-11.5,1c0,0.8,0.2,1.6-0.7,2.2
	c-0.7,0.5-0.2,1.2-0.3,1.8c0.8,0.2,1.9-0.5,2,1c0.3,0,0.7,0,1,0c1.6,0,3.2,0,4.8,0c0.7,0,1.3,0.1,1.2,1c0.8,2.6,3,2.5,4.7,1.6
	c1.9-0.9,3.9-0.7,5.8-1.5c2-0.8,4.4,0.4,6.7-0.7c2.1-1.1,4.8,0.4,6.9-1.4c3,0.7,5.6-1.4,8.6-1c2.6-2,6.1,0,8.6-2
	c5-0.4,9.9-1.4,14.7-3c-0.7-1.3-1.3-2.7-2-4c-2.3-2.8-4.5-5.6-6-9c-0.8,0.1-1.2-0.6-1.5-1.1c-1.6-2.6-3-5.3-4.5-7.9
	c-2.7-3.7-2.7-3.8,0-6.5c4.3-4.2,8.5-8.5,12-13.5c-1.5-1.9-0.6-4.6-2-6.5c-1.2-1.5-1.4-3.4-2.2-4.9c-0.9-1.6-0.5-3.1-0.8-4.6
	c-2.2-3.6-3.1-5.7-2.9-8.4c0.2-2-1.3-3.5-1.2-5.5c0.1-1.8,1-4-0.8-5.5c0.5-1.9,0.9-3.9,1.7-5.7c0.4-1,0.1-1.9,0.3-2.9
	c-0.9-1.8,1.5-3.1,0.7-4.8c-0.6-1.4-1.6-2.8-1.6-4.2c0-2.4-1.9-4.5-1.1-6.9c-0.9,0.1-1-0.5-1-1.2c0-1.9,0-3.9,0-5.8c0-0.7,0-1.3,0-2
	c-1.3-1.5-1-3.3-1-5c-0.1-2.9,0.2-5.7-1.6-8.4c-0.9-1.3-0.4-3.5-0.4-5.3c0-2.6-0.7-4.9-1.3-7.4c-0.9-3.4-3.1-7.1-0.7-10.9
	c0.3-0.5,0-1.3,0-2c0.1-1-0.6-0.9-1.3-1c-3.8-0.4-4.7-1.4-3.1-4.9c0.7-1.5-0.6-3.4,1.3-4.5c1.2-4.5,3.6-8.5,4.9-12.9
	c0.2-0.7,0.4-1.3-0.3-1.7c-0.4-0.2-0.9-0.1-1.3,0.2c-1.4,0.9-3,1.6-4.4,2.5c-1.9,1.2-3.2-1.3-5-0.8c-0.2,0-0.3,0-0.5,0
	c-1.6,0.1-2.7-0.3-3.3-2.1c-0.5-1.3-2.4-1.4-2.9-0.3c-0.2,0.3-0.3,0.7-0.5,1l0.7,3.5L71.4,62v6.8L74,79.1l0.7,4.5
	c0.6,0.6,1.3,1.1,2.1,1.4c1.4,0.6,1.2,1.3,1.2,2.1c0,0.7,0,1.3,0,2c0.1,0.6-0.3,1.4,0.3,1.8c0.8,0.6,0.7,1.4,0.7,2.2
	c0.8,3.1,3.2,5.7,3,9.1c1.7,1.7,1.6,4.5,3.1,6.1c2.4,2.5,3.6,6.1,6.9,7.8c1.5,2.6,1.4,3-0.8,4.4c-0.8,0.5-1.4,0.6-2.2,0.6
	c-0.2,0-0.3,0-0.4,0c0,0,0,0.1,0,0.1c-0.3,2,0.6,3.4,1.6,4.8l0.1,0.2v0c0.3,0.4,0.6,0.8,0.9,1.2c1.3,1.9,2.2,3.7,0.5,5.9
	c-3.5,4.3-6.8,8.9-11.7,11.3c-3.7,1.8-6.7,4.2-9.2,7.1c-0.4,0.5-0.8,1-1.2,1.5C69.9,153.4,70,153.6,70,154.1z"/>
<path class="st3" d="M239.4,192.8c-0.3,2.5-2.7,3.2-3.3,5.1c-0.6,2.1-2.2,3.4-3.1,5.2c0,0.2,0,0.3,0,0.5c0.1,0.1,0.2,0.4,0.3,0.3
	c4.1-1,4.4-1.3,5.7-5.8c0.2-0.7,0.6-1.3,1-2C239.9,195.1,240.3,194.1,239.4,192.8z"/>
<path class="st4" d="M142,214.1c-1.3,1.8-2.8,3.3-5,4c0.1,1.5,1.2,0.8,2,1c1.7,0,3.3,0,5,0c0-0.7,0.3-1,1-1
	C145,214.7,144.8,214.5,142,214.1z"/>
<path class="st5" d="M53.8,218.1c0.7,0,1.3,0.1,1.2,1c1.7,0,3.3,0,5,0c-0.7-3.7,1.3-7.1,1.2-10.7c0-0.1,0.5-0.2,0.8-0.3
	c0-1.7,0-3.3,0-5c0.8-3.1-2.1-4.1-3.6-6.2c-1.9,0.9-3.6,2.1-5.5-0.2c-1.2-1.5-3.2-1.5-4.7-0.2c-0.8,0.6-1.4,0.7-2.2,0.7
	c0,0.3,0.1,0.7,0,1c-1.9,5.8-3.4,11.7-2.9,17.6c1.3,1,3.2-0.7,3.9,1.4c0,0.3,0,0.7,0,1C49.3,218.1,51.5,218.1,53.8,218.1z"/>
<path class="st6" d="M52.5,179.1c2-1.1,4.3-0.7,6.4-1.4c0.6-0.2,1-0.9,1.4-1.4c1.5,0.7,3.3,1,4.4,2.1c0.1,0.1,0.2,0.2,0.3,0.3
	c0.2,0,0.3-0.1,0.5-0.1c0.3-0.1,0.6-0.2,0.9-0.3c0.2-0.2,0.4-0.3,0.7-0.2c0-2.1,1.7-3.8,1-6c0-1.3,0-2.5,0-3.8c0-0.7,0.1-1.3,1-1.2
	c0-0.7,0-1.3,0-2c-1.6,0.4-2.3-0.9-3.4-1.9c-2,1.3-4.3,2.3-6.8,1.9c-0.6-0.1-1.4-0.2-2,0c-0.9,0.3-1.7,0.9-1.8,2
	c-0.1,1,2.2,1.6,0.6,2.8c-1.2,0.9-1.7-1.5-3-0.9c-0.6,0.3-0.7,1.1-1.6,1c0.5,1.3-0.9,2-1,3c-0.1,1.3,0,2.6,0,4
	C49.1,179.9,52.3,177.6,52.5,179.1z"/>
<path class="st7" d="M52.6,169.1c1.3-0.6,1.8,1.8,3,0.9c1.6-1.2-0.7-1.8-0.6-2.8c0.1-1.1,0.9-1.7,1.8-2c0.6-0.2,1.3-0.1,2,0
	c2.6,0.4,4.8-0.6,6.8-1.9c1.1,1,1.7,2.3,3.4,1.9c0-2.6,0.2-5.3-0.1-7.9c-0.1-1.3,0.9-2,1.1-3.1c0-0.5-0.1-0.7-0.4-0.9
	c-0.2-0.1-0.3-0.1-0.6-0.1c-3.1,1.4-4,5.1-7,6.7c-1.8,0.9-3.3,2.2-5.5,2.4c-1.8,0.2-4.1,0.8-4.3,2.9c-0.2,1.8-1.3,3.2-1.1,5
	C51.8,170.2,52,169.4,52.6,169.1z"/>
<path class="st1" d="M62,203.1c0,1.7,0,3.3,0,5c0.1,0.6-0.3,1.4,0.3,1.8c0.6,0.4,1.1,0.1,1.7-0.3c1.5-1.2,2.2-2.6,2-4.6
	c-0.2-2.1-1.5-3-3.1-3.9C62.8,201.9,63.5,203,62,203.1z"/>
<path class="st1" d="M41,226.1c-0.8,0.1-2-0.5-2,1.2c0,1.3,0,2.6,0,3.8c1,0,2,0,3,0c0.1-0.6-0.3-1.4,0.3-1.8
	c0.8-0.6,0.7-1.4,0.7-2.2C42.2,226.9,41.1,227.6,41,226.1z"/>
<path class="st7" d="M68,168.3c0,1.3,0,2.5,0,3.8c0.9,0.1,1-0.5,1-1.2c0-1.3,0-2.5,0-3.8C68.1,167,68,167.6,68,168.3z"/>
<path class="st8" d="M143,202.1c-0.3-0.7-0.7-1.3-1-2c-0.7,0-1.3,0-2,0c-0.5,1.9-2,0.6-3,1c-1,0-2,0-3,0c0,1.3,1,0.9,1.8,1
	c0.8,0.2,2.1-0.7,2.2,1c0.7,0,1.3,0,2,0C140.5,201.2,142,202.5,143,202.1z"/>
<path class="st9" d="M139,219.1c-0.8-0.2-1.9,0.5-2-1c-0.7,0.3-1.3,0.7-2,1C136.3,220.4,137.7,220.4,139,219.1z"/>
<path class="st10" d="M46.6,220.1c0.2,0.2,0.9,0,1.4,0c-0.1-0.9,0.5-1,1.2-1c1.9,0,3.9,0,5.8,0c0.1-0.9-0.5-1-1.2-1
	c-2.3,0-4.5,0-6.8,0c-2.3,0-4.7,0-7,0c-0.1,0.6,0.3,0.9,0.8,1c0.7,0.1,1.3,0.1,1.2,1C43.5,219.1,45,218.3,46.6,220.1z"/>
<path class="st11" d="M193,167.1c0.9-2,1.7-4,4.1-5.2c2.4,1.6,3.3,4.3,5,6.5c2.2,3,2.9,7,6.1,9.3c0.2,0.1,0.4,0.2,0.6,0.3
	c0.1,0,0.1,0,0.2,0c0-0.8,0.3-2-0.1-2.3c-2.8-2.5-3-6.7-5.9-9.1c-0.2-0.2,0-1,0-1.5c-3.5-2.6-6.6-5.7-10.8-7.4c-1.1-0.5-2-0.8-3-0.3
	c-0.8,1.1,0.6,2.8-0.8,3.6c-0.1,0.1-0.2,0.1-0.4,0.2c0.2,0.4,0.4,0.8,0.6,1.1c0.6,0.9-0.1,0.8-0.6,0.9
	C189,165.3,191.5,165.6,193,167.1z"/>
<path class="st12" d="M49.2,219.1c-0.7,0-1.3,0.1-1.2,1c1.7,0,3.3,0,5,0c1.9,0,3.9,0,5.8,0c0.7,0,1.3-0.1,1.2-1c-1.7,0-3.3,0-5,0
	C53.1,219.1,51.1,219.1,49.2,219.1z"/>
<path class="st13" d="M174,185.1c0.3,0,0.7,0,1,0c1.8-0.4,2.2-2.6,4-3c-0.1-1.5-1.2-0.8-2-1c-0.1,1.5-1.2,0.8-2,1
	C174.9,183.2,173.5,183.8,174,185.1z"/>
<path class="st14" d="M169,197.1c0.3,0.3,0.5,0.5,0.8,0.7c0,0,0-0.1,0-0.1C169.6,197.4,169.4,197.2,169,197.1z"/>
<path class="st14" d="M163,205.8c-0.1-0.4,0.4-0.6,1-0.8c1.4-0.4,1.6-1.9,1.9-2.9c1.1-3.4,1-3.5,3.1-5.1c-1.5-1.3,0.4-2.7,0-4
	c-1.5-0.1-0.8-1.2-1-2c-1.6,1-2.1,2.5-2,4.2c0.1,1.5-0.6,2.4-2,2.8c-0.4,1,0.9,2.5-1,3c-0.3,0-0.7,0-1,0c-0.1,2-1.1,3.5-2.4,5
	c-1.6,1.7-3.2,3.5-3.6,6c0.8,0.1,1-0.7,1.6-1c0.7,1.2,0.4,2.4,0.3,3.6c-0.9,0.6-1.9,0.2-2.9,0.3c-0.1,0.9,0.5,1,1.2,1
	c0.9,0,1.9,0,2.8,0c-0.1-1.9,1.4-3.1,1.9-4.7C161.6,209.6,163.8,208.3,163,205.8z"/>
<path class="st15" d="M206.2,206.7c-1.4-2.1-5.4-1-5.6-4.4c-3.5-1.2-4.9-4.7-7.7-6.6c0.4-0.4,0.7-0.8,1.4-1.6
	c-4.3,0.4-7.7-1.4-11.4-2c0,0.3,0,0.7,0,1c1.5,0.1,0.8,1.2,1,2c2.1-0.6,3.6,1.7,5.9,0.8c-0.2,1.4-1.3,2.1-0.9,3.2
	c1.2,0.3,1.9,1,2,2.3c0,0.5,0.4,0.9,1,0.7c0.8,0,2.1-0.3,2.4,0.1c1.7,2.5,5,2.8,6.7,5.3c1,1.4,2.7,0.4,4,0.7c1.7,0,3.3,0,5,0
	c0-0.3,0-0.7,0-1C208.7,206.9,207,207.8,206.2,206.7z"/>
</svg>
