<?xml version="1.0" encoding="utf-8"?>
<!-- Generator: Adobe Illustrator 26.1.0, SVG Export Plug-In . SVG Version: 6.00 Build 0)  -->
<svg version="1.1" id="Layer_1" xmlns="http://www.w3.org/2000/svg" xmlns:xlink="http://www.w3.org/1999/xlink" x="0px" y="0px"
	 viewBox="0 0 269.4 255.9" style="enable-background:new 0 0 269.4 255.9;" xml:space="preserve">
<style type="text/css">
	.st0{fill:#3C2324;}
	.st1{fill:#442B2B;}
	.st2{fill:#443031;}
	.st3{fill:#412A2D;}
	.st4{fill:#432624;}
	.st5{fill:#482B2B;}
	.st6{fill:#4B2D2B;}
	.st7{fill:#472522;}
	.st8{fill:#462723;}
	.st9{fill:#4F2E2A;}
	.st10{fill:#432526;}
	.st11{fill:#472422;}
	.st12{fill:#745655;}
	.st13{fill:#512D2A;}
	.st14{fill:#39212B;}
	.st15{fill:#362B30;}
	.st16{fill:#382426;}
	.st17{fill:#381D1C;}
	.st18{fill:#392224;}
	.st19{fill:#3F1C27;}
	.st20{fill:#381D1F;}
	.st21{fill:#3A2020;}
</style>
<path class="st0" d="M194,75.9c-1.3-0.1-2.8-2.5-3,0.6c0,0.1-0.6,0.4-0.6,0.3c-0.6-0.6-1.2-1.3-2-0.6c-0.8,0.7-0.2,1.8-0.3,2.8
	c1.5,0.1,0.8,1.2,1,2c0.6-0.1,1.4,0.3,1.8-0.4c0.3-0.5,0-1.3,0.7-1.6c0.3,1.3,2,0.5,2.5,1.9s1.1,2.6,0.9,4.1c0.9,0.1,0.9-0.6,1-1.2
	c0.1-0.5,0.4-0.9,1-0.8c-0.1-0.6,0.4-1.5-0.3-1.8c-1.4-0.5-2.2-0.5-1.1-2.5c0.9-1.6,1.8-3.6,1.5-5.7c-1,0-2,0-3,0
	C194,74,194,75,194,75.9z"/>
<path class="st1" d="M127.2,23.8c0.9,0.9,0.9,2.5,2.7,2.9c1.6,0.3,1,2.2,1.1,3.4c0.7,0.3,1.3,0.7,2,1c0-0.6,0-1.2,0-2.3
	c1.9,1.5,3,3.2,5,3.9c1,0.3,1.1,1.4,1,2.4c1,1.3,2,2.7,3,4c2,0.7,1.9-1.1,2.5-2c0.8-1.1-0.6-1.1-0.9-1.7c-0.2-0.4-0.8-0.6-0.7-1.2
	c-0.7,0-1-0.3-1-1c-1.2-3.3-3.6-5.9-5-9c-2.3-1.7-4.7-3.3-7-5c-0.1,1.5-1.2,0.8-2,1c-0.1,0.8,0.7,1,1,1.6c-1,0.9-2.2,0.2-3.2,0.5
	c-0.5,0.1-0.9,0.4-0.8,1C125.8,23.1,126.5,23.1,127.2,23.8z M136.5,29.1c-1.5-1.5-2.9-3-4.3-4.5C134.3,24.3,135.5,25.4,136.5,29.1z"
	/>
<path class="st2" d="M130.6,14.9c1-0.6,1.7-1.5,1.4-2.8c-1.7-1-3.3-2-5-3c-0.2,1.6-0.2,3.1,2,3.5c0.4,0.1,1.2,0.6,1,1.5
	C130,14.6,130.2,15.2,130.6,14.9z"/>
<path class="st2" d="M125.2,14.4c0.1,0.9,0.8,1.5,1.8,1.7c0.3-0.7,0.7-1.3,1-2C126.7,13.4,125.1,13.6,125.2,14.4z"/>
<path class="st3" d="M129,148.1c1.7,0,3.5-0.3,5,1c0.3-0.7,0.7-1.3,1-2c-2.3,0-4.6,0-6.8,0c0-1.6,1.5-0.4,1.7-1.6
	c-0.3-0.9-1.7-1.2-1.8-2.4c-0.5,0-1,0-1.5,0c-0.6,0-1.5,0.1-1.5-0.7s-0.7-2.1,1-2.3c1.1-0.4,1.9-1.4,3.3-1c0.4,0.1,0.8-0.4,0.7-1
	c-0.3,0-0.7,0-1,0c-1.9,0.2-4.2-0.8-5,2c0.5,2.7-2.2,2.7-3.5,3.9c-1.1-0.8-2-1.8-3.4-2.4c-3.8-1.7-5.9-5.9-9.8-7.6
	c-0.5-2.1-2.2-4.1-2.2-6c0.1-3.4-1.9-5.9-2.8-8.9c-0.8-2.8-2.5-5.3-2.4-8.4c0-0.6-1.1-0.7-1-1.6c-0.6-0.1-1,0.3-1,0.8
	c-0.2,3.6,0.6,6.9,2,10.2c1.1,2.9,2.3,5.8,3,8.8c0.7,3,1.8,5.8,4.1,7.8c3,2.5,6,4.8,8.8,7.4c2.1,2,4.7,3.4,7.1,5.1
	c0.7,0,1.4-0.2,2,0c0.9,0.3,1-1.3,1.8-0.8c0.9,1.3-0.8,3.1,1.3,3.8c0-0.9,0-1.9,0-2.8C128,148.6,128.1,148,129,148.1z"/>
<path class="st4" d="M185,77.5c0-0.1,0-0.3,0-0.5c-0.7,0-1.3,0-2,0c0,2.3,0,4.5,0,6.8c-1.2-1.2-0.9-3.8-3.6-2.9
	c-0.2-1.3-2.4-0.2-2.4-1.9c-0.8-0.1-0.8,0.5-1,1.1c-0.5,1.2-0.8,1.2-2-0.1c-0.3,0-0.7,0-1,0c0,0.7,0,1.3,0,2c0.7,0,1.3,0,2,0
	c0.9-0.1,1,0.5,1,1.2c0,1.6,0,3.2,0,4.8c0,1.2,1-2.3,2.4-5c0.8,0.9,2.5,1.4,1,3c-0.8,0.9,0.2,1.1,0.5,1.4c0.8,0.9,1.3,1.4,0.6,2.9
	c-0.4,0.9,0.5,3.2,2.5,3.7c0-2.1,0.5-7.1,0.7-6.8c0.3,0.4,0.6,0.6,0.8,0.8c0.1,0.1,0.3,0,0.5,0c1.4,0.1,1.8-2.8,3.7-1.2
	c0.7-0.9,0.2-1.9,0.3-2.8c0-1,0-2,0-3c-0.2-0.8,0.5-1.9-1-2C187.8,80.1,185.2,79.4,185,77.5z"/>
<path class="st0" d="M194,88.3c-0.1,0.5-0.4,0.9-1,0.8c0.5,1.2,2,2.3,0,3.6c-0.2,0.1,0,0.9,0,1.4c1.4-0.4,2.1-1.2,2-2.7
	c0-1.4,0-2.9,0-4.3C194.1,87,194.1,87.7,194,88.3z"/>
<path class="st5" d="M141.5,19.1c-0.1,0.1-0.4,0.3-0.3,0.3c0.7,1.3,1.6,2.5,2.1,4c0.5,1.4,1.6,2.9,2.2,4.6c0.2,0.4,0.6,0.8,0,1
	c-0.4,0.2-1,0-1.5,0c-0.3,0-0.7,0-1,0c0,0.3,0,0.7,0,1c3.2,1.1,6.5,1.7,8.1,5.5c0.7,1.7,2.7,2.7,4.6,3.4c1-0.6-0.8-3.8,2.3-2.9
	c0.1-1-0.1-1.8-0.9-2.5c-0.8-0.7-1.9-1.3-2.1-2.5c-0.9,0.1-0.9-0.6-1-1.2c-0.1-0.5-0.4-0.9-1-0.8c-0.4,1.8-1.8,1.1-2.6,0.8
	c-0.8-0.3-1.7-1.2-2.1-2c-0.9-1.9-1.8-3.8-3.1-5.4c0,0,0.2-0.3,0.3-0.3c0.1-0.1,0.3,0,0.5,0c0-0.3,0-0.7,0-1c-1.3-0.7-2.7-1.3-4-2
	C141.8,19.1,141.6,19,141.5,19.1z"/>
<path class="st6" d="M123,87.1c1,2.4,3.5,2.7,5.3,4c1.1,0.8,2,1.5,1.7,3c0.3,0,0.7,0,1,0c1.5-1.1,1.8-3.5,4-4c1.6-0.4,2.2-1.4,2-3
	c0.3-0.7,0.7-1.3,1-2c-0.2-0.9-0.8-1.5-1.7-1.9c-0.8,1.5,0.8,4.1-2.1,4.6c-0.6-2.2,1.2-3.7,1.4-5.7c0.1-0.9,0.2-0.8-1.5-1
	c0,0.3,0,0.7,0,1c-0.1,1.1-1.5,1.7-1,3c-0.1,1.5-1.2,0.8-2,1c-2.3,0-4.5,0-6.8,0C123.5,86.1,122.9,86.2,123,87.1z"/>
<path class="st6" d="M134,82.1c-0.1-0.2-0.2-0.4-0.3-0.5C133.7,81.7,133.8,81.9,134,82.1z"/>
<path class="st7" d="M143.4,89.1c1-0.4,0.5-1.4,0.6-2.2c0-0.1,0.1-0.3,0.1-0.4c1.5,0.1,1.8,1.2,2.2,2.4c0.1,0.2,0.9,0.3,1.3,0.1
	c0.8-0.4,0-0.8-0.2-1c-0.6-0.6-0.2-1.3-0.3-1.9c-0.5,0-1.1-0.2-0.8-0.7c0.5-0.8,1.5-0.4,2.3-0.3c1.4,0.3,2.4-0.5,3.5-1.1
	c0.3,0,0.7,0,1,0c0.5-1.3-0.9-1.9-1-3c-1.1,0-1.4-1.1-2.1-1.6c-0.9-0.6-0.9,0-0.9,0.6c0,1-0.8,1.6-1.4,1.8c-1,0.3-2.5,1.1-2.7-1.3
	c-0.1-0.7-1-1.5-0.9-2.5c-0.6,0.1-1-0.3-1-0.8c0-2,0-4,0-6c0-1.1-0.5-2.5,1.5-2.3c0.1,0,0.2-0.2,0.4-0.3c-2.3-1.6,0.8-3.1,0.1-4.6
	c-1.3-1.5-1-3.3-1-5c-1-0.1-1,0.6-1,1.3c-0.1,0.7,0.3,1.7-1,1.7c0,1.1-2.1,1.9-0.3,3.3c2.1,1.6,0.4,2.7-0.7,3.7c0.3,1.6-0.4,2.3-2,2
	c-0.3,0.1-0.5,0.2-0.8,0.3c1.3,1.8,0.7,3.8,0.8,5.7c0.9-0.1,1,0.5,1,1.2c0,1.9,0,3.9,0,5.8c0.5,1.1,1.1,2.2,1.2,3.5
	C141.2,88.2,142.2,89.5,143.4,89.1z"/>
<path class="st8" d="M148.6,52.2c0.3,0.2,0.8,0.7,1,0.6c0.7-0.4,0.2-1.2,0.3-1.8c0-1.6-1.9-0.7-2.5-1.9c-0.5-0.9-1.3-1.9-2.5-2.1
	c0,0.7-0.3,1-1,1c0.7,1,1.3,2,2,3C146.2,53,147.9,51.6,148.6,52.2z"/>
<path class="st9" d="M153,48.1c-0.8,0.2-1.9-0.5-2,1c1,0.7,2,1.3,3,2C154.5,49.8,153.1,49.2,153,48.1z"/>
<path class="st10" d="M151.2,63.1c-0.1,0-0.1,0-0.2,0C151.1,63.1,151.1,63.1,151.2,63.1L151.2,63.1z"/>
<path class="st10" d="M147.9,60.6c0.2,1,1.2,1.5,1.1,2.5c0.7,0,1.3,0,2,0c-0.7-2-2.5-3.6-2-6c-0.3-0.7-0.7-1.3-1-2c-1-0.7-2-1.3-3-2
	c-0.7,0-1,0.3-1,1C146.8,56.2,146.9,56.2,147.9,60.6z"/>
<path class="st11" d="M172.5,84.1c0.8,1,1,2.5-0.1,2.8c-1.3,0.4-2.1-0.9-2.4-2.3c-0.5-1.9-1.3-3.7-2-5.6c0.1-1.7-0.7-3-2-4
	c-0.4,3.1,2.1,5.5,2.1,8.6c1.5,0.8-0.1,1.5,0,2.2c0.3,1.8-2,0.8-2.1,2.1c-0.1,1.1,1.1,1.4,1.1,2.6s-0.7,1.8-1.4,2.4
	c-0.8,0.7-1.5,0-2-0.6c-0.6-0.7-1.1-1.4-2.2-0.3c-0.9,0.9-1.5-1-2.5-0.9c0.1,0.8-1.8,1.7,0,2.5c-0.3,0.5-1.1,0.7-1,1.5
	c1.3,0.1,2.6-0.4,3.6,1c0.9,1.2,2.1,1.6,3.3,0.5c1-0.9,1.5-0.2,2.5,0.2c1.2,0.5,0.1-1.8,1.5-1.7c0.5,0,1,0.1,1.2,0.6
	s-0.3,1.3,0.8,1.2c0.2-0.6,0.4-1.2,0.6-1.8c1.2,0.2,0,2.2,1.6,2c1.8,0.8,2.7,2.3,3.5,4c0.8,1.8,1.7-0.1,2.5,0c0-2.4-3.7-2.8-3.1-5.6
	c-1.4-0.9-0.8-2.3-0.9-3.6c-0.1-1,0.1-1.9-1.5-1.9c-0.6,0-0.8-1-0.4-1.6c0.4-0.7,1.2-0.2,1.8-0.4c0-2,0-4,0-6c-0.7,0-1.3,0-2,0
	c-0.3,0.1-0.7,0.2-0.8,0.4C171.8,83.1,172,83.6,172.5,84.1z"/>
<path class="st11" d="M171.7,76.3c-1.9-0.7-1.6,0.7-1.7,1.8c0,1.1-0.2,2.3,1.6,2c0.5-0.1,0.9,0,1.4,0c0.3,0,0.7,0,1,0
	C174.7,77.9,173.4,76.9,171.7,76.3z"/>
<path class="st12" d="M103.9,111.1c0.6,0.8,1.5,1.8,1.1,3c-0.5,1.4,0.8,2.4,1.2,3.5c0.5,1.2,2.4,2,1.7,3.7c-0.8,2.1,3.3,1.3,2,3.6
	c1.2,3.5,2.2,7.3,5.7,8.9c2.4,1.1,4.2,2.7,6.1,4.4c4-2.3,7.9-4.2,11.4-6.9c0.9-0.7,1.9-0.2,2.8-0.3l0,0c0.8,0.1,2-0.5,2,1.2
	c0,1.9,0,3.9,0,5.8c0.6,0.1,1-0.3,1-0.7c0-2.7,0-5.4,0-8.3c-2.7,1.4-2.8,1.3-3-1c0-0.3,0-0.6,0-1c-0.9,0-1.9,0-2.8,0
	c-0.7,0-1.2-0.1-1.2-1c-0.3,0-0.7,0-1,0c-1.5,0-2.8,0.1-3.9-1.3c-0.4-0.5-0.7-2.4-2.4-1c-0.7,0.6-0.5-0.7-0.6-1.2
	c-0.3-1.2,1.2-2,1-3.2c0-0.1-0.1-0.2-0.1-0.3c-2.6,0.8-1.9,3-1.9,4.8c0,1.6,1.6,1.6,2.5,2.4c1.4,1.2,2.8,0.4,4.1,0.8
	c0.6,1.2,0.3,2.4,0.3,3.5c-2.4,1.5-5.6,1.4-7.1,4.2c-2.5-0.1-2.7-2.9-4.3-3.6c-1.9-0.9-2.7-2.3-3.9-3.8c-1.2-1.6-1.8-3.9-3.8-5
	c-1-0.6-1.2-1.7-1.3-2.4c-0.3-3.1-2.2-5.5-3.6-8c-1.5-2.7-0.8-5.4-0.9-8.1c0-0.9,0.9-1.7,1.9-1.8c1-0.1,2,0,3,0c0-0.3,0-0.7,0-1
	c-0.9,0-1.9,0-2.8,0c-0.4,0-0.7,0-0.9-0.2c-0.1-0.1-0.1-0.1-0.2-0.2s-0.1-0.3-0.1-0.6c-1,1.3-2.6,2.5-2.9,4
	C102.8,106.4,102.5,108.9,103.9,111.1z"/>
<path class="st12" d="M136,147.1c0.3-0.1,0.7-0.1,0.8-0.3c1.6-2.7,1.1-5.7,1.2-8.7c-0.3,0-0.7,0-1,0
	C137.8,141.2,135.5,144,136,147.1z"/>
<path class="st13" d="M145,64.1c0.7,1.6-2.4,3-0.1,4.6c-0.1,0.1-0.2,0.3-0.4,0.3c-2-0.2-1.5,1.2-1.5,2.3c0,2,0,4,0,6
	c0,0.5,0.4,0.9,1,0.8c0-1.6,0-3.2,0-5.4c2.3,2.1,4.1,3.8,4,6.6c0,0.5,0.4,0.9,1,0.8c0.1-0.6,0.1-1.2,0.9-0.6c0.7,0.5,1,1.5,2.1,1.6
	c0.2-1-0.4-4.6-1-5.7c-0.2-0.4-0.4-0.8-0.5-1.3c-0.5-1.7-1.5-3.5,0.5-5c-1.7-1.3-3.3-2.7-5-4C146,64.4,145.7,64.1,145,64.1z"/>
<path class="st11" d="M162,64.1c-1.3,1-2.1,2.3-2,4c0,1.7-0.3,3.5,1,5c0.3,0,0.7,0,1,0c0-1.1-0.3-2.8,1.6-1c0.3,0.2,0.9,0,1.4,0
	c0.2-2-1.5-3.3-2-5C161.1,66.6,162.4,65.1,162,64.1z"/>
<path class="st11" d="M160.7,88.3c0.7,0.5,0.2,1.2,0.3,1.8c2.5-2.9,2.4-3.3-1-4C160,86.9,159.8,87.7,160.7,88.3z"/>
<path class="st11" d="M165,82.1c0-1,0.4-2-1-3.5c0,2.6,0.2,4.5-1.3,5.9c1.3,1,2.3,1,3.3,0.2C165.1,84,165,83.1,165,82.1z"/>
<path class="st13" d="M151,69.1c0.2,2.2,0.8,2.8,3,3C153.4,70.7,152.4,69.7,151,69.1z"/>
<path class="st14" d="M86.8,119.4c1.7,2,3.1,0,4.5-0.4s0.4-1.9,0.7-2.9c-3.3-1.7-4.4-5.3-6.9-7.8c-1.5-1.5-1.4-4.4-3.1-6.1
	c0.2-3.4-2.2-6-3-9.1c-2.1,0.8-0.6,2.4-0.8,3.7c0,0.2-0.8,1.4-1.1,1.8c0,0.2,0,0.4-0.1,0.6c-0.2,1.5,0.8,2.8,0.9,4.1
	c0.1,4.4,2.3,7.8,4.8,11c0.5,0.7,0.2,1.3,0.3,1.9c1.1,0,1,0.7,1,1.3c0,0.2,0,0.3,0,0.4l0.9,1.3c0,0,0,0,0.1,0
	C85.6,119.2,86.3,118.8,86.8,119.4z"/>
<path class="st15" d="M92,28.1c0.7,1.8,1.9,1.2,2.9,0.5c0.8-0.5,1.3-0.7,2.1,0c-0.6,0.7-1.7,1.3-0.6,2.3c0.7,0.7,1.4,0,2-0.6
	c0.3-0.3,0.8-0.6,0.7-1.2c-1.4-0.3-1.2-1-0.6-1.9c0.5-0.7,1.6-1,1.6-2.1c-1.3-1.1-2.7-1.1-4,0c0,0.7-0.3,1-1,1
	C94.7,27.8,92.8,27.1,92,28.1z"/>
<path class="st16" d="M123,149.1c-2.4-1.7-5-3.1-7.1-5.1c-2.8-2.6-5.9-5-8.8-7.4c-2.4-2-3.4-4.7-4.1-7.8c-0.7-3-1.8-5.9-3-8.8
	c-1.3-3.3-2.2-6.6-2-10.2c0-0.5,0.4-0.9,1-0.8c-0.4-3.3,0.4-6.5,1-9.7c0.2-1.3,0.9-1.9,2-2.3c0-1.1-1.2-1.2-1.4-2
	c-1.1,0.5-0.1,2.2-1.6,2c-1.3,0-0.9,1-1,1.7c0,0.7-0.1,1.3-1,1.3c0,0.7,0,1.3,0,2c0,0.2,0,0.3,0,0.4c-0.1,0.3-0.5,0.5-0.6,0.7
	c-1.1,2.1-2.5,4.1,0.3,6c0.9,0.6,0.3,1.4-0.4,2c-0.6,0.5-0.2,1.2-0.3,1.8c0.4,1.7-0.3,3.4,0.6,5.2c1.5,3,3.2,6,3.1,9.8
	c-0.1,3.7,2.1,7,4.3,10c4.8,3.4,9.9,6.4,14.6,9.9C119.6,148.8,121.3,149.6,123,149.1z"/>
<path class="st17" d="M100,73.1c0.1,0,0.2,0,0.2-0.1c-0.1,0-0.2-0.1-0.2-0.1C100,73,100,73,100,73.1z"/>
<path class="st17" d="M94.5,80.3c0.5-0.4,0.7,1.5,0.5,1.8c-0.9,1.3-0.5,1.6,0.8,2.4c1.1,0.6,2.2,0.4,3.2,0.6c0.5-2.7-1.5-5.1-1-7.8
	c0.1-0.7,0.1-1.3,1-1.2c0-1.6,0-3.2,0-4.8c0-0.7,0.1-1.3,1-1.2c0-0.3,0-0.7,0-1c-0.7,0.1-1.8-0.5-2,0.8c-0.2,1.4,0.4,2.9-0.5,4.3
	l0,0l0,0c-1.3-1.5,0.2-3.6-0.9-4.8c-1.5-1.2-1.5,1.1-2.6,0.7c0.8,3.1-1.5,5.9-1,9C93.4,79.5,91.9,82.1,94.5,80.3z"/>
<path class="st18" d="M184.2,26.1c-0.7-0.1-1.3-0.1-1.2-1c-1.6-0.6-2.4-2.1-3.6-3.2c-0.8-0.7-1.4-1.4-2.4-0.3
	c2.4,2.2,4.3,4.9,7.3,6.3c0.6,0.3,0.7-0.3,0.7-0.8C185.1,26.5,184.7,26.2,184.2,26.1z"/>
<path class="st15" d="M101.4,26.3c-0.6,0.5-1.4,0.8-1.4,1.8c0.9-0.1,1.1,0.6,1,1.2c-0.2,1.1-1.7,1.3-1.7,2.5c1.7,0.9,2.3-0.8,3-1.6
	c1.6-1.7,1.8-5.2,0.4-7c-0.3-0.4-0.7,0.3-0.6,0.8C102,24.9,102.1,25.6,101.4,26.3z"/>
<path class="st17" d="M106.3,100.9c-0.1-0.2-0.2-0.5-0.3-0.8c0,0.2,0.1,0.4,0.1,0.6C106.1,100.8,106.2,100.8,106.3,100.9z"/>
<path class="st17" d="M103,98.1c0.8,1,2.7,0.3,3,2c1.7-1,3-0.7,4,1c2.5-1.9,2.5-1.9,6-2.5c-1-0.7-2.4-0.8-2.9-2.1
	c1-0.5,1.9-0.9,2.9-1.4c-0.2-1.1-0.9-1.8-2-2c0,0.5,0.1,1.4,0,1.4c-2,0.3-2,2.6-3.4,3.5c-1.9-0.8-2.2-2.9-3.3-4.3
	c-1.2-1.5,0.6-1.5,1.7-1.6c0.6-2.2-0.9-3.6-2.9-5.2c2.3-0.9,3.9-1.7,4.7-3.4c-1.1-1.5-1.4-4.3-4.9-3.3c0-1.9,0-3.5,0-5.4
	c-1.5,1.2-0.9,2.4-0.9,3.4c0.1,2.3-0.8,4.4-0.9,6.6c0,2,1.2,4,2.2,6.8c-3.4-2.2-3.1-5.4-4.4-7.6c-0.2-0.4,0-1-0.2-1.4
	c-0.1-0.2-0.5-0.3-0.8-0.4c-0.6-0.1-1,0.2-1,0.7c-0.1,1.2,0,2.3,0,3.5c0,0.5-0.4,0.9-1,0.8c0.2,1.1-0.3,2.2,0.6,3.2
	c0.7,0.7,0.7,1.9,0,2.6c-1.2,1.3-0.4,2.8-0.6,4.2c1.6,0.2,0.6-1.5,1.6-2c0.2,0.8,1.4,0.9,1.4,2C102.7,97.1,103,97.4,103,98.1z"/>
<path class="st19" d="M137,138.1c0-1,0-2,0-3c0-0.6-0.2-1-0.8-1c-0.7-0.1-1.3,0-1.3,1c2,1.5,0.9,3.3,0.5,5c-0.1,0.6-0.4,1.1-0.8,2
	c-2.2-0.3-4.5,0.1-6.7,1c0.1,1.3,1.5,1.5,1.8,2.4c-0.1,1.2-1.7-0.1-1.7,1.6c2.3,0,4.6,0,6.8,0c0.3,0,0.7,0,1,0
	C135.5,144,137.8,141.2,137,138.1z"/>
<path class="st19" d="M134,136.1c-0.7,0-1.3,0-2,0c-0.8,1-2.7,0.3-3,2c0.3,0,0.7,0,1,0C131.7,138.2,133.4,138.3,134,136.1z"/>
<path class="st19" d="M127.2,142.1c-1.7,0-1.2-1.2-1.2-2c-1.7,0.2-0.9,1.5-1,2.3c0,0.9,0.8,0.8,1.5,0.7c0.5,0,1,0,1.5,0
	C128.1,142.5,127.7,142.1,127.2,142.1z"/>
<path class="st20" d="M146,22.1c-0.2,0-0.3,0-0.5,0c-0.1,0.1-0.3,0.3-0.3,0.3c1.3,1.6,2.3,3.5,3.1,5.4c0.4,0.8,1.2,1.7,2.1,2
	c0.8,0.3,2.2,1.1,2.6-0.8C151.1,26.3,148.7,24,146,22.1z"/>
<path class="st21" d="M161,46.1c0.3,1.5,2.3,2,2.3,3.7c0,0.1,1.1,0.2,1.7,0.3c0.2-1.8-1.5-3.2-1-5c-1,0.1-2.1,0-2.5-1
	c-0.6-1.8-2.1-2.3-3.5-3c-0.7,0.1-1.5-0.4-1.9,0.5c0.3,1.7,2.7,0.8,2.9,2.5C160.1,44.3,160.8,45,161,46.1z"/>
</svg>
