<?xml version="1.0" encoding="utf-8"?>
<!-- Generator: Adobe Illustrator 26.1.0, SVG Export Plug-In . SVG Version: 6.00 Build 0)  -->
<svg version="1.1" id="Layer_1" xmlns="http://www.w3.org/2000/svg" xmlns:xlink="http://www.w3.org/1999/xlink" x="0px" y="0px"
	 viewBox="0 0 269.4 255.9" style="enable-background:new 0 0 269.4 255.9;" xml:space="preserve">
<style type="text/css">
	.st0{fill:#F1D8E2;}
	.st1{fill:#EFC9C6;}
	.st2{fill:#D09EA1;}
	.st3{fill:#E2B7B7;}
	.st4{fill:#AA7E83;}
	.st5{fill:#B38987;}
	.st6{fill:#8C686B;}
	.st7{fill:#5D4141;}
	.st8{fill:#61444A;}
	.st9{fill:#5D3E40;}
	.st10{fill:#4C2E33;}
	.st11{fill:#726168;}
	.st12{fill:#775558;}
	.st13{fill:#815354;}
	.st14{fill:#37161C;}
	.st15{fill:#3D1B22;}
	.st16{fill:#3A1F23;}
</style>
<path class="st0" d="M111.3,193.3c-0.6,0.6,0.3,0.6,0.4,1c0.1,0.3,0.2,0.5,0.3,0.8c1.2,0.9,2.6,1.1,4,1c-0.2-1.1-0.9-1.8-2-2
	c-0.6-0.3-1.2-0.7-1.9-1C111.9,193,111.5,193.2,111.3,193.3z"/>
<path class="st1" d="M130.7,190.9c0-2.2,3.2-1.7,3.3-3.8c-1.5-0.1-0.8-1.2-1-2c-2.5-1-3.5-4-6-5c-3-0.4-6.2,0.8-9.1-0.7
	c-1-0.5-1.2,0.4-1.4,0.7c-0.9,1.3-0.9,2.7,0,4c1,1.5,1.5,3.2,1.8,5c1.4-0.8-0.1-2.4,1.3-3c0.4,0.7,1.4,0.9,1.4,1.9
	c2.1,0.8,4.2,1.6,6,3C128.2,191,129.5,190.9,130.7,190.9z"/>
<path class="st2" d="M144,188.1c-1.5,0.1-1.7,2.3-3.5,2c-0.8,1.8-1.7-0.1-2.5,0c-0.3,0-0.7,0-1,0c0,0.7,0.1,1.4-0.6,2.1
	c-0.8,0.8-0.9,1.6,0.6,1.9c0.7,0,1.3,0,2,0c0.3,0,0.7,0,1,0c0.2-0.8-0.5-1.9,1-2c-0.1-0.6,0.3-0.8,0.7-1c1.3-0.8,3.3-0.4,4.3-2
	C145.2,188.9,144.1,189.6,144,188.1z"/>
<path class="st3" d="M136.2,195.1c0.5-0.1,0.9-0.4,0.8-1c-1.4-0.3-1.3-1.1-0.6-1.9c0.7-0.7,0.5-1.4,0.6-2.1c-0.6-1.4-1.6-2.4-3-3
	c-0.1,2.1-3.3,1.6-3.3,3.8c-1.2,0.1-2.5,0.1-3.7,0.2c0.5,1.4,1.7,2,2.5,3c0.8-0.8,1.4-1.4,2-2c0.8,1.7,1.9,3.2,1.5,5.2
	c-0.1,0.5,0.4,0.9,1,0.8C133.8,196.4,134.7,195.5,136.2,195.1z"/>
<path class="st4" d="M164,208.2c-0.3-1.1-0.1-2.1,1.6-2.3c0.6-0.1,1.1-1.7,1.3-2.3c0.3-1.7,0.5-2.9,2.5-3.6c0.6-0.2,1-1.1,0.7-1.9
	c-0.1-0.1-0.2-0.2-0.3-0.3c-0.2-0.2-0.5-0.4-0.8-0.7c-2.1,1.6-2,1.7-3.1,5.1c-0.3,1-0.5,2.5-1.9,2.9c-0.5,0.1-1.1,0.4-1,0.8
	c0.8,2.5-1.4,3.7-2.1,5.6c-0.6,1.6-2,2.8-1.9,4.7c2.6-0.9,5-2.2,7-4c0.3-0.7,0.7-1.3,1-2C165.5,210.3,164.4,209.6,164,208.2z"/>
<path class="st5" d="M174,193.1c0-0.3,0-0.7,0-1c0-1.7,0.3-3.5-1-5c-2.1,0.8-2.9,3.2-5,4c0.2,0.8-0.5,1.9,1,2c0.3,0,0.7,0,1,0
	C171.3,194.2,172.7,194.2,174,193.1z"/>
<path class="st6" d="M128.2,209.1c-1.5-0.1-3.7,1.4-4.2,2.7c-0.4,1.1,0.3,3.1,1.1,4c1.4,1.5,1.8-0.9,2.9-0.7c0.9,0.1,1.2-1,1.9-1.4
	c1.2-0.7,1.4-2,1-3C130.5,209.7,129.6,208.8,128.2,209.1z"/>
<path class="st7" d="M111.9,219.6c2.1-0.5,3.6-1.9,3.2-4.6c-0.3-1.6-0.1-3.3-0.1-5l0,0c-0.9,0.1-1-0.5-1-1.2c0-0.9,0-1.9,0-2.8
	c-0.3,0-0.7,0-1,0c-0.9,1.2-1.1,2.6-1,4c2.6,2.3,2.7,4.8,0.3,7.2c-1.2,1.2-5.2,1.1-6.7-0.1c-0.9-0.7-1.3-1.9-2.6-2.1
	c0,0,0,0-0.1-0.1c-1.5-1.2-1.8-3.4-3.9-3.9c0,0.3,0,0.7,0,1c1.5,3.4,3.7,6.2,6,9C107.4,221.3,109.6,220.2,111.9,219.6z"/>
<path class="st8" d="M130.6,203.1c-1.6,1.7-3,1.2-4.4-0.3c-0.5-0.6-1.1-1.2-1.6-1.7c-1,0.3,0,2.2-1.6,2c-2,2.6-2,2.6-2,6.1
	c0,1.8,0,3.6,0,5.4c0,4.6,0,4.6,4.7,4.5c0.7,0,1.3,0,2,0c1.3,0,2-0.8,2.3-2c-0.6,0.1-1.2,0-1.9,0.3c-3.7,1.6-5.8,0-6.2-3.8
	c-0.3-3,1.4-5.5,1.2-8.3v-0.1c0,0,0,0,0.1,0l0,0c0.6-0.1,0.9-0.2,1.2-0.1c2.1,0.9,4.1,1.2,6.2,0c0.7-0.3,1.6-0.1,2.5-0.1
	c-0.3-0.7-0.7-1.3-1-2C131.5,203.1,130.8,202.9,130.6,203.1z"/>
<path class="st9" d="M121,202.1c0,0.8,0.2,1.2,1,0.5s1-0.3,1,0.5c1.6,0.2,0.5-1.7,1.6-2c0.5,0.5,1.1,1.1,1.6,1.7
	c1.4,1.5,2.7,2,4.4,0.3c0.2-0.2,0.9,0,1.4,0c-0.1-1.5-2.2-1.8-2.1-3.6c0-0.5-0.9-0.5-1.6-0.2c-2.2,0.8-2.8,0.6-3.2-1.4
	c-0.3-1.4-0.7-2.4-2.1-2.8C121.9,197.3,120.4,199.4,121,202.1z"/>
<path class="st8" d="M133.4,209c0.8,1.3,0.3,2.2-0.1,3.5c-0.6,2-2.9,2.7-3.3,4.6c3.6-0.7,5.9-3.3,8.7-6.3c-2.7-0.9-2.2-4-4.7-4.7
	C134.6,207.2,132.8,208,133.4,209z"/>
<path class="st10" d="M123.2,205.2C123.2,205.2,123.1,205.2,123.2,205.2C123.1,205.2,123.1,205.3,123.2,205.2
	C123.1,205.3,123.2,205.3,123.2,205.2L123.2,205.2z"/>
<path class="st10" d="M117,202.1c-0.6-0.1-0.8,0.3-1,0.7c-0.7,1.1-0.4,2.7-2,3.3c0,0.9,0,1.9,0,2.8c0,0.7,0.1,1.2,1,1.2
	c0.1-1.2,0.1-2.3,0.9-3.6C116.6,205.4,117.5,203.8,117,202.1z"/>
<path class="st11" d="M97.3,200.1c1.8,1.8,2.3,4.2,1.6,6.4c-0.5,1.7,0.1,3.1,0.1,4.6c2.1,0.5,2.5,2.8,3.9,3.9h0.1
	c0-0.8,0.3-2-0.1-2.3c-2.7-2.2-1-5.8-2.9-8.2c-0.2-0.3-0.2-1.1,0-1.4c1.3-1.9,1.1-3.5,0.1-5.7c-0.8-1.7,0.8-3.9,1.2-5.8
	c0.2-1.3,2.1-3,3.4-3.2c4.7-0.8,4.9-4.7,6.2-7.9c0.3-0.6,0.1-1.3,1-1.3c1.3-2.6,4.5-3.8,5-7c-0.3,0-0.7,0-1,0s-0.7,0-1,0
	c0.2,1.6-0.4,2.6-2,3c-1.4,2.5-4,4-5.2,6.6c-0.5,1-1.5,1.7-2.8,1.4c-3.5,5-7.7,9.3-12,13.5c-2.8,2.7-2.7,2.8,0,6.5
	C94.2,201.9,95.3,200.5,97.3,200.1z"/>
<path class="st12" d="M130.5,205.1c-2.1,1.1-4.1,0.8-6.2,0c-0.2-0.1-0.6,0-1.2,0.1l0,0c0,0,0,0-0.1,0.1c0.2,2.8-1.5,5.3-1.2,8.3
	c0.4,3.8,2.5,5.4,6.2,3.8c0.7-0.3,1.3-0.2,1.9-0.3c0.5-2,2.7-2.6,3.3-4.6c0.4-1.3,0.9-2.2,0.1-3.5c-0.6-1,1.2-1.8,0.6-2.9
	c0-0.7-0.3-1-1-1C132.2,205.1,131.2,204.8,130.5,205.1z M129.9,213.7c-0.7,0.4-0.9,1.5-1.9,1.4c-1.1-0.2-1.5,2.2-2.9,0.7
	c-0.9-0.9-1.6-2.8-1.1-4c0.5-1.3,2.7-2.7,4.2-2.7c1.4-0.3,2.3,0.6,2.7,1.6C131.4,211.7,131.1,212.9,129.9,213.7z"/>
<path class="st13" d="M124.3,178.1c2.5,0,5,0,7.4,0c0.7,0,1.4,0,1.3-1c-0.9,0-1.9,0-2.8,0c-0.7,0-1.2-0.1-1.2-1
	c-1.6,0.4-2.9-0.6-4.3-1c-1.1-0.3-0.6-1.3-0.7-2c-0.7-0.3-1.3-0.7-2-1l0,0c-0.1,0.9,0.4,2.1-1.3,2c-1.9-0.1-2.7,0.8-2.7,2.6
	c0,1.5,1.1,2.2,3.5,2.4c0.5,0,1,0,1.5,0c0-0.1,0-0.3,0-0.4C123.1,178.1,123.7,178.1,124.3,178.1z"/>
<path class="st10" d="M129.2,220.1c1.4,0.2,2.7-0.2,3.8-1c0-0.7,0.3-1,1-1c3.5-0.8,5-4.4,8-6c-1.8-2.9-4.7-4.8-6.8-7.4
	c0.5-1.3,1.4-1.8,2.8-1.6c-0.2-1.6-1.4-0.8-2.2-1c-0.7-0.2-1.7,0.3-1.8-1c-2.1-1.5-2.1-4.5-4.9-5.7c-2.3-1-4.2-3.2-6.6-4.4
	c-1-0.5-1.8-1.5-1.4-2.9c-2.1,0.7-0.4,2.6-1.2,3.7c-0.6,0.5-0.6-0.4-1-0.5c-1.3-0.2-0.3,2.2-2,1.8c-0.9-0.2-2-0.5-2.8,0.5
	c-0.1,0.1,0,0.3,0,0.5c1.1,0.2,1.8,0.9,2,2c0.7,0,1,0.3,1,1c1.7,0,0.6-1.9,1.8-2.4c1-0.4,1.7-1.5,2.5-2.4c1.2,0.5,1.8,1.5,1.6,2.9
	c1.4,0.4,1.8,1.4,2.1,2.8c0.4,2.1,1,2.3,3.2,1.4c0.7-0.3,1.6-0.3,1.6,0.2c-0.1,1.8,2,2.1,2.1,3.6c0.3,0.7,0.7,1.3,1,2
	c0.7,0,1,0.3,1,1c2.5,0.7,2,3.8,4.7,4.7c-2.8,2.9-5,5.5-8.7,6.3c-0.3,1.2-1,2-2.3,2c-0.7,0-1.3,0-2,0c-4.7,0-4.7,0-4.7-4.5
	c0-1.8,0-3.6,0-5.4c0-3.4,0-3.4,2-6.1c0-0.8-0.2-1.2-1-0.5s-1,0.3-1-0.5c-0.9-0.1-1,0.5-1,1.2c0,1.4-0.1,2.9,0,4.3
	c0.1,1.3-1.6,2-1,3.4c0,0.5,0,1,0,1.5c-0.2,1.7-0.7,2-1.9,1c-0.5-0.4-1.2-0.7-1-1.5c-0.1-0.7,0.5-1.9-1-2l0,0c0,1.7-0.2,3.3,0.1,5
	c0.5,2.7-1,4-3.2,4.6c-2.3,0.6-4.5,1.6-6.9,1.5c0.7,1.3,1.3,2.7,2,4c1.4,0.5,2.4-0.7,3.5-1.1c1.5-0.6-0.3-1.7-0.3-2.7
	c2.6-0.6,5.5,0.6,7.9-1.2c3.1,1.9,6.6,0.6,9.9,1C127.9,220.2,128.5,220,129.2,220.1z"/>
<path class="st14" d="M145.8,202c-1.3-0.1-2-1.4-1.8-2.9c-0.7,0.3-1.3,0.7-2,1c0.3,0.7,0.7,1.3,1,2c1.7,0.3,1,2.2,2,3
	c0,0.3,0,0.7,0,1c0.6,0.1,0.9-0.3,1-0.7c0.1-0.3,0.1-0.6,0.2-0.9c0.2-0.5,0.4-0.4,0.7,0c0.6,1.1,1.9,0.9,2.6,0.6
	c1-0.4,1.9-1.4,2.4-2.3c0.4-0.7,1-2.2-0.8-2.6C150.1,203,147.7,202.1,145.8,202z"/>
<path class="st15" d="M163.3,195.9c-2.1-0.6-3.1-2.3-4.3-3.8c-0.8,0.2-1.9-0.5-2,1c1.4,1.6,2.6,3.9,4.4,4.7c2.1,0.9,1.4,2.1,1.6,3.3
	c1.9-0.5,0.6-2,1-3C164,197.3,164.2,196.2,163.3,195.9z"/>
<path class="st14" d="M151,197.1c0,0.3,0,0.7,0,1c0.1,0,0.1,0,0.2-0.1c1.3-0.6,2.3-1.6,2.8-2.9C152.4,194.9,151.4,195.5,151,197.1z"
	/>
<path class="st16" d="M137,190.1c0.3,0,0.7,0,1,0c0-2.3,0-4.7,0-7c0-0.3,0-0.7,0-1c-0.8,0-1.6,0-2.4,0c-2.1,0-2.7,1.2-2.6,3
	c0.2,0.8-0.5,1.9,1,2C135.4,187.7,136.4,188.7,137,190.1z"/>
</svg>
