<?xml version="1.0" encoding="utf-8"?>
<!-- Generator: Adobe Illustrator 26.1.0, SVG Export Plug-In . SVG Version: 6.00 Build 0)  -->
<svg version="1.1" id="Layer_1" xmlns="http://www.w3.org/2000/svg" xmlns:xlink="http://www.w3.org/1999/xlink" x="0px" y="0px"
	 viewBox="0 0 269.4 255.9" style="enable-background:new 0 0 269.4 255.9;" xml:space="preserve">
<style type="text/css">
	.st0{fill:#301F22;}
	.st1{fill:#281A1F;}
	.st2{fill:#211A21;}
	.st3{fill:#210B15;}
	.st4{fill:#220D11;}
	.st5{fill:#281D22;}
	.st6{fill:#281C23;}
	.st7{fill:#1D0F16;}
	.st8{fill:#1F0C0F;}
	.st9{fill:#34181D;}
	.st10{fill:#29131C;}
	.st11{fill:#312127;}
	.st12{fill:#2D181A;}
	.st13{fill:#240B0D;}
	.st14{fill:#331F22;}
	.st15{fill:#261318;}
	.st16{fill:#341D20;}
	.st17{fill:#341A1C;}
	.st18{fill:#321B1E;}
	.st19{fill:#321615;}
	.st20{fill:#250C0E;}
	.st21{fill:#221416;}
	.st22{fill:#341E1F;}
	.st23{fill:#1F0D11;}
	.st24{fill:#261217;}
	.st25{fill:#2F1818;}
	.st26{fill:#301717;}
	.st27{fill:#290D0F;}
	.st28{fill:#2C1416;}
	.st29{fill:#271518;}
	.st30{fill:#351A1D;}
	.st31{fill:#250A0E;}
	.st32{fill:#677DA4;}
	.st33{fill:#5D7297;}
	.st34{fill:#5D545C;}
	.st35{fill:#5C5555;}
	.st36{fill:#FDE1ED;}
	.st37{fill:#7E92BA;}
</style>
<path class="st0" d="M201,207.4c-1.7-2.4-5-2.8-6.7-5.3c-0.3-0.4-1.5-0.1-2.4-0.1c0.2,1.6,2.1,2,2.2,4c0.1,1.7,1.8,3.2,4.2,3
	c1.9-0.2,3.9,0,5.9-0.1c0.5,0,0.9-0.4,0.8-1C203.7,207.8,202,208.8,201,207.4z"/>
<path class="st0" d="M210,207.1c0,0.3,0,0.7,0,1c-0.7,1.8-2.9,1.3-3.9,2.6c2,1.4,3.6-0.5,5.4-0.6c3-0.1,5.1-1.5,6.5-4
	C215.2,205.4,212.7,207.2,210,207.1z"/>
<path class="st1" d="M133,219.1c-1.1,0.8-2.4,1.2-3.8,1c-0.7-0.1-1.2,0.1-1.2,1c0.8,0.2,1.9-0.5,2,1
	C132.2,221.9,132.8,221.3,133,219.1z"/>
<path class="st2" d="M95.5,48c0.8-0.4,1.4-1.2,2.1-1.8c1.2,1.8,1.7-0.1,2.4-0.5c0.6-0.4,1.1-0.9,1.7-1.4c0.1,0.3,0.2,0.6,0.3,0.8
	c1.7,0.1,1.3-1.7,1.7-2.4c0.9-1.6,1.7-2.8,3.3-3.6c0.8-1.9,2.1-3.5,2.2-5.7c0-0.1,0.5-0.2,0.8-0.3c0.1-1.1,1.5-1.7,1-3
	c-0.3-0.1-0.8-0.2-0.8-0.3c-0.3-1.5-0.8-2.6-2.4-1c-0.6,0.6-1.2,0.2-1.8,0.3c-1.6-0.3-2.3,0.4-2,2c0.7,0,1,0.3,1,1
	c1.6,0.5,1.2,2.2,2.2,3.4c-2.6,1.6-3.3,4.6-5.6,6.4c-1-0.8-3.2-0.5-2.7-2.8c-0.6-0.1-0.8,0.3-1,0.7c-0.7,1.1-0.4,2.7-2,3.3
	c-0.1,0.7,0.5,1.9-0.8,2c-1.7,0.1-1.2,1.2-1.2,2C94.8,47,95.2,48.2,95.5,48z"/>
<path class="st3" d="M76.3,86c-0.8,1.5,0,3.3-1.2,4.9c-0.9,1.3,0.6,6,1.9,8.1c0-0.2-0.1-0.4,0-0.5c0,0,0.1,0,0.1-0.1
	c0.3-0.3,1.1-1.6,1.1-1.8c0.2-1.3-1.3-2.9,0.8-3.7c0-0.8,0.2-1.6-0.7-2.2c-0.7-0.5-0.2-1.2-0.3-1.8C75.9,88.9,77.8,86.7,76.3,86z"/>
<path class="st4" d="M90.6,77.3c0.6,0.5,1.4,0.8,1.4,1.8c0.3,0,0.7,0,1,0c-0.5-3.1,1.8-5.9,1-9c-0.3-0.7-0.7-1.3-1-2
	c-0.6-0.1-0.9,0.3-1,0.7c-0.1,1.3-0.9,1.9-2,2.3c0,1.3,0,2.7,0,4C90,75.9,89.9,76.6,90.6,77.3z"/>
<path class="st5" d="M128,20.1c0.8-0.2,1.9,0.5,2-1c-0.6-1.4-1.6-2.4-3-3c-1-0.1-1.7-0.8-1.8-1.7c-0.1-0.8,1.5-1,2.8-0.3
	c0.7,0,1.3,0,2,0c0.1-0.8-0.6-1.4-1-1.5c-2.1-0.4-2.1-1.9-2-3.5c0-0.7-0.3-1-1-1c-0.7,0-1.3,0-2,0c-0.3,0-0.7,0-1,0s-0.7,0-1,0
	c0.4,0.8,0.5,2.6,0.1,4.6c2.1,0.4-0.9,1.8,0.7,2.9c2,1.4,1.7,1.8,1.2,4.5c1,0,2,0,3,0C127.3,20.1,127.7,20.1,128,20.1z"/>
<path class="st6" d="M99,138.1c0.5-0.4-1.1-2,1.1-1.5c1.7,0.4,2.4,2.1,3.9,2.5c0-0.3,0-0.7,0-1c-2.2-3-4.5-6.3-4.3-10
	c0.1-3.8-1.6-6.8-3.1-9.8c-0.9-1.8-0.2-3.5-0.6-5.2c-0.7,0.3-1.3,0.7-2,1c0,0.7,0,1.3,0,2c0.9-0.1,1,0.5,1,1.2c0,1.9,0,3.9,0,5.8
	c-0.8,2.5,1.1,4.5,1.1,6.9c0,1.4,1,2.8,1.6,4.2c0.8,1.8-1.5,3.1-0.7,4.8C97.7,138.8,98.3,138.4,99,138.1C99,138.1,99,138.1,99,138.1
	z"/>
<path class="st7" d="M96.3,111.3c0.7-0.6,1.2-1.4,0.4-2c-2.8-1.9-1.5-4-0.3-6c0.2-0.3,0.5-0.4,0.6-0.7c0-0.1,0-0.3,0-0.4
	c-0.6,0.1-1.5-0.4-1.8,0.3c-0.6,1.6-1.6,3-1.2,4.9c0.1,0.5,0.2,1.1-0.2,1.5c-0.2,0.1-0.4,0.2-0.8,0.2c0,1.7-0.3,3.5,1,5
	c0.7-0.3,1.3-0.7,2-1C96.1,112.5,95.7,111.8,96.3,111.3z"/>
<path class="st7" d="M91.2,120.5c2.1-1.4,2.3-1.8,0.8-4.4c-0.3,1,0.7,2.5-0.7,2.9c-1.4,0.4-2.9,2.4-4.5,0.4
	c-0.5-0.6-1.2-0.2-1.8-0.3c0,0.1,0,0.1,0.1,0.2l1.1,1.5c0.7,0.3,1.5,0.4,2.3,0.3c0.1,0,0.3,0,0.4,0C89.8,121.1,90.4,121,91.2,120.5z
	"/>
<path class="st7" d="M94,116.1c0,1.9,0,3.9,0,5.8c0,0.7,0.1,1.3,1,1.2c0-1.9,0-3.9,0-5.8C95,116.6,94.9,116,94,116.1z"/>
<path class="st8" d="M117,202.1c0.5,1.7-0.4,3.3-1.1,4.4c-0.8,1.3-0.8,2.3-0.9,3.6c0,0,0,0,0,0c1.4,0.1,0.8,1.2,1,2
	c1.3,0.5,1.9-0.9,3-1c-0.5-1.4,1.1-2.1,1-3.4c-0.1-1.4,0-2.9,0-4.3c0-0.7,0.1-1.3,1-1.2c-0.6-2.7,0.9-4.8,2-7
	c0.2-1.4-0.4-2.3-1.6-2.9c-0.9,0.9-1.6,2-2.5,2.4c-1.2,0.5-0.2,2.5-1.8,2.4c0,0.3,0,0.7,0,1C117,199.4,117,200.8,117,202.1z"/>
<path class="st1" d="M134,218.1c0,0.7,0.3,1,1,1c0.7-0.3,1.3-0.7,2-1c2.2-0.7,3.7-2.2,5-4c0-0.7,0-1.3,0-2
	C139,213.7,137.5,217.3,134,218.1z"/>
<path class="st9" d="M116,212.1c-0.1,0.8,0.6,1.1,1,1.5c1.2,1,1.8,0.7,1.9-1c0.1-0.5,0-1,0-1.5C117.9,211.2,117.3,212.6,116,212.1z"
	/>
<path class="st10" d="M180,195.1c-0.8,2.1-3.2,2.9-4,5c1.6,0.4,1.2,2.3,2.5,3.1c1.8,1.1,3.6,1.3,4.3-0.6c0.7-1.8,1.5-3.3,2.8-4.7
	c0.9-1,0.5-1.7-0.9-1.8c-0.5,0-0.9-0.4-0.8-1c-0.2-0.8,0.5-1.9-1-2c-0.3,0-0.7,0-1,0C181.8,194.2,181.1,194.8,180,195.1z"/>
<path class="st11" d="M102,60.1c1.6-0.1,0.8-1.3,1-2.1c0.1-0.4,0.1-0.9,0.7-0.7c0.2,0.1,0.2,0.5,0.3,0.8c1.6-0.1,0.8-1.3,1-2.1
	c0.1-0.4,0.1-0.9,0.7-0.7c0.2,0.1,0.2,0.5,0.3,0.8c1.5-0.1,0.8-1.2,1-2c1-1,0.8-2.8,2.7-3.4c0.9-0.3,1.6-1.8,2.1-3
	c0.4-1.1,0.8-2,2.2-2.9c-0.3,2.1,0.7,3.9-0.8,5.7c-0.7,0.8,0.2,1.6,1.5,1.5c1.3-0.1,2-0.8,2.3-2c-0.6,0.2-0.8-0.4-1.2-0.7
	c-0.2-0.2-0.5-0.4-0.7-0.7c-0.1-0.3-0.2-0.8-0.1-0.9c1.2-0.7-0.1-1.9,0.4-2.5c0.6-0.7,0.6-1.4,0.6-2.2c0-0.6-0.3-0.9-0.8-1
	c-0.3,0-0.7,0-0.9,0.2c-2.4,1.9-2.6,1.8-3.3-0.9c0-0.2-0.9,0.9-1.9,2c-0.5,0.6-1.1,1.1-1.7,1.6c-0.7-0.8-0.2-1.3,0.2-2.1
	c0.5-1.2,1.7-2.2,1.5-3.7c0,0,0-0.1,0-0.1c-0.7,0-1.3,0-2,0c-1.6,0.8-2.5,2-3.3,3.6c-0.4,0.7,0,2.5-1.7,2.4c-0.2,1.1,0,2.1-0.6,3.2
	c-1.1,2.5-1.7,5.2-2.4,7.8C100.8,56.3,101.6,57.4,102,60.1z"/>
<path class="st12" d="M96.6,69.3c1.1,1.2-0.4,3.2,0.9,4.8c0,0,0,0,0,0c0.8-1.4,0.2-2.9,0.5-4.3c0.2-1.2,1.3-0.6,2-0.8
	c-0.2-0.6,0.6-0.8,0.7-1.2c0.5-2.6,0.9-5.2,1.3-7.8c-0.4-2.6-1.2-3.8-3-4c-0.3,0.1-0.8,0.2-0.8,0.3c0,3-1.3,5.4-3.4,7.5
	c-1,1-1.9,2.5-1.8,4.2c0.3,0.7,0.7,1.3,1,2C95.1,70.4,95.2,68.1,96.6,69.3z"/>
<path class="st13" d="M98,98.8c0.1-0.7-0.3-1.7,1-1.7c0.3-1.4-0.5-2.9,0.6-4.2c0.7-0.8,0.7-1.9,0-2.6c-1-1-0.5-2.1-0.6-3.2
	c0-0.7,0-1.3,0-2c-1.1-0.1-2.1,0-3.2-0.6c-1.3-0.7-1.7-1-0.8-2.4c0.3-0.4,0.1-2.2-0.5-1.8c-2.6,1.8-1.1-0.8-1.5-1.2
	c-0.3,0-0.7,0-1,0c0.2,0.9-0.4,2,0.4,2.8c0.5,0.5,0.7,1,0.6,1.7c-0.6,2.9,0.2,6,1.2,8.2c1.2,2.7,3.7,4.9,2.9,8.3
	C98,100.2,98,99.5,98,98.8z"/>
<path class="st14" d="M118,171.1c0.5-1.9,2-0.6,3-1c1.9-1.5,3.5-3.6,6.4-3c0.5,0.1,0.7-1.1,1.6-1c0.9-1.6,2.8-1.2,4.2-1.9
	c1.3-0.7,0.8-1.6,0.8-2.4c0-0.1,0-0.2-0.1-0.2c-0.1-0.1-0.2-0.2-0.3-0.4c-0.4-0.2-1.1,0-1.6-0.1c-0.6,1-0.7,2.6-1.9,2.9
	c-1.2,0.3-2.4,0.2-3.6-0.8c-2-1.7-4.6-1-7.8-1.2c-1-1-2.4-2.4-3.9-3.9c-1.1,0.5-2.1,1.6-2.9,2.8c-0.8,1.1-2.6,0.7-2.8,2.2
	c1.5,2.6,3.9,4.3,6,6.4c0.8,0.8,1.2,1.5,1,2.6c0.3,0,0.7,0,1,0C117,171.4,117.3,171.1,118,171.1z"/>
<path class="st6" d="M100,146.9c0-2.5,0-5.1,0-7.6c0-0.1,0-0.1,0-0.2c0-0.7-0.3-1-1-1c0,0,0,0,0,0c0,3.3,0,6.6,0,10
	C99.9,148.2,100,147.5,100,146.9z"/>
<path class="st15" d="M100,139.1c0.1,0,0.2,0.1,0.3,0.1c1.7,0.8,0.6,2.5,0.6,3.6c0.2,7.7,0.1,7.7,3.1,13.7c0.3,0.6,0.7,1.1,1.1,1.5
	c1.3,1.7,1.7,4.1,3.9,5.1c0.3-1.5,2.1-1.1,2.8-2.2c0.8-1.2,1.8-2.3,2.9-2.8c1.6,1.6,2.9,2.9,3.9,3.9c3.2,0.1,5.8-0.5,7.8,1.2
	c1.2,1,2.5,1.1,3.6,0.8c1.2-0.3,1.3-1.9,1.9-2.9c-1.6,0-3,0.9-4.7,0.1c-1.7-0.9-3.3-1.7-4.8-3c-2.8-2.4-4.1-5.9-7-8.1
	c-1-0.8-1.9-1.6-3.1-2.2c-3.7-2-6.8-4.7-8.5-8.8c-1.6-0.4-2.2-2.1-3.9-2.5c-2.2-0.5-0.6,1.1-1.1,1.5C99.7,138.1,100,138.4,100,139.1
	z"/>
<path class="st16" d="M112.5,147.9c1.2,0.6,2.1,1.4,3.1,2.2c2.9,2.2,4.2,5.7,7,8.1c1.5,1.3,3.1,2.1,4.8,3c1.7,0.9,3.1,0,4.7-0.1
	c-1.2-2.1,0.3-3.8,0.7-5.8c-1.6-0.9-3.9-0.9-4.7-3.2c-2.1-0.7-0.4-2.6-1.3-3.8c-0.8-0.5-0.9,1.1-1.8,0.8c-0.6-0.2-1.3,0-2,0
	c-1.7,0.5-3.4-0.3-4.4-1.1c-4.7-3.5-9.8-6.5-14.6-9.9c0,0.3,0,0.7,0,1C105.6,143.2,108.8,145.9,112.5,147.9z"/>
<path class="st2" d="M118,49.1c0.7,0,1-0.3,1-1c-0.8-0.1-2.3,0.4-1.9-1.1c0.6-2.3,0.7-4.7,1.9-6.9c-1.1,0.2-2.2-0.4-3.2,0.6
	c-1.5,1.7-2-1-3.4-0.9c-0.9,0.1-0.1-1.4,0.3-2.2c0.4-0.7,0.7-1.8-0.4-2.6c-1,1.4-2.7,2.3-3.4,4c0,0,0,0.1,0,0.1
	c0.3,1.5-0.9,2.5-1.5,3.7c-0.3,0.8-0.9,1.3-0.2,2.1c0.6-0.4,1.2-1,1.7-1.6c1-1.1,1.8-2.2,1.9-2c0.7,2.7,0.9,2.8,3.3,0.9
	c0.2-0.2,0.6-0.2,0.9-0.2c0.5,0.1,0.8,0.3,0.8,1c-0.1,0.8,0,1.5-0.6,2.2c-0.5,0.6,0.8,1.7-0.4,2.5c-0.1,0.1,0,0.6,0.1,0.9
	c0.1,0.3,0.4,0.5,0.7,0.7c0.4,0.3,0.6,0.9,1.2,0.7C117,49.4,117.3,49.1,118,49.1z"/>
<path class="st17" d="M105,61.1c-0.2-1.8,1.5-3.2,1-5c-0.1-0.3-0.1-0.7-0.3-0.8c-0.6-0.2-0.6,0.3-0.7,0.7c-0.1,0.8,0.6,2-1,2.1
	c0,1,0,2,0,3C104.3,61.1,104.7,61.1,105,61.1z"/>
<path class="st18" d="M129.5,49.3c1.3,2.9,4,5.4,3.4,9c-0.2,1.5,1.3,2.2,1.2,3.5c0,0.1,0.5,0.3,0.8,0.3c0.6,0.1,1-0.3,1-0.8
	c0-2.8,0-5.6,0-8.4c0-0.7-0.4-1.8,1-1.8c0,0,0,0,0,0c0.2-2-2.1-3.7-0.6-5.9c1.7,0.7,2.2,3.3,4.6,2.9c-1-2-2.9-3.3-4.4-4.8
	c-0.7-0.7-0.6-1.4-0.6-2.2c-0.5-1.4-1.7-2-2.9-3.4c0.1,2.2-1.1,2.4-2.2,2.9c2.4,2.3,5,4.6,3.8,8.5c-1.1-0.7-1.4-1.7-2-2.6
	c-1-1.7-1.7,1-2.8,0.6c-0.3-0.1-0.5-0.3-0.8-0.4c-3.2-1-6.4-1.4-9.1,1.4c1.1-0.1,2.1,0,3.2-0.6C125.4,46.4,128.6,47.2,129.5,49.3z"
	/>
<path class="st19" d="M144,48.1c0.7,0,1-0.3,1-1c-0.9-2-1.7-4.1-4-5c0,1,0,2,0,3C141.6,46.5,142.6,47.5,144,48.1z"/>
<path class="st20" d="M193,92.7c2-1.3,0.5-2.4,0-3.6c-0.3-0.1-0.7-0.2-0.8-0.4c-0.5-0.6-1.1-0.9-1.7-0.6c-0.7,0.3-0.5,1.1-0.5,1.7
	c0,0.4,0.3,0.9,0.6,1.2c0.6,0.5,0.2,0.8-0.2,0.9c-0.3,0.1-0.7,0.1-0.9-0.1c-0.2-0.1-0.4-0.5-0.4-0.8c0-0.9-0.5-1.1-1.2-1.1
	c-0.9,0.1-0.8,0.8-0.8,1.4c-0.1,0.8,0.3,1.6-0.3,2.5c-1-0.6-1.7-1.2-1.7-2.5c0.1-1.1,0-2.3,0-3.5c-0.2,0-0.4,0.1-0.5,0
	c-0.2-0.2-0.4-0.4-0.8-0.8c-0.2-0.2-0.7,4.7-0.7,6.8c0.2,1.6-1.7,0.5-2,1.6c0.6,3.3,2.9,4.8,6.1,5.8c-0.7,1.5,0.9,3.4-1.1,4.6
	c0,0.7-0.3,1-1,1c0,0.7,0,1.3,0,2c0,0.7,0.3,1,1,1c0.1-0.9-0.4-2.1,1.2-2c0.5,0,0.9-0.4,0.8-1c1.3-3,2.7-6,4-9
	c0-0.8-0.2-1.6,0.7-2.2c0.7-0.5,0.2-1.2,0.3-1.8C193,93.6,192.8,92.8,193,92.7z"/>
<path class="st20" d="M189.9,84.1c1.4,1.4,3,2.7,3.1,5c0.6,0.1,0.9-0.3,1-0.8c0.1-0.7,0.1-1.3,1-1.2c0-0.7,0-1.3,0-2
	c0.2-1.5-0.4-2.7-0.9-4.1c-0.5-1.4-2.2-0.6-2.5-1.9c-0.7,0.3-0.4,1.1-0.7,1.6c-0.5,0.7-1.2,0.2-1.8,0.4c0,1,0,2,0,3
	C189.3,84.1,189.8,84,189.9,84.1z"/>
<path class="st21" d="M132.2,24.6c1.4,1.4,2.8,3,4.3,4.5C135.5,25.4,134.3,24.3,132.2,24.6z"/>
<path class="st22" d="M143,29.1c0.3,0,0.7,0,1,0c-0.6-1.7-2.2-2.6-3.4-3.8c-0.3-0.3-0.7,0.3-0.6,0.8C140.6,27.5,141.6,28.5,143,29.1
	z"/>
<path class="st23" d="M112.1,91.5c0.7-1.1,2.7,0.6,2.9-1.4c-3.4,0-3.4,0-6,2c-1.1,0-2.9,0-1.7,1.6c1.1,1.4,1.5,3.5,3.3,4.3
	c1.4-0.9,1.3-3.2,3.4-3.5c0.1,0,0-0.9,0-1.4C113,93,112.6,92.2,112.1,91.5z"/>
<path class="st24" d="M116.2,85.1c1.5-0.1,2.4,0.6,2.8,2c1.3,0,2.7,0,4,0c-0.1-0.9,0.5-1,1.2-1c2.3,0,4.5,0,6.8,0
	c-0.3-1.1,0.8-2.5-1.7-3.2c-5.2-1.5-10.2-0.4-15.4-0.8c0.4,1,1.2,1.1,1.1,1.9c0,0.1,0,0.2,0,0.3C115.1,85,115.7,85.1,116.2,85.1z"/>
<path class="st25" d="M140.4,52c0.2,0.4,0.4,0.7,0.6,1.1c0.6-0.1,1.4,0.3,1.8-0.3c0.6-0.9,0-1.5-0.6-2c-0.3-0.3-0.6-0.8-1.2-0.7
	C139.6,50.3,139.8,51.1,140.4,52z"/>
<path class="st26" d="M185,91.5c-0.1,1.3,0.7,1.9,1.7,2.5c0.6-0.8,0.3-1.7,0.3-2.5c0.1-0.6-0.1-1.4,0.8-1.4c0.8-0.1,1.2,0.2,1.2,1.1
	c0,0.3,0.2,0.6,0.4,0.8c0.2,0.2,0.6,0.2,0.9,0.1c0.4-0.1,0.8-0.4,0.2-0.9c-0.3-0.3-0.5-0.8-0.6-1.2c-0.1-0.6-0.3-1.4,0.5-1.7
	c0.6-0.3,1.2,0,1.7,0.6c0.2,0.2,0.5,0.2,0.8,0.4c-0.1-2.2-1.7-3.5-3.1-5c-0.1-0.2-0.6,0-0.9,0c-0.2,0.9,0.4,2-0.3,2.8
	c-1.9-1.7-2.3,1.2-3.7,1.2C185,89.2,185,90.4,185,91.5z"/>
<path class="st27" d="M176,88.1c0-1.6,0-3.2,0-4.8c0-0.7-0.1-1.3-1-1.2c0,2,0,4,0,6C175.3,88.1,175.7,88.1,176,88.1z"/>
<path class="st28" d="M157.6,88.2c-1.6,1.9-3.9,0.1-5.4,1.2c-0.5,1.3,0.5,1.9,1.2,2.4c0.8,0.7,0.7,1.4,0.7,2.2c1.2,0.9,2.6,1.1,4,1
	c-0.1-0.8,0.7-1,1-1.5c-1.8-0.8,0.1-1.7,0-2.5c0-0.3,0-0.7,0-1C157.5,90.2,157.8,87.9,157.6,88.2z"/>
<path class="st29" d="M117,90.6c0.9,1.1,2.1,0.5,3.1,0.5c1.5,0,0.3,2.3,1.9,2.1c0.3-0.1,0.6,0,1,0c1.6,0.4,2.2,1.4,2,3
	c1.1-0.4,1.8,0.6,2.7,0.8c1.1-1.6-1.7-2.3-0.7-3.8c-0.8,0.1-1-0.7-1.6-1c-3.3-2-3.3-2-7-2c-0.5,0-1,0-1.5,0
	C117,90.3,116.9,90.5,117,90.6z"/>
<path class="st30" d="M138,56.3c0,1.3,0,2.4,0,3.5c0,0.5,1.7,5.8,2,6.3c1.9,0.5,0.6,2,1,3c1.1-1.1,2.8-2.2,0.7-3.7
	c-1.8-1.4,0.3-2.2,0.3-3.3C141.1,58.8,141,58.6,138,56.3z"/>
<path class="st31" d="M132,123.6c-1,0.6-1.1,1.5-1,2.5c0.3,0,0.7,0,1,0c-0.1-0.9,0.5-0.9,1.2-1c2.8-0.3,2.8-0.3,3.6-4
	c-1,0-1.9,0-2.8,0c-0.3,0-0.7,0-1,0C133.1,122.1,133,123,132,123.6z"/>
<path class="st32" d="M107.8,181.7c1.2-2.7,3.8-4.2,5.2-6.6c-1.1-0.1-1.4-1.2-2.2-1.7c-1.2-0.7-0.1-1.1,0.2-1.8
	c0.5-1.3-1.4-2.1-0.9-3.5c-1.5-3.8-4.7-6.5-6.7-10c-1.1-2-2.2-4-3.3-6c-1.6,1.1-1.2,2.6-0.5,4c1.1,2.2,2.2,4.3,3.3,6.6
	c-1.3,1.1-2.1,2.8-2.8,4.4c0.3,1.5-0.1,2.9,0.8,4.6c0.8,1.5,1,3.4,2.2,4.9c1.4,1.9,0.5,4.6,2,6.5
	C106.3,183.4,107.4,182.7,107.8,181.7z"/>
<path class="st33" d="M102.8,162.7c-1.1-2.3-2.3-4.4-3.3-6.6c-0.7-1.4-1.1-2.8,0.5-4c-0.9-1.2-1.1-2.6-1-4c0-3.3,0-6.6,0-10
	c0,0,0,0,0,0c-0.7,0.3-1.3,0.7-2,1c-0.2,0.9,0.1,1.9-0.3,2.9c-0.7,1.8-1.1,3.8-1.7,5.7c1.8,1.6,1,3.7,0.8,5.5
	c-0.1,2,1.3,3.5,1.2,5.5c-0.2,2.7,0.8,4.7,2.9,8.4C100.8,165.4,101.5,163.7,102.8,162.7z"/>
<path class="st34" d="M98.9,206.4c0.7-2.2,0.2-4.6-1.6-6.4c-2,0.4-3,1.8-4.3,3c1.5,2.7,2.9,5.3,4.5,7.9c0.3,0.5,0.7,1.2,1.5,1.1
	c0-0.3,0-0.7,0-1C99,209.6,98.3,208.2,98.9,206.4z"/>
<path class="st35" d="M58.8,220.1c-1.9,0-3.9,0-5.8,0c-0.1,0.9,0.5,1,1.2,1c0.9,0,1.9,0,2.8,0c1.7,0.5,2.1,1.7,2,3.3
	c0,0.5,0.4,0.7,1,0.7c0.6,0,1-0.4,0.9-0.8c-0.4-1.7,1.1-3.8-1-5.2C60.1,220,59.5,220.1,58.8,220.1z"/>
<path class="st36" d="M176.2,153.1c0.3,0,1.2,0.2,0.5,0.8c-1.5,1.1,0.8,1.4,0.3,2.2c0.7,0,1.3,0,2,0c0.5-1.2,1.5-2,0.1-3.7
	c-1.7-2-2.8,0.3-4.1-0.3C174.9,153,175.5,153,176.2,153.1z"/>
<path class="st37" d="M110,168.1c-0.5,1.4,1.4,2.2,0.9,3.5c-0.2,0.6-1.3,1-0.2,1.8c0.8,0.5,1.1,1.7,2.2,1.7c1.6-0.4,2.2-1.4,2-3
	C114,169.9,111.5,169.6,110,168.1z"/>
</svg>
