<?xml version="1.0" encoding="utf-8"?>
<!-- Generator: Adobe Illustrator 26.1.0, SVG Export Plug-In . SVG Version: 6.00 Build 0)  -->
<svg version="1.1" id="Layer_1" xmlns="http://www.w3.org/2000/svg" xmlns:xlink="http://www.w3.org/1999/xlink" x="0px" y="0px"
	 viewBox="0 0 269.4 255.9" style="enable-background:new 0 0 269.4 255.9;" xml:space="preserve">
<style type="text/css">
	.st0{fill:#D7B4B1;}
	.st1{fill:#DAB3B2;}
	.st2{fill:#E6B1AC;}
	.st3{fill:#DBA6A8;}
	.st4{fill:#E4ADB4;}
	.st5{fill:#DAADAB;}
	.st6{fill:#D9B0AC;}
	.st7{fill:#E2A9A4;}
	.st8{fill:#DEB7B3;}
	.st9{fill:#C68E89;}
	.st10{fill:#BA8281;}
	.st11{fill:#A9766B;}
	.st12{fill:#B47273;}
	.st13{fill:#F0C2CB;}
	.st14{fill:#E6B7BC;}
	.st15{fill:#F6D1E0;}
	.st16{fill:#FACEDA;}
	.st17{fill:#F2C2C9;}
	.st18{fill:#F2C8D7;}
	.st19{fill:#CBAAAC;}
	.st20{fill:#9E706F;}
	.st21{fill:#8F6265;}
	.st22{fill:#DABBC0;}
	.st23{fill:#A78797;}
	.st24{fill:#A88B8E;}
	.st25{fill:#B79294;}
	.st26{fill:#8F767A;}
</style>
<path class="st0" d="M217.3,203.2c-1-0.8-3.2-0.4-4.8-0.1c-1.7,0.4-2.5-1.3-4-1.1c-0.3,0-0.9,0.1-0.9,0c-1.6-2.5-4.6-3-6.5-5
	c-1,0.1-1.8-0.2-2.5-1c-1.4-1.6-2.9-3-5.1-3c-0.7,0-1.2,0-1.3-0.9c-0.2-1.2-1-2.2-2.2-2c-2.2,0.2-4.6-1-6.4,1.1
	c-0.2,0.2-0.2,0.6-0.4,0.8c3.7,0.6,7.1,2.4,11.4,2c-0.7,0.8-1,1.1-1.4,1.6c2.8,1.9,4.2,5.4,7.7,6.6c0.2,3.5,4.1,2.3,5.6,4.4
	c0.8,1.1,2.5,0.2,3.8,0.4c2.7,0.1,5.2-1.7,8-1c0.7-0.3,1.3-0.7,2-1c0.3-0.7,0.7-1.3,1-2C219.8,202.4,218.9,204.5,217.3,203.2z"/>
<path class="st1" d="M159,192.1c0-0.3,0-0.7,0-1c-0.2-0.8,0.8-1,0.9-1.6c-2.6-0.7-4-1.5-5.9-3.4c1.8-0.2,3,1.5,4.7,1
	c0.4-0.1,0.8-0.1,1.1-0.3c0-0.2,0.1-0.3,0.2-0.5c0-0.1,0-0.2,0-0.3c-1.6-0.6-2.5-2.7-4.7-2.2c0,0-0.2-0.5-0.3-0.8c-0.7,0-1.3,0-2,0
	c0,0.3,0,0.7,0,1c-1.8,2.4-5,2.9-7,5c-1,1.5-2.9,1.1-4.3,2c-0.4,0.3-0.9,0.4-0.7,1c1.1,0.2,1.7,1.3,3,1.1c1-0.1,1.5,0.9,2.1,1.9
	c-1.5,2.3-4.9,2.4-6.1,5c0.7,0,1.3,0,2,0c0.7-0.3,1.3-0.7,2-1c2.2-1.1,4.3-2.6,7-2c0.4-1.6,1.4-2.2,3-2c0.3-1.7,2.2-1,3-2
	C157.1,191.6,158.2,192.2,159,192.1z"/>
<path class="st2" d="M175,156.1c0,0.3,0,0.7,0,1c-0.1,1.3,1.2,0.8,1.7,1.2c-0.2,2-1.8,1.6-3.1,1.9c-1.1,0.3-2,1.6-3.2,1.8
	c-1.4,0.3-3,0.1-4.4,0.1c0.3,1.9,1.9,0.6,2.7,1c4.7,2.3,9,0.5,13.3-1.7c-1.4,0-2.8-0.1-3.6-1.3c-0.1-0.1-0.2-0.2-0.2-0.3
	c-0.2-0.3-0.1-0.5,0.2-0.6c0.2-0.1,0.4-0.1,0.6-0.1c0-1,0-2,0-3c-0.7,0-1.3,0-2,0S175.7,156.1,175,156.1z"/>
<path class="st3" d="M122,171.6c0.1-0.5,1.3-0.6,0.7-1.3c-0.3-0.3-1.1-0.2-1.7-0.3c-1,0.4-2.5-0.9-3,1c-0.4,1.8,0.5,2.3,2.1,2
	c0.7-0.2,1.3-0.6,1.9-1c0,0,0,0,0,0C122,171.9,122,171.8,122,171.6z"/>
<path class="st4" d="M137,199.1c-0.7,0-1,0.3-1,1c0.7,0,1,0.3,1,1c1-0.4,2.5,0.9,3-1C138.7,200.6,138.1,199.2,137,199.1z"/>
<path class="st5" d="M161,173.1c-1.3,0.5-1.9-0.9-3-1c0,0.5,0.2,1.3,0,1.4c-1,0.6-2.1,1.4-3.3,1.5c-2.1,0.2-4.2,0.1-6.3,0.1
	c-0.5-1.1-1-2-1.4-3c-1.1,0.1-1.7,1.5-3,1c-1.7,0.7-3.3,1.3-5,2c2.3,1.4,8.3,3,11.3,3c1.1,0,2.4,0.2,3.4-0.2c3.5-1.6,7-0.5,10.5-0.6
	c0.7,0,2.4,0.4,2.8,1.9c1.1,0.2,1.8,0.9,2,2c2,0.1,2,0.2,1,2c0.8,0,1.5,0.1,2.2-0.6c0.5-0.6,0.8-1.4,1.8-1.4c-0.2-1.6-1.4-0.8-2.2-1
	c-0.7-0.2-1.7,0.3-1.8-1c-2.2-1.3-4.4-2.9-6.7-3.9C162.2,174.7,161.3,174.3,161,173.1z"/>
<path class="st0" d="M176.9,188.2c0.1,0.9-0.9,1.7-1.9,1.9c-0.2,0.8,0.5,1.9-1,2c0,0.3,0,0.7,0,1c-0.1,0.9,0.4,2.1-1.2,2
	c-0.5,0-0.9,0.4-0.8,1c0,0.5,0,1,0,1.5c0,0.5-0.2,1,0.3,1.3c0.6,0.4,1.2,0.2,1.7-0.3c0.8-0.8,1.8-1.5,2.4-2.5c1-1.4,2.3-0.9,3.6-1
	c1.1-0.2,1.8-0.9,2-2c-2.2-0.3,0.4-1.3-0.2-1.7c-1.1-0.6-0.5-2.2-1.7-2.7c0.2-0.2,0.3-0.5,0.5-0.7c0.7-1.1,0.8-2.5,2.6-3
	c1.5-0.5,3.2-1.7,2.9-3.9c-1.6,0.6-2.7,1.9-4.5,2.3C179.6,183.9,176.7,184.9,176.9,188.2z"/>
<path class="st5" d="M155,170.1c3.8,0,3.8,0,7,1.5c-0.3,0.5-1.1,0.7-1,1.5c1.3,0,2.5,0,3.8,0c0.7,0,1.3,0.1,1.2,1c1,0,2,0,3,0
	c3.2,0.3,6.2-1.7,9.5-1c0.7-1.4,3.1-0.7,3.3-2.9c-2.5,0-4.9-0.2-7.3,0.1c-2,0.2-3.3,0.2-5.4-1.1c0,0,0,0,0,0c-0.3,0-0.7,0-1,0
	c-3.9,0-7.8,0-11.7,0C155.6,169.1,154.9,169.1,155,170.1z"/>
<path class="st6" d="M172.2,182.5c-0.7,0.7-1.4,0.6-2.2,0.6c-1,0-2,0-3,0c-0.4,1.7-1.6,2.2-3.1,2c-1.4-0.2-2.7,0.2-3.9,1
	c0,0.1,0,0.2,0,0.3c0,0.2-0.1,0.4-0.2,0.5c-0.3,0.2-0.7,0.2-1.1,0.3c-1.7,0.5-2.9-1.1-4.7-1c1.9,1.9,3.3,2.7,5.9,3.4
	c-0.2,0.6-1.1,0.8-0.9,1.6c3.5-1.1,6.9-2.5,10.1-4.5c1.2-0.8,2.4-1.9,3.9-0.5c0-0.7,0.3-1,1-1c-0.5-1.3,0.9-1.9,1-3
	c-0.7,0-1-0.3-1-1C173,181.1,172.7,181.9,172.2,182.5z"/>
<path class="st6" d="M177,181.1c1.5-1.7,3.6-2.6,5.5-3.9c1.2,1.7,0.4,3.2-1.1,3.8c-0.8,0.3-1.5,1.2-2.5,1.2c-1.8,0.4-2.2,2.6-4,3
	c0.5,1.2,2,2.3,0,3.6c-0.2,0.1,0,0.9,0,1.4c1.1-0.2,2-1,1.9-1.9c-0.2-3.3,2.7-4.3,4.5-4.8c1.8-0.5,2.9-1.8,4.5-2.3
	c-1.5-1.7-0.8-4-1.1-5.9c-1.4-0.1-2.9-0.6-3.6,0.2c-2,2.3-5.7,3.1-6.3,6.7C175.8,181.9,176.9,182.6,177,181.1z"/>
<path class="st6" d="M172.8,195.1c1.7,0,1.2-1.2,1.2-2c-1.3,1.1-2.7,1.1-4,0c-0.2,1.6,0.4,2.6,2,3
	C171.9,195.5,172.3,195.1,172.8,195.1z"/>
<path class="st7" d="M189.5,110c0.6-0.7,1.7-1.2,1.4-2.4c-0.4-1.4,0.5-2.4,1-3.6c0.1-1.2-0.3-2.4,0.8-3.5c0.4-0.4,1-2.2-0.8-2.5
	c-1.3,3-2.7,6-4,9C190.1,107.3,188.1,109.5,189.5,110z"/>
<path class="st8" d="M156,156.1c0.1,1.7-1.7,1.2-2.5,1.7c-1,0.7-2.4,1.2-2.9,2.2c-0.9,1.8-2.1,2.4-4,2.1c0,0-0.1,0-0.1,0
	c-0.2,0.3-0.4,0.6-0.6,1c2.3-0.3,4.2,0.1,5.6,2.1c1,1.3,2.6,1.4,4.1,1.7c-0.6-0.9-1-1.6-2.3-1.9c-0.9-0.2-1.6-1.3-2.7-2.6
	c-0.1-0.1-0.3-0.3-0.4-0.4c0.2,0,0.4,0,0.6,0c1.3,0.1,2.1,0.1,2.7,0.3c0.8,0.3,1.1,1.5,2.1,1.6c0.4-2.7,0.4-2.7,3.2-2.8
	c0.3-1.5,1.9-1.4,2.8-1.9c0.9-0.4,1.2-0.7,1.2-1.6c0-0.9-0.1-1.5-1.3-1.5c-0.5,0-0.9-0.4-0.8-1c-1,0-2,0-3,0
	C157.9,156.6,156.8,155.9,156,156.1z"/>
<path class="st8" d="M135.9,168.6c-0.3,0.7-1.2,0.3-1.8,0.5c-1.1,0.3-1.3-1.7-3.3-0.4c-0.4,0.4,0.4,1.6,0.1,2.7
	c-0.3,1.3-1.3,0.6-2,0.8c-1.1,0.2-1.8,0.9-2,2c3,0,5.7-0.7,7.8-2.4c1.1-0.8,2.1-1,3-0.2c1,0.9,2.1,0.5,3.2,0.6c0.7,0,1.3,0,2,0
	c1.6-1.5,3.5-2,5.7-2c2.1,0,4.2,0,6.3,0c-0.1-0.9,0.6-1,1.3-1c3.9,0,7.8,0,11.7,0c0.1-1-0.6-1-1.3-1c-3.8,0-7.7,0-11.5,0
	c-0.8,0-1.5,0.2-2.3,0.5c-3.5,1.1-7.1,0.6-10.7,0.2c-0.4,0-0.8-0.3-1.3-0.5c-0.2-0.1-0.3-0.2-0.5-0.3c0.1-0.1,0.2-0.2,0.3-0.3
	c1.2-1,1.8-1.6,2.7-1.8c1-0.3,1.8-1.4,1.4-2.8c-3.3,1.2-6.7,2.4-10,3.5C135.6,167.1,136.4,167.7,135.9,168.6z"/>
<path class="st3" d="M146.6,162.1c0,0,0.1,0,0.1,0c1.9,0.3,3.1-0.3,4-2.1c0.5-1,1.9-1.6,2.9-2.2c0.8-0.5,2.5,0,2.5-1.7
	c-3.3,0-6.7,0-10,0c-1,0.4-2.5-0.9-3,1c0.7,0,1.3,0,2,0c1.6,0,3.2,0,5.7,0c-1.8,1.3-4.4,0.5-3.8,3.2c0.2,1-0.9,1-1.7,0.5
	c-0.4-0.3-0.6-0.8-1.2-0.7c-1.7-0.1-3,0.7-4,2c-0.1,0.8,0.5,2.1-1.2,2c-2.5-0.1-4.6,1.2-6.8,2c-1,1-2,2-3,3c0,1,0,2,0,3
	c0.7-0.1,1.7,0.5,2-0.8c0.2-1.1-0.5-2.3-0.1-2.7c1.9-1.2,2.1,0.7,3.3,0.4c0.6-0.1,1.4,0.3,1.8-0.5c0.4-0.9-0.3-1.5-0.9-2
	c3.3-1.2,6.7-2.4,10-3.5c0.3,0,0.7,0,1,0C145.9,162.6,146.2,162.2,146.6,162.1z"/>
<path class="st3" d="M124,173.1c0.1,0.7-0.4,1.7,0.7,2c1.4,0.4,2.7,1.4,4.3,1c1.2-0.9,2.7-0.7,4-1.1c1.3-0.4,2.6-1,4-0.9
	c0.2-1.6,1.4-0.8,2.2-1c0.7-0.2,1.7,0.3,1.8-1c-1.1-0.2-2.2,0.3-3.2-0.6c-0.9-0.8-1.9-0.6-3,0.2c-2.2,1.6-4.8,2.3-7.8,2.4
	C125.7,174.6,125.1,173.2,124,173.1z"/>
<path class="st4" d="M138,198.1c1.5,0.2,2.6-0.5,2.9-1.8c0.2-0.7,0.7-2-0.9-2.2c-0.3,0-0.7,0-1,0C139.1,195.5,138.9,196.9,138,198.1
	z"/>
<path class="st8" d="M132.8,154.1c2.7-0.2,5.2,1.5,7.9,1.2c0.1,0,0.2,0.4,0.3,0.7c0,0,0,0,0,0c0,0,0,0,0,0c0.1,1.5,1.2,0.8,2,1
	c0.5-1.9,2-0.6,3-1c-0.1-0.3-0.2-0.8-0.3-0.8c-3.5-0.8-7.1-1.5-10.7-2.2c-1,0-2,0-3,0C131.9,153.7,132.3,154.1,132.8,154.1z"/>
<path class="st9" d="M144,173.1c1.3,0.5,1.9-0.9,3-1c3.7,0,7.3,0,11,0c1.1,0.1,1.7,1.5,3,1c-0.1-0.8,0.7-1,1-1.5
	c-3.2-1.5-3.2-1.5-7-1.5c-2.1,0-4.2,0-6.3,0c-2.1,0-4.1,0.5-5.7,2C143.7,172.1,144,172.4,144,173.1z"/>
<path class="st10" d="M182.5,177.2c-1.9,1.3-4,2.2-5.5,3.9c0.8,0.2,1.9-0.5,2,1c1,0.1,1.6-0.8,2.5-1.2
	C182.9,180.3,183.8,178.8,182.5,177.2z"/>
<path class="st11" d="M184.7,106.3c-1,0-0.4,0.9-0.7,1.3c-0.7,1.2-1.1-0.9-1.7-0.2c-0.4,0.4-0.4,1.2-0.7,1.6c-1.1,1.4-2.1,1.4-3,0.1
	c-0.3-0.4-0.4-0.8-0.5-1.3c-1.1-3.5-3.2-6.5-5-9.7c-1-0.1-1,0.6-1,1.3c-0.1,0.7,0.3,1.7-1,1.7c1.9,1.6,4.1,3,4,6c0.1,0,0.1,0,0.1,0
	c0.5,0,0.8,0.3,0.8,0.8c0,0,0,0,0,0c0.2,1.4-0.3,2.8,0.4,4.2c1.5,0,3,0,4.4,0c1.7-0.1,1.1,1.2,1.2,2c0.9,0.1,1-0.6,1-1.2
	c0-1.6,0.6-2.9,2-3.8c0-0.7,0-1.3,0-2C184.9,106.8,184.8,106.3,184.7,106.3z"/>
<path class="st12" d="M170.4,162c1.1-0.3,2-1.6,3.2-1.8c1.3-0.3,2.8,0.1,3.1-1.9c-0.5-0.4-1.8,0.2-1.7-1.2c-1.7,0-3.3,0-5,0
	c-0.8,0-1.7-0.2-2.2,0.7c-1.3,2.2-3.5,2.6-5.9,2.4c0.7,1.8,2.9-0.2,3.1,1.9c0.3,0,0.7,0,1,0C167.5,162.1,169,162.3,170.4,162z"/>
<path class="st13" d="M145,213.1c-0.1,0.9,0.5,1,1.2,1c0.9,0,1.9,0,2.8,0c0-0.3,0-0.7,0-1C147.7,213.5,146.3,211.6,145,213.1z"/>
<path class="st14" d="M172.8,153.1c-1.9,0-3.9,0-5.8,0c0,0.5-0.1,1,0,1.5c0.2,0.6,0.5,0.2,1,0.1c3-0.9,3.2-0.8,7,1.5
	c0.7,0,1.3,0,2,0c0.5-0.8-1.9-1.1-0.3-2.2c0.8-0.5-0.1-0.7-0.5-0.8c-0.7-0.1-1.3-0.1-1.2-1c-0.3,0-0.7,0-1,0
	C174.1,153,173.5,153.1,172.8,153.1z"/>
<path class="st15" d="M137,199.1c0-0.7,0.3-1,1-1c0.9-1.2,1.1-2.6,1-4c-0.7,0-1.3,0-2,0c0.1,0.6-0.3,0.9-0.8,1
	c-1.6,0.4-2.5,1.3-2.2,3c-0.3,1.6,0.4,2.3,2,2C136,199.4,136.3,199.1,137,199.1z"/>
<path class="st16" d="M170.8,176.3c0.8,1.5-1,1.8-0.8,2.8c0.5,0,1-0.1,1.4,0c1.3,0.2,1.7-0.4,1.6-1.6c-0.1-1.5-1-2.2-2.3-2.4
	c-0.7-0.1-1.7,0.3-1.7-1c-1,0-2,0-3,0C166.5,177.2,169.5,175.5,170.8,176.3z"/>
<path class="st17" d="M140,194.1c1.6,0.2,1.1,1.5,0.9,2.2c-0.4,1.3-1.4,2-2.9,1.8c-0.7,0-1,0.3-1,1c1.1,0.1,1.7,1.5,3,1
	c1.2-2.7,4.6-2.7,6.1-5c-0.5-1-1.1-2-2.1-1.9c-1.3,0.2-2-0.9-3-1.1C139.5,192.2,140.2,193.3,140,194.1z"/>
<path class="st18" d="M124,173.1c1.1,0.1,1.7,1.5,3,1c0.2-1.1,0.9-1.8,2-2c0-1,0-2,0-3C124.5,169.3,124.1,169.6,124,173.1z"/>
<path class="st19" d="M119.6,186.2c-1.4,0.6,0.1,2.2-1.3,3c-0.3-1.8-0.8-3.5-1.8-5c-0.9-1.3-0.8-2.7,0-4c0.2-0.3,0.3-1.2,1.4-0.7
	c2.9,1.4,6.1,0.3,9.1,0.7c0.1-0.9-0.5-1-1.2-1c-0.9,0-1.9,0-2.8,0c-0.5,0-1,0-1.5,0c-2.4-0.1-3.5-0.8-3.5-2.4c0-1.8,0.9-2.8,2.7-2.6
	c1.7,0.1,1.2-1.1,1.3-2c0,0,0,0,0,0c-0.6,0.3-1.3,0.8-1.9,1c-1.6,0.4-2.4-0.2-2.1-2c-0.7,0-1,0.3-1,1c-0.5,3.2-3.7,4.4-5,7
	c0.1,3.1-1.1,6-1.5,9c0,0-0.3,0-0.5,0c-0.1,1.1,0.4,2.3-0.7,3.2c-0.5,0.4-0.3,0.9-0.2,1.3c0.1,0.5,1.4,0.7,0.4,1.4
	c-0.8,0.5-1.5-0.3-2.1-1c-0.7,1.8-1.3,3.6-2,5.2c-0.2,0.5-0.5,1.2-0.3,1.3c2.9,1.8,1.7,4.7,2,7.1c2.2,1.5,3.9-0.8,5.9-0.6
	c0.1-1.1,1.5-1.7,1-3c-2.5,1.3-2.5,1.3-3.6-1c-0.3-0.6-0.7-1.4-0.2-1.6c2.1-1-1.4-3.3,1.1-4.2c0.4-0.1,0.9-0.5,0.7-1.2
	c-0.1-0.3-0.2-0.5-0.3-0.8c-0.1-0.3-1-0.4-0.4-1c0.2-0.2,0.6-0.3,0.8-0.2c0.7,0.3,1.3,0.6,1.9,1c0-0.2-0.1-0.4,0-0.5
	c0.8-0.9,1.9-0.6,2.8-0.5c1.7,0.4,0.7-2,2-1.8c0.4,0.1,0.4,1,1,0.5c0.9-1.1-0.9-3.1,1.2-3.7C121.1,187.1,120,186.9,119.6,186.2z"/>
<path class="st19" d="M136,200.1c-1.6,0.3-2.3-0.4-2-2c-0.6,0.1-1-0.3-1-0.8c0.4-2-0.7-3.6-1.5-5.2c-0.6,0.6-1.2,1.2-2,2
	c-0.8-1-2-1.6-2.5-3c-1.8-1.4-3.9-2.2-6-3c-0.4,1.4,0.4,2.3,1.4,2.9c2.4,1.2,4.3,3.4,6.6,4.4c2.9,1.3,2.8,4.3,4.9,5.7c1,0,2,0,3,0
	C137,200.4,136.7,200.1,136,200.1z"/>
<path class="st19" d="M122,171.6c0,0.1,0,0.3,0,0.5c0.7,0.3,1.3,0.7,2,1c0.1-3.5,0.5-3.8,5-4c1-1,2-2,3-3c-1,0-2,0-3,0
	c-0.8-0.1-1.1,1-1.6,1c-2.9-0.5-4.5,1.5-6.4,3c0.6,0.1,1.4-0.1,1.7,0.3C123.3,171,122.1,171.1,122,171.6z"/>
<path class="st20" d="M171.4,95.1c-0.2,0.6-0.4,1.1-0.6,1.8c-1,0.1-0.6-0.8-0.8-1.2c-0.2-0.5-0.6-0.6-1.2-0.6
	c-1.4-0.1-0.3,2.2-1.5,1.7c-0.9-0.4-1.4-1.1-2.5-0.2c-1.2,1-2.5,0.7-3.3-0.5c-1-1.4-2.3-1-3.6-1c-1.4,0.1-2.8-0.1-4-1
	c-0.6,1.1-1.6-2.8-2,0.2c-0.2,1.4-1.6,0.8-2.3,0.7c-1.1-0.1-0.6-1.2-0.7-1.9c-2.3,1.3-2.3,1.3-4-1c-0.7,0.3-1.3,0.7-2,1
	c0,0.3,0,0.7,0,1s0,0.7,0,1c0.3,0,0.7,0,1,0c1.7-0.1,3,0.7,4,2c0.3,0,0.8-0.1,1,0c2.1,2.3,4.9,2.3,7.6,1.9c2.6-0.3,5.1,2.5,7.6,0.1
	c1.2,1.4,2.4,1.1,3.7,0c0.4-0.3,0.8,0.3,1.2,0.6c0.6,0.5,0.9,1.5,1.9,1.4c1.3,0,0.9-1,1-1.7c0-0.7,0.1-1.3,1-1.3c0-0.3,0-0.7,0-1
	C171.4,97.3,172.5,95.4,171.4,95.1z"/>
<path class="st21" d="M135.6,182.1c0.8,0,1.6,0,2.4,0c-0.1-0.6,0.3-1,0.8-1c6.1-0.1,12.1-1.7,18.2-1c-0.1-0.9,0.6-1,1.2-1
	c2.9,0,5.8,0,8.8,0c-0.4-1.5-2.1-1.9-2.8-1.9c-3.5,0.2-7.1-1-10.5,0.6c-0.9,0.4-2.2,0.2-3.4,0.2c-3,0-8.9-1.6-11.3-3
	c-1.6-0.3-2.6,0.8-3.8,1.4c-0.8,0.4-1.4,0.6-2.2,0.6c0.1,1-0.6,1-1.3,1c-2.5,0-5,0-7.4,0c-0.6,0-1.1,0-1.3,0.6c0,0.1,0,0.2,0,0.4
	c0.9,0,1.9,0,2.8,0c0.7,0,1.2,0.1,1.2,1c2.5,1,3.5,4,6,5C132.9,183.3,133.6,182.1,135.6,182.1z"/>
<path class="st21" d="M139.2,173.1c-0.8,0.2-2.1-0.7-2.2,1c0.8,0.2,1.9-0.5,2,1c1.7-0.7,3.3-1.3,5-2c0-0.7-0.3-1-1-1
	c-0.7,0-1.3,0-2,0C141,173.4,140,172.9,139.2,173.1z"/>
<path class="st22" d="M112,195.1c0.2,0.6-0.3,1-0.7,1.2c-2.5,0.9,1,3.2-1.1,4.2c-0.6,0.3-0.1,1,0.2,1.6c1.1,2.3,1.1,2.4,3.6,1
	c-0.4-2.5,0.9-4,3-5c0-0.3,0-0.7,0-1c0-0.7-0.3-1-1-1C114.6,196.2,113.2,196,112,195.1z"/>
<path class="st23" d="M157.9,214.8c0.1-1.2,0.5-2.5-0.3-3.6c-0.6,0.3-0.8,1.1-1.6,1c-1.9,0.5-0.6,2-1,3
	C155.9,215,156.9,215.4,157.9,214.8z"/>
<path class="st24" d="M107.1,206.7c-0.3-2.4,0.9-5.4-2-7.1c-0.2-0.1,0.1-0.8,0.3-1.3c0.8-1.7,1.4-3.4,2-5.2c0.7,0.7,1.3,1.6,2.1,1
	c1-0.6-0.3-0.9-0.4-1.4c-0.1-0.5-0.2-1,0.2-1.3c1.1-0.9,0.6-2.1,0.7-3.2c-1.1,0.2-1.9,0.9-3,1.1c-1.4,0.3-2.6,1-3.2,3.2
	c-0.7,2.8-1.1,5.2-0.1,7.8c0.6,1.5,0.7,3.2-0.1,4.7c-0.7,1.3-0.1,2.3,0,3.4c0.1,2,4.3,2.6,1.5,5.2c-0.1,0.1,0.6,0.5,1.1,0.5
	c0.9,0.1,1.5-0.2,2.2-0.8c1.2-1.1,2-2.6,3.6-3.2c-0.1-1.4,0.1-2.8,1-4C111,205.9,109.2,208.2,107.1,206.7z"/>
<path class="st24" d="M116,202.8c0.3-0.4,0.4-0.9,1-0.7c0-1.3,0-2.7,0-4c-2.1,1-3.4,2.5-3,5c0.5,1.3-0.9,1.9-1,3c0.3,0,0.7,0,1,0
	C115.6,205.6,115.3,203.9,116,202.8z"/>
<path class="st25" d="M152,183.1c-2.7,1.6-5.1,3.8-8,5c0.1,1.5,1.2,0.8,2,1c2-2.1,5.2-2.6,7-5C152.3,184.1,152,183.8,152,183.1z"/>
<path class="st26" d="M108.4,213.3c-0.7,0.6-1.3,0.9-2.2,0.8c-0.5,0-1.2-0.4-1.1-0.5c2.8-2.6-1.5-3.2-1.5-5.2c0-1.1-0.7-2.2,0-3.4
	c0.8-1.5,0.7-3.1,0.1-4.7c-1-2.7-0.6-5.1,0.1-7.8c0.6-2.2,1.8-3,3.2-3.2c1.2-0.2,2-1,3-1.1c0.2,0,0.5,0,0.5,0c0.4-3,1.7-5.9,1.5-9
	c-1-0.1-0.8,0.7-1,1.3c-1.4,3.1-1.5,7.1-6.2,7.9c-1.3,0.2-3.2,1.9-3.4,3.2c-0.4,2-2,4.1-1.2,5.8c1,2.1,1.1,3.8-0.1,5.7
	c-0.2,0.3-0.2,1.1,0,1.4c1.9,2.4,0.2,6.1,2.9,8.2c0.4,0.3,0.1,1.5,0.1,2.3c0,0,0,0.1,0,0.1c1.2,0.2,1.7,1.4,2.6,2.1
	c1.5,1.2,5.5,1.3,6.7,0.1c2.4-2.4,2.3-5-0.3-7.2C110.4,210.7,109.5,212.2,108.4,213.3z"/>
</svg>
