<?xml version="1.0" encoding="utf-8"?>
<!-- Generator: Adobe Illustrator 26.1.0, SVG Export Plug-In . SVG Version: 6.00 Build 0)  -->
<svg version="1.1" id="Layer_1" xmlns="http://www.w3.org/2000/svg" xmlns:xlink="http://www.w3.org/1999/xlink" x="0px" y="0px"
	 viewBox="0 0 269.4 255.9" style="enable-background:new 0 0 269.4 255.9;" xml:space="preserve">
<style type="text/css">
	.st0{fill:#020203;}
</style>
<path class="st0" d="M174.2,66.5c-0.2-0.2-0.4-0.3-0.5-0.5C173.8,66.2,173.9,66.4,174.2,66.5z"/>
<path class="st0" d="M141,156C140.9,156.1,141,156.1,141,156L141,156z"/>
<path class="st0" d="M140.5,168c0.1,0.1,0.3,0.2,0.5,0.3c-0.1-0.2-0.1-0.4-0.2-0.6C140.7,167.8,140.6,167.9,140.5,168z"/>
<path class="st0" d="M153.4,201.2L153.4,201.2C153.4,201.1,153.4,201.2,153.4,201.2z"/>
<path class="st0" d="M175,67.1c-0.3-0.2-0.6-0.4-0.9-0.5C174.3,66.8,174.6,67,175,67.1z"/>
<path class="st0" d="M269,245.3c0-14-0.1-28,0.1-42c0-2.5-0.6-4.4-2.1-6.2c0.2-0.2,0.5-0.4,0.7-0.5c-0.7-0.4-1.5-0.6-2.3-0.6
	c-0.4,0.1-0.7,0.1-1,0.1c0,0,0-0.1-0.1-0.1c-0.9-1.4-1.8-2.7-1.4-4.7c0.2-0.7,0-1.5-0.3-2.3c-0.9-2.3-1.9-4.7-2.4-6.9
	c-0.5-2.7-2.1-4.5-3.3-6.7c-0.9-1.6-2.4-1.4-3.9-1.4c-0.6-0.6-1.3-0.7-2-0.4c0,0.1,0,0.3,0,0.4c0-0.1,0-0.2,0-0.2
	c-0.2-3.9-2.4-5.7-6.2-6.4c-10.1-1.9-20.1-4-29.6-8.1c-3.6-1.6-7.4-2-11.1-2.4c-0.3,1.4,0,2.2,0.5,2.9c-2.2-1.4-4.5-2.9-6.2-4.9
	c-0.4-0.5-0.9-0.7-1.6-0.8c-3.1-0.5-6.1-1.6-9.7-0.7c0,1.5,0,3.1,0,4.7c0,1.1,1.4,1.7,0.9,3c0.2,0,0.3-0.1,0.4-0.2
	c0.3-0.2,0.5-0.3,0.6-0.5c-0.1,0.2-0.3,0.5-0.6,0.6c-0.1,0.1-0.2,0.1-0.4,0.2c0,0,0-0.1,0-0.1c0.5-1.3-0.9-1.9-1-3
	c-0.3-0.1-0.8-0.2-0.8-0.3c0.1-3.6-1.9-7-1.2-10.7c-3-0.7-3.4-6.1-7.8-4.4c-0.2,0.1-1.3-0.9-1.2-1.9c0-0.7,0.4-1.8-1-1.8
	c0.2-1,1.4-1.6,1-2.8c-0.8,0.4-1-1.6-1.9-0.7c0,0,0,0,0,0c0,0,0,0,0,0c0.9-1,1.1,1.1,1.9,0.6c0.3,0,0.7,0,1,0
	c0.2-1.1,0.2-2.1,0.5-3.2c1.4-4.5,3.6-8.9,3.5-13.8c0-0.7,0.6-1.4,1-2c1.2,0.9,2.6,1.1,4,1c0.3-1.7-2.3-0.3-2-2
	c0.2-1.2-0.1-2.4,0.9-3.6c0.4-0.5,1.2-1.4,1.1-2.4c-1.6,0-0.8-2-1-3c0,0,0,0,0,0c0,0,0.1,0,0.1,0c0.1,0.9-0.5,2.8,1,2.7
	c0,0.1,0,0.2,0,0.3c0.1,1-0.8,1.9-1.1,2.4c-1,1.2-0.7,2.4-0.9,3.6c-0.2,1.7,2.4,0.3,2,2c3.4-0.2,5.6-2.2,5.9-5.4
	c0.2-3,1.4-5.7,2.4-8.4c0.9-2.3,2-4.6,1.7-7.2c0,0,0-0.1,0-0.1c0.2,0,0.3,0,0.4,0c1.5-4.8,1.6-6.8,0.5-11c0-0.9,0-1.9,0-2.8
	c-0.6-0.2-0.9,0.2-1,0.7c-0.1,0.7-0.1,1.3-1,1.2c0,0,0-0.1,0-0.1c0.9,0.1,0.9-0.6,1-1.2c0.1-0.5,0.4-0.9,1-0.8
	c-0.1-0.6,0.4-1.5-0.3-1.8c-1.4-0.5-2.2-0.5-1.1-2.5c0.9-1.6,1.8-3.6,1.5-5.7c0,0-0.1,0-0.1,0c0-0.7-0.3-1.5,0-1.9
	c1-2.1-0.3-3.5,0.6-5c1.7-0.1,1.2-1.2,1.8-1.8c1.5-1.6,0.3-3.5,0.7-5.2c-0.7,0.3-1.3,0.7-2,1c-0.2,0.6,0.2,1.3-0.5,1.9
	c0.6-0.6,0.3-1.3,0.4-1.9c0.7-0.3,1.3-0.7,2-1c0-2.3,0-4.7,0-7c-1.2-3.9-2.1-8-3-12c0-0.3,0-0.7,0-1c0.5-0.8-1.9-1.2-0.3-2.3
	c0.3-0.2,0.4-1.1,0.2-1.3c-1.6-1.5-2.3-4.1-4.9-4.5c0,0.1,0,0.2,0,0.3c0-0.1,0-0.1,0-0.2c0-0.3,0-0.7,0-1c-0.3,0-0.7,0-1,0
	c-0.3,0.6-0.9,1.3-1,1.9c0.1-0.7,0.6-1.3,1-1.9c-2.4-1.6-4.4-3.6-6-6c-0.4,0.1-1-0.1-1.4,0c0.4-0.2,1.1,0,1.6-0.1
	c-0.9-2.3-3-3.1-5-4c-0.1,0-0.1,0-0.2-0.1c0-1.3,1.7-0.4,2-1.3c-1.6-1.8-4-2.3-6-3.5c0-0.7,0-1.3,0-2c-1.3,0.5-1.9-0.9-3-1
	c-1.9,0.1-3.3-1.3-5-1.5c0,0,0-0.3,0-0.5c-0.7-0.3-1.3-0.7-2-1c-0.6-0.1-1.2,0.2-1.9-0.3c-2.4-1.8-5.6-1.8-8-3.7
	c-3.6,0.3-6.7-1.6-10.2-2c-0.7,0-1.2,0-1.9,0c-0.1-0.6,0.3-1.3-0.3-1.8c-0.8,1.5-3.1-0.2-3.7,1.8c-0.3,0-0.7,0-1,0
	c0.7-3.5-4.9-1.5-7-2c-0.1,0.6,0.3,0.9,0.8,1c0.7,0.1,1.3,0.1,1.2,1c0,0-0.1,0-0.1,0c0.1-0.9-0.6-0.9-1.2-1c-0.5-0.1-0.9-0.4-0.8-1
	c-1.7-0.1-3.4-0.2-4,2c-0.7-0.3-1.2-0.7-1.9-1c-0.4-1.4-1.3-2.1-2.9-2c-0.6,0-1.2,0-1.8-0.1c-1.4,0-2.4,0-2.5,0l-1,0.3
	c-0.1,0-0.2,0.1-0.3,0.1l-5.1,1.8l-3.7,2.9c0.9,0.3,1.8,1.2,2.6,1.8c0.3,0.3,0.6,0.6,0.9,0.8c-0.3-0.2-0.6-0.5-1-0.8
	c-0.7-0.6-1.6-1.5-2.6-1.8l-4,3.1l-8,3.8c0,0-1.2,1.3-2.7,3c0.3,0.1,0.5,0.2,0.7,0.3c-0.1-0.1-0.3-0.1-0.5-0.2
	c-2.3,2.6-5.2,5.8-5.8,6.4c0,0,0,0,0,0c0,0,0,0.1-0.1,0.1c0,0,0,0,0,0c0,0,0,0,0,0C87.4,22.5,82,29,82,29l-0.8,2.2
	c0.5-0.2,1-0.3,1.5-0.4c0.9-0.2,1.6-0.1,2.1,0c-0.5-0.1-1.3-0.1-2.1,0.1c-0.5,0.1-1,0.3-1.5,0.4L78.8,38c0.8,0.1,1.5,0.7,2.4,1.7
	c0.9,1.1,1.7,2.3,2.5,3.5c0.8,1.3,2.1,1.3,3.4,0.4c0.1-0.1,0.2-0.1,0.2-0.2c-0.1,0.1-0.2,0.2-0.3,0.3c-1.2,0.9-2.5,0.9-3.4-0.4
	c-0.8-1.2-1.5-2.4-2.5-3.5c-0.9-1-1.6-1.6-2.5-1.6L78,39.9l-4.6,6.4c0,0,0,0,0,0l-0.6,0.9c0.1-0.1,0.1-0.1,0.1,0c0,0,0,0,0,0
	c0,0,0,0,0,0c0,0,0,0,0,0c0,0,0,0,0,0c0,0,0,0-0.1,0c0,0,0,0,0,0c0,0-0.1,0.1-0.1,0.1c-0.2,0.8-0.3,3.5-0.3,3.5
	c0.2-0.3,0.3-0.7,0.5-1c0.2-0.4,0.7-0.7,1.2-0.7c-0.3,0.1-0.6,0.3-0.7,0.6c-0.2,0.3-0.3,0.7-0.5,1l0.7,3.5L71.4,62v6.8L74,79.1
	l0.7,4.5c0.6,0.6,1.3,1.1,2.1,1.4c1.1,0.5,1.2,1,1.2,1.6c0-0.6-0.2-1.1-1.2-1.5c-0.8-0.3-1.5-0.8-2.1-1.4l0.1,0.6l-3.4,5.4l2,8.1
	l3.5,12.4l6.9,7.6c0-0.1,0.1-0.2,0.1-0.3c0-0.3,0.1-0.5,0-0.8c0.1,0.3,0,0.9,0.1,1.2l0.9,1.3c0,0,0,0,0.1,0c0,0,0,0.1,0.1,0.1
	l1.1,1.5c0.7,0.3,1.5,0.4,2.3,0.3c0,0,0.1,0,0.1,0v0.1c-0.3,2,0.6,3.4,1.6,4.8l0.1,0.2c0.3,0.4,0.6,0.8,0.9,1.2
	c1.3,1.9,2.2,3.7,0.5,5.9c-3.5,4.3-6.8,8.9-11.7,11.3c-3.7,1.8-6.7,4.2-9.2,7.1c0.6-2.5-0.6-3.3-3.9-2.5c-7.4,1.6-14.8,2.6-22.4,3.1
	c-5.6,0.4-12,1-16.4,5.8c-2.4,0.9-4.8,2-7.3,2.8c-2.6-2-3.6,2.1-6.6,1.2c-0.8,0-1.6-0.2-2.2,0.7c-1.2,1.6-3.3,1.7-4.9,2.9l-7,1.5
	c0,2,0,4,0,5.9c-0.1,0-0.3,0-0.4,0c0,27.6,0,55.2,0,82.8h269.1C269.7,253.8,269.2,247.4,269,245.3z"/>
</svg>
