<?xml version="1.0" encoding="utf-8"?>
<!-- Generator: Adobe Illustrator 26.1.0, SVG Export Plug-In . SVG Version: 6.00 Build 0)  -->
<svg version="1.1" id="Layer_1" xmlns="http://www.w3.org/2000/svg" xmlns:xlink="http://www.w3.org/1999/xlink" x="0px" y="0px"
	 viewBox="0 0 269.4 255.9" style="enable-background:new 0 0 269.4 255.9;" xml:space="preserve">
<style type="text/css">
	.st0{fill:#E5B8AA;}
	.st1{fill:#F0BBB7;}
	.st2{fill:#EDC2B7;}
	.st3{fill:#F1C5B8;}
	.st4{fill:#954E54;}
	.st5{fill:#EE97A7;}
	.st6{fill:#C98B87;}
	.st7{fill:#E29AA8;}
	.st8{fill:#A68077;}
	.st9{fill:#9B7771;}
	.st10{fill:#A17870;}
	.st11{fill:#A58183;}
	.st12{fill:#A5807E;}
	.st13{fill:#A87E77;}
	.st14{fill:#AD8780;}
	.st15{fill:#A27871;}
	.st16{fill:#9F7870;}
	.st17{fill:#7F635F;}
	.st18{fill:#9A756D;}
	.st19{fill:#826058;}
	.st20{fill:#8E6C68;}
	.st21{fill:#87655F;}
	.st22{fill:#7C5E5B;}
	.st23{fill:#8D6C6A;}
	.st24{fill:#82605B;}
	.st25{fill:#8F6C67;}
	.st26{fill:#8F6862;}
	.st27{fill:#84605B;}
	.st28{fill:#7C5E5C;}
	.st29{fill:#8F605E;}
	.st30{fill:#926E6A;}
	.st31{fill:#8B6867;}
	.st32{fill:#88635D;}
	.st33{fill:#8C665D;}
	.st34{fill:#8C645C;}
	.st35{fill:#97726C;}
</style>
<path class="st0" d="M180.8,112.1c-1.4,0-2.9,0-4.4,0c-0.7-1.4-0.2-2.8-0.4-4.2c-0.3-0.2-0.6-0.5-0.9-0.8H175c0,1,0,2,0,3
	c0.8,1.5-2.1,2.4-0.4,4.3c1.1,1.1,0.2,3.1,0.4,4.7c1-0.1,1.2,1.1,1,1.2c-1.7,0.9-0.3,2.9-1.6,3.9c-0.9,0.7-0.4,1.4,0.3,2
	c0.6,0.5,0.6,1.3-0.1,1.7c-2.6,1.6-3.7,4.4-5.6,6.6c-2.1,2.4-4.4,4.5-6.6,6.7c-2.5-1.2-5.2-1.6-7.4-3.1c-0.4,1,0.9,2.5-1,3
	c-1.1,0.1-1.7,1.5-3,1c0.4,2.5-0.9,4-3,5c0,1,0,2,0,3c2.2,0,4.4,0,6.6,0c0.1-0.2,0.2-0.3,0.4-0.5c-0.2-0.9-1.8-0.2-1.9-1.1
	c1-0.9,2.2-0.3,3.3-0.4c0.7-0.1,1.3,0,1.8-0.6c1.3-1.5,2.8-2.5,4.8-2.9c1.2-0.2,2.3-0.9,3.1-2c2.2-2.9,5.6-4.5,8-7.1
	c0.9-1,1.1,1.1,1.9,0.6c0.3,0,0.7,0,1,0c0.2-1.1,0.2-2.1,0.5-3.2c1.4-4.5,3.6-8.9,3.5-13.8c0-0.7,0.6-1.4,1-2c0-1,0-2,0-3
	C181.9,113.2,182.4,112,180.8,112.1z"/>
<path class="st1" d="M195,96.1c-0.7,2.4-1.3,4.9-2,7.3c-0.1,0.5-0.4,0.8-1,0.7c-0.5,1.1-1.4,2.1-1,3.6c0.3,1.2-0.9,1.6-1.4,2.4
	c-1.4-0.5,0.5-2.8-1.5-3c0.1,0.6-0.3,1-0.8,1c-1.7,0-1.2,1.2-1.2,2c0.1,1-0.8,1.9-1.1,2.4c-1,1.2-0.7,2.4-0.9,3.6
	c-0.2,1.7,2.4,0.3,2,2c3.4-0.2,5.6-2.2,5.9-5.4c0.2-3,1.4-5.7,2.4-8.4c0.9-2.3,2-4.6,1.7-7.2C196,96.4,195.7,96.1,195,96.1z"/>
<path class="st2" d="M174.2,119.4c-0.8,5.6-3.2,10.4-7.4,14.3c-1.3,1.2-1.9,3.1-3.7,3.8c-2.1,0.9-2,1-4.1-1.5c-1,0-2-0.2-2.9,0
	s-1.2-1.5-1.8-0.7c-1.2,1.5-1.4-0.8-2.3-0.3c-1.5,0.9-2.9,1.8-4.6,0.1c-0.4-0.4-1.4-1.2-2.4-1.1c0,0.3,0,0.7,0,1c0,0.7,0,1.3,0,2
	c0.8,0.1,1.7-1.7,2.5,0c1.1-0.4,1.5,1.1,2.5,1c1.7,0,3.3,0,5,0c2.2,1.5,4.9,1.9,7.4,3.1c2.2-2.2,4.5-4.3,6.6-6.7
	c1.9-2.2,3-5,5.6-6.6c0.7-0.4,0.6-1.1,0.1-1.7c-0.7-0.6-1.1-1.3-0.3-2c1.3-1-0.1-3,1.6-3.9c0.3-0.1,0-1.3-1-1.2
	C174.7,119.2,174.2,119.3,174.2,119.4z"/>
<path class="st3" d="M173,112c-0.2,0.5-2.1,7.9-2,8.6c0.5,2.8-0.9,5.2-2.3,7c-2,2.5-3.7,5.3-6.1,7.5c-1.2,1.1-2.3,0.9-3.6,1
	c2.1,2.4,2,2.3,4.1,1.5c1.8-0.8,2.4-2.6,3.7-3.8c4.2-3.8,6.6-8.6,7.4-14.3c0-0.2,0.5-0.2,0.8-0.4c-0.1-1.6,0.7-3.6-0.4-4.7
	c-1.7-1.9,1.2-2.8,0.4-4.3C173.9,110.3,173.4,111.1,173,112z"/>
<path class="st4" d="M152.2,139c-0.8,0.1-2.1,0.7-2.2-0.9c-1,0.1-1.3-1.4-2.5-1c-0.8-1.7-1.7,0.1-2.5,0c0,1.3,0,2.7,0,4c1,0,2,0,3,0
	c1,0.4,2.5-0.9,3,1c1.3,0.5,1.9-0.9,3-1C154.2,139.8,153.9,138.9,152.2,139z"/>
<path class="st5" d="M145,147.1c1,0,2,0,3,0c2.1-1,3.4-2.5,3-5c-1.4,0.7-2.8,1.3-4.1,2C145.6,144.7,144.8,145.6,145,147.1z"/>
<path class="st6" d="M145,148.1c0,0.7,0,1.3,0,2c1,0,2,0,3,0c0-1,0-2,0-3c-1,0-2,0-3,0C145,147.4,145,147.8,145,148.1z"/>
<path class="st7" d="M152.2,139c1.7-0.1,1.9,0.7,1.8,2.1c1.9-0.5,0.6-2,1-3c-1.7,0-3.3,0-5,0C150.2,139.7,151.5,139.1,152.2,139z"/>
<path class="st7" d="M145.3,142.9c0.9,0.6,1.5,0,2-0.6c0.3-0.3,0.8-0.6,0.7-1.2c-1,0-2,0-3,0C145.1,141.7,144.7,142.4,145.3,142.9z"
	/>
<path class="st8" d="M194,48.3c-0.3-0.8,0.6-2-1-2.2c-0.1,0.7,0.4,1.5-0.6,1.9c-0.9-0.4,0.1-2.1-1.4-1.9c0,1.4-0.2,2.9,1.3,3.8
	c1.5,0.9,2,2.4,1.7,4.2c0,0.7,0,1.3,0,2c1.7-0.2,2.7,0.7,3,2.3c0.1,0.7-0.3,1.7,1,1.7c-0.1-2.7,1.7-5.2,1-8c-1.6-0.4-2.2-1.4-2-3
	C195.5,49.9,194.5,49.6,194,48.3z"/>
<path class="st9" d="M175.6,49.1c0.1,0,0.2,0.1,0.4,0C175.9,49.1,175.7,49.1,175.6,49.1z"/>
<path class="st9" d="M176,52.1c1.9,1.3,3.2,3.4,5.2,4.7c0.6,0.4,1.2,0.2,1.8,0.3c0-0.3,0-0.7,0-1c0.5-3.5-0.8-6.4-3-9
	c-1.3,0.7-2.7,1.3-4,2C176,50.1,176,51.1,176,52.1z"/>
<path class="st10" d="M166.7,40.1c1.1,0.6,2.9,3.4,3.3,5c1.3,0,1.5,1.6,2.6,1.9c1.4-1.5-1.5-2.4-0.6-3.9c-1.5-0.1-0.8-1.2-1-2
	c-1.6-0.5-2.3-2.1-3.5-3c-0.5,0.3-0.7,1.1-1.5,1C165.9,39.7,166.3,39.9,166.7,40.1z"/>
<path class="st11" d="M125.1,77c-0.2-1.7-2.3-3.4-3.8-2.6c-1.2,0.6-2.4,1.1-2.8,2.7c-0.3,1.5,1.2,1.6,1.6,2.5c0.1,0.1,0,0.3,0,0.5
	c1.3,0,2.7,0,4,0C124.2,79,125.2,78.3,125.1,77z"/>
<path class="st12" d="M125,100.1c0.5,0,1,0,1.5,0c1-0.1,1.3,0.2,1.6,1.3c0.3,1.4-1.4,1.9-1.1,3.1c-2,0.7-2.3,2.2-2,4.1
	c0.2,1.4-0.1,2.5-1.3,3.5c-1,0.8-1.6,1.7-1.8,3.3c-0.2,1.8-1.9,2.3-3.7,1.5c-1.8-0.8-3.2-2.1-4.5-3.5c-1.4-1.4,0.2-3.5-1.5-5
	c-0.6-0.6,0.7-2.2,1.9-2.1c2.5,0.2,3.9-1,4.9-3.1c-0.3,0-0.7-0.1-1,0c-2.7,0.7-5.3,1.7-8.2,0.1c-1.3-0.7-2.6,0.8-2.9,2.4
	c-0.7,4.1,3.6,6.7,3.1,10.7c-0.1,0.4,0.7,1,1.1,1.5c0.3,0.4,0.7,0.7,1,1.1c0.7,0.7,1.4,1.4,2.1,2.1c3.1,3,3.6,3,6.6-0.3
	c0.4-0.5,0.8-0.9,1.2-1.5c1.5-3.2,3.7-6,4.8-9.5c0.7-2.2,2.2-4.2,2.1-6.6c-0.1-2.5,1.8-4.5,1.1-7.1c0-0.3,0-0.7,0-1
	c-1.7-0.1-0.8-2-2-2.6c-0.9-0.4-0.9,0-1,0.6c-1,1.5,1.8,2.2,0.7,3.8c-0.9-0.2-1.6-1.2-2.7-0.8C124.6,97.4,126.5,98.8,125,100.1z"/>
<path class="st13" d="M163,67.1c0.5,1.7,2.2,3,2,5c0.2,0.8-0.5,1.9,1,2c0.7,0,1-0.3,1-1c0.6-3.2-0.8-6.1-1.1-9.2
	c-0.1-0.8-0.9-1.6-1.9-1.8C164.5,63.9,162.8,65.3,163,67.1z"/>
<path class="st14" d="M151,58.1c0,0.8-0.1,1.5,0.6,2.2c0.6,0.5,1.4,0.8,1.4,1.8c1.1,0.1,1.7,1.5,3,1c0-0.8,0.1-1.5-0.6-2.2
	c-0.6-0.5-1.4-0.8-1.4-1.8c-1.1-0.2-1.8-0.9-2-2C151.3,57.1,151,57.4,151,58.1z"/>
<path class="st15" d="M170,45.1c-2.8-2.3-6.6-3.7-7.3-8.1c-1.2,1.1-2.7,1.9-0.9,3.6c1,0.9,2.6,1.7,2.1,3.6c2.2,0.5,2.5,2.9,4,4
	c0.4,0.2,0.8,0.4,1.1,0.6c0.9,0.6,1.6,0.7,1.9-0.6C170.9,47,169.5,46.4,170,45.1z"/>
<path class="st16" d="M175.7,59.9c-1.4-1.2-1.4-1.2-1.7-2.8c-1.7,0.2-1.7,0.2-1.5,1c0.4,1.9,1.4,3.6,0.7,5.8c-0.1,0.5,0,1.4,0.5,2.1
	c0.2,0.2,0.3,0.3,0.5,0.5c0.3,0.2,0.5,0.4,0.8,0.6c0-1.8-0.2-3.5,2.2-4.1c1.3-0.3,2-1.4,1.8-2.9c-0.6,0.1-1-0.3-1-0.8
	c0-1.7-1.2-1.2-2-1.2C175.9,58.7,176.3,59.4,175.7,59.9z"/>
<path class="st17" d="M183,25.1c-0.1,0.9,0.6,0.9,1.2,1c0.5,0.1,0.9,0.4,0.8,1c3,1,1.9,4.1,3,6c0.8-0.1,1.9,0.5,2-1.1
	c0.1-0.7,0.6-1.3,1-1.9c-2.4-1.6-4.4-3.6-6-6C184.2,24.2,183.1,23.6,183,25.1z"/>
<path class="st18" d="M184,43.1c-0.2,0.3-0.4,0.5-0.6,0.7c0,0,0,0,0,0.1C183.9,44.1,183.9,43.6,184,43.1z"/>
<path class="st18" d="M185,45.6c1.3,2.6,0.9,5.3,1,8c2,0.9,1.7,3.9,4,4.5c0-0.6,0-1.3,0-1.9c0.1-1.6,0.7-0.6,1.3-0.3
	c0.5,0.3,0.7-0.3,0.7-0.8c0-0.3,0-0.7,0-1c-0.3-0.1-0.8-0.2-0.8-0.3c0-3.4-3.3-5.6-3.2-8.9c0-0.9-0.4-2,0.5-2.7
	c1.3,0.6-0.6,2.8,1.5,3c-0.3-1.6,0.4-2.3,2-2c0.4-1.8-1.1-2.4-2-3.5c0.3-0.8,1.5-0.2,1.9-0.8c0-0.2,0-0.4,0.1-0.7
	c-1.1-1.5-3.5-1.8-4-4c-1.5-0.4-1.2-2-2-2.9c-0.2-0.3-0.2-0.9-0.7-1.1c-0.3-0.1-0.7,0-0.9,0.1c-0.4,0.2-0.5,0.4-0.2,0.7
	c2.4,2.2-0.7,1.9-1.3,2.7c2.7,1.4,3,1.4,2.9,2.6c0,1.5,0.5,2.7,1,4.1c0.2,0.4-0.3,0.7-0.9,0.9c-0.7,0.2-1.4,0.6-2.1,1
	c0,0.3,0,0.7,0,1C185,43.6,187,43.8,185,45.6z"/>
<path class="st19" d="M190,39.6c0.8,1.1,2.4,1.7,2,3.5c-0.5,1.3,0.9,1.9,1,3c1.6,0.1,0.8,1.4,1,2.2c0.5,1.4,1.4,1.6,3,0.8
	c-0.5-2-1-4.1-1.4-5.9c-1.2-0.5-1.5,0.7-2.3,0.7c-0.2-3.1-0.2-3.1,1.7-4.8c-1.1-0.1-1.7-1.5-3-1c0,0.3,0,0.5-0.1,0.7
	C191.5,39.3,190.3,38.8,190,39.6z"/>
<path class="st20" d="M184,68.1c-0.3-0.1-0.6-0.3-0.9-0.4C183.3,68,183.5,68.1,184,68.1z"/>
<path class="st20" d="M188.5,61.1c-1-2.7-3.1-4-5.5-5c0,0.3,0,0.7,0,1c0.5,1.3-0.9,1.9-1,3c0.1,1.1,1.5,1.7,1,3c0.9-0.1,1,0.5,1,1.2
	c0,1.3,0,2.5,0,3.8c0.8-0.2,1,0.7,1.6,0.9c1-0.7,0-1.9,0.9-3c0.5,1.1,1,2,1.5,3c1,1.8,2.4,0.8,4.2,1.1l0.1-0.1c-2-2.3-0.3-1.9,0.7-2
	c-1.4-1.8-2.2-3.9-3-6c-0.1,0-0.3,0-0.4,0C189,62,188.7,61.4,188.5,61.1z"/>
<path class="st21" d="M193.2,59.6c-0.8-1.4,0.9-3.4-1.2-4.5c0,0.5-0.1,1.1-0.7,0.8c-0.6-0.3-1.2-1.4-1.3,0.3c-0.1,0.6,0,1.3,0,1.9
	C190.4,60,190.4,60,193.2,59.6z"/>
<path class="st22" d="M134,82.1c-0.2-0.2-0.3-0.4-0.3-0.5c-2.5-4.2-2.3-5.2,1.3-8.5c0-0.3,0-0.7,0-1c-1.3-0.6-1.9-2-3.2-2.8
	c-2.5-1.6-3-4.7-3.7-7.3c-0.4-1.6-0.9-3.3-1.3-4.9c-0.9-3.8-3.7-5.7-7.9-6c-0.6-0.1-0.9,0.3-1,0.7c-0.1,1.3-0.9,1.9-2,2.3
	c-0.1,1.1,0.4,2.3-0.7,3.2c-1.8,1.5-2.1,3.7-2.7,5.9c-1.3-0.8,0.1-2.4-1.3-3.1c-1.4,2.1-2.4,4.4-2.3,7c0,1.5-0.5,3.3,0.1,4.4
	c0.8,1.4,1,2.1-0.1,3.3c-0.3,0.3-0.5,2,0.3,2.2c2.3,0.6,2,2.8,3.1,4.2c0.6-1,0.6-2.7,2.5-2c-1.1-1.9-1.7-3.9-0.5-5.9
	c0.6-1,0.6-1.9,0.5-2.8c-0.9-4.8,1.7-9,2.1-13.6c0.2-2,2.1-3.9,3.1-3.8c1.3,0.2,2.8,2.9,1.7,5c-1.9,3.7,0.1,5.9,2.4,7.7
	c4.4,3.4,3.9,8,3.6,12.5c-0.1,2.1-2.3,1.9-3.9,1.9c-1.3,0-2.7,0-4,0c-0.1,0.6,0.3,1,0.8,1c1.9,0.1,3.9,0,5.8,0c4.4,0,4.3,0,5.9,4
	c0,0.1,0.3,0,0.5,0C132.5,83.8,133.9,83.2,134,82.1z"/>
<path class="st23" d="M120,79.6c-0.4-0.9-1.9-0.9-1.6-2.5c0.4-1.6,1.6-2.1,2.8-2.7c1.6-0.8,3.6,0.9,3.8,2.6c0.2,1.3-0.9,2-1.1,3.1
	c1.6,0,3.8,0.2,3.9-1.9c0.3-4.5,0.8-9.1-3.6-12.5c-2.3-1.8-4.4-4-2.4-7.7c1.1-2.1-0.3-4.8-1.7-5c-1-0.1-2.9,1.7-3.1,3.8
	c-0.4,4.6-3,8.8-2.1,13.6c0.2,0.9,0.1,1.8-0.5,2.8c-1.1,1.9-0.6,4,0.5,5.9c-0.1,0.9,0.5,1,1.2,1c1.3,0,2.5,0,3.8,0
	C120,79.9,120.1,79.7,120,79.6z"/>
<path class="st24" d="M125.4,92.1c0.5,0.3,0.7,1.1,1.6,1c0.1-0.6,0-1,1-0.6c1.2,0.6,0.4,2.5,2,2.6c0-0.3,0-0.7,0-1
	c0.3-1.5-0.6-2.2-1.7-3c-1.8-1.3-4.3-1.6-5.3-4c-1.3,0-2.7,0-4,0c-1.7-0.1-3.4-0.2-4,2c0.8,0.2,1.9-0.5,2,1c0.5,0,1,0,1.5,0
	C122.2,90.1,122.2,90.1,125.4,92.1z"/>
<path class="st25" d="M133.7,81.6c0.1,0.2,0.2,0.4,0.3,0.5c0-0.3,0-0.7,0-1c0.5-1.1,1.3-2.1,1-3.6c-0.2-1.5,0-3,0-4.4
	C131.4,76.3,131.2,77.3,133.7,81.6z"/>
<path class="st26" d="M174.8,41.5c-1.1-0.6-2.4-1.9-3.8-0.4c0.2,0.8-0.5,1.9,1,2c2.2,0.8,2.5,2.9,3,4.8c0.1,0.5,0.1,1,0.6,1.2
	c0.1,0,0.3,0,0.4,0c1.3-0.7,2.7-1.3,4-2c0-1-0.8-1.3-1.4-1.8c-0.7-0.7-0.6-1.4-0.6-2.2C176.4,43.5,175.9,42.1,174.8,41.5z"/>
<path class="st27" d="M181.2,56.8c-1.9-1.3-3.2-3.4-5.2-4.7c-0.1,1.2-1,1.3-1.6,0.8c-0.9-0.7,0.6-0.8,0.5-1.4
	c-1.3-1-2.2-2.7-3.9-3.3c-0.2,1.4-1,1.2-1.9,0.6c-0.4-0.2-0.7-0.4-1.1-0.6c0.2,3.3,0.8,4,3.8,5c1.4,0.5,2.9,1,3.9,2.2
	c0.7,0.8,0.2,1.9,0.3,2.8c0.9,0.1,2.1-0.4,2,1.2c0,0.5,0.4,0.9,1,0.8c0.1-0.7-0.4-1.7,0.7-2c0.9-0.3,1.4,0.2,1.4,1.3
	c0,0.4,0.4,0.8,1,0.7c0.1-1.1,1.5-1.7,1-3C182.4,57,181.8,57.2,181.2,56.8z"/>
<path class="st28" d="M181,74.5c-0.3,1.8,0.9,1.7,2,1.6c0-1.3,0-2.5,0-4c1.6,0.7,2.2,1.6,2,3c0.9-0.3,1.9-0.6,1.5-2
	c-0.1-0.5,1-3.1,1.5-4c-0.5-1-1-2-1.5-3c-1,1,0.1,2.3-0.9,3c-0.6-0.2-0.8-1.1-1.6-0.9c-1,1.3-2,2.7-3,4
	C181,72.9,181.1,73.7,181,74.5z"/>
<path class="st28" d="M183.1,67.7c0.3,0.1,0.5,0.3,0.9,0.4c0-1.3,0-2.5,0-3.8c0-0.7-0.1-1.3-1-1.2c0,1.3,0,2.5,0,3.8
	C183,67.2,183,67.5,183.1,67.7z"/>
<path class="st29" d="M144,160.1c0.6-0.2,0.8,0.4,1.2,0.7c0.8,0.5,1.9,0.5,1.7-0.5c-0.6-2.7,2-1.9,3.8-3.2c-2.5,0-4.1,0-5.7,0
	C144.9,158.2,143.5,158.8,144,160.1z"/>
<path class="st30" d="M175.8,40.4c0.3,0.1,0.5,1.1,1,0.3c0.2-0.3,0.2-1,0-1.3c-0.9-1.3-2.1-1.8-3.8-1
	C173.7,39.8,174.8,40,175.8,40.4z"/>
<path class="st31" d="M130.9,103.2c0.7-2,0-4.5-0.1-6.8c0-0.1-0.5-0.2-0.8-0.3c0.8,2.5-1.2,4.6-1.1,7.1c0.1,2.3-1.4,4.4-2.1,6.6
	c-1.1,3.4-3.3,6.3-4.8,9.5c-0.3,0.6-0.7,1-1.2,1.5c-2.9,3.3-3.5,3.3-6.6,0.3c-0.7-0.7-1.4-1.4-2.1-2.1c-0.4-0.4-0.7-0.7-1-1.1
	c-0.4-0.5-1.2-1-1.1-1.5c0.5-4-3.8-6.6-3.1-10.7c0.3-1.6,1.6-3.1,2.9-2.4c2.9,1.6,5.5,0.7,8.2-0.1c0.3-0.1,0.7,0,1,0
	c2.1-0.8,4.2-1.6,6-3c1.5-1.3-0.4-2.7,0-4c-0.7,0-1.4-0.1-2.1,0.5c-0.7,0.8-0.9,0.1-0.9-0.5c-1.3-0.5-1.9,0.9-3,1
	c0.4,1.8-0.9,3.2-1.4,5c-2.5,0-5.1,0-7.6,0c-1,0-2-0.1-3,0c-1.1,0.1-2,1-1.9,1.8c0.1,2.7-0.7,5.4,0.9,8.1c1.4,2.5,3.3,4.9,3.6,8
	c0.1,0.7,0.3,1.9,1.3,2.4c1.9,1.1,2.5,3.3,3.8,5c1.2,1.5,2,3,3.9,3.8c1.6,0.7,1.8,3.5,4.3,3.6c1.5-2.8,4.7-2.7,7.1-4.2
	c0-1.1,0.3-2.3-0.3-3.5c-1.2-0.4-2.7,0.3-4.1-0.8c-0.9-0.8-2.5-0.8-2.5-2.4c0-1.8-0.7-4,1.9-4.8h0.1
	C127.9,114.2,129,108.6,130.9,103.2z"/>
<path class="st32" d="M151,64.1c-0.3,1.3,0.5,2.1,1.4,2.9c1.1-1.6,3.2,1.6,4.1-0.9c1.4,5,2.2,6.7,4.2,8.8c0.6-0.5,0.2-1.2,0.3-1.8
	c-1.3-1.5-1-3.3-1-5c-1.3-1-2.1-2.3-2-4c-0.7-0.3-1.3-0.7-2-1c-1.3,0.5-1.9-0.9-3-1c0,0.9,0,1.8,0,3c-1.2-0.2-0.8-1.5-1.4-1.9
	c-0.1,0-0.3,0-0.5,0H151C151,63.4,151.1,63.8,151,64.1z"/>
<path class="st33" d="M152,57.1c-1.2-0.9-2.4-1.9-3.7-2.8c-0.1,0.3-0.2,0.6-0.3,0.8c0.3,0.7,0.7,1.3,1,2c0.7,0.3,1.3,0.7,2,1
	C151,57.4,151.3,57.1,152,57.1z"/>
<path class="st20" d="M180,63.1c-0.1,0.6,0.3,1.4-0.3,1.8c-0.2,0.1-0.7-0.6-1-0.6c-1.2,0.2-0.4,1.2-0.7,1.8c0,1.1,0,2.3,0,3.4
	c0,0.2,0.4,0.3,0.6,0.4c0.9-0.7-0.2-2,0.7-2.7c2.5,0.9,1.5,3.1,1.7,4.8c1-1.3,2-2.7,3-4c-0.5,0-0.7-0.1-0.9-0.4
	c-0.1-0.2-0.1-0.5-0.1-0.8c0-1.3,0-2.5,0-3.8C181.5,62.2,181.5,62.2,180,63.1z"/>
<path class="st27" d="M177.2,63c-2.4,0.6-2.2,2.3-2.2,4.1c1.1-0.1,1.7-1.5,3-1c0.2-0.6-0.6-1.6,0.7-1.8c0.3,0,0.8,0.7,1,0.6
	c0.7-0.4,0.2-1.2,0.3-1.8c-0.4-1,0.9-2.5-1-3C179.3,61.6,178.5,62.7,177.2,63z"/>
<path class="st34" d="M166,74.1c0,0.3,0,0.7,0,1c1.3,1,2.1,2.3,2,4c0.7,0,1-0.3,1-1c0.2-1.8-1.5-3.2-1-5c-0.3,0-0.7,0-1,0
	C167,73.8,166.7,74.1,166,74.1z"/>
<path class="st27" d="M173.6,66c-0.5-0.8-0.6-1.7-0.5-2.1c0.7-2.2-0.3-3.9-0.7-5.8c-0.2-0.8-0.2-0.8,1.5-1c-0.1-0.1-0.1-0.1-0.2-0.2
	c-1.7-1.3-3.4-1.6-4.8-0.8c0,0.3,0.1,0.6,0.1,0.9c0,0.2,0.1,0.4,0.1,0.5c0.2,0.4,0.5,0.8,0.8,1.2c1.9,2.3,2,3.1,1.6,6.4
	c-0.4-0.3-0.7-0.6-1.4-1.2c-0.1,1.7-1,3.1,0.8,4.2c1.6,0.4,2.2,1.4,2,3c0.6,0.1,1.1-0.3,1-0.7c-0.4-1.4,0.6-2.2,1-3.3
	c-0.3-0.1-0.6-0.3-0.9-0.5C173.9,66.4,173.8,66.2,173.6,66z"/>
<path class="st35" d="M167.2,56.8c1.8,6,1.9,5.9,0.8,10.3c0.8-0.1,0.8,0.5,1,1.1c0.5,1.2,0.8,1.2,2-0.1c-1.8-1.1-0.9-2.6-0.8-4.2
	c0.6,0.6,1,0.9,1.4,1.2c0.4-3.3,0.3-4.1-1.6-6.4c-0.3-0.4-0.6-0.8-0.8-1.2c-0.1-0.2-0.1-0.4-0.2-0.6c0-0.3-0.1-0.5,0-0.8
	c-1.5-0.1-0.8-1.2-1-2C166.2,54.5,166.9,55.8,167.2,56.8z"/>
</svg>
