<?xml version="1.0" encoding="utf-8"?>
<!-- Generator: Adobe Illustrator 26.1.0, SVG Export Plug-In . SVG Version: 6.00 Build 0)  -->
<svg version="1.1" id="Layer_1" xmlns="http://www.w3.org/2000/svg" xmlns:xlink="http://www.w3.org/1999/xlink" x="0px" y="0px"
	 viewBox="0 0 269.4 255.9" style="enable-background:new 0 0 269.4 255.9;" xml:space="preserve">
<style type="text/css">
	.st0{fill:#3D3339;}
	.st1{fill:#44353B;}
	.st2{fill:#423438;}
	.st3{fill:#653D37;}
	.st4{fill:#643938;}
	.st5{fill:#6A3F38;}
	.st6{fill:#6A453F;}
	.st7{fill:#704A45;}
	.st8{fill:#232228;}
	.st9{fill:#2A2E35;}
	.st10{fill:#1B2028;}
	.st11{fill:#22222B;}
	.st12{fill:#29292E;}
	.st13{fill:#212127;}
	.st14{fill:#262129;}
	.st15{fill:#341615;}
	.st16{fill:#431D24;}
	.st17{fill:#361616;}
	.st18{fill:#1A0309;}
	.st19{fill:#C5C1C2;}
	.st20{fill:#160308;}
	.st21{fill:#1B040C;}
	.st22{fill:#CFCEC2;}
	.st23{fill:#491417;}
	.st24{fill:#F9F8F9;}
	.st25{fill:#542F35;}
	.st26{fill:#512F32;}
	.st27{fill:#29354B;}
	.st28{fill:#1E2940;}
	.st29{fill:#1E2637;}
	.st30{fill:#15263F;}
	.st31{fill:#192339;}
	.st32{fill:#364056;}
	.st33{fill:#2E364B;}
</style>
<path class="st0" d="M124.7,6.1c-1.1,0.3-0.6,1.3-0.7,2c0.7,0,1.3,0,2,0c-0.1-0.9,0.5-1,1.2-1c0.9,0,1.9,0,2.8,0
	c1.2-0.6,2.2-1.7,4.1-1.6c-0.8-0.4-1.6-0.9-2.2-1.2c0.5-1.6,1.4-1,2-1.2c0.1-0.9-0.6-0.9-1.2-1c-0.5-0.1-0.9-0.4-0.8-1
	c-1.7-0.1-3.4-0.2-4,2C127.3,4.5,126.4,5.7,124.7,6.1z"/>
<path class="st1" d="M101.7,41.9c2.2-1.8,3-4.9,5.6-6.4c-1-1.2-0.7-2.9-2.2-3.4c-1.6,2.4-3.6,4.4-6,6c0,0.3,0,0.7,0,1
	C98.4,41.4,100.6,41.1,101.7,41.9z"/>
<path class="st2" d="M162,9.6c-0.6,1.2,1.1,1.5,1,2.5c1.5,1.5,4,1.8,5,4c2.8-1.4,3.4-1.1,4.3,2.2c0.2,0.7,2.8,2.1,3.4,1.5
	c1.7-1.6,2.9-0.2,4.3,0.3c-0.2-1.6,1.7-0.5,2-1.5c-1.6-1.8-4-2.3-6-3.5c-2.2-0.2-2.8-0.8-3-3c-1.9,0.1-3.3-1.3-5-1.5
	c0,0,0-0.3,0-0.5c-0.7-0.3-1.3-0.7-2-1C165,11.6,163.3,9,162,9.6z"/>
<path class="st3" d="M184,116.1c0.2-1.2-0.1-2.4,0.9-3.6c0.4-0.5,1.2-1.4,1.1-2.4c-0.7,0-1-0.3-1-1c-1.4,0.9-2,2.1-2,3.8
	c0,0.7-0.1,1.3-1,1.2c0,1,0,2,0,3c1.2,0.9,2.6,1.1,4,1C186.3,116.4,183.7,117.8,184,116.1z"/>
<path class="st3" d="M185.3,104.1c-2.5-0.5-3.2,0-4.9,3.4c-0.2-2.5-1.8-4.2-1.4-6.4c-0.8-0.1-1.7,1.8-2.5,0c-0.8-1.7-1.7-3.2-3.5-4
	c0,0.3,0,0.7,0,1c1.8,3.2,3.9,6.2,5,9.7c0.1,0.4,0.2,0.9,0.5,1.3c1,1.4,1.9,1.4,3-0.1c0.4-0.5,0.4-1.2,0.7-1.6
	c0.6-0.7,1,1.4,1.7,0.2c0.3-0.4-0.3-1.3,0.7-1.3c0.1,0,0.2,0.5,0.3,0.8c0.7,0,1-0.3,1-1C185.9,105.4,186.5,104.3,185.3,104.1z"/>
<path class="st4" d="M137,174.1c-1.4-0.1-2.7,0.4-4,0.9c-1.3,0.4-2.8,0.2-4,1.1c-0.1,0.9,0.5,1,1.2,1c0.9,0,1.9,0,2.8,0
	c0.8,0,1.4-0.2,2.2-0.6c1.1-0.6,2.2-1.8,3.8-1.4C138.9,173.6,137.8,174.2,137,174.1z"/>
<path class="st5" d="M151,89.6c-1.3-0.9-2.1-2.7-4-3.5c0.1,0.6-0.3,1.3,0.3,1.9c0.3,0.2,1,0.6,0.2,1c-0.3,0.2-1.2,0.1-1.3-0.1
	c-0.4-1.1-0.7-2.3-2.2-2.4c0,0.1-0.1,0.3-0.1,0.4c-0.1,0.8,0.4,1.8-0.6,2.2c-1.2,0.4-2.2-0.8-2.2-1.4c0-1.4-0.6-2.4-1.2-3.5
	c-0.7,0.3-1.3,0.7-2,1c-0.3,0.7-0.7,1.3-1,2c0.3,0,0.8-0.1,1,0c2,1.8,4.4,2.9,6.7,4.2c0.2,0.1,0.2,0.5,0.4,0.8c1.7,2.3,1.7,2.3,4,1
	C149.1,91.7,151,91.5,151,89.6z"/>
<path class="st6" d="M155.1,53.5c0.2,0.8,1.1,0.5,1.7,0.6c0.7,0,1.6,0.5,1.2,1c-1.5,1.8,0,2.4,0.9,3.3c1.6,1.6,1.9,3.9,3.1,5.7
	c0.4,1-0.9,2.5,1,3c-0.2-1.8,1.5-3.2,1-5c-1.6-0.3-0.8-2.1-1.8-2.7c1.5-1.2-0.8-2-0.3-3.2c0.7-2-0.5-3.3-1.9-4.6
	c-0.7-0.6-1.4-1.4-2-2.1c-0.2-0.3-0.1-1.1,0.4-1.2c0.3-0.1,0.7,0.5,1.1,0.8c1.3-0.5-0.6-2.8,1.5-3c-0.2-1.1-0.9-1.8-2-2
	c0,1.1,0.1,2.8-1.6,1.7c-0.9-0.5-2.1-0.5-2.9-1.5c-0.3-0.4-1.7-0.4-2.2,0c-0.8,0.6-0.6,1.7-0.1,2.6c0.2,0.4,0.8,0.6,0.7,1.2
	c0.1,1.1,1.5,1.7,1,3c0.3,0.7,0.7,1.3,1,2c0,0.1,0,0.2,0,0.3C155,53.4,155,53.5,155.1,53.5z"/>
<path class="st6" d="M148.3,54.3c1.2,0.9,2.4,1.9,3.7,2.8c0.2,1.1,0.9,1.8,2,2c1.5-3.2,1.6-3.2-1.3-5c-1-0.6-0.6-1.3-0.7-2
	c-0.1-1.5-1.2-0.8-2-1c-0.1,0.6,0.3,1.4-0.3,1.8c-0.2,0.1-0.7-0.4-1-0.6c-0.8-0.6-2.4,0.7-2.6-1.1c-0.6,0.1-1.4-0.1-1.7,0.3
	c-0.6,0.7,0.6,0.7,0.7,1.3c0,0.1,0,0.3,0,0.5c1,0.7,2,1.3,3,2C148.1,54.8,148.2,54.5,148.3,54.3z"/>
<path class="st7" d="M155.4,87.9c0.3,0.3,0.7-0.3,0.6-0.8c-0.6-1.4-1.6-2.4-3-3c-0.3,0-0.7,0-1,0C152.6,85.8,154.2,86.7,155.4,87.9z
	"/>
<path class="st6" d="M155.4,60.9c0.7,0.7,0.6,1.4,0.6,2.2c0.7,0.3,1.3,0.7,2,1c-0.1-0.8,1-1.4,0.9-1.5c-1.6-1.2-2.3-3.8-4.9-3.5
	C154,60.1,154.8,60.4,155.4,60.9z"/>
<path class="st8" d="M115.1,7.5c0.9-0.7,2-0.8,2.7-0.1c1.3,1.3,2.9,0.3,4.2,0.7c0.3,0,0.7,0,1,0c0-1.9,0-3.8,0-6c1.1,0,2.1,0,3,0
	c-0.4-1.4-1.3-2.1-2.9-2c-0.6,0-1.2,0-1.8-0.1c-1.4,0-2.4,0-2.5,0c0,0,0,0,0,0l-1,0.3c-0.1,0-0.2,0.1-0.3,0.1l-5.1,1.8l-3.7,2.9
	c0.9,0.3,1.8,1.2,2.6,1.8C112.5,8.1,113.6,8.7,115.1,7.5z"/>
<path class="st9" d="M135,219.1c-0.7,0-1-0.3-1-1c-0.7,0-1,0.3-1,1c-0.2,2.2-0.8,2.8-3,3c-1,0.5-2.1,1-3.6,1.8
	c1.3,1.3,2,2.6,3.6,3.2c1.4,0.2,2.9-0.6,4.1,0.6c1.8,1.7,3.4,3.7,3.8,6.2c0.3,1.6,1.2,1.1,2.1,1.2c-0.2-2.1,0.3-3.9,1.3-5.9
	c1.5-3.2,3-6.4,2.7-10.1c-1.7,0-3.3,0-5,0C137.7,220.4,136.3,220.4,135,219.1z"/>
<path class="st10" d="M137.9,233.9c-0.4-2.5-2-4.4-3.8-6.2c-1.2-1.2-2.8-0.4-4.1-0.6c0,0.5-0.2,1.3,0,1.4c2.1,1.6,3,4.1,3.8,6.4
	c0.8,2.4,3.6,3.7,3.2,6.6c-0.1,0.4,0.6,0.7,1.2,0.6c0.5-0.1,1-0.4,0.8-1c-0.7-2.2,1-4,1-6C139.1,235,138.2,235.5,137.9,233.9z"/>
<path class="st11" d="M47,218.1c0-0.3,0-0.7,0-1c-2.3,0-4.7,0-7,0c-0.7,0-1,0.3-1,1c0.3,0,0.7,0,1,0C42.3,218.1,44.7,218.1,47,218.1
	z"/>
<path class="st12" d="M123,8.1c0.3,0,0.7,0,1,0c0.1-0.7-0.4-1.7,0.7-2c1.7-0.4,2.6-1.6,3.3-3c-0.7-0.3-1.3-0.7-2-1c-0.9,0-1.9,0-3,0
	C123,4.3,123,6.2,123,8.1z"/>
<path class="st12" d="M132.8,2.1c0.7,0.1,1.3,0.1,1.2,1c0.3,0,0.7,0,1,0c1.3,0,2.7,0,4,0c-0.1-0.8,0.5-2-1.2-2c-1.9,0-3.9,0-5.8,0
	C131.9,1.7,132.3,2,132.8,2.1z"/>
<path class="st12" d="M143.7,1.3c-0.8,1.5-3.1-0.2-3.7,1.8c1.3,0,2.7,0,4,0C143.9,2.5,144.3,1.8,143.7,1.3z"/>
<path class="st13" d="M176,15.1c0-0.7,0-1.3,0-2c-1.3,0.5-1.9-0.9-3-1C173.2,14.3,173.8,14.9,176,15.1z"/>
<path class="st14" d="M91.3,29.9c0.7,1,1.9,1,2.8,1.7c0.6,0.4,0.6,1.9,2.1,0.9c1.4-0.9,0.2,2.1,1.8,1.6c0.3-0.1,0.7,0,1,0
	c2.5,0.4,4-0.9,5-3c-0.3-1.6,0.4-2.3,2-2c-1.6-3.3-1.5-3.8,0.6-6.2c0.5-0.6,1.4-0.9,1.4-1.8c0-0.2,0-0.3,0-0.5
	c-0.1-0.1-0.3-0.4-0.3-0.3c-1.3,0.4-1.7,2.4-3.6,1.9c-0.4-0.1-0.9-0.1-0.9-0.7c0.5-0.7,1.5-1.1,1.7-2.1c-2.2-1-2.8-1.5-2.4-2.1
	c0.5-0.7,1.1-1.4,0.2-2c-0.6-0.4-1.7-0.5-2.3,0.1c-1.8,1.7-3.8,3.3-5.2,5.3c-0.8,1.1,1.6,2.4,0.9,4c-0.1,0.1,0,0.3,0,0.5
	c1.3-1.1,2.7-1.1,4,0c0.7-0.3,1.3-0.7,2-1c0-0.5,0.4-1.1,0.6-0.8c1.4,1.8,1.2,5.3-0.4,7c-0.8,0.8-1.3,2.5-3,1.6
	c0-1.2,1.6-1.4,1.7-2.5c0.1-0.7,0-1.3-1-1.2c-0.7,0-1,0.3-1,1c0.2,0.6-0.4,0.8-0.7,1.2c-0.5,0.6-1.2,1.3-2,0.6c-1.1-1,0-1.6,0.6-2.3
	c-0.7-0.7-1.3-0.5-2.1,0c-1,0.7-2.2,1.3-2.9-0.5c-0.3,0-0.7,0-1,0C91.1,28.7,90.9,29.3,91.3,29.9z"/>
<path class="st11" d="M53,220.1c-1.7,0-3.3,0-5,0c-0.5,0-1.2,0.2-1.4,0c-1.6-1.8-3.1-0.9-4.6,0c-0.7,0.1-1.8-0.5-2,0.8
	c-0.2,1.2,0.6,1.2,1.5,1.2c5.1,0,10.3,0,15.4,0c0-0.3,0-0.7,0-1c-0.9,0-1.9,0-2.8,0C53.5,221.1,52.9,221,53,220.1z"/>
<path class="st15" d="M173.2,88.4c-0.4,0.6-0.2,1.6,0.4,1.6c1.6,0,1.4,0.9,1.5,1.9c0.1,1.2-0.5,2.7,0.9,3.6
	c-0.6,2.7,3.1,3.2,3.1,5.6c-0.4,2.2,1.2,3.9,1.4,6.4c1.7-3.4,2.4-3.8,4.9-3.4c1.2,0.2,0.6,1.3,0.7,2c2-1.2,0.4-3.1,1.1-4.6
	c-3.2-1-5.6-2.5-6.1-5.8c0.2-1.1,2.2,0,2-1.6c-2-0.5-2.9-2.8-2.5-3.7c0.7-1.5,0.2-2-0.6-2.9c-0.3-0.3-1.3-0.5-0.5-1.4
	c1.4-1.6-0.2-2.1-1-3c-1.5,2.7-2.4,6.2-2.4,5c-0.3,0-0.7,0-1,0C174.4,88.2,173.6,87.7,173.2,88.4z"/>
<path class="st16" d="M141,156.1C141,156.1,141,156.1,141,156.1c-1.6,0-3.2,0-4.8,0c0.1,1.5,1.5,1.7,1.8,2.8
	c0.3,1.2-0.7,2.1-0.8,3.2c1.2,0,2,0,2.8,0c1-1.3,2.3-2.1,4-2c-0.5-1.3,0.9-1.9,1-3c-0.7,0-1.3,0-2,0
	C142.2,156.9,141.1,157.6,141,156.1z"/>
<path class="st17" d="M165,72.1c-0.5,0-1.1,0.2-1.4,0c-1.9-1.8-1.6-0.1-1.6,1c0.1,1.3-0.4,2.6,1,3.5c-1,0.5-1.9,1.2-2.9,1.4
	c-1.5,0.4-1.4,1.1-0.6,2c1,1.1-0.3,1.4-0.7,1.7c-0.7,0.6-0.9-0.5-1.3-0.8c-0.8-0.6-0.1-1.6-0.4-2.3c-0.5-1.1,1.5-1.7,0.6-2.4
	c-1.6-1.2-1.3-3.8-3.6-4.2c-2.2-0.2-2.8-0.8-3-3c-1.9,1.5-1,3.3-0.5,5c0.1,0.4,0.3,0.9,0.5,1.3c0.6,1.1,1.2,4.7,1,5.7
	c0.1,1.1,1.5,1.7,1,3c1.4,0.6,2.4,1.6,3,3c2-0.2,0.2-2.3,1.4-2.9c0.4,1.3,2.5,0.2,2.6,1.9c3.4,0.7,3.5,1.1,1,4c-0.7,0-1.3,0-2,0
	c0,0.3,0,0.7,0,1c1-0.1,1.6,1.8,2.5,0.9c1.1-1.1,1.5-0.5,2.2,0.3c0.6,0.6,1.2,1.3,2,0.6c0.7-0.6,1.4-1.2,1.4-2.4
	c0-1.1-1.2-1.5-1.1-2.6c0.1-1.3,2.4-0.2,2.1-2.1c-0.1-0.7,1.5-1.4,0-2.2c0-3-2.5-5.5-2.1-8.6c0-0.3,0-0.7,0-1
	C164.5,74,165.2,72.9,165,72.1z M166,84.6c-1,0.8-2,0.8-3.3-0.2c1.5-1.4,1.3-3.3,1.3-5.9c1.3,1.5,1,2.6,1,3.5
	C165,83.1,165.1,84,166,84.6z"/>
<path class="st18" d="M161.4,197.7c-1.8-0.8-3-3-4.4-4.7c-0.8,1-2.7,0.3-3,2c-0.6,1.3-1.5,2.3-2.8,2.9c-0.1,0.1-0.1,0.1-0.2,0.1
	c-0.2,0.4-0.4,0.8-0.6,1.1c-0.6,0.9,0.1,0.8,0.6,0.9c1.8,0.4,1.1,1.8,0.8,2.6c-0.5,1-1.4,1.9-2.4,2.3c-0.7,0.3-1.9,0.5-2.6-0.6
	c-0.3-0.4-0.5-0.4-0.7,0c-0.1,0.3-0.1,0.6-0.2,0.9c-0.1,0.5-0.4,0.9-1,0.7c0.2,1.1,0.9,1.8,2,2c0-0.4-0.1-0.8,0-1.2
	c0-0.1,0-0.2,0.1-0.3c0.1-0.3,0.3-0.3,0.5-0.3c0.1,0.1,0.3,0.2,0.5,0.2c2.7,0.8,2.5,0.6,4-1.6c0.9-1.2,0.6-2.6,1.3-3.8
	c0,0,0-0.1,0.1-0.1c0,0,0,0,0,0c0.7,0.7,1.4,1.3,2,1.9c0.9-1.2,2.5-1.2,3.5-2.4c0.7-0.9,2.2-1.4,2.9,0.4c0.3,0,0.7,0,1,0
	C162.8,199.8,163.5,198.6,161.4,197.7z"/>
<path class="st19" d="M49.8,232.1c-1.6,0-3.2,0-4.8,0c-0.5,1.9-2,0.6-3,1c0,0.2,0,0.5,0,0.5c3,0.8,6.1,1.1,9-0.5
	C51.1,232.2,50.5,232.1,49.8,232.1z"/>
<path class="st20" d="M97,102.1c0,0.1,0,0.3,0,0.4C97,102.4,97,102.3,97,102.1z"/>
<path class="st20" d="M94,107.4c-0.4-1.9,0.6-3.4,1.2-4.9c0.3-0.7,1.2-0.2,1.8-0.3c0-0.7,0-1.3,0-2c0.8-3.3-1.7-5.6-2.9-8.3
	c-0.9-2.2-1.7-5.2-1.2-8.2c0.1-0.7-0.1-1.2-0.6-1.7c-0.8-0.8-0.2-1.9-0.4-2.8c0-1-0.8-1.3-1.4-1.8c-0.7-0.7-0.6-1.4-0.6-2.2
	c-0.3,0-0.7,0-1,0c0,0.7,0.3,1.5,0,2c-2.4,3.8-0.2,7.5,0.7,10.9c0.7,2.5,1.3,4.8,1.3,7.4c0,1.8-0.5,4,0.4,5.3
	c1.8,2.7,1.6,5.5,1.6,8.4c0.3-0.1,0.6-0.1,0.8-0.2C94.2,108.5,94.1,107.8,94,107.4z"/>
<path class="st21" d="M134.7,142.1c0.4-0.9,0.7-1.5,0.8-2c0.4-1.7,1.5-3.5-0.5-5c-0.7,0-1,0.3-1,1c-0.6,2.2-2.3,2.1-4,2
	c0.1,0.6-0.3,1.1-0.7,1c-1.4-0.4-2.2,0.6-3.3,1c0.1,0.9-0.4,2.1,1.2,2c0.5,0,0.9,0.4,0.8,1C130.2,142.3,132.5,141.8,134.7,142.1z"/>
<path class="st22" d="M122.9,96.6c0.6-0.7,1.4-0.5,2.1-0.5c0.2-1.6-0.4-2.6-2-3c0.5,1.3-0.9,1.9-1,3
	C122.1,96.7,122.2,97.4,122.9,96.6z"/>
<path class="st23" d="M146.2,123c1.2-0.1,0.6-1.2,0.8-1.9c-1,0.4-2.5-0.9-3,1C144.2,123.7,145.5,123.1,146.2,123z"/>
<path class="st24" d="M140.5,190.1c1.7,0.3,2-1.9,3.5-2c2.9-1.2,5.3-3.4,8-5c-0.7-2.1-2.8-1.2-3.6-0.9c-3.4,1.5-6.9,0.6-10.4,0.9
	c0,2.3,0,4.7,0,7C138.8,190,139.7,191.9,140.5,190.1z"/>
<path class="st25" d="M173,187.1c0-0.3,0-0.7,0-1c-1.5-1.4-2.8-0.3-3.9,0.5c-3.1,2-6.5,3.4-10.1,4.5c0,0.3,0,0.7,0,1
	c1.2,1.5,2.2,3.2,4.3,3.8c1,0.3,0.7,1.4,0.7,2.2c1.4-0.4,2.1-1.3,2-2.8c-0.1-1.7,0.4-3.3,2-4.2C170.1,190.3,170.9,187.9,173,187.1z"
	/>
<path class="st26" d="M159,182.7c1.9,1.7,3.5,2.1,5.6,0.5c0.5-0.4,1.6-0.1,2.4-0.1c1,0,2,0,3,0c1-1.8,1-1.9-1-2c-3.9-1.5-8-0.9-12-1
	c-0.2,1.7-1.5,1-2.2,0.9c-1.7-0.1-1.9,0.7-1.8,2.1c0.7,0,1.3,0,2,0C156.2,181.5,157.8,181.6,159,182.7z"/>
<path class="st27" d="M238.6,179.3c-0.8-1.2-2.1-2.1-3.1-3.2c-0.5,0-1-0.1-1.5,0c-4.5,0.6-7.9-1.2-11.1-4.4
	c-2.3-2.3-5.5-3.9-8.8-4.6c0,0,0,0,0,0c1.5,2.1,3.3,3.6,5.4,5.2c1.6,1.2,3.2,2.8,4.7,4.3c1.4,1.6,3.7,2,4.9,3.9
	c0.2,0.3,0.8,0.5,1.2,0.5c3.4,0,6.6,1.7,10.1,1c0.4-0.1,0.9,0.1,1.6,0.1c0.2,2.4-0.4,4.1-2.7,5.2c-1.8,0.9-2.6,3.2-4.9,3.9
	c-0.9,0.3-1.4,1-2.5,0.1c-2-1.7-4.5-1.5-6.9-1.4c3,3.2,4.4,7.5,7,11c0.2,0.2,0,0.6,0,1c0,0.7,0.3,1,1,1c0.9-1.8,2.5-3.1,3.1-5.2
	c0.5-1.9,3-2.6,3.3-5.1c0.9,1.3,0.5,2.3,0.6,3.3c0.6,0.1,0.9-0.3,1-0.7c0.1-1.4,0.4-2.6,0.9-4c0.7-2.3,1.8-4.7,1.2-7.3
	c0-1.2,0-2.3,0-3.5C241.8,179.2,239.8,181,238.6,179.3z"/>
<path class="st28" d="M238.5,174.2c-1.4-0.1-2.3-0.6-3.4-1.4c-3.3-2.4-9.8-5.2-14.9-5.8c-1.5-0.2-3.5-0.3-4.6-1.9
	c-1-1.4-2.3-0.9-3.6-1c-0.7,0-1,0.3-1,1c0.3,1.7,2.2,1,3,2c0,0,0.1,0,0.1,0c3.4,0.8,6.5,2.3,8.8,4.6c3.2,3.2,6.6,5,11.1,4.4
	c0.5-0.1,1,0,1.5,0c1,1.1,2.3,2,3.1,3.2c1.2,1.7,3.2,0,4.4,1.3c0,1.2,0,2.3,0,3.5c1.3-1,2.1-2.3,2-4
	C244.3,177.5,241.1,174.4,238.5,174.2z"/>
<path class="st29" d="M39,231.1c0-1.3,0-2.6,0-3.8c0-1.6,1.2-1.1,2-1.2c0-0.3,0-0.7,0-1c-1,0.1-1-0.6-1-1.3c0-0.2,0.5-0.7,0.5-0.6
	c3.4,2,7.1,0.5,10.6,0.9c2.2,0.2,4.2-0.4,5.9-2c-5.1,0-10.3,0-15.4,0c-0.9,0-1.7,0-1.5-1.2c0.2-1.3,1.3-0.6,2-0.8
	c0.1-0.9-0.6-0.9-1.2-1c-0.5-0.1-0.9-0.4-0.8-1c-0.3,0-0.7,0-1,0c0.1,3.1-0.9,6.1-1.6,9.1c-0.6,2.5-0.6,4,0.6,5.9
	C38.2,232.3,37.5,231.2,39,231.1z"/>
<path class="st30" d="M43,227.1c3.7-1.4,7.7-0.9,11.5-1c0.7,0,1.8,0.6,2.6-1c-5.6,0-10.8,0-16.1,0c0,0.3,0,0.7,0,1
	C41.1,227.6,42.2,226.9,43,227.1z"/>
<path class="st29" d="M40.2,232.1c1.3,0,2.5,0,3.8,0c-0.1-1.5-1.2-0.8-2-1c-1,0-2,0-3,0C38.9,232,39.5,232.1,40.2,232.1z"/>
<path class="st31" d="M212,164.1c-1.7-1.3-3.3-2.7-5-4c-0.7,0-1.3,0-2,0c1.4,2.4,4.1,3.2,6,5C211,164.4,211.3,164.1,212,164.1z"/>
<path class="st32" d="M188,161.1c0.2,0,0.3-0.1,0.4-0.2c1.5-0.8,0-2.5,0.8-3.6c1-0.5,1.9-0.1,3,0.3c4.2,1.7,7.3,4.8,10.8,7.4
	c4,2.1,5.1,6.7,8,9.7c-0.5,2,1,3.2,2.3,3.9c2.4,1.4,4.5,2.6,4.9,5.9c0.1,1.1,1.8,2.1,2.7,3.2c0,0-0.2,0.3-0.3,0.3
	c-0.1,0.1-0.3,0-0.5,0c0.2,1.1,0.9,1.8,2,2c0.1-0.6,0.2-1.3,0.9-0.5c0.6,0.7,1.4,0.5,2.1,0.5c2.4-0.1,4.9-0.3,6.9,1.4
	c1,0.9,1.5,0.2,2.5-0.1c2.2-0.7,3.1-3,4.9-3.9c2.3-1.2,3-2.8,2.7-5.2c-0.7-0.1-1.2-0.2-1.6-0.1c-3.5,0.6-6.7-1.1-10.1-1
	c-0.4,0-1-0.2-1.2-0.5c-1.2-1.8-3.5-2.3-4.9-3.9c-1.4-1.6-3.1-3.2-4.7-4.3c-2.1-1.5-3.9-3.1-5.4-5.2c0,0,0,0-0.1-0.1
	c-0.8-1-2.7-0.3-3-2c-1.9-1.8-4.6-2.6-6-5c-0.1-0.1-0.2-0.1-0.3-0.2c-2.3-1.4-4.6-2.9-6.4-5c-0.4-0.5-0.9-0.7-1.6-0.8
	c-3.1-0.5-6.1-1.6-9.7-0.7c0,1.5,0,3.1,0,4.7C187.1,159.2,188.5,159.8,188,161.1z"/>
<path class="st33" d="M203,166.6c2.9,2.4,3.1,6.6,5.9,9.1c0.4,0.3,0.1,1.5,0.1,2.3c0,0,0,0.1,0,0.1c0,0.7-0.3,1-1,1
	c1.6,2.8,5.1,3.5,7,6c1.7,1,3.3,2,5,3c0.2,0,0.3,0,0.5,0c0.1-0.1,0.3-0.3,0.3-0.3c-0.9-1.1-2.5-2-2.7-3.2c-0.4-3.2-2.5-4.4-4.9-5.9
	c-1.3-0.8-2.8-1.9-2.3-3.9c-2.9-3-4-7.6-8-9.7C203,165.6,202.8,166.3,203,166.6z"/>
</svg>
