<?xml version="1.0" encoding="utf-8"?>
<!-- Generator: Adobe Illustrator 26.1.0, SVG Export Plug-In . SVG Version: 6.00 Build 0)  -->
<svg version="1.1" id="Layer_1" xmlns="http://www.w3.org/2000/svg" xmlns:xlink="http://www.w3.org/1999/xlink" x="0px" y="0px"
	 viewBox="0 0 269.4 255.9" style="enable-background:new 0 0 269.4 255.9;" xml:space="preserve">
<style type="text/css">
	.st0{fill:#02020B;}
	.st1{fill:#000009;}
	.st2{fill:#0F0F17;}
	.st3{fill:#06050E;}
	.st4{fill:#090912;}
	.st5{fill:#16161D;}
	.st6{fill:#1B1B22;}
	.st7{fill:#0A1021;}
	.st8{fill:#040816;}
	.st9{fill:#090B19;}
	.st10{fill:#0C0D19;}
	.st11{fill:#12040C;}
	.st12{fill:#10050A;}
	.st13{fill:#080A17;}
	.st14{fill:#050A18;}
	.st15{fill:#0C0A10;}
	.st16{fill:#C4756F;}
	.st17{fill:#0D0D16;}
	.st18{fill:#F5AFA6;}
	.st19{fill:#13090D;}
	.st20{fill:#070915;}
	.st21{fill:#B99189;}
	.st22{fill:#120D13;}
</style>
<path class="st0" d="M75.9,50c0.6,1.7,1.7,2.2,3.3,2.1c0.2,0,0.3,0,0.5,0c1.8-0.5,3.1,1.9,5,0.8c1.4-0.9,3-1.6,4.4-2.5
	c0.5-0.3,1-0.4,1.3-0.2c0.6,0.4,0.5,1,0.3,1.7c-1.4,4.4-3.8,8.4-4.9,12.9c-1.8,1-0.6,3-1.3,4.5c-1.5,3.4-0.7,4.4,3.1,4.9
	c0.7,0.1,1.4,0,1.3,1c0.3,0,0.7,0,1,0c0-1.3,0-2.7,0-4c0-1.1-2.1-1.9-0.3-3.3c0.4-0.3,0.3-1.5,0.3-2.3c0-2.7,0.6-5.2,1.7-7.8
	c1.3-3.2,2.6-6.8,2.3-10.5c0.1-0.9-0.4-2,1.2-2c1.2-0.1,0.6-1.2,0.8-2c-0.4-1.8-1.9-1.2-2.7-0.7c-2.3,1.6-5.3,2.1-7.3,4.1
	c-0.5,0.5-1.4,0.6-2,1.1c-1.3,1-2.4,0.7-3.4-0.4c-0.8-0.8-1.6-1.7-2.5-2.5c-1.1-1-2.3-1.1-3.4,0.1c-0.4,0.5-0.8,0.9-1.2,1.3
	l-0.6,0.9c0.2-0.2,0,0.1-0.1,0.1c-0.2,0.8-0.3,3.5-0.3,3.5c0.2-0.3,0.3-0.7,0.5-1C73.5,48.7,75.5,48.8,75.9,50z"/>
<path class="st0" d="M77,99.1c0.1-0.2,0.1-0.4,0.1-0.6c0,0-0.1,0.1-0.1,0.1C76.9,98.6,77,98.9,77,99.1z"/>
<path class="st0" d="M83,116.1c-0.1-0.6,0.2-1.2-0.3-1.9c-2.5-3.3-4.7-6.6-4.8-11c0-1.3-1.1-2.6-0.9-4.1c-1.3-2.2-2.8-6.9-1.9-8.1
	c1.2-1.6,0.4-3.4,1.2-4.9c1.5,0.6-0.4,2.9,1.7,3.1c0-0.7,0-1.3,0-2c0-0.9,0.2-1.6-1.2-2.1c-0.8-0.3-1.5-0.8-2.1-1.4l0.1,0.6
	l-3.4,5.4l2,8.1l3.5,12.4l6.9,7.6c0-0.1,0.1-0.2,0.1-0.3C84,116.8,84.1,116.1,83,116.1z"/>
<path class="st1" d="M2.8,173.5c1.4,1.6,3,2.9,4.2,4.7c2.6,3.7,4.5,7.8,6.3,11.9c1.2,2.8,3.5,5.4,2.7,8.9c-0.7,2.7,0.7,4.7,2.7,6.4
	c1.1,0.9,1.9,2.1,2.6,3.4c2.4,4.3,6,7.7,10.3,10.2c0.6-0.8,1.3-1.1,1.4-2.1c0.2-2.5-0.9-4.6-1.6-6.8c-0.8-2.5-1.6-5.1-2.4-7.6
	c0,0,0,0,0-0.1c0,0,0,0,0.1,0c1.6,1.3,3.2,2.2,4.1,4.1c1.6,3.9,3.9,7.5,6.9,10.6c2.3,0,4.7,0,7,0c-0.7-2.1-2.6-0.4-3.9-1.4
	c-0.5-6,1-11.8,2.9-17.6c0.1-0.3,0-0.7,0-1c-0.1-4.1,0.5-8,2-11.8c0.4-1-0.9-2.6,1-3.2c0-1.3,0-2.5,0-3.8c0-0.7,0.1-1.3,1-1.2
	c0-1.3,0-2.6,0-4c0-1.1,1.5-1.8,1-3c-0.2-1.8,1-3.2,1.1-5c0.2-2.1,2.5-2.7,4.3-2.9c2.2-0.2,3.7-1.4,5.5-2.4c3.1-1.6,3.9-5.3,7-6.7
	c0.2,0,0.4,0,0.6,0.1c0.4-0.5,0.8-1,1.2-1.5c0.6-2.5-0.6-3.3-3.9-2.5c-7.4,1.6-14.8,2.6-22.4,3.1c-5.6,0.4-12,1-16.4,5.8
	c-2.4,0.9-4.8,2-7.3,2.8c-0.8,0.2-1.7-1.7-2.7-0.2c-1,1.5-2.4,1.5-3.9,1.4c-0.8,0-1.6-0.2-2.2,0.7c-1.2,1.6-3.3,1.7-4.9,2.9l-7,1.5
	c0,2,0,4,0,6C0.9,173.3,2.1,172.6,2.8,173.5z"/>
<path class="st2" d="M86,33.2c0,0.5,0.1,1.3-0.1,1.4c-1,0.6-0.7,1.9-2.2,3c0,0.1,1.9,1,3.6,1c0.6,0,1.1-0.1,1.5-0.5
	c0.4-0.3,1.3,0,1.2,1c0,0.7,0,1.3,0,2c2.1-1.8,3.8-4.3,7-4.5c0,0,0-0.3,0-0.5c-1.6,0.2-0.5-1.7-1.9-2c-0.4,0.5-1,1.3-1.6,2.1
	c-0.7-2.8-0.7-2.8-2.8-5c-0.1,0-0.3,0-0.3,0c-0.6,0.6-1.2,1.1-2.1,2.1c0.1-2.5,0.6-4.4,2.8-5.3c0.4-1-0.9-2.5,1-3c0-0.3,0-0.7,0-1
	c-1.3-0.7-2.6-1.6-3.8-2.5c-0.4,0.4-6.3,7.5-6.3,7.5l-0.8,2.2c0.5-0.2,1-0.3,1.5-0.4C85,30.4,86.2,31.1,86,33.2z"/>
<path class="st2" d="M92.6,23.7c-0.2,0.1-0.4,0.3-0.6,0.4c0.2-0.1,0.5-0.1,0.6-0.2C92.6,23.8,92.6,23.8,92.6,23.7z"/>
<path class="st2" d="M92,25.1c0,0.3,0.1,0.6,0.2,0.7C92.1,25.6,92,25.4,92,25.1z"/>
<path class="st3" d="M78.1,44.8c0.9,0.8,1.7,1.6,2.5,2.5c1,1.1,2.1,1.4,3.4,0.4c0.6-0.5,1.5-0.6,2-1.1c2-2.1,5-2.5,7.3-4.1
	c0.7-0.5,2.2-1.1,2.7,0.7c1.6-0.5,1.3-2.2,2-3.3c0.3-0.4,0.4-0.9,1-0.7c0-0.3,0-0.7,0-1c-0.2-1.1-0.9-1.8-2-2c0,0.2,0,0.5,0,0.5
	c-3.2,0.2-4.9,2.7-7,4.5c-1.4,0.3-1.9,1.7-3,2.5c-1.2,0.9-2.5,0.9-3.4-0.4c-0.8-1.2-1.5-2.4-2.5-3.5c-0.9-1-1.6-1.6-2.5-1.6
	l-0.6,1.7l-4.6,6.4c0.4-0.5,0.8-0.9,1.2-1.3C75.8,43.6,77,43.8,78.1,44.8z"/>
<path class="st3" d="M72.9,47.1c-0.1,0.2-0.1,0.2-0.1,0.1C72.9,47.2,73.1,46.9,72.9,47.1z"/>
<path class="st4" d="M81.2,39.7c0.9,1.1,1.7,2.3,2.5,3.5c0.8,1.3,2.1,1.3,3.4,0.4c1.1-0.7,1.5-2.2,3-2.5c0-0.7,0-1.3,0-2
	c0.1-1-0.8-1.3-1.2-1c-0.4,0.3-0.9,0.4-1.5,0.5c-1.7,0.1-3.7-0.9-3.6-1c1.6-1,1.2-2.4,2.2-3c0.2-0.1,0.1-0.9,0.1-1.4
	c0.2-2.1-1-2.8-3.4-2.3c-0.5,0.1-1,0.3-1.5,0.4l-2.4,6.7C79.6,38.1,80.3,38.7,81.2,39.7z"/>
<path class="st5" d="M92.6,23.7c0.1-0.1,0.2-0.1,0.3-0.2c0.2-2.1,0.6-4,1.9-5.8c0.5-0.6,1-2.2-0.7-2.6c-2.5,2.8-5.8,6.5-5.9,6.5
	c0,0,0,0,0,0c1.3,0.9,2.5,1.7,3.8,2.5C92.2,24,92.4,23.8,92.6,23.7z"/>
<path class="st6" d="M94.8,17.7c-1.3,1.8-1.8,3.7-1.9,5.8c0,0.1,0,0.2,0,0.3c0,0-0.1,0.1-0.2,0.1C92.5,24,92.2,24,92,24.1
	c0,0.3,0,0.7,0,1c0,0.3,0.1,0.5,0.2,0.7c0.1,0.2,0.4,0.2,0.9-0.2c0.8-0.7,1.7-1,2,0.5c0.7,0,1-0.3,1-1c0-0.2-0.1-0.4,0-0.5
	c0.8-1.6-1.7-2.8-0.9-4c1.4-2,3.4-3.6,5.2-5.3c0.6-0.6,1.7-0.5,2.3-0.1c0.9,0.6,0.3,1.3-0.2,2c-0.4,0.6,0.3,1.1,2.4,2.1
	c-0.2,1-1.2,1.4-1.7,2.1c0.1,0.6,0.5,0.5,0.9,0.7c1.8,0.5,2.3-1.5,3.6-1.9c0.1,0,0.3,0.2,0.3,0.3c0.1,0.1,0,0.3,0,0.5
	c1.6-0.6,2.4-2.1,3.6-3.1c2.7-2.3,5.3-2.6,8-0.6c1.4,1.1,2.8,1.9,4.3,2.7c0.5-2.7,0.8-3.1-1.2-4.5c-1.6-1.1,1.4-2.5-0.7-2.9
	c0.4-2,0.3-3.8-0.1-4.6c-1.4-0.3-2.9,0.6-4.2-0.7c-0.7-0.7-1.8-0.6-2.7,0.1c-1.5,1.2-2.6,0.6-3.8-0.5c-0.7-0.6-1.6-1.5-2.6-1.8
	l-4,3.1l-8,3.8c0,0-1.2,1.3-2.7,3C95.8,15.5,95.2,17.1,94.8,17.7z"/>
<path class="st7" d="M250.7,182.3c0.5,1.1,0.6,2.1-0.4,3c-1.8,1.6-1.9,3.8-2.4,5.9c-0.6,2.5-0.8,5-0.9,7.5c-0.1,1.7,1.1,1.2,2,1.3
	c3.5,0.2,6.8-1.7,10.3-1c1.4-1.6,3.3-0.8,4.9-1c0.5-0.1,0.9-0.4,0.8-1c-0.2-0.3-0.5-0.7-0.7-1c-0.9-1.4-1.8-2.7-1.4-4.7
	c0.2-0.7,0-1.5-0.3-2.3c-0.9-2.3-1.9-4.7-2.4-6.9c-0.5-2.7-2.1-4.5-3.3-6.7c-0.9-1.6-2.4-1.4-3.9-1.4c-0.6-0.6-1.3-0.7-2-0.4
	c0,0.1,0,0.3,0,0.4C249.7,176.8,249.4,179.5,250.7,182.3z"/>
<path class="st8" d="M207,160.1c1.7,1.3,3.3,2.7,5,4c1.3,0.1,2.6-0.4,3.6,1c1.1,1.5,3.1,1.7,4.6,1.9c5.1,0.6,11.6,3.4,14.9,5.8
	c1.1,0.8,2,1.3,3.4,1.4c2.7,0.2,5.8,3.3,6.5,5.9c1.9-1,1.5-3.7,3.6-4.8c0.1-0.1,0.2-0.1,0.3-0.2c0,0.1,0,0.2,0,0.3
	c0.2,2.2-1,4-1.6,5.9c-0.5,1.4-0.8,2.9-1.2,4.4c1.7,1.1,0.3,2.1,0,3.2c-0.5,1.8-2.5,3.1-2,5.1c0.7,2.5-2,3.6-2.1,5.6
	c0,0.5-0.2,1,0.6,1.5c1.7,0,3.6,0,5.6,0c0.5,0,0.9-0.4,0.8-1c-0.9-0.1-2.1,0.4-2-1.3c0.1-2.5,0.2-5,0.9-7.5c0.5-2.2,0.7-4.3,2.4-5.9
	c1-0.9,0.9-1.9,0.4-3c-1.3-2.8-1-5.5,0.3-8.2c0-0.1,0-0.3,0-0.4c-0.2-3.9-2.4-5.7-6.2-6.4c-10.1-1.9-20.1-4-29.6-8.1
	c-3.6-1.6-7.4-2-11.1-2.4c-0.3,1.5,0.1,2.4,0.7,3.1c0.1,0.1,0.2,0.1,0.3,0.2C205.7,160.1,206.3,160.1,207,160.1z"/>
<path class="st9" d="M174,203.1c-0.6-0.2-1,0.3-1.2,0.7c-1.2,2.8-3.6,4.5-5.8,6.3c-0.3,0.7-0.7,1.3-1,2c2.5,0.2-0.7,1.3,0.8,2
	c1.1,0,3,0.5,4.3-0.1c1.9-0.9,3.7-0.6,5.6-0.9c3.5-0.6,7.2-0.9,9.3-4.6c-1.3-0.5-2.8-0.3-3.9-1.3c-2.2-1.3-4.8-2-6.6-4
	C175.2,202.9,174.5,203.1,174,203.1z"/>
<path class="st10" d="M232,201.1c-2.6-3.5-3.9-7.8-7-11c-0.7,0-1.4,0.1-2.1-0.5c-0.7-0.8-0.9-0.1-0.9,0.5c0.2,1.2,1.3,1.8,2.1,2.6
	c1.5,1.4,0.7,3.1,0.9,4.6c0.2,1.5-0.6,2.4-2,2.8c0.2,1.6-0.4,2.6-2,3c-0.3,0.7-0.7,1.3-1,2c0.8,0,1.7,0.2,2.4,0
	c3.2-0.9,6.9-0.4,9.6-3C232,201.8,232.1,201.3,232,201.1z"/>
<path class="st11" d="M189.9,195.9c-2.3,0.8-3.8-1.5-5.9-0.8c-0.1,0.6,0.3,0.9,0.8,1c1.4,0.1,1.8,0.9,0.9,1.8
	c-1.3,1.4-2.1,2.9-2.8,4.7c-0.7,1.9-2.6,1.7-4.3,0.6c-1.3-0.8-0.9-2.8-2.5-3.1c-1.6,0.4-2.2,1.4-2,3c0.5,0,1.2-0.2,1.4,0
	c1.8,2,4.4,2.7,6.6,4c0.1-0.7-0.4-1.6,0.7-2c2-0.7,3.4-2.2,4.3-4.2c0.4-0.9,0.9-1.7,2-1.8C188.6,198,189.7,197.3,189.9,195.9z"/>
<path class="st12" d="M92,68.8c0-0.5,0.4-0.9,1-0.7c-0.1-1.7,0.7-3.1,1.8-4.2c2.1-2.1,3.4-4.5,3.4-7.5c0-0.1,0.5-0.2,0.8-0.3
	c0.8-2.6,1.3-5.3,2.4-7.8c0.5-1.1,0.4-2.1,0.6-3.2c-0.1-0.3-0.2-0.6-0.3-0.8c-0.6,0.5-1.1,1-1.7,1.4c-0.7,0.5-1.2,2.3-2.4,0.5
	c-0.7,0.6-1.3,1.4-2.1,1.8c-0.3,0.1-0.7-1-1.5-0.9c0.3,3.7-1,7.3-2.3,10.5c-1.1,2.6-1.7,5.1-1.7,7.8c0,0.8,0.2,2-0.3,2.3
	C87.9,69.2,90,70,90,71.1C91.2,70.8,91.9,70.1,92,68.8z"/>
<path class="st13" d="M178.6,159.5c0.1,0,0.1,0.1,0.2,0.1c0.1-0.2,0.2-0.3,0.2-0.5c-0.2,0-0.4,0-0.6,0.1
	C178.5,159.3,178.5,159.4,178.6,159.5z"/>
<path class="st13" d="M174,139.9c-0.1,0.7-0.1,1.3-1,1.2c-0.1,0.6,0.3,1.3-0.3,1.9c-2.3,2-4.2,4.4-5.7,7.1c0,0.7,0,1.3,0,2
	c2.3,0,4.7,0,7,0c0.3,0,0.7,0,1,0c1.3,0.7,2.4-1.6,4.1,0.3c1.4,1.7,0.5,2.5-0.1,3.7c0,1,0,2,0,3c2-0.3,3.7,0.5,5.1,1.7
	c1.2,1,2.7,1.5,3.9,2.3c0.5-0.1,1.2,0,0.6-0.9c-0.2-0.3-0.4-0.7-0.6-1.1c0.5-1.3-0.9-1.9-1-3c-0.3-0.1-0.8-0.2-0.8-0.3
	c0.1-3.6-1.9-7-1.2-10.7c-3-0.7-3.4-6.1-7.8-4.4c-0.2,0.1-1.3-0.9-1.2-1.9c0-0.7,0.4-1.8-1-1.8C174.4,139,174.1,139.4,174,139.9z"/>
<path class="st14" d="M52.9,196.7c1.9,2.4,3.6,1.1,5.5,0.2c1.4,2,4.3,3,3.6,6.2c1.5-0.1,0.8-1.2,1-2c0.2-1.7-2.1-3.9,0.7-5.3
	c0.2-0.1,0.3-0.6,0.3-0.8c-0.4-3.1,1.8-5.8,1-8.9c-3.5-0.2-3.7-0.3-3.9-3.3c-0.1-1.2-0.7-1.7-1.6-2.7c-1.3,2-3.9,2.2-5.3,4.5
	c-1.8-1.3-3-3.3-5.2-2.5c-1.9,0.6-0.6,2.1-1,3.2c-1.5,3.8-2.1,7.7-2,11.8c0.8,0,1.5,0,2.2-0.7C49.8,195.2,51.8,195.1,52.9,196.7z"/>
<path class="st7" d="M54.2,184.6c1.3-2.4,4-2.5,5.3-4.5c0.9,1,1.5,1.5,1.6,2.7c0.2,3,0.4,3.1,3.9,3.3c0-0.8,0-1.5,0.6-2.2
	c1.4-1.6,1.5-3.7,1.4-5.8c-0.3-0.1-0.5,0-0.7,0.2c-0.3,0.3-0.5,0.6-0.9,0.6c-0.1,0-0.3-0.1-0.4-0.2c-0.1-0.1-0.2-0.1-0.3-0.3
	c-1.1-1.1-2.9-1.4-4.4-2.1c-0.5,0.5-0.9,1.2-1.4,1.4c-2.1,0.7-4.4,0.2-6.4,1.4c-0.2-1.5-3.3,0.8-2.5-2c-0.9-0.1-1,0.5-1,1.2
	c0,1.3,0,2.5,0,3.8C51.3,181.3,52.5,183.2,54.2,184.6z"/>
<path class="st5" d="M98.2,35.1c0.5-0.1,0.9-0.4,0.8-1c-0.3,0-0.7-0.1-1,0c-1.6,0.5-0.5-2.5-1.8-1.6c-1.5,1-1.5-0.5-2.1-0.9
	C93.2,31,92,31,91.3,29.9c-0.4-0.6-0.2-1.2-0.3-1.9c-2.2,0.9-2.7,2.8-2.8,5.3c0.9-0.9,1.5-1.5,2.1-2.1c0.1-0.1,0.2,0,0.3,0
	c2.1,2.2,2.1,2.2,2.8,5c0.7-0.9,1.2-1.6,1.6-2.1c1.4,0.2,0.3,2.1,1.9,2C96.9,35.2,97.6,35.2,98.2,35.1z"/>
<path class="st5" d="M95,26.1c-0.3-1.5-1.1-1.2-2-0.5c-0.5,0.4-0.7,0.4-0.9,0.2c-0.1-0.1-0.1-0.4-0.2-0.7c-1.9,0.5-0.6,2-1,3
	c0.3,0,0.7,0,1,0C92.8,27.1,94.7,27.8,95,26.1z"/>
<path class="st2" d="M105,32.1c0-0.7-0.3-1-1-1c-1,2.1-2.5,3.4-5,3c0.1,0.6-0.3,0.9-0.8,1c-0.7,0.1-1.3,0.1-1.2,1
	c1.1,0.2,1.8,0.9,2,2C101.4,36.5,103.4,34.5,105,32.1z"/>
<path class="st2" d="M106.6,22.9c-2.1,2.4-2.2,2.8-0.6,6.2c0.6-0.1,1.3,0.3,1.8-0.3c1.6-1.7,2-0.5,2.4,1c0,0.2,0.5,0.2,0.8,0.3
	c2.2-1.4,4.2-2.8,4.2-5.8c3.1-0.6,6-0.2,8.8,0.8c0.3-0.7,0.7-1.3,1-2c-1-0.5-2-1-3.9-2c2.4,0,3.8,0,5.2,0c0.5,0,0.8-0.4,0.7-1
	c-1,0-2,0-3,0c-1.5-0.8-2.9-1.6-4.3-2.7c-2.7-2.1-5.4-1.7-8,0.6c-1.2,1-2,2.5-3.6,3.1C108,22.1,107.1,22.4,106.6,22.9z"/>
<path class="st15" d="M111,34.6c1.6-0.6,2.7-1.3,3.2,1.4c0.2,1.3,2.4,2.4,4.1,3.1c0.5,0.2,0.9,0.4,0.8,1c-1.2,2.1-1.3,4.6-1.9,6.9
	c-0.4,1.5,1.1,1,1.9,1.1c0.3,0,0.7,0,1,0c2.7-2.9,5.8-2.4,9.1-1.4c0.3,0.1,0.5,0.3,0.8,0.4c1.1,0.4,1.8-2.3,2.8-0.6
	c0.6,0.9,0.9,1.9,2,2.6c1.2-3.9-1.3-6.2-3.8-8.5c1.1-0.5,2.3-0.7,2.2-2.9c1.2,1.4,2.4,2.1,2.9,3.4c2.1,0.8,2.9,3.2,5,4c0-1,0-2,0-3
	c-0.9-1.4-1.2-3.1-2.7-4.2c-0.6-0.5-0.2-1.2-0.3-1.8c-1.1-0.1-1.8-1-2.2-1.8c-0.7-1.3-2.2-1.9-2.8-3.2c-0.7-0.3-1.3-0.7-2-1
	c-2.6-1.3-3.8-4.5-7-5c-2.9-1-5.8-1.4-8.8-0.8c0,3-2,4.4-4.2,5.8c0.5,1.3-0.9,1.9-1,3C110.2,34.8,110.2,34.9,111,34.6z"/>
<path class="st2" d="M109,39.1c0.7-1.7,2.4-2.6,3.4-4c1.1,0.7,0.7,1.9,0.4,2.6c-0.4,0.9-1.3,2.3-0.3,2.2c1.4-0.1,1.9,2.5,3.4,0.9
	c0.9-1.1,2.1-0.5,3.2-0.6c0.1-0.6-0.3-0.8-0.8-1c-1.7-0.6-3.8-1.7-4.1-3.1c-0.5-2.8-1.6-2.1-3.2-1.4c-0.8,0.3-0.8,0.2-1-1.5
	c-0.3,0.1-0.8,0.2-0.8,0.3c-0.1,2.2-1.4,3.8-2.2,5.7C107.7,39.1,108.3,39.1,109,39.1C109,39.1,109,39.1,109,39.1z"/>
<path class="st16" d="M196,83.9c-0.1,0.7-0.1,1.3-1,1.2c0,0.7,0,1.3,0,2c0,1.4,0,2.9,0,4.3c0,1.5-0.6,2.3-2,2.7
	c-0.1,0.6,0.3,1.4-0.3,1.8c-0.8,0.6-0.7,1.4-0.7,2.2c1.8,0.3,1.2,2.1,0.8,2.5c-1.1,1.1-0.7,2.3-0.8,3.5c0.6,0.1,0.9-0.3,1-0.7
	c0.7-2.4,1.3-4.8,2-7.3c-0.5-1.5,1.3-2.4,1-3.9c-0.2-1.4-0.1-2.9,0-4.3c0-0.7-0.3-1.7,1-1.7c0-1,0-2,0-3
	C196.4,83,196.1,83.4,196,83.9z"/>
<path class="st17" d="M195,39.1c0.7,0.3,1.3,0.7,2,1c0-0.3,0-0.7,0-1c0.5-0.8-1.9-1.2-0.3-2.3c0.3-0.2,0.4-1.1,0.2-1.3
	c-1.6-1.5-2.3-4.1-4.9-4.5c0.1,0.6-0.1,1.2,0.3,1.8C193.3,34.9,195,36.6,195,39.1z"/>
<path class="st18" d="M196,87.8c0,1.4-0.2,2.9,0,4.3c0.3,1.6-1.5,2.4-1,3.9c0.7,0,1,0.3,1,1c0.2,0,0.4,0,0.5,0
	c1.5-4.8,1.6-6.8,0.5-11C195.7,86.1,196,87.1,196,87.8z"/>
<path class="st6" d="M125.8,22.1c1.1-0.2,2.3,0.5,3.2-0.5c-0.3-0.6-1.1-0.7-1-1.6c-0.3,0-0.7,0-1,0c0.1,0.6-0.3,1-0.7,1
	c-1.4,0.1-2.8,0-5.2,0c2,1,3,1.5,3.9,2C124.9,22.5,125.3,22.2,125.8,22.1z"/>
<path class="st6" d="M131,30.1c-0.1-1.3,0.5-3.1-1.1-3.4c-1.8-0.4-1.8-2-2.7-2.9c-0.7-0.7-1.4-0.7-2.2-0.7c-0.3,0.7-0.7,1.3-1,2
	C127.2,25.6,128.4,28.8,131,30.1z"/>
<path class="st19" d="M115,169.5c-2-2.1-4.5-3.9-6-6.4c-2.2-1-2.6-3.4-3.9-5.1c-0.3-0.5-0.8-1-1.1-1.5c-3-5.9-2.9-5.9-3.1-13.7
	c0-1.1,1.1-2.8-0.6-3.6c-0.1,0-0.2,0-0.3,0c0,2.5,0,5.1,0,7.6c0,0.7-0.1,1.3-1,1.2c-0.1,1.4,0.1,2.8,1,4c1.1,2,2.2,4,3.3,6
	c2,3.5,5.2,6.2,6.7,10c1.5,1.5,4,1.8,5,4c0.3,0,0.7,0,1,0C116.2,171,115.8,170.3,115,169.5z"/>
<path class="st20" d="M209,178.1c-0.1,0-0.1,0-0.2-0.1c-0.2-0.1-0.5-0.1-0.6-0.3c-3.2-2.3-3.9-6.3-6.1-9.3c-1.6-2.2-2.6-4.9-5-6.5
	c-2.4,1.1-3.2,3.2-4.1,5.2c0.5,2.3,3,2.1,4.2,3.6c1.3,1.7,2.8,3.3,4.6,4.3c2.1,1.3,3.7,3.4,6.2,4.1C208.7,179.1,209,178.8,209,178.1
	z"/>
<path class="st21" d="M191,46.1c1.6-0.2,0.6,1.6,1.4,1.9c1-0.4,0.4-1.3,0.6-1.9c-0.1-1.1-1.5-1.7-1-3c-1.6-0.3-2.3,0.4-2,2
	C190.7,45.1,191,45.4,191,46.1z"/>
<path class="st22" d="M122,96.1c0.1-1.1,1.5-1.7,1-3c-0.3,0-0.6,0-1,0c-1.6,0.3-0.4-2.1-1.9-2.1c-1,0-2.2,0.6-3.1-0.5
	c-0.1-0.1,0-0.3,0-0.5c-0.7,0-1.3,0-2,0c-0.2,2-2.2,0.2-2.9,1.4c0.5,0.7,0.9,1.5,1.9,1.6c1.1,0.2,1.8,0.9,2,2c1,0.7,2,1.3,3,2
	C120.1,96.9,120.7,95.6,122,96.1z"/>
</svg>
